<svg width="52" height="52" viewBox="0 0 52 52" fill="none" xmlns="http://www.w3.org/2000/svg">
<circle cx="26" cy="26" r="26" fill="#E9E4F9"/>
<mask id="mask0" mask-type="alpha" maskUnits="userSpaceOnUse" x="7" y="7" width="38" height="38">
<rect x="7.79883" y="7.80078" width="36.4" height="36.4" fill="#C4C4C4"/>
</mask>
<g mask="url(#mask0)">
<path d="M38.2891 27.1573C38.5129 27.5466 38.7368 27.9392 38.9639 28.3285C39.1098 28.5848 39.2591 28.8378 39.4051 29.0941C39.4894 29.2434 39.5835 29.3893 39.6516 29.5483C39.6192 29.4705 39.5867 29.3926 39.5543 29.3147C39.5965 29.425 39.6257 29.5353 39.6419 29.6521C39.6289 29.5645 39.6192 29.4802 39.6062 29.3926C39.6192 29.5061 39.6192 29.6197 39.603 29.7332C39.6159 29.6456 39.6257 29.5613 39.6387 29.4737C39.6224 29.5872 39.5932 29.6943 39.5511 29.8014C39.5835 29.7235 39.6159 29.6456 39.6484 29.5678C39.6387 29.5937 39.5348 29.8338 39.5056 29.8306C39.4959 29.8273 39.6516 29.6554 39.5932 29.7203C39.5738 29.7397 39.5543 29.7657 39.5348 29.7851C39.4992 29.8208 39.3434 29.9506 39.4862 29.8403C39.6257 29.7332 39.4732 29.8435 39.4278 29.8695C39.4116 29.8792 39.3953 29.889 39.3791 29.8954C39.2072 29.996 39.0352 30.0933 38.8665 30.1907C38.3831 30.4697 37.8965 30.7487 37.4131 31.0277C37.199 31.151 37.0011 31.2742 36.8097 31.4397C36.3231 31.8582 36.0603 32.5103 36.0506 33.1461C36.0441 33.5549 36.0506 33.9669 36.0506 34.3757C36.0506 34.6936 36.0506 35.0148 36.0506 35.3327C36.0506 35.5144 36.0603 35.6993 36.0376 35.8778C36.0506 35.7902 36.0603 35.7058 36.0733 35.6182C36.0571 35.7318 36.0279 35.8421 35.9857 35.9491C36.0181 35.8713 36.0506 35.7934 36.083 35.7156C36.0506 35.7934 36.0084 35.8648 35.9662 35.9394C35.8916 36.0659 36.109 35.7837 36.0311 35.8583C36.0019 35.8875 35.9759 35.9199 35.9467 35.9491C35.9208 35.9751 35.8948 35.9946 35.8689 36.0205C35.7521 36.1308 36.0733 35.8907 35.9338 35.9686C35.8592 36.0108 35.791 36.0529 35.7099 36.0854C35.7878 36.0529 35.8656 36.0205 35.9435 35.9881C35.8364 36.0302 35.7261 36.0594 35.6126 36.0757C35.7002 36.0627 35.7845 36.0529 35.8721 36.04C35.4601 36.0886 35.0254 36.0529 34.6101 36.0529C34.13 36.0529 33.6531 36.0497 33.173 36.0529C32.2775 36.0562 31.5314 36.5363 31.0902 37.302C30.8274 37.7594 30.5646 38.2168 30.2986 38.6743C30.1688 38.8981 30.0423 39.122 29.9125 39.3426C29.8833 39.3912 29.8574 39.4431 29.8249 39.4918C29.7179 39.6605 29.9774 39.3231 29.8411 39.4723C29.8022 39.5145 29.7568 39.5534 29.7146 39.5924C29.653 39.6508 29.8249 39.4951 29.8249 39.5048C29.8249 39.5113 29.7471 39.5567 29.7341 39.5632C29.6789 39.5956 29.6205 39.6248 29.5621 39.6475C29.64 39.6151 29.7179 39.5826 29.7957 39.5502C29.6887 39.5924 29.5816 39.6216 29.4681 39.6378C29.5557 39.6248 29.64 39.6151 29.7276 39.6021C29.6141 39.6151 29.5005 39.6151 29.387 39.6054C29.4746 39.6183 29.5589 39.6281 29.6465 39.641C29.5297 39.6248 29.4194 39.5956 29.3091 39.5534C29.387 39.5859 29.4648 39.6183 29.5427 39.6508C29.1923 39.5015 28.8614 39.2712 28.5305 39.083C28.1055 38.8397 27.6805 38.5932 27.2555 38.3498C26.9506 38.1747 26.6359 38.0546 26.2855 38.006C25.7697 37.9378 25.2636 38.0514 24.8094 38.3077C24.4233 38.5283 24.0405 38.7489 23.6577 38.9695C23.2619 39.1966 22.8693 39.4691 22.4508 39.6508C22.5287 39.6183 22.6066 39.5859 22.6844 39.5534C22.5741 39.5956 22.4638 39.6248 22.347 39.641C22.4346 39.6281 22.519 39.6183 22.6066 39.6054C22.493 39.6183 22.3795 39.6183 22.2659 39.6021C22.3535 39.6151 22.4379 39.6248 22.5255 39.6378C22.4119 39.6216 22.3049 39.5924 22.1978 39.5502C22.2757 39.5826 22.3535 39.6151 22.4314 39.6475C22.4054 39.6378 22.1654 39.534 22.1686 39.5048C22.1718 39.4951 22.3438 39.6508 22.2789 39.5924C22.2562 39.5729 22.2335 39.5534 22.214 39.534C22.1783 39.4983 22.0486 39.3426 22.1589 39.4853C22.2659 39.6248 22.1556 39.4723 22.1297 39.4269C22.1199 39.4107 22.1102 39.3945 22.1037 39.3783C22.0031 39.2063 21.9058 39.0344 21.8085 38.8657C21.5295 38.3823 21.2505 37.8989 20.9715 37.4155C20.8482 37.2014 20.7249 37.0035 20.5595 36.8121C20.141 36.3255 19.4889 36.0627 18.853 36.0529C18.4443 36.0465 18.0322 36.0529 17.6235 36.0529C17.3055 36.0529 16.9844 36.0529 16.6664 36.0529C16.4848 36.0529 16.2998 36.0627 16.1214 36.04C16.209 36.0529 16.2933 36.0627 16.3809 36.0757C16.2674 36.0594 16.1571 36.0302 16.05 35.9881C16.1279 36.0205 16.2058 36.0529 16.2836 36.0854C16.2058 36.0529 16.1344 36.0108 16.0598 35.9686C15.9332 35.894 16.2155 36.1113 16.1409 36.0335C16.1117 36.0043 16.0792 35.9783 16.05 35.9491C16.0241 35.9232 16.0046 35.8972 15.9787 35.8713C15.8684 35.7545 16.1084 36.0757 16.0306 35.9362C15.9884 35.8615 15.9462 35.7934 15.9138 35.7123C15.9462 35.7902 15.9787 35.868 16.0111 35.9459C15.9689 35.8388 15.9397 35.7285 15.9235 35.615C15.9365 35.7026 15.9462 35.7869 15.9592 35.8745C15.9105 35.4625 15.9462 35.0278 15.9462 34.6125C15.9462 34.1324 15.9495 33.6555 15.9462 33.1753C15.943 32.2799 15.4628 31.5338 14.6972 31.0926C14.2398 30.8298 13.7823 30.567 13.3249 30.301C13.101 30.1712 12.8772 30.0447 12.6566 29.9149C12.6079 29.8857 12.556 29.8598 12.5074 29.8273C12.3387 29.7203 12.6761 29.9798 12.5268 29.8435C12.4846 29.8046 12.4457 29.7592 12.4068 29.717C12.3484 29.6554 12.5041 29.8273 12.4944 29.8273C12.4879 29.8273 12.4425 29.7495 12.436 29.7365C12.4035 29.6813 12.3743 29.6229 12.3516 29.5645C12.3841 29.6424 12.4165 29.7203 12.449 29.7981C12.4068 29.6911 12.3776 29.584 12.3614 29.4705C12.3743 29.558 12.3841 29.6424 12.3971 29.73C12.3841 29.6164 12.3841 29.5029 12.3938 29.3893C12.3808 29.4769 12.3711 29.5613 12.3581 29.6489C12.3743 29.5321 12.4035 29.4218 12.4457 29.3115C12.4133 29.3893 12.3808 29.4672 12.3484 29.5451C12.4976 29.1947 12.728 28.8638 12.9161 28.5329C13.1594 28.1079 13.406 27.6829 13.6493 27.2579C13.8245 26.9529 13.9445 26.6383 13.9932 26.2879C14.0613 25.7721 13.9478 25.266 13.6915 24.8118C13.4709 24.4257 13.2503 24.0429 13.0297 23.6601C12.8026 23.2643 12.5301 22.8717 12.3484 22.4532C12.3808 22.5311 12.4133 22.609 12.4457 22.6868C12.4035 22.5765 12.3743 22.4662 12.3581 22.3494C12.3711 22.437 12.3808 22.5214 12.3938 22.609C12.3808 22.4954 12.3808 22.3819 12.3971 22.2683C12.3841 22.3559 12.3743 22.4403 12.3614 22.5278C12.3776 22.4143 12.4068 22.3072 12.449 22.2002C12.4165 22.278 12.3841 22.3559 12.3516 22.4338C12.3614 22.4078 12.4652 22.1677 12.4944 22.171C12.5041 22.1742 12.3484 22.3462 12.4068 22.2813C12.4262 22.2586 12.4457 22.2359 12.4652 22.2164C12.5009 22.1807 12.6566 22.0509 12.5138 22.1613C12.3743 22.2683 12.5268 22.158 12.5722 22.1321C12.5885 22.1223 12.6047 22.1126 12.6209 22.1061C12.7928 22.0055 12.9648 21.9082 13.1335 21.8109C13.6169 21.5319 14.1003 21.2529 14.5836 20.9739C14.7978 20.8506 14.9957 20.7273 15.1871 20.5619C15.6737 20.1434 15.9365 19.4913 15.9462 18.8554C15.9527 18.4466 15.9462 18.0346 15.9462 17.6259C15.9462 17.3079 15.9462 16.9867 15.9462 16.6688C15.9462 16.4871 15.9365 16.3022 15.9592 16.1238C15.9462 16.2114 15.9365 16.2957 15.9235 16.3833C15.9397 16.2698 15.9689 16.1595 16.0111 16.0524C15.9787 16.1303 15.9462 16.2081 15.9138 16.286C15.9462 16.2081 15.9884 16.1368 16.0306 16.0621C16.1052 15.9356 15.8878 16.2179 15.9657 16.1432C15.9949 16.114 16.0208 16.0816 16.05 16.0524C16.076 16.0265 16.1019 16.007 16.1279 15.981C16.2447 15.8707 15.9235 16.1108 16.063 16.0329C16.1376 15.9908 16.2058 15.9486 16.2869 15.9162C16.209 15.9486 16.1311 15.981 16.0533 16.0135C16.1603 15.9713 16.2706 15.9421 16.3842 15.9259C16.2966 15.9389 16.2122 15.9486 16.1246 15.9616C16.5367 15.9129 16.9714 15.9486 17.3866 15.9486C17.8668 15.9486 18.3437 15.9518 18.8238 15.9486C19.7192 15.9454 20.4654 15.4652 20.9066 14.6996C21.1694 14.2421 21.4322 13.7847 21.6982 13.3273C21.828 13.1034 21.9545 12.8796 22.0843 12.659C22.1135 12.6103 22.1394 12.5584 22.1718 12.5097C22.2789 12.341 22.0194 12.6784 22.1556 12.5292C22.1946 12.487 22.24 12.4481 22.2821 12.4092C22.3438 12.3508 22.1718 12.5065 22.1718 12.4968C22.1718 12.4903 22.2497 12.4449 22.2627 12.4384C22.3178 12.4059 22.3762 12.3767 22.4346 12.354C22.3568 12.3865 22.2789 12.4189 22.201 12.4513C22.3081 12.4092 22.4152 12.38 22.5287 12.3637C22.4411 12.3767 22.3568 12.3865 22.2692 12.3994C22.3827 12.3865 22.4963 12.3865 22.6098 12.3962C22.5222 12.3832 22.4379 12.3735 22.3503 12.3605C22.4671 12.3767 22.5774 12.4059 22.6877 12.4481C22.6098 12.4157 22.532 12.3832 22.4541 12.3508C22.8045 12.5 23.1354 12.7303 23.4663 12.9185C23.8913 13.1618 24.3163 13.4084 24.7413 13.6517C25.0462 13.8269 25.3609 13.9469 25.7113 13.9956C26.2271 14.0637 26.7332 13.9502 27.1874 13.6939C27.5734 13.4733 27.9563 13.2527 28.3391 13.0321C28.7349 12.805 29.1274 12.5324 29.5459 12.3508C29.4681 12.3832 29.3902 12.4157 29.3123 12.4481C29.4226 12.4059 29.533 12.3767 29.6497 12.3605C29.5621 12.3735 29.4778 12.3832 29.3902 12.3962C29.5038 12.3832 29.6173 12.3832 29.7308 12.3994C29.6433 12.3865 29.5589 12.3767 29.4713 12.3637C29.5849 12.38 29.6919 12.4092 29.799 12.4513C29.7211 12.4189 29.6433 12.3865 29.5654 12.354C29.5913 12.3637 29.8314 12.4676 29.8282 12.4968C29.8249 12.5065 29.653 12.3508 29.7179 12.4092C29.7406 12.4286 29.7633 12.4481 29.7828 12.4676C29.8184 12.5032 29.9482 12.659 29.8379 12.5162C29.7308 12.3767 29.8412 12.5292 29.8671 12.5746C29.8768 12.5908 29.8866 12.6071 29.8931 12.6233C29.9936 12.7952 30.091 12.9672 30.1883 13.1359C30.4673 13.6193 30.7463 14.1026 31.0253 14.586C31.1486 14.8001 31.2718 14.998 31.4373 15.1895C31.8558 15.6761 32.5079 15.9389 33.1438 15.9486C33.5525 15.9551 33.9645 15.9486 34.3733 15.9486C34.6912 15.9486 35.0124 15.9486 35.3303 15.9486C35.512 15.9486 35.6969 15.9389 35.8754 15.9616C35.7878 15.9486 35.7034 15.9389 35.6158 15.9259C35.7294 15.9421 35.8397 15.9713 35.9467 16.0135C35.8689 15.981 35.791 15.9486 35.7132 15.9162C35.791 15.9486 35.8624 15.9908 35.937 16.0329C36.0635 16.1076 35.7813 15.8902 35.8559 15.9681C35.8851 15.9973 35.9175 16.0232 35.9467 16.0524C35.9727 16.0784 35.9922 16.1043 36.0181 16.1303C36.1284 16.2471 35.8884 15.9259 35.9662 16.0654C36.0084 16.14 36.0506 16.2081 36.083 16.2892C36.0506 16.2114 36.0181 16.1335 35.9857 16.0557C36.0279 16.1627 36.0571 16.273 36.0733 16.3866C36.0603 16.299 36.0506 16.2146 36.0376 16.127C36.0862 16.539 36.0506 16.9738 36.0506 17.389C36.0506 17.8692 36.0473 18.3461 36.0506 18.8262C36.0538 19.7216 36.5339 20.4678 37.2996 20.909C37.757 21.1718 38.2144 21.4345 38.6719 21.7006C38.8957 21.8303 39.1196 21.9569 39.3402 22.0866C39.3889 22.1158 39.4408 22.1418 39.4894 22.1742C39.6581 22.2813 39.3207 22.0218 39.47 22.158C39.5121 22.1969 39.5511 22.2424 39.59 22.2845C39.6484 22.3462 39.4927 22.1742 39.5024 22.1742C39.5089 22.1742 39.5543 22.2521 39.5608 22.2651C39.5932 22.3202 39.6224 22.3786 39.6451 22.437C39.6127 22.3591 39.5803 22.2813 39.5478 22.2034C39.59 22.3105 39.6192 22.4175 39.6354 22.5311C39.6224 22.4435 39.6127 22.3591 39.5997 22.2716C39.6127 22.3851 39.6127 22.4986 39.603 22.6122C39.6159 22.5246 39.6257 22.4403 39.6387 22.3527C39.6224 22.4695 39.5932 22.5798 39.5511 22.6901C39.5835 22.6122 39.6159 22.5343 39.6484 22.4565C39.4764 22.862 39.2104 23.2416 38.9931 23.6211C38.7595 24.0267 38.5194 24.4322 38.2923 24.841C37.8868 25.5709 37.8868 26.4241 38.2891 27.1573Z" stroke="#5E43F6" stroke-width="1.2"/>
<path d="M20.1785 31.8139L31.8057 20.1867" stroke="#5E43F6" stroke-width="1.2" stroke-linecap="round" stroke-linejoin="round"/>
<circle cx="21.8397" cy="21.8495" r="1.89155" stroke="#5E43F6" stroke-width="1.2"/>
<circle cx="30.1451" cy="30.1547" r="1.89155" stroke="#5E43F6" stroke-width="1.2"/>
</g>
</svg>
