<svg width="52" height="52" viewBox="0 0 52 52" fill="none" xmlns="http://www.w3.org/2000/svg">
<circle cx="26" cy="26" r="26" fill="#CFEFDA"/>
<path d="M16 30.0986V22.8591C16 19.9791 17.0957 17.2171 19.0461 15.1806C20.9965 13.1441 23.6417 12 26.4 12C29.1583 12 31.8035 13.1441 33.7539 15.1806C35.7043 17.2171 36.8 19.9791 36.8 22.8591V27.2193" stroke="#3FB252" stroke-width="1.2"/>
<path d="M36.8 28.571C36.8 29.1944 36.5565 29.7922 36.1231 30.233C35.6897 30.6738 35.1018 30.9214 34.4889 30.9214H33.3333C32.7204 30.9214 32.1325 30.6738 31.6991 30.233C31.2657 29.7922 31.0222 29.1944 31.0222 28.571V25.0453C31.0222 24.4219 31.2657 23.8241 31.6991 23.3833C32.1325 22.9425 32.7204 22.6948 33.3333 22.6948H36.8V28.571ZM16 28.571C16 29.1944 16.2435 29.7922 16.6769 30.233C17.1103 30.6738 17.6982 30.9214 18.3111 30.9214H19.4667C20.0796 30.9214 20.6675 30.6738 21.1009 30.233C21.5343 29.7922 21.7778 29.1944 21.7778 28.571V25.0453C21.7778 24.4219 21.5343 23.8241 21.1009 23.3833C20.6675 22.9425 20.0796 22.6948 19.4667 22.6948H16V28.571Z" stroke="#3FB252" stroke-width="1.2"/>
<path d="M16 26.8081V32.5667C16.1333 34.3492 17.2 37.5027 21.2 37.9141" stroke="#3FB252" stroke-width="1.2"/>
<rect width="7.01261" height="2.46414" rx="1.23207" transform="matrix(0.969312 0.245833 -0.233224 0.972423 21.375 36.6797)" stroke="#3FB252" stroke-width="1.2"/>
</svg>
