<svg width="52" height="52" viewBox="0 0 52 52" fill="none" xmlns="http://www.w3.org/2000/svg">
<circle cx="26" cy="26" r="26" fill="#E9E4F9"/>
<circle cx="26" cy="26" r="12.35" stroke="#5E43F6" stroke-width="1.3"/>
<path d="M27.4795 22.8316L28.0412 22.5045L27.4795 22.8316C27.7127 23.2319 28.1033 23.5158 28.5561 23.6138L30.8418 24.1088C31.104 24.1656 31.2075 24.484 31.0287 24.6841L29.4705 26.428C29.1618 26.7735 29.0126 27.2327 29.0593 27.6936L29.2949 30.0204C29.3219 30.2873 29.051 30.4841 28.8055 30.376L26.6654 29.4329C26.2415 29.2461 25.7585 29.2461 25.3346 29.4329L23.1945 30.376C22.949 30.4841 22.6781 30.2873 22.7051 30.0204L22.9407 27.6936C22.9874 27.2327 22.8382 26.7735 22.5295 26.428L20.9713 24.6841C20.7925 24.484 20.896 24.1656 21.1582 24.1088L23.4439 23.6138C23.8967 23.5158 24.2873 23.2319 24.5205 22.8316L25.6976 20.8107C25.8326 20.5789 26.1674 20.5789 26.3024 20.8107L27.4795 22.8316Z" stroke="#5E43F6" stroke-width="1.3"/>
</svg>
