<svg width="52" height="52" viewBox="0 0 52 52" fill="none" xmlns="http://www.w3.org/2000/svg">
<circle cx="26" cy="26" r="26" fill="#D5DBF8"/>
<path d="M38.35 22.5335C38.35 22.6529 38.2527 22.7501 38.1333 22.7501C36.3409 22.7501 34.8833 24.2077 34.8833 26.0001C34.8833 27.7926 36.3409 29.2501 38.1333 29.2501C38.2527 29.2501 38.35 29.3474 38.35 29.4668V34.6668C38.35 34.7862 38.2527 34.8835 38.1333 34.8835H13.8667C13.7473 34.8835 13.65 34.7862 13.65 34.6668V29.4668C13.65 29.3474 13.7473 29.2501 13.8667 29.2501C15.6591 29.2501 17.1167 27.7926 17.1167 26.0001C17.1167 24.2077 15.6591 22.7501 13.8667 22.7501C13.7473 22.7501 13.65 22.6529 13.65 22.5335V17.3335C13.65 17.214 13.7473 17.1168 13.8667 17.1168H38.1333C38.2527 17.1168 38.35 17.214 38.35 17.3335V22.5335Z" stroke="#3458F5" stroke-width="1.3"/>
<path d="M30.7893 21.2107C30.5085 20.9298 30.0544 20.9298 29.7736 21.2107L21.2106 29.7737C20.9297 30.0546 20.9297 30.5086 21.2106 30.7895C21.3507 30.9296 21.5346 31 21.7185 31C21.9024 31 22.0863 30.9296 22.2264 30.7895L30.7893 22.2265C31.0702 21.9456 31.0702 21.4916 30.7893 21.2107Z" fill="#3458F5"/>
<path d="M22.5336 20.5833C23.6081 20.5833 24.4836 21.4589 24.4836 22.5333C24.4836 23.6078 23.6081 24.4833 22.5336 24.4833C21.4591 24.4833 20.5836 23.6078 20.5836 22.5333C20.5836 21.4589 21.4591 20.5833 22.5336 20.5833Z" stroke="#3458F5" stroke-width="1.3"/>
<path d="M27.5172 29.4667C27.5172 28.3922 28.3927 27.5167 29.4672 27.5167C30.5417 27.5167 31.4172 28.3922 31.4172 29.4667C31.4172 30.5412 30.5417 31.4167 29.4672 31.4167C28.3927 31.4167 27.5172 30.5412 27.5172 29.4667Z" stroke="#3458F5" stroke-width="1.3"/>
</svg>
