<svg width="52" height="52" viewBox="0 0 52 52" fill="none" xmlns="http://www.w3.org/2000/svg">
<circle cx="26" cy="26" r="26" fill="#EFCFEC"/>
<path d="M8.81922 24.9293C8.68077 25.0277 8.58411 25.1743 8.54827 25.3402C8.51242 25.5062 8.53998 25.6796 8.62552 25.8263L11.3454 30.5373C11.4356 30.6935 11.5841 30.8074 11.7583 30.8541C11.9325 30.9008 12.1181 30.8764 12.2743 30.7862C13.5716 30.0372 15.2355 30.4752 15.9898 31.7817C16.7441 33.0882 16.2915 34.7482 14.9942 35.4972C14.838 35.5874 14.7241 35.7359 14.6774 35.9101C14.6307 36.0843 14.6551 36.2699 14.7453 36.4261L17.4652 41.1371C17.5554 41.2932 17.7039 41.4072 17.8781 41.4538C18.0523 41.5005 18.2379 41.4761 18.3941 41.3859L43.1277 27.1059C43.2839 27.0157 43.3979 26.8672 43.4445 26.693C43.4912 26.5188 43.4668 26.3332 43.3767 26.1771L40.6568 21.4661C40.5666 21.3099 40.4181 21.196 40.2439 21.1493C40.0697 21.1026 39.8841 21.127 39.7279 21.2172C38.4306 21.9662 36.7666 21.5282 36.0123 20.2217C35.2581 18.9152 35.7107 17.2552 37.008 16.5062C37.1642 16.416 37.2781 16.2675 37.3248 16.0933C37.3715 15.9191 37.347 15.7335 37.2569 15.5773L34.537 10.8663C34.4468 10.7102 34.2983 10.5962 34.1241 10.5495C33.9499 10.5029 33.7643 10.5273 33.6081 10.6175L8.87443 24.8975C8.85554 24.9072 8.83712 24.9179 8.81922 24.9293ZM10.1433 25.7352L21.3324 19.2752L29.492 33.4082L18.303 39.8682L16.194 36.2153C17.6764 34.9707 18.171 32.8396 17.1676 31.1017C16.1642 29.3638 14.0713 28.7266 12.2523 29.3881L10.1433 25.7352ZM22.5101 18.5952L33.6992 12.1352L35.8082 15.7881C34.3258 17.0327 33.8312 19.1638 34.8345 20.9017C35.8379 22.6396 37.9308 23.2768 39.7499 22.6153L41.8589 26.2682L30.6698 32.7282L22.5101 18.5952ZM15.9558 27.0903C15.8806 27.1386 15.8156 27.2012 15.7645 27.2746C15.7135 27.348 15.6774 27.4307 15.6583 27.5181C15.6392 27.6054 15.6375 27.6957 15.6533 27.7837C15.6691 27.8717 15.7021 27.9557 15.7504 28.0309C15.7987 28.1062 15.8613 28.1712 15.9347 28.2222C16.0081 28.2733 16.0908 28.3093 16.1782 28.3284C16.2655 28.3475 16.3558 28.3491 16.4438 28.3333C16.5318 28.3175 16.6158 28.2845 16.691 28.2362L22.58 24.8362C22.6587 24.7923 22.7278 24.7331 22.7834 24.6622C22.8391 24.5913 22.88 24.51 22.904 24.4232C22.9279 24.3363 22.9343 24.2455 22.9229 24.1561C22.9115 24.0667 22.8824 23.9805 22.8373 23.9025C22.7922 23.8244 22.7321 23.7561 22.6604 23.7015C22.5887 23.6469 22.5069 23.6071 22.4197 23.5844C22.3325 23.5617 22.2417 23.5566 22.1524 23.5693C22.0632 23.582 21.9774 23.6123 21.9 23.6585L16.0111 27.0585C15.9922 27.0682 15.9737 27.0788 15.9558 27.0903ZM28.5838 21.7625C28.4453 21.8608 28.3486 22.0074 28.3128 22.1734C28.277 22.3394 28.3045 22.5128 28.3901 22.6595L30.09 25.6039C30.1802 25.76 30.3287 25.874 30.5029 25.9207C30.6771 25.9673 30.8627 25.9429 31.0189 25.8528L33.9634 24.1528C34.1195 24.0626 34.2335 23.914 34.2802 23.7399C34.3268 23.5657 34.3024 23.3801 34.2123 23.2239L32.5123 20.2795C32.4222 20.1233 32.2736 20.0094 32.0994 19.9627C31.9252 19.9161 31.7396 19.9405 31.5835 20.0306L28.639 21.7306C28.6201 21.7404 28.6017 21.751 28.5838 21.7625ZM29.9078 22.5684L31.6745 21.5484L32.6945 23.315L30.9278 24.335L29.9078 22.5684ZM19.3557 32.9791C19.2805 33.0273 19.2154 33.09 19.1644 33.1633C19.1133 33.2367 19.0772 33.3195 19.0582 33.4068C19.0391 33.4942 19.0374 33.5844 19.0532 33.6724C19.069 33.7604 19.102 33.8444 19.1503 33.9197C19.1985 33.9949 19.2612 34.0599 19.3346 34.111C19.408 34.162 19.4907 34.1981 19.578 34.2171C19.6654 34.2362 19.7556 34.2379 19.8436 34.2221C19.9316 34.2062 20.0157 34.1732 20.0909 34.1249L25.9799 30.7249C26.0585 30.681 26.1277 30.6218 26.1833 30.5509C26.2389 30.48 26.2799 30.3988 26.3038 30.3119C26.3278 30.225 26.3342 30.1343 26.3228 30.0449C26.3113 29.9555 26.2822 29.8693 26.2372 29.7912C26.1921 29.7132 26.132 29.6449 26.0603 29.5903C25.9886 29.5357 25.9068 29.4959 25.8196 29.4732C25.7324 29.4504 25.6415 29.4453 25.5523 29.458C25.4631 29.4707 25.3773 29.501 25.2999 29.5472L19.4109 32.9472C19.392 32.957 19.3736 32.9676 19.3557 32.9791Z" fill="#A731D0"/>
</svg>
