<svg width="52" height="52" viewBox="0 0 52 52" fill="none" xmlns="http://www.w3.org/2000/svg">
<circle cx="26" cy="26" r="26" fill="#E6F7F9"/>
<mask id="mask0" mask-type="alpha" maskUnits="userSpaceOnUse" x="7" y="7" width="38" height="38">
<rect x="7.80078" y="7.79956" width="36.4" height="36.4" fill="#C4C4C4"/>
</mask>
<g mask="url(#mask0)">
<path d="M38.2922 27.1569C38.5161 27.5462 38.7399 27.9388 38.967 28.3281C39.113 28.5844 39.2623 28.8374 39.4082 29.0937C39.4926 29.2429 39.5867 29.3889 39.6548 29.5479C39.6224 29.47 39.5899 29.3922 39.5575 29.3143C39.5997 29.4246 39.6289 29.5349 39.6451 29.6517C39.6321 29.5641 39.6224 29.4798 39.6094 29.3922C39.6224 29.5057 39.6224 29.6193 39.6061 29.7328C39.6191 29.6452 39.6288 29.5609 39.6418 29.4733C39.6256 29.5868 39.5964 29.6939 39.5542 29.8009C39.5867 29.7231 39.6191 29.6452 39.6516 29.5674C39.6418 29.5933 39.538 29.8334 39.5088 29.8301C39.4991 29.8269 39.6548 29.6549 39.5964 29.7198C39.5769 29.7393 39.5575 29.7652 39.538 29.7847C39.5023 29.8204 39.3466 29.9502 39.4894 29.8399C39.6289 29.7328 39.4764 29.8431 39.431 29.8691C39.4147 29.8788 39.3985 29.8885 39.3823 29.895C39.2103 29.9956 39.0384 30.0929 38.8697 30.1902C38.3863 30.4692 37.8997 30.7482 37.4163 31.0272C37.2022 31.1505 37.0043 31.2738 36.8129 31.4393C36.3262 31.8578 36.0635 32.5098 36.0537 33.1457C36.0472 33.5545 36.0537 33.9665 36.0537 34.3753C36.0537 34.6932 36.0537 35.0144 36.0537 35.3323C36.0537 35.514 36.0635 35.6989 36.0408 35.8773C36.0537 35.7897 36.0635 35.7054 36.0764 35.6178C36.0602 35.7313 36.031 35.8416 35.9889 35.9487C36.0213 35.8708 36.0537 35.793 36.0862 35.7151C36.0537 35.793 36.0116 35.8644 35.9694 35.939C35.8948 36.0655 36.1121 35.7833 36.0343 35.8579C36.0051 35.8871 35.9791 35.9195 35.9499 35.9487C35.924 35.9747 35.898 35.9941 35.8721 36.0201C35.7553 36.1304 36.0764 35.8903 35.9369 35.9682C35.8623 36.0103 35.7942 36.0525 35.7131 36.085C35.791 36.0525 35.8688 36.0201 35.9467 35.9876C35.8396 36.0298 35.7293 36.059 35.6158 36.0752C35.7034 36.0623 35.7877 36.0525 35.8753 36.0395C35.4633 36.0882 35.0286 36.0525 34.6133 36.0525C34.1332 36.0525 33.6563 36.0493 33.1761 36.0525C32.2807 36.0558 31.5346 36.5359 31.0933 37.3015C30.8306 37.759 30.5678 38.2164 30.3018 38.6738C30.172 38.8977 30.0455 39.1215 29.9157 39.3421C29.8865 39.3908 29.8605 39.4427 29.8281 39.4914C29.721 39.6601 29.9806 39.3227 29.8443 39.4719C29.8054 39.5141 29.76 39.553 29.7178 39.5919C29.6562 39.6503 29.8281 39.4946 29.8281 39.5044C29.8281 39.5108 29.7502 39.5563 29.7373 39.5628C29.6821 39.5952 29.6237 39.6244 29.5653 39.6471C29.6432 39.6147 29.721 39.5822 29.7989 39.5498C29.6918 39.5919 29.5848 39.6211 29.4712 39.6374C29.5588 39.6244 29.6432 39.6147 29.7308 39.6017C29.6172 39.6147 29.5037 39.6147 29.3901 39.6049C29.4777 39.6179 29.5621 39.6276 29.6497 39.6406C29.5329 39.6244 29.4226 39.5952 29.3123 39.553C29.3901 39.5855 29.468 39.6179 29.5459 39.6503C29.1955 39.5011 28.8646 39.2708 28.5337 39.0826C28.1087 38.8393 27.6837 38.5927 27.2587 38.3494C26.9537 38.1742 26.639 38.0542 26.2887 38.0055C25.7728 37.9374 25.2667 38.051 24.8126 38.3072C24.4265 38.5279 24.0437 38.7485 23.6609 38.9691C23.2651 39.1962 22.8725 39.4687 22.454 39.6503C22.5319 39.6179 22.6097 39.5855 22.6876 39.553C22.5773 39.5952 22.467 39.6244 22.3502 39.6406C22.4378 39.6276 22.5222 39.6179 22.6097 39.6049C22.4962 39.6179 22.3826 39.6179 22.2691 39.6017C22.3567 39.6147 22.441 39.6244 22.5286 39.6374C22.4151 39.6211 22.308 39.5919 22.201 39.5498C22.2788 39.5822 22.3567 39.6147 22.4346 39.6471C22.4086 39.6374 22.1685 39.5336 22.1718 39.5044C22.175 39.4946 22.347 39.6503 22.2821 39.5919C22.2594 39.5725 22.2367 39.553 22.2172 39.5336C22.1815 39.4979 22.0517 39.3421 22.162 39.4849C22.2691 39.6244 22.1588 39.4719 22.1328 39.4265C22.1231 39.4103 22.1134 39.3941 22.1069 39.3778C22.0063 39.2059 21.909 39.0339 21.8117 38.8652C21.5327 38.3819 21.2537 37.8985 20.9747 37.4151C20.8514 37.201 20.7281 37.0031 20.5626 36.8117C20.1441 36.325 19.4921 36.0623 18.8562 36.0525C18.4474 36.046 18.0354 36.0525 17.6266 36.0525C17.3087 36.0525 16.9875 36.0525 16.6696 36.0525C16.4879 36.0525 16.303 36.0623 16.1246 36.0395C16.2122 36.0525 16.2965 36.0623 16.3841 36.0752C16.2706 36.059 16.1603 36.0298 16.0532 35.9876C16.1311 36.0201 16.2089 36.0525 16.2868 36.085C16.2089 36.0525 16.1376 36.0103 16.0629 35.9682C15.9364 35.8936 16.2187 36.1109 16.144 36.0331C16.1148 36.0039 16.0824 35.9779 16.0532 35.9487C16.0272 35.9228 16.0078 35.8968 15.9818 35.8708C15.8715 35.7541 16.1116 36.0752 16.0337 35.9357C15.9916 35.8611 15.9494 35.793 15.9169 35.7119C15.9494 35.7897 15.9818 35.8676 16.0143 35.9455C15.9721 35.8384 15.9429 35.7281 15.9267 35.6146C15.9397 35.7021 15.9494 35.7865 15.9624 35.8741C15.9137 35.4621 15.9494 35.0274 15.9494 34.6121C15.9494 34.132 15.9526 33.6551 15.9494 33.1749C15.9461 32.2795 15.466 31.5333 14.7004 31.0921C14.2429 30.8293 13.7855 30.5666 13.3281 30.3005C13.1042 30.1708 12.8804 30.0442 12.6598 29.9145C12.6111 29.8853 12.5592 29.8593 12.5105 29.8269C12.3418 29.7198 12.6792 29.9794 12.53 29.8431C12.4878 29.8042 12.4489 29.7588 12.41 29.7166C12.3516 29.6549 12.5073 29.8269 12.4976 29.8269C12.4911 29.8269 12.4456 29.749 12.4392 29.736C12.4067 29.6809 12.3775 29.6225 12.3548 29.5641C12.3872 29.642 12.4197 29.7198 12.4521 29.7977C12.41 29.6906 12.3808 29.5836 12.3645 29.47C12.3775 29.5576 12.3872 29.642 12.4002 29.7296C12.3872 29.616 12.3872 29.5025 12.397 29.3889C12.384 29.4765 12.3743 29.5609 12.3613 29.6485C12.3775 29.5317 12.4067 29.4214 12.4489 29.3111C12.4164 29.3889 12.384 29.4668 12.3516 29.5446C12.5008 29.1943 12.7311 28.8634 12.9193 28.5324C13.1626 28.1075 13.4092 27.6825 13.6525 27.2575C13.8277 26.9525 13.9477 26.6378 13.9964 26.2875C14.0645 25.7716 13.951 25.2655 13.6947 24.8113C13.4741 24.4253 13.2535 24.0425 13.0328 23.6596C12.8058 23.2639 12.5332 22.8713 12.3516 22.4528C12.384 22.5307 12.4164 22.6085 12.4489 22.6864C12.4067 22.5761 12.3775 22.4658 12.3613 22.349C12.3743 22.4366 12.384 22.5209 12.397 22.6085C12.384 22.495 12.384 22.3814 12.4002 22.2679C12.3872 22.3555 12.3775 22.4398 12.3645 22.5274C12.3808 22.4139 12.41 22.3068 12.4521 22.1998C12.4197 22.2776 12.3872 22.3555 12.3548 22.4333C12.3645 22.4074 12.4684 22.1673 12.4976 22.1706C12.5073 22.1738 12.3516 22.3457 12.41 22.2809C12.4294 22.2581 12.4489 22.2354 12.4684 22.216C12.504 22.1803 12.6598 22.0505 12.517 22.1608C12.3775 22.2679 12.53 22.1576 12.5754 22.1316C12.5916 22.1219 12.6079 22.1122 12.6241 22.1057C12.796 22.0051 12.968 21.9078 13.1367 21.8104C13.62 21.5314 14.1034 21.2524 14.5868 20.9734C14.8009 20.8502 14.9988 20.7269 15.1902 20.5614C15.6769 20.1429 15.9397 19.4908 15.9494 18.855C15.9559 18.4462 15.9494 18.0342 15.9494 17.6254C15.9494 17.3075 15.9494 16.9863 15.9494 16.6684C15.9494 16.4867 15.9397 16.3018 15.9624 16.1234C15.9494 16.2109 15.9397 16.2953 15.9267 16.3829C15.9429 16.2693 15.9721 16.159 16.0143 16.052C15.9818 16.1298 15.9494 16.2077 15.9169 16.2856C15.9494 16.2077 15.9916 16.1363 16.0337 16.0617C16.1084 15.9352 15.891 16.2174 15.9689 16.1428C15.9981 16.1136 16.024 16.0812 16.0532 16.052C16.0792 16.026 16.1051 16.0066 16.1311 15.9806C16.2479 15.8703 15.9267 16.1104 16.0662 16.0325C16.1408 15.9903 16.2089 15.9482 16.29 15.9157C16.2122 15.9482 16.1343 15.9806 16.0564 16.0131C16.1635 15.9709 16.2738 15.9417 16.3874 15.9255C16.2998 15.9384 16.2154 15.9482 16.1278 15.9611C16.5398 15.9125 16.9746 15.9482 17.3898 15.9482C17.87 15.9482 18.3469 15.9514 18.827 15.9482C19.7224 15.9449 20.4686 15.4648 20.9098 14.6991C21.1726 14.2417 21.4353 13.7843 21.7014 13.3268C21.8311 13.103 21.9577 12.8791 22.0874 12.6585C22.1166 12.6099 22.1426 12.558 22.175 12.5093C22.2821 12.3406 22.0225 12.678 22.1588 12.5288C22.1977 12.4866 22.2431 12.4477 22.2853 12.4087C22.347 12.3503 22.175 12.5061 22.175 12.4963C22.175 12.4898 22.2529 12.4444 22.2659 12.4379C22.321 12.4055 22.3794 12.3763 22.4378 12.3536C22.3599 12.386 22.2821 12.4185 22.2042 12.4509C22.3113 12.4087 22.4183 12.3795 22.5319 12.3633C22.4443 12.3763 22.3599 12.386 22.2723 12.399C22.3859 12.386 22.4994 12.386 22.613 12.3958C22.5254 12.3828 22.441 12.3731 22.3535 12.3601C22.4702 12.3763 22.5805 12.4055 22.6908 12.4477C22.613 12.4152 22.5351 12.3828 22.4573 12.3503C22.8076 12.4996 23.1385 12.7299 23.4695 12.9181C23.8944 13.1614 24.3194 13.408 24.7444 13.6513C25.0494 13.8265 25.3641 13.9465 25.7144 13.9952C26.2303 14.0633 26.7364 13.9497 27.1906 13.6934C27.5766 13.4728 27.9594 13.2522 28.3423 13.0316C28.738 12.8045 29.1306 12.532 29.5491 12.3503C29.4712 12.3828 29.3934 12.4152 29.3155 12.4477C29.4258 12.4055 29.5361 12.3763 29.6529 12.3601C29.5653 12.3731 29.481 12.3828 29.3934 12.3958C29.5069 12.3828 29.6205 12.3828 29.734 12.399C29.6464 12.386 29.5621 12.3763 29.4745 12.3633C29.588 12.3795 29.6951 12.4087 29.8021 12.4509C29.7243 12.4185 29.6464 12.386 29.5686 12.3536C29.5945 12.3633 29.8346 12.4671 29.8313 12.4963C29.8281 12.5061 29.6562 12.3503 29.721 12.4087C29.7438 12.4282 29.7665 12.4477 29.7859 12.4671C29.8216 12.5028 29.9514 12.6585 29.8411 12.5158C29.734 12.3763 29.8443 12.5288 29.8703 12.5742C29.88 12.5904 29.8897 12.6066 29.8962 12.6229C29.9968 12.7948 30.0941 12.9667 30.1915 13.1354C30.4705 13.6188 30.7495 14.1022 31.0285 14.5856C31.1517 14.7997 31.275 14.9976 31.4405 15.189C31.859 15.6757 32.5111 15.9384 33.1469 15.9482C33.5557 15.9547 33.9677 15.9482 34.3765 15.9482C34.6944 15.9482 35.0156 15.9482 35.3335 15.9482C35.5152 15.9482 35.7001 15.9384 35.8785 15.9611C35.791 15.9482 35.7066 15.9384 35.619 15.9255C35.7326 15.9417 35.8429 15.9709 35.9499 16.0131C35.8721 15.9806 35.7942 15.9482 35.7163 15.9157C35.7942 15.9482 35.8656 15.9903 35.9402 16.0325C36.0667 16.1071 35.7845 15.8898 35.8591 15.9676C35.8883 15.9968 35.9207 16.0228 35.9499 16.052C35.9759 16.0779 35.9953 16.1039 36.0213 16.1298C36.1316 16.2466 35.8915 15.9255 35.9694 16.065C36.0116 16.1396 36.0537 16.2077 36.0862 16.2888C36.0537 16.2109 36.0213 16.1331 35.9889 16.0552C36.031 16.1623 36.0602 16.2726 36.0764 16.3861C36.0635 16.2985 36.0537 16.2142 36.0408 16.1266C36.0894 16.5386 36.0537 16.9733 36.0537 17.3886C36.0537 17.8687 36.0505 18.3456 36.0537 18.8258C36.057 19.7212 36.5371 20.4673 37.3028 20.9086C37.7602 21.1713 38.2176 21.4341 38.6751 21.7001C38.8989 21.8299 39.1228 21.9564 39.3434 22.0862C39.392 22.1154 39.4439 22.1414 39.4926 22.1738C39.6613 22.2809 39.3239 22.0213 39.4731 22.1576C39.5153 22.1965 39.5542 22.2419 39.5932 22.2841C39.6516 22.3457 39.4958 22.1738 39.5056 22.1738C39.5121 22.1738 39.5575 22.2517 39.564 22.2646C39.5964 22.3198 39.6256 22.3782 39.6483 22.4366C39.6159 22.3587 39.5834 22.2809 39.551 22.203C39.5932 22.3101 39.6224 22.4171 39.6386 22.5307C39.6256 22.4431 39.6159 22.3587 39.6029 22.2711C39.6159 22.3847 39.6159 22.4982 39.6061 22.6118C39.6191 22.5242 39.6288 22.4398 39.6418 22.3522C39.6256 22.469 39.5964 22.5793 39.5542 22.6896C39.5867 22.6118 39.6191 22.5339 39.6516 22.456C39.4796 22.8616 39.2136 23.2411 38.9962 23.6207C38.7626 24.0262 38.5226 24.4318 38.2955 24.8405C37.89 25.5705 37.89 26.4237 38.2922 27.1569Z" stroke="#089BAD" stroke-width="1.3"/>
<path d="M20.1836 31.8152L31.8108 20.188" stroke="#089BAD" stroke-width="1.3" stroke-linecap="round" stroke-linejoin="round"/>
<circle cx="21.8431" cy="21.8492" r="1.84155" stroke="#089BAD" stroke-width="1.3"/>
<circle cx="30.1478" cy="30.1541" r="1.84155" stroke="#089BAD" stroke-width="1.3"/>
</g>
</svg>
