<svg width="18" height="12" viewBox="0 0 18 12" fill="none" xmlns="http://www.w3.org/2000/svg">
<path d="M15.9757 0H1.53942C0.690583 0 0 0.690583 0 1.53942V10.4606C0 11.3094 0.690583 12 1.53942 12H15.9757C16.8246 12 17.5152 11.3094 17.5152 10.4606V1.53942C17.5152 0.690583 16.8246 0 15.9757 0ZM15.7748 1.02628L15.5694 1.19736L9.36835 6.36094C9.01442 6.65562 8.50066 6.65562 8.1468 6.36094L1.94579 1.19736L1.74033 1.02628H15.7748ZM1.02628 1.76718L6.07872 5.97434L1.02628 9.33688V1.76718ZM15.9757 10.9737H1.53942C1.29147 10.9737 1.08409 10.7969 1.03658 10.5628L6.90159 6.65952L7.49012 7.1496C7.85732 7.45537 8.30748 7.60825 8.75761 7.60825C9.20774 7.60825 9.65786 7.45537 10.0251 7.1496L10.6136 6.65952L16.4786 10.5628C16.4311 10.797 16.2237 10.9737 15.9757 10.9737ZM16.4889 9.33688L11.4364 5.97438L16.4889 1.76718V9.33688Z" fill="#f37e20"/>
</svg>
