<svg width="15" height="20" viewBox="0 0 15 20" fill="none" xmlns="http://www.w3.org/2000/svg">
<path d="M7.41663 0.757812C3.32708 0.757812 0 4.08489 0 8.17444C0 10.4745 1.19011 13.1459 3.53729 16.1144C5.25478 18.2866 6.94754 19.7877 7.01876 19.8505C7.24608 20.0511 7.58715 20.0511 7.8145 19.8505C7.88572 19.7877 9.57848 18.2866 11.296 16.1144C13.6432 13.1459 14.8333 10.4745 14.8333 8.17444C14.8333 4.08489 11.5062 0.757813 7.41663 0.757813V0.757812ZM7.41663 18.5792C5.98749 17.2172 1.2027 12.3449 1.2027 8.17444C1.2027 4.74807 3.99026 1.96051 7.41663 1.96051C10.843 1.96051 13.6306 4.74807 13.6306 8.17444C13.6306 12.3449 8.8457 17.2173 7.41663 18.5792Z" fill="#3D3D3D"/>
<path d="M12.0171 7.8183L7.80761 4.2102C7.5824 4.01717 7.25012 4.01717 7.02491 4.2102L2.81547 7.8183C2.56331 8.03441 2.53411 8.41409 2.75026 8.66624C2.96641 8.9184 3.34605 8.9476 3.5982 8.73145L4.10882 8.29374V11.2816C4.10882 11.6137 4.37807 11.883 4.71017 11.883H10.1223C10.4544 11.883 10.7237 11.6137 10.7237 11.2816V8.29374L11.2343 8.73145C11.4876 8.94858 11.8671 8.91727 12.0823 8.66624C12.2984 8.41409 12.2692 8.03445 12.0171 7.8183ZM9.52097 10.6803H5.31152V7.26284L7.41624 5.45879L9.52097 7.26284V10.6803Z" fill="#3D3D3D"/>
</svg>
