<svg width="20" height="19" viewBox="0 0 20 19" fill="none" xmlns="http://www.w3.org/2000/svg">
<path d="M9.49415 19C9.43161 19 9.36827 18.985 9.31127 18.9549L0.212969 14.2046C0.0823375 14.1366 0 14.0012 0 13.8539V4.94722C0 4.81025 0.0712536 4.68279 0.187635 4.61074C0.304016 4.5387 0.450481 4.53236 0.572404 4.59332L9.6707 9.14564C9.8045 9.21293 9.88921 9.3499 9.88921 9.49953V18.6042C9.88921 18.7427 9.81717 18.871 9.69841 18.943C9.63666 18.981 9.5654 19 9.49415 19ZM0.791707 13.614L9.0983 17.951V9.74417L0.791707 5.58771V13.614Z" fill="#3D3D3D"/>
<path d="M9.50718 18.9996C9.43593 18.9996 9.36467 18.9806 9.30213 18.9426C9.18416 18.8706 9.11133 18.7423 9.11133 18.6038V9.49914C9.11133 9.34951 9.19604 9.21254 9.32984 9.14525L18.4281 4.59294C18.5493 4.53118 18.6965 4.53752 18.8129 4.61035C18.9301 4.6824 19.0013 4.80986 19.0013 4.94683V13.8535C19.0013 14.0008 18.919 14.1362 18.7884 14.2043L9.69007 18.9545C9.63306 18.9846 9.56973 18.9996 9.50718 18.9996ZM9.90304 9.74378V17.9506L18.2096 13.6136V5.58732L9.90304 9.74378ZM18.6055 13.8535H18.6134H18.6055Z" fill="#3D3D3D"/>
<path d="M0.396676 5.34363C0.251002 5.34363 0.111662 5.26366 0.0419916 5.12512C-0.0561801 4.92956 0.0237823 4.69205 0.219334 4.59388L9.3303 0.0415646C9.44193 -0.0138549 9.57335 -0.0138549 9.68419 0.0415646L18.7825 4.59388C18.978 4.69205 19.0572 4.92956 18.9598 5.12512C18.8617 5.32067 18.6249 5.39905 18.4286 5.30246L9.50764 0.838022L0.574019 5.30167C0.517016 5.33017 0.456846 5.34363 0.396676 5.34363Z" fill="#3D3D3D"/>
<path d="M14.2522 11.8748C14.0336 11.8748 13.8563 11.6975 13.8563 11.479V7.3692L4.97652 2.92614C4.78097 2.82876 4.70179 2.59046 4.79997 2.39491C4.89814 2.19936 5.13565 2.12098 5.3312 2.21757L14.4295 6.76988C14.5633 6.83797 14.648 6.97494 14.648 7.12457V11.479C14.648 11.6975 14.4707 11.8748 14.2522 11.8748Z" fill="#3D3D3D"/>
</svg>
