<svg width="18" height="21" viewBox="0 0 18 21" fill="none" xmlns="http://www.w3.org/2000/svg">
<path d="M8.8552 11.3155C8.87694 11.3155 8.89868 11.3155 8.92478 11.3155C8.93348 11.3155 8.94217 11.3155 8.95087 11.3155C8.96392 11.3155 8.98131 11.3155 8.99436 11.3155C10.2685 11.2937 11.2992 10.8458 12.0602 9.98909C13.7345 8.10173 13.4562 4.86626 13.4257 4.55749C13.317 2.23961 12.2211 1.13068 11.3166 0.613174C10.6425 0.226135 9.85541 0.017395 8.97696 0H8.94652C8.94217 0 8.93347 0 8.92913 0H8.90303C8.42032 0 7.47229 0.0782776 6.5634 0.595779C5.65017 1.11328 4.53689 2.22221 4.42817 4.55749C4.39773 4.86626 4.11941 8.10173 5.79368 9.98909C6.55036 10.8458 7.58101 11.2937 8.8552 11.3155ZM5.58928 4.66621C5.58928 4.65317 5.59363 4.64012 5.59363 4.63142C5.73714 1.51337 7.95066 1.17851 8.89868 1.17851H8.91608C8.92478 1.17851 8.93782 1.17851 8.95087 1.17851C10.125 1.2046 12.1211 1.68297 12.2559 4.63142C12.2559 4.64447 12.2559 4.65752 12.2603 4.66621C12.2646 4.69665 12.569 7.65381 11.1861 9.21066C10.6382 9.82818 9.9076 10.1326 8.94652 10.1413C8.93782 10.1413 8.93348 10.1413 8.92478 10.1413C8.91608 10.1413 8.91173 10.1413 8.90303 10.1413C7.94631 10.1326 7.21137 9.82818 6.66777 9.21066C5.28922 7.6625 5.58494 4.69231 5.58928 4.66621Z" fill="#f37e20"/>
<path d="M17.8615 16.6819C17.8615 16.6775 17.8615 16.6732 17.8615 16.6688C17.8615 16.634 17.8572 16.5992 17.8572 16.5601C17.8311 15.699 17.7745 13.6856 15.8872 13.042C15.8741 13.0376 15.8567 13.0333 15.8437 13.0289C13.8824 12.5288 12.2516 11.3981 12.2342 11.3851C11.969 11.1981 11.6037 11.2633 11.4167 11.5286C11.2297 11.7939 11.2949 12.1592 11.5602 12.3461C11.6341 12.3983 13.3649 13.6029 15.5306 14.1596C16.5438 14.5205 16.6569 15.6034 16.6873 16.5949C16.6873 16.634 16.6873 16.6688 16.6917 16.7036C16.696 17.095 16.67 17.6995 16.6004 18.0474C15.8959 18.4475 13.1344 19.8304 8.93352 19.8304C4.75002 19.8304 1.97117 18.4431 1.26232 18.043C1.19274 17.6951 1.1623 17.0906 1.171 16.6993C1.171 16.6645 1.17535 16.6297 1.17535 16.5905C1.20579 15.599 1.31886 14.5162 2.33212 14.1552C4.49779 13.5986 6.2286 12.3896 6.30253 12.3418C6.5678 12.1548 6.63303 11.7895 6.44604 11.5242C6.25904 11.259 5.89374 11.1937 5.62847 11.3807C5.61107 11.3938 3.98899 12.5244 2.01901 13.0246C2.00161 13.0289 1.98856 13.0333 1.97552 13.0376C0.0881587 13.6856 0.0316249 15.699 0.00553243 16.5557C0.00553243 16.5949 0.00553233 16.6297 0.00118358 16.6645C0.00118358 16.6688 0.00118358 16.6732 0.00118358 16.6775C-0.00316518 16.9036 -0.00751384 18.0648 0.22297 18.6475C0.266458 18.7606 0.344735 18.8562 0.449105 18.9215C0.579568 19.0084 3.70632 21.0002 8.93787 21.0002C14.1694 21.0002 17.2962 19.0041 17.4266 18.9215C17.5267 18.8562 17.6093 18.7606 17.6528 18.6475C17.8702 18.0691 17.8659 16.908 17.8615 16.6819Z" fill="#f37e20"/>
</svg>
