<svg width="28" height="26" viewBox="0 0 28 26" fill="none" xmlns="http://www.w3.org/2000/svg">
<path d="M18.1176 16.1554L18.1319 16.2268L18.166 16.2912C18.1729 16.3043 18.1792 16.3243 18.1792 16.35C18.1792 16.4224 18.1206 16.4829 18.0489 16.4862C18.0402 16.4859 18.0231 16.4853 18.0007 16.4863H9.1084C9.06622 16.4863 9.03096 16.4689 9.0066 16.4386L9.00663 16.4386L9.00261 16.4337C8.97826 16.4042 8.96733 16.3626 8.97515 16.3229C8.97516 16.3228 8.97518 16.3227 8.97519 16.3227L10.2477 9.96019C10.2477 9.96015 10.2477 9.96011 10.2477 9.96008C10.2608 9.89532 10.317 9.8501 10.3811 9.8501H16.7446C16.8087 9.8501 16.8649 9.89523 16.878 9.95988C16.878 9.95998 16.878 9.96008 16.8781 9.96019L18.1176 16.1554Z" stroke="white"/>
<path d="M15.3717 25.3473L15.3717 25.3473L15.3694 25.3444C15.3431 25.3123 15.3329 25.2691 15.3402 25.2316C15.3403 25.2315 15.3403 25.2314 15.3403 25.2314L16.6128 18.8689C16.6128 18.8688 16.6128 18.8688 16.6128 18.8688C16.6259 18.804 16.682 18.7588 16.7462 18.7588H23.1097C23.1738 18.7588 23.23 18.8039 23.2431 18.8686C23.2431 18.8687 23.2431 18.8688 23.2432 18.8689L24.4827 25.0641L24.497 25.1355L24.5311 25.1999C24.538 25.213 24.5443 25.233 24.5443 25.2587C24.5443 25.3301 24.4874 25.3899 24.417 25.3947C24.4168 25.3947 24.4167 25.3947 24.4165 25.3947C24.3988 25.3942 24.3844 25.3946 24.3771 25.3949C24.3763 25.3949 24.3751 25.395 24.3738 25.395H15.4735C15.4313 25.395 15.3961 25.3776 15.3717 25.3473Z" stroke="white"/>
<path d="M2.64332 25.3473L2.64335 25.3473L2.63933 25.3424C2.61498 25.3129 2.60405 25.2713 2.61187 25.2316C2.61188 25.2315 2.61189 25.2314 2.61191 25.2314L3.88441 18.8689C3.88442 18.8688 3.88443 18.8688 3.88444 18.8687C3.89752 18.804 3.95369 18.7588 4.01782 18.7588H10.3814C10.4455 18.7588 10.5016 18.8039 10.5147 18.8686C10.5147 18.8687 10.5148 18.8688 10.5148 18.8689L11.7543 25.0641L11.7686 25.1355L11.8027 25.1999C11.8096 25.213 11.8159 25.233 11.8159 25.2587C11.8159 25.3301 11.759 25.3899 11.6887 25.3947C11.6695 25.3941 11.6554 25.3947 11.6489 25.3949L11.6485 25.3949L11.6461 25.395H2.74512C2.70294 25.395 2.66768 25.3776 2.64332 25.3473Z" stroke="white"/>
<path d="M26.8731 9.25109L24.1754 8.57639L23.4996 5.88097C23.4272 5.57809 22.9141 5.57809 22.8418 5.88097L22.166 8.57639L19.4706 9.24996C19.318 9.28726 19.2129 9.42288 19.2129 9.57884C19.2129 9.7348 19.318 9.87042 19.4706 9.90771L22.166 10.5813L22.8418 13.2778C22.8825 13.4315 23.017 13.5366 23.1741 13.5366C23.3312 13.5366 23.4657 13.4315 23.503 13.2801L24.1765 10.5835L26.8742 9.90884C27.029 9.87155 27.133 9.73593 27.133 9.57997C27.133 9.42401 27.0257 9.28952 26.8731 9.25109Z" fill="white"/>
<path d="M3.95554 13.5365C4.1115 13.5365 4.24712 13.4314 4.28442 13.2799L4.95912 10.5834L7.65454 9.90982C7.80711 9.87252 7.91222 9.73691 7.91222 9.58094C7.91222 9.42498 7.80711 9.28936 7.65454 9.25207L4.95912 8.5785L4.28442 5.88195C4.20983 5.57906 3.70126 5.57906 3.62667 5.88195L2.95197 8.57737L0.256545 9.25094C0.105104 9.28936 0 9.42498 0 9.58094C0 9.73691 0.105104 9.87252 0.257675 9.90982L2.9531 10.5834L3.6278 13.2799C3.66396 13.4314 3.79958 13.5365 3.95554 13.5365Z" fill="white"/>
<path d="M9.86592 4.2539L12.5636 4.92748L13.2372 7.62403C13.2733 7.77547 13.409 7.88057 13.5649 7.88057C13.7209 7.88057 13.8565 7.77547 13.8938 7.62403L14.5674 4.92748L17.265 4.2539C17.4142 4.21548 17.5205 4.07986 17.5205 3.92503C17.5205 3.7702 17.4142 3.63345 17.2639 3.59615L14.5662 2.92258L13.8927 0.227161C13.8181 -0.0757204 13.3095 -0.0757204 13.2349 0.227161L12.5613 2.92258L9.86366 3.59615C9.71561 3.63345 9.60938 3.76907 9.60938 3.92503C9.60938 4.08099 9.71561 4.21548 9.86592 4.2539Z" fill="white"/>
</svg>
