<svg width="19" height="26" viewBox="0 0 19 26" fill="none" xmlns="http://www.w3.org/2000/svg">
<path d="M6.44362 9.96104C6.13162 10.4735 5.64199 10.9856 5.12532 11.5018C4.99878 11.6283 4.86893 11.7565 4.73662 11.8871C4.20295 12.414 3.62941 12.9803 3.07285 13.6278C1.69647 15.2289 0.478513 17.2673 0.500288 20.126L6.44362 9.96104ZM6.44362 9.96104H12.2741C12.5862 10.4735 13.0758 10.9856 13.5925 11.5018C13.719 11.6282 13.8488 11.7563 13.981 11.8868C14.5147 12.4138 15.0884 12.9802 15.645 13.6278C17.0213 15.2289 18.2392 17.2672 18.2174 20.126C18.2082 21.3212 17.9785 22.2261 17.5869 22.9179C17.1979 23.6053 16.6302 24.1158 15.8864 24.4954C14.3679 25.2702 12.1535 25.483 9.37408 25.483H9.37405H9.37402H9.37399H9.37396H9.37393H9.3739H9.37387H9.37383H9.3738H9.37377H9.37374H9.37371H9.37368H9.37365H9.37362H9.37359H9.37356H9.37352H9.37349H9.37346H9.37343H9.3734H9.37337H9.37334H9.37331H9.37328H9.37325H9.37322H9.37318H9.37315H9.37312H9.37309H9.37306H9.37303H9.373H9.37297H9.37294H9.37291H9.37288H9.37285H9.37282H9.37279H9.37276H9.37272H9.37269H9.37266H9.37263H9.3726H9.37257H9.37254H9.37251H9.37248H9.37245H9.37242H9.37239H9.37236H9.37233H9.3723H9.37227H9.37224H9.37221H9.37218H9.37215H9.37212H9.37209H9.37206H9.37203H9.372H9.37197H9.37193H9.37191H9.37187H9.37184H9.37181H9.37178H9.37175H9.37172H9.37169H9.37166H9.37163H9.3716H9.37157H9.37154H9.37151H9.37148H9.37145H9.37142H9.37139H9.37136H9.37133H9.3713H9.37127H9.37124H9.37121H9.37118H9.37115H9.37112H9.37109H9.37107H9.37103H9.37101H9.37098H9.37094H9.37092H9.37089H9.37086H9.37083H9.3708H9.37077H9.37074H9.37071H9.37068H9.37065H9.37062H9.37059H9.37056H9.37053H9.3705H9.37047H9.37044H9.37041H9.37038H9.37035H9.37032H9.37029H9.37026H9.37023H9.3702H9.37017H9.37014H9.37011H9.37008H9.37006H9.37003H9.37H9.36997H9.36994H9.36991H9.36988H9.36985H9.36982H9.36979H9.36976H9.36973H9.3697H9.36967H9.36964H9.36961H9.36958H9.36955H9.36952H9.3695H9.36947H9.36944H9.36941H9.36938H9.36935H9.36932H9.36929H9.36926H9.36923H9.3692H9.36917H9.36914H9.36911H9.36909H9.36906H9.36903H9.369H9.36897H9.36894H9.36891H9.36888H9.36885H9.36882H9.36879H9.36876H9.36873H9.3687H9.36868H9.36865H9.36862H9.36859H9.36856H9.36853H9.3685H9.36847H9.36844H9.36841H9.36838H9.36835H9.36833H9.3683H9.36827H9.36824H9.36821H9.36818H9.36815H9.36812H9.36809H9.36806H9.36803H9.368H9.36798H9.36795H9.36792H9.36789H9.36786H9.36783H9.3678H9.36777H9.36774H9.36771H9.36769H9.36766H9.36763H9.3676H9.36757H9.36754H9.36751H9.36748H9.36745H9.36742H9.36739H9.36736H9.36734H9.36731H9.36728H9.36725H9.36722H9.36719H9.36716H9.36713H9.3671H9.36707H9.36705H9.36702H9.36699H9.36696H9.36693H9.3669H9.36687H9.36684H9.36681H9.36679H9.36676H9.36673H9.3667H9.36667H9.36664H9.36661H9.36658H9.36655H9.36652H9.36649H9.36647H9.36644H9.36641H9.36638H9.36635H9.36632H9.36629H9.36626H9.36623H9.3662H9.36618H9.36615H9.36612H9.36609H9.36606H9.36603H9.366H9.36597H9.36594H9.36591H9.36588H9.36586H9.36583H9.3658H9.36577H9.36574H9.36571H9.36568H9.36565H9.36562H9.36559H9.36557H9.36554H9.36551H9.36548H9.36545H9.36542H9.36539H9.36536H9.36533H9.3653H9.36528H9.36525H9.36522H9.36519H9.36516H9.36513H9.3651H9.36507H9.36504H9.36501H9.36498H9.36495H9.36493H9.3649H9.36487H9.36484H9.36481H9.36478H9.36475H9.36472H9.36469H9.36466H9.36463H9.36461H9.36458H9.36455H9.36452H9.36449H9.36446H9.36443H9.3644H9.36437H9.36434H9.36431H9.36428H9.36426H9.36423H9.3642H9.36417H9.36414H9.36411H9.36408H9.36405H9.36402H9.36399H9.36396H9.36393H9.3639H9.36388H9.36385H9.36382H9.36379H9.36376H9.36373H9.3637H9.36367H9.36364H9.36361H9.36358H9.36355H9.36352H9.36349H9.36346H9.36344H9.36341H9.36338H9.36335H9.36332H9.36329H9.36326H9.36323H9.3632H9.36317H9.36314H9.36311H9.36308H9.36305H9.36302H9.36299H9.36296H9.36294H9.36291H9.36288H9.36285H9.36282H9.36279H9.36276H9.36273H9.3627H9.36267H9.36264H9.36261H9.36258H9.36255H9.36252H9.36249H9.36246H9.36243H9.3624H9.36237H9.36234H9.36231H9.36228H9.36225H9.36222H9.36219H9.36216H9.36213H9.36211H9.36207H9.36205H9.36202H9.36199H9.36196H9.36193H9.3619H9.36187H9.36184H9.36181H9.36178H9.36175H9.36172H9.36169H9.36166H9.36163H9.3616H9.36157H9.36154H9.36151H9.36148H9.36145H9.36142H9.36139H9.36136H9.36133H9.3613H9.36127H9.36124H9.36121H9.36118H9.36115H9.36112H9.36109H9.36106H9.36103H9.361H9.36097H9.36094H9.36091H9.36088H9.36084H9.36082H9.36078H9.36075H9.36072H9.36069H9.36066H9.36063H9.3606H9.36057H9.36054H9.36051H9.36048H9.36045H9.36042H9.36039H9.36036H9.36033H9.3603H9.36027H9.36024H9.36021H9.36018H9.36015H9.36012H9.36008H9.36005H9.36002H9.35999H9.35996H9.35993H9.3599H9.35987H9.35984H9.35981H9.35978H9.35975H9.35972H9.35968H9.35965H9.35962H9.35959H9.35956H9.35953H9.3595H9.35947H9.35944H9.35941H9.35938H9.35935H9.35931H9.35928H9.35925H9.35922H9.35919H9.35916H9.35913H9.3591H9.35907H9.35903H9.359H9.35897H9.35894H9.35891H9.35888H9.35885H9.35882H9.35879H9.35876H9.35873H9.3587H9.35867H9.35864H9.35862H9.35859H9.35856H9.35853H9.3585H9.35847H9.35844H9.35841H9.35838H9.35835H9.35833H9.3583H9.35827H9.35824H9.35821H9.35818H9.35815H9.35812H9.35809H9.35806H9.35804H9.35801H9.35798H9.35795H9.35792H9.35789H9.35786H9.35783H9.3578H9.35777H9.35775H9.35772H9.35769H9.35766H9.35763H9.3576H9.35757H9.35754H9.35751H9.35748H9.35746H9.35743H9.3574H9.35737H9.35734H9.35731H9.35728H9.35725H9.35722H9.35719H9.35716H9.35714H9.35711H9.35708H9.35705H9.35702H9.35699H9.35696H9.35693H9.3569H9.35687H9.35685H9.35682H9.35679H9.35676H9.35673H9.3567H9.35667H9.35664H9.35661H9.35658H9.35656H9.35653H9.3565H9.35647H9.35644H9.35641H9.35638H9.35635H9.35632H9.35629H9.35627H9.35624H9.35621H9.35618H9.35615H9.35612H9.35609H9.35606H9.35603H9.356H9.35598H9.35595H9.35592H9.35589H9.35586H9.35583H9.3558H9.35577H9.35574H9.35571H9.35569H9.35566H9.35563H9.3556H9.35557H9.35554H9.35551H9.35548H9.35545H9.35542H9.3554H9.35537H9.35534H9.35531H9.35528H9.35525H9.35522H9.35519H9.35516H9.35513H9.3551H9.35508H9.35505H9.35502H9.35499H9.35496H9.35493H9.3549H9.35487H9.35484H9.35481H9.35479H9.35476H9.35473H9.3547H9.35467H9.35464H9.35461H9.35458H9.35455H9.35452H9.3545H9.35447H9.35444H9.35441H9.35438H9.35435H9.35432H9.35429H9.35426H9.35423H9.35421H9.35418H9.35415H9.35412H9.35409H9.35406H9.35403H9.354H9.35397H9.35394H9.35392H9.35389H9.35386H9.35383H9.3538H9.35377H9.35374H9.35371H9.35368H9.35365H9.35363H9.3536H9.35357H9.35354H9.35351H9.35348H9.35345H9.35342H9.35339H9.35336H9.35334H9.35331H9.35328H9.35325H9.35322H9.35319H9.35316H9.35313H9.3531H9.35307H9.35304H9.35302H9.35299H9.35296H9.35293H9.3529H9.35287H9.35284H9.35281H9.35278H9.35275H9.35273H9.3527H9.35267H9.35264H9.35261H9.35258H9.35255H9.35252H9.35249H9.35246H9.35244H9.35241H9.35238H9.35235H9.35232H9.35229H9.35226H9.35223H9.3522H9.35217H9.35215H9.35212H9.35209H9.35206H9.35203H9.352H9.35197H9.35194H9.35191H9.35188H9.35186H9.35183H9.3518H9.35177H9.35174H9.35171H9.35168H9.35165H9.35162H9.35159H9.35157H9.35154H9.35151H9.35148H9.35145H9.35142H9.35139H9.35136H9.35133H9.3513H9.35127H9.35125H9.35122H9.35119H9.35116H9.35113H9.3511H9.35107H9.35104H9.35101H9.35098H9.35096H9.35093H9.3509H9.35087H9.35084H9.35081H9.35078H9.35075H9.35072H9.35069H9.35067H9.35064H9.35061H9.35058H9.35055H9.35052H9.35049H9.35046H9.35043H9.3504H9.35038H9.35035H9.35032H9.35029H9.35026H9.35023H9.3502H9.35017H9.35014H9.35011H9.35009H9.35006H9.35003H9.35H9.34997H9.34994H9.34991H9.34988H9.34985H9.34982H9.3498H9.34977H9.34974H9.34971H9.34968H9.34965H9.34962H9.34959H9.34956H9.34953H9.3495H9.34948H9.34945H9.34942H9.34939H9.34936H9.34933H9.3493H9.34927H9.34924H9.34921H9.34919H9.34916H9.34913H9.3491H9.34907H9.34904H9.34901H9.34898H9.34895H9.34892H9.3489H9.34887H9.34884H9.34881H9.34878H9.34875H9.34872H9.34869H9.34866H9.34863H9.34861H9.34858H9.34855H9.34852H9.34849H9.34846H9.34843H9.3484H9.34837H9.34834H9.34832H9.34829H9.34826H9.34823H9.3482H9.34817H9.34814H9.34811H9.34808H9.34805H9.34803H9.348H9.34797H9.34794H9.34791H9.34788H9.34785H9.34782H9.34779H9.34776H9.34774H9.34771H9.34768H9.34765H9.34762H9.34759H9.34756H9.34753H9.3475H9.34747H9.34744H9.34742H9.34739H9.34736H9.34733H9.3473H9.34727H9.34724H9.34721H9.34718H9.34715H9.34713H9.3471H9.34707H9.34704H9.34701H9.34698H9.34695H9.34692H9.34689H9.34686H9.34684H9.34681H9.34678H9.34675H9.34672H9.34669H9.34666H9.34663H9.3466H9.34657H9.34655H9.34652H9.34649H9.34646H9.34643H9.3464H9.34637H9.34634H9.34631H9.34628H9.34626H9.34623H9.3462H9.34617H9.34614H9.34611H9.34608H9.34605H9.34602H9.34599H9.34597H9.34594H9.34591H9.34588H9.34585H9.34582H9.34579H9.34576H9.34573H9.3457H9.34568H9.34565H9.34562H9.34559H9.34556H9.34553H9.3455H9.34547H9.34544H9.34541H9.34538H9.34536H9.34533H9.3453H9.34527H9.34524H9.34521H9.34518H9.34515H9.34512H9.34509H9.34507H9.34504H9.34501H9.34498H9.34495H9.34492H9.34489H9.34486H9.34483H9.3448H9.34478H9.34475H9.34472H9.34469H9.34466H9.34463H9.3446H9.34457H9.34454H9.34451H9.34449H9.34446H9.34443H9.3444H9.34437H9.34434H9.34431H9.34428H9.34425H9.34422H9.3442H9.34417H9.34414H9.34411H9.34408H9.34405H9.34402H9.34399C6.5644 25.483 4.34985 25.2702 2.83129 24.4954C2.08749 24.1158 1.51983 23.6053 1.13078 22.9179C0.739185 22.2261 0.509537 21.3212 0.500288 20.126L6.44362 9.96104ZM13.4038 2.23127L13.4039 2.23139C13.6321 2.44772 13.6813 2.54493 13.691 2.56809C13.6843 2.58602 13.6547 2.65473 13.5274 2.83137C13.4958 2.87523 13.4615 2.92179 13.4249 2.97149C13.0975 3.41592 12.5847 4.11203 12.1575 5.38733H6.63704C6.26061 4.31205 5.73809 3.58704 5.40714 3.12783C5.30089 2.98041 5.21439 2.86038 5.1588 2.76496C5.09408 2.65386 5.08388 2.60476 5.08254 2.59098C5.08249 2.59043 5.08245 2.58998 5.08243 2.58963C5.08278 2.58856 5.08353 2.58652 5.08495 2.58342C5.08716 2.57861 5.09124 2.57077 5.09846 2.55979C5.13074 2.51074 5.20744 2.42599 5.37907 2.30068C5.54738 2.1778 5.78243 2.03335 6.10504 1.85709L6.10506 1.85707C7.31152 1.1978 8.87248 1.02774 10.3015 1.17342C11.011 1.24574 11.6713 1.39442 12.2181 1.5882C12.7735 1.78502 13.1767 2.01589 13.4038 2.23127ZM5.72235 7.67236C5.72235 7.53714 5.83177 7.42772 5.96699 7.42772H12.6882C12.8231 7.42772 12.9325 7.53681 12.9325 7.67236C12.9325 7.80725 12.8238 7.91625 12.6882 7.91625H5.96699C5.8311 7.91625 5.72235 7.80692 5.72235 7.67236Z" stroke="white"/>
<path d="M9.36223 23.2527L6.30273 18.6152V17.9968H6.65887C7.52221 17.9968 8.18052 17.8891 8.63378 17.6736C9.09783 17.4581 9.36762 17.0693 9.44317 16.5072H6.30273V15.6078H9.42698C9.31906 15.0831 9.03308 14.7037 8.56903 14.4695C8.11577 14.2353 7.47905 14.1182 6.65887 14.1182H6.30273V13.2188H13.0045V14.1182H9.94499C10.463 14.4835 10.7706 14.9801 10.8677 15.6078H13.0045V16.5072H10.9001C10.8245 17.1911 10.5224 17.7251 9.99355 18.1092C9.47554 18.484 8.78486 18.7229 7.92151 18.826L11.0134 23.2527H9.36223Z" fill="white"/>
</svg>
