<svg width="16" height="19" viewBox="0 0 16 19" fill="none" xmlns="http://www.w3.org/2000/svg">
<path d="M2 4.07134H5.42857V2.35706H2C1.46957 2.35706 0.960859 2.56777 0.585787 2.94284C0.210714 3.31791 0 3.82662 0 4.35706V14.6428C0 15.1732 0.210714 15.6819 0.585787 16.057C0.960859 16.4321 1.46957 16.6428 2 16.6428H5.42857V14.9285H2C1.92422 14.9285 1.85155 14.8984 1.79797 14.8448C1.74439 14.7912 1.71429 14.7185 1.71429 14.6428V4.35706C1.71429 4.28128 1.74439 4.20861 1.79797 4.15502C1.85155 4.10144 1.92422 4.07134 2 4.07134Z" fill="#F37E20"/>
<path d="M9.143 0.0712891H7.42871V18.9284H9.143V16.6427H14.0001C14.5306 16.6427 15.0393 16.432 15.4144 16.0569C15.7894 15.6819 16.0001 15.1732 16.0001 14.6427V4.357C16.0001 3.82657 15.7894 3.31786 15.4144 2.94279C15.0393 2.56772 14.5306 2.357 14.0001 2.357H9.143V0.0712891ZM14.0001 4.07129C14.0759 4.07129 14.1486 4.10139 14.2022 4.15497C14.2558 4.20855 14.2859 4.28123 14.2859 4.357V14.6427C14.2859 14.7185 14.2558 14.7912 14.2022 14.8447C14.1486 14.8983 14.0759 14.9284 14.0001 14.9284H9.143V4.07129H14.0001Z" fill="#F37E20"/>
</svg>
