<svg width="34" height="35" viewBox="0 0 34 35" fill="none" xmlns="http://www.w3.org/2000/svg">
<path d="M24.1322 0.5H1.5988C0.717267 0.5 0 1.21698 0 2.09829V32.9016C0 33.7829 0.717267 34.4999 1.5988 34.4999H18.625C18.7792 34.4999 18.9271 34.4387 19.036 34.3296L25.5609 27.8034C25.6699 27.6944 25.7311 27.5466 25.7311 27.3925V2.09829C25.7311 1.21698 25.0139 0.5 24.1322 0.5ZM24.5687 27.1517L19.1788 32.5429V28.387C19.1788 28.1466 19.3746 27.9511 19.6152 27.9511H22.2439V26.7887H19.6152C18.7336 26.7887 18.0164 27.5057 18.0164 28.387V33.3375H1.5988C1.35811 33.3375 1.16239 33.142 1.16239 32.9016V2.09829C1.16239 1.85789 1.35818 1.66239 1.5988 1.66239H24.1322C24.3729 1.66239 24.5687 1.85789 24.5687 2.09829V27.1517Z" fill="#AD1E23"/>
<path d="M6.94167 13.0702C4.33661 13.0702 2.21729 10.9518 2.21729 8.34794C2.21729 5.74412 4.33661 3.62573 6.94167 3.62573C9.54674 3.62573 11.6661 5.74412 11.6661 8.34794C11.6661 10.9518 9.54674 13.0702 6.94167 13.0702ZM6.94167 4.78812C4.9776 4.78812 3.37968 6.38503 3.37968 8.34794C3.37968 10.3109 4.9776 11.9078 6.94167 11.9078C8.90582 11.9078 10.5037 10.3109 10.5037 8.34794C10.5037 6.38503 8.90582 4.78812 6.94167 4.78812Z" fill="#AD1E23"/>
<path d="M8.90418 7.76535H7.52275V6.38501H6.36036V7.76535H4.979V8.92774H6.36036V10.3081H7.52275V8.92774H8.90418V7.76535Z" fill="#AD1E23"/>
<path d="M9.63091 15.5391H4.25195V16.7015H9.63091V15.5391Z" fill="#AD1E23"/>
<path d="M9.63091 19.1714H4.25195V20.3338H9.63091V19.1714Z" fill="#AD1E23"/>
<path d="M7.99991 22.804H4.25195V23.9663H7.99991V22.804Z" fill="#AD1E23"/>
<path d="M9.63091 26.4377H4.25195V27.6001H9.63091V26.4377Z" fill="#AD1E23"/>
<path d="M18.7899 13.0697C16.1848 13.0697 14.0654 10.9513 14.0654 8.34745C14.0654 5.74363 16.1848 3.62524 18.7899 3.62524C21.395 3.62524 23.5144 5.74363 23.5144 8.34745C23.5144 10.9513 21.395 13.0697 18.7899 13.0697ZM18.7899 4.78763C16.8257 4.78763 15.2278 6.38454 15.2278 8.34745C15.2278 10.3104 16.8257 11.9073 18.7899 11.9073C20.754 11.9073 22.352 10.3104 22.352 8.34745C22.352 6.38454 20.754 4.78763 18.7899 4.78763Z" fill="#AD1E23"/>
<path d="M20.5884 7.3702L19.7668 6.5481L18.7899 7.5245L17.8129 6.5481L16.9912 7.3702L17.9677 8.34617L16.9912 9.32214L17.8129 10.1442L18.7899 9.16783L19.7668 10.1442L20.5884 9.32214L19.612 8.34617L20.5884 7.3702Z" fill="#AD1E23"/>
<path d="M21.4795 15.5378H16.1006V16.7002H21.4795V15.5378Z" fill="#AD1E23"/>
<path d="M20.0003 19.1709H16.1006V20.3333H20.0003V19.1709Z" fill="#AD1E23"/>
<path d="M21.4795 22.8032H16.1006V23.9656H21.4795V22.8032Z" fill="#AD1E23"/>
<path d="M33.9998 6.58169C34.0031 5.82018 33.7063 5.10211 33.164 4.55964C32.6078 4.00336 31.8634 3.69751 31.0664 3.69751C31.062 3.69751 31.0576 3.69751 31.0534 3.69751L30.9763 3.6978C29.3523 3.70456 28.0255 5.00316 28.0185 6.59477L28.0024 26.8719C28.002 26.9808 28.0321 27.0876 28.0893 27.1803L30.4697 31.0287C30.6897 31.3846 31.2303 31.3881 31.4547 31.0344L33.8931 27.1912C33.9521 27.0982 33.9835 26.9904 33.9835 26.8802L33.9998 6.58169ZM29.1795 8.47065H31.2754V7.30826H29.1804L29.181 6.59789C29.1851 5.64386 29.9927 4.86433 30.9811 4.86026L31.0582 4.8599C31.5447 4.85612 32.0036 5.04305 32.3419 5.38145C32.6634 5.703 32.8394 6.12741 32.8374 6.57864L32.8224 25.1155L29.1668 25.1305L29.1795 8.47065ZM30.9704 29.6283L29.1656 26.7105L29.1675 26.2929L32.8216 26.2779L32.8214 26.7109L30.9704 29.6283Z" fill="#AD1E23"/>
</svg>
