<svg width="25" height="33" viewBox="0 0 25 33" fill="none" xmlns="http://www.w3.org/2000/svg">
<path d="M14.4488 20.3384C14.9662 19.6034 15.2728 18.7099 15.2728 17.7448C15.2728 15.2528 13.2457 13.2253 10.7534 13.2253C8.26108 13.2253 6.23389 15.2528 6.23389 17.7448C6.23389 20.2368 8.26108 22.2643 10.7534 22.2643C11.7186 22.2643 12.612 21.9576 13.3469 21.4403L16.4362 24.5295C16.5884 24.6817 16.7875 24.7578 16.9871 24.7578C17.1868 24.7578 17.3859 24.6817 17.5381 24.5295C17.8425 24.2251 17.8425 23.732 17.5381 23.4277L14.4488 20.3384ZM13.3142 19.2038C13.051 19.6637 12.6722 20.0425 12.2124 20.3057C11.7799 20.5531 11.2863 20.7059 10.7534 20.7059C9.12066 20.7059 7.79233 19.3775 7.79233 17.7448C7.79233 16.1121 9.12066 14.7838 10.7534 14.7838C12.3861 14.7838 13.7144 16.1121 13.7144 17.7448C13.7144 18.2778 13.5617 18.7713 13.3142 19.2038Z" fill="#AD1E23" stroke="#FFF7EB" stroke-width="0.4"/>
<path d="M0.779221 32.2383H23.2208C23.6512 32.2383 24 31.8895 24 31.4591V7.7708C24 7.66438 23.9781 7.56321 23.9395 7.47083C23.9007 7.37796 23.8443 7.29242 23.7717 7.21987L23.7713 7.21949L17.5383 0.98648L17.5379 0.9861C17.4654 0.913543 17.3797 0.857079 17.2868 0.818309C17.1945 0.779766 17.0934 0.757812 16.987 0.757812H0.779221C0.348823 0.757812 0 1.10664 0 1.53703V31.4591C0 31.8895 0.348823 32.2383 0.779221 32.2383ZM17.7662 3.41812L21.3397 6.99158H17.7662V3.41812ZM1.55844 2.31625H16.2078V7.7708C16.2078 8.2012 16.5566 8.55002 16.987 8.55002H22.4416V30.6799H1.55844V2.31625Z" fill="#AD1E23" stroke="#FFF7EB" stroke-width="0.4"/>
</svg>
