<svg width="30" height="30" viewBox="0 0 30 30" fill="none" xmlns="http://www.w3.org/2000/svg">
<rect width="30" height="30" rx="2" fill="#F5821F"/>
<path d="M10.25 17.5C10.25 17.9142 10.5858 18.25 11 18.25C11.4142 18.25 11.75 17.9142 11.75 17.5L10.25 17.5ZM11.5303 4.46964C11.2374 4.17675 10.7626 4.17675 10.4697 4.46964L5.6967 9.24262C5.40381 9.53551 5.40381 10.0104 5.6967 10.3033C5.9896 10.5962 6.46447 10.5962 6.75736 10.3033L11 6.06063L15.2426 10.3033C15.5355 10.5962 16.0104 10.5962 16.3033 10.3033C16.5962 10.0104 16.5962 9.5355 16.3033 9.24261L11.5303 4.46964ZM11.75 17.5L11.75 4.99997L10.25 4.99997L10.25 17.5L11.75 17.5Z" fill="white"/>
<path d="M18.25 13.5C18.25 13.0858 18.5858 12.75 19 12.75C19.4142 12.75 19.75 13.0858 19.75 13.5L18.25 13.5ZM19.5303 25.5404C19.2374 25.8333 18.7626 25.8333 18.4697 25.5404L13.6967 20.7674C13.4038 20.4745 13.4038 19.9996 13.6967 19.7067C13.9896 19.4138 14.4645 19.4138 14.7574 19.7067L19 23.9494L23.2426 19.7067C23.5355 19.4138 24.0104 19.4138 24.3033 19.7067C24.5962 19.9996 24.5962 20.4745 24.3033 20.7674L19.5303 25.5404ZM19.75 13.5L19.75 25.01L18.25 25.01L18.25 13.5L19.75 13.5Z" fill="white"/>
</svg>
