<svg width="52" height="52" viewBox="0 0 52 52" fill="none" xmlns="http://www.w3.org/2000/svg">
<circle cx="26" cy="26" r="26" fill="#D5DBF8"/>
<mask id="mask0" mask-type="alpha" maskUnits="userSpaceOnUse" x="10" y="10" width="32" height="32">
<rect x="10" y="10" width="32" height="32" fill="#C4C4C4"/>
</mask>
<g mask="url(#mask0)">
<path d="M21.0678 21.8826H16.6523V22.7667H21.0678V21.8826Z" fill="#3458F5"/>
<path d="M32.1192 26.2107H16.2148V27.0949H32.1192V26.2107Z" fill="#3458F5"/>
<path d="M18.8674 29.8342H16.2148V30.7184H18.8674V29.8342Z" fill="#3458F5"/>
<path d="M25.508 29.8342H22.8555V30.7184H25.508V29.8342Z" fill="#3458F5"/>
<path d="M32.1291 29.8342H29.4766V30.7184H32.1291V29.8342Z" fill="#3458F5"/>
<path d="M33.0718 21.1304C32.7484 21.1304 32.4519 21.222 32.1931 21.373C31.9235 21.2166 31.6216 21.1304 31.3035 21.1304C30.3277 21.1304 29.5352 21.9229 29.5352 22.8987C29.5352 23.8745 30.3277 24.6671 31.3035 24.6671C31.6216 24.6671 31.9235 24.5808 32.1931 24.4245C32.4519 24.5754 32.7484 24.6671 33.0718 24.6671C34.0477 24.6671 34.8402 23.8745 34.8402 22.8987C34.8402 21.9229 34.0477 21.1304 33.0718 21.1304ZM31.5299 23.7505C31.4545 23.7721 31.379 23.7829 31.3035 23.7829C30.8183 23.7829 30.4193 23.3839 30.4193 22.8987C30.4193 22.4135 30.8183 22.0145 31.3035 22.0145C31.379 22.0145 31.4599 22.0307 31.5299 22.0469C31.3898 22.3003 31.3035 22.586 31.3035 22.8987C31.3035 23.2114 31.3898 23.4972 31.5299 23.7505ZM33.0718 23.7829C32.5866 23.7829 32.1877 23.3839 32.1877 22.8987C32.1877 22.4135 32.5866 22.0145 33.0718 22.0145C33.5571 22.0145 33.956 22.4135 33.956 22.8987C33.956 23.3839 33.5571 23.7829 33.0718 23.7829Z" fill="#3458F5"/>
<rect x="14" y="18" width="23.9999" height="15.9999" rx="1.62891" stroke="#3458F5" stroke-width="0.814453"/>
</g>
</svg>
