<svg width="52" height="52" viewBox="0 0 52 52" fill="none" xmlns="http://www.w3.org/2000/svg">
<circle cx="26" cy="26" r="26" fill="#EFCFEC"/>
<mask id="mask0" mask-type="alpha" maskUnits="userSpaceOnUse" x="6" y="6" width="40" height="40">
<rect x="6" y="6" width="40" height="40" fill="#C4C4C4"/>
</mask>
<g mask="url(#mask0)">
<path d="M35.5622 25.7078L36.2734 26.419L32.6865 30.0059L30.8003 28.1197L31.5115 27.4085L32.6865 28.5835L35.5622 25.7078ZM39.3346 25.7387V23.9143C39.3346 23.4814 39.0873 23.1722 38.6234 23.1413C38.5307 23.1413 38.407 23.1104 38.3142 23.1104C38.005 23.0794 37.6958 23.0485 37.4175 22.9867C36.3043 22.7393 35.253 22.2445 34.0779 21.4097C33.645 21.1004 33.4286 21.1004 32.9957 21.4097C31.4187 22.4919 29.9963 23.0485 28.512 23.1413C27.9864 23.1722 27.739 23.4505 27.739 23.9762C27.739 24.3472 27.739 24.7183 27.739 25.1203C27.739 26.1716 27.739 27.2539 27.739 28.3052C27.739 28.6763 27.8009 29.0782 27.8936 29.4802C28.1101 30.4079 28.6048 31.2737 29.4088 32.0776C30.3983 33.0981 31.6661 33.8711 33.274 34.4895C33.3668 34.5205 33.4595 34.5514 33.5523 34.5514C33.676 34.5514 33.7997 34.5205 33.8924 34.4895C33.9852 34.4586 34.0779 34.3968 34.1707 34.3658C34.5727 34.2112 34.9747 34.0257 35.3457 33.8093C36.6444 33.129 37.603 32.325 38.3142 31.3664C38.9327 30.5006 39.2728 29.6348 39.3037 28.7381C39.3037 28.5526 39.3037 28.367 39.3346 28.1506V26.8519V26.3262V25.7387ZM38.3142 28.0269V28.0887C38.3142 28.3052 38.3142 28.4598 38.3142 28.6453C38.2833 29.3565 38.005 30.0368 37.5103 30.748C36.8918 31.5829 36.026 32.2941 34.8819 32.9125C34.5418 33.0981 34.1707 33.2527 33.7687 33.4073C33.7069 33.4382 33.6141 33.4691 33.5523 33.5C32.1299 32.9434 31.0167 32.2632 30.12 31.3664C29.4706 30.6862 29.0377 30.0059 28.8831 29.2638C28.8213 28.9236 28.7594 28.6144 28.7594 28.3052C28.7594 27.2539 28.7594 26.1716 28.7594 25.1203C28.7594 24.7801 28.7594 24.4709 28.7594 24.1308C30.3673 24.0071 31.8825 23.3886 33.5523 22.2445C34.8201 23.1104 36.026 23.6669 37.232 23.9452C37.5721 24.0071 37.8813 24.0689 38.2215 24.0998C38.2524 24.0998 38.3142 24.0998 38.3451 24.0998V25.615L38.3142 28.0269ZM29.8726 33.9948C29.8726 34.2731 29.6561 34.4895 29.3779 34.4895H13.1749C12.9894 34.4895 12.8348 34.3968 12.742 34.2422C12.6492 34.0876 12.6492 33.902 12.7111 33.7474L14.9374 29.2947V17.328C14.9374 17.0497 15.1539 16.8333 15.4322 16.8333H33.5214C33.7997 16.8333 34.0161 17.0497 34.0161 17.328V19.2451V19.5544V19.6162C34.0161 19.8945 33.7997 20.111 33.5214 20.111C33.2431 20.111 33.0266 19.8945 33.0266 19.6162V19.5544V19.2451V17.8227H15.9269V28.8927H26.3166C26.5949 28.8927 26.8114 29.1092 26.8114 29.3875C26.8114 29.6658 26.5949 29.8822 26.3166 29.8822H15.7414L13.9789 33.4382H22.1422L22.4823 32.7579C22.5751 32.5724 22.7297 32.4796 22.9461 32.4796H26.0383C26.2238 32.4796 26.4094 32.6033 26.5021 32.7579L26.8423 33.4382H29.4088C29.6561 33.5 29.8726 33.7165 29.8726 33.9948Z" fill="#A731D0"/>
</g>
</svg>
