<svg width="34" height="37" viewBox="0 0 34 37" fill="none" xmlns="http://www.w3.org/2000/svg">
<path d="M25.0701 27.132H19.5443L17 34.5064L14.4557 27.132H8.92995M4.14957 27.3502L1.02769 35.4455C1.00411 35.5069 0.995387 35.5734 1.0023 35.6391C1.00922 35.7049 1.03156 35.7679 1.06736 35.8226C1.10317 35.8773 1.15136 35.9221 1.20771 35.953C1.26406 35.9839 1.32686 36.0001 1.39061 36H32.6094C32.6731 36.0001 32.7359 35.9839 32.7923 35.953C32.8486 35.9221 32.8968 35.8773 32.9326 35.8226C32.9684 35.7679 32.9908 35.7049 32.9977 35.6391C33.0046 35.5734 32.9959 35.5069 32.9723 35.4455L29.8504 27.3502C29.8215 27.2749 29.7715 27.2104 29.7067 27.1649C29.642 27.1194 29.5657 27.0952 29.4875 27.0952H25.0701L22.0457 19.255C22.0168 19.1797 21.9668 19.1151 21.9021 19.0697C21.8373 19.0242 21.761 18.9999 21.6828 19H12.3172C12.239 18.9999 12.1627 19.0242 12.0979 19.0697C12.0332 19.1151 11.9832 19.1797 11.9543 19.255L8.92995 27.0952H4.51249C4.43433 27.0952 4.35796 27.1194 4.29325 27.1649C4.22854 27.2104 4.17849 27.2749 4.14957 27.3502Z" stroke="white" stroke-width="1.5" stroke-linecap="round" stroke-linejoin="round"/>
<path d="M11.0975 12.6289C11.0975 12.7274 11.1399 12.8217 11.2154 12.8913C11.2909 12.9609 11.3933 13 11.5 13C11.6067 13 11.7091 12.9609 11.7846 12.8913C11.8601 12.8217 11.9025 12.7274 11.9025 12.6289C11.9387 12.4397 12.8402 8.00186 17.5975 7.36735C17.7043 7.36735 17.8066 7.32825 17.8821 7.25867C17.9576 7.18908 18 7.0947 18 6.99629C18 6.89788 17.9576 6.8035 17.8821 6.73391C17.8066 6.66433 17.7043 6.62523 17.5975 6.62523C12.8362 5.99815 11.9347 1.5603 11.9025 1.37106C11.9025 1.27265 11.8601 1.17827 11.7846 1.10868C11.7091 1.03909 11.6067 1 11.5 1C11.3933 1 11.2909 1.03909 11.2154 1.10868C11.1399 1.17827 11.0975 1.27265 11.0975 1.37106C11.0613 1.5603 10.1598 5.99815 5.40248 6.63265C5.29573 6.63265 5.19336 6.67175 5.11788 6.74133C5.0424 6.81092 5 6.9053 5 7.00371C5 7.10212 5.0424 7.1965 5.11788 7.26609C5.19336 7.33567 5.29573 7.37477 5.40248 7.37477C10.1638 8.00186 11.0653 12.4397 11.0975 12.6289Z" stroke="white" stroke-width="1.5" stroke-linecap="round" stroke-linejoin="round"/>
<path d="M25.6327 18.6628C25.6477 18.7582 25.6933 18.8445 25.7613 18.9064C25.8294 18.9682 25.9153 19.0014 26.0037 19C26.0921 19.0014 26.1781 18.9682 26.2461 18.9064C26.3141 18.8445 26.3597 18.7582 26.3748 18.6628C26.4082 18.4596 27.243 13.5969 31.6289 12.9022C31.7274 12.9022 31.8217 12.8594 31.8913 12.7832C31.9609 12.707 32 12.6037 32 12.4959C32 12.3882 31.9609 12.2849 31.8913 12.2087C31.8217 12.1325 31.7274 12.0897 31.6289 12.0897C27.2393 11.4072 26.397 6.54441 26.3636 6.33723C26.3486 6.24184 26.303 6.15547 26.235 6.09365C26.1669 6.03183 26.081 5.99864 25.9926 6.00004C25.9042 5.99864 25.8182 6.03183 25.7502 6.09365C25.6822 6.15547 25.6365 6.24184 25.6215 6.33723C25.5881 6.54441 24.757 11.4072 20.3711 12.0978C20.2726 12.0978 20.1783 12.1406 20.1087 12.2168C20.0391 12.293 20 12.3963 20 12.5041C20 12.6118 20.0391 12.7151 20.1087 12.7913C20.1783 12.8675 20.2726 12.9103 20.3711 12.9103C24.7681 13.5969 25.5993 18.4596 25.6327 18.6628Z" stroke="white" stroke-width="1.5" stroke-linecap="round" stroke-linejoin="round"/>
</svg>
