<svg width="27" height="27" viewBox="0 0 27 27" fill="none" xmlns="http://www.w3.org/2000/svg">
<path d="M23.8676 18.5279C24.8404 19.0623 26 19.9717 26 21.2695C26 22.2644 25.3158 23.6827 22.0565 24.79C19.7601 25.5703 16.7213 25.9999 13.5 25.9999C10.2787 25.9999 7.23994 25.5703 4.94346 24.79C1.68418 23.6827 1 22.2644 1 21.2695C1 19.9717 2.15962 19.0623 3.13237 18.5278" stroke="#999999"/>
<path d="M17.7198 17.6234C18.1867 17.7088 18.6259 17.8088 19.0297 17.9229C20.8487 18.4367 21.771 19.1804 21.771 20.1335C21.771 21.0865 20.8487 21.8304 19.0297 22.3442C17.5429 22.7643 15.5791 22.9956 13.5 22.9956C11.4209 22.9956 9.45713 22.7642 7.97031 22.3442C6.15132 21.8303 5.229 21.0865 5.229 20.1335C5.229 19.1805 6.15132 18.4367 7.97031 17.9229C8.37407 17.8088 8.81328 17.7088 9.28018 17.6234" stroke="#999999"/>
<path d="M13.5 20.0739C14.152 20.0739 14.7442 19.7417 15.0844 19.1852C17.4677 15.2859 20.3086 10.147 20.3086 7.80854C20.3086 4.0543 17.2543 1 13.5 1C9.7457 1 6.69141 4.0543 6.69141 7.80854C6.69141 10.147 9.53237 15.2859 11.9156 19.1852C12.2558 19.7417 12.848 20.0739 13.5 20.0739ZM10.7633 7.34106C10.7633 5.83213 11.991 4.60449 13.5 4.60449C15.009 4.60449 16.2367 5.83213 16.2367 7.34106C16.2367 8.85005 15.009 10.0777 13.5 10.0777C11.991 10.0777 10.7633 8.8501 10.7633 7.34106Z" stroke="#999999"/>
</svg>
