<svg width="23" height="30" viewBox="0 0 23 30" fill="none" xmlns="http://www.w3.org/2000/svg">
<path d="M1.42578 18.533V11.5198C1.42578 8.72977 2.48725 6.05402 4.37668 4.08118C6.26611 2.10833 8.82872 1 11.5008 1C14.1728 1 16.7355 2.10833 18.6249 4.08118C20.5143 6.05402 21.5758 8.72977 21.5758 11.5198V15.7437" stroke="#999999" stroke-width="1.2"/>
<path d="M21.5758 17.053C21.5758 17.6569 21.3399 18.2361 20.92 18.6631C20.5002 19.0901 19.9307 19.33 19.3369 19.33H18.2174C17.6237 19.33 17.0542 19.0901 16.6343 18.6631C16.2144 18.2361 15.9786 17.6569 15.9786 17.053V13.6375C15.9786 13.0336 16.2144 12.4544 16.6343 12.0274C17.0542 11.6004 17.6237 11.3605 18.2174 11.3605H21.5758V17.053ZM1.42578 17.053C1.42578 17.6569 1.66166 18.2361 2.08154 18.6631C2.50141 19.0901 3.07088 19.33 3.66467 19.33H4.78411C5.3779 19.33 5.94737 19.0901 6.36725 18.6631C6.78712 18.2361 7.023 17.6569 7.023 17.053V13.6375C7.023 13.0336 6.78712 12.4544 6.36725 12.0274C5.94737 11.6004 5.3779 11.3605 4.78411 11.3605H1.42578V17.053Z" stroke="#999999" stroke-width="1.2"/>
<path d="M1.42578 15.3452V20.9239C1.55495 22.6506 2.58828 25.7056 6.46328 26.1041" stroke="#999999" stroke-width="1.2"/>
<rect width="6.79346" height="2.38714" rx="1.19357" transform="matrix(0.969312 0.245835 -0.233223 0.972423 6.63281 24.9086)" stroke="#999999" stroke-width="1.2"/>
</svg>
