<svg width="23" height="14" viewBox="0 0 23 14" fill="none" xmlns="http://www.w3.org/2000/svg">
<path d="M10.7998 4.2H7.08609C6.80995 4.2 6.58609 3.97614 6.58609 3.7V1.20923C6.58609 0.763482 6.0469 0.540534 5.7321 0.85612L1.35224 5.24689C1.15756 5.44205 1.15756 5.75795 1.35224 5.95311L5.73209 10.3439C6.0469 10.6595 6.58609 10.4365 6.58609 9.99077V7.5C6.58609 7.22386 6.80995 7 7.08609 7H10.8068H15.9139C16.1901 7 16.4139 6.77614 16.4139 6.5V4.00923C16.4139 3.56348 16.9531 3.34053 17.2679 3.65612L21.6478 8.04689C21.8424 8.24205 21.8424 8.55795 21.6478 8.75311L17.2679 13.1439C16.9531 13.4595 16.4139 13.2365 16.4139 12.7908V10.3C16.4139 10.0239 16.1901 9.8 15.9139 9.8H12.1998" stroke="#074A86" stroke-width="0.657534" stroke-linecap="round" stroke-linejoin="round"/>
</svg>
