<svg width="24" height="24" viewBox="0 0 24 24" fill="none" xmlns="http://www.w3.org/2000/svg">
<mask id="mask0" mask-type="alpha" maskUnits="userSpaceOnUse" x="0" y="0" width="24" height="24">
<rect width="24" height="24" fill="#C4C4C4"/>
</mask>
<g mask="url(#mask0)">
<path fill-rule="evenodd" clip-rule="evenodd" d="M7.40318 17.4195C7.20522 17.4195 7.04533 17.5802 7.04533 17.7785V18.0342C7.04533 18.2322 7.20522 18.392 7.40318 18.392H17.3233C17.5212 18.392 17.6819 18.2326 17.6819 18.0342V17.7785C17.6819 17.5806 17.5216 17.4195 17.3233 17.4195H7.40318ZM7.40318 15.068C7.20522 15.068 7.04533 15.2275 7.04533 15.4258V15.6815C7.04533 15.8795 7.20522 16.0394 7.40318 16.0394H17.3233C17.5212 16.0394 17.6819 15.8799 17.6819 15.6815V15.4258C17.6819 15.2279 17.5216 15.068 17.3233 15.068H7.40318ZM13.6413 5.45447C13.4442 5.45447 13.2835 5.61436 13.2835 5.81232V6.57932C13.2835 6.77728 13.4438 6.93758 13.6413 6.93758H17.3233C17.5212 6.93758 17.6819 6.77768 17.6819 6.57932V5.81232C17.6819 5.61436 17.5216 5.45447 17.3233 5.45447H13.6413ZM6.03108 3C5.46204 3 5 3.46164 5 4.03068V19.9681C5 20.5376 5.46164 21 6.03108 21H18.6962C19.2652 21 19.7268 20.5376 19.7268 19.9681V4.03068C19.7268 3.46164 19.2652 3 18.6962 3H6.03108ZM6.44624 3.767H18.281C18.7691 3.767 18.9598 3.95815 18.9598 4.44583V19.5534C18.9598 20.0411 18.7687 20.2322 18.281 20.2322H6.44624C5.95855 20.2322 5.767 20.0407 5.767 19.5534V4.44583C5.767 3.95815 5.95855 3.767 6.44624 3.767Z" fill="white" stroke="white" stroke-width="0.1"/>
</g>
</svg>
