<svg width="24" height="24" viewBox="0 0 24 24" fill="none" xmlns="http://www.w3.org/2000/svg">
<mask id="mask0" mask-type="alpha" maskUnits="userSpaceOnUse" x="0" y="0" width="24" height="24">
<rect width="24" height="24" fill="#C4C4C4"/>
</mask>
<g mask="url(#mask0)">
<path d="M8.30025 8.91211H4.98865V9.57524H8.30025V8.91211Z" fill="#FFFFFF"/>
<path d="M16.5885 12.1577H4.66028V12.8208H16.5885V12.1577Z" fill="#FFFFFF"/>
<path d="M6.64967 14.8755H4.66028V15.5386H6.64967V14.8755Z" fill="#FFFFFF"/>
<path d="M11.6307 14.8755H9.6413V15.5386H11.6307V14.8755Z" fill="#FFFFFF"/>
<path d="M16.5971 14.8755H14.6077V15.5386H16.5971V14.8755Z" fill="#FFFFFF"/>
<path d="M17.3016 8.34766C17.059 8.34766 16.8366 8.4164 16.6425 8.52961C16.4404 8.41235 16.2139 8.34766 15.9754 8.34766C15.2435 8.34766 14.6491 8.94205 14.6491 9.67392C14.6491 10.4058 15.2435 11.0002 15.9754 11.0002C16.2139 11.0002 16.4404 10.9355 16.6425 10.8182C16.8366 10.9314 17.059 11.0002 17.3016 11.0002C18.0335 11.0002 18.6279 10.4058 18.6279 9.67392C18.6279 8.94205 18.0335 8.34766 17.3016 8.34766ZM16.1452 10.3128C16.0886 10.329 16.032 10.337 15.9754 10.337C15.6115 10.337 15.3122 10.0378 15.3122 9.67392C15.3122 9.31 15.6115 9.01079 15.9754 9.01079C16.032 9.01079 16.0926 9.02292 16.1452 9.03505C16.0401 9.22509 15.9754 9.43939 15.9754 9.67392C15.9754 9.90844 16.0401 10.1227 16.1452 10.3128ZM17.3016 10.337C16.9377 10.337 16.6385 10.0378 16.6385 9.67392C16.6385 9.31 16.9377 9.01079 17.3016 9.01079C17.6655 9.01079 17.9648 9.31 17.9648 9.67392C17.9648 10.0378 17.6655 10.337 17.3016 10.337Z" fill="#FFFFFF"/>
<rect x="3.00006" y="6" width="17.9999" height="12" rx="2" stroke="#FFFFFF"/>
</g>
</svg>
