<svg width="24" height="24" viewBox="0 0 24 24" fill="none" xmlns="http://www.w3.org/2000/svg">
<mask id="mask0" mask-type="alpha" maskUnits="userSpaceOnUse" x="0" y="0" width="24" height="24">
<rect width="24" height="24" fill="#C4C4C4"/>
</mask>
<g mask="url(#mask0)">
<path d="M9.53354 9.94141H7.32581V10.3835H9.53354V9.94141Z" fill="#AD1E23"/>
<path d="M15.0591 12.1055H7.10693V12.5476H15.0591V12.1055Z" fill="#AD1E23"/>
<path d="M8.43319 13.9175H7.10693V14.3596H8.43319V13.9175Z" fill="#AD1E23"/>
<path d="M11.7538 13.9175H10.4276V14.3596H11.7538V13.9175Z" fill="#AD1E23"/>
<path d="M15.0647 13.9175H13.7384V14.3596H15.0647V13.9175Z" fill="#AD1E23"/>
<path d="M15.5345 9.56543C15.3728 9.56543 15.2245 9.61126 15.0951 9.68673C14.9603 9.60856 14.8094 9.56543 14.6503 9.56543C14.1624 9.56543 13.7662 9.96169 13.7662 10.4496C13.7662 10.9375 14.1624 11.3338 14.6503 11.3338C14.8094 11.3338 14.9603 11.2906 15.0951 11.2125C15.2245 11.288 15.3728 11.3338 15.5345 11.3338C16.0224 11.3338 16.4187 10.9375 16.4187 10.4496C16.4187 9.96169 16.0224 9.56543 15.5345 9.56543ZM14.7636 10.8755C14.7258 10.8863 14.6881 10.8917 14.6503 10.8917C14.4077 10.8917 14.2083 10.6922 14.2083 10.4496C14.2083 10.207 14.4077 10.0075 14.6503 10.0075C14.6881 10.0075 14.7285 10.0156 14.7636 10.0237C14.6935 10.1504 14.6503 10.2933 14.6503 10.4496C14.6503 10.606 14.6935 10.7488 14.7636 10.8755ZM15.5345 10.8917C15.2919 10.8917 15.0924 10.6922 15.0924 10.4496C15.0924 10.207 15.2919 10.0075 15.5345 10.0075C15.7771 10.0075 15.9766 10.207 15.9766 10.4496C15.9766 10.6922 15.7771 10.8917 15.5345 10.8917Z" fill="#AD1E23"/>
<rect x="6.00006" y="8" width="12" height="7.99997" rx="2" stroke="#AD1E23" stroke-width="0.8"/>
<circle cx="12" cy="12" r="9.5" stroke="#AD1E23"/>
<path d="M7 20.5L17 3.5" stroke="#AD1E23"/>
</g>
</svg>
