<svg width="18" height="18" viewBox="0 0 18 18" fill="none" xmlns="http://www.w3.org/2000/svg">
<path d="M6.2112 9.02793C6.42124 9.04046 6.63799 9.04672 6.86144 9.04672C7.08936 9.04672 7.31058 9.0321 7.52509 9.00286C7.74407 8.96944 7.95188 8.91721 8.14852 8.84619C8.34515 8.77517 8.52168 8.67699 8.6781 8.55166C8.83451 8.42633 8.96188 8.26966 9.0602 8.08166C9.16299 7.88948 9.22779 7.65971 9.2546 7.39233H5.92294C5.93635 7.36309 5.9721 7.30251 6.0302 7.2106C6.09277 7.11451 6.15757 7.01424 6.2246 6.9098C6.30504 6.78864 6.39443 6.65704 6.49274 6.515H9.08701C9.08701 6.40638 9.03115 6.29776 8.91942 6.18913C8.8077 6.07633 8.67139 5.97607 8.51051 5.88834C8.35409 5.8006 8.19321 5.72958 8.02785 5.67527C7.8625 5.61678 7.72619 5.58754 7.61894 5.58754H5.92294C5.94082 5.5374 5.97881 5.4622 6.0369 5.36194C6.09947 5.26167 6.16427 5.16349 6.23131 5.0674C6.29834 4.96714 6.35644 4.87941 6.4056 4.80421C6.45923 4.72901 6.48827 4.69141 6.49274 4.69141H12.0768C12.0768 4.69141 12.0634 4.71438 12.0366 4.76034C12.0142 4.80629 11.9829 4.86269 11.9427 4.92954C11.9025 4.99221 11.8578 5.06323 11.8086 5.1426C11.7595 5.2178 11.7126 5.28883 11.6679 5.35567C11.6277 5.42251 11.5919 5.47891 11.5606 5.52487C11.5338 5.56665 11.5204 5.58754 11.5204 5.58754H10.0523C10.1462 5.73794 10.2266 5.89042 10.2936 6.045C10.3652 6.1954 10.4098 6.35207 10.4277 6.515H12.0768L11.5204 7.39233H10.4881C10.4344 7.78086 10.316 8.11299 10.1328 8.38873C9.954 8.66446 9.73279 8.89424 9.46911 9.07806C9.20991 9.2577 8.91942 9.39766 8.59765 9.49792C8.27588 9.59401 7.94518 9.66086 7.60553 9.69846C7.60553 9.70263 7.61223 9.71726 7.62564 9.74232C7.64352 9.76321 7.66363 9.78828 7.68597 9.81752C7.70832 9.85094 7.73513 9.88646 7.76642 9.92406L10.7428 13.7655V13.9222H9.46911L6.2112 9.85512V9.02793Z" fill="#3791B8"/>
<circle cx="9" cy="9" r="8" stroke="#3791B8" stroke-linecap="round" stroke-linejoin="round"/>
</svg>
