<svg width="22" height="19" viewBox="0 0 22 19" fill="none" xmlns="http://www.w3.org/2000/svg">
<path d="M20.7046 15.9367H1.29536C1.13224 15.9367 1 15.8045 1 15.6413V1.29536C1 1.13224 1.13224 1 1.29536 1H20.7046C20.8678 1 21 1.13224 21 1.29536V15.6413C21 15.8045 20.8678 15.9367 20.7046 15.9367ZM1.59072 15.346H20.4093V1.59072H1.59072V15.346Z" fill="#FFFFFF" stroke="#FFFFFF" stroke-width="0.195312"/>
<path d="M15.2194 13.8267H3.40507C3.24195 13.8267 3.10971 13.6944 3.10971 13.5313V3.40473C3.10971 3.24161 3.24195 3.10938 3.40507 3.10938H15.2194C15.3825 3.10938 15.5148 3.24161 15.5148 3.40473V13.5313C15.5148 13.6944 15.3825 13.8267 15.2194 13.8267ZM3.70043 13.236H14.9241V3.70009H3.70043V13.236Z" fill="#FFFFFF" stroke="#FFFFFF" stroke-width="0.195312"/>
<path d="M15.2194 13.8269H3.40507C3.24195 13.8269 3.10971 13.6946 3.10971 13.5315V8.46821C3.10971 8.30509 3.24195 8.17285 3.40507 8.17285H15.2194C15.3825 8.17285 15.5148 8.30509 15.5148 8.46821V13.5315C15.5148 13.6946 15.3825 13.8269 15.2194 13.8269ZM3.70043 13.2361H14.9241V8.76357H3.70043V13.2361Z" fill="#FFFFFF" stroke="#FFFFFF" stroke-width="0.195312"/>
<path d="M17.9621 6.65404C17.2175 6.65404 16.6118 6.04834 16.6118 5.30382C16.6118 4.55931 17.2175 3.95361 17.9621 3.95361C18.7066 3.95361 19.3123 4.55931 19.3123 5.30382C19.3123 6.04834 18.7066 6.65404 17.9621 6.65404ZM17.9621 4.54433C17.5433 4.54433 17.2026 4.88505 17.2026 5.30382C17.2026 5.7226 17.5433 6.06332 17.9621 6.06332C18.3808 6.06332 18.7216 5.7226 18.7216 5.30382C18.7216 4.88505 18.3808 4.54433 17.9621 4.54433Z" fill="#FFFFFF" stroke="#FFFFFF" stroke-width="0.195312"/>
<path d="M17.9621 12.1394C17.2175 12.1394 16.6118 11.5337 16.6118 10.7892C16.6118 10.0447 17.2175 9.43896 17.9621 9.43896C18.7066 9.43896 19.3123 10.0447 19.3123 10.7892C19.3123 11.5337 18.7066 12.1394 17.9621 12.1394ZM17.9621 10.0297C17.5433 10.0297 17.2026 10.3704 17.2026 10.7892C17.2026 11.208 17.5433 11.5487 17.9621 11.5487C18.3808 11.5487 18.7216 11.208 18.7216 10.7892C18.7216 10.3704 18.3808 10.0297 17.9621 10.0297Z" fill="#FFFFFF" stroke="#FFFFFF" stroke-width="0.195312"/>
<path d="M6.7806 18.4681H3.40507C3.24195 18.4681 3.10971 18.3358 3.10971 18.1727V15.6411C3.10971 15.4779 3.24195 15.3457 3.40507 15.3457H6.7806C6.94372 15.3457 7.07596 15.4779 7.07596 15.6411V18.1727C7.07596 18.3358 6.94372 18.4681 6.7806 18.4681ZM3.70043 17.8773H6.48524V15.9364H3.70043V17.8773Z" fill="#FFFFFF" stroke="#FFFFFF" stroke-width="0.195312"/>
<path d="M18.5949 18.4681H15.2194C15.0562 18.4681 14.924 18.3358 14.924 18.1727V15.6411C14.924 15.4779 15.0562 15.3457 15.2194 15.3457H18.5949C18.758 15.3457 18.8903 15.4779 18.8903 15.6411V18.1727C18.8903 18.3358 18.758 18.4681 18.5949 18.4681ZM15.5147 17.8773H18.2995V15.9364H15.5147V17.8773Z" fill="#FFFFFF" stroke="#FFFFFF" stroke-width="0.195312"/>
<path d="M20.7046 18.4686H1.29536C1.13224 18.4686 1 18.3364 1 18.1733C1 18.0102 1.13224 17.8779 1.29536 17.8779H20.7046C20.8678 17.8779 21 18.0102 21 18.1733C21 18.3364 20.8678 18.4686 20.7046 18.4686Z" fill="#FFFFFF" stroke="#FFFFFF" stroke-width="0.195312"/>
</svg>
