<svg width="24" height="24" viewBox="0 0 24 24" fill="none" xmlns="http://www.w3.org/2000/svg">
<mask id="mask0" mask-type="alpha" maskUnits="userSpaceOnUse" x="0" y="0" width="24" height="24">
<rect width="24" height="24" fill="#C4C4C4"/>
</mask>
<g mask="url(#mask0)">
<path d="M19.0625 10.3125H17.9375V8.625C17.9375 5.52338 15.4141 3 12.3125 3C9.21088 3 6.6875 5.52338 6.6875 8.625V10.3125H5.5625C5.25144 10.3125 5 10.5645 5 10.875V20.4375C5 20.748 5.25144 21 5.5625 21H19.0625C19.3736 21 19.625 20.748 19.625 20.4375V10.875C19.625 10.5645 19.3736 10.3125 19.0625 10.3125ZM7.8125 8.625C7.8125 6.14381 9.83131 4.125 12.3125 4.125C14.7937 4.125 16.8125 6.14381 16.8125 8.625V10.3125H7.8125V8.625ZM18.5 19.875H6.125V11.4375H18.5V19.875ZM13.4375 15.375C13.4375 15.7901 13.2102 16.149 12.875 16.3442V17.0625C12.875 17.373 12.6236 17.625 12.3125 17.625C12.0014 17.625 11.75 17.373 11.75 17.0625V16.3442C11.4153 16.1496 11.1875 15.7913 11.1875 15.375C11.1875 14.7534 11.6909 14.25 12.3125 14.25C12.9341 14.25 13.4375 14.7534 13.4375 15.375Z" fill="#FFFFFF"/>
</g>
</svg>
