<svg width="15" height="17" viewBox="0 0 15 17" fill="none" xmlns="http://www.w3.org/2000/svg">
<path d="M14.1276 0.419922H1.21836C1.18161 0.419912 1.14521 0.427146 1.11124 0.441208C1.07728 0.45527 1.04642 0.475885 1.02043 0.501877C0.99444 0.527869 0.973824 0.558727 0.959762 0.592689C0.9457 0.626651 0.938467 0.663051 0.938477 0.699809V15.99C0.939999 16.0148 0.944948 16.0393 0.953184 16.0628C0.935814 16.122 0.938688 16.1854 0.96135 16.2428C0.984011 16.3002 1.02517 16.3484 1.07831 16.3798C1.13144 16.4111 1.19353 16.4239 1.25474 16.416C1.31595 16.4082 1.37278 16.3801 1.41625 16.3363L3.3499 14.4028L5.28342 16.3363C5.31316 16.3654 5.34914 16.3874 5.38863 16.4006C5.42812 16.4138 5.47009 16.4178 5.51137 16.4124C5.55264 16.4236 5.59628 16.4223 5.63683 16.4087C5.67737 16.3952 5.71303 16.37 5.73932 16.3363L7.67311 14.4028L9.60662 16.3363C9.63637 16.3654 9.67235 16.3874 9.71184 16.4006C9.75133 16.4138 9.7933 16.4178 9.83458 16.4124C9.87585 16.4236 9.91949 16.4223 9.96004 16.4087C10.0006 16.3952 10.0362 16.37 10.0625 16.3363L11.9962 14.4028L13.9297 16.3363C13.9557 16.3623 13.9865 16.3829 14.0205 16.397C14.0544 16.411 14.0908 16.4183 14.1276 16.4183C14.1643 16.4183 14.2007 16.411 14.2347 16.397C14.2686 16.3829 14.2995 16.3623 14.3255 16.3363C14.3602 16.3009 14.3847 16.2569 14.3966 16.2088C14.4084 16.1607 14.4071 16.1103 14.3928 16.0628C14.401 16.0393 14.4059 16.0148 14.4075 15.99V0.699809C14.4075 0.66305 14.4002 0.62665 14.3862 0.592688C14.3721 0.558726 14.3515 0.527867 14.3255 0.501876C14.2995 0.475884 14.2687 0.455268 14.2347 0.441206C14.2007 0.427144 14.1643 0.419912 14.1276 0.419922ZM11.7983 13.8091L9.83457 15.7727L7.87099 13.8091C7.84501 13.7831 7.81416 13.7625 7.78021 13.7484C7.74625 13.7344 7.70986 13.7271 7.67311 13.7271C7.63635 13.7271 7.59996 13.7344 7.566 13.7484C7.53205 13.7625 7.5012 13.7831 7.47522 13.8091L5.51138 15.7727L3.54778 13.8091C3.5218 13.7831 3.49095 13.7625 3.457 13.7484C3.42304 13.7344 3.38665 13.7271 3.34989 13.7271C3.31314 13.7271 3.27675 13.7344 3.24279 13.7484C3.20884 13.7625 3.17799 13.7831 3.15201 13.8091L1.49824 15.4628V0.979695H13.8477V15.4627L12.1941 13.8091C12.1681 13.7831 12.1372 13.7625 12.1033 13.7484C12.0693 13.7344 12.0329 13.7271 11.9962 13.7271C11.9594 13.7271 11.923 13.7344 11.8891 13.7484C11.8551 13.7625 11.8243 13.7831 11.7983 13.8091Z" fill="#991981" stroke="#991981" stroke-width="0.3"/>
<path d="M11.3753 3.52148H3.86128C3.78705 3.52148 3.71586 3.55097 3.66337 3.60346C3.61088 3.65595 3.58139 3.72714 3.58139 3.80137C3.58139 3.8756 3.61088 3.94679 3.66337 3.99928C3.71586 4.05177 3.78705 4.08126 3.86128 4.08126H11.3753C11.4495 4.08126 11.5207 4.05177 11.5732 3.99928C11.6257 3.94679 11.6552 3.8756 11.6552 3.80137C11.6552 3.72714 11.6257 3.65595 11.5732 3.60346C11.5207 3.55097 11.4495 3.52148 11.3753 3.52148Z" fill="#991981" stroke="#991981" stroke-width="0.3"/>
<path d="M7.61829 6.53613H3.86128C3.78705 6.53613 3.71586 6.56562 3.66337 6.61811C3.61088 6.6706 3.58139 6.74179 3.58139 6.81602C3.58139 6.89025 3.61088 6.96144 3.66337 7.01393C3.71586 7.06642 3.78705 7.09591 3.86128 7.09591H7.61829C7.69252 7.09591 7.76371 7.06642 7.8162 7.01393C7.86869 6.96144 7.89818 6.89025 7.89818 6.81602C7.89818 6.74179 7.86869 6.6706 7.8162 6.61811C7.76371 6.56562 7.69252 6.53613 7.61829 6.53613Z" fill="#991981" stroke="#991981" stroke-width="0.3"/>
<path d="M7.61829 8.2832H3.86128C3.78705 8.2832 3.71586 8.31269 3.66337 8.36518C3.61088 8.41767 3.58139 8.48886 3.58139 8.56309C3.58139 8.63732 3.61088 8.70851 3.66337 8.761C3.71586 8.81349 3.78705 8.84298 3.86128 8.84298H7.61829C7.69252 8.84298 7.76371 8.81349 7.8162 8.761C7.86869 8.70851 7.89818 8.63732 7.89818 8.56309C7.89818 8.48886 7.86869 8.41767 7.8162 8.36518C7.76371 8.31269 7.69252 8.2832 7.61829 8.2832Z" fill="#991981" stroke="#991981" stroke-width="0.3"/>
<path d="M7.61829 10.0308H3.86128C3.78705 10.0308 3.71586 10.0602 3.66337 10.1127C3.61088 10.1652 3.58139 10.2364 3.58139 10.3106C3.58139 10.3849 3.61088 10.4561 3.66337 10.5086C3.71586 10.561 3.78705 10.5905 3.86128 10.5905H7.61829C7.69252 10.5905 7.76371 10.561 7.8162 10.5086C7.86869 10.4561 7.89818 10.3849 7.89818 10.3106C7.89818 10.2364 7.86869 10.1652 7.8162 10.1127C7.76371 10.0602 7.69252 10.0308 7.61829 10.0308Z" fill="#991981" stroke="#991981" stroke-width="0.3"/>
<path d="M11.3753 6.53613H9.49687C9.42264 6.53613 9.35145 6.56562 9.29896 6.61811C9.24647 6.6706 9.21698 6.74179 9.21698 6.81602C9.21698 6.89025 9.24647 6.96144 9.29896 7.01393C9.35145 7.06642 9.42264 7.09591 9.49687 7.09591H11.3753C11.4495 7.09591 11.5207 7.06642 11.5732 7.01393C11.6257 6.96144 11.6552 6.89025 11.6552 6.81602C11.6552 6.74179 11.6257 6.6706 11.5732 6.61811C11.5207 6.56562 11.4495 6.53613 11.3753 6.53613Z" fill="#991981" stroke="#991981" stroke-width="0.3"/>
<path d="M11.3753 8.2832H9.49687C9.42264 8.2832 9.35145 8.31269 9.29896 8.36518C9.24647 8.41767 9.21698 8.48886 9.21698 8.56309C9.21698 8.63732 9.24647 8.70851 9.29896 8.761C9.35145 8.81349 9.42264 8.84298 9.49687 8.84298H11.3753C11.4495 8.84298 11.5207 8.81349 11.5732 8.761C11.6257 8.70851 11.6552 8.63732 11.6552 8.56309C11.6552 8.48886 11.6257 8.41767 11.5732 8.36518C11.5207 8.31269 11.4495 8.2832 11.3753 8.2832Z" fill="#991981" stroke="#991981" stroke-width="0.3"/>
<path d="M11.3753 10.0308H9.49687C9.42264 10.0308 9.35145 10.0602 9.29896 10.1127C9.24647 10.1652 9.21698 10.2364 9.21698 10.3106C9.21698 10.3849 9.24647 10.4561 9.29896 10.5086C9.35145 10.561 9.42264 10.5905 9.49687 10.5905H11.3753C11.4495 10.5905 11.5207 10.561 11.5732 10.5086C11.6257 10.4561 11.6552 10.3849 11.6552 10.3106C11.6552 10.2364 11.6257 10.1652 11.5732 10.1127C11.5207 10.0602 11.4495 10.0308 11.3753 10.0308Z" fill="#991981" stroke="#991981" stroke-width="0.3"/>
</svg>
