<svg width="24" height="24" viewBox="0 0 24 24" fill="none" xmlns="http://www.w3.org/2000/svg">
<mask id="mask0" mask-type="alpha" maskUnits="userSpaceOnUse" x="0" y="0" width="24" height="24">
<rect width="24" height="24" fill="#C4C4C4"/>
</mask>
<g mask="url(#mask0)">
<path d="M21.5078 8.0597C21.5078 8.31024 21.5078 8.56079 21.5078 8.81133C21.5078 9.41441 21.5078 10.0197 21.5078 10.6228C21.5078 11.3589 21.5078 12.095 21.5078 12.8311C21.5078 13.4785 21.5078 14.1282 21.5078 14.7756C21.5078 15.1082 21.51 15.4385 21.5078 15.7711C21.5078 15.9906 21.4324 16.1857 21.2772 16.3409C21.1996 16.4185 21.122 16.4961 21.0444 16.5737C20.6675 16.9507 20.2906 17.3276 19.9114 17.7067C19.397 18.2211 18.8826 18.7355 18.3683 19.2499C17.9093 19.7088 17.4503 20.1678 16.9914 20.6268C16.7785 20.8396 16.5701 21.0525 16.355 21.2631C16.0801 21.5292 15.7231 21.4848 15.375 21.4848C14.834 21.4848 14.2908 21.4848 13.7498 21.4848C13.0248 21.4848 12.2998 21.4848 11.5748 21.4848C10.8874 21.4848 10.2001 21.4848 9.51277 21.4848C9.08485 21.4848 8.65693 21.4848 8.22901 21.4848C8.0982 21.4848 7.97625 21.487 7.84987 21.4471C7.6858 21.3961 7.57272 21.2853 7.45521 21.1678C7.14037 20.8529 6.82553 20.5381 6.50847 20.221C6.0096 19.7222 5.51073 19.2233 5.01186 18.7244C4.52186 18.2344 4.03186 17.7444 3.54186 17.2544C3.25141 16.964 2.96317 16.6757 2.67272 16.3853C2.51087 16.2234 2.39779 16.035 2.39557 15.7955C2.39557 15.7223 2.39557 15.6514 2.39557 15.5782C2.39557 15.117 2.39557 14.6536 2.39557 14.1925C2.39557 13.4918 2.39557 12.7912 2.39557 12.0906C2.39557 11.3744 2.39557 10.656 2.39557 9.93988C2.39557 9.42771 2.39557 8.91775 2.39557 8.40558C2.39557 8.29694 2.39557 8.18608 2.39557 8.07744C2.39557 7.85793 2.47317 7.66504 2.62838 7.50762C2.86783 7.26373 3.11173 7.02427 3.3534 6.78259C3.82566 6.31033 4.29793 5.83807 4.77019 5.36581C5.28236 4.85363 5.79453 4.34146 6.3067 3.82929C6.66146 3.47454 7.01621 3.11979 7.37096 2.76503C7.43082 2.70517 7.48847 2.64531 7.54834 2.58766C7.71462 2.4258 7.91861 2.36594 8.14476 2.36594C8.51503 2.36594 8.88752 2.36594 9.25779 2.36594C9.92073 2.36594 10.5837 2.36594 11.2466 2.36594C11.9805 2.36594 12.7122 2.36594 13.4461 2.36594C14.027 2.36594 14.6101 2.36594 15.191 2.36594C15.3551 2.36594 15.5214 2.36594 15.6854 2.36594C15.8296 2.36594 15.967 2.36372 16.1045 2.41915C16.2508 2.4768 16.3528 2.58322 16.4592 2.68965C16.5856 2.81603 16.712 2.94241 16.8362 3.06657C17.2707 3.50114 17.7053 3.93571 18.1399 4.37028C18.6587 4.88911 19.1775 5.40793 19.6941 5.92454C20.1043 6.33472 20.5145 6.7449 20.9247 7.15508C21.0267 7.25707 21.1287 7.35907 21.2307 7.46106C21.3947 7.634 21.5034 7.82024 21.5078 8.0597C21.5122 8.34572 21.9557 8.34572 21.9512 8.0597C21.9446 7.71382 21.8005 7.41449 21.5588 7.1706C21.4568 7.06861 21.3548 6.96662 21.2528 6.86463C20.8382 6.45002 20.4236 6.0354 20.0112 5.623C19.4879 5.09974 18.9647 4.57648 18.4414 4.05323C18.0046 3.61644 17.5656 3.17743 17.1288 2.74065C16.865 2.47902 16.6034 2.15309 16.253 2.01341C15.9382 1.88702 15.5435 1.93137 15.2087 1.93137C14.6234 1.93137 14.0403 1.93137 13.4549 1.93137C12.7122 1.93137 11.9672 1.93137 11.2244 1.93137C10.5571 1.93137 9.89191 1.93137 9.22454 1.93137C8.8587 1.93137 8.49508 1.93137 8.12924 1.93137C7.79223 1.93137 7.4796 2.04445 7.23571 2.28169C7.17806 2.33712 7.12263 2.39476 7.0672 2.45019C6.71024 2.80716 6.35105 3.16635 5.99408 3.52332C5.47969 4.03771 4.9653 4.55209 4.44869 5.0687C3.972 5.5454 3.4953 6.0221 3.0186 6.49879C2.78358 6.73382 2.54634 6.96884 2.31132 7.20608C2.07851 7.4411 1.95435 7.74707 1.95213 8.07744C1.95213 8.18386 1.95213 8.29029 1.95213 8.39671C1.95213 8.90889 1.95213 9.42327 1.95213 9.93545C1.95213 10.6583 1.95213 11.3833 1.95213 12.1061C1.95213 12.8156 1.95213 13.5229 1.95213 14.2324C1.95213 14.6891 1.95213 15.1481 1.95213 15.6048C1.95213 15.6935 1.9477 15.7822 1.95435 15.8687C1.97874 16.1924 2.12507 16.4673 2.35123 16.6935C2.63946 16.9817 2.9277 17.2699 3.21372 17.556C3.71037 18.0526 4.20702 18.5493 4.70367 19.0459C5.20698 19.5492 5.70806 20.0503 6.21137 20.5536C6.52399 20.8662 6.83883 21.1811 7.15146 21.4937C7.31331 21.6555 7.48847 21.793 7.71019 21.8662C7.87426 21.9216 8.04277 21.9238 8.21128 21.9238C8.64141 21.9238 9.07155 21.9238 9.49947 21.9238C10.1934 21.9238 10.8874 21.9238 11.5814 21.9238C12.3153 21.9238 13.0492 21.9238 13.7831 21.9238C14.3219 21.9238 14.8584 21.9238 15.3972 21.9238C15.5236 21.9238 15.6478 21.9238 15.7741 21.9238C16.1089 21.9238 16.4216 21.8085 16.6632 21.5735C16.8739 21.3673 17.0801 21.1567 17.2885 20.9483C17.7519 20.4849 18.213 20.0237 18.6764 19.5603C19.1975 19.0393 19.7185 18.5182 20.2418 17.995C20.6187 17.618 20.9934 17.2433 21.3703 16.8664C21.4435 16.7932 21.5167 16.7201 21.5898 16.6469C21.8226 16.4097 21.9446 16.1037 21.9468 15.7733C21.949 15.4452 21.9468 15.1148 21.9468 14.7867C21.9468 14.1326 21.9468 13.4785 21.9468 12.8267C21.9468 12.0839 21.9468 11.3411 21.9468 10.5984C21.9468 9.99088 21.9468 9.38115 21.9468 8.77364C21.9468 8.53418 21.9468 8.29472 21.9468 8.05526C21.9512 7.77368 21.5078 7.77368 21.5078 8.0597Z" fill="#AD1E23"/>
<path d="M21.5078 8.0597C21.5078 8.31024 21.5078 8.56079 21.5078 8.81133C21.5078 9.41441 21.5078 10.0197 21.5078 10.6228C21.5078 11.3589 21.5078 12.095 21.5078 12.8311C21.5078 13.4785 21.5078 14.1282 21.5078 14.7756C21.5078 15.1082 21.51 15.4385 21.5078 15.7711C21.5078 15.9906 21.4324 16.1857 21.2772 16.3409C21.1996 16.4185 21.122 16.4961 21.0444 16.5737C20.6675 16.9507 20.2906 17.3276 19.9114 17.7067C19.397 18.2211 18.8826 18.7355 18.3683 19.2499C17.9093 19.7088 17.4503 20.1678 16.9914 20.6268C16.7785 20.8396 16.5701 21.0525 16.355 21.2631C16.0801 21.5292 15.7231 21.4848 15.375 21.4848C14.834 21.4848 14.2908 21.4848 13.7498 21.4848C13.0248 21.4848 12.2998 21.4848 11.5748 21.4848C10.8874 21.4848 10.2001 21.4848 9.51277 21.4848C9.08485 21.4848 8.65693 21.4848 8.22901 21.4848C8.0982 21.4848 7.97625 21.487 7.84987 21.4471C7.6858 21.3961 7.57272 21.2853 7.45521 21.1678C7.14037 20.8529 6.82553 20.5381 6.50847 20.221C6.0096 19.7222 5.51073 19.2233 5.01186 18.7244C4.52186 18.2344 4.03186 17.7444 3.54186 17.2544C3.25141 16.964 2.96317 16.6757 2.67272 16.3853C2.51087 16.2234 2.39779 16.035 2.39557 15.7955C2.39557 15.7223 2.39557 15.6514 2.39557 15.5782C2.39557 15.117 2.39557 14.6536 2.39557 14.1925C2.39557 13.4918 2.39557 12.7912 2.39557 12.0906C2.39557 11.3744 2.39557 10.656 2.39557 9.93988C2.39557 9.42771 2.39557 8.91775 2.39557 8.40558C2.39557 8.29694 2.39557 8.18608 2.39557 8.07744C2.39557 7.85793 2.47317 7.66504 2.62838 7.50762C2.86783 7.26373 3.11173 7.02427 3.3534 6.78259C3.82566 6.31033 4.29793 5.83807 4.77019 5.36581C5.28236 4.85363 5.79453 4.34146 6.3067 3.82929C6.66146 3.47454 7.01621 3.11979 7.37096 2.76503C7.43082 2.70517 7.48847 2.64531 7.54833 2.58766C7.71462 2.4258 7.91861 2.36594 8.14476 2.36594C8.51503 2.36594 8.88752 2.36594 9.25779 2.36594C9.92074 2.36594 10.5837 2.36594 11.2466 2.36594C11.9805 2.36594 12.7122 2.36594 13.4461 2.36594C14.027 2.36594 14.6101 2.36594 15.191 2.36594C15.3551 2.36594 15.5214 2.36594 15.6854 2.36594C15.8296 2.36594 15.967 2.36372 16.1045 2.41915C16.2508 2.4768 16.3528 2.58322 16.4592 2.68965C16.5856 2.81603 16.712 2.94241 16.8362 3.06657C17.2707 3.50114 17.7053 3.93571 18.1399 4.37028C18.6587 4.88911 19.1775 5.40793 19.6941 5.92454C20.1043 6.33472 20.5145 6.7449 20.9247 7.15508C21.0267 7.25707 21.1287 7.35907 21.2307 7.46106C21.3947 7.634 21.5034 7.82024 21.5078 8.0597ZM21.5078 8.0597C21.5122 8.34572 21.9557 8.34572 21.9512 8.0597C21.9446 7.71382 21.8005 7.4145 21.5588 7.1706C21.4568 7.06861 21.3548 6.96662 21.2528 6.86463C20.8382 6.45001 20.4236 6.0354 20.0112 5.623C19.4879 5.09974 18.9647 4.57648 18.4414 4.05323C18.0046 3.61644 17.5656 3.17743 17.1288 2.74065C16.865 2.47902 16.6034 2.15309 16.253 2.01341C15.9382 1.88702 15.5435 1.93137 15.2087 1.93137C14.6234 1.93137 14.0403 1.93137 13.4549 1.93137C12.7122 1.93137 11.9672 1.93137 11.2244 1.93137C10.5571 1.93137 9.89191 1.93137 9.22454 1.93137C8.8587 1.93137 8.49508 1.93137 8.12924 1.93137C7.79223 1.93137 7.4796 2.04445 7.23571 2.28169C7.17806 2.33712 7.12263 2.39476 7.0672 2.45019C6.71024 2.80716 6.35105 3.16635 5.99408 3.52332C5.47969 4.03771 4.9653 4.55209 4.44869 5.0687C3.972 5.5454 3.4953 6.0221 3.0186 6.49879C2.78358 6.73382 2.54634 6.96884 2.31132 7.20608C2.07851 7.4411 1.95435 7.74707 1.95213 8.07744C1.95213 8.18386 1.95213 8.29029 1.95213 8.39671C1.95213 8.90889 1.95213 9.42327 1.95213 9.93545C1.95213 10.6583 1.95213 11.3833 1.95213 12.1061C1.95213 12.8156 1.95213 13.5229 1.95213 14.2324C1.95213 14.6891 1.95213 15.1481 1.95213 15.6048C1.95213 15.6935 1.9477 15.7822 1.95435 15.8687C1.97874 16.1924 2.12507 16.4673 2.35123 16.6935C2.63946 16.9817 2.9277 17.2699 3.21372 17.556C3.71037 18.0526 4.20702 18.5493 4.70367 19.0459C5.20698 19.5492 5.70806 20.0503 6.21137 20.5536C6.52399 20.8662 6.83883 21.1811 7.15146 21.4937C7.31331 21.6555 7.48847 21.793 7.71019 21.8662C7.87426 21.9216 8.04277 21.9238 8.21128 21.9238C8.64141 21.9238 9.07155 21.9238 9.49947 21.9238C10.1935 21.9238 10.8874 21.9238 11.5814 21.9238C12.3153 21.9238 13.0492 21.9238 13.7831 21.9238C14.3219 21.9238 14.8584 21.9238 15.3972 21.9238C15.5236 21.9238 15.6478 21.9238 15.7741 21.9238C16.1089 21.9238 16.4216 21.8085 16.6632 21.5735C16.8739 21.3673 17.0801 21.1567 17.2885 20.9483C17.7519 20.4849 18.213 20.0237 18.6764 19.5603C19.1975 19.0393 19.7185 18.5182 20.2418 17.995C20.6187 17.618 20.9934 17.2433 21.3703 16.8664C21.4435 16.7932 21.5167 16.7201 21.5898 16.6469C21.8226 16.4097 21.9446 16.1037 21.9468 15.7733C21.949 15.4452 21.9468 15.1148 21.9468 14.7867C21.9468 14.1326 21.9468 13.4785 21.9468 12.8267C21.9468 12.0839 21.9468 11.3411 21.9468 10.5984C21.9468 9.99088 21.9468 9.38115 21.9468 8.77364C21.9468 8.53418 21.9468 8.29472 21.9468 8.05526C21.9512 7.77368 21.5078 7.77368 21.5078 8.0597Z" stroke="#AD1E23" stroke-width="0.5"/>
<path d="M12.9561 13.6269C12.3708 13.6269 11.7854 13.6269 11.2001 13.6269C11.1158 13.6269 11.0294 13.6269 10.9451 13.6269C11.0183 13.7001 11.0937 13.7755 11.1668 13.8487C11.1668 13.5937 11.1668 13.3387 11.1668 13.0837C11.1668 12.4762 11.1668 11.8687 11.1668 11.2612C11.1668 10.5229 11.1668 9.78454 11.1668 9.044C11.1668 8.40767 11.1668 7.77133 11.1668 7.13721C11.1668 6.92658 11.1668 6.71816 11.1668 6.50753C11.1668 6.40775 11.1757 6.30355 11.1668 6.20377C11.1668 6.19934 11.1668 6.1949 11.1668 6.19047C11.0937 6.26364 11.0183 6.33902 10.9451 6.41219C11.5304 6.41219 12.1158 6.41219 12.7011 6.41219C12.7854 6.41219 12.8718 6.41219 12.9561 6.41219C12.8829 6.33902 12.8075 6.26364 12.7344 6.19047C12.7344 6.44545 12.7344 6.70042 12.7344 6.9554C12.7344 7.56291 12.7344 8.17043 12.7344 8.77794C12.7344 9.51626 12.7344 10.2546 12.7344 10.9951C12.7344 11.6315 12.7344 12.2678 12.7344 12.9019C12.7344 13.2123 12.7211 13.525 12.7344 13.8354C12.7344 13.8398 12.7344 13.8442 12.7344 13.8487C12.7344 14.1347 13.1778 14.1347 13.1778 13.8487C13.1778 13.5937 13.1778 13.3387 13.1778 13.0837C13.1778 12.4762 13.1778 11.8687 13.1778 11.2612C13.1778 10.5229 13.1778 9.78454 13.1778 9.044C13.1778 8.40767 13.1778 7.77133 13.1778 7.13721C13.1778 6.8268 13.1911 6.51418 13.1778 6.20377C13.1778 6.19934 13.1778 6.1949 13.1778 6.19047C13.1778 6.07074 13.0758 5.96875 12.9561 5.96875C12.3708 5.96875 11.7854 5.96875 11.2001 5.96875C11.1158 5.96875 11.0294 5.96875 10.9451 5.96875C10.8254 5.96875 10.7234 6.07074 10.7234 6.19047C10.7234 6.44545 10.7234 6.70042 10.7234 6.9554C10.7234 7.56291 10.7234 8.17043 10.7234 8.77794C10.7234 9.51626 10.7234 10.2546 10.7234 10.9951C10.7234 11.6315 10.7234 12.2678 10.7234 12.9019C10.7234 13.2123 10.7101 13.525 10.7234 13.8354C10.7234 13.8398 10.7234 13.8442 10.7234 13.8487C10.7234 13.9684 10.8254 14.0704 10.9451 14.0704C11.5304 14.0704 12.1158 14.0704 12.7011 14.0704C12.7854 14.0704 12.8718 14.0704 12.9561 14.0704C13.2421 14.0704 13.2421 13.6269 12.9561 13.6269Z" fill="#AD1E23" stroke="#AD1E23" stroke-width="0.5"/>
<path d="M12.9029 16.4962C12.8984 16.8886 12.6545 17.2566 12.2798 17.3897C11.8985 17.5271 11.4661 17.4096 11.2089 17.0948C10.9606 16.7888 10.9318 16.3454 11.1336 16.0084C11.3353 15.6691 11.7455 15.4807 12.1357 15.5627C12.5814 15.6581 12.8962 16.0438 12.9029 16.4962C12.9073 16.7822 13.3507 16.7822 13.3463 16.4962C13.3397 15.9086 12.976 15.392 12.4262 15.1858C11.8918 14.984 11.2488 15.157 10.8874 15.596C10.515 16.0505 10.4484 16.6979 10.7522 17.2079C11.0559 17.7156 11.6479 17.9684 12.2244 17.8619C12.874 17.7422 13.3374 17.1458 13.3463 16.4939C13.3507 16.2123 12.9073 16.2124 12.9029 16.4962Z" fill="#AD1E23"/>
<path d="M12.9029 16.4962C12.8984 16.8886 12.6545 17.2566 12.2798 17.3897C11.8985 17.5271 11.4661 17.4096 11.2089 17.0948C10.9606 16.7888 10.9318 16.3454 11.1336 16.0084C11.3353 15.6691 11.7455 15.4807 12.1357 15.5627C12.5814 15.6581 12.8962 16.0438 12.9029 16.4962ZM12.9029 16.4962C12.9073 16.7822 13.3507 16.7822 13.3463 16.4962C13.3397 15.9086 12.976 15.392 12.4262 15.1858C11.8918 14.984 11.2488 15.157 10.8874 15.596C10.515 16.0505 10.4484 16.6979 10.7522 17.2079C11.0559 17.7156 11.6479 17.9684 12.2244 17.8619C12.874 17.7422 13.3374 17.1458 13.3463 16.4939C13.3507 16.2123 12.9073 16.2124 12.9029 16.4962Z" stroke="#AD1E23" stroke-width="0.5"/>
</g>
</svg>
