<svg width="24" height="24" viewBox="0 0 24 24" fill="none" xmlns="http://www.w3.org/2000/svg">
<mask id="mask0" mask-type="alpha" maskUnits="userSpaceOnUse" x="0" y="0" width="24" height="24">
<rect width="24" height="24" fill="#C4C4C4"/>
</mask>
<g mask="url(#mask0)">
<path d="M11.0307 2C10.1653 2 9.46138 2.70392 9.46138 3.56928V3.85163C9.17391 3.5328 8.76211 3.32832 8.30006 3.32832C7.43471 3.32832 6.73079 4.03245 6.73079 4.8978V5.03248C6.44332 4.71365 6.03152 4.50917 5.56948 4.50917C4.70412 4.50917 4 5.21329 4 6.07864V11.6504V16.3345C4 19.4585 6.54145 22 9.66546 22C12.97 22 14.0787 20.6085 15.3626 18.9972C16.2497 17.8835 17.2553 16.6213 19.1826 15.5766C19.6401 15.3287 19.8976 14.852 19.8713 14.3017C19.8406 13.6554 19.4468 13.0792 18.8681 12.8335C18.6026 12.7213 18.3138 12.6824 18.0352 12.7211C17.3289 12.8201 16.1345 13.1276 15.3307 14.0785V11.6504V5.48812C15.3307 4.62277 14.6268 3.91885 13.7614 3.91885C13.2994 3.91885 12.8876 4.12328 12.6001 4.44205V3.56928C12.6001 2.70392 11.896 2 11.0307 2ZM13.7614 4.32701C14.4016 4.32701 14.9226 4.84798 14.9226 5.48812V11.6504V14.7404C14.9226 14.8338 14.9861 14.9155 15.077 14.9383C15.1675 14.961 15.2622 14.9193 15.3064 14.8368C15.9729 13.5942 17.3377 13.2311 18.0918 13.1252C18.2981 13.0963 18.5113 13.1256 18.7086 13.2093C19.1373 13.3911 19.4406 13.8379 19.4638 14.321C19.4825 14.7168 19.3093 15.0437 18.988 15.2179C16.9879 16.3023 15.9547 17.5987 15.0433 18.7429C13.775 20.3345 12.7733 21.5918 9.66546 21.5918C6.76666 21.5918 4.40816 19.2333 4.40816 16.3345V11.6504V6.07864C4.40816 5.4383 4.92913 4.91733 5.56948 4.91733C6.20982 4.91733 6.73079 5.4383 6.73079 6.07864V10.4696C6.73079 10.5824 6.82207 10.6737 6.93487 10.6737C7.04767 10.6737 7.13895 10.5824 7.13895 10.4696V6.07864V4.8978C7.13895 4.25745 7.65992 3.73649 8.30006 3.73649C8.94041 3.73649 9.46138 4.25745 9.46138 4.8978V11.0601C9.46138 11.1729 9.55265 11.2642 9.66546 11.2642C9.77826 11.2642 9.86954 11.1729 9.86954 11.0601V4.8978V3.56928C9.86954 2.92913 10.3905 2.40816 11.0307 2.40816C11.671 2.40816 12.192 2.92913 12.192 3.56928V5.48812V11.6504C12.192 11.7632 12.2832 11.8545 12.396 11.8545C12.5088 11.8545 12.6001 11.7632 12.6001 11.6504V5.48812C12.6001 4.84798 13.1211 4.32701 13.7614 4.32701Z" fill="#AD1E23" stroke="#AD1E23" stroke-width="0.5"/>
</g>
</svg>
