<svg width="40" height="40" viewBox="0 0 40 40" fill="none" xmlns="http://www.w3.org/2000/svg">
<mask id="mask0" mask-type="alpha" maskUnits="userSpaceOnUse" x="0" y="0" width="40" height="40">
<rect width="40" height="40" fill="#C4C4C4"/>
</mask>
<g mask="url(#mask0)">
<path d="M20.3487 37.9866C14.9915 37.9866 9.63448 37.9783 4.2773 38C3.76171 38.0022 3.53504 37.8524 3.41251 37.3616C2.97427 35.6068 2.71565 33.8683 3.52957 32.1411C4.29349 30.5202 5.60254 29.4466 7.10981 28.5826C9.91781 26.9728 12.9608 26.0185 16.124 25.3976C16.4914 25.3256 16.6397 25.453 16.8171 25.7247C17.7008 27.0802 18.6031 28.4237 19.4988 29.7713C19.5895 29.9075 19.6743 30.0482 19.7727 30.1788C20.2301 30.7856 20.563 30.7787 20.9851 30.1479C21.6119 29.2112 22.2329 28.2705 22.8558 27.3311C23.2376 26.7553 23.6051 26.1694 24.0094 25.6099C24.0995 25.4854 24.336 25.3622 24.4732 25.3908C28.0055 26.128 31.399 27.2409 34.444 29.2303C35.9455 30.2113 37.133 31.4735 37.5737 33.2716C37.9508 34.8093 37.6475 36.302 37.1071 37.7502C37.0579 37.8821 36.7293 37.9754 36.5298 37.9767C33.8513 37.9915 31.1727 37.9866 28.494 37.9866H20.3487ZM20.3756 33.6111C20.2243 33.3941 20.1292 33.2626 20.0391 33.1277C18.8175 31.2974 17.5999 29.4645 16.3739 27.6372C15.8816 26.9035 15.7058 26.8458 14.8782 27.067C14.4919 27.1703 14.1026 27.264 13.7181 27.3735C11.4336 28.0236 9.19929 28.8032 7.24119 30.1859C5.38702 31.4951 3.97 33.0514 4.44599 35.5871C4.60538 36.436 4.70581 36.5679 5.56337 36.5679H34.5833C34.6927 36.5679 35.0918 36.5561 35.1843 36.5553C35.8232 36.5499 36.0987 36.3271 36.169 36.0169C36.4514 34.7316 36.5487 33.4063 35.6098 32.3359C34.9099 31.5373 34.1258 30.7735 33.2569 30.1686C31.2504 28.7714 28.9606 27.9639 26.6153 27.3277C24.8261 26.8424 25.0951 26.5272 23.9201 28.2917C22.7528 30.0451 21.5841 31.7978 20.3756 33.6111ZM24.0254 22.8074C22.7039 23.7229 21.2459 24.1198 19.6827 23.9284C15.8424 23.458 13.621 20.73 12.8174 17.5088C12.7252 17.1395 12.6627 16.7619 12.6024 16.3857C12.527 15.9149 12.2586 15.6915 11.7842 15.6929C10.8361 15.6957 9.88751 15.6749 8.94024 15.7026C8.55593 15.7139 8.43909 15.5651 8.40244 15.2139C8.04504 11.7937 8.70077 8.66073 11.0339 6.01293C12.4148 4.44585 14.1494 3.38062 16.1189 2.74183C20.7365 1.24394 24.9891 2.00833 28.729 5.09053C31.0144 6.97395 32.1626 9.51514 32.366 12.4649C32.4478 13.6526 32.3559 14.8352 31.9282 15.9549C31.3776 17.3963 30.2175 18.2296 28.8518 18.804C26.3658 19.8496 23.7853 20.0722 21.1371 19.6202C21.0374 19.5968 20.9309 19.5603 20.8143 19.5256C20.4549 19.3959 20.211 19.0905 20.3364 18.7405C20.4566 18.4048 20.7626 18.3926 21.0064 18.4222C21.3278 18.4512 21.4207 18.4916 21.7155 18.5314C23.8609 18.821 25.9939 18.7876 27.9837 17.8512C30.4397 16.6951 31.7181 14.7011 31.0188 11.8112C30.0129 7.65562 27.4441 4.84556 23.3903 3.65168C19.0546 2.37486 15.2346 3.57235 12.0712 6.80787C10.8059 8.10192 9.89758 9.59752 9.60034 11.3927C9.46863 12.1888 9.49029 13.0143 9.48898 13.8266C9.48832 14.3034 9.79387 14.5347 10.2754 14.5284C10.7312 14.5226 11.187 14.5259 11.6429 14.5242C12.2776 14.5219 12.5136 14.3073 12.6044 13.6713C12.8865 11.6935 13.6402 9.9155 15.0221 8.46213C18.6001 4.6989 24.7282 5.71317 27.0939 10.4364C27.5748 11.397 27.9817 12.4503 28.1069 13.555C27.9469 13.5722 27.7969 13.5706 27.6728 13.5755C27.1531 13.596 26.933 13.4719 26.807 12.9021C26.3985 11.0561 25.3485 9.58978 23.8411 8.45951C21.4308 6.65226 18.2706 6.96969 16.0063 9.22662C12.2877 12.9334 13.0462 19.4676 17.4997 22.0607C18.3493 22.5555 19.2673 22.8132 20.2574 22.8086C21.5136 22.8029 22.7696 22.8074 24.0254 22.8074Z" fill="#AD1E23"/>
</g>
</svg>
