<svg width="24" height="24" viewBox="0 0 24 24" fill="none" xmlns="http://www.w3.org/2000/svg">
<mask id="mask0" mask-type="alpha" maskUnits="userSpaceOnUse" x="0" y="0" width="24" height="24">
<rect width="24" height="24" fill="#C4C4C4"/>
</mask>
<g mask="url(#mask0)">
<path d="M4.49487 22H20.3307C20.3957 22 20.46 21.9872 20.52 21.9623C20.5801 21.9375 20.6346 21.901 20.6806 21.8551C20.7266 21.8091 20.763 21.7546 20.7879 21.6945C20.8127 21.6345 20.8255 21.5701 20.8255 21.5051V18.338C20.8226 16.5124 20.2265 14.7372 19.1272 13.2798C18.0278 11.8224 16.4847 10.7616 14.7302 10.2573C15.5597 9.75181 16.2013 8.98899 16.5571 8.08506C16.9129 7.18113 16.9634 6.18565 16.7009 5.25036C16.4384 4.31506 15.8773 3.49123 15.1032 2.90442C14.329 2.31761 13.3842 2 12.4128 2C11.4413 2 10.4965 2.31761 9.72238 2.90442C8.94821 3.49123 8.38713 4.31506 8.12464 5.25036C7.86215 6.18565 7.91265 7.18113 8.26844 8.08506C8.62424 8.98899 9.26581 9.75181 10.0954 10.2573C8.34088 10.7616 6.79773 11.8224 5.69837 13.2798C4.59901 14.7372 4.00297 16.5124 4 18.338V21.5051C4 21.5701 4.01279 21.6345 4.03766 21.6945C4.06253 21.7546 4.09898 21.8091 4.14493 21.8551C4.19089 21.901 4.24544 21.9375 4.30549 21.9623C4.36553 21.9872 4.42988 22 4.49487 22ZM4.98974 18.338C4.98974 16.3693 5.7718 14.4812 7.16389 13.0891C8.55598 11.697 10.4441 10.9149 12.4128 10.9149C14.3815 10.9149 16.2696 11.697 17.6616 13.0891C19.0537 14.4812 19.8358 16.3693 19.8358 18.338V21.0103H4.98974V18.338ZM12.4128 2.99705C13.0979 2.99705 13.7676 3.20021 14.3373 3.58085C14.907 3.96149 15.351 4.5025 15.6132 5.13548C15.8753 5.76846 15.9439 6.46497 15.8103 7.13693C15.6766 7.8089 15.3467 8.42614 14.8622 8.9106C14.3778 9.39506 13.7605 9.72498 13.0886 9.85864C12.4166 9.99231 11.7201 9.92371 11.0871 9.66152C10.4541 9.39933 9.91313 8.95533 9.53249 8.38567C9.15185 7.816 8.94869 7.14626 8.94869 6.46113C8.9497 5.54271 9.31499 4.66219 9.96441 4.01277C10.6138 3.36335 11.4943 2.99806 12.4128 2.99705Z" fill="#FFFFFF"/>
</g>
</svg>
