<svg width="20" height="17" viewBox="0 0 20 17" fill="none" xmlns="http://www.w3.org/2000/svg">
<path d="M19.4 0H0.6C0.44087 0 0.288258 0.064835 0.175736 0.180242C0.0632141 0.295649 0 0.452174 0 0.615385V5.53846C0 5.70167 0.0632141 5.8582 0.175736 5.9736C0.288258 6.08901 0.44087 6.15385 0.6 6.15385H4.2V16.3846C4.2 16.5478 4.26321 16.7044 4.37574 16.8198C4.48826 16.9352 4.64087 17 4.8 17H15.2C15.3591 17 15.5117 16.9352 15.6243 16.8198C15.7368 16.7044 15.8 16.5478 15.8 16.3846V6.15385H19.4C19.5591 6.15385 19.7117 6.08901 19.8243 5.9736C19.9368 5.8582 20 5.70167 20 5.53846V0.615385C20 0.452174 19.9368 0.295649 19.8243 0.180242C19.7117 0.064835 19.5591 0 19.4 0ZM14.6 15.7692H5.4V3.69231H14.6V15.7692ZM18.8 4.92308H15.8V3.07692C15.8 2.91371 15.7368 2.75719 15.6243 2.64178C15.5117 2.52637 15.3591 2.46154 15.2 2.46154H4.8C4.64087 2.46154 4.48826 2.52637 4.37574 2.64178C4.26321 2.75719 4.2 2.91371 4.2 3.07692V4.92308H1.2V1.23077H18.8V4.92308Z" fill="#fff"/>
<path d="M7.28825 9.33652C7.4983 9.34905 7.71504 9.35532 7.9385 9.35532C8.16642 9.35532 8.38763 9.3407 8.60215 9.31145C8.82113 9.27803 9.02894 9.22581 9.22557 9.15479C9.42221 9.08376 9.59874 8.98559 9.75515 8.86025C9.91157 8.73492 10.0389 8.57825 10.1373 8.39026C10.24 8.19808 10.3048 7.9683 10.3317 7.70092H7C7.01341 7.67168 7.04916 7.6111 7.10726 7.51919C7.16982 7.4231 7.23462 7.32284 7.30166 7.21839C7.3821 7.09724 7.47148 6.96564 7.5698 6.82359H10.1641C10.1641 6.71497 10.1082 6.60635 9.99648 6.49773C9.88475 6.38493 9.74845 6.28466 9.58756 6.19693C9.43115 6.1092 9.27026 6.03817 9.10491 5.98386C8.93956 5.92537 8.80325 5.89613 8.69599 5.89613H7C7.01788 5.846 7.05586 5.7708 7.11396 5.67053C7.17653 5.57026 7.24133 5.47209 7.30836 5.376C7.3754 5.27573 7.4335 5.188 7.48265 5.1128C7.53628 5.0376 7.56533 5 7.5698 5H13.1538C13.1538 5 13.1404 5.02298 13.1136 5.06893C13.0913 5.11489 13.06 5.17129 13.0198 5.23813C12.9796 5.3008 12.9349 5.37182 12.8857 5.4512C12.8365 5.5264 12.7896 5.59742 12.7449 5.66426C12.7047 5.73111 12.669 5.78751 12.6377 5.83346C12.6109 5.87524 12.5975 5.89613 12.5975 5.89613H11.1294C11.2232 6.04653 11.3037 6.19902 11.3707 6.3536C11.4422 6.50399 11.4869 6.66066 11.5048 6.82359H13.1538L12.5975 7.70092H11.5651C11.5115 8.08946 11.3931 8.42159 11.2098 8.69732C11.0311 8.97305 10.8098 9.20283 10.5462 9.38665C10.287 9.5663 9.99648 9.70625 9.67471 9.80652C9.35294 9.90261 9.02223 9.96945 8.68259 10.0071C8.68259 10.0112 8.68929 10.0258 8.7027 10.0509C8.72057 10.0718 8.74068 10.0969 8.76303 10.1261C8.78538 10.1595 8.81219 10.195 8.84347 10.2326L11.8198 14.0741V14.2308H10.5462L7.28825 10.1637V9.33652Z" fill="#fff"/>
</svg>
