<svg width="52" height="52" viewBox="0 0 52 52" fill="none" xmlns="http://www.w3.org/2000/svg">
<circle cx="26" cy="26" r="26" fill="#D5DBF8"/>
<mask id="mask0" mask-type="alpha" maskUnits="userSpaceOnUse" x="10" y="10" width="32" height="32">
<rect x="10" y="10" width="32" height="32" fill="#C4C4C4"/>
</mask>
<g mask="url(#mask0)">
<path d="M21.0678 21.8828H16.6523V22.767H21.0678V21.8828Z" fill="#3458F5"/>
<path d="M32.1192 26.2109H16.2148V27.0951H32.1192V26.2109Z" fill="#3458F5"/>
<path d="M18.8674 29.8345H16.2148V30.7186H18.8674V29.8345Z" fill="#3458F5"/>
<path d="M25.508 29.8345H22.8555V30.7186H25.508V29.8345Z" fill="#3458F5"/>
<path d="M32.131 29.8345H29.4785V30.7186H32.131V29.8345Z" fill="#3458F5"/>
<path d="M33.0699 21.1304C32.7464 21.1304 32.4499 21.222 32.1911 21.373C31.9216 21.2166 31.6196 21.1304 31.3016 21.1304C30.3257 21.1304 29.5332 21.9229 29.5332 22.8987C29.5332 23.8745 30.3257 24.6671 31.3016 24.6671C31.6196 24.6671 31.9216 24.5808 32.1911 24.4245C32.4499 24.5754 32.7464 24.6671 33.0699 24.6671C34.0457 24.6671 34.8382 23.8745 34.8382 22.8987C34.8382 21.9229 34.0457 21.1304 33.0699 21.1304ZM31.528 23.7505C31.4525 23.7721 31.377 23.7829 31.3016 23.7829C30.8163 23.7829 30.4174 23.3839 30.4174 22.8987C30.4174 22.4135 30.8163 22.0145 31.3016 22.0145C31.377 22.0145 31.4579 22.0307 31.528 22.0469C31.3878 22.3003 31.3016 22.586 31.3016 22.8987C31.3016 23.2114 31.3878 23.4972 31.528 23.7505ZM33.0699 23.7829C32.5847 23.7829 32.1857 23.3839 32.1857 22.8987C32.1857 22.4135 32.5847 22.0145 33.0699 22.0145C33.5551 22.0145 33.9541 22.4135 33.9541 22.8987C33.9541 23.3839 33.5551 23.7829 33.0699 23.7829Z" fill="#3458F5"/>
<rect x="14" y="18" width="23.9999" height="15.9999" rx="1.62891" stroke="#3458F5" stroke-width="0.814453"/>
</g>
</svg>
