<svg width="21" height="21" viewBox="0 0 21 21" fill="none" xmlns="http://www.w3.org/2000/svg">
<path d="M19.1543 0.697266H1.88672C0.868998 0.697266 0 1.52525 0 2.54297V14.5195C0 15.5373 0.868998 16.3652 1.88672 16.3652H7.80499L7.35381 19.0723H6.5625C6.22273 19.0723 5.94727 19.3477 5.94727 19.6875C5.94727 20.0273 6.22273 20.3027 6.5625 20.3027H14.4375C14.7773 20.3027 15.0527 20.0273 15.0527 19.6875C15.0527 19.3477 14.7773 19.0723 14.4375 19.0723H13.6462L13.195 16.3652H19.1543C20.172 16.3652 21 15.5373 21 14.5195V2.54297C21 1.52525 20.172 0.697266 19.1543 0.697266ZM12.3987 19.0723H8.60126L9.05244 16.3652H11.9476L12.3987 19.0723ZM19.7695 14.5195C19.7695 14.8588 19.4935 15.1348 19.1543 15.1348C18.7153 15.1348 2.40159 15.1348 1.88672 15.1348C1.54748 15.1348 1.23047 14.8588 1.23047 14.5195V2.54297C1.23047 2.20373 1.54748 1.92773 1.88672 1.92773H9.88477V2.625C9.88477 2.96477 10.1602 3.24023 10.5 3.24023C10.8398 3.24023 11.1152 2.96477 11.1152 2.625V1.92773H19.1543C19.4935 1.92773 19.7695 2.20373 19.7695 2.54297V14.5195Z" fill="#ffffff"/>
<path d="M7.4824 7.01412C8.37564 5.74715 7.46915 3.97852 5.90625 3.97852C4.3436 3.97852 3.4367 5.74695 4.3301 7.01412C3.33834 7.56874 2.66602 8.62895 2.66602 9.84375V12.7969C2.66602 13.1366 2.94148 13.4121 3.28125 13.4121H8.53125C8.87102 13.4121 9.14648 13.1366 9.14648 12.7969V9.84375C9.14648 8.62895 8.47416 7.56874 7.4824 7.01412ZM5.20898 5.90625C5.20898 5.52177 5.52177 5.20898 5.90625 5.20898C6.29073 5.20898 6.60352 5.52177 6.60352 5.90625C6.60352 6.29073 6.29073 6.60352 5.90625 6.60352C5.52177 6.60352 5.20898 6.29073 5.20898 5.90625ZM7.91602 12.1816H3.89648V9.84375C3.89648 8.73555 4.79805 7.83398 5.90625 7.83398C7.01445 7.83398 7.91602 8.73555 7.91602 9.84375V12.1816Z" fill="#ffffff"/>
<path d="M12.8104 12.2855C12.4933 12.0771 12.0877 12.1993 11.9265 12.5074C11.6842 12.9611 12.0717 13.4971 12.5889 13.4003C13.1362 13.2857 13.256 12.5797 12.8104 12.2855Z" fill="#ffffff"/>
<path d="M15.4837 12.3211C15.0417 11.9608 14.3821 12.3422 14.4903 12.917C14.5926 13.4103 15.1885 13.5712 15.5289 13.232C15.7857 12.9743 15.7643 12.5505 15.4837 12.3211Z" fill="#ffffff"/>
<path d="M18.0606 12.2855C17.7433 12.0769 17.3377 12.1996 17.1767 12.5074C16.9333 12.9632 17.3241 13.4967 17.8391 13.4003C18.3824 13.2864 18.5096 12.5892 18.0606 12.2855Z" fill="#ffffff"/>
<path d="M15.7617 6.77464C15.3695 6.63601 14.9373 6.46973 14.7053 6.2877C14.69 6.27573 14.6615 6.20411 14.6815 6.09788C14.6911 6.04698 14.7351 5.87714 14.8989 5.82779C15.3093 5.70421 15.4988 5.86225 15.5331 5.89576C15.7714 6.13758 16.1606 6.14074 16.4027 5.90261C16.645 5.66435 16.6483 5.27482 16.41 5.03258C16.2423 4.86204 15.9981 4.70733 15.695 4.62173V4.58765C15.695 4.24787 15.4196 3.97241 15.0798 3.97241C14.74 3.97241 14.4646 4.24787 14.4646 4.58765V4.67673C13.356 5.07955 13.1009 6.59323 13.9459 7.25596C14.3169 7.547 14.8407 7.75421 15.3516 7.93481C15.6565 8.04255 15.6875 8.26121 15.6599 8.4256C15.6291 8.60873 15.4714 8.91943 15.0756 8.92205C14.6656 8.92488 14.5684 8.90958 14.2685 8.71341C13.9841 8.5274 13.6029 8.60709 13.4168 8.89145C13.2308 9.17582 13.3106 9.5571 13.5949 9.7431C13.9221 9.95712 14.1811 10.0632 14.4645 10.1129V10.1719C14.4645 10.5117 14.74 10.7872 15.0797 10.7872C15.4195 10.7872 15.695 10.5117 15.695 10.1719V10.0433C17.1857 9.50443 17.3832 7.34779 15.7617 6.77464Z" fill="#ffffff"/>
</svg>
