<svg width="20" height="14" viewBox="0 0 20 14" fill="none" xmlns="http://www.w3.org/2000/svg">
<path d="M6.29989 3.91211H2.98828V4.57524H6.29989V3.91211Z" fill="#3F5EF5"/>
<path d="M14.5884 7.1582H2.66016V7.82134H14.5884V7.1582Z" fill="#3F5EF5"/>
<path d="M4.64955 9.87549H2.66016V10.5386H4.64955V9.87549Z" fill="#3F5EF5"/>
<path d="M9.63001 9.87549H7.64062V10.5386H9.63001V9.87549Z" fill="#3F5EF5"/>
<path d="M14.5988 9.87549H12.6094V10.5386H14.5988V9.87549Z" fill="#3F5EF5"/>
<path d="M15.301 3.34766C15.0583 3.34766 14.836 3.4164 14.6419 3.52961C14.4397 3.41235 14.2133 3.34766 13.9747 3.34766C13.2428 3.34766 12.6484 3.94205 12.6484 4.67392C12.6484 5.40579 13.2428 6.00018 13.9747 6.00018C14.2133 6.00018 14.4397 5.93548 14.6419 5.81822C14.836 5.93144 15.0583 6.00018 15.301 6.00018C16.0328 6.00018 16.6272 5.40579 16.6272 4.67392C16.6272 3.94205 16.0328 3.34766 15.301 3.34766ZM14.1445 5.31279C14.0879 5.32896 14.0313 5.33705 13.9747 5.33705C13.6108 5.33705 13.3116 5.03783 13.3116 4.67392C13.3116 4.31 13.6108 4.01079 13.9747 4.01079C14.0313 4.01079 14.092 4.02292 14.1445 4.03505C14.0394 4.22509 13.9747 4.43939 13.9747 4.67392C13.9747 4.90844 14.0394 5.12274 14.1445 5.31279ZM15.301 5.33705C14.937 5.33705 14.6378 5.03783 14.6378 4.67392C14.6378 4.31 14.937 4.01079 15.301 4.01079C15.6649 4.01079 15.9641 4.31 15.9641 4.67392C15.9641 5.03783 15.6649 5.33705 15.301 5.33705Z" fill="#3F5EF5"/>
<rect x="1" y="1" width="17.9999" height="12" rx="2" stroke="#3F5EF5"/>
</svg>
