<svg width="23" height="27" viewBox="0 0 23 27" fill="none" xmlns="http://www.w3.org/2000/svg">
<path d="M7.64213 6.44159H8.64634V7.4458C8.64634 7.80843 8.95318 8.11527 9.31581 8.11527C9.67845 8.11527 9.98529 7.80843 9.98529 7.4458V6.44159H10.9895C11.3521 6.44159 11.659 6.13474 11.659 5.77211C11.659 5.40948 11.3521 5.10264 10.9895 5.10264H9.98529V4.09843C9.98529 3.7358 9.67845 3.42896 9.31581 3.42896C8.95318 3.42896 8.64634 3.7358 8.64634 4.09843V5.10264H7.64213C7.2795 5.10264 6.97266 5.40948 6.97266 5.77211C6.97266 6.13474 7.2795 6.44159 7.64213 6.44159Z" fill="#053C6D"/>
<path d="M7.64213 11.0443H16.5684C16.9311 11.0443 17.2379 10.7374 17.2379 10.3748C17.2379 10.0122 16.9311 9.70532 16.5684 9.70532H7.64213C7.2795 9.70532 6.97266 10.0122 6.97266 10.3748C6.97266 10.7374 7.2795 11.0443 7.64213 11.0443Z" fill="#053C6D"/>
<path d="M7.64213 14.6705H13.5837C13.9463 14.6705 14.2532 14.3636 14.2532 14.001C14.2532 13.6384 13.9463 13.3315 13.5837 13.3315H7.64213C7.2795 13.3315 6.97266 13.6384 6.97266 14.001C6.97266 14.3636 7.2795 14.6705 7.64213 14.6705Z" fill="#053C6D"/>
<path d="M9.59476 16.9302H7.64213C7.2795 16.9302 6.97266 17.237 6.97266 17.5996C6.97266 17.9623 7.2795 18.2691 7.64213 18.2691H9.59476C9.95739 18.2691 10.2642 17.9623 10.2642 17.5996C10.2921 17.237 9.98529 16.9302 9.59476 16.9302Z" fill="#053C6D"/>
<path d="M21.8137 16.3442C21.4232 16.3163 21.0605 16.2326 20.7258 16.1489V6.10684C20.7258 5.93947 20.67 5.77211 20.5305 5.63263L15.5932 0.695263C15.4537 0.583684 15.2863 0.5 15.1189 0.5H4.18421C3.82158 0.5 3.51474 0.806842 3.51474 1.16947V3.98684H0.669474C0.306842 3.98684 0 4.29368 0 4.65632V24.7126C0 25.0753 0.306842 25.3821 0.669474 25.3821H14.6168C15.7047 26.3305 16.7368 26.8605 16.8205 26.9163C16.9042 26.9721 17.0158 27 17.1274 27C17.2389 27 17.3505 26.9721 17.4342 26.9163C17.6295 26.8047 22.3995 24.3221 22.3995 20.3053V17.0416C22.4274 16.6789 22.1763 16.4 21.8137 16.3442ZM15.1747 2.20158L19.0242 6.05105H15.1747V2.20158ZM4.85368 1.86684H13.8079V6.74842C13.8079 7.13895 14.1147 7.41789 14.4774 7.41789H19.3589V15.6747C18.1874 15.0611 17.7689 14.2521 17.7411 14.1963C17.6295 13.9732 17.4063 13.8058 17.1274 13.8058C16.8763 13.8058 16.6253 13.9453 16.5137 14.1963C16.4858 14.28 15.5653 16.0374 12.4411 16.3721C12.1063 16.4 11.8274 16.7068 11.8274 17.0416V20.3332C11.8274 20.4168 11.8274 20.4726 11.8553 20.5563H4.85368V1.86684ZM1.33895 24.0432V5.35368H3.48684V21.2258C3.48684 21.5884 3.79368 21.8953 4.15632 21.8953H12.0784C12.3295 22.7042 12.7758 23.4295 13.2779 24.0432H1.33895ZM21.0884 20.3332C21.0884 22.9832 18.1316 24.9637 17.1553 25.5495C16.1789 24.9637 13.2221 22.9832 13.2221 20.3332V17.6274C15.3142 17.2926 16.5137 16.3442 17.1553 15.6468C17.7968 16.3442 18.9963 17.2926 21.0884 17.6274V20.3332Z" fill="#053C6D"/>
<path d="M15.8164 19.8588C15.5653 19.6077 15.119 19.6077 14.868 19.8588C14.6169 20.1098 14.6169 20.5561 14.868 20.8072L16.0953 22.0346C16.2348 22.174 16.4022 22.2298 16.5696 22.2298C16.7369 22.2298 16.9043 22.174 17.0438 22.0346L19.3869 19.6914C19.638 19.4403 19.638 18.994 19.3869 18.743C19.1359 18.4919 18.6896 18.4919 18.4385 18.743L16.5696 20.6119L15.8164 19.8588Z" fill="#053C6D"/>
</svg>
