<svg width="40" height="31" viewBox="0 0 40 31" fill="none" xmlns="http://www.w3.org/2000/svg">
<path d="M12.531 0L3.13133 14.3915C1.04378 17.4893 0 20.0384 0 22.0388C0 24.3364 0.769999 26.3082 2.31 27.96C3.84999 29.606 5.76073 30.4348 8.05362 30.4348C10.2381 30.4348 12.1032 29.6632 13.6489 28.1086C15.1889 26.5597 15.9589 24.6336 15.9589 22.336C15.9589 20.5356 15.457 18.9124 14.4646 17.4664C13.4664 16.0204 12.1261 14.9916 10.4378 14.3915L18.6454 0.00571545L12.531 0ZM31.7981 14.3915L40 0H33.8856L24.4917 14.3915C22.4041 17.4893 21.3603 20.0384 21.3603 22.0388C21.3603 24.3421 22.1303 26.3082 23.6703 27.96C25.2103 29.606 27.1211 30.4348 29.4139 30.4348C31.5985 30.4348 33.4636 29.6632 35.0093 28.1086C36.5493 26.5597 37.3193 24.6336 37.3193 22.336C37.3193 20.5356 36.8173 18.9124 35.8249 17.4664C34.8268 16.0147 33.4864 14.9916 31.7981 14.3915Z" fill="#EAE9DE"/>
</svg>
