<svg width="18" height="24" viewBox="0 0 18 24" fill="none" xmlns="http://www.w3.org/2000/svg">
<path d="M2.99609 14.4917V22.5169H7.71686" stroke="#CF60F6" stroke-linecap="round"/>
<path d="M8.36328 8.81995L12.1414 5.78674" stroke="#CF60F6" stroke-linecap="round"/>
<mask id="path-3-inside-1" fill="white">
<path d="M14.5241 15.5515C12.7197 17.0099 10.4098 17.6917 8.10267 17.447C5.79552 17.2024 3.68006 16.0512 2.22168 14.2468C0.763293 12.4423 0.0814442 10.1325 0.326129 7.82533C0.570815 5.51817 1.72199 3.40272 3.52641 1.94433L9.02526 8.74791L14.5241 15.5515Z"/>
</mask>
<path d="M14.5241 15.5515C12.7197 17.0099 10.4098 17.6917 8.10267 17.447C5.79552 17.2024 3.68006 16.0512 2.22168 14.2468C0.763293 12.4423 0.0814442 10.1325 0.326129 7.82533C0.570815 5.51817 1.72199 3.40272 3.52641 1.94433L9.02526 8.74791L14.5241 15.5515Z" stroke="#CF60F6" stroke-width="2" mask="url(#path-3-inside-1)"/>
<circle cx="12.9625" cy="5.11578" r="1.11871" stroke="#CF60F6"/>
</svg>
