<svg width="52" height="52" viewBox="0 0 52 52" fill="none" xmlns="http://www.w3.org/2000/svg">
<circle cx="26" cy="26" r="26" fill="#CFEFDA"/>
<mask id="mask0" mask-type="alpha" maskUnits="userSpaceOnUse" x="7" y="7" width="38" height="38">
<rect x="7.79883" y="7.7998" width="36.4" height="36.4" fill="#C4C4C4"/>
</mask>
<g mask="url(#mask0)">
<path d="M38.2883 27.1567C38.5122 27.546 38.736 27.9385 38.9631 28.3278C39.1091 28.5841 39.2583 28.8372 39.4043 29.0935C39.4887 29.2427 39.5828 29.3887 39.6509 29.5476C39.6185 29.4698 39.586 29.3919 39.5536 29.3141C39.5957 29.4244 39.6249 29.5347 39.6412 29.6515C39.6282 29.5639 39.6185 29.4795 39.6055 29.3919C39.6185 29.5055 39.6185 29.619 39.6022 29.7326C39.6152 29.645 39.6249 29.5606 39.6379 29.473C39.6217 29.5866 39.5925 29.6936 39.5503 29.8007C39.5828 29.7228 39.6152 29.645 39.6477 29.5671C39.6379 29.5931 39.5341 29.8331 39.5049 29.8299C39.4952 29.8266 39.6509 29.6547 39.5925 29.7196C39.573 29.739 39.5536 29.765 39.5341 29.7845C39.4984 29.8202 39.3427 29.9499 39.4854 29.8396C39.6249 29.7326 39.4725 29.8429 39.427 29.8688C39.4108 29.8786 39.3946 29.8883 39.3784 29.8948C39.2064 29.9953 39.0345 30.0927 38.8658 30.19C38.3824 30.469 37.8958 30.748 37.4124 31.027C37.1983 31.1503 37.0004 31.2736 36.809 31.439C36.3223 31.8575 36.0596 32.5096 36.0498 33.1455C36.0433 33.5542 36.0498 33.9663 36.0498 34.375C36.0498 34.693 36.0498 35.0141 36.0498 35.3321C36.0498 35.5137 36.0596 35.6987 36.0369 35.8771C36.0498 35.7895 36.0596 35.7051 36.0725 35.6176C36.0563 35.7311 36.0271 35.8414 35.9849 35.9485C36.0174 35.8706 36.0498 35.7927 36.0823 35.7149C36.0498 35.7927 36.0077 35.8641 35.9655 35.9387C35.8909 36.0653 36.1082 35.783 36.0304 35.8576C36.0012 35.8868 35.9752 35.9193 35.946 35.9485C35.9201 35.9744 35.8941 35.9939 35.8682 36.0198C35.7514 36.1301 36.0725 35.8901 35.933 35.9679C35.8584 36.0101 35.7903 36.0523 35.7092 36.0847C35.787 36.0523 35.8649 36.0198 35.9428 35.9874C35.8357 36.0296 35.7254 36.0588 35.6119 36.075C35.6995 36.062 35.7838 36.0523 35.8714 36.0393C35.4594 36.088 35.0247 36.0523 34.6094 36.0523C34.1293 36.0523 33.6524 36.049 33.1722 36.0523C32.2768 36.0555 31.5306 36.5357 31.0894 37.3013C30.8267 37.7587 30.5639 38.2162 30.2979 38.6736C30.1681 38.8974 30.0416 39.1213 29.9118 39.3419C29.8826 39.3906 29.8566 39.4425 29.8242 39.4911C29.7171 39.6598 29.9767 39.3224 29.8404 39.4717C29.8015 39.5138 29.7561 39.5528 29.7139 39.5917C29.6523 39.6501 29.8242 39.4944 29.8242 39.5041C29.8242 39.5106 29.7463 39.556 29.7334 39.5625C29.6782 39.595 29.6198 39.6241 29.5614 39.6469C29.6393 39.6144 29.7171 39.582 29.795 39.5495C29.6879 39.5917 29.5809 39.6209 29.4673 39.6371C29.5549 39.6241 29.6393 39.6144 29.7269 39.6014C29.6133 39.6144 29.4998 39.6144 29.3862 39.6047C29.4738 39.6177 29.5582 39.6274 29.6458 39.6404C29.529 39.6241 29.4187 39.595 29.3084 39.5528C29.3862 39.5852 29.4641 39.6177 29.542 39.6501C29.1916 39.5009 28.8607 39.2705 28.5298 39.0824C28.1048 38.839 27.6798 38.5925 27.2548 38.3492C26.9498 38.174 26.6351 38.054 26.2848 38.0053C25.7689 37.9372 25.2628 38.0507 24.8087 38.307C24.4226 38.5276 24.0398 38.7482 23.657 38.9688C23.2612 39.1959 22.8686 39.4684 22.4501 39.6501C22.528 39.6177 22.6058 39.5852 22.6837 39.5528C22.5734 39.595 22.4631 39.6241 22.3463 39.6404C22.4339 39.6274 22.5182 39.6177 22.6058 39.6047C22.4923 39.6177 22.3787 39.6177 22.2652 39.6014C22.3528 39.6144 22.4371 39.6241 22.5247 39.6371C22.4112 39.6209 22.3041 39.5917 22.1971 39.5495C22.2749 39.582 22.3528 39.6144 22.4307 39.6469C22.4047 39.6371 22.1646 39.5333 22.1679 39.5041C22.1711 39.4944 22.3431 39.6501 22.2782 39.5917C22.2555 39.5722 22.2328 39.5528 22.2133 39.5333C22.1776 39.4976 22.0478 39.3419 22.1581 39.4846C22.2652 39.6241 22.1549 39.4717 22.1289 39.4263C22.1192 39.41 22.1095 39.3938 22.103 39.3776C22.0024 39.2056 21.9051 39.0337 21.8078 38.865C21.5288 38.3816 21.2498 37.8982 20.9708 37.4148C20.8475 37.2007 20.7242 37.0028 20.5587 36.8114C20.1402 36.3248 19.4882 36.062 18.8523 36.0523C18.4435 36.0458 18.0315 36.0523 17.6227 36.0523C17.3048 36.0523 16.9836 36.0523 16.6657 36.0523C16.484 36.0523 16.2991 36.062 16.1207 36.0393C16.2083 36.0523 16.2926 36.062 16.3802 36.075C16.2667 36.0588 16.1564 36.0296 16.0493 35.9874C16.1272 36.0198 16.205 36.0523 16.2829 36.0847C16.205 36.0523 16.1336 36.0101 16.059 35.9679C15.9325 35.8933 16.2148 36.1107 16.1401 36.0328C16.1109 36.0036 16.0785 35.9777 16.0493 35.9485C16.0233 35.9225 16.0039 35.8966 15.9779 35.8706C15.8676 35.7538 16.1077 36.075 16.0298 35.9355C15.9877 35.8609 15.9455 35.7927 15.913 35.7116C15.9455 35.7895 15.9779 35.8674 16.0104 35.9452C15.9682 35.8382 15.939 35.7279 15.9228 35.6143C15.9357 35.7019 15.9455 35.7863 15.9585 35.8738C15.9098 35.4618 15.9455 35.0271 15.9455 34.6118C15.9455 34.1317 15.9487 33.6548 15.9455 33.1747C15.9422 32.2793 15.4621 31.5331 14.6965 31.0919C14.239 30.8291 13.7816 30.5663 13.3242 30.3003C13.1003 30.1705 12.8765 30.044 12.6559 29.9142C12.6072 29.885 12.5553 29.8591 12.5066 29.8266C12.3379 29.7196 12.6753 29.9791 12.5261 29.8429C12.4839 29.8039 12.445 29.7585 12.4061 29.7163C12.3477 29.6547 12.5034 29.8266 12.4936 29.8266C12.4872 29.8266 12.4417 29.7488 12.4352 29.7358C12.4028 29.6807 12.3736 29.6223 12.3509 29.5639C12.3833 29.6417 12.4158 29.7196 12.4482 29.7974C12.4061 29.6904 12.3769 29.5833 12.3606 29.4698C12.3736 29.5574 12.3833 29.6417 12.3963 29.7293C12.3833 29.6158 12.3833 29.5022 12.3931 29.3887C12.3801 29.4763 12.3704 29.5606 12.3574 29.6482C12.3736 29.5314 12.4028 29.4211 12.445 29.3108C12.4125 29.3887 12.3801 29.4665 12.3477 29.5444C12.4969 29.194 12.7272 28.8631 12.9154 28.5322C13.1587 28.1072 13.4053 27.6822 13.6486 27.2572C13.8238 26.9523 13.9438 26.6376 13.9925 26.2872C14.0606 25.7714 13.947 25.2653 13.6908 24.8111C13.4702 24.425 13.2495 24.0422 13.0289 23.6594C12.8018 23.2636 12.5293 22.8711 12.3477 22.4526C12.3801 22.5304 12.4125 22.6083 12.445 22.6861C12.4028 22.5758 12.3736 22.4655 12.3574 22.3487C12.3704 22.4363 12.3801 22.5207 12.3931 22.6083C12.3801 22.4947 12.3801 22.3812 12.3963 22.2676C12.3833 22.3552 12.3736 22.4396 12.3606 22.5272C12.3769 22.4136 12.4061 22.3066 12.4482 22.1995C12.4158 22.2774 12.3833 22.3552 12.3509 22.4331C12.3606 22.4071 12.4644 22.1671 12.4936 22.1703C12.5034 22.1736 12.3477 22.3455 12.4061 22.2806C12.4255 22.2579 12.445 22.2352 12.4644 22.2157C12.5001 22.18 12.6559 22.0503 12.5131 22.1606C12.3736 22.2676 12.5261 22.1573 12.5715 22.1314C12.5877 22.1216 12.6039 22.1119 12.6202 22.1054C12.7921 22.0049 12.9641 21.9075 13.1328 21.8102C13.6161 21.5312 14.0995 21.2522 14.5829 20.9732C14.797 20.8499 14.9949 20.7266 15.1863 20.5612C15.673 20.1427 15.9357 19.4906 15.9455 18.8547C15.952 18.446 15.9455 18.0339 15.9455 17.6252C15.9455 17.3072 15.9455 16.9861 15.9455 16.6681C15.9455 16.4865 15.9357 16.3015 15.9585 16.1231C15.9455 16.2107 15.9357 16.2951 15.9228 16.3826C15.939 16.2691 15.9682 16.1588 16.0104 16.0517C15.9779 16.1296 15.9455 16.2075 15.913 16.2853C15.9455 16.2075 15.9877 16.1361 16.0298 16.0615C16.1044 15.9349 15.8871 16.2172 15.9649 16.1426C15.9941 16.1134 16.0201 16.0809 16.0493 16.0517C16.0752 16.0258 16.1012 16.0063 16.1272 15.9804C16.2439 15.8701 15.9228 16.1101 16.0623 16.0323C16.1369 15.9901 16.205 15.9479 16.2861 15.9155C16.2083 15.9479 16.1304 15.9804 16.0525 16.0128C16.1596 15.9706 16.2699 15.9414 16.3834 15.9252C16.2959 15.9382 16.2115 15.9479 16.1239 15.9609C16.5359 15.9122 16.9707 15.9479 17.3859 15.9479C17.8661 15.9479 18.3429 15.9512 18.8231 15.9479C19.7185 15.9447 20.4647 15.4645 20.9059 14.6989C21.1687 14.2415 21.4314 13.784 21.6975 13.3266C21.8272 13.1028 21.9538 12.8789 22.0835 12.6583C22.1127 12.6096 22.1387 12.5577 22.1711 12.5091C22.2782 12.3404 22.0186 12.6778 22.1549 12.5285C22.1938 12.4864 22.2392 12.4474 22.2814 12.4085C22.3431 12.3501 22.1711 12.5058 22.1711 12.4961C22.1711 12.4896 22.249 12.4442 22.262 12.4377C22.3171 12.4052 22.3755 12.3761 22.4339 12.3533C22.356 12.3858 22.2782 12.4182 22.2003 12.4507C22.3074 12.4085 22.4144 12.3793 22.528 12.3631C22.4404 12.3761 22.356 12.3858 22.2684 12.3988C22.382 12.3858 22.4955 12.3858 22.6091 12.3955C22.5215 12.3825 22.4371 12.3728 22.3495 12.3598C22.4663 12.3761 22.5766 12.4052 22.6869 12.4474C22.6091 12.415 22.5312 12.3825 22.4534 12.3501C22.8037 12.4993 23.1346 12.7297 23.4656 12.9178C23.8905 13.1611 24.3155 13.4077 24.7405 13.651C25.0455 13.8262 25.3602 13.9462 25.7105 13.9949C26.2264 14.063 26.7325 13.9495 27.1867 13.6932C27.5727 13.4726 27.9555 13.252 28.3384 13.0314C28.7341 12.8043 29.1267 12.5318 29.5452 12.3501C29.4673 12.3825 29.3895 12.415 29.3116 12.4474C29.4219 12.4052 29.5322 12.3761 29.649 12.3598C29.5614 12.3728 29.4771 12.3825 29.3895 12.3955C29.503 12.3825 29.6166 12.3825 29.7301 12.3988C29.6425 12.3858 29.5582 12.3761 29.4706 12.3631C29.5841 12.3793 29.6912 12.4085 29.7982 12.4507C29.7204 12.4182 29.6425 12.3858 29.5647 12.3533C29.5906 12.3631 29.8307 12.4669 29.8274 12.4961C29.8242 12.5058 29.6523 12.3501 29.7171 12.4085C29.7398 12.428 29.7626 12.4474 29.782 12.4669C29.8177 12.5026 29.9475 12.6583 29.8372 12.5156C29.7301 12.3761 29.8404 12.5285 29.8664 12.5739C29.8761 12.5902 29.8858 12.6064 29.8923 12.6226C29.9929 12.7946 30.0902 12.9665 30.1875 13.1352C30.4665 13.6186 30.7455 14.102 31.0246 14.5854C31.1478 14.7995 31.2711 14.9974 31.4366 15.1888C31.8551 15.6754 32.5072 15.9382 33.143 15.9479C33.5518 15.9544 33.9638 15.9479 34.3726 15.9479C34.6905 15.9479 35.0117 15.9479 35.3296 15.9479C35.5113 15.9479 35.6962 15.9382 35.8746 15.9609C35.787 15.9479 35.7027 15.9382 35.6151 15.9252C35.7287 15.9414 35.839 15.9706 35.946 16.0128C35.8682 15.9804 35.7903 15.9479 35.7124 15.9155C35.7903 15.9479 35.8617 15.9901 35.9363 16.0323C36.0628 16.1069 35.7806 15.8895 35.8552 15.9674C35.8844 15.9966 35.9168 16.0225 35.946 16.0517C35.972 16.0777 35.9914 16.1036 36.0174 16.1296C36.1277 16.2464 35.8876 15.9252 35.9655 16.0647C36.0077 16.1393 36.0498 16.2075 36.0823 16.2886C36.0498 16.2107 36.0174 16.1328 35.9849 16.055C36.0271 16.162 36.0563 16.2723 36.0725 16.3859C36.0596 16.2983 36.0498 16.2139 36.0369 16.1264C36.0855 16.5384 36.0498 16.9731 36.0498 17.3884C36.0498 17.8685 36.0466 18.3454 36.0498 18.8255C36.0531 19.7209 36.5332 20.4671 37.2988 20.9083C37.7563 21.1711 38.2137 21.4339 38.6711 21.6999C38.895 21.8297 39.1188 21.9562 39.3395 22.086C39.3881 22.1152 39.44 22.1411 39.4887 22.1736C39.6574 22.2806 39.32 22.0211 39.4692 22.1573C39.5114 22.1963 39.5503 22.2417 39.5893 22.2839C39.6477 22.3455 39.4919 22.1736 39.5017 22.1736C39.5082 22.1736 39.5536 22.2514 39.5601 22.2644C39.5925 22.3195 39.6217 22.3779 39.6444 22.4363C39.612 22.3585 39.5795 22.2806 39.5471 22.2028C39.5893 22.3098 39.6185 22.4169 39.6347 22.5304C39.6217 22.4428 39.612 22.3585 39.599 22.2709C39.612 22.3844 39.612 22.498 39.6022 22.6115C39.6152 22.5239 39.6249 22.4396 39.6379 22.352C39.6217 22.4688 39.5925 22.5791 39.5503 22.6894C39.5828 22.6115 39.6152 22.5337 39.6477 22.4558C39.4757 22.8613 39.2097 23.2409 38.9923 23.6205C38.7587 24.026 38.5187 24.4315 38.2916 24.8403C37.886 25.5702 37.886 26.4235 38.2883 27.1567Z" stroke="#3FB252" stroke-width="0.814453"/>
<path d="M20.1777 31.8152L31.805 20.188" stroke="#3FB252" stroke-width="0.814453" stroke-linecap="round" stroke-linejoin="round"/>
<circle cx="21.8392" cy="21.849" r="2.08432" stroke="#3FB252" stroke-width="0.814453"/>
<circle cx="30.1439" cy="30.1541" r="2.08432" stroke="#3FB252" stroke-width="0.814453"/>
</g>
</svg>
