<svg width="55" height="51" viewBox="0 0 55 51" fill="none" xmlns="http://www.w3.org/2000/svg">
<path d="M34.563 48.8211L34.563 43.1521C34.6861 43.1297 34.8406 43.1136 35.019 43.1136L52.7627 43.1136C52.9411 43.1136 53.0957 43.1297 53.2187 43.1521L53.2187 48.8211C53.0957 48.8435 52.9411 48.8596 52.7627 48.8596L35.019 48.8596C34.8406 48.8596 34.6861 48.8435 34.563 48.8211Z" stroke="#F37E20" stroke-width="2" stroke-miterlimit="10" stroke-linecap="round" stroke-linejoin="round"/>
<path d="M32.4239 28.0241L20.5758 17.9907C20.4828 17.912 20.4452 17.8242 20.4363 17.7687C20.4335 17.7514 20.4335 17.7403 20.4341 17.734L29.0182 7.59726C29.0243 7.59561 29.0353 7.59376 29.0528 7.59366C29.109 7.59332 29.2017 7.61591 29.2948 7.6947L41.1429 17.728C41.236 17.8068 41.2735 17.8946 41.2824 17.95C41.2852 17.9673 41.2852 17.9785 41.2846 17.9848L32.7005 28.1215C32.6944 28.1232 32.6834 28.125 32.6659 28.1251C32.6097 28.1255 32.517 28.1029 32.4239 28.0241ZM20.4356 17.7272C20.4357 17.7273 20.4355 17.7284 20.4346 17.7305C20.435 17.7281 20.4354 17.7271 20.4356 17.7272ZM29.0117 7.59979C29.0116 7.59968 29.0126 7.59907 29.0149 7.59827C29.013 7.5995 29.0118 7.5999 29.0117 7.59979ZM41.2832 17.9916C41.283 17.9915 41.2833 17.9903 41.2842 17.9883C41.2837 17.9906 41.2833 17.9917 41.2832 17.9916ZM32.707 28.119C32.7071 28.1191 32.7062 28.1197 32.7039 28.1205C32.7058 28.1193 32.7069 28.1189 32.707 28.119Z" stroke="#F37E20" stroke-width="2" stroke-miterlimit="10" stroke-linecap="round" stroke-linejoin="round"/>
<path d="M19.1116 20.1353L14.7854 16.4717C14.8478 16.3633 14.9355 16.235 15.0508 16.0988L26.5175 2.5581C26.6328 2.42193 26.7449 2.31435 26.8415 2.23492L31.1677 5.89846C31.1053 6.0069 31.0177 6.13518 30.9024 6.27135L19.4357 19.8121C19.3204 19.9483 19.2083 20.0558 19.1116 20.1353Z" stroke="#F37E20" stroke-width="2" stroke-miterlimit="10" stroke-linecap="round" stroke-linejoin="round"/>
<path d="M34.8733 33.4835L30.5471 29.82C30.6095 29.7116 30.6972 29.5833 30.8125 29.4471L42.2792 15.9064C42.3945 15.7702 42.5066 15.6626 42.6033 15.5832L46.9295 19.2467C46.867 19.3552 46.7794 19.4834 46.6641 19.6196L35.1974 33.1604C35.0821 33.2965 34.97 33.4041 34.8733 33.4835Z" stroke="#F37E20" stroke-width="2" stroke-miterlimit="10" stroke-linecap="round" stroke-linejoin="round"/>
<path d="M13.6187 42.5505L9.34619 38.9324C9.44941 38.7444 9.60824 38.509 9.81997 38.259L24.1533 21.3331C24.3651 21.083 24.5711 20.8876 24.7395 20.7548L29.012 24.3729C28.9088 24.5609 28.7499 24.7963 28.5382 25.0463L14.2049 41.9722C13.9931 42.2223 13.7871 42.4177 13.6187 42.5505Z" stroke="#F37E20" stroke-width="2" stroke-miterlimit="10" stroke-linecap="round" stroke-linejoin="round"/>
</svg>
