<svg width="43" height="43" viewBox="0 0 43 43" fill="none" xmlns="http://www.w3.org/2000/svg">
<path d="M33.7486 27.2908C35.4744 27.2908 37.1452 27.8977 38.4686 29.0054C39.7921 30.113 40.6838 31.6508 40.9877 33.3497C41.2917 35.0485 40.9885 36.8001 40.1312 38.2979C39.274 39.7957 37.9172 40.9443 36.2985 41.5427C34.6798 42.1411 32.9022 42.1511 31.2768 41.5711C29.6514 40.991 28.2818 39.8578 27.4077 38.3697C26.5335 36.8817 26.2106 35.1336 26.4953 33.4315C26.7801 31.7294 27.6543 30.1816 28.9652 29.059" stroke="#F37E20" stroke-width="2" stroke-linecap="round" stroke-linejoin="round"/>
<path d="M34.5846 25.2472L32.4961 26.8136L34.0625 28.9021" stroke="#F37E20" stroke-width="2" stroke-linecap="round" stroke-linejoin="round"/>
<path fill-rule="evenodd" clip-rule="evenodd" d="M1.67188 0.185547C0.843446 0.185547 0.171875 0.857123 0.171875 1.68555V39.7122C0.171875 40.5406 0.843447 41.2122 1.67187 41.2122H24.1177C23.6646 40.5886 23.2666 39.9193 22.9312 39.2122H2.17188V2.18555H30.8357V21.612C31.4833 21.4472 32.1516 21.3369 32.8357 21.2863V1.68555C32.8357 0.85712 32.1641 0.185547 31.3357 0.185547H1.67188Z" fill="#F37E20"/>
<path d="M9.70312 25.87H24.4705" stroke="#F37E20" stroke-width="2" stroke-linecap="round" stroke-linejoin="round"/>
<path d="M9.70312 31.4075H20.7787" stroke="#F37E20" stroke-width="2" stroke-linecap="round" stroke-linejoin="round"/>
<path d="M19.5692 6.76242L12.8789 17.9129" stroke="#F37E20" stroke-width="2" stroke-linecap="round" stroke-linejoin="round"/>
<circle cx="20.6871" cy="15.6835" r="2.23009" stroke="#F37E20" stroke-width="2" stroke-linecap="round" stroke-linejoin="round"/>
<circle cx="11.7653" cy="8.99212" r="2.23009" stroke="#F37E20" stroke-width="2" stroke-linecap="round" stroke-linejoin="round"/>
</svg>
