<svg width="45" height="49" viewBox="0 0 45 49" fill="none" xmlns="http://www.w3.org/2000/svg">
<path d="M11.4741 44.2684L11.7149 45.2315C11.8955 45.8936 11.5343 46.4957 10.8721 46.6763L5.57487 48.0006L1 29.3398L6.23704 28.0157C6.89918 27.835 7.50114 28.1961 7.68172 28.8582L7.92251 29.8215M11.4741 44.2684L7.92251 29.8215M11.4741 44.2684L11.5343 44.2083L13.4605 42.2819H25.8608C28.0881 42.2819 30.2552 41.379 31.8203 39.8139L42.8361 28.8582C43.6789 28.0157 44.1003 26.8717 43.9798 25.728C43.7991 23.5008 41.873 21.8756 39.6458 22.0562C38.6827 22.1163 37.7798 22.5377 37.1176 23.1999L31.0376 29.2796M7.92251 29.8215L7.98272 29.7611C9.90898 27.8952 12.4372 26.8116 15.146 26.8116H27.3658C28.991 26.8116 30.4358 27.7747 31.0376 29.2796M31.0376 29.2796L27.3658 33.1925H23.0257M5.1535 40.5965C6.05645 40.3558 6.95938 40.8974 7.20017 41.8004C7.44096 42.7033 6.89918 43.6062 5.99625 43.847C5.87587 43.9074 5.75546 43.9074 5.57487 43.9074" stroke="#F37E20" stroke-width="2" stroke-miterlimit="10" stroke-linecap="round" stroke-linejoin="round"/>
<path d="M24.7901 7.68415C25.8276 5.98738 27.2363 3.29547 27.6425 2.69964C27.8437 2.37772 27.884 2.33748 27.723 2.13626C27.562 1.89481 27.1997 1.97528 26.7975 2.09603C26.0328 2.33747 25.1073 2.09603 24.0611 1.77409C21.9684 1.13021 18.9502 0.204656 17.743 2.57892C17.6222 2.82036 17.7027 2.61917 17.9442 2.90086C18.3605 3.39509 19.6174 5.82314 20.6065 7.47833" stroke="#F37E20" stroke-width="2" stroke-miterlimit="10"/>
<path d="M33.9363 26.502C35.1486 19.2281 31.1038 12.2361 24.987 8.13147C22.9748 6.80348 20.9628 7.36687 19.7154 8.13147C13.4376 11.8337 10.9023 18.1116 10.9023 21.6527C10.9023 22.9472 11.1448 24.8047 12.1147 27.7143" stroke="#F37E20" stroke-width="2" stroke-miterlimit="10"/>
<path d="M21.0295 13.1681C22.5516 13.1681 23.7943 14.4107 23.7943 15.9329C23.7943 17.4551 22.5516 18.6977 21.0295 18.6977H20.0664L23.8253 23.078" stroke="#F37E20" stroke-width="2" stroke-miterlimit="10" stroke-linecap="round" stroke-linejoin="round"/>
<path d="M19.6914 13.2295H25.5316" stroke="#F37E20" stroke-width="2" stroke-miterlimit="10" stroke-linecap="round" stroke-linejoin="round"/>
<path d="M19.6914 15.7141H25.5316" stroke="#F37E20" stroke-width="2" stroke-miterlimit="10" stroke-linecap="round" stroke-linejoin="round"/>
</svg>
