<svg width="15" height="28" viewBox="0 0 15 28" fill="none" xmlns="http://www.w3.org/2000/svg">
<rect x="0.5" y="6.79297" width="14" height="17.5294" rx="4.5" stroke="#E14C3B"/>
<path d="M7.79134 11.5985L7.51451 11.1995L7.51356 11.1981L7.50631 11.1877C7.50578 11.188 7.50527 11.1885 7.5048 11.1889L7.50624 11.2009L7.50644 11.2026L7.50696 11.207C7.50694 11.207 7.50692 11.207 7.50689 11.207L8.89383 14.0054C8.09973 13.3675 7.41368 12.814 7.41368 12.1521C7.44822 11.9196 7.58737 11.7154 7.79134 11.5985ZM7.79134 11.5985L7.55389 11.1843L7.55314 11.183L7.54265 11.1647C7.52981 11.1721 7.51714 11.1796 7.50462 11.1874L7.44761 10.7105C7.67259 10.6837 7.88687 10.8132 7.96765 11.0248C8.04823 11.2339 7.97533 11.4708 7.79134 11.5985ZM4.03127 18.187C4.06698 17.4197 4.38595 16.6947 4.92367 16.1508C4.8656 16.3621 4.86824 16.5872 4.93369 16.7994L4.95777 16.8774L5.00545 16.9438C5.11842 17.101 5.28352 17.1617 5.37237 17.1872C5.4824 17.2187 5.6053 17.232 5.73542 17.232C5.73682 17.232 5.7391 17.2321 5.7422 17.2322C5.79342 17.2339 6.06734 17.2432 6.27429 17.034C6.47523 16.8308 6.49998 16.5457 6.49998 16.3349V16.2849L6.49009 16.2359C6.42443 15.9106 6.28935 15.6034 6.09401 15.3351C5.81402 14.9352 5.64924 14.4659 5.61767 13.9787C5.62072 13.4614 5.78364 12.7845 6.11678 12.2245C6.44294 11.6761 6.89462 11.2957 7.46586 11.2125C7.17094 11.4107 6.97166 11.7249 6.91911 12.0787L6.91368 12.1152V12.1521C6.91368 12.6651 7.18089 13.0851 7.48434 13.4223C7.78414 13.7553 8.18345 14.0761 8.56721 14.3843L8.58051 14.395C8.58053 14.395 8.58054 14.395 8.58056 14.395C8.58061 14.3951 8.58066 14.3951 8.58071 14.3952C9.74891 15.3345 10.9724 16.3456 10.9724 18.1762C10.9724 19.013 10.6614 19.6422 10.1107 20.0749C9.54474 20.5195 8.67445 20.7953 7.50194 20.7953C6.32943 20.7953 5.45908 20.5195 4.89304 20.0748C4.34471 19.6441 4.03393 19.0184 4.03127 18.187Z" stroke="#E14C3B"/>
<path d="M2.64844 23.9412V25.5882C2.64844 26.1405 3.09615 26.5882 3.64844 26.5882H11.3543C11.9066 26.5882 12.3543 26.1405 12.3543 25.5882V23.9412" stroke="#E14C3B"/>
<path d="M3.53125 7.17627V1.9998C3.53125 1.44751 3.97897 0.999799 4.53125 0.999799H10.4724C11.0247 0.999799 11.4724 1.44751 11.4724 1.9998V7.17627" stroke="#E14C3B"/>
<rect x="5.73415" y="3.20589" width="3.52941" height="0.882353" stroke="#E14C3B" stroke-width="0.882353"/>
</svg>
