<svg width="56" height="56" viewBox="0 0 56 56" fill="none" xmlns="http://www.w3.org/2000/svg">
<circle cx="28" cy="28" r="28" fill="#FFE5D9"/>
<path d="M27.2133 24.9226C29.6934 24.9226 31.7039 22.9121 31.7039 20.432C31.7039 17.9519 29.6934 15.9414 27.2133 15.9414C24.7332 15.9414 22.7227 17.9519 22.7227 20.432C22.7227 22.9121 24.7332 24.9226 27.2133 24.9226Z" fill="#F37E20"/>
<path d="M36.2979 24.9239C37.8657 24.9239 39.1368 23.6529 39.1368 22.085C39.1368 20.5171 37.8657 19.2461 36.2979 19.2461C34.73 19.2461 33.459 20.5171 33.459 22.085C33.459 23.6529 34.73 24.9239 36.2979 24.9239Z" fill="#F37E20"/>
<path d="M18.1299 24.9239C19.6978 24.9239 20.9688 23.6529 20.9688 22.085C20.9688 20.5171 19.6978 19.2461 18.1299 19.2461C16.562 19.2461 15.291 20.5171 15.291 22.085C15.291 23.6529 16.562 24.9239 18.1299 24.9239Z" fill="#F37E20"/>
<path d="M20.9264 27.4716C19.8089 26.556 18.7968 26.6772 17.5047 26.6772C15.5722 26.6772 14 28.2401 14 30.1608V35.7978C14 36.6319 14.6808 37.3101 15.518 37.3101C19.1325 37.3101 18.6971 37.3755 18.6971 37.1542C18.6971 33.1599 18.224 30.2306 20.9264 27.4716Z" fill="#F37E20"/>
<path d="M28.4424 26.6976C26.1855 26.5094 24.2238 26.6998 22.5318 28.0964C19.7003 30.3644 20.2452 33.4182 20.2452 37.154C20.2452 38.1424 21.0494 38.9616 22.0528 38.9616C32.9481 38.9616 33.3817 39.3131 34.0278 37.8823C34.2396 37.3985 34.1816 37.5522 34.1816 32.9236C34.1816 29.2472 30.9983 26.6976 28.4424 26.6976Z" fill="#F37E20"/>
<path d="M36.9226 26.6771C35.6234 26.6771 34.617 26.5571 33.501 27.4714C36.1832 30.21 35.7303 32.9394 35.7303 37.1541C35.7303 37.3768 35.3688 37.31 38.8551 37.31C39.7223 37.31 40.4273 36.6075 40.4273 35.7439V30.1606C40.4273 28.24 38.8551 26.6771 36.9226 26.6771Z" fill="#F37E20"/>
</svg>
