<svg width="38" height="38" viewBox="0 0 38 38" fill="none" xmlns="http://www.w3.org/2000/svg">
<circle cx="19" cy="19" r="19" fill="#F4D6D4"/>
<path d="M28.5045 14.9372C28.2545 14.3586 27.8832 13.8337 27.4131 13.3942C26.947 12.951 26.3927 12.5996 25.7821 12.3603C25.1715 12.121 24.5167 11.9985 23.8558 12C23.1956 11.9986 22.5417 12.1212 21.9319 12.3605C21.3222 12.5998 20.7687 12.9512 20.3036 13.3942L19.4431 14.2029L18.5879 13.3942C18.1228 12.9512 17.5693 12.5998 16.9596 12.3605C16.3499 12.1212 15.696 11.9986 15.0358 12C14.0403 11.9993 13.067 12.2777 12.239 12.8002C11.4109 13.3227 10.7653 14.0656 10.384 14.9351C10.0026 15.8046 9.90248 16.7616 10.0964 17.6849C10.9319 21.6636 16.0028 25.1158 19.0706 27.3064C19.1194 27.3529 19.1774 27.3898 19.2414 27.415C19.3053 27.4402 19.3739 27.4531 19.4431 27.4531C19.5124 27.4531 19.581 27.4402 19.6449 27.415C19.7089 27.3898 19.7669 27.3529 19.8157 27.3064C22.837 25.0726 27.9539 21.66 28.7903 17.6862C28.9846 16.7633 28.8851 15.8067 28.5045 14.9372Z" stroke="#97291E" stroke-width="1.5" stroke-miterlimit="10" stroke-linecap="round" stroke-linejoin="round"/>
</svg>
