<svg width="38" height="38" viewBox="0 0 38 38" fill="none" xmlns="http://www.w3.org/2000/svg">
<circle cx="19" cy="19" r="19" fill="#FFEDC8"/>
<path d="M27.9626 9.34077C27.9611 9.3379 27.9611 9.33504 27.9597 9.33253C27.9055 9.20045 27.8004 9.09486 27.6688 9.04045C27.666 9.03937 27.6631 9.03902 27.6606 9.03794C27.6 9.01432 27.5344 9 27.4656 9H21.7135C21.4183 9 21.1787 9.24054 21.1787 9.53692C21.1787 9.8333 21.4183 10.0738 21.7135 10.0738H26.1747L21.2137 15.0558C19.9424 14.1215 18.3806 13.5624 16.6879 13.5624C12.4484 13.5624 9 17.0252 9 21.2812C9 25.5372 12.4488 29 16.6879 29C20.927 29 24.3755 25.5372 24.3755 21.2812C24.3755 19.1117 23.476 17.1519 22.0358 15.748L26.9305 10.8331V15.3131C26.9305 15.6095 27.1701 15.8501 27.4652 15.8501C27.7604 15.8501 28 15.6095 28 15.3131V9.53656C28.0004 9.46712 27.9864 9.40162 27.9626 9.34077ZM23.306 21.2808C23.306 24.9448 20.337 27.9258 16.6879 27.9258C13.0384 27.9258 10.0695 24.9448 10.0695 21.2808C10.0695 17.6169 13.0384 14.6359 16.6879 14.6359C20.337 14.6359 23.306 17.6169 23.306 21.2808Z" fill="#F37E20" stroke="#F37E20" stroke-width="0.5"/>
</svg>
