<svg width="24" height="24" viewBox="0 0 24 24" fill="none" xmlns="http://www.w3.org/2000/svg">
<mask id="mask0" mask-type="alpha" maskUnits="userSpaceOnUse" x="0" y="0" width="24" height="24">
<rect width="24" height="24" fill="#C4C4C4"/>
</mask>
<g mask="url(#mask0)">
<path d="M4.19995 14.7739V9.34431C4.19995 7.18429 5.02173 5.11274 6.48452 3.58538C7.9473 2.05802 9.93126 1.19995 12 1.19995C14.0686 1.19995 16.0526 2.05802 17.5154 3.58538C18.9782 5.11274 19.8 7.18429 19.8 9.34431V12.6144" stroke="#5E43F6" stroke-width="1.2"/>
<path d="M19.8 13.6281C19.8 14.0956 19.6173 14.544 19.2923 14.8746C18.9672 15.2052 18.5263 15.3909 18.0666 15.3909H17.2C16.7402 15.3909 16.2994 15.2052 15.9743 14.8746C15.6492 14.544 15.4666 14.0956 15.4666 13.6281V10.9838C15.4666 10.5163 15.6492 10.0679 15.9743 9.73727C16.2994 9.40668 16.7402 9.22095 17.2 9.22095H19.8V13.6281ZM4.19995 13.6281C4.19995 14.0956 4.38257 14.544 4.70763 14.8746C5.0327 15.2052 5.47358 15.3909 5.93328 15.3909H6.79995C7.25966 15.3909 7.70054 15.2052 8.0256 14.8746C8.35067 14.544 8.53328 14.0956 8.53328 13.6281V10.9838C8.53328 10.5163 8.35067 10.0679 8.0256 9.73727C7.70054 9.40668 7.25966 9.22095 6.79995 9.22095H4.19995V13.6281Z" stroke="#5E43F6" stroke-width="1.2"/>
<path d="M4.19995 12.3059V16.6249C4.29995 17.9617 5.09995 20.3269 8.09995 20.6354" stroke="#5E43F6" stroke-width="1.2"/>
<rect width="5.25946" height="1.8481" rx="0.924052" transform="matrix(0.969312 0.245835 -0.233223 0.972423 8.2312 19.71)" stroke="#5E43F6" stroke-width="1.2"/>
</g>
</svg>
