<svg width="52" height="52" viewBox="0 0 52 52" fill="none" xmlns="http://www.w3.org/2000/svg">
<circle cx="26" cy="26" r="26" fill="#E9E4F9"/>
<mask id="mask0" mask-type="alpha" maskUnits="userSpaceOnUse" x="6" y="6" width="40" height="40">
<rect x="6" y="6" width="40" height="40" fill="#C4C4C4"/>
</mask>
<g mask="url(#mask0)">
<path d="M13.5807 21.263H19.6987C20.0204 21.263 20.2814 21.002 20.2814 20.6803C20.2814 20.3587 20.0204 20.0977 19.6987 20.0977H13.5807C13.2591 20.0977 12.998 20.3587 12.998 20.6803C12.998 21.002 13.2588 21.263 13.5807 21.263Z" fill="#5E43F6"/>
<path d="M19.1154 25.2213C19.1154 24.8997 18.8544 24.6387 18.5327 24.6387H12.4147C12.0931 24.6387 11.832 24.8997 11.832 25.2213C11.832 25.543 12.0931 25.804 12.4147 25.804H18.5327C18.8544 25.804 19.1154 25.5433 19.1154 25.2213Z" fill="#5E43F6"/>
<path d="M20.2814 29.9918C20.2814 29.6702 20.0204 29.4092 19.6987 29.4092H13.5807C13.2591 29.4092 12.998 29.6702 12.998 29.9918C12.998 30.3135 13.2591 30.5745 13.5807 30.5745H19.6987C20.0204 30.5745 20.2814 30.3138 20.2814 29.9918Z" fill="#5E43F6"/>
<path d="M31.3718 16.8335C31.0064 16.8335 30.7102 17.1298 30.7102 17.4951V20.8845C30.7102 21.2498 31.0064 21.5461 31.3718 21.5461C31.7371 21.5461 32.0334 21.2498 32.0334 20.8845V18.1856C35.8438 18.5215 38.8425 21.7308 38.8425 25.6271C38.8425 29.7463 35.4913 33.0976 31.3721 33.0976C27.2529 33.0976 23.9014 29.7463 23.9014 25.6271C23.9014 23.2501 25.0492 20.9932 26.9717 19.5892C27.2669 19.3736 27.3313 18.9599 27.116 18.6648C26.9007 18.3697 26.4867 18.305 26.1916 18.5206C23.929 20.1725 22.5781 22.8292 22.5781 25.6271C22.5781 30.4758 26.5228 34.4208 31.3718 34.4208C36.2205 34.4208 40.1654 30.4761 40.1654 25.6271C40.1654 20.7782 36.2208 16.8335 31.3718 16.8335Z" fill="#5E43F6"/>
<path d="M26.9416 23.1428C26.7578 23.4586 26.8644 23.8635 27.1802 24.0474L30.8737 26.1989C30.9783 26.2601 31.0931 26.2889 31.2061 26.2889C31.434 26.2889 31.6557 26.1712 31.7783 25.9603C31.9622 25.6445 31.8555 25.2395 31.5397 25.0557L27.8462 22.9042C27.5307 22.7201 27.1254 22.8267 26.9416 23.1428Z" fill="#5E43F6"/>
</g>
</svg>
