<svg width="28" height="19" viewBox="0 0 28 19" fill="none" xmlns="http://www.w3.org/2000/svg">
<path d="M23.561 9.70778L24.2722 10.419L20.6853 14.0059L18.799 12.1197L19.5102 11.4085L20.6853 12.5835L23.561 9.70778ZM27.3334 9.7387V7.91432C27.3334 7.48142 27.086 7.1722 26.6222 7.14128C26.5295 7.14128 26.4058 7.11035 26.313 7.11035C26.0038 7.07943 25.6946 7.04851 25.4163 6.98667C24.3031 6.7393 23.2518 6.24455 22.0767 5.40966C21.6438 5.10044 21.4274 5.10044 20.9945 5.40966C19.4175 6.49192 17.9951 7.04851 16.5108 7.14128C15.9852 7.1722 15.7378 7.45049 15.7378 7.97616C15.7378 8.34722 15.7378 8.71828 15.7378 9.12026C15.7378 10.1716 15.7378 11.2539 15.7378 12.3052C15.7378 12.6763 15.7996 13.0782 15.8924 13.4802C16.1088 14.4079 16.6036 15.2737 17.4076 16.0776C18.397 17.0981 19.6648 17.8711 21.2728 18.4895C21.3655 18.5205 21.4583 18.5514 21.5511 18.5514C21.6747 18.5514 21.7984 18.5205 21.8912 18.4895C21.984 18.4586 22.0767 18.3968 22.1695 18.3658C22.5715 18.2112 22.9735 18.0257 23.3445 17.8093C24.6432 17.129 25.6018 16.325 26.313 15.3664C26.9314 14.5006 27.2716 13.6348 27.3025 12.7381C27.3025 12.5526 27.3025 12.367 27.3334 12.1506V10.8519V10.3262V9.7387ZM26.313 12.0269V12.0887C26.313 12.3052 26.313 12.4598 26.313 12.6453C26.2821 13.3565 26.0038 14.0368 25.509 14.748C24.8906 15.5829 24.0248 16.2941 22.8807 16.9125C22.5406 17.0981 22.1695 17.2527 21.7675 17.4073C21.7057 17.4382 21.6129 17.4691 21.5511 17.5C20.1287 16.9434 19.0155 16.2632 18.1188 15.3664C17.4694 14.6862 17.0365 14.0059 16.8819 13.2638C16.82 12.9236 16.7582 12.6144 16.7582 12.3052C16.7582 11.2539 16.7582 10.1716 16.7582 9.12026C16.7582 8.78012 16.7582 8.47091 16.7582 8.13077C18.3661 8.00708 19.8813 7.38865 21.5511 6.24455C22.8188 7.11035 24.0248 7.66694 25.2307 7.94524C25.5709 8.00708 25.8801 8.06892 26.2202 8.09985C26.2512 8.09985 26.313 8.09985 26.3439 8.09985V9.61501L26.313 12.0269ZM17.8714 17.9948C17.8714 18.2731 17.6549 18.4895 17.3766 18.4895H1.17367C0.988143 18.4895 0.833537 18.3968 0.740772 18.2422C0.648007 18.0876 0.648005 17.902 0.709848 17.7474L2.93621 13.2947V1.328C2.93621 1.04971 3.15266 0.833252 3.43096 0.833252H21.5201C21.7984 0.833252 22.0149 1.04971 22.0149 1.328V3.24514V3.55436V3.6162C22.0149 3.8945 21.7984 4.11095 21.5201 4.11095C21.2418 4.11095 21.0254 3.8945 21.0254 3.6162V3.55436V3.24514V1.82275H3.9257V12.8927H14.3154C14.5937 12.8927 14.8101 13.1092 14.8101 13.3875C14.8101 13.6658 14.5937 13.8822 14.3154 13.8822H3.74017L1.97764 17.4382H10.141L10.4811 16.7579C10.5739 16.5724 10.7285 16.4796 10.9449 16.4796H14.0371C14.2226 16.4796 14.4082 16.6033 14.5009 16.7579L14.8411 17.4382H17.4076C17.6549 17.5 17.8714 17.7165 17.8714 17.9948Z" fill="#A731D0"/>
</svg>
