<svg width="26" height="21" viewBox="0 0 26 21" fill="none" xmlns="http://www.w3.org/2000/svg">
<path d="M25.2349 11.4349C25.1761 11.2864 25.0749 11.1594 24.9445 11.07C24.8141 10.9807 24.6603 10.9332 24.5031 10.9336H24.0955C23.4054 10.9341 22.727 11.1142 22.1244 11.4566L19.1478 13.1507H18.2988C18.1999 12.6006 17.9148 12.1032 17.493 11.745C17.0711 11.3867 16.5393 11.1902 15.9899 11.1896H10.6286C10.5675 11.1896 10.5072 11.2032 10.4518 11.2294C10.3964 11.2555 10.3473 11.2937 10.3078 11.3411L8.68343 13.3008C8.64446 13.2539 8.59595 13.2163 8.54127 13.1903C8.48659 13.1644 8.42703 13.1509 8.36671 13.1507H0.419582C0.308302 13.1507 0.20158 13.1957 0.122893 13.2758C0.0442058 13.3559 0 13.4645 0 13.5778C0 13.6911 0.0442058 13.7997 0.122893 13.8798C0.20158 13.9599 0.308302 14.0049 0.419582 14.0049H5.54568V20.1257H0.419582C0.308302 20.1257 0.20158 20.1707 0.122893 20.2508C0.0442058 20.3309 0 20.4395 0 20.5528C0 20.666 0.0442058 20.7747 0.122893 20.8548C0.20158 20.9349 0.308302 20.9799 0.419582 20.9799H8.36671C8.47799 20.9799 8.58471 20.9349 8.6634 20.8548C8.74208 20.7747 8.78629 20.666 8.78629 20.5528V18.5048L17.3429 18.105C17.3513 18.105 17.3594 18.105 17.3669 18.1031C18.7125 17.957 19.9711 17.3554 20.941 16.3948L25.0546 12.3122C25.1671 12.2009 25.2444 12.0579 25.2766 11.9016C25.3087 11.7453 25.2942 11.5827 25.2349 11.4349ZM7.94808 20.1257H6.38484V14.0049H7.94808V20.1257ZM20.356 15.7844C19.5242 16.608 18.4457 17.1247 17.2921 17.2523L8.78725 17.6499V14.5017L10.8252 12.044H15.9899C16.3337 12.0447 16.667 12.1649 16.9347 12.3845C17.2023 12.6042 17.3884 12.9102 17.462 13.252L13.2104 14.3143C13.1109 14.3393 13.0239 14.4004 12.9657 14.4862C12.9075 14.572 12.8821 14.6765 12.8943 14.78C12.9066 14.8835 12.9556 14.9788 13.0321 15.0481C13.1087 15.1174 13.2074 15.1558 13.3099 15.156C13.3437 15.1561 13.3775 15.1519 13.4103 15.1436L17.9672 14.0049H19.2571C19.3288 14.0049 19.3993 13.9863 19.4619 13.9507L22.5342 12.2021C23.0114 11.9305 23.549 11.7877 24.0958 11.7873H24.3835L20.356 15.7844Z" fill="#3791B8"/>
<path d="M24.4557 2.14887L24.4566 2.15108C24.6649 2.63567 24.719 3.16772 24.613 3.68079C24.3722 4.846 23.4964 5.98514 22.3645 7.05135C21.437 7.92504 20.3928 8.7009 19.4923 9.36995C19.3217 9.49669 19.1563 9.6196 18.9978 9.73862C18.9256 9.68621 18.8521 9.63289 18.7773 9.57869C17.8121 8.87889 16.6422 8.03069 15.6225 7.064C14.4959 5.99584 13.6256 4.84882 13.3847 3.68016C13.2788 3.16686 13.3333 2.63464 13.542 2.14999C13.7508 1.66511 14.1056 1.24773 14.5644 0.952857C15.0235 0.657865 15.5649 0.49958 16.1202 0.500011L16.1216 0.500008C16.4891 0.49923 16.8528 0.568727 17.1912 0.704042C17.5297 0.839347 17.8357 1.03752 18.092 1.28618L18.0933 1.28745L18.6518 1.82535L18.9976 2.15839L19.3444 1.82641L19.9063 1.2885L19.9063 1.28851L19.9088 1.28618C20.1651 1.03752 20.4711 0.839346 20.8095 0.704042C21.148 0.568727 21.5116 0.49923 21.8792 0.500013L21.8814 0.500008C22.2495 0.499168 22.6137 0.568652 22.9528 0.704011C23.2919 0.83936 23.5985 1.03764 23.8554 1.28648L23.8554 1.28649L23.8585 1.28943C24.1167 1.53527 24.3195 1.8278 24.4557 2.14887Z" stroke="#3791B8"/>
</svg>
