<svg width="20" height="22" viewBox="0 0 20 22" fill="none" xmlns="http://www.w3.org/2000/svg">
<path d="M5.38449 19.8069L5.48529 20.1885C5.56088 20.4508 5.40968 20.6894 5.13251 20.761L2.91506 21.2857L1 13.8915L3.19225 13.3668C3.46942 13.2953 3.7214 13.4383 3.797 13.7007L3.89779 14.0824M5.38449 19.8069L3.89779 14.0824M5.38449 19.8069L5.40968 19.783L6.21604 19.0197H11.4068C12.3392 19.0197 13.2463 18.6619 13.9015 18.0418L18.5128 13.7007C18.8656 13.3668 19.042 12.9136 18.9915 12.4604C18.9159 11.5778 18.1096 10.9339 17.1773 11.0054C16.7741 11.0293 16.3962 11.1962 16.119 11.4586L13.5739 13.8677M3.89779 14.0824L3.923 14.0585C4.72934 13.3191 5.78766 12.8897 6.92158 12.8897H12.0368C12.7172 12.8897 13.322 13.2713 13.5739 13.8677M13.5739 13.8677L12.0368 15.4181H10.2201" stroke="#FFFFFF" stroke-miterlimit="10" stroke-linecap="round" stroke-linejoin="round"/>
<circle cx="10.0011" cy="3.28578" r="2.07143" stroke="#FFFFFF"/>
<circle cx="4.85658" cy="7.14284" r="2.07143" stroke="#FFFFFF"/>
<circle cx="12.5714" cy="8.42861" r="2.07143" stroke="#FFFFFF"/>
</svg>
