<svg width="30" height="19" viewBox="0 0 30 19" fill="none" xmlns="http://www.w3.org/2000/svg">
<path d="M2.58023 5.263H8.69826C9.01989 5.263 9.28093 5.00196 9.28093 4.68033C9.28093 4.35869 9.01989 4.09766 8.69826 4.09766H2.58023C2.25859 4.09766 1.99756 4.35869 1.99756 4.68033C1.99756 5.00196 2.2583 5.263 2.58023 5.263Z" fill="#5E43F6"/>
<path d="M8.11491 9.22134C8.11491 8.89971 7.85388 8.63867 7.53224 8.63867H1.41421C1.09258 8.63867 0.831543 8.89971 0.831543 9.22134C0.831543 9.54298 1.09258 9.80401 1.41421 9.80401H7.53224C7.85388 9.80401 8.11491 9.54327 8.11491 9.22134Z" fill="#5E43F6"/>
<path d="M9.28093 13.9918C9.28093 13.6702 9.01989 13.4092 8.69826 13.4092H2.58023C2.25859 13.4092 1.99756 13.6702 1.99756 13.9918C1.99756 14.3135 2.25859 14.5745 2.58023 14.5745H8.69826C9.01989 14.5745 9.28093 14.3138 9.28093 13.9918Z" fill="#5E43F6"/>
<path d="M20.3713 0.833008C20.006 0.833008 19.7097 1.1293 19.7097 1.49463V4.88402C19.7097 5.24935 20.006 5.54564 20.3713 5.54564C20.7366 5.54564 21.0329 5.24935 21.0329 4.88402V2.18509C24.8433 2.521 27.842 5.73035 27.842 9.62666C27.842 13.7458 24.4908 17.0971 20.3716 17.0971C16.2524 17.0971 12.9009 13.7458 12.9009 9.62666C12.9009 7.24966 14.0487 4.99269 15.9713 3.58874C16.2664 3.37316 16.3308 2.95946 16.1155 2.66434C15.9002 2.36922 15.4862 2.30454 15.1911 2.52013C12.9286 4.172 11.5776 6.82868 11.5776 9.62666C11.5776 14.4753 15.5223 18.4203 20.3713 18.4203C25.22 18.4203 29.1649 14.4756 29.1649 9.62666C29.1649 4.77768 25.2203 0.833008 20.3713 0.833008Z" fill="#5E43F6"/>
<path d="M15.9421 7.14279C15.7582 7.45859 15.8649 7.86355 16.1807 8.04738L19.8742 10.1989C19.9788 10.2601 20.0936 10.2889 20.2066 10.2889C20.4345 10.2889 20.6562 10.1712 20.7788 9.96029C20.9626 9.64448 20.856 9.23952 20.5402 9.05569L16.8467 6.90418C16.5312 6.72006 16.1259 6.82669 15.9421 7.14279Z" fill="#5E43F6"/>
</svg>
