<svg width="15" height="26" viewBox="0 0 15 26" fill="none" xmlns="http://www.w3.org/2000/svg">
<path d="M9.76663 2.77295H5.43332C5.19414 2.77295 5 2.96709 5 3.20627C5 3.44544 5.19414 3.63958 5.43332 3.63958H9.76663C10.0058 3.63958 10.1999 3.44544 10.1999 3.20627C10.1999 2.96709 10.0058 2.77295 9.76663 2.77295Z" fill="#FFFFFF"/>
<mask id="path-2-inside-1" fill="#FFFFFF">
<path d="M7.99806 21.0908H6.92211C6.26302 21.0908 5.72656 21.6273 5.72656 22.2864V22.4957C5.72656 23.1548 6.26302 23.6908 6.9217 23.6908H7.99765C8.65674 23.6908 9.1932 23.1548 9.1932 22.4957V22.2864C9.1932 21.6273 8.65674 21.0908 7.99806 21.0908ZM8.32656 22.4957C8.32656 22.6768 8.17925 22.8241 7.99811 22.8241H6.92211C6.74056 22.8241 6.5932 22.6768 6.5932 22.4957V22.2864C6.5932 22.1048 6.74051 21.9575 6.92211 21.9575H7.99765C8.17925 21.9575 8.32656 22.1048 8.32656 22.2864V22.4957Z"/>
</mask>
<path d="M7.99806 20.0908H6.92211V22.0908H7.99806V20.0908ZM6.92211 20.0908C5.71073 20.0908 4.72656 21.075 4.72656 22.2864H6.72656C6.72656 22.1796 6.8153 22.0908 6.92211 22.0908V20.0908ZM4.72656 22.2864V22.4957H6.72656V22.2864H4.72656ZM4.72656 22.4957C4.72656 23.7073 5.71095 24.6908 6.9217 24.6908V22.6908C6.81508 22.6908 6.72656 22.6023 6.72656 22.4957H4.72656ZM6.9217 24.6908H7.99765V22.6908H6.9217V24.6908ZM7.99765 24.6908C9.20858 24.6908 10.1932 23.7075 10.1932 22.4957H8.1932C8.1932 22.602 8.1049 22.6908 7.99765 22.6908V24.6908ZM10.1932 22.4957V22.2864H8.1932V22.4957H10.1932ZM10.1932 22.2864C10.1932 21.0752 9.20925 20.0908 7.99806 20.0908V22.0908C8.10424 22.0908 8.1932 22.1793 8.1932 22.2864H10.1932ZM7.32656 22.4957C7.32656 22.1245 7.62696 21.8241 7.99811 21.8241V23.8241C8.73154 23.8241 9.32656 23.2291 9.32656 22.4957H7.32656ZM7.99811 21.8241H6.92211V23.8241H7.99811V21.8241ZM6.92211 21.8241C7.29184 21.8241 7.5932 22.1235 7.5932 22.4957H5.5932C5.5932 23.2301 6.18928 23.8241 6.92211 23.8241V21.8241ZM7.5932 22.4957V22.2864H5.5932V22.4957H7.5932ZM7.5932 22.2864C7.5932 22.657 7.2929 22.9575 6.92211 22.9575V20.9575C6.18813 20.9575 5.5932 21.5526 5.5932 22.2864H7.5932ZM6.92211 22.9575H7.99765V20.9575H6.92211V22.9575ZM7.99765 22.9575C7.62696 22.9575 7.32656 22.657 7.32656 22.2864H9.32656C9.32656 21.5525 8.73153 20.9575 7.99765 20.9575V22.9575ZM7.32656 22.2864V22.4957H9.32656V22.2864H7.32656Z" fill="#991981" mask="url(#path-2-inside-1)"/>
<path d="M1.29545 5.72729H14M1 19.9091H14" stroke="#FFFFFF"/>
<path d="M12 1H3C1.89543 1 1 1.89543 1 3V17.1128V22.6364C1 23.7409 1.89543 24.6364 3 24.6364H12C13.1046 24.6364 14 23.7409 14 22.6364V3C14 1.89543 13.1046 1 12 1Z" stroke="#FFFFFF"/>
</svg>
