<svg width="52" height="52" viewBox="0 0 52 52" fill="none" xmlns="http://www.w3.org/2000/svg">
<circle cx="26" cy="26" r="26" fill="#E6F7F9"/>
<mask id="mask0" mask-type="alpha" maskUnits="userSpaceOnUse" x="7" y="7" width="38" height="38">
<rect x="7.79883" y="7.7998" width="36.4" height="36.4" fill="#C4C4C4"/>
</mask>
<g mask="url(#mask0)">
<path d="M25.6696 26.0419C25.9882 26.0609 26.3169 26.0704 26.6558 26.0704C27.0015 26.0704 27.337 26.0482 27.6623 26.0039C27.9945 25.9532 28.3096 25.874 28.6079 25.7663C28.9061 25.6586 29.1738 25.5096 29.4111 25.3196C29.6483 25.1295 29.8415 24.8919 29.9906 24.6067C30.1465 24.3153 30.2448 23.9668 30.2854 23.5612H25.2324C25.2528 23.5169 25.307 23.425 25.3951 23.2856C25.49 23.1399 25.5883 22.9878 25.6899 22.8294C25.8119 22.6457 25.9475 22.4461 26.0966 22.2306H30.0313C30.0313 22.0659 29.9465 21.9011 29.7771 21.7364C29.6076 21.5653 29.4009 21.4132 29.1569 21.2802C28.9197 21.1471 28.6757 21.0394 28.4249 20.957C28.1741 20.8683 27.9674 20.824 27.8047 20.824H25.2324C25.2595 20.7479 25.3171 20.6339 25.4053 20.4818C25.5002 20.3297 25.5984 20.1808 25.7001 20.0351C25.8018 19.883 25.8899 19.75 25.9644 19.6359C26.0458 19.5219 26.0898 19.4648 26.0966 19.4648H34.5658C34.5658 19.4648 34.5454 19.4997 34.5048 19.5694C34.4709 19.6391 34.4234 19.7246 34.3624 19.826C34.3014 19.9211 34.2336 20.0288 34.1591 20.1492C34.0845 20.2632 34.0133 20.3709 33.9456 20.4723C33.8846 20.5737 33.8303 20.6592 33.7829 20.7289C33.7422 20.7923 33.7219 20.824 33.7219 20.824H31.4953C31.6377 21.0521 31.7597 21.2834 31.8613 21.5178C31.9698 21.7459 32.0376 21.9835 32.0647 22.2306H34.5658L33.7219 23.5612H32.1562C32.0748 24.1505 31.8952 24.6543 31.6173 25.0724C31.3462 25.4906 31.0107 25.8391 30.6108 26.1179C30.2177 26.3904 29.7771 26.6027 29.2891 26.7547C28.801 26.9005 28.2995 27.0018 27.7843 27.0589C27.7843 27.0652 27.7945 27.0874 27.8148 27.1254C27.842 27.1571 27.8725 27.1951 27.9064 27.2395C27.9402 27.2901 27.9809 27.344 28.0284 27.401L32.5425 33.2272V33.4648H30.6108L25.6696 27.2965V26.0419Z" fill="#089BAD"/>
<path d="M26.432 14.3687C25.9574 14.2274 25.4707 14.1144 24.9737 14.0316C24.3204 13.9228 23.6495 13.8662 22.9654 13.8662C16.2643 13.8662 10.832 19.2985 10.832 25.9995C10.832 32.7006 16.2643 38.1329 22.9654 38.1329C23.8578 38.1329 24.7278 38.0365 25.5654 37.8537" stroke="#089BAD" stroke-width="0.814453" stroke-linecap="round" stroke-linejoin="round"/>
<ellipse cx="29.899" cy="25.9995" rx="12.1333" ry="12.1333" stroke="#089BAD" stroke-width="0.814453" stroke-linecap="round" stroke-linejoin="round"/>
</g>
</svg>
