<svg width="52" height="52" viewBox="0 0 52 52" fill="none" xmlns="http://www.w3.org/2000/svg">
<circle cx="26" cy="26" r="26" fill="#EFCFEC"/>
<mask id="mask0" mask-type="alpha" maskUnits="userSpaceOnUse" x="6" y="6" width="40" height="40">
<rect x="6" y="6" width="40" height="40" fill="#C4C4C4"/>
</mask>
<g mask="url(#mask0)">
<path d="M35.5602 25.708L36.2714 26.4192L32.6845 30.0061L30.7983 28.1199L31.5095 27.4087L32.6845 28.5837L35.5602 25.708ZM39.3327 25.7389V23.9146C39.3327 23.4817 39.0853 23.1724 38.6215 23.1415C38.5287 23.1415 38.405 23.1106 38.3123 23.1106C38.003 23.0797 37.6938 23.0488 37.4155 22.9869C36.3024 22.7395 35.251 22.2448 34.076 21.4099C33.6431 21.1007 33.4266 21.1007 32.9937 21.4099C31.4167 22.4922 29.9943 23.0488 28.5101 23.1415C27.9844 23.1724 27.7371 23.4507 27.7371 23.9764C27.7371 24.3475 27.7371 24.7185 27.7371 25.1205C27.7371 26.1718 27.7371 27.2541 27.7371 28.3054C27.7371 28.6765 27.7989 29.0785 27.8917 29.4805C28.1081 30.4081 28.6029 31.2739 29.4068 32.0779C30.3963 33.0983 31.6641 33.8713 33.272 34.4898C33.3648 34.5207 33.4576 34.5516 33.5503 34.5516C33.674 34.5516 33.7977 34.5207 33.8905 34.4898C33.9832 34.4589 34.076 34.397 34.1688 34.3661C34.5707 34.2115 34.9727 34.0259 35.3438 33.8095C36.6425 33.1292 37.6011 32.3253 38.3123 31.3667C38.9307 30.5009 39.2708 29.6351 39.3018 28.7383C39.3018 28.5528 39.3018 28.3673 39.3327 28.1508V26.8521V26.3265V25.7389ZM38.3123 28.0271V28.089C38.3123 28.3054 38.3123 28.4601 38.3123 28.6456C38.2813 29.3568 38.003 30.0371 37.5083 30.7483C36.8899 31.5831 36.0241 32.2943 34.88 32.9128C34.5398 33.0983 34.1688 33.2529 33.7668 33.4075C33.7049 33.4384 33.6122 33.4694 33.5503 33.5003C32.1279 32.9437 31.0148 32.2634 30.118 31.3667C29.4687 30.6864 29.0358 30.0061 28.8812 29.264C28.8193 28.9239 28.7575 28.6147 28.7575 28.3054C28.7575 27.2541 28.7575 26.1718 28.7575 25.1205C28.7575 24.7804 28.7575 24.4712 28.7575 24.131C30.3654 24.0073 31.8806 23.3889 33.5503 22.2448C34.8181 23.1106 36.0241 23.6672 37.23 23.9455C37.5701 24.0073 37.8794 24.0692 38.2195 24.1001C38.2504 24.1001 38.3123 24.1001 38.3432 24.1001V25.6153L38.3123 28.0271ZM29.8706 33.995C29.8706 34.2733 29.6542 34.4898 29.3759 34.4898H13.1729C12.9874 34.4898 12.8328 34.397 12.74 34.2424C12.6473 34.0878 12.6473 33.9023 12.7091 33.7477L14.9355 29.2949V17.3282C14.9355 17.0499 15.1519 16.8335 15.4302 16.8335H33.5194C33.7977 16.8335 34.0142 17.0499 34.0142 17.3282V19.2454V19.5546V19.6164C34.0142 19.8947 33.7977 20.1112 33.5194 20.1112C33.2411 20.1112 33.0247 19.8947 33.0247 19.6164V19.5546V19.2454V17.823H15.925V28.893H26.3147C26.5929 28.893 26.8094 29.1094 26.8094 29.3877C26.8094 29.666 26.5929 29.8824 26.3147 29.8824H15.7394L13.9769 33.4384H22.1402L22.4804 32.7582C22.5731 32.5726 22.7277 32.4799 22.9442 32.4799H26.0364C26.2219 32.4799 26.4074 32.6036 26.5002 32.7582L26.8403 33.4384H29.4068C29.6542 33.5003 29.8706 33.7167 29.8706 33.995Z" fill="#A731D0"/>
</g>
</svg>
