<svg width="18" height="22" viewBox="0 0 18 22" fill="none" xmlns="http://www.w3.org/2000/svg">
<path d="M8.88599 20.9853C8.9234 20.9951 8.9617 21 9 21C9.0383 21 9.0766 20.9951 9.11401 20.9853C13.757 19.7749 17 15.2249 17 9.92051V3.07988C17 2.94343 16.9368 2.81455 16.8287 2.73032C16.7207 2.64588 16.5791 2.61566 16.4459 2.6481C15.8263 2.79788 15.1922 2.87632 14.5644 2.88121H14.4943C12.6247 2.88121 10.819 2.2621 9.27169 1.091C9.1111 0.969667 8.8889 0.969667 8.72831 1.091C7.18103 2.2621 5.37506 2.88121 3.5057 2.88121H3.43917C2.80777 2.87632 2.17367 2.79788 1.55413 2.6481C1.42109 2.61566 1.27931 2.64588 1.17135 2.73032C1.06339 2.81455 1 2.94343 1 3.07988V9.92051C1 15.2249 4.24305 19.7749 8.88599 20.9853Z" stroke="#fff" stroke-linecap="round" stroke-linejoin="round"/>
<path d="M5.1626 14.834L12.8289 7.16772" stroke="#fff" stroke-linecap="round" stroke-linejoin="round"/>
<circle cx="6.25777" cy="8.2629" r="1.14278" stroke="#fff"/>
<circle cx="11.7338" cy="13.7387" r="1.14278" stroke="#fff"/>
</svg>
