<svg width="15" height="20" viewBox="0 0 15 20" fill="none" xmlns="http://www.w3.org/2000/svg">
<path d="M8.63346 2.48616L8.63366 2.48645C9.70865 4.06492 11.0341 6.01666 12.0913 7.90957C12.6196 8.85551 13.0751 9.77659 13.3975 10.6204C13.7222 11.4705 13.899 12.2095 13.899 12.8005C13.899 14.6435 13.1422 16.3115 11.9264 17.5273C10.7105 18.7432 9.04249 19.5 7.1995 19.5C5.35695 19.5 3.68784 18.7435 2.47077 17.5526C1.25602 16.3369 0.5 14.6697 0.5 12.8277C0.5 12.2365 0.676827 11.4957 1.00169 10.6429C1.32415 9.79638 1.77975 8.87183 2.30809 7.92249C3.36491 6.02357 4.68992 4.06557 5.76427 2.48804C6.25032 1.78596 6.66234 1.18194 7.0214 0.602544C7.10147 0.487891 7.23006 0.480805 7.3025 0.529099C7.32908 0.546818 7.36345 0.581191 7.38117 0.607768C7.50234 0.789527 7.62723 0.978268 7.75634 1.17338C8.02843 1.58458 8.31924 2.02407 8.63346 2.48616Z" stroke="#FFFFFF"/>
<path d="M8.63346 2.48616L8.63366 2.48645C9.70865 4.06492 11.0341 6.01666 12.0913 7.90957C12.6196 8.85551 13.0751 9.77659 13.3975 10.6204C13.7222 11.4705 13.899 12.2095 13.899 12.8005C13.899 14.6435 13.1422 16.3115 11.9264 17.5273C10.7105 18.7432 9.04249 19.5 7.1995 19.5C5.35695 19.5 3.68784 18.7435 2.47077 17.5526C1.25602 16.3369 0.5 14.6697 0.5 12.8277C0.5 12.2365 0.676827 11.4957 1.00169 10.6429C1.32415 9.79638 1.77975 8.87183 2.30809 7.92249C3.36491 6.02357 4.68992 4.06557 5.76427 2.48804C6.25032 1.78596 6.66234 1.18194 7.0214 0.602544C7.10147 0.487891 7.23006 0.480805 7.3025 0.529099C7.32908 0.546818 7.36345 0.581191 7.38117 0.607768C7.50234 0.789527 7.62723 0.978268 7.75634 1.17338C8.02843 1.58458 8.31924 2.02407 8.63346 2.48616Z" stroke="#FFFFFF"/>
<path d="M11.4088 12.3123C11.0285 12.2851 10.7025 12.5839 10.6753 12.9643C10.6481 13.562 10.458 14.1325 10.1591 14.6215C9.86026 15.1106 9.42557 15.5452 8.90938 15.8169C8.58337 16.0071 8.44753 16.4418 8.6377 16.7678C8.85505 17.1482 9.28973 17.2568 9.61575 17.0666C10.3493 16.6591 10.947 16.0614 11.3545 15.3822C11.7892 14.703 12.0337 13.888 12.0609 13.0458C12.088 12.6654 11.7892 12.3394 11.4088 12.3123Z" fill="#FFFFFF"/>
</svg>
