<svg width="161" height="161" viewBox="0 0 161 161" fill="none" xmlns="http://www.w3.org/2000/svg">
<circle opacity="0.1" cx="80.5" cy="80.5" r="80.5" fill="#C4C4C4"/>
<path d="M111.832 110.469V113.761C111.832 115.153 110.446 116.119 109.14 115.637L83.2201 106.067M111.832 72.6124V55.9784C111.832 55.131 111.298 54.3756 110.5 54.093L83.2201 44.4402M83.2201 44.4402L60.7703 54.5646M83.2201 44.4402V106.067M60.7703 54.5646V116.632M60.7703 54.5646L39.8123 45.2499C38.4897 44.6621 37 45.6302 37 47.0775V103.93C37 104.698 37.4401 105.398 38.1324 105.732L60.7703 116.632M60.7703 116.632L83.2201 106.067" stroke="#999999" stroke-width="1.5" stroke-linecap="round"/>
<path d="M122.132 101.652L130.797 110.317C131.775 111.295 131.816 112.935 130.889 113.961L129.715 115.259C128.788 116.285 127.216 116.337 126.223 115.375L117.191 106.624M122.132 101.652C123.962 98.8753 125.03 95.5514 125.031 91.9767C125.03 82.2547 117.149 74.3733 107.427 74.373C97.7046 74.3733 89.8235 82.2544 89.8232 91.9767C89.8232 101.699 97.7049 109.58 107.427 109.58C111.04 109.58 114.397 108.49 117.191 106.624M122.132 101.652C120.96 103.819 118.35 105.87 117.191 106.624" stroke="#999999" stroke-width="1.5" stroke-linecap="round"/>
<line x1="111.602" y1="88.6622" x2="103.811" y2="96.4537" stroke="#999999" stroke-width="1.5" stroke-linecap="round"/>
<line x1="103.811" y1="88.1543" x2="111.602" y2="95.9457" stroke="#999999" stroke-width="1.5" stroke-linecap="round"/>
<circle cx="107.43" cy="91.9801" r="13.2057" stroke="#999999" stroke-width="1.5" stroke-linecap="round"/>
</svg>
