<svg width="83" height="44" viewBox="0 0 83 44" fill="none" xmlns="http://www.w3.org/2000/svg">
<path d="M37.5781 37.5952V39.3569H39.332C39.5247 39.3569 39.6914 39.3218 39.832 39.2515C39.9727 39.1812 40.0794 39.0783 40.1523 38.9429C40.2253 38.8075 40.2617 38.6473 40.2617 38.4624C40.2617 38.1916 40.1797 37.9793 40.0156 37.8257C39.8516 37.672 39.6237 37.5952 39.332 37.5952H37.5781ZM36.6172 40.1655V34.5015H39.332C39.668 34.5015 39.9609 34.5549 40.2109 34.6616C40.4635 34.7658 40.6576 34.9259 40.793 35.1421C40.9284 35.3556 40.9961 35.616 40.9961 35.9233C40.9961 36.202 40.9271 36.4429 40.7891 36.646C40.7161 36.7554 40.6341 36.8465 40.543 36.9194C40.4544 36.9897 40.3724 37.0431 40.2969 37.0796C40.224 37.116 40.1875 37.1343 40.1875 37.1343C40.5312 37.2124 40.7943 37.3778 40.9766 37.6304C41.1536 37.883 41.2422 38.2072 41.2422 38.603C41.2422 38.9051 41.1693 39.1746 41.0234 39.4116C40.8776 39.646 40.651 39.8309 40.3438 39.9663C40.0365 40.0991 39.651 40.1655 39.1875 40.1655H36.6172ZM37.5781 35.3257V36.8843H39.1875C39.4297 36.8843 39.6289 36.814 39.7852 36.6733C39.9414 36.5327 40.0195 36.3387 40.0195 36.0913C40.0195 35.8153 39.9505 35.6187 39.8125 35.5015C39.6771 35.3843 39.4688 35.3257 39.1875 35.3257H37.5781ZM43.3727 37.9233H45.068L44.2281 35.4937L43.3727 37.9233ZM41.568 40.1655L43.7086 34.5015H44.7672L46.9078 40.1655H45.8453L45.3492 38.6772H43.0953L42.5719 40.1655H41.568ZM47.6828 40.1655V34.5015H48.7102L51.2844 38.6772V34.5015H52.2297V40.1655H51.1984L48.6203 36.021V40.1655H47.6828ZM53.6922 40.1655V34.5015H54.6531V37.0835L57.157 34.5015H58.3641L56.1414 36.771L58.5164 40.1655H57.2859L55.4695 37.4702L54.6531 38.2593V40.1655H53.6922ZM59.35 40.1655V34.5015H60.3109V40.1655H59.35ZM61.7969 40.1655V34.5015H62.8242L65.3984 38.6772V34.5015H66.3438V40.1655H65.3125L62.7344 36.021V40.1655H61.7969ZM72.6656 37.1812H70.2867V37.9585H71.775C71.7698 38.271 71.706 38.5444 71.5836 38.7788C71.4612 39.0106 71.2815 39.189 71.0445 39.314C70.8102 39.439 70.5289 39.5015 70.2008 39.5015C69.8362 39.5015 69.5237 39.3999 69.2633 39.1968C69.0055 38.9937 68.8115 38.728 68.6812 38.3999C68.551 38.0692 68.4859 37.7189 68.4859 37.3491C68.4859 37.0705 68.5224 36.8035 68.5953 36.5483C68.6682 36.2931 68.7763 36.0614 68.9195 35.853C69.0654 35.6421 69.2464 35.478 69.4625 35.3608C69.6786 35.241 69.9247 35.1812 70.2008 35.1812C70.443 35.1812 70.6682 35.2254 70.8766 35.314C71.0875 35.3999 71.262 35.5288 71.4 35.7007C71.538 35.8726 71.624 36.0783 71.6578 36.3179H72.5992C72.568 36.0028 72.4833 35.7228 72.3453 35.478C72.2073 35.2332 72.0289 35.0301 71.8102 34.8687C71.594 34.7072 71.3479 34.5861 71.0719 34.5054C70.7958 34.422 70.5055 34.3804 70.2008 34.3804C69.7919 34.3804 69.4208 34.4572 69.0875 34.6108C68.7542 34.7645 68.4703 34.978 68.2359 35.2515C68.0016 35.5249 67.8219 35.8426 67.6969 36.2046C67.5745 36.564 67.5133 36.9481 67.5133 37.3569C67.5133 37.7554 67.5745 38.133 67.6969 38.4897C67.8193 38.8465 67.9977 39.1616 68.232 39.4351C68.469 39.7059 68.7542 39.9168 69.0875 40.0679C69.4234 40.2189 69.7945 40.2944 70.2008 40.2944C70.4404 40.2944 70.6539 40.2697 70.8414 40.2202C71.0289 40.1707 71.206 40.0887 71.3727 39.9741C71.5419 39.8595 71.7164 39.702 71.8961 39.5015L72.0328 40.1655H72.6656V37.1812Z" fill="#333333"/>
<path d="M21.9561 29.5828V21.0164H24.3057C25.3564 21.0164 26.1318 21.2175 26.6318 21.6199C27.1357 22.0222 27.3877 22.6277 27.3877 23.4363C27.3877 24.5691 26.8135 25.3347 25.665 25.7332L27.9912 29.5828H26.8135L24.7393 26.0203H22.9521V29.5828H21.9561ZM22.9521 25.1648H24.3174C25.0205 25.1648 25.5361 25.0261 25.8643 24.7488C26.1924 24.4675 26.3564 24.0476 26.3564 23.489C26.3564 22.9226 26.1885 22.5144 25.8525 22.2644C25.5205 22.0144 24.9854 21.8894 24.2471 21.8894H22.9521V25.1648ZM29.734 29.5828V21.0164H30.7301V29.5828H29.734ZM32.2679 21.0164H33.3225L35.2913 26.5593C35.5179 27.196 35.6975 27.8152 35.8304 28.4167C35.971 27.7839 36.1546 27.1531 36.3811 26.5242L38.3382 21.0164H39.4104L36.3225 29.5828H35.3382L32.2679 21.0164ZM40.954 29.5828V21.0164H41.9501V29.5828H40.954ZM44.6656 29.5828V21.0164H45.6617V28.6804H49.441V29.5828H44.6656ZM51.26 29.5828V21.0164H56.0354V21.9011H52.2561V24.6609H55.8068V25.5398H52.2561V28.6921H56.0354V29.5828H51.26ZM57.8543 25.2996C57.8543 24.4089 58.0321 23.6296 58.3875 22.9617C58.7469 22.2898 59.2625 21.7781 59.9344 21.4265C60.6063 21.071 61.3934 20.8933 62.2957 20.8933C63.2098 20.8933 64.0614 21.0613 64.8504 21.3972L64.4637 22.2761C63.6903 21.948 62.9461 21.7839 62.2313 21.7839C61.1883 21.7839 60.3739 22.0945 59.7879 22.7156C59.202 23.3367 58.909 24.198 58.909 25.2996C58.909 26.4558 59.1903 27.3328 59.7528 27.9304C60.3192 28.5281 61.1493 28.8269 62.243 28.8269C62.8368 28.8269 63.4168 28.7585 63.9832 28.6218V25.9851H62.0672V25.0945H64.9793V29.2605C64.5262 29.405 64.0653 29.5144 63.5965 29.5886C63.1278 29.6628 62.5848 29.7 61.9676 29.7C60.6707 29.7 59.661 29.3152 58.9383 28.5457C58.2157 27.7722 57.8543 26.6902 57.8543 25.2996ZM67.4018 29.5828V21.0164H72.1772V21.9011H68.3979V24.6609H71.9487V25.5398H68.3979V28.6921H72.1772V29.5828H67.4018Z" fill="#333333"/>
<path d="M9.26963 18.8586C18.0894 16.186 19.2551 8.28935 18.4477 4.80926C21.9696 11.2022 15.8282 17.0479 15.8282 17.0479C15.8282 17.0479 8.71212 23.2986 4.76551 18.8586C2.08673 15.8449 5.41134 11.0676 7.48426 8.98542C14.2968 3.17273 21.953 2.45411 27.3905 3.17289C32.8368 3.89284 33.8851 8.1416 33.7968 10.1728C33.5155 16.3603 27.3879 17.9514 26.9218 18.0479C26.0155 18.2354 23.3237 18.0479 23.578 16.1859C23.778 14.7214 24.6613 14.4064 25.078 14.432C24.0991 14.6826 23.3843 18.2739 27.2262 16.1859C31.0681 14.0979 34.0748 7.66683 28.0614 5.07761C22.0479 2.48839 10.1047 5.07761 5.92873 12.1769C3.06352 17.0479 6.76399 18.9978 9.26963 18.8586Z" fill="#333333"/>
<path d="M7.95503 27.9174C4.72831 29.8953 3.40093 28.0475 3.14058 26.8764C4.56927 25.7098 3.73587 25.0458 3.14058 24.8596C0.174068 23.8707 0.343203 26.2691 0.798585 27.592C2.72428 30.7667 6.20598 30.7545 9.10614 29.315C13.0365 27.3641 17.0515 23.3134 20.6346 17.6043C26.9483 7.54463 32.0911 4.56171 35.1488 3.45574C45.7661 -0.23951 47.6831 5.38577 47.3145 8.66032C48.5072 7.12063 48.3217 3.251 44.8038 1.63358C37.9148 -0.831912 27.2008 2.87269 19.6652 14.6457C14.9735 21.9756 10.0151 26.6163 7.95503 27.9174Z" fill="#333333"/>
<path d="M33.438 36.2228L13.0974 36.2229" stroke="#333333"/>
<path d="M33.438 38.6384L13.0974 38.6384" stroke="#333333"/>
</svg>
