<svg width="101" height="30" viewBox="0 0 101 30" fill="none" xmlns="http://www.w3.org/2000/svg">
<path d="M6.47455 29.9984C6.21402 29.9984 5.95979 29.9954 5.70131 29.99C5.16584 29.9836 4.63162 29.9409 4.10303 29.8621C3.61015 29.7843 3.13269 29.6394 2.68638 29.4324C2.24416 29.2271 1.84083 28.9579 1.49182 28.6351C1.13777 28.3161 0.843 27.9462 0.619201 27.5399C0.392937 27.131 0.236348 26.6926 0.15489 26.2402C0.0669227 25.754 0.0193287 25.2625 0.0125185 24.7697C0.00709724 24.6043 0 24.0536 0 24.0536V5.93643C0 5.93643 0.00755899 5.39417 0.0125612 5.23486C0.019082 4.74288 0.0663993 4.25205 0.154104 3.76665C0.235712 3.31296 0.392422 2.87338 0.618808 2.46311C0.841784 2.0571 1.13492 1.68686 1.48684 1.36674C1.83837 1.04357 2.24299 0.772982 2.68596 0.564841C3.13124 0.358486 3.60781 0.214681 4.09969 0.138244C4.63001 0.058692 5.16608 0.0156824 5.70341 0.00957598L6.47497 0H94.3508L95.1316 0.00996028C95.6641 0.0157633 96.1953 0.0583891 96.7207 0.137475C97.2176 0.214871 97.6991 0.35968 98.1495 0.567139C99.0369 0.986604 99.759 1.65024 100.215 2.46502C100.437 2.87246 100.592 3.30846 100.672 3.75823C100.761 4.24761 100.811 4.74229 100.821 5.23831C100.823 5.46042 100.823 5.699 100.823 5.93643C100.83 6.23053 100.83 6.51046 100.83 6.79269V23.2065C100.83 23.4914 100.83 23.7694 100.823 24.0497C100.823 24.3048 100.823 24.5384 100.82 24.7789C100.81 25.266 100.761 25.7519 100.674 26.2325C100.594 26.6882 100.438 27.13 100.212 27.5422C99.9866 27.9441 99.6936 28.3109 99.3436 28.629C98.9943 28.9535 98.5902 29.2243 98.147 29.4309C97.6979 29.6395 97.2171 29.7849 96.7207 29.8621C96.1922 29.9413 95.6579 29.9841 95.1224 29.99C94.8719 29.9954 94.6097 29.9984 94.355 29.9984L93.4281 30L6.47455 29.9984Z" fill="black"/>
<path d="M23.0979 15.8998C23.106 15.2872 23.2723 14.6865 23.5813 14.1537C23.8903 13.6209 24.332 13.1732 24.8654 12.8524C24.5266 12.3789 24.0796 11.9892 23.56 11.7143C23.0404 11.4394 22.4624 11.2869 21.872 11.2688C20.6126 11.1394 19.3916 12.0063 18.7498 12.0063C18.0956 12.0063 17.1075 11.2816 16.0435 11.303C15.3552 11.3248 14.6845 11.5207 14.0966 11.8715C13.5086 12.2224 13.0236 12.7163 12.6888 13.3051C11.2383 15.7627 12.3202 19.3744 13.7097 21.3609C14.4049 22.3337 15.2173 23.4202 16.2804 23.3817C17.3207 23.3395 17.7092 22.7325 18.9649 22.7325C20.209 22.7325 20.5735 23.3817 21.6582 23.3572C22.7745 23.3395 23.4778 22.3801 24.1486 21.3982C24.648 20.7051 25.0324 19.9391 25.2874 19.1285C24.6388 18.8601 24.0854 18.4108 23.6961 17.8366C23.3067 17.2624 23.0987 16.5888 23.0979 15.8998V15.8998Z" fill="white"/>
<path d="M21.0493 9.9623C21.6579 9.24729 21.9578 8.32826 21.8852 7.40039C20.9553 7.49596 20.0964 7.93087 19.4795 8.61845C19.1779 8.95435 18.9469 9.34512 18.7997 9.76844C18.6525 10.1918 18.592 10.6393 18.6217 11.0855C19.0868 11.0902 19.5469 10.9915 19.9674 10.797C20.3879 10.6024 20.7578 10.317 21.0493 9.9623Z" fill="white"/>
<path d="M36.248 20.9192H32.698L31.8455 23.3826H30.3418L33.7043 14.2686H35.2666L38.6291 23.3826H37.0998L36.248 20.9192ZM33.0657 19.7824H35.8797L34.4924 15.7845H34.4536L33.0657 19.7824Z" fill="white"/>
<path d="M45.8911 20.0606C45.8911 22.1255 44.7617 23.4522 43.0574 23.4522C42.6256 23.4743 42.1963 23.3769 41.8184 23.1713C41.4406 22.9657 41.1295 22.6602 40.9209 22.2896H40.8887V25.5809H39.4949V16.7377H40.844V17.843H40.8696C41.0879 17.4742 41.4042 17.1702 41.7849 16.9633C42.1656 16.7565 42.5965 16.6545 43.0317 16.6682C44.7551 16.6682 45.8911 18.0014 45.8911 20.0606ZM44.4585 20.0606C44.4585 18.7152 43.748 17.8308 42.6641 17.8308C41.5991 17.8308 40.8828 18.7339 40.8828 20.0606C40.8828 21.3994 41.5991 22.2961 42.6641 22.2961C43.7481 22.2961 44.4585 21.4181 44.4585 20.0606Z" fill="white"/>
<path d="M53.3647 20.0605C53.3647 22.1255 52.2354 23.4522 50.531 23.4522C50.0993 23.4743 49.6699 23.3769 49.2921 23.1713C48.9142 22.9657 48.6032 22.6601 48.3946 22.2896H48.3623V25.5809H46.9685V16.7377H48.3176V17.8429H48.3433C48.5615 17.4742 48.8778 17.1702 49.2585 16.9633C49.6392 16.7565 50.0701 16.6545 50.5054 16.6682C52.2288 16.6682 53.3647 18.0013 53.3647 20.0605ZM51.9321 20.0605C51.9321 18.7152 51.2217 17.8308 50.1377 17.8308C49.0728 17.8308 48.3565 18.7339 48.3565 20.0605C48.3565 21.3994 49.0728 22.2961 50.1377 22.2961C51.2217 22.2961 51.9321 21.418 51.9321 20.0605H51.9321Z" fill="white"/>
<path d="M58.3041 20.8436C58.4074 21.7474 59.3046 22.3408 60.5307 22.3408C61.7055 22.3408 62.5507 21.7474 62.5507 20.9324C62.5507 20.225 62.0409 19.8014 60.8339 19.5111L59.6269 19.2266C57.9167 18.8223 57.1227 18.0397 57.1227 16.7696C57.1227 15.1971 58.5231 14.1169 60.5116 14.1169C62.4796 14.1169 63.8287 15.1971 63.8741 16.7696H62.4672C62.3829 15.8601 61.6146 15.311 60.4918 15.311C59.369 15.311 58.6007 15.8665 58.6007 16.675C58.6007 17.3193 59.0914 17.6985 60.2919 17.9887L61.318 18.2353C63.2289 18.6775 64.0228 19.4287 64.0228 20.7618C64.0228 22.4669 62.6349 23.5349 60.4274 23.5349C58.3619 23.5349 56.9674 22.492 56.8773 20.8435L58.3041 20.8436Z" fill="white"/>
<path d="M67.0309 15.1655V16.7381H68.3221V17.8182H67.0309V21.4814C67.0309 22.0505 67.2894 22.3157 67.857 22.3157C68.0103 22.3131 68.1634 22.3026 68.3155 22.2842V23.3578C68.0603 23.4045 67.8009 23.4256 67.5414 23.4209C66.1666 23.4209 65.6305 22.9156 65.6305 21.6269V17.8182H64.6432V16.7381H65.6305V15.1655H67.0309Z" fill="white"/>
<path d="M69.0699 20.0605C69.0699 17.9698 70.3282 16.656 72.2904 16.656C74.2591 16.656 75.5116 17.9698 75.5116 20.0605C75.5116 22.157 74.2657 23.465 72.2904 23.465C70.3158 23.465 69.0699 22.157 69.0699 20.0605ZM74.0914 20.0605C74.0914 18.6263 73.4198 17.7799 72.2904 17.7799C71.161 17.7799 70.4901 18.6328 70.4901 20.0605C70.4901 21.5004 71.161 22.3405 72.2904 22.3405C73.4198 22.3405 74.0914 21.5004 74.0914 20.0605H74.0914Z" fill="white"/>
<path d="M76.6608 16.7379H77.9901V17.8689H78.0224C78.1123 17.5157 78.3238 17.2035 78.6212 16.9849C78.9186 16.7663 79.2839 16.6545 79.6557 16.6684C79.8163 16.6678 79.9765 16.6849 80.1332 16.7193V17.9951C79.9304 17.9344 79.7189 17.9066 79.5069 17.9127C79.3045 17.9046 79.1026 17.9396 78.9152 18.0151C78.7278 18.0906 78.5594 18.2049 78.4214 18.3501C78.2834 18.4954 78.1792 18.6681 78.1159 18.8565C78.0525 19.0449 78.0316 19.2444 78.0546 19.4415V23.3828H76.6608L76.6608 16.7379Z" fill="white"/>
<path d="M86.5594 21.4309C86.3719 22.6372 85.1715 23.465 83.6356 23.465C81.6603 23.465 80.4342 22.1699 80.4342 20.0921C80.4342 18.0078 81.6669 16.656 83.577 16.656C85.4557 16.656 86.6371 17.9189 86.6371 19.9337V20.401H81.8412V20.4834C81.8191 20.7279 81.8503 20.9743 81.933 21.2061C82.0156 21.4379 82.1477 21.6499 82.3205 21.8279C82.4932 22.0059 82.7027 22.1459 82.935 22.2386C83.1673 22.3313 83.4171 22.3746 83.6678 22.3655C83.9972 22.3957 84.3277 22.3211 84.6103 22.1527C84.8928 21.9843 85.1122 21.7312 85.236 21.4309L86.5594 21.4309ZM81.8478 19.4477H85.2425C85.255 19.2278 85.221 19.0078 85.1425 18.8014C85.064 18.595 84.9427 18.4067 84.7863 18.2484C84.6299 18.09 84.4418 17.965 84.2337 17.8811C84.0256 17.7973 83.802 17.7565 83.577 17.7612C83.35 17.7599 83.125 17.8026 82.915 17.8868C82.705 17.971 82.5141 18.0951 82.3533 18.2519C82.1925 18.4087 82.0651 18.5951 81.9783 18.8003C81.8916 19.0056 81.8472 19.2256 81.8478 19.4477V19.4477Z" fill="white"/>
<path d="M32.891 7.4078C33.1832 7.38728 33.4764 7.43048 33.7495 7.53428C34.0226 7.63809 34.2687 7.79991 34.4702 8.00807C34.6716 8.21624 34.8233 8.46555 34.9144 8.73805C35.0054 9.01054 35.0335 9.29941 34.9967 9.58382C34.9967 10.9829 34.224 11.7871 32.891 11.7871H31.2745V7.4078H32.891ZM31.9696 11.1678H32.8133C33.0221 11.18 33.2311 11.1465 33.425 11.0697C33.6189 10.9929 33.7929 10.8748 33.9343 10.7239C34.0756 10.5731 34.1808 10.3932 34.2422 10.1976C34.3036 10.0019 34.3197 9.79526 34.2892 9.59274C34.3174 9.39103 34.2998 9.1857 34.2374 8.99145C34.1751 8.7972 34.0696 8.61885 33.9286 8.46918C33.7875 8.31951 33.6144 8.20222 33.4216 8.12571C33.2288 8.04921 33.0211 8.01539 32.8133 8.02667H31.9696V11.1678Z" fill="white"/>
<path d="M35.7818 10.1335C35.7606 9.91628 35.786 9.69715 35.8564 9.49012C35.9267 9.2831 36.0406 9.09276 36.1905 8.93131C36.3405 8.76985 36.5233 8.64085 36.7271 8.55258C36.931 8.4643 37.1515 8.4187 37.3745 8.4187C37.5974 8.4187 37.8179 8.4643 38.0218 8.55258C38.2257 8.64085 38.4085 8.76985 38.5584 8.93131C38.7084 9.09276 38.8222 9.2831 38.8926 9.49012C38.963 9.69715 38.9884 9.91628 38.9671 10.1335C38.9888 10.3509 38.9637 10.5703 38.8935 10.7777C38.8233 10.985 38.7095 11.1757 38.5595 11.3375C38.4095 11.4993 38.2266 11.6285 38.0225 11.717C37.8184 11.8055 37.5977 11.8512 37.3745 11.8512C37.1513 11.8512 36.9305 11.8055 36.7264 11.717C36.5223 11.6285 36.3394 11.4993 36.1894 11.3375C36.0394 11.1757 35.9257 10.985 35.8555 10.7777C35.7853 10.5703 35.7602 10.3509 35.7818 10.1335V10.1335ZM38.2816 10.1335C38.2816 9.41709 37.9527 8.99815 37.3756 8.99815C36.7962 8.99815 36.4703 9.41709 36.4703 10.1335C36.4703 10.8556 36.7963 11.2713 37.3756 11.2713C37.9527 11.2713 38.2816 10.8527 38.2816 10.1335H38.2816Z" fill="white"/>
<path d="M43.2013 11.7873H42.5099L41.8119 9.35326H41.7592L41.0641 11.7873H40.3793L39.4484 8.48242H40.1244L40.7294 11.0042H40.7792L41.4735 8.48242H42.1129L42.8072 11.0042H42.86L43.462 8.48242H44.1285L43.2013 11.7873Z" fill="white"/>
<path d="M44.9115 8.48258H45.5531V9.00758H45.6029C45.6874 8.81902 45.8299 8.66095 46.0106 8.5554C46.1912 8.44986 46.401 8.4021 46.6107 8.41878C46.775 8.40669 46.94 8.43094 47.0935 8.48972C47.2469 8.54851 47.3849 8.64033 47.4972 8.75838C47.6094 8.87643 47.6931 9.01768 47.742 9.17168C47.7909 9.32567 47.8038 9.48846 47.7797 9.64799V11.7874H47.1132V9.81177C47.1132 9.28067 46.8773 9.01655 46.3844 9.01655C46.2728 9.01146 46.1615 9.03004 46.0579 9.07102C45.9544 9.112 45.8611 9.1744 45.7845 9.25394C45.7079 9.33349 45.6498 9.42831 45.6142 9.53189C45.5785 9.63547 45.5662 9.74537 45.578 9.85405V11.7875H44.9115L44.9115 8.48258Z" fill="white"/>
<path d="M48.8416 7.19214H49.5081V11.7872H48.8416V7.19214Z" fill="white"/>
<path d="M50.4346 10.1335C50.4134 9.91633 50.4388 9.69718 50.5092 9.49015C50.5796 9.28312 50.6935 9.09277 50.8434 8.93132C50.9934 8.76986 51.1762 8.64085 51.3801 8.55258C51.584 8.4643 51.8045 8.4187 52.0275 8.4187C52.2504 8.4187 52.4709 8.4643 52.6748 8.55258C52.8787 8.64085 53.0615 8.76986 53.2115 8.93132C53.3615 9.09277 53.4753 9.28312 53.5457 9.49015C53.6161 9.69718 53.6415 9.91633 53.6203 10.1335C53.6419 10.3509 53.6168 10.5704 53.5466 10.7777C53.4764 10.9851 53.3626 11.1758 53.2126 11.3375C53.0626 11.4993 52.8796 11.6286 52.6755 11.717C52.4714 11.8055 52.2507 11.8512 52.0275 11.8512C51.8042 11.8512 51.5835 11.8055 51.3794 11.717C51.1753 11.6286 50.9924 11.4993 50.8424 11.3375C50.6923 11.1758 50.5786 10.9851 50.5084 10.7777C50.4381 10.5704 50.413 10.3509 50.4346 10.1335V10.1335ZM52.9344 10.1335C52.9344 9.41715 52.6055 8.99822 52.0284 8.99822C51.449 8.99822 51.1231 9.41715 51.1231 10.1335C51.1231 10.8557 51.4491 11.2714 52.0284 11.2714C52.6055 11.2713 52.9344 10.8528 52.9344 10.1335H52.9344Z" fill="white"/>
<path d="M54.322 10.8527C54.322 10.2578 54.7747 9.91489 55.5781 9.86615L56.4929 9.81455V9.52929C56.4929 9.18023 56.2571 8.98313 55.8015 8.98313C55.4294 8.98313 55.1716 9.1168 55.0977 9.35046H54.4524C54.5205 8.7828 55.0662 8.4187 55.8323 8.4187C56.679 8.4187 57.1565 8.83118 57.1565 9.52929V11.7874H56.5149V11.3229H56.4622C56.3551 11.4895 56.2048 11.6253 56.0266 11.7165C55.8484 11.8077 55.6486 11.8509 55.4478 11.8418C55.306 11.8563 55.1627 11.8415 55.0271 11.7984C54.8915 11.7553 54.7667 11.6849 54.6606 11.5917C54.5546 11.4985 54.4696 11.3846 54.4113 11.2573C54.353 11.1301 54.3226 10.9922 54.322 10.8527V10.8527ZM56.4929 10.5703V10.294L55.6682 10.3456C55.2031 10.3761 54.9922 10.5309 54.9922 10.8223C54.9922 11.1197 55.2558 11.2928 55.6184 11.2928C55.7247 11.3033 55.832 11.2928 55.934 11.2619C56.036 11.2311 56.1306 11.1804 56.2122 11.113C56.2938 11.0456 56.3607 10.9628 56.4089 10.8696C56.4571 10.7764 56.4857 10.6746 56.4929 10.5703V10.5703Z" fill="white"/>
<path d="M58.0323 10.1333C58.0323 9.089 58.5809 8.42745 59.4342 8.42745C59.6453 8.41793 59.8547 8.4674 60.0381 8.57008C60.2215 8.67275 60.3713 8.82439 60.4698 9.00726H60.5197V7.19214H61.1861V11.7872H60.5475V11.265H60.4947C60.3885 11.4466 60.2336 11.5964 60.0466 11.698C59.8597 11.7997 59.6479 11.8493 59.4342 11.8416C58.5751 11.8417 58.0323 11.1801 58.0323 10.1333ZM58.7208 10.1333C58.7208 10.8343 59.0585 11.2561 59.6232 11.2561C60.1849 11.2561 60.5321 10.8282 60.5321 10.1362C60.5321 9.44737 60.1813 9.01338 59.6232 9.01338C59.0621 9.01338 58.7208 9.43805 58.7208 10.1333H58.7208Z" fill="white"/>
<path d="M63.9438 10.1335C63.9226 9.91628 63.948 9.69715 64.0183 9.49012C64.0887 9.2831 64.2025 9.09276 64.3525 8.93131C64.5025 8.76985 64.6852 8.64085 64.8891 8.55258C65.093 8.4643 65.3135 8.4187 65.5365 8.4187C65.7594 8.4187 65.9799 8.4643 66.1838 8.55258C66.3877 8.64085 66.5705 8.76985 66.7204 8.93131C66.8704 9.09276 66.9842 9.2831 67.0546 9.49012C67.1249 9.69715 67.1503 9.91628 67.1291 10.1335C67.1507 10.3509 67.1257 10.5703 67.0555 10.7777C66.9853 10.985 66.8715 11.1757 66.7215 11.3375C66.5715 11.4993 66.3886 11.6285 66.1845 11.717C65.9804 11.8055 65.7597 11.8512 65.5365 11.8512C65.3132 11.8512 65.0925 11.8055 64.8884 11.717C64.6843 11.6285 64.5014 11.4993 64.3514 11.3375C64.2014 11.1757 64.0876 10.985 64.0175 10.7777C63.9473 10.5703 63.9222 10.3509 63.9438 10.1335V10.1335ZM66.4436 10.1335C66.4436 9.41709 66.1147 8.99815 65.5376 8.99815C64.9582 8.99815 64.6323 9.41709 64.6323 10.1335C64.6323 10.8556 64.9582 11.2713 65.5376 11.2713C66.1147 11.2713 66.4436 10.8527 66.4436 10.1335Z" fill="white"/>
<path d="M68.0233 8.48258H68.6649V9.00758H68.7147C68.7992 8.81902 68.9417 8.66095 69.1224 8.5554C69.303 8.44986 69.5128 8.4021 69.7225 8.41878C69.8869 8.40669 70.0519 8.43094 70.2053 8.48972C70.3587 8.54851 70.4967 8.64033 70.609 8.75838C70.7212 8.87643 70.8049 9.01768 70.8538 9.17168C70.9027 9.32567 70.9156 9.48846 70.8915 9.64799V11.7874H70.225V9.81177C70.225 9.28067 69.9891 9.01655 69.4962 9.01655C69.3846 9.01146 69.2733 9.03004 69.1697 9.07102C69.0662 9.112 68.9729 9.1744 68.8963 9.25394C68.8197 9.33349 68.7616 9.42831 68.726 9.53189C68.6903 9.63547 68.678 9.74537 68.6898 9.85405V11.7875H68.0233V8.48258Z" fill="white"/>
<path d="M74.6576 7.65942V8.49729H75.3893V9.04667H74.6576V10.7461C74.6576 11.0922 74.8033 11.2438 75.1351 11.2438C75.2201 11.2436 75.3049 11.2385 75.3893 11.2288V11.7721C75.2696 11.793 75.1483 11.8042 75.0267 11.8054C74.2855 11.8054 73.9904 11.5502 73.9904 10.9131V9.04665H73.4542V8.49726H73.9904V7.65942H74.6576Z" fill="white"/>
<path d="M76.2998 7.19214H76.9604V9.01338H77.0132C77.1018 8.82305 77.2482 8.66409 77.4325 8.55814C77.6167 8.4522 77.8299 8.40443 78.0429 8.42135C78.2064 8.41265 78.3698 8.43935 78.5215 8.49957C78.6732 8.55978 78.8095 8.65202 78.9206 8.7697C79.0317 8.88737 79.1149 9.0276 79.1642 9.18035C79.2135 9.33311 79.2278 9.49464 79.206 9.65342V11.7872H78.5388V9.81433C78.5388 9.28645 78.2876 9.0191 77.8167 9.0191C77.7021 9.00991 77.5869 9.02532 77.4791 9.06426C77.3712 9.10319 77.2734 9.16472 77.1924 9.24453C77.1114 9.32433 77.0492 9.42049 77.0102 9.52628C76.9711 9.63207 76.9562 9.74493 76.9663 9.85697V11.7871H76.2998L76.2998 7.19214Z" fill="white"/>
<path d="M83.0922 10.8951C83.0016 11.1971 82.8054 11.4584 82.5379 11.6332C82.2704 11.808 81.9486 11.8852 81.6288 11.8512C81.4063 11.857 81.1852 11.8153 80.9808 11.729C80.7764 11.6427 80.5937 11.514 80.4452 11.3517C80.2968 11.1894 80.1862 10.9974 80.1212 10.7891C80.0562 10.5808 80.0383 10.3611 80.0687 10.1454C80.0391 9.92895 80.0573 9.70882 80.1222 9.49989C80.1871 9.29096 80.297 9.0981 80.4447 8.93438C80.5923 8.77065 80.7742 8.63989 80.978 8.55093C81.1818 8.46197 81.4027 8.41689 81.6258 8.41876C82.5655 8.41876 83.1324 9.04701 83.1324 10.0848V10.3124H80.7477V10.3489C80.7372 10.4702 80.7528 10.5923 80.7934 10.7073C80.834 10.8224 80.8987 10.9279 80.9834 11.017C81.0681 11.1061 81.1709 11.177 81.2851 11.225C81.3994 11.273 81.5227 11.2971 81.6471 11.2957C81.8065 11.3145 81.968 11.2864 82.1111 11.215C82.2542 11.1437 82.3723 11.0323 82.4505 10.8951L83.0922 10.8951ZM80.7477 9.83001H82.4535C82.4619 9.7191 82.4465 9.60768 82.4082 9.50294C82.37 9.39819 82.3098 9.30243 82.2315 9.2218C82.1533 9.14117 82.0586 9.07746 81.9537 9.03476C81.8487 8.99206 81.7358 8.97132 81.6222 8.97387C81.5069 8.97246 81.3925 8.99364 81.2857 9.03616C81.1789 9.07869 81.0819 9.14171 81.0004 9.2215C80.9189 9.30129 80.8546 9.39623 80.8112 9.50074C80.7678 9.60525 80.7462 9.71721 80.7477 9.83001H80.7477Z" fill="white"/>
</svg>
