<svg width="62" height="18" viewBox="0 0 62 18" fill="none" xmlns="http://www.w3.org/2000/svg">
<path d="M4.43025 10.7454H6.87769L6.47851 6.94991L4.43025 10.7454ZM5.83066 4.74461H8.10795L9.47563 14.3904H7.28996L7.08709 12.4076H3.53373L2.44744 14.3904H0.340285L5.83066 4.74461ZM12.7539 12.1131C12.7233 12.4446 12.7604 12.6802 12.8651 12.8198C13.0396 13.0685 13.4388 13.1928 14.0627 13.1928C14.4291 13.1928 14.7323 13.1383 14.9723 13.0292C15.2122 12.9202 15.3562 12.7566 15.4042 12.5384C15.4478 12.329 15.3933 12.1698 15.2406 12.0607C15.0879 11.9517 14.4793 11.7641 13.4148 11.498C12.6514 11.2973 12.1366 11.0464 11.8705 10.7454C11.6 10.4487 11.5258 10.0212 11.648 9.46279C11.7876 8.80403 12.1649 8.23907 12.7801 7.76791C13.3996 7.29238 14.1783 7.05462 15.1163 7.05462C16.0062 7.05462 16.6933 7.23349 17.1776 7.59122C17.6618 7.94459 17.8538 8.55754 17.7535 9.43007H15.8884C15.9103 9.19013 15.8819 9.00035 15.8034 8.86075C15.6507 8.60771 15.3278 8.4812 14.8349 8.4812C14.4291 8.4812 14.1259 8.54446 13.9253 8.67097C13.7289 8.79749 13.6133 8.94582 13.5784 9.11596C13.5304 9.32973 13.5893 9.4846 13.7551 9.58058C13.9165 9.68092 14.5273 9.85325 15.5874 10.0976C16.2898 10.2721 16.7893 10.536 17.086 10.8894C17.3783 11.2471 17.4677 11.6943 17.3543 12.2309C17.2016 12.9376 16.8155 13.5157 16.196 13.965C15.5765 14.41 14.7171 14.6325 13.6177 14.6325C12.4965 14.6325 11.7178 14.3969 11.2815 13.9258C10.8496 13.4502 10.71 12.846 10.8627 12.1131H12.7539ZM20.5736 4.77732H22.4059L21.3 9.97322L24.1924 7.2902H26.5025L23.4268 10.019L25.0955 14.3904H22.8444L21.7843 11.3409L20.8354 12.1458L20.3642 14.3904H18.5319L20.5736 4.77732Z" fill="white"/>
<path d="M31.0293 3.76839L28.3796 14.1314H31.4709L34.1205 3.76839H31.0293Z" fill="white"/>
<path d="M58.4088 7.62939e-05L54.4343 14.1315H57.5256L61.5 7.62939e-05H58.4088Z" fill="white"/>
<path d="M31.9125 7.62939e-05L31.0293 2.82635H34.1205L35.0037 7.62939e-05H31.9125Z" fill="white"/>
<path d="M34.5621 10.3631L33.2373 14.1315H36.3285L37.6534 10.3631H34.5621Z" fill="white"/>
<path fill-rule="evenodd" clip-rule="evenodd" d="M45.5866 6.10986C46.4709 3.07783 44.3468 7.62939e-05 41.3699 7.62939e-05H41.1316C39.1211 7.62939e-05 37.3445 1.39515 36.7473 3.44278L35.0037 9.421H41.3699C43.3035 9.421 45.0122 8.07924 45.5866 6.10986ZM38.6029 6.59472H41.3699C42.1433 6.59472 42.8268 6.05802 43.0566 5.27027C43.4103 4.05746 42.5607 2.82635 41.3699 2.82635H41.1316C40.2813 2.82635 39.5299 3.41637 39.2773 4.28237L38.6029 6.59472Z" fill="white"/>
<path fill-rule="evenodd" clip-rule="evenodd" d="M51.1389 11.304H49.7719C48.5886 11.304 47.7399 10.0873 48.0799 8.87843C48.3027 8.08627 48.9937 7.53566 49.7785 7.53566C50.9895 7.53566 51.8486 8.7807 51.5068 9.99593L51.1389 11.304ZM53.1103 14.1303L54.0447 10.8081C54.8995 7.76849 52.7536 4.70938 49.7785 4.70938C47.8284 4.70938 46.1024 6.07385 45.5421 8.0663C44.692 11.0886 46.8137 14.1303 49.7719 14.1303H53.1103Z" fill="white"/>
</svg>
