<svg width="31" height="23" viewBox="0 0 31 23" fill="none" xmlns="http://www.w3.org/2000/svg">
<path d="M24.18 4.5H7.5C6.39543 4.5 5.5 5.39543 5.5 6.5V15.75C5.5 16.8546 6.39543 17.75 7.5 17.75H24.18C25.2846 17.75 26.18 16.8546 26.18 15.75V6.5C26.18 5.39543 25.2846 4.5 24.18 4.5Z" stroke="#3F5EF5"/>
<path d="M8 8.5H12.5" stroke="#3F5EF5" stroke-linecap="round" stroke-linejoin="round"/>
<path d="M8 14.5H11" stroke="#3F5EF5" stroke-linecap="round" stroke-linejoin="round"/>
<path d="M14 14.5H17" stroke="#3F5EF5" stroke-linecap="round" stroke-linejoin="round"/>
<path d="M20 14.5H23" stroke="#3F5EF5" stroke-linecap="round" stroke-linejoin="round"/>
<path d="M8 11.5H23" stroke="#3F5EF5" stroke-linecap="round" stroke-linejoin="round"/>
<mask id="mask0" mask-type="alpha" maskUnits="userSpaceOnUse" x="19" y="6" width="5" height="4">
<path d="M22.1952 6C21.903 6 21.6351 6.0828 21.4013 6.21918C21.1578 6.07793 20.885 6 20.5976 6C19.716 6 19 6.71599 19 7.59759C19 8.4792 19.716 9.19519 20.5976 9.19519C20.885 9.19519 21.1578 9.11726 21.4013 8.97601C21.6351 9.11239 21.903 9.19519 22.1952 9.19519C23.0768 9.19519 23.7928 8.4792 23.7928 7.59759C23.7928 6.71599 23.0768 6 22.1952 6ZM20.8022 8.36717C20.734 8.38665 20.6658 8.39639 20.5976 8.39639C20.1593 8.39639 19.7988 8.03596 19.7988 7.59759C19.7988 7.15923 20.1593 6.7988 20.5976 6.7988C20.6658 6.7988 20.7389 6.81341 20.8022 6.82802C20.6756 7.05694 20.5976 7.31509 20.5976 7.59759C20.5976 7.8801 20.6756 8.13824 20.8022 8.36717ZM22.1952 8.39639C21.7569 8.39639 21.3964 8.03596 21.3964 7.59759C21.3964 7.15923 21.7569 6.7988 22.1952 6.7988C22.6336 6.7988 22.994 7.15923 22.994 7.59759C22.994 8.03596 22.6336 8.39639 22.1952 8.39639Z" fill="white"/>
</mask>
<g mask="url(#mask0)">
<path d="M21.4013 6.21918L20.8995 7.08418C21.2106 7.26461 21.5946 7.26415 21.9052 7.08296L21.4013 6.21918ZM21.4013 8.97601L21.9052 8.11223C21.5946 7.93104 21.2106 7.93058 20.8995 8.11101L21.4013 8.97601ZM20.8022 8.36717L21.0768 9.32872C21.3699 9.24501 21.6088 9.03224 21.7257 8.75079C21.8426 8.46934 21.8248 8.14994 21.6773 7.88323L20.8022 8.36717ZM20.8022 6.82802L21.6773 7.31197C21.8292 7.03737 21.8433 6.70741 21.7155 6.42081C21.5878 6.13421 21.3329 5.92421 21.0271 5.85364L20.8022 6.82802ZM22.1952 5C21.7084 5 21.2682 5.13911 20.8974 5.3554L21.9052 7.08296C22.002 7.02649 22.0976 7 22.1952 7V5ZM21.9031 5.35418C21.515 5.12904 21.0701 5 20.5976 5V7C20.6999 7 20.8006 7.02682 20.8995 7.08418L21.9031 5.35418ZM20.5976 5C19.1637 5 18 6.1637 18 7.59759H20C20 7.26828 20.2683 7 20.5976 7V5ZM18 7.59759C18 9.03149 19.1637 10.1952 20.5976 10.1952V8.19519C20.2683 8.19519 20 7.92691 20 7.59759H18ZM20.5976 10.1952C21.0701 10.1952 21.515 10.0662 21.9031 9.84101L20.8995 8.11101C20.8007 8.16837 20.6999 8.19519 20.5976 8.19519V10.1952ZM20.8974 9.83979C21.2682 10.0561 21.7084 10.1952 22.1952 10.1952V8.19519C22.0976 8.19519 22.002 8.1687 21.9052 8.11223L20.8974 9.83979ZM22.1952 10.1952C23.6291 10.1952 24.7928 9.03149 24.7928 7.59759H22.7928C22.7928 7.92691 22.5245 8.19519 22.1952 8.19519V10.1952ZM24.7928 7.59759C24.7928 6.1637 23.6291 5 22.1952 5V7C22.5245 7 22.7928 7.26828 22.7928 7.59759H24.7928ZM20.5276 7.40563C20.5451 7.40062 20.5693 7.39639 20.5976 7.39639V9.39639C20.7623 9.39639 20.9229 9.37268 21.0768 9.32872L20.5276 7.40563ZM20.5976 7.39639C20.7115 7.39639 20.7988 7.48362 20.7988 7.59759H18.7988C18.7988 8.5883 19.6071 9.39639 20.5976 9.39639V7.39639ZM20.7988 7.59759C20.7988 7.71158 20.7115 7.7988 20.5976 7.7988V5.7988C19.6071 5.7988 18.7988 6.60688 18.7988 7.59759H20.7988ZM20.5976 7.7988C20.5794 7.7988 20.5659 7.79785 20.5582 7.79714C20.5503 7.79642 20.546 7.79572 20.5458 7.7957C20.5456 7.79567 20.548 7.79605 20.5536 7.79719C20.5593 7.79834 20.5668 7.79997 20.5773 7.8024L21.0271 5.85364C20.9571 5.83748 20.7884 5.7988 20.5976 5.7988V7.7988ZM19.9271 6.34407C19.7294 6.70156 19.5976 7.12476 19.5976 7.59759H21.5976C21.5976 7.50542 21.6218 7.41232 21.6773 7.31197L19.9271 6.34407ZM19.5976 7.59759C19.5976 8.07043 19.7294 8.49362 19.9271 8.85111L21.6773 7.88323C21.6218 7.78286 21.5976 7.68977 21.5976 7.59759H19.5976ZM22.1952 7.39639C22.3091 7.39639 22.3964 7.48362 22.3964 7.59759H20.3964C20.3964 8.5883 21.2047 9.39639 22.1952 9.39639V7.39639ZM22.3964 7.59759C22.3964 7.71158 22.3091 7.7988 22.1952 7.7988V5.7988C21.2047 5.7988 20.3964 6.60688 20.3964 7.59759H22.3964ZM22.1952 7.7988C22.0813 7.7988 21.994 7.7115 21.994 7.59759H23.994C23.994 6.60696 23.1859 5.7988 22.1952 5.7988V7.7988ZM21.994 7.59759C21.994 7.4837 22.0813 7.39639 22.1952 7.39639V9.39639C23.1859 9.39639 23.994 8.58822 23.994 7.59759H21.994Z" fill="#3F5EF5"/>
</g>
</svg>
