<svg width="23" height="24" viewBox="0 0 23 24" fill="none" xmlns="http://www.w3.org/2000/svg">
<path d="M11.4854 23.991C7.9388 23.991 4.39224 23.9855 0.845613 24C0.504276 24.0014 0.354213 23.9016 0.273097 23.5744C-0.0170353 22.4045 -0.188247 21.2455 0.350592 20.0941C0.856332 19.0135 1.72296 18.2977 2.72083 17.7217C4.57982 16.6486 6.59438 16.0123 8.68853 15.5984C8.93174 15.5504 9.02995 15.6353 9.14735 15.8165C9.73239 16.7201 10.3297 17.6158 10.9228 18.5142C10.9828 18.605 11.0389 18.6988 11.1041 18.7859C11.4069 19.1904 11.6273 19.1858 11.9067 18.7653C12.3217 18.1408 12.7328 17.5137 13.1452 16.8874C13.3979 16.5035 13.6413 16.1129 13.9089 15.74C13.9686 15.6569 14.1252 15.5748 14.216 15.5939C16.5545 16.0854 18.8011 16.8273 20.817 18.1535C21.811 18.8075 22.5972 19.649 22.889 20.8477C23.1386 21.8729 22.9378 22.868 22.58 23.8335C22.5475 23.9214 22.3299 23.9836 22.1978 23.9845C20.4246 23.9943 18.6513 23.991 16.8779 23.991H11.4854ZM11.5032 21.074C11.4031 20.9294 11.3401 20.8418 11.2805 20.7518C10.4717 19.5316 9.66561 18.3097 8.85395 17.0914C8.52804 16.6024 8.41166 16.5639 7.86376 16.7113C7.60803 16.7802 7.35028 16.8426 7.0957 16.9157C5.58333 17.349 4.10414 17.8688 2.80781 18.7906C1.58029 19.6634 0.642173 20.7009 0.957292 22.3914C1.06281 22.9573 1.1293 23.0453 1.69704 23.0453H20.9092C20.9816 23.0453 21.2459 23.0374 21.3071 23.0369C21.73 23.0333 21.9125 22.8847 21.959 22.678C22.146 21.8211 22.2103 20.9376 21.5888 20.2239C21.1254 19.6916 20.6063 19.1823 20.0311 18.7791C18.7027 17.8476 17.1868 17.3092 15.6341 16.8851C14.4496 16.5616 14.6277 16.3515 13.8498 17.5278C13.077 18.6967 12.3033 19.8652 11.5032 21.074ZM13.9195 13.8716C13.0447 14.4819 12.0794 14.7465 11.0445 14.6189C8.50211 14.3053 7.03146 12.4866 6.49943 10.3392C6.43838 10.093 6.39702 9.84128 6.35712 9.59045C6.30722 9.27662 6.12949 9.12763 5.81545 9.12858C5.18775 9.13047 4.55976 9.11658 3.93264 9.13505C3.67821 9.14262 3.60086 9.04339 3.5766 8.80929C3.33999 6.52912 3.7741 4.44049 5.3187 2.67528C6.23291 1.63057 7.38127 0.920414 8.68513 0.494554C11.7422 -0.504041 14.5575 0.00555027 17.0334 2.06036C18.5465 3.31597 19.3066 5.01009 19.4413 6.97658C19.4954 7.76843 19.4346 8.55679 19.1514 9.30324C18.7869 10.2642 18.0189 10.8197 17.1148 11.2027C15.4689 11.8997 13.7606 12.0481 12.0074 11.7468C11.9413 11.7312 11.8709 11.7069 11.7937 11.6837C11.5557 11.5972 11.3942 11.3937 11.4772 11.1603C11.5568 10.9366 11.7594 10.9284 11.9208 10.9481C12.1336 10.9675 12.1951 10.9944 12.3903 11.0209C13.8106 11.214 15.2227 11.1918 16.54 10.5674C18.166 9.79676 19.0124 8.46738 18.5493 6.54083C17.8834 3.77041 16.1828 1.89704 13.499 1.10112C10.6286 0.249907 8.09972 1.04823 6.00542 3.20525C5.16776 4.06795 4.56642 5.06502 4.36964 6.26177C4.28245 6.79253 4.29679 7.34286 4.29592 7.88439C4.29548 8.20229 4.49776 8.35644 4.81658 8.3523C5.1183 8.34837 5.42009 8.35062 5.72188 8.34946C6.14209 8.34793 6.29831 8.20484 6.35842 7.78087C6.5452 6.46234 7.04414 5.277 7.959 4.30809C10.3278 1.79927 14.3848 2.47545 15.951 5.62429C16.2694 6.26468 16.5387 6.96684 16.6216 7.70332C16.5157 7.71482 16.4164 7.71373 16.3342 7.717C15.9902 7.73068 15.8444 7.64796 15.761 7.26808C15.4906 6.03742 14.7954 5.05985 13.7975 4.30634C12.2018 3.10151 10.1096 3.31313 8.61061 4.81775C6.14875 7.28896 6.65094 11.645 9.59927 13.3738C10.1617 13.7037 10.7695 13.8755 11.425 13.8724C12.2566 13.8686 13.0881 13.8716 13.9195 13.8716Z" fill="#F37E20"/>
</svg>
