<svg width="25" height="18" viewBox="0 0 25 18" fill="none" xmlns="http://www.w3.org/2000/svg">
<path d="M7.66962 4.73828H3.32422V5.60842H7.66962V4.73828Z" fill="#F37E20"/>
<path d="M18.9762 9H3.32422V9.87014H18.9762V9Z" fill="#F37E20"/>
<path d="M5.93464 12.5625H3.32422V13.4326H5.93464V12.5625Z" fill="#F37E20"/>
<path d="M10.2784 12.5625H7.66797V13.4326H10.2784V12.5625Z" fill="#F37E20"/>
<path d="M14.63 12.5625H12.0195V13.4326H14.63V12.5625Z" fill="#F37E20"/>
<path d="M19.4815 4C19.1632 4 18.8714 4.0902 18.6167 4.23876C18.3514 4.08489 18.0543 4 17.7413 4C16.7809 4 16.001 4.77994 16.001 5.74028C16.001 6.70062 16.7809 7.48057 17.7413 7.48057C18.0543 7.48057 18.3514 7.39567 18.6167 7.24181C18.8714 7.39037 19.1632 7.48057 19.4815 7.48057C20.4419 7.48057 21.2218 6.70062 21.2218 5.74028C21.2218 4.77994 20.4419 4 19.4815 4ZM17.9641 6.57859C17.8898 6.59981 17.8155 6.61043 17.7413 6.61043C17.2637 6.61043 16.8711 6.2178 16.8711 5.74028C16.8711 5.26277 17.2637 4.87014 17.7413 4.87014C17.8155 4.87014 17.8951 4.88606 17.9641 4.90198C17.8262 5.15135 17.7413 5.43255 17.7413 5.74028C17.7413 6.04802 17.8262 6.32922 17.9641 6.57859ZM19.4815 6.61043C19.004 6.61043 18.6114 6.2178 18.6114 5.74028C18.6114 5.26277 19.004 4.87014 19.4815 4.87014C19.9591 4.87014 20.3517 5.26277 20.3517 5.74028C20.3517 6.2178 19.9591 6.61043 19.4815 6.61043Z" fill="#F37E20"/>
<rect x="0.714844" y="0.921875" width="23.619" height="15.746" rx="2" stroke="#F37E20"/>
</svg>
