<svg width="26" height="17" viewBox="0 0 26 17" fill="none" xmlns="http://www.w3.org/2000/svg">
<path d="M7.84638 4.36865H3.50098V5.23879H7.84638V4.36865Z" fill="#AD1E23"/>
<path d="M19.1529 8.63037H3.50098V9.50052H19.1529V8.63037Z" fill="#AD1E23"/>
<path d="M6.1114 12.1938H3.50098V13.064H6.1114V12.1938Z" fill="#AD1E23"/>
<path d="M10.4561 12.1938H7.8457V13.064H10.4561V12.1938Z" fill="#AD1E23"/>
<path d="M14.8057 12.1938H12.1953V13.064H14.8057V12.1938Z" fill="#AD1E23"/>
<path d="M19.6573 3.63037C19.339 3.63037 19.0472 3.72057 18.7925 3.86913C18.5272 3.71526 18.2301 3.63037 17.917 3.63037C16.9567 3.63037 16.1768 4.41032 16.1768 5.37065C16.1768 6.33099 16.9567 7.11094 17.917 7.11094C18.2301 7.11094 18.5272 7.02605 18.7925 6.87218C19.0472 7.02074 19.339 7.11094 19.6573 7.11094C20.6177 7.11094 21.3976 6.33099 21.3976 5.37065C21.3976 4.41032 20.6177 3.63037 19.6573 3.63037ZM18.1399 6.20896C18.0656 6.23018 17.9913 6.2408 17.917 6.2408C17.4395 6.2408 17.0469 5.84817 17.0469 5.37065C17.0469 4.89314 17.4395 4.50051 17.917 4.50051C17.9913 4.50051 18.0709 4.51643 18.1399 4.53235C18.0019 4.78172 17.917 5.06292 17.917 5.37065C17.917 5.67839 18.0019 5.95959 18.1399 6.20896ZM19.6573 6.2408C19.1798 6.2408 18.7872 5.84817 18.7872 5.37065C18.7872 4.89314 19.1798 4.50051 19.6573 4.50051C20.1348 4.50051 20.5275 4.89314 20.5275 5.37065C20.5275 5.84817 20.1348 6.2408 19.6573 6.2408Z" fill="#AD1E23"/>
<rect x="0.891602" y="0.550293" width="23.619" height="15.746" rx="2" stroke="#AD1E23"/>
</svg>
