<svg width="25" height="18" viewBox="0 0 25 18" fill="none" xmlns="http://www.w3.org/2000/svg">
<path d="M7.64521 5.15894H3.2998V6.02908H7.64521V5.15894Z" fill="#AD1E23"/>
<path d="M18.9517 9.42065H3.2998V10.2908H18.9517V9.42065Z" fill="#AD1E23"/>
<path d="M5.91023 12.9841H3.2998V13.8543H5.91023V12.9841Z" fill="#AD1E23"/>
<path d="M10.255 12.9841H7.64453V13.8543H10.255V12.9841Z" fill="#AD1E23"/>
<path d="M14.6046 12.9841H11.9941V13.8543H14.6046V12.9841Z" fill="#AD1E23"/>
<path d="M19.4562 4.42065C19.1378 4.42065 18.846 4.51085 18.5913 4.65941C18.326 4.50555 18.0289 4.42065 17.7159 4.42065C16.7555 4.42065 15.9756 5.2006 15.9756 6.16094C15.9756 7.12128 16.7555 7.90122 17.7159 7.90122C18.0289 7.90122 18.326 7.81633 18.5913 7.66246C18.846 7.81102 19.1378 7.90122 19.4562 7.90122C20.4165 7.90122 21.1964 7.12128 21.1964 6.16094C21.1964 5.2006 20.4165 4.42065 19.4562 4.42065ZM17.9387 6.99924C17.8644 7.02047 17.7902 7.03108 17.7159 7.03108C17.2384 7.03108 16.8457 6.63845 16.8457 6.16094C16.8457 5.68342 17.2384 5.2908 17.7159 5.2908C17.7902 5.2908 17.8697 5.30671 17.9387 5.32263C17.8008 5.572 17.7159 5.8532 17.7159 6.16094C17.7159 6.46867 17.8008 6.74988 17.9387 6.99924ZM19.4562 7.03108C18.9786 7.03108 18.586 6.63845 18.586 6.16094C18.586 5.68342 18.9786 5.2908 19.4562 5.2908C19.9337 5.2908 20.3263 5.68342 20.3263 6.16094C20.3263 6.63845 19.9337 7.03108 19.4562 7.03108Z" fill="#AD1E23"/>
<rect x="0.69043" y="1.34058" width="23.619" height="15.746" rx="2" stroke="#AD1E23"/>
</svg>
