<svg width="26" height="18" viewBox="0 0 26 18" fill="none" xmlns="http://www.w3.org/2000/svg">
<path d="M7.84638 5.18311H3.50098V6.05325H7.84638V5.18311Z" fill="#F37E20"/>
<path d="M19.1529 9.44482H3.50098V10.315H19.1529V9.44482Z" fill="#F37E20"/>
<path d="M6.1114 13.0083H3.50098V13.8784H6.1114V13.0083Z" fill="#F37E20"/>
<path d="M10.4561 13.0083H7.8457V13.8784H10.4561V13.0083Z" fill="#F37E20"/>
<path d="M14.8057 13.0083H12.1953V13.8784H14.8057V13.0083Z" fill="#F37E20"/>
<path d="M19.6573 4.44482C19.339 4.44482 19.0472 4.53502 18.7925 4.68358C18.5272 4.52972 18.2301 4.44482 17.917 4.44482C16.9567 4.44482 16.1768 5.22477 16.1768 6.18511C16.1768 7.14545 16.9567 7.92539 17.917 7.92539C18.2301 7.92539 18.5272 7.8405 18.7925 7.68663C19.0472 7.83519 19.339 7.92539 19.6573 7.92539C20.6177 7.92539 21.3976 7.14545 21.3976 6.18511C21.3976 5.22477 20.6177 4.44482 19.6573 4.44482ZM18.1399 7.02341C18.0656 7.04464 17.9913 7.05525 17.917 7.05525C17.4395 7.05525 17.0469 6.66262 17.0469 6.18511C17.0469 5.70759 17.4395 5.31497 17.917 5.31497C17.9913 5.31497 18.0709 5.33088 18.1399 5.3468C18.0019 5.59617 17.917 5.87737 17.917 6.18511C17.917 6.49284 18.0019 6.77405 18.1399 7.02341ZM19.6573 7.05525C19.1798 7.05525 18.7872 6.66262 18.7872 6.18511C18.7872 5.70759 19.1798 5.31497 19.6573 5.31497C20.1348 5.31497 20.5275 5.70759 20.5275 6.18511C20.5275 6.66262 20.1348 7.05525 19.6573 7.05525Z" fill="#F37E20"/>
<rect x="0.891602" y="1.36475" width="23.619" height="15.746" rx="2" stroke="#F37E20"/>
</svg>
