<svg width="26" height="30" viewBox="0 0 26 30" fill="none" xmlns="http://www.w3.org/2000/svg">
<path d="M8.89181 24.5H17.0771L17.0769 27.4365V27.4365C17.0769 27.8663 16.9041 28.2558 16.6244 28.5457C16.3369 28.8274 15.9522 29 15.5295 29H10.431C9.58886 29 8.89162 28.3055 8.8916 27.4366C8.8916 27.4366 8.8916 27.4365 8.8916 27.4365L8.89181 24.5Z" stroke="#AD1E23"/>
<path d="M1.62389 12.7227H1.03509C0.711256 12.7227 0.446289 12.9876 0.446289 13.3115C0.446289 13.6353 0.711256 13.9003 1.03509 13.9003H1.62389C1.94775 13.9003 2.21269 13.6353 2.21269 13.3115C2.21269 12.9876 1.94775 12.7227 1.62389 12.7227Z" fill="#AD1E23"/>
<path d="M24.9354 12.7227H24.3466C24.0169 12.7227 23.7578 12.9876 23.7578 13.3115C23.7578 13.6353 24.0169 13.9003 24.3466 13.9003H24.9354C25.2592 13.9003 25.5242 13.6353 25.5242 13.3115C25.5242 12.9876 25.2592 12.7227 24.9354 12.7227Z" fill="#AD1E23"/>
<path d="M4.12047 4.44201C3.89083 4.67165 3.89083 5.04849 4.12047 5.27809L4.5385 5.69026C4.65037 5.80802 4.80346 5.86689 4.95066 5.86689C5.10376 5.86689 5.25096 5.80802 5.36872 5.69026C5.59833 5.46065 5.59833 5.08971 5.36872 4.86007L4.95066 4.44201C4.72102 4.21237 4.35008 4.21237 4.12047 4.44201Z" fill="#AD1E23"/>
<path d="M4.27881 13.4961L4.27881 13.4962C4.23982 15.6293 4.98046 17.6944 6.36624 19.3084L6.36789 19.3103L6.56604 19.5435L6.56805 19.5458L6.60344 19.5869C7.51701 20.6484 8.19071 21.4311 8.49568 22.5668H17.4657C17.7688 21.4117 18.4544 20.6052 19.5025 19.426C20.9114 17.8331 21.6906 15.7843 21.6906 13.6578C21.6906 11.2675 20.7449 9.04261 19.0238 7.38841L19.0232 7.38783C17.3025 5.72835 15.0444 4.87121 12.6472 4.96042L4.27881 13.4961ZM4.27881 13.4961C4.36231 8.88583 8.03748 5.13306 12.6471 4.96042L4.27881 13.4961Z" stroke="#AD1E23"/>
<path d="M21.019 4.44201L20.6009 4.86007C20.3713 5.08971 20.3713 5.46065 20.6009 5.69026C20.7128 5.80802 20.8659 5.86689 21.019 5.86689C21.1662 5.86689 21.3193 5.80802 21.4311 5.69026L21.8492 5.27809C22.0788 5.04849 22.0788 4.67165 21.8492 4.44201C21.6196 4.21237 21.2486 4.21237 21.019 4.44201Z" fill="#AD1E23"/>
<path d="M12.3926 0.588799V1.1776C12.3926 1.50143 12.6575 1.7664 12.9814 1.7664C13.3111 1.7664 13.5702 1.50143 13.5702 1.1776V0.588799C13.5702 0.259073 13.3111 0 12.9814 0C12.6575 0 12.3926 0.259073 12.3926 0.588799Z" fill="#AD1E23"/>
<path d="M12.8227 21.6616V15.4731M12.8227 15.4731L10.1152 12.7656H15.917L12.8227 15.4731Z" stroke="#AD1E23" stroke-linecap="round" stroke-linejoin="round"/>
</svg>
