<svg width="63" height="52" viewBox="0 0 63 52" fill="none" xmlns="http://www.w3.org/2000/svg">
<path d="M49.1347 7.72096H62.4997C62.4997 4.67631 60.1835 1.02273 55.2238 1.02294M49.1347 7.72096C48.6475 1.87565 52.9911 0.820065 55.2238 1.02294M49.1347 7.72096V44.8642C49.3377 46.8939 48.4042 50.9533 43.0458 50.9533M55.2238 1.02294C44.6693 1.02294 22.7078 1.02294 19.2979 1.02294C15.888 1.02294 15.0355 3.45838 15.0355 4.6761V16.2064M43.0458 50.9533C37.6874 50.9533 36.3478 46.8939 36.3478 44.8642H15.0355M43.0458 50.9533H14.427C10.0428 49.9791 9.35275 46.488 9.55572 44.8642H15.0355M15.0355 44.8642V33.8648" stroke="#7C7C7C"/>
<path d="M21.0938 12.5529H28.4007M22.3116 16.8153H42.4056M25.965 21.6866H42.4056M27.1829 25.9489H42.4056M25.3561 30.8202H42.4056M21.0938 36.3004H42.4056" stroke="#7C7C7C" stroke-linecap="round" stroke-linejoin="round"/>
<path d="M17.0871 34.2427C11.9719 33.7971 8.18654 29.2891 8.63219 24.1739C9.07785 19.0587 13.5858 15.2733 18.701 15.7189C23.8162 16.1646 27.6016 20.6726 27.156 25.7878C26.7103 30.903 22.2023 34.6884 17.0871 34.2427Z" stroke="black" stroke-width="1.5" stroke-linecap="round" stroke-linejoin="round"/>
<path d="M11.3516 31.4288L1.00019 41.0703" stroke="black" stroke-width="1.5" stroke-linecap="round" stroke-linejoin="round"/>
<path d="M21 21.9209L15 27.9209M15 21.9209L21 27.9209" stroke="black" stroke-width="1.5" stroke-linecap="round" stroke-linejoin="round"/>
</svg>
