<svg width="16" height="28" viewBox="0 0 16 28" fill="none" xmlns="http://www.w3.org/2000/svg">
<rect x="1.37109" y="6.7749" width="14" height="17.5294" rx="4.5" stroke="#AD1E23"/>
<path d="M4.90041 18.1689C4.93612 17.4017 5.25509 16.6766 5.79281 16.1327C5.73474 16.3441 5.73738 16.5691 5.80283 16.7813L5.82691 16.8594L5.87459 16.9257C5.98756 17.0829 6.15266 17.1437 6.24152 17.1691C6.35154 17.2006 6.47444 17.2139 6.60456 17.2139C6.60596 17.2139 6.60824 17.214 6.61134 17.2141C6.66256 17.2158 6.93648 17.2251 7.14343 17.0159C7.34437 16.8128 7.36912 16.5276 7.36912 16.3168V16.2668L7.35923 16.2179C7.29357 15.8926 7.15849 15.5854 6.96315 15.3171C6.68317 14.9171 6.51838 14.4478 6.48681 13.9606C6.48986 13.4433 6.65278 12.7665 6.98592 12.2064C7.31208 11.658 7.76376 11.2776 8.335 11.1944C8.04008 11.3927 7.8408 11.7068 7.78825 12.0606L7.78282 12.0971V12.1341C7.78282 12.647 8.05003 13.0671 8.35348 13.4042C8.65328 13.7373 9.05259 14.058 9.43635 14.3663L9.44965 14.3769C9.44967 14.377 9.44968 14.377 9.4497 14.377C9.44975 14.377 9.4498 14.3771 9.44985 14.3771C10.618 15.3164 11.8416 16.3275 11.8416 18.1581C11.8416 18.995 11.5305 19.6242 10.9799 20.0568C10.4139 20.5015 9.54359 20.7772 8.37108 20.7772C7.19857 20.7772 6.32822 20.5015 5.76218 20.0568C5.21385 19.626 4.90307 19.0004 4.90041 18.1689ZM8.37604 11.1889C8.37606 11.1889 8.37608 11.1889 8.37611 11.1889L8.37558 11.1845L8.37538 11.1829L8.37394 11.1708C8.37441 11.1704 8.37492 11.17 8.37545 11.1696L8.3827 11.1801L8.38366 11.1814L8.66048 11.5804C8.45651 11.6974 8.31736 11.9016 8.28282 12.1341L8.37604 11.1889Z" stroke="#AD1E23"/>
<path d="M3.51855 23.9233V25.5704C3.51855 26.1227 3.96627 26.5704 4.51856 26.5704H12.2244C12.7767 26.5704 13.2244 26.1227 13.2244 25.5704V23.9233" stroke="#AD1E23"/>
<path d="M4.40039 7.1582V1.98173C4.40039 1.42945 4.84811 0.981732 5.40039 0.981732H11.3416C11.8939 0.981732 12.3416 1.42945 12.3416 1.98173V7.1582" stroke="#AD1E23"/>
<rect x="6.60622" y="3.18776" width="3.52941" height="0.882353" stroke="#AD1E23" stroke-width="0.882353"/>
</svg>
