<svg width="16" height="28" viewBox="0 0 16 28" fill="none" xmlns="http://www.w3.org/2000/svg">
<rect x="1.37109" y="7.23633" width="14" height="17.5294" rx="4.5" stroke="#F37E20"/>
<path d="M4.90041 18.6303C4.93612 17.8631 5.25509 17.138 5.79281 16.5941C5.73474 16.8055 5.73738 17.0305 5.80283 17.2427L5.82691 17.3208L5.87459 17.3871C5.98756 17.5443 6.15266 17.6051 6.24152 17.6306C6.35154 17.6621 6.47444 17.6753 6.60456 17.6753C6.60596 17.6753 6.60824 17.6754 6.61134 17.6755C6.66256 17.6773 6.93648 17.6865 7.14343 17.4773C7.34437 17.2742 7.36912 16.989 7.36912 16.7782V16.7283L7.35923 16.6793C7.29357 16.354 7.15849 16.0468 6.96315 15.7785C6.68317 15.3785 6.51838 14.9092 6.48681 14.422C6.48986 13.9048 6.65278 13.2279 6.98592 12.6678C7.31208 12.1195 7.76376 11.7391 8.335 11.6558C8.04008 11.8541 7.8408 12.1683 7.78825 12.522L7.78282 12.5585V12.5955C7.78282 13.1084 8.05003 13.5285 8.35348 13.8656C8.65328 14.1987 9.05259 14.5194 9.43635 14.8277L9.44965 14.8384C9.44967 14.8384 9.44968 14.8384 9.4497 14.8384C9.44975 14.8384 9.4498 14.8385 9.44985 14.8385C10.618 15.7779 11.8416 16.7889 11.8416 18.6195C11.8416 19.4564 11.5305 20.0856 10.9799 20.5182C10.4139 20.9629 9.54359 21.2386 8.37108 21.2386C7.19857 21.2386 6.32822 20.9629 5.76218 20.5182C5.21385 20.0874 4.90307 19.4618 4.90041 18.6303ZM8.37604 11.6504C8.37606 11.6504 8.37608 11.6504 8.37611 11.6504L8.37558 11.646L8.37538 11.6443L8.37394 11.6322C8.37441 11.6318 8.37492 11.6314 8.37545 11.631L8.3827 11.6415L8.38366 11.6429L8.66048 12.0418C8.45651 12.1588 8.31736 12.363 8.28282 12.5955L8.37604 11.6504Z" stroke="#F37E20"/>
<path d="M3.51855 24.3848V26.0318C3.51855 26.5841 3.96627 27.0318 4.51856 27.0318H12.2244C12.7767 27.0318 13.2244 26.5841 13.2244 26.0318V24.3848" stroke="#F37E20"/>
<path d="M4.40039 7.61963V2.44316C4.40039 1.89087 4.84811 1.44316 5.40039 1.44316H11.3416C11.8939 1.44316 12.3416 1.89087 12.3416 2.44316V7.61963" stroke="#F37E20"/>
<rect x="6.60622" y="3.64918" width="3.52941" height="0.882353" stroke="#F37E20" stroke-width="0.882353"/>
</svg>
