<svg width="16" height="27" viewBox="0 0 16 27" fill="none" xmlns="http://www.w3.org/2000/svg">
<rect x="1.44141" y="6.56543" width="14" height="17.5294" rx="4.5" stroke="#AD1E23"/>
<path d="M4.97072 17.9594C5.00643 17.1922 5.32541 16.4671 5.86313 15.9232C5.80505 16.1346 5.80769 16.3596 5.87314 16.5718L5.89722 16.6499L5.9449 16.7162C6.05787 16.8734 6.22297 16.9342 6.31183 16.9597C6.42185 16.9912 6.54475 17.0044 6.67487 17.0044C6.67627 17.0044 6.67856 17.0045 6.68165 17.0046C6.73287 17.0064 7.00679 17.0156 7.21374 16.8064C7.41469 16.6033 7.43943 16.3181 7.43943 16.1073V16.0574L7.42955 16.0084C7.36388 15.6831 7.22881 15.3759 7.03346 15.1076C6.75348 14.7076 6.5887 14.2383 6.55712 13.7511C6.56017 13.2339 6.7231 12.557 7.05623 11.9969C7.38239 11.4486 7.83407 11.0682 8.40531 10.9849C8.11039 11.1832 7.91111 11.4974 7.85856 11.8511L7.85314 11.8877V11.9246C7.85314 12.4375 8.12034 12.8576 8.42379 13.1947C8.72359 13.5278 9.1229 13.8485 9.50666 14.1568L9.51997 14.1675C9.51998 14.1675 9.51999 14.1675 9.52001 14.1675C9.52006 14.1675 9.52011 14.1676 9.52016 14.1676C10.6884 15.107 11.9119 16.118 11.9119 17.9486C11.9119 18.7855 11.6008 19.4147 11.0502 19.8473C10.4842 20.292 9.6139 20.5677 8.44139 20.5677C7.26888 20.5677 6.39853 20.292 5.83249 19.8473C5.28416 19.4165 4.97339 18.7909 4.97072 17.9594ZM8.44635 10.9795C8.44637 10.9795 8.44639 10.9795 8.44642 10.9795L8.44589 10.9751L8.44569 10.9734L8.44425 10.9613C8.44472 10.9609 8.44523 10.9605 8.44577 10.9601L8.45302 10.9706L8.45397 10.972L8.7308 11.3709C8.52682 11.4879 8.38767 11.6921 8.35314 11.9246L8.44635 10.9795Z" stroke="#AD1E23"/>
<path d="M3.58887 23.7136V25.3607C3.58887 25.913 4.03658 26.3607 4.58887 26.3607H12.2947C12.847 26.3607 13.2947 25.913 13.2947 25.3607V23.7136" stroke="#AD1E23"/>
<path d="M4.4707 6.94897V1.7725C4.4707 1.22022 4.91842 0.772504 5.4707 0.772504H11.4119C11.9642 0.772504 12.4119 1.22022 12.4119 1.7725V6.94897" stroke="#AD1E23"/>
<rect x="6.67653" y="2.97829" width="3.52941" height="0.882353" stroke="#AD1E23" stroke-width="0.882353"/>
</svg>
