<svg width="101" height="30" viewBox="0 0 101 30" fill="none" xmlns="http://www.w3.org/2000/svg">
<path d="M97.0956 30H3.73444C1.64316 30 0 28.35 0 26.25V3.75C0 1.65 1.64316 0 3.73444 0H97.0956C99.1868 0 100.83 1.65 100.83 3.75V26.25C100.83 28.35 99.1868 30 97.0956 30Z" fill="black"/>
<path d="M97.0956 0.6C98.8134 0.6 100.232 2.025 100.232 3.75V26.25C100.232 27.975 98.8134 29.4 97.0956 29.4H3.73444C2.0166 29.4 0.597511 27.975 0.597511 26.25V3.75C0.597511 2.025 2.0166 0.6 3.73444 0.6H97.0956ZM97.0956 0H3.73444C1.64316 0 0 1.725 0 3.75V26.25C0 28.35 1.64316 30 3.73444 30H97.0956C99.1868 30 100.83 28.35 100.83 26.25V3.75C100.83 1.725 99.1868 0 97.0956 0Z" fill="black"/>
<path d="M35.4026 7.65005C35.4026 8.25005 35.2532 8.77505 34.8798 9.15005C34.4316 9.60005 33.9088 9.82505 33.2366 9.82505C32.5644 9.82505 32.0416 9.60005 31.5935 9.15005C31.1453 8.70005 30.9213 8.17505 30.9213 7.50005C30.9213 6.82505 31.1453 6.30005 31.5935 5.85005C32.0416 5.40005 32.5644 5.17505 33.2366 5.17505C33.5354 5.17505 33.8341 5.25005 34.1329 5.40005C34.4316 5.55005 34.6557 5.70005 34.8051 5.92505L34.4316 6.30005C34.1329 5.92505 33.7594 5.77505 33.2366 5.77505C32.7885 5.77505 32.3404 5.92505 32.0416 6.30005C31.6682 6.60005 31.5188 7.05005 31.5188 7.57505C31.5188 8.10005 31.6682 8.55005 32.0416 8.85005C32.415 9.15005 32.7885 9.37505 33.2366 9.37505C33.7594 9.37505 34.1329 9.22505 34.5063 8.85005C34.7304 8.62505 34.8798 8.32505 34.8798 7.95005H33.2366V7.35005H35.4026V7.65005V7.65005ZM38.8383 5.77505H36.8217V7.20005H38.6889V7.72505H36.8217V9.15005H38.8383V9.75005H36.2242V5.25005H38.8383V5.77505ZM41.303 9.75005H40.7055V5.77505H39.4358V5.25005H42.5727V5.77505H41.303V9.75005ZM44.7387 9.75005V5.25005H45.3362V9.75005H44.7387ZM47.8756 9.75005H47.2781V5.77505H46.0084V5.25005H49.0707V5.77505H47.801V9.75005H47.8756ZM54.9711 9.15005C54.523 9.60005 54.0001 9.82505 53.3279 9.82505C52.6557 9.82505 52.1329 9.60005 51.6848 9.15005C51.2366 8.70005 51.0126 8.17505 51.0126 7.50005C51.0126 6.82505 51.2366 6.30005 51.6848 5.85005C52.1329 5.40005 52.6557 5.17505 53.3279 5.17505C54.0001 5.17505 54.523 5.40005 54.9711 5.85005C55.4192 6.30005 55.6433 6.82505 55.6433 7.50005C55.6433 8.17505 55.4192 8.70005 54.9711 9.15005ZM52.1329 8.77505C52.4317 9.07505 52.8798 9.30005 53.3279 9.30005C53.7761 9.30005 54.2242 9.15005 54.523 8.77505C54.8217 8.47505 55.0458 8.02505 55.0458 7.50005C55.0458 6.97505 54.8964 6.52505 54.523 6.22505C54.2242 5.92505 53.7761 5.70005 53.3279 5.70005C52.8798 5.70005 52.4317 5.85005 52.1329 6.22505C51.8342 6.52505 51.6101 6.97505 51.6101 7.50005C51.6101 8.02505 51.7595 8.47505 52.1329 8.77505ZM56.4649 9.75005V5.25005H57.1371L59.303 8.77505V5.25005H59.9006V9.75005H59.303L56.9877 6.07505V9.75005H56.4649V9.75005Z" fill="white" stroke="white" stroke-width="0.162963" stroke-miterlimit="10"/>
<path d="M50.8631 16.35C49.0706 16.35 47.6515 17.7 47.6515 19.575C47.6515 21.375 49.0706 22.8 50.8631 22.8C52.6557 22.8 54.0748 21.45 54.0748 19.575C54.0748 17.625 52.6557 16.35 50.8631 16.35ZM50.8631 21.45C49.8922 21.45 49.0706 20.625 49.0706 19.5C49.0706 18.375 49.8922 17.55 50.8631 17.55C51.8341 17.55 52.6557 18.3 52.6557 19.5C52.6557 20.625 51.8341 21.45 50.8631 21.45ZM43.9171 16.35C42.1245 16.35 40.7055 17.7 40.7055 19.575C40.7055 21.375 42.1245 22.8 43.9171 22.8C45.7096 22.8 47.1287 21.45 47.1287 19.575C47.1287 17.625 45.7096 16.35 43.9171 16.35ZM43.9171 21.45C42.9461 21.45 42.1245 20.625 42.1245 19.5C42.1245 18.375 42.9461 17.55 43.9171 17.55C44.888 17.55 45.7096 18.3 45.7096 19.5C45.7096 20.625 44.888 21.45 43.9171 21.45ZM35.6266 17.325V18.675H38.8382C38.7635 19.425 38.4648 20.025 38.0913 20.4C37.6432 20.85 36.8963 21.375 35.6266 21.375C33.61 21.375 32.1162 19.8 32.1162 17.775C32.1162 15.75 33.6847 14.175 35.6266 14.175C36.6723 14.175 37.4938 14.625 38.0913 15.15L39.0623 14.175C38.2407 13.425 37.1951 12.825 35.7013 12.825C33.0125 12.825 30.6971 15.075 30.6971 17.775C30.6971 20.475 33.0125 22.725 35.7013 22.725C37.1951 22.725 38.2407 22.275 39.137 21.3C40.0333 20.4 40.332 19.125 40.332 18.15C40.332 17.85 40.332 17.55 40.2573 17.325H35.6266V17.325ZM69.5354 18.375C69.2366 17.625 68.4897 16.35 66.8466 16.35C65.2034 16.35 63.859 17.625 63.859 19.575C63.859 21.375 65.2034 22.8 66.9959 22.8C68.415 22.8 69.3113 21.9 69.6101 21.375L68.5644 20.625C68.191 21.15 67.7428 21.525 66.9959 21.525C66.2491 21.525 65.8009 21.225 65.4275 20.55L69.6847 18.75L69.5354 18.375V18.375ZM65.2034 19.425C65.2034 18.225 66.1744 17.55 66.8466 17.55C67.3694 17.55 67.8922 17.85 68.0416 18.225L65.2034 19.425ZM61.693 22.5H63.1121V13.125H61.693V22.5ZM59.4524 17.025C59.0789 16.65 58.4814 16.275 57.7345 16.275C56.1661 16.275 54.6723 17.7 54.6723 19.5C54.6723 21.3 56.0914 22.65 57.7345 22.65C58.4814 22.65 59.0789 22.275 59.3777 21.9H59.4524V22.35C59.4524 23.55 58.7802 24.225 57.7345 24.225C56.9129 24.225 56.3154 23.625 56.1661 23.1L54.971 23.625C55.3445 24.45 56.2407 25.5 57.8092 25.5C59.4524 25.5 60.7968 24.525 60.7968 22.2V16.5H59.4524V17.025V17.025ZM57.8092 21.45C56.8383 21.45 56.0167 20.625 56.0167 19.5C56.0167 18.375 56.8383 17.55 57.8092 17.55C58.7802 17.55 59.5271 18.375 59.5271 19.5C59.5271 20.625 58.7802 21.45 57.8092 21.45ZM76.0333 13.125H72.6723V22.5H74.0914V18.975H76.0333C77.6018 18.975 79.0955 17.85 79.0955 16.05C79.0955 14.25 77.6018 13.125 76.0333 13.125V13.125ZM76.108 17.625H74.0914V14.4H76.108C77.1536 14.4 77.7511 15.3 77.7511 15.975C77.6765 16.8 77.0789 17.625 76.108 17.625ZM84.6972 16.275C83.6516 16.275 82.6059 16.725 82.2325 17.7L83.5022 18.225C83.801 17.7 84.2491 17.55 84.7719 17.55C85.5188 17.55 86.191 18 86.2657 18.75V18.825C86.0416 18.675 85.4441 18.45 84.8466 18.45C83.5022 18.45 82.1578 19.2 82.1578 20.55C82.1578 21.825 83.2781 22.65 84.4731 22.65C85.4441 22.65 85.8922 22.2 86.2657 21.75H86.3404V22.5H87.6848V18.9C87.5354 17.25 86.2657 16.275 84.6972 16.275V16.275ZM84.5478 21.45C84.0997 21.45 83.4275 21.225 83.4275 20.625C83.4275 19.875 84.2491 19.65 84.9213 19.65C85.5188 19.65 85.8175 19.8 86.191 19.95C86.0416 20.85 85.2947 21.45 84.5478 21.45V21.45ZM92.3902 16.5L90.8217 20.55H90.747L89.1039 16.5H87.6101L90.0748 22.2L88.6557 25.35H90.0748L93.8839 16.5H92.3902V16.5ZM79.8424 22.5H81.2615V13.125H79.8424V22.5Z" fill="white"/>
<path d="M7.76763 5.625C7.54356 5.85 7.46887 6.225 7.46887 6.675V23.25C7.46887 23.7 7.61825 24.075 7.84232 24.3L7.91701 24.375L17.1784 15.075V14.925L7.76763 5.625Z" fill="url(#paint0_linear)"/>
<path d="M20.1659 18.2246L17.1036 15.1496V14.9246L20.1659 11.8496L20.2406 11.9246L23.9003 14.0246C24.946 14.6246 24.946 15.5996 23.9003 16.1996L20.1659 18.2246V18.2246Z" fill="url(#paint1_linear)"/>
<path d="M20.2407 18.15L17.1038 15L7.7677 24.375C8.14114 24.75 8.66397 24.75 9.33617 24.45L20.2407 18.15" fill="url(#paint2_linear)"/>
<path d="M20.2407 11.85L9.33617 5.62496C8.66397 5.24996 8.14114 5.32496 7.7677 5.69996L17.1038 15L20.2407 11.85V11.85Z" fill="url(#paint3_linear)"/>
<path opacity="0.2" d="M20.1661 18.075L9.33617 24.225C8.73866 24.6 8.21583 24.525 7.84239 24.225L7.7677 24.3L7.84239 24.375C8.21583 24.675 8.73866 24.75 9.33617 24.375L20.1661 18.075Z" fill="black"/>
<path opacity="0.2" d="M7.76763 24.225C7.54356 24 7.46887 23.625 7.46887 23.175V23.25C7.46887 23.7 7.61825 24.075 7.84232 24.3V24.225H7.76763ZM23.9004 15.975L20.166 18.075L20.2407 18.15L23.9004 16.05C24.4233 15.75 24.6473 15.375 24.6473 15C24.6473 15.375 24.3486 15.675 23.9004 15.975V15.975Z" fill="black"/>
<path opacity="0.2" d="M9.33609 5.69996L23.9004 14.025C24.3486 14.325 24.6473 14.625 24.6473 15C24.6473 14.625 24.4233 14.25 23.9004 13.95L9.33609 5.62496C8.29045 5.02496 7.46887 5.47496 7.46887 6.67496V6.74996C7.46887 5.62496 8.29045 5.09996 9.33609 5.69996Z" fill="white"/>
<defs>
<linearGradient id="paint0_linear" x1="16.2822" y1="6.5325" x2="3.69502" y2="19.0667" gradientUnits="userSpaceOnUse">
<stop stop-color="#00A0FF"/>
<stop offset="0.007" stop-color="#00A1FF"/>
<stop offset="0.26" stop-color="#00BEFF"/>
<stop offset="0.512" stop-color="#00D2FF"/>
<stop offset="0.76" stop-color="#00DFFF"/>
<stop offset="1" stop-color="#00E3FF"/>
</linearGradient>
<linearGradient id="paint1_linear" x1="25.2701" y1="15.0004" x2="7.19765" y2="15.0004" gradientUnits="userSpaceOnUse">
<stop stop-color="#FFE000"/>
<stop offset="0.409" stop-color="#FFBD00"/>
<stop offset="0.775" stop-color="#FFA500"/>
<stop offset="1" stop-color="#FF9C00"/>
</linearGradient>
<linearGradient id="paint2_linear" x1="18.5431" y1="16.722" x2="1.47471" y2="33.7196" gradientUnits="userSpaceOnUse">
<stop stop-color="#FF3A44"/>
<stop offset="1" stop-color="#C31162"/>
</linearGradient>
<linearGradient id="paint3_linear" x1="5.4501" y1="0.131962" x2="13.0723" y2="7.72253" gradientUnits="userSpaceOnUse">
<stop stop-color="#32A071"/>
<stop offset="0.069" stop-color="#2DA771"/>
<stop offset="0.476" stop-color="#15CF74"/>
<stop offset="0.801" stop-color="#06E775"/>
<stop offset="1" stop-color="#00F076"/>
</linearGradient>
</defs>
</svg>
