<svg width="31" height="31" viewBox="0 0 31 31" fill="none" xmlns="http://www.w3.org/2000/svg">
<circle cx="15.5" cy="15.5" r="14.75" stroke="#F37E20" stroke-width="1.5"/>
<path d="M17.1589 18.5321H14.724C14.7176 18.182 14.7144 17.9688 14.7144 17.8924C14.7144 17.103 14.8449 16.4537 15.1059 15.9444C15.3669 15.4352 15.8889 14.8623 16.6719 14.2257C17.4549 13.5891 17.9227 13.1722 18.0755 12.9748C18.3111 12.6629 18.4288 12.3192 18.4288 11.9436C18.4288 11.4216 18.2188 10.976 17.7986 10.6068C17.3848 10.2312 16.8247 10.0434 16.1181 10.0434C15.4369 10.0434 14.8672 10.2376 14.4089 10.6259C13.9505 11.0142 13.6354 11.6062 13.4635 12.4019L11 12.0964C11.07 10.9569 11.5538 9.98929 12.4514 9.19358C13.3553 8.39786 14.5394 8 16.0035 8C17.544 8 18.7694 8.40422 19.6797 9.21267C20.59 10.0148 21.0451 10.9505 21.0451 12.02C21.0451 12.612 20.8764 13.1722 20.5391 13.7005C20.208 14.2289 19.4951 14.9482 18.4002 15.8585C17.8336 16.3296 17.4803 16.7083 17.3403 16.9948C17.2066 17.2812 17.1461 17.7937 17.1589 18.5321ZM14.724 22.1415V19.4583H17.4071V22.1415H14.724Z" fill="#F37E20"/>
</svg>
