<svg width="25" height="25" viewBox="0 0 25 25" fill="none" xmlns="http://www.w3.org/2000/svg">
<path d="M13.8712 7.76316C14.4591 6.80151 15.2575 5.27587 15.4877 4.93819C15.6017 4.75574 15.6246 4.73293 15.5333 4.61889C15.4421 4.48205 15.2368 4.52767 15.0088 4.59609C14.5754 4.73293 14.0509 4.59609 13.4579 4.41363C12.2719 4.04872 10.5614 3.52416 9.87718 4.86977C9.80876 5.00661 9.85438 4.89258 9.99122 5.05223C10.2271 5.33234 10.9395 6.70842 11.5 7.64651" stroke="#333333" stroke-miterlimit="10"/>
<path d="M13.9825 8.01714C12.8421 7.26451 11.7018 7.58381 10.9947 8.01714C7.43684 10.1154 6 14.2206 6 16.2277C6 20.2873 8.9193 21.7926 12.5 21.7926C16.0807 21.7926 19 20.3329 19 16.2733C19 14.3347 17.4491 10.3435 13.9825 8.01714Z" stroke="#333333" stroke-miterlimit="10"/>
<path d="M11.4737 11.4154C12.5912 11.4154 13.5035 12.3277 13.5035 13.4452C13.5035 14.5628 12.5912 15.475 11.4737 15.475H10.7667L13.5263 18.6908" stroke="#333333" stroke-miterlimit="10" stroke-linecap="round" stroke-linejoin="round"/>
<path d="M10.493 11.461H14.7807" stroke="#333333" stroke-miterlimit="10" stroke-linecap="round" stroke-linejoin="round"/>
<path d="M10.493 13.2856H14.7807" stroke="#333333" stroke-miterlimit="10" stroke-linecap="round" stroke-linejoin="round"/>
</svg>
