<svg width="25" height="25" viewBox="0 0 25 25" fill="none" xmlns="http://www.w3.org/2000/svg">
<path d="M22 7.61538L8.89744 14.4872L2 10.8718L15.1026 4L22 7.61538Z" stroke="#333333" stroke-miterlimit="10" stroke-linecap="round" stroke-linejoin="round"/>
<path d="M22 10L18 12.0978M2 13.2564L8.89744 16.8718L14 14" stroke="#333333" stroke-miterlimit="10" stroke-linecap="round" stroke-linejoin="round"/>
<path d="M22 12.8205L18.1131 14.859M2 16.0769L8.89744 19.6923L14.2263 16.8976" stroke="#333333" stroke-miterlimit="10" stroke-linecap="round" stroke-linejoin="round"/>
<path d="M22 15.4103L8.89744 22.282L2 18.6667" stroke="#333333" stroke-miterlimit="10" stroke-linecap="round" stroke-linejoin="round"/>
<path d="M16.5 9.03777L18.3333 8.07692C17.9487 7.89744 17.8718 7.61538 18.3333 7.38462L15.5641 5.92308C15.1026 6.17949 14.5641 6.1282 14.1795 5.92308L12.2228 6.94855M13.1603 10.7881L9.82052 12.5385C9.35898 12.3077 8.82052 12.3333 8.4359 12.5385L5.66667 11.1026C6.05129 10.8974 6.12821 10.6154 5.66667 10.3846L8.94476 8.66658" stroke="#333333" stroke-miterlimit="10" stroke-linecap="round" stroke-linejoin="round"/>
<path d="M15.2564 7.25641V7.89744" stroke="#333333" stroke-miterlimit="10" stroke-linecap="round" stroke-linejoin="round"/>
<path d="M8.74359 10.5128V11.1538" stroke="#333333" stroke-miterlimit="10" stroke-linecap="round" stroke-linejoin="round"/>
<path d="M14.1538 11.6667L7 7.61539L10.2564 6L17.7436 9.89744V18.1026L14.1538 20.0256L14.1538 11.6667Z" stroke="#333333" stroke-miterlimit="10" stroke-linecap="round" stroke-linejoin="round"/>
</svg>
