<svg width="23" height="18" viewBox="0 0 23 18" fill="none" xmlns="http://www.w3.org/2000/svg">
<path d="M10.7826 9.0289C10.9927 9.04143 11.2094 9.0477 11.4329 9.0477C11.6608 9.0477 11.882 9.03308 12.0965 9.00383C12.3155 8.97041 12.5233 8.91819 12.72 8.84717C12.9166 8.77615 13.0931 8.67797 13.2495 8.55264C13.406 8.4273 13.5333 8.27064 13.6316 8.08264C13.7344 7.89046 13.7992 7.66068 13.826 7.39331H10.4944C10.5078 7.36406 10.5435 7.30349 10.6016 7.21157C10.6642 7.11549 10.729 7.01522 10.796 6.91078C10.8765 6.78962 10.9659 6.65802 11.0642 6.51598H13.6585C13.6585 6.40735 13.6026 6.29873 13.4909 6.19011C13.3791 6.07731 13.2428 5.97705 13.0819 5.88931C12.9255 5.80158 12.7646 5.73056 12.5993 5.67625C12.4339 5.61776 12.2976 5.58851 12.1904 5.58851H10.4944C10.5123 5.53838 10.5502 5.46318 10.6083 5.36291C10.6709 5.26265 10.7357 5.16447 10.8027 5.06838C10.8698 4.96812 10.9279 4.88038 10.977 4.80518C11.0307 4.72998 11.0597 4.69238 11.0642 4.69238H16.6482C16.6482 4.69238 16.6348 4.71536 16.608 4.76132C16.5857 4.80727 16.5544 4.86367 16.5142 4.93052C16.4739 4.99318 16.4292 5.0642 16.3801 5.14358C16.3309 5.21878 16.284 5.2898 16.2393 5.35665C16.1991 5.42349 16.1633 5.47989 16.1321 5.52585C16.1052 5.56762 16.0918 5.58851 16.0918 5.58851H14.6238C14.7176 5.73891 14.7981 5.8914 14.8651 6.04598C14.9366 6.19638 14.9813 6.35304 14.9992 6.51598H16.6482L16.0918 7.39331H15.0595C15.0059 7.78184 14.8874 8.11397 14.7042 8.3897C14.5254 8.66544 14.3042 8.89521 14.0406 9.07903C13.7814 9.25868 13.4909 9.39863 13.1691 9.4989C12.8473 9.59499 12.5166 9.66183 12.177 9.69943C12.177 9.70361 12.1837 9.71823 12.1971 9.7433C12.215 9.76419 12.2351 9.78925 12.2574 9.8185C12.2798 9.85192 12.3066 9.88743 12.3379 9.92503L15.3142 13.7665V13.9232H14.0406L10.7826 9.8561V9.0289Z" fill="#089BAD"/>
<path d="M11.2857 1.33129C10.9728 1.23816 10.6518 1.16366 10.3241 1.10908C9.89343 1.03733 9.45108 1 9 1C4.58172 1 1 4.58172 1 9C1 13.4183 4.58172 17 9 17C9.58843 17 10.162 16.9365 10.7143 16.8159" stroke="#089BAD" stroke-linecap="round" stroke-linejoin="round"/>
<circle cx="13.5713" cy="9" r="8" stroke="#089BAD" stroke-linecap="round" stroke-linejoin="round"/>
</svg>
