<svg width="25" height="25" viewBox="0 0 25 25" fill="none" xmlns="http://www.w3.org/2000/svg">
<path d="M2.2209 11.57C1.83291 11.2104 1.52406 10.7739 1.31402 10.2884C1.10397 9.80292 0.997337 9.27899 1.0009 8.75V8.75C0.979423 7.77828 1.34429 6.83773 2.01545 6.1347C2.6866 5.43168 3.60923 5.0236 4.5809 5H19.5009C20.4726 5.0236 21.3952 5.43168 22.0663 6.1347C22.7375 6.83773 23.1024 7.77828 23.0809 8.75V8.75C23.0837 9.26032 22.9852 9.76613 22.7913 10.2382C22.5973 10.7102 22.3117 11.1391 21.9509 11.5M7.6509 7.09H16.6509L10.3209 17.09H1.3209L7.6509 7.09Z" stroke="black" stroke-linecap="round" stroke-linejoin="round"/>
<path d="M9.0709 9.04C9.25862 9.03124 9.44554 9.06985 9.61442 9.15229C9.7833 9.23473 9.92873 9.35834 10.0373 9.51173C10.1459 9.66513 10.2141 9.84338 10.2357 10.0301C10.2573 10.2167 10.2316 10.4059 10.1609 10.58C10.0025 11.0004 9.7214 11.3634 9.35404 11.622C8.98669 11.8806 8.55007 12.0227 8.1009 12.03H7.5509L8.9209 14.44" stroke="#333333" stroke-linecap="round" stroke-linejoin="round"/>
<path d="M8.3009 9.06L11.6209 9.14" stroke="#333333" stroke-linecap="round" stroke-linejoin="round"/>
<path d="M7.8609 10.4L11.1809 10.5" stroke="#333333" stroke-linecap="round" stroke-linejoin="round"/>
<path d="M1.1309 19.52H11.1809L18.2509 7.98" stroke="black" stroke-linecap="round" stroke-linejoin="round"/>
<path d="M1.0009 21.52L12.6009 21.69L20.2309 8.85" stroke="black" stroke-linecap="round" stroke-linejoin="round"/>
</svg>
