<svg width="18" height="18" viewBox="0 0 18 18" fill="none" xmlns="http://www.w3.org/2000/svg">
<path d="M5.01102 16.8131H2.60441C2.17889 16.8131 1.77081 16.6441 1.46992 16.3432C1.16904 16.0423 1 15.6342 1 15.2087V9.59329C1 9.16777 1.16904 8.75969 1.46992 8.4588C1.77081 8.15792 2.17889 7.98888 2.60441 7.98888H5.01102M10.6265 6.38447V3.17566C10.6265 2.53738 10.3729 1.92525 9.92157 1.47392C9.47024 1.0226 8.85811 0.769043 8.21984 0.769043L5.01102 7.98888V16.8131H14.0599C14.4468 16.8175 14.8223 16.6819 15.1171 16.4313C15.4119 16.1807 15.6063 15.832 15.6643 15.4494L16.7713 8.22954C16.8062 7.9996 16.7907 7.76481 16.7259 7.54145C16.661 7.3181 16.5484 7.11151 16.3958 6.936C16.2432 6.76049 16.0542 6.62027 15.842 6.52503C15.6299 6.4298 15.3995 6.38184 15.1669 6.38447H10.6265Z" stroke="#F37E20" stroke-width="1.20331" stroke-linecap="round" stroke-linejoin="round"/>
</svg>
