<svg width="25" height="25" viewBox="0 0 25 25" fill="none" xmlns="http://www.w3.org/2000/svg">
<path d="M16.8193 14.3055C16.8193 13.7503 16.3621 13.2931 15.8069 13.2931C15.4476 13.2931 15.1211 13.4891 14.9414 13.7667V13.7503C14.9414 13.1951 14.4842 12.7379 13.929 12.7379C13.5697 12.7379 13.2431 12.9338 13.0635 13.2114V13.1788C13.0635 12.6236 12.6063 12.1663 12.0511 12.1663C11.6918 12.1663 11.3652 12.3623 11.1856 12.6399V9.22701C11.1856 8.94941 11.0713 8.70446 10.8917 8.50851C10.6794 8.31255 10.4344 8.19824 10.1568 8.19824C9.60163 8.19824 9.14439 8.65547 9.14439 9.21068V15.8895C9.14439 15.9548 9.11174 16.0038 9.06275 16.0201C9.01376 16.0365 8.94844 16.0365 8.91578 15.9875L7.87068 14.9587C7.52776 14.6158 6.97255 14.5668 6.56431 14.8281C6.31936 14.9914 6.15607 15.2527 6.12341 15.5303C6.07442 15.8242 6.1724 16.1181 6.35202 16.3304L8.93211 19.433C9.66694 20.3149 10.7284 20.8211 11.8878 20.8211H13.4881C14.3862 20.8211 15.2354 20.4781 15.8559 19.8413C16.4927 19.2044 16.8357 18.3553 16.8357 17.4735L16.8193 14.3055Z" stroke="#333333" stroke-miterlimit="10" stroke-linecap="round" stroke-linejoin="round"/>
<path d="M12.3158 8L14 6.22222M10.2105 6.66667V4M8.10526 8L6 6.66667" stroke="#333333" stroke-linecap="round" stroke-linejoin="round"/>
</svg>
