<svg width="25" height="25" viewBox="0 0 25 25" fill="none" xmlns="http://www.w3.org/2000/svg">
<path fill-rule="evenodd" clip-rule="evenodd" d="M12.7009 6.97227C10.2017 6.58446 7.65946 6.15357 5.16028 5.76577C4.21232 5.59341 3.69525 6.843 4.47085 7.40316L8.99523 10.6779L7.22857 12.7031L5.11719 12.0999C4.16923 11.8414 3.56598 13.0909 4.38468 13.6942L6.10825 14.8576C5.80662 15.547 5.63427 16.021 5.63427 16.021C5.54809 16.2365 5.76353 16.4519 5.97898 16.3657C5.97898 16.3657 6.45296 16.1934 7.14239 15.8918L8.3058 17.6153C8.90905 18.434 10.1586 17.8308 9.90011 16.8828L9.29686 14.7714L11.3221 13.0048L14.5968 17.5291C15.157 18.3048 16.4066 17.7877 16.2342 16.8397C15.8464 14.3405 15.4155 11.7983 15.0277 9.29909C20.3277 3.95602 18.0009 1.75846 12.7009 6.97227Z" stroke="#333333" stroke-miterlimit="10" stroke-linecap="round" stroke-linejoin="round"/>
</svg>
