<svg width="25" height="25" viewBox="0 0 25 25" fill="none" xmlns="http://www.w3.org/2000/svg">
<path d="M20.3519 12.5106C20.3519 12.7751 20.2534 13.0301 20.0756 13.2259L19.5249 13.8356C19.4704 13.8963 19.4323 13.9699 19.4141 14.0494C19.396 14.1289 19.3984 14.2117 19.4212 14.29L19.6531 15.0762C19.7289 15.3301 19.7071 15.6032 19.5921 15.8419C19.4771 16.0807 19.277 16.2678 19.0312 16.3668L18.2719 16.6749C18.1963 16.7059 18.1299 16.7556 18.079 16.8195C18.028 16.8833 17.9942 16.9591 17.9807 17.0396L17.8486 17.8491C17.8076 18.1109 17.6699 18.3478 17.4628 18.5131C17.2556 18.6784 16.994 18.76 16.7297 18.7418L15.9107 18.6914C15.8293 18.6868 15.748 18.703 15.6746 18.7384C15.6011 18.7738 15.5378 18.8272 15.4907 18.8938L15.0207 19.5651C14.8693 19.7827 14.6423 19.9359 14.3839 19.9948C14.1256 20.0537 13.8545 20.0141 13.6238 19.8837L12.9094 19.4821C12.8381 19.4421 12.7577 19.4212 12.676 19.4212C12.5943 19.4212 12.5139 19.4421 12.4427 19.4821L11.7277 19.8837C11.4971 20.0141 11.2261 20.0538 10.9677 19.9948C10.7094 19.9359 10.4824 19.7827 10.3311 19.5651L9.86076 18.8935C9.81382 18.8268 9.75061 18.7732 9.67713 18.7377C9.60364 18.7023 9.52233 18.6863 9.4409 18.6911L8.62164 18.7416C8.35745 18.759 8.09628 18.6771 7.88934 18.5119C7.6824 18.3468 7.54462 18.1103 7.50301 17.8488L7.37084 17.0393C7.35738 16.9588 7.32358 16.883 7.27262 16.8192C7.22167 16.7554 7.15525 16.7056 7.07968 16.6747L6.32068 16.3665C6.07493 16.2675 5.87496 16.0804 5.75991 15.8418C5.64485 15.6031 5.62299 15.3301 5.69859 15.0762L5.93065 14.2897C5.95342 14.2114 5.95587 14.1286 5.93776 14.0491C5.91966 13.9696 5.88159 13.896 5.82716 13.8353L5.27642 13.2259C5.09855 13.0302 5 12.7752 5 12.5107C5 12.2462 5.09855 11.9912 5.27642 11.7954L5.82716 11.1857C5.88159 11.125 5.91965 11.0515 5.93776 10.972C5.95586 10.8926 5.95342 10.8098 5.93065 10.7315L5.69874 9.94499C5.62305 9.69105 5.64488 9.41801 5.75994 9.17933C5.875 8.94064 6.07502 8.7535 6.32082 8.65455L7.07998 8.34639C7.15556 8.31544 7.22197 8.26569 7.27292 8.20187C7.32388 8.13805 7.35768 8.06228 7.37113 7.98173L7.50345 7.17227C7.54483 6.91067 7.68255 6.67401 7.88954 6.50879C8.09653 6.34357 8.35782 6.26173 8.62208 6.27935L9.44134 6.32994C9.5228 6.33516 9.60423 6.31927 9.67775 6.28382C9.75128 6.24837 9.81442 6.19456 9.86106 6.12758L10.3314 5.4559C10.4828 5.2385 10.7098 5.08542 10.9682 5.02661C11.2265 4.9678 11.4974 5.0075 11.728 5.13794L12.4425 5.53936C12.5139 5.5792 12.5942 5.60011 12.6759 5.60011C12.7577 5.60011 12.838 5.5792 12.9094 5.53936L13.6241 5.13781C13.8547 5.0074 14.1257 4.96773 14.384 5.02657C14.6423 5.0854 14.8693 5.23851 15.0207 5.45592L15.4913 6.12788C15.5382 6.19454 15.6014 6.24812 15.6748 6.28354C15.7482 6.31895 15.8295 6.33503 15.9109 6.33024L16.7303 6.27964C16.9944 6.26254 17.2554 6.34458 17.4623 6.50971C17.6692 6.67484 17.807 6.91119 17.8489 7.17255L17.9811 7.98216C17.9946 8.06272 18.0284 8.13851 18.0794 8.20234C18.1304 8.26618 18.1968 8.31596 18.2724 8.34696L19.0312 8.65485C19.2771 8.75376 19.4772 8.94091 19.5922 9.17964C19.7073 9.41836 19.7291 9.69146 19.6533 9.94541L19.4214 10.7315C19.3985 10.8098 19.3961 10.8926 19.4141 10.9721C19.4322 11.0517 19.4703 11.1253 19.5247 11.186L20.0755 11.7954C20.2533 11.9911 20.3519 12.2461 20.3519 12.5106Z" stroke="#333333" stroke-miterlimit="10" stroke-linecap="round" stroke-linejoin="round"/>
<path d="M9 9.80841C9 9.28371 9.16947 8.85113 9.50842 8.51068C9.85145 8.17023 10.2905 8 10.8254 8C11.3686 8 11.8076 8.17223 12.1424 8.51669C12.4814 8.85714 12.6508 9.29973 12.6508 9.84446V10.271C12.6508 10.7997 12.4793 11.2323 12.1363 11.5688C11.7973 11.9012 11.3645 12.0674 10.8377 12.0674C10.3068 12.0674 9.86779 11.9012 9.52067 11.5688C9.17356 11.2323 9 10.7857 9 10.229V9.80841ZM9.84533 10.271C9.84533 10.5834 9.93517 10.8418 10.1149 11.0461C10.2945 11.2463 10.5355 11.3465 10.8377 11.3465C11.1276 11.3465 11.3604 11.2483 11.536 11.0521C11.7157 10.8558 11.8055 10.5874 11.8055 10.247V9.80841C11.8055 9.49599 11.7177 9.23765 11.5421 9.03338C11.3665 8.82911 11.1276 8.72697 10.8254 8.72697C10.5232 8.72697 10.2843 8.82911 10.1087 9.03338C9.93313 9.23765 9.84533 9.50401 9.84533 9.83244V10.271ZM13.343 14.729C13.343 14.2043 13.5125 13.7737 13.8515 13.4372C14.1945 13.0968 14.6335 12.9266 15.1685 12.9266C15.7034 12.9266 16.1424 13.0948 16.4855 13.4312C16.8285 13.7677 17 14.2143 17 14.771V15.1976C17 15.7223 16.8285 16.1549 16.4855 16.4953C16.1465 16.8318 15.7116 17 15.1807 17C14.6498 17 14.2108 16.8338 13.8637 16.5013C13.5166 16.1649 13.343 15.7183 13.343 15.1615V14.729ZM14.1884 15.1976C14.1884 15.514 14.2782 15.7744 14.4579 15.9786C14.6376 16.1789 14.8785 16.279 15.1807 16.279C15.4747 16.279 15.7095 16.1809 15.8851 15.9846C16.0607 15.7844 16.1485 15.514 16.1485 15.1736V14.729C16.1485 14.4125 16.0587 14.1542 15.879 13.9539C15.7034 13.7537 15.4666 13.6535 15.1685 13.6535C14.8785 13.6535 14.6417 13.7537 14.4579 13.9539C14.2782 14.1502 14.1884 14.4166 14.1884 14.753V15.1976ZM11.0949 16.213L10.4518 15.8164L14.807 8.97931L15.4502 9.37583L11.0949 16.213Z" fill="#333333"/>
</svg>
