<svg width="25" height="25" viewBox="0 0 25 25" fill="none" xmlns="http://www.w3.org/2000/svg">
<path d="M8.2357 20.8257L8.33501 21.2229C8.40949 21.496 8.26052 21.7443 7.98743 21.8188L5.80266 22.365L3.91582 14.6686L6.07576 14.1225C6.34885 14.048 6.59712 14.1969 6.6716 14.47L6.77091 14.8673M8.2357 20.8257L8.26052 20.8009L9.05499 20.0064H14.1693C15.0879 20.0064 15.9817 19.634 16.6272 18.9885L21.1705 14.47C21.5181 14.1225 21.6919 13.6507 21.6422 13.179C21.5677 12.2604 20.7733 11.5901 19.8547 11.6646C19.4575 11.6894 19.0851 11.8632 18.812 12.1363L16.3044 14.6438C16.0562 14.0231 15.4603 13.6259 14.79 13.6259H9.75014C8.63293 13.6259 7.5902 14.0728 6.79574 14.8424L6.77091 14.8673M8.2357 20.8257L6.77091 14.8673M13 16.2576H14.79C15.361 16.2576 16.3541 15.7859 16.3044 14.5942M5.62887 19.3113C6.00128 19.212 6.37368 19.4354 6.47299 19.8078C6.5723 20.1802 6.34885 20.5526 5.97645 20.6519C5.9268 20.6768 5.87714 20.6768 5.80266 20.6768" stroke="#333333" stroke-miterlimit="10" stroke-linecap="round" stroke-linejoin="round"/>
<path d="M13.728 5.73853C14.1559 5.03872 14.7369 3.92848 14.9044 3.68274C14.9874 3.54997 15.004 3.53337 14.9376 3.45038C14.8712 3.3508 14.7218 3.38399 14.5559 3.43379C14.2405 3.53337 13.8588 3.43379 13.4273 3.30101C12.5642 3.03545 11.3194 2.65372 10.8215 3.63295C10.7717 3.73253 10.8049 3.64955 10.9045 3.76573C11.0762 3.96957 11.5946 4.97098 12.0025 5.65364" stroke="#333333" stroke-miterlimit="10"/>
<path d="M17.5 13.5C18 10.5 16.3318 7.61627 13.809 5.92336C12.9791 5.37565 12.1493 5.60801 11.6348 5.92336C9.04562 7.4503 8 10.0395 8 11.5C8 12.0339 8.1 12.8 8.5 14" stroke="#333333" stroke-miterlimit="10"/>
<path d="M12.1763 8C12.8041 8 13.3166 8.5125 13.3166 9.14031C13.3166 9.76811 12.8041 10.2806 12.1763 10.2806H11.7791L13.3294 12.0872" stroke="#333333" stroke-width="0.8" stroke-miterlimit="10" stroke-linecap="round" stroke-linejoin="round"/>
<path d="M11.6254 8.02562H14.0341" stroke="#333333" stroke-width="0.8" stroke-miterlimit="10" stroke-linecap="round" stroke-linejoin="round"/>
<path d="M11.6254 9.05062H14.0341" stroke="#333333" stroke-width="0.8" stroke-miterlimit="10" stroke-linecap="round" stroke-linejoin="round"/>
</svg>
