<svg width="18" height="18" viewBox="0 0 18 18" fill="none" xmlns="http://www.w3.org/2000/svg">
<path d="M5.01107 10.0111L8.21989 17.2309C8.85816 17.2309 9.47029 16.9773 9.92162 16.526C10.3729 16.0747 10.6265 15.4626 10.6265 14.8243V11.6155H15.167C15.3995 11.6181 15.6299 11.5701 15.8421 11.4749C16.0543 11.3797 16.2432 11.2394 16.3958 11.0639C16.5485 10.8884 16.6611 10.6818 16.7259 10.4585C16.7908 10.2351 16.8063 10.0003 16.7714 9.7704L15.6643 2.55056C15.6063 2.16798 15.412 1.81927 15.1172 1.56866C14.8223 1.31805 14.4469 1.18244 14.0599 1.18681H5.01107M5.01107 10.0111V1.18681M5.01107 10.0111H2.86918C2.41517 10.0191 1.974 9.86014 1.62945 9.56438C1.28489 9.26862 1.06091 8.85664 1.00005 8.40665V2.79122C1.06091 2.34123 1.28489 1.92926 1.62945 1.6335C1.974 1.33774 2.41517 1.17878 2.86918 1.18681H5.01107" stroke="#3D3D3D" stroke-width="1.20331" stroke-linecap="round" stroke-linejoin="round"/>
</svg>
