<svg width="31" height="23" viewBox="0 0 31 23" fill="none" xmlns="http://www.w3.org/2000/svg">
<path d="M21.304 14.3083C20.3734 13.8385 19.2982 13.9828 18.5253 14.577C18.5444 13.6023 18.0223 12.6518 17.0912 12.1819C16.1605 11.7121 15.0854 11.8564 14.3125 12.4506C14.3316 11.4759 13.8094 10.5254 12.8784 10.0555C11.9477 9.58574 10.8725 9.73002 10.0999 10.3243C10.1187 9.34954 9.59662 8.39905 8.66556 7.92911C7.98088 7.58352 7.21851 7.57447 6.55393 7.82635C9.22651 4.31822 14.0401 3.06153 18.0343 5.07754C22.0286 7.09364 23.8765 11.7126 22.641 15.9459C22.449 15.2619 21.9889 14.6539 21.304 14.3083Z" stroke="#333333" stroke-linecap="round" stroke-linejoin="round"/>
<path d="M9.06115 16.0277C8.50065 17.1382 9.11846 17.9557 9.67056 18.2343C10.1833 18.4931 10.6124 18.4179 10.8822 18.3091C11.4601 18.076 11.7552 17.5222 11.8106 17.4088L14.926 11.2364" stroke="#333333" stroke-linecap="round" stroke-linejoin="round"/>
<path d="M18.4516 5.51354L19.0559 4.31638" stroke="#333333" stroke-linecap="round" stroke-linejoin="round"/>
</svg>
