<svg width="56" height="56" viewBox="0 0 56 56" fill="none" xmlns="http://www.w3.org/2000/svg">
<mask id="mask0" mask-type="alpha" maskUnits="userSpaceOnUse" x="0" y="0" width="56" height="56">
<rect width="56" height="56" fill="#C4C4C4"/>
</mask>
<g mask="url(#mask0)">
<path d="M27.9732 31.391H36.1907L34.9017 37.1916L46.5232 30.5507C47.7958 29.8235 48.9965 28.9773 50.1093 28.0235C51.9333 26.4601 53.0954 24.2623 53.3607 21.8747L53.5924 19.7899C53.5924 14.2726 49.1198 9.8 43.6025 9.8H27.9732C22.011 9.8 17.1777 14.6333 17.1777 20.5955C17.1777 26.5577 22.011 31.391 27.9732 31.391Z" fill="url(#paint0_linear)"/>
<path opacity="0.5" d="M28.778 20.7577C28.778 22.5374 27.3352 23.9802 25.5554 23.9802C23.7757 23.9802 22.3329 22.5374 22.3329 20.7577C22.3329 18.9779 23.7757 17.5351 25.5554 17.5351C27.3352 17.5351 28.778 18.9779 28.778 20.7577Z" fill="white"/>
<path opacity="0.7" d="M38.446 20.7578C38.446 22.5376 37.0033 23.9804 35.2235 23.9804C33.4438 23.9804 32.001 22.5376 32.001 20.7578C32.001 18.9781 33.4438 17.5353 35.2235 17.5353C37.0033 17.5353 38.446 18.9781 38.446 20.7578Z" fill="white"/>
<path d="M48.1146 20.758C48.1146 22.5377 46.6718 23.9805 44.8921 23.9805C43.1123 23.9805 41.6696 22.5377 41.6696 20.758C41.6696 18.9782 43.1123 17.5354 44.8921 17.5354C46.6718 17.5354 48.1146 18.9782 48.1146 20.758Z" fill="white"/>
<path d="M24.5638 36.2685L23.9482 38.2382H26.1026L26.7182 36.2685H24.5638Z" fill="#1B5FA8"/>
<path d="M3.19238 47.3482L6.73114 41.1627H7.47592H8.2207L9.08751 47.3482H8.3848H7.67789L7.53483 46.0522H5.25L4.55992 47.3482H3.87825H3.19238ZM7.15613 42.5261L5.80963 45.0297H7.43384L7.15613 42.5261Z" fill="#1B5FA8"/>
<path d="M13.3078 44.1419C13.3078 43.9287 13.2545 43.7786 13.1479 43.6916C13.0413 43.6019 12.8575 43.557 12.5966 43.557C12.3582 43.557 12.1646 43.592 12.016 43.6622C11.8701 43.7323 11.7845 43.8291 11.7593 43.9525C11.7368 44.0591 11.7845 44.1503 11.9024 44.226C12.023 44.299 12.246 44.3733 12.5714 44.449C13.2895 44.6173 13.7636 44.8053 13.9936 45.0129C14.1647 45.1672 14.2503 45.3719 14.2503 45.6272C14.2503 45.7198 14.2391 45.8194 14.2166 45.926C14.1185 46.4 13.8576 46.7759 13.434 47.0537C13.0132 47.3314 12.49 47.4702 11.8645 47.4702C11.1688 47.4702 10.6639 47.3384 10.3497 47.0747C10.0944 46.8587 9.96536 46.5543 9.96256 46.1616L9.9836 45.8839H11.2165C11.1884 46.1139 11.2487 46.285 11.3974 46.3972C11.5461 46.5066 11.7915 46.5613 12.1338 46.5613C12.3582 46.5613 12.5419 46.5207 12.685 46.4393C12.8309 46.3552 12.9192 46.2402 12.9501 46.0943C12.9725 45.9821 12.9206 45.8881 12.7944 45.8124C12.6682 45.7366 12.4325 45.6581 12.0875 45.5767C11.4086 45.4196 10.9612 45.2401 10.7452 45.0381C10.5881 44.8894 10.5096 44.6931 10.5096 44.449C10.5096 44.3537 10.5208 44.2527 10.5432 44.1461C10.6386 43.686 10.8799 43.3213 11.267 43.052C11.6569 42.7827 12.1352 42.6481 12.7018 42.6481C13.3583 42.6481 13.8365 42.7743 14.1367 43.0268C14.3751 43.226 14.4944 43.5023 14.4944 43.8557C14.4944 43.9427 14.4859 44.0381 14.4691 44.1419H13.3078Z" fill="#1B5FA8"/>
<path d="M14.9823 47.3482L16.2615 41.1627H16.8632H17.4691L16.7706 44.529L18.6725 42.7701H19.4089H20.1453L18.1508 44.4911L19.2406 47.3482H18.521H17.7973L17.1114 45.3874L16.4803 45.9344L16.1899 47.3482H15.5882H14.9823Z" fill="#1B5FA8"/>
<path d="M23.9482 38.8947L22.1016 46.1171H24.256L26.1026 38.8947H23.9482Z" fill="#1B5FA8"/>
<path d="M43.0299 36.2685L40.26 46.1171H42.4144L45.1843 36.2685H43.0299Z" fill="#1B5FA8"/>
<path d="M26.4104 43.4909L25.4871 46.1172H27.6415L28.5648 43.4909H26.4104Z" fill="#1B5FA8"/>
<path fill-rule="evenodd" clip-rule="evenodd" d="M34.0938 40.5266C34.7101 38.4135 33.2297 36.2685 31.155 36.2685H30.9889C29.5878 36.2685 28.3496 37.2408 27.9333 38.6678L26.7181 42.8342H31.155C32.5026 42.8342 33.6934 41.8991 34.0938 40.5266ZM29.2266 40.8645H31.155C31.694 40.8645 32.1704 40.4905 32.3305 39.9415C32.577 39.0962 31.9849 38.2382 31.155 38.2382H30.9889C30.3963 38.2382 29.8726 38.6494 29.6966 39.253L29.2266 40.8645Z" fill="#1B5FA8"/>
<path fill-rule="evenodd" clip-rule="evenodd" d="M37.9634 44.1466H37.0107C36.186 44.1466 35.5946 43.2987 35.8315 42.4561C35.9868 41.904 36.4684 41.5203 37.0154 41.5203C37.8593 41.5203 38.458 42.388 38.2198 43.2349L37.9634 44.1466ZM39.3374 46.1163L39.9886 43.8009C40.5843 41.6826 39.0888 39.5506 37.0154 39.5506C35.6562 39.5506 34.4533 40.5015 34.0628 41.8901C33.4704 43.9965 34.9491 46.1163 37.0107 46.1163H39.3374Z" fill="#1B5FA8"/>
</g>
<defs>
<linearGradient id="paint0_linear" x1="82.0591" y1="34.988" x2="71.8674" y2="-4.97746" gradientUnits="userSpaceOnUse">
<stop stop-color="#900100"/>
<stop offset="1" stop-color="#F78220"/>
</linearGradient>
</defs>
</svg>
