<svg width="20" height="19" viewBox="0 0 20 19" fill="none" xmlns="http://www.w3.org/2000/svg">
<path d="M17.1471 1L15.4413 2.78712M15.4413 2.78712L18 5.46779L15.0148 8.59525L12.4561 5.91457M15.4413 2.78712L12.4561 5.91457M8.95069 9.5871C9.39108 10.0423 9.74117 10.5843 9.98079 11.1819C10.2204 11.7795 10.3448 12.4208 10.3469 13.069C10.349 13.7171 10.2287 14.3593 9.99287 14.9585C9.75707 15.5578 9.41046 16.1022 8.97299 16.5606C8.53553 17.0189 8.01585 17.382 7.44387 17.629C6.8719 17.8761 6.25893 18.0021 5.64026 18C5.02159 17.9978 4.40945 17.8674 3.83906 17.6164C3.26868 17.3653 2.75134 16.9986 2.31681 16.5372C1.46231 15.6103 0.989489 14.3689 1.00018 13.0803C1.01087 11.7917 1.50421 10.5591 2.37395 9.64786C3.2437 8.73666 4.42025 8.2198 5.65021 8.2086C6.88016 8.1974 8.06511 8.69276 8.94984 9.58799L8.95069 9.5871ZM8.95069 9.5871L12.4561 5.91457" stroke="#F37E20" stroke-width="1.5"/>
</svg>
