<svg width="46" height="49" viewBox="0 0 46 49" fill="none" xmlns="http://www.w3.org/2000/svg">
<path d="M24.2776 13.0004C27.806 13.0004 30.6664 10.14 30.6664 6.61155C30.6664 3.08306 27.806 0.222656 24.2776 0.222656C20.7491 0.222656 17.8887 3.08306 17.8887 6.61155C17.8887 10.14 20.7491 13.0004 24.2776 13.0004Z" fill="#EC6423"/>
<path opacity="0.6" d="M24.2777 48.7782C26.3948 48.7782 28.111 47.062 28.111 44.9449C28.111 42.8278 26.3948 41.1116 24.2777 41.1116C22.1606 41.1116 20.4443 42.8278 20.4443 44.9449C20.4443 47.062 22.1606 48.7782 24.2777 48.7782Z" fill="#EC6423"/>
<path opacity="0.2" d="M37.8293 14.1435C38.8878 14.1435 39.7459 13.2853 39.7459 12.2268C39.7459 11.1682 38.8878 10.3101 37.8293 10.3101C36.7707 10.3101 35.9126 11.1682 35.9126 12.2268C35.9126 13.2853 36.7707 14.1435 37.8293 14.1435Z" fill="#EC6423"/>
<path opacity="0.7" d="M10.7261 43.8019C13.1961 43.8019 15.1984 41.7996 15.1984 39.3296C15.1984 36.8597 13.1961 34.8574 10.7261 34.8574C8.25619 34.8574 6.25391 36.8597 6.25391 39.3296C6.25391 41.7996 8.25619 43.8019 10.7261 43.8019Z" fill="#EC6423"/>
<path opacity="0.4" d="M43.4442 28.3338C44.8556 28.3338 45.9998 27.1896 45.9998 25.7782C45.9998 24.3668 44.8556 23.2227 43.4442 23.2227C42.0328 23.2227 40.8887 24.3668 40.8887 25.7782C40.8887 27.1896 42.0328 28.3338 43.4442 28.3338Z" fill="#EC6423"/>
<path opacity="0.8" d="M5.11111 30.8893C7.9339 30.8893 10.2222 28.601 10.2222 25.7782C10.2222 22.9554 7.9339 20.6671 5.11111 20.6671C2.28832 20.6671 0 22.9554 0 25.7782C0 28.601 2.28832 30.8893 5.11111 30.8893Z" fill="#EC6423"/>
<path opacity="0.5" d="M37.8292 42.5241C39.5935 42.5241 41.0237 41.0939 41.0237 39.3296C41.0237 37.5654 39.5935 36.1352 37.8292 36.1352C36.065 36.1352 34.6348 37.5654 34.6348 39.3296C34.6348 41.0939 36.065 42.5241 37.8292 42.5241Z" fill="#EC6423"/>
<path opacity="0.9" d="M10.7266 17.9768C13.9022 17.9768 16.4766 15.4024 16.4766 12.2268C16.4766 9.05117 13.9022 6.47681 10.7266 6.47681C7.55093 6.47681 4.97656 9.05117 4.97656 12.2268C4.97656 15.4024 7.55093 17.9768 10.7266 17.9768Z" fill="#EC6423"/>
</svg>
