<svg width="26" height="26" viewBox="0 0 26 26" fill="none" xmlns="http://www.w3.org/2000/svg">
<path d="M15.7547 7.51161C15.8913 7.51975 16.0322 7.52383 16.1774 7.52383C16.3256 7.52383 16.4693 7.51432 16.6088 7.49532C16.7511 7.47359 16.8862 7.43965 17.014 7.39348C17.1418 7.34732 17.2566 7.2835 17.3582 7.20204C17.4599 7.12057 17.5427 7.01874 17.6066 6.89654C17.6734 6.77162 17.7155 6.62227 17.733 6.44847H15.5674C15.5761 6.42946 15.5993 6.39009 15.6371 6.33035C15.6778 6.26789 15.7199 6.20271 15.7635 6.13483C15.8157 6.05608 15.8738 5.97054 15.9378 5.87821H17.624C17.624 5.8076 17.5877 5.737 17.5151 5.66639C17.4425 5.59307 17.3539 5.5279 17.2493 5.47088C17.1476 5.41385 17.0431 5.36768 16.9356 5.33238C16.8281 5.29436 16.7395 5.27536 16.6698 5.27536H15.5674C15.579 5.24277 15.6037 5.19389 15.6415 5.12872C15.6821 5.06354 15.7242 4.99973 15.7678 4.93727C15.8114 4.8721 15.8492 4.81507 15.8811 4.76619C15.916 4.71731 15.9348 4.69287 15.9378 4.69287H19.5674C19.5674 4.69287 19.5587 4.70781 19.5412 4.73768C19.5267 4.76755 19.5064 4.80421 19.4802 4.84766C19.4541 4.88839 19.425 4.93455 19.3931 4.98615C19.3611 5.03503 19.3306 5.08119 19.3016 5.12464C19.2754 5.16809 19.2522 5.20475 19.2319 5.23462C19.2144 5.26178 19.2057 5.27536 19.2057 5.27536H18.2515C18.3125 5.37312 18.3648 5.47223 18.4083 5.57271C18.4548 5.67047 18.4839 5.7723 18.4955 5.87821H19.5674L19.2057 6.44847H18.5347C18.4998 6.70102 18.4229 6.9169 18.3038 7.09613C18.1876 7.27536 18.0438 7.42471 17.8724 7.54419C17.7039 7.66096 17.5151 7.75193 17.3059 7.81711C17.0968 7.87956 16.8818 7.92301 16.6611 7.94745C16.6611 7.95017 16.6654 7.95967 16.6741 7.97597C16.6858 7.98954 16.6988 8.00584 16.7134 8.02485C16.7279 8.04657 16.7453 8.06965 16.7656 8.09409L18.7003 10.591V10.6929H17.8724L15.7547 8.04929V7.51161Z" fill="#333333"/>
<path d="M1 25.4417H9V22.4418M1 18.4417H9H1ZM9 18.4417L11 16.4417H16.5C17.1667 16.4417 18.5 16.8417 18.5 18.4417H19.5L23 16.4417C23.6667 16.1084 25.1 15.6417 25.5 16.4417L21.5 20.4418C20.8333 21.1084 18.6 22.4418 15 22.4418C11.4 22.4418 9.5 22.4418 9 22.4418V18.4417ZM9 18.4417V22.4418V18.4417Z" stroke="#333333" stroke-linecap="round" stroke-linejoin="round"/>
<path d="M18.5 18.5L14.5 19.5M6 18.5V25.5V18.5Z" stroke="#333333" stroke-linecap="round" stroke-linejoin="round"/>
<path d="M17.5 13.5C20.8137 13.5 23.5 10.8137 23.5 7.5C23.5 4.18629 20.8137 1.5 17.5 1.5C14.1863 1.5 11.5 4.18629 11.5 7.5C11.5 10.8137 14.1863 13.5 17.5 13.5Z" stroke="#333333"/>
</svg>
