<svg width="37" height="26" viewBox="0 0 37 26" fill="none" xmlns="http://www.w3.org/2000/svg">
<path d="M10.2077 10.9805H4.44641V12.1341H10.2077V10.9805Z" fill="#AD1E23"/>
<path d="M13.0918 14.4414H4.44641V15.5951H13.0918V14.4414Z" fill="#AD1E23"/>
<path d="M25.1983 17.9023H4.44641V19.056H25.1983V17.9023Z" fill="#AD1E23"/>
<path d="M7.9074 21.3555H4.44641V22.5091H7.9074V21.3555Z" fill="#AD1E23"/>
<path d="M13.668 21.3555H10.207V22.5091H13.668V21.3555Z" fill="#AD1E23"/>
<path d="M19.4374 21.3555H15.9764V22.5091H19.4374V21.3555Z" fill="#AD1E23"/>
<path d="M24.6227 10.4023C24.2006 10.4023 23.8137 10.5219 23.4761 10.7189C23.1243 10.5149 22.7304 10.4023 22.3154 10.4023C21.0421 10.4023 20.0081 11.4364 20.0081 12.7097C20.0081 13.9829 21.0421 15.017 22.3154 15.017C22.7304 15.017 23.1243 14.9044 23.4761 14.7004C23.8137 14.8974 24.2006 15.017 24.6227 15.017C25.8959 15.017 26.93 13.9829 26.93 12.7097C26.93 11.4364 25.8959 10.4023 24.6227 10.4023ZM22.6108 13.8211C22.5123 13.8493 22.4139 13.8633 22.3154 13.8633C21.6823 13.8633 21.1617 13.3428 21.1617 12.7097C21.1617 12.0766 21.6823 11.556 22.3154 11.556C22.4139 11.556 22.5194 11.5771 22.6108 11.5982C22.4279 11.9288 22.3154 12.3017 22.3154 12.7097C22.3154 13.1177 22.4279 13.4905 22.6108 13.8211ZM24.6227 13.8633C23.9896 13.8633 23.469 13.3428 23.469 12.7097C23.469 12.0766 23.9896 11.556 24.6227 11.556C25.2558 11.556 25.7764 12.0766 25.7764 12.7097C25.7764 13.3428 25.2558 13.8633 24.6227 13.8633Z" fill="#AD1E23"/>
<path d="M35.5178 7.73656L11.3331 0.0970703C11.1643 0.0407941 9.81368 -0.402381 9.1665 1.22259L7.17573 7.51849H2.71584C1.75915 7.52553 0.985352 8.29932 0.985352 9.24899V24.2396C0.985352 25.1963 1.75915 25.9701 2.71584 25.9701H28.0823C28.6873 25.9701 29.2149 25.6605 29.5244 25.1892C29.5244 25.1892 30.3052 25.4073 30.4811 25.4073C31.2408 25.4073 31.9021 24.9219 32.1272 24.1973L36.6433 9.9032C36.784 9.46706 36.8825 8.10236 35.5178 7.73656ZM9.56747 3.76909L21.4488 7.51849H13.7882L8.87105 5.96386L9.56747 3.76909ZM8.52636 7.06828L9.96844 7.52553H8.38567L8.52636 7.06828ZM28.6592 24.2396H28.6521C28.6521 24.5561 28.3918 24.8164 28.0753 24.8164H2.71584C2.39929 24.8164 2.13901 24.5561 2.13901 24.2396V9.24899C2.13901 8.93243 2.39929 8.67216 2.71584 8.67216H28.0823C28.3989 8.67216 28.6592 8.93243 28.6592 9.24899V24.2396ZM31.0298 23.8527C30.9383 24.1481 30.6007 24.324 30.3052 24.2255L29.8058 24.0707V13.7933L33.8084 15.0595L31.0298 23.8527ZM34.1531 13.9551L29.8058 12.5833V10.1635L34.8495 11.7533L34.1531 13.9551ZM35.546 9.5585L35.2013 10.6559L29.7776 8.9465C29.6299 8.13753 28.9265 7.52553 28.0823 7.52553H25.2756L9.91216 2.67171L10.2569 1.57432C10.3483 1.27887 10.6789 1.10301 10.9814 1.20149L35.1661 8.83395C35.6515 8.96057 35.5882 9.41078 35.546 9.5585Z" fill="#AD1E23"/>
</svg>
