<svg width="32" height="35" viewBox="0 0 32 35" fill="none" xmlns="http://www.w3.org/2000/svg">
<path d="M16.5758 18.8069C16.512 18.7931 16.4466 18.7906 16.382 18.8002C15.7348 18.7249 15.2466 18.1773 15.2455 17.526C15.2455 17.2139 14.9924 16.9608 14.6803 16.9608C14.3681 16.9608 14.115 17.2139 14.115 17.526C14.1167 18.6137 14.8442 19.5664 15.893 19.8542V20.4195C15.893 20.7316 16.146 20.9847 16.4582 20.9847C16.7703 20.9847 17.0234 20.7316 17.0234 20.4195V19.8885C18.2339 19.6351 19.0566 18.5077 18.9294 17.2776C18.8019 16.0475 17.7655 15.1128 16.5288 15.1125C15.8201 15.1125 15.2455 14.5379 15.2455 13.8291C15.2455 13.1204 15.8201 12.5458 16.5288 12.5458C17.2376 12.5458 17.8122 13.1204 17.8122 13.8291C17.8122 14.1413 18.0653 14.3944 18.3774 14.3944C18.6896 14.3944 18.9426 14.1413 18.9426 13.8291C18.941 12.6871 18.1409 11.7021 17.0234 11.4664V10.9519C17.0234 10.6398 16.7703 10.3867 16.4582 10.3867C16.146 10.3867 15.893 10.6398 15.893 10.9519V11.5009C14.7266 11.8194 13.976 12.9518 14.1366 14.1501C14.2972 15.3484 15.3197 16.2429 16.5288 16.2426C17.2282 16.2426 17.7987 16.8026 17.8114 17.5017C17.8243 18.2008 17.2746 18.7815 16.5758 18.8069Z" fill="#AD1E23"/>
<path d="M8.33386 15.7197C8.33386 20.2465 12.0034 23.9161 16.5302 23.9161C21.0569 23.9161 24.7265 20.2465 24.7265 15.7197C24.7265 11.193 21.0569 7.52344 16.5302 7.52344C12.0056 7.52841 8.33911 11.1952 8.33386 15.7197ZM16.5302 8.65389C20.4326 8.65389 23.596 11.8173 23.596 15.7197C23.596 19.6222 20.4326 22.7856 16.5302 22.7856C12.6277 22.7856 9.46431 19.6222 9.46431 15.7197C9.46873 11.8192 12.6296 8.6583 16.5302 8.65389Z" fill="#AD1E23"/>
<path d="M27.5123 25.3106L23.0847 27.4026C22.4733 26.2655 21.3007 25.5419 20.0101 25.5054L15.9228 25.3931C15.2756 25.3746 14.6405 25.2107 14.0651 24.9135L13.6492 24.6979C11.5196 23.5879 8.98136 23.5906 6.85404 24.7051L6.87998 23.7629C6.88854 23.4507 6.64263 23.1907 6.33049 23.1822L1.84844 23.0588C1.53629 23.0503 1.27659 23.2962 1.26803 23.6083L0.997287 33.444C0.988731 33.7561 1.23464 34.0161 1.54678 34.0247L6.02884 34.148H6.04429C6.35064 34.148 6.60124 33.9043 6.60952 33.5983L6.62249 33.1277L7.78688 32.5042C8.24392 32.2583 8.77823 32.1998 9.2775 32.3411L16.2308 34.2926C16.2429 34.2962 16.255 34.299 16.2675 34.3017C16.77 34.4069 17.2823 34.4596 17.7956 34.4593C18.883 34.4599 19.9577 34.2256 20.946 33.7719C20.9703 33.7608 20.9938 33.7478 21.0161 33.7332L31.0977 27.2122C31.3489 27.0496 31.43 26.7198 31.2829 26.4593C30.5344 25.1312 28.8743 24.6253 27.5123 25.3106ZM2.14292 32.9102L2.38247 24.2044L5.73436 24.2966L5.4948 33.0027L2.14292 32.9102ZM20.4368 32.7623C19.2089 33.3165 17.8376 33.4694 16.5178 33.1997L9.58329 31.2532C8.8028 31.0327 7.96738 31.124 7.2534 31.5079L6.65837 31.8267L6.81761 26.0384C8.70317 24.7843 11.1214 24.6554 13.1295 25.7017L13.5454 25.9172C14.2723 26.2926 15.0741 26.4996 15.8918 26.5233L19.9795 26.6356C21.1276 26.6687 22.1027 27.4862 22.3356 28.6111L16.247 28.4431C15.9349 28.4345 15.6752 28.6807 15.6664 28.9926C15.6578 29.3047 15.904 29.5647 16.2159 29.5732L22.9351 29.7582H22.9508C23.2569 29.7579 23.5072 29.5142 23.5155 29.2084C23.5224 28.9628 23.5042 28.7168 23.4608 28.4751L28.0022 26.3293C28.0066 26.3273 28.0111 26.3251 28.0155 26.3229C28.6596 25.997 29.4385 26.106 29.9684 26.5964L20.4368 32.7623Z" fill="#AD1E23"/>
<path d="M17.0951 5.93486V0.565225C17.0951 0.253081 16.842 0 16.5298 0C16.2177 0 15.9646 0.253081 15.9646 0.565225V5.93486C15.9646 6.247 16.2177 6.50008 16.5298 6.50008C16.842 6.50008 17.0951 6.247 17.0951 5.93486Z" fill="#AD1E23"/>
<path d="M21.3325 5.93295V3.38944C21.3325 3.0773 21.0794 2.82422 20.7673 2.82422C20.4551 2.82422 20.202 3.0773 20.202 3.38944V5.93295C20.202 6.2451 20.4551 6.49818 20.7673 6.49818C21.0794 6.49818 21.3325 6.2451 21.3325 5.93295Z" fill="#AD1E23"/>
<path d="M12.8548 5.93295V3.38944C12.8548 3.0773 12.6017 2.82422 12.2896 2.82422C11.9774 2.82422 11.7244 3.0773 11.7244 3.38944V5.93295C11.7244 6.2451 11.9774 6.49818 12.2896 6.49818C12.6017 6.49818 12.8548 6.2451 12.8548 5.93295Z" fill="#AD1E23"/>
</svg>
