<svg width="29" height="37" viewBox="0 0 29 37" fill="none" xmlns="http://www.w3.org/2000/svg">
<path d="M5.16315 22.1436C5.54812 22.0353 5.93309 21.9271 6.31806 21.8189C6.425 21.8046 6.53248 21.7898 6.63942 21.7755C6.9339 21.7474 7.22784 21.7194 7.52232 21.6914C7.61391 21.6925 7.70494 21.6936 7.79652 21.6953C8.05152 21.726 8.30597 21.7634 8.56427 21.7491C8.63172 21.7925 8.7052 21.8073 8.78417 21.7963C9.00298 21.8375 9.22124 21.8788 9.44004 21.92C9.49817 21.9848 9.58043 21.9694 9.65392 21.9842C9.87382 22.0623 10.0932 22.1403 10.3131 22.2188C10.3707 22.2425 10.4277 22.2661 10.4853 22.2903C10.6487 22.3666 10.8121 22.4435 10.9761 22.5199C11.0375 22.5793 11.1093 22.6194 11.1927 22.6386C11.3369 22.7287 11.4812 22.8182 11.6254 22.9083C11.7016 22.9622 11.7784 23.016 11.8546 23.0699C11.9966 23.1814 12.1387 23.2929 12.2807 23.4045C12.3399 23.4578 12.3992 23.5111 12.4584 23.5638C12.5873 23.6913 12.7167 23.8187 12.8455 23.9456C12.8982 24.0033 12.9514 24.0605 13.004 24.1181C13.1296 24.272 13.2546 24.4253 13.3802 24.5791C13.3983 24.6445 13.4356 24.6961 13.4926 24.7329C13.6012 24.9016 13.7104 25.0697 13.8189 25.2384C13.8211 25.2752 13.8239 25.312 13.8677 25.3252C13.9774 25.5444 14.0871 25.7636 14.1973 25.9834C14.2116 26.0213 14.2253 26.0598 14.2396 26.0977C14.3065 26.2779 14.3739 26.4581 14.4408 26.6383C14.4617 26.7344 14.4737 26.8339 14.5346 26.9168C14.5768 27.1168 14.619 27.3174 14.6618 27.5173C14.6799 27.6091 14.698 27.7014 14.7161 27.7931C14.738 28.0486 14.7594 28.3047 14.7814 28.5601C14.7874 28.653 14.794 28.7458 14.8 28.8387C14.7863 29.1128 14.7726 29.3864 14.7589 29.6606C14.7068 29.7655 14.6997 29.8765 14.7134 29.9902C14.6218 30.3561 14.5308 30.7221 14.4392 31.088C14.3964 31.2143 14.3531 31.3407 14.3103 31.4671C13.9889 32.1967 13.5925 32.8807 13.0857 33.4982C12.8198 33.7663 12.5538 34.0344 12.2873 34.302C11.6731 34.8124 10.9903 35.2102 10.2659 35.5398C10.1113 35.5678 9.9665 35.6233 9.82776 35.6964C9.48063 35.7766 9.13349 35.8568 8.78636 35.937C8.67614 35.953 8.56591 35.9689 8.45568 35.9848C8.16339 36.003 7.87165 36.0217 7.57936 36.0398C7.48778 36.0381 7.39619 36.0359 7.30461 36.0343C7.06826 36.0118 6.83135 35.9887 6.595 35.9662C6.51054 35.9035 6.41238 35.9211 6.31806 35.9189C6.0987 35.8662 5.87935 35.814 5.65999 35.7612C5.59857 35.7057 5.52289 35.6953 5.44502 35.6915C5.24431 35.6145 5.0436 35.5382 4.84234 35.4613C4.78531 35.4349 4.72828 35.408 4.67179 35.3816C4.51276 35.303 4.35318 35.2245 4.19414 35.1459C4.11572 35.0976 4.0373 35.0492 3.95834 35.0009C3.81137 34.9058 3.66495 34.8102 3.51798 34.7152C3.44559 34.6608 3.37266 34.6064 3.30027 34.5525C3.15659 34.435 3.01291 34.3168 2.86978 34.1993C2.83523 34.168 2.80123 34.1366 2.76668 34.1053C2.61807 33.9542 2.46946 33.8026 2.32084 33.6515C2.29946 33.5894 2.25997 33.5422 2.20294 33.5098C2.079 33.3537 1.95507 33.1982 1.83113 33.0422C1.81523 32.9741 1.77739 32.9219 1.72036 32.8823C1.61342 32.7082 1.50648 32.534 1.39955 32.3604C1.38529 32.3153 1.38255 32.2642 1.33045 32.2412C0.946029 31.4467 0.653189 30.6232 0.547349 29.7408C0.544059 29.7309 0.517736 29.7238 0.50293 29.715C0.50293 29.1656 0.50293 28.6162 0.50293 28.0668C0.624124 27.7827 0.620834 27.4712 0.698705 27.1767C1.26958 25.0131 2.56488 23.4424 4.54292 22.4227C4.60708 22.3897 4.67179 22.3573 4.7365 22.3249C4.87853 22.2644 5.02057 22.204 5.16315 22.1436ZM11.5875 24.4374C11.5442 24.3687 11.4894 24.3126 11.4137 24.2797C11.2815 24.1495 11.1324 24.0423 10.9733 23.9478C10.918 23.883 10.8461 23.844 10.7661 23.8182C10.5939 23.6902 10.4178 23.5682 10.2083 23.5078C10.1738 23.4501 10.1107 23.4462 10.0564 23.4264C9.88369 23.3396 9.7104 23.2523 9.51572 23.2232C9.46527 23.1589 9.38904 23.1748 9.32269 23.1594C9.08249 23.055 8.82585 23.0188 8.5703 22.9787C8.47652 22.9699 8.3833 22.9616 8.28952 22.9529C8.03726 22.8726 7.77897 22.8996 7.52178 22.9111C7.41978 22.9122 7.31777 22.9138 7.21577 22.9149C6.89387 22.9468 6.56922 22.9622 6.26048 23.0737C6.12503 23.0814 5.99506 23.1105 5.87606 23.1787C3.90514 23.8127 2.61368 25.1318 1.95123 27.0855C1.90955 27.208 1.85691 27.3278 1.86403 27.4613C1.75381 27.7822 1.69952 28.1118 1.70994 28.4513C1.68855 28.542 1.67539 28.6332 1.70226 28.7255C1.65126 29.0013 1.70555 29.2749 1.71871 29.5496C1.70884 29.6287 1.73078 29.7013 1.76587 29.7705C1.76313 30.021 1.82839 30.2584 1.91284 30.4913C1.92655 30.5462 1.94026 30.6006 1.95452 30.6556C2.00716 30.8665 2.07571 31.0715 2.17936 31.2632C2.20897 31.3599 2.23858 31.4566 2.30933 31.533C2.36526 31.7165 2.46891 31.8736 2.58462 32.0236C2.60107 32.0906 2.63178 32.1489 2.68826 32.1906C2.78752 32.384 2.91969 32.5532 3.06775 32.7109C3.09023 32.7719 3.12972 32.8186 3.1884 32.8483C3.29369 32.9966 3.41104 33.1329 3.56185 33.2372C3.61998 33.2911 3.67811 33.3449 3.73569 33.3988C3.8514 33.5427 3.99837 33.6466 4.1585 33.735C4.19414 33.7922 4.24405 33.8306 4.30876 33.8498C4.46944 33.9768 4.64108 34.0855 4.82863 34.169C4.89005 34.2311 4.96408 34.2685 5.05018 34.2822C5.23663 34.4053 5.44063 34.4861 5.6556 34.5426C5.72306 34.5822 5.79051 34.6212 5.87331 34.6113C6.0839 34.7036 6.29996 34.7723 6.53303 34.7729C6.59774 34.8294 6.67396 34.8322 6.75348 34.8212C7.00574 34.886 7.26184 34.9014 7.52068 34.8778C7.61226 34.8783 7.70384 34.8794 7.79542 34.88C8.11184 34.8959 8.42443 34.8745 8.72769 34.7739C8.84394 34.7888 8.95198 34.7586 9.05672 34.7113C9.54369 34.6053 10.0032 34.4317 10.4271 34.1663C11.4548 33.6202 12.2505 32.8395 12.8017 31.8115C13.089 31.3709 13.2804 30.8907 13.3874 30.3759C13.4614 30.2578 13.4576 30.1199 13.485 29.9902C13.5552 29.6837 13.5837 29.3722 13.5914 29.0584C13.5919 28.9661 13.5919 28.8738 13.5925 28.781C13.6166 28.5409 13.5557 28.3063 13.542 28.069C13.5245 27.9767 13.5069 27.8849 13.4894 27.7926C13.4625 27.5668 13.412 27.3465 13.3276 27.1344C13.3035 27.058 13.2788 26.9822 13.2546 26.9059C13.1828 26.6757 13.1027 26.4487 12.9689 26.246C12.9602 26.2059 12.9629 26.1598 12.9157 26.1383C12.8313 25.9328 12.7123 25.7477 12.5757 25.5741C12.5637 25.5038 12.5231 25.4543 12.4644 25.417C12.3739 25.2587 12.2741 25.1076 12.1315 24.9895C12.0937 24.9159 12.04 24.8577 11.9698 24.8137C11.8716 24.6588 11.7345 24.5428 11.5875 24.4374Z" fill="#AD1E23"/>
<path d="M21.5601 0.0948488C21.8157 0.11243 22.0712 0.130011 22.3268 0.147043C22.4183 0.164624 22.5105 0.181656 22.602 0.199237C22.8209 0.240442 23.0397 0.281099 23.2585 0.322304C23.3155 0.389882 23.3983 0.375048 23.4718 0.390431C23.6747 0.459657 23.8781 0.528333 24.0811 0.597558C24.1161 0.657994 24.182 0.653049 24.2362 0.671179C24.4216 0.758536 24.6064 0.845892 24.7918 0.933248C24.8099 0.988189 24.8614 0.983244 24.9031 0.99588C25.078 1.10411 25.253 1.21235 25.4279 1.32003C25.469 1.37387 25.5206 1.41288 25.5869 1.43046C25.7438 1.55408 25.9012 1.67825 26.058 1.80186C26.0909 1.85845 26.137 1.89856 26.1995 1.91944C26.3508 2.06778 26.5027 2.21667 26.6541 2.36501C26.6859 2.39962 26.7177 2.43423 26.7495 2.4683C26.8674 2.61224 26.9859 2.75674 27.1038 2.90068C27.1477 2.95837 27.191 3.01606 27.2348 3.0743C27.3407 3.23582 27.4465 3.3979 27.5524 3.55943C27.6001 3.63634 27.6478 3.71326 27.6955 3.79018C27.7745 3.95115 27.854 4.11268 27.9329 4.27366C27.962 4.3297 27.9911 4.38574 28.0201 4.44233C28.2834 5.09777 28.4287 5.78563 28.5773 6.47239C28.5773 7.00367 28.5773 7.5344 28.5773 8.06568C28.4621 8.34094 28.4616 8.64091 28.3914 8.92661C28.1369 9.96609 27.6588 10.8929 27.0133 11.739C26.6629 12.1418 26.2878 12.5192 25.882 12.8664C25.3094 13.307 24.6843 13.6565 24.0257 13.9493C23.8721 13.9806 23.7251 14.0301 23.587 14.1053C23.2398 14.1839 22.8927 14.2625 22.5456 14.341C22.4353 14.3575 22.3251 14.374 22.2154 14.3899C21.9231 14.407 21.6308 14.4245 21.3386 14.4416C21.2475 14.4372 21.1565 14.4328 21.0655 14.4284C20.8296 14.4004 20.5933 14.3724 20.3575 14.3443C20.2681 14.3295 20.1787 14.3147 20.0893 14.2998C19.8672 14.2504 19.6451 14.2004 19.4225 14.1509C19.3797 14.0949 19.3166 14.107 19.2585 14.1009C19.0572 14.0262 18.856 13.9515 18.6547 13.8768C18.6268 13.824 18.5719 13.8306 18.5259 13.8191C18.3125 13.712 18.0987 13.6043 17.8853 13.4971C17.8442 13.44 17.7855 13.4103 17.7192 13.3939C17.5766 13.301 17.4346 13.2082 17.292 13.1148C17.2547 13.0565 17.2031 13.0181 17.1351 13.0021C16.9838 12.8763 16.8324 12.7499 16.6811 12.6241C16.624 12.5714 16.567 12.5181 16.51 12.4654C16.3833 12.3357 16.2572 12.206 16.1305 12.0758C16.0773 12.0165 16.0241 11.9566 15.9709 11.8973C15.8607 11.755 15.7505 11.6127 15.6397 11.4704C15.5985 11.3836 15.5541 11.299 15.4763 11.2374C15.3885 11.0935 15.3013 10.949 15.2136 10.805C15.1878 10.7232 15.1555 10.6446 15.0902 10.5847C15.0014 10.3952 14.912 10.2056 14.8231 10.0166C14.8165 9.96499 14.8226 9.9084 14.7677 9.87599C14.7047 9.676 14.6411 9.47657 14.578 9.27658C14.5555 9.20021 14.533 9.12384 14.5111 9.04803C14.4639 8.83101 14.4168 8.61399 14.3696 8.39698C14.3762 8.30138 14.3839 8.20523 14.3268 8.11897C14.3142 7.88273 14.3022 7.64648 14.2895 7.40969C14.2879 7.29816 14.2868 7.18718 14.2852 7.07565C14.312 6.78336 14.3389 6.49162 14.3663 6.19934C14.3839 6.08891 14.402 5.97902 14.4195 5.86859C14.5308 5.48401 14.6422 5.09997 14.754 4.71538C14.8138 4.57089 14.8741 4.42584 14.9339 4.28135C15.5305 3.09517 16.3367 2.08701 17.4483 1.3453C17.7647 1.13378 18.1025 0.954125 18.4304 0.760184C18.5939 0.693705 18.7573 0.627227 18.9207 0.560748C19.3062 0.44702 19.6912 0.333293 20.0767 0.219565C20.1869 0.211324 20.3021 0.2333 20.4035 0.167371C20.6964 0.142647 20.9892 0.117924 21.2821 0.09375C21.3764 0.09375 21.468 0.0942994 21.5601 0.0948488ZM23.0402 1.47277C22.8313 1.37772 22.607 1.34805 22.3827 1.31783C22.3108 1.31069 22.2396 1.3041 22.1677 1.29696C21.8952 1.21894 21.6171 1.24147 21.3402 1.2563C21.2486 1.25685 21.157 1.25795 21.0655 1.2585C20.7287 1.2607 20.3975 1.3019 20.0789 1.41673C19.9413 1.40794 19.8162 1.45134 19.6967 1.51452C19.6435 1.52606 19.5881 1.53155 19.5376 1.55023C17.6665 2.25018 16.4036 3.54294 15.7642 5.44225C15.7346 5.56367 15.7055 5.68564 15.6759 5.80706C15.5673 6.13011 15.5135 6.46196 15.5179 6.80369C15.4697 6.91027 15.4774 7.0218 15.4894 7.13388C15.4549 7.39211 15.4883 7.64703 15.5311 7.90141C15.524 7.99756 15.5108 8.09425 15.5739 8.17941C15.5684 8.40741 15.6391 8.62059 15.7006 8.8354C15.7236 8.91177 15.7466 8.98759 15.7696 9.06396C15.83 9.27219 15.8903 9.48041 16.0066 9.66666C16.0225 9.75567 16.0543 9.83643 16.119 9.90181C16.1738 10.0815 16.2758 10.2348 16.391 10.3803C16.4244 10.4358 16.4573 10.4913 16.4908 10.5468C16.5977 10.7397 16.7326 10.9122 16.8829 11.0726C16.9235 11.1166 16.9635 11.1605 17.0041 11.2045C17.1105 11.3506 17.224 11.4896 17.3781 11.589C17.4368 11.6434 17.4954 11.6973 17.5541 11.7517C17.6698 11.8951 17.819 11.9962 17.9775 12.0852C18.0137 12.1428 18.0636 12.1819 18.1299 12.1994C18.2917 12.3258 18.4633 12.4346 18.6514 12.5175C18.714 12.5758 18.7858 12.6159 18.8713 12.628C19.0556 12.7532 19.2634 12.8236 19.474 12.8884C19.5102 12.8988 19.547 12.9098 19.5832 12.9203C19.8305 13.023 20.0844 13.1005 20.3536 13.1159C20.4266 13.1329 20.4995 13.1505 20.5725 13.1675C20.8275 13.195 21.0792 13.2598 21.3391 13.2224C21.4307 13.223 21.5228 13.2235 21.6144 13.2246C21.9308 13.2384 22.2401 13.195 22.5456 13.1148C22.6794 13.1279 22.7995 13.073 22.9239 13.04C23.4109 12.9159 23.882 12.7521 24.3048 12.4719C25.3347 11.9253 26.115 11.1303 26.6596 10.1001C26.9245 9.67545 27.1032 9.21669 27.2036 8.72662C27.2628 8.62443 27.2738 8.5129 27.2716 8.39807C27.3736 8.0937 27.3878 7.77944 27.3791 7.46188C27.4125 7.35145 27.4147 7.24102 27.3785 7.13059C27.384 6.89104 27.4027 6.65095 27.3237 6.418C27.3226 6.32241 27.3347 6.22516 27.2826 6.13725C27.2656 5.93123 27.214 5.73344 27.1438 5.54005C27.1235 5.44335 27.1109 5.34391 27.0435 5.26424C26.9996 5.03349 26.902 4.82472 26.7813 4.62528C26.7726 4.57473 26.7676 4.52254 26.715 4.49452C26.6563 4.30937 26.5406 4.15718 26.4315 4.0017C26.4013 3.9116 26.3503 3.83633 26.2763 3.77644C26.1819 3.61876 26.0821 3.46493 25.9412 3.34296C25.9061 3.26934 25.8524 3.21275 25.7838 3.16989C25.6818 3.01716 25.5491 2.89574 25.401 2.79025C25.3588 2.72158 25.3034 2.66718 25.2294 2.63312C25.0994 2.50071 24.9481 2.39578 24.7907 2.29908C24.7364 2.23205 24.6629 2.19524 24.5845 2.16612C24.4101 2.04086 24.2368 1.91504 24.0268 1.85406C23.9873 1.79417 23.9204 1.78483 23.8601 1.76231C23.667 1.66671 23.4718 1.57771 23.2585 1.53595C23.191 1.50024 23.1236 1.45793 23.0402 1.47277Z" fill="#AD1E23"/>
<path d="M2.7272 19.8701C2.64001 19.6899 2.55281 19.5097 2.46562 19.3294C2.44588 19.2674 2.43107 19.2025 2.37294 19.1624C2.29781 18.9289 2.18155 18.7147 2.05707 18.5048C2.04336 18.4636 2.05213 18.4114 1.99949 18.3894C1.91174 18.2043 1.824 18.0186 1.73626 17.8334C1.70829 17.7829 1.68032 17.7318 1.65236 17.6812C1.57613 17.4532 1.46426 17.2428 1.34142 17.0373C1.32881 16.9901 1.331 16.9357 1.27616 16.9099C1.04474 16.3665 0.783157 15.838 0.50293 15.3182C0.50293 15.2083 0.50293 15.0984 0.50293 14.9886C0.767802 14.5617 1.00306 14.465 1.43464 14.6067C1.47194 14.6419 1.50923 14.6765 1.54597 14.7117C1.63426 14.8781 1.7231 15.0452 1.81139 15.2116C1.8262 15.2984 1.86074 15.3759 1.92326 15.4391C1.97316 15.6132 2.06255 15.7682 2.15413 15.922C2.164 15.989 2.19307 16.0462 2.24297 16.0923C2.33071 16.2775 2.41846 16.4626 2.5062 16.6478C2.54239 16.7203 2.57804 16.7928 2.61423 16.8653C2.70143 17.045 2.78862 17.2252 2.87581 17.4049C2.95094 17.5669 3.02607 17.729 3.13082 17.9548C3.19772 17.6378 3.25146 17.3845 3.30466 17.1318C3.45053 16.7104 3.5964 16.289 3.74227 15.8671C3.8344 15.711 3.90843 15.5479 3.95614 15.3726C4.32082 14.6694 4.72115 13.9875 5.18838 13.3469C5.81409 12.5574 6.52042 11.8498 7.30955 11.224C7.94842 10.7543 8.63172 10.3587 9.33311 9.99223C9.49598 9.92466 9.65885 9.85763 9.82172 9.79005C10.4924 9.54227 11.1719 9.3258 11.8743 9.1846C12.2144 9.11702 12.5675 9.12527 12.8965 9C13.3353 9 13.774 9 14.2127 9C14.2818 9.12252 14.4288 9.16427 14.4913 9.30437C14.6728 9.70819 14.4534 10.1213 14.0147 10.1724C13.8798 10.1878 13.7444 10.1961 13.6089 10.2082C13.5173 10.2098 13.4257 10.2114 13.3347 10.2136C13.0188 10.2043 12.7085 10.245 12.403 10.3235C12.2867 10.3032 12.1787 10.3323 12.0734 10.3774C11.6961 10.423 11.3331 10.5246 10.9777 10.657C10.8242 10.6889 10.6734 10.7284 10.5385 10.8131C9.97253 10.9949 9.44333 11.2531 8.94704 11.58C8.40688 11.8542 7.93252 12.2245 7.479 12.6201C6.6619 13.3332 5.95393 14.1381 5.43186 15.0968C5.10228 15.5935 4.84508 16.1253 4.66302 16.6934C4.58295 16.8296 4.53305 16.9763 4.51111 17.1324C4.37018 17.4862 4.27147 17.851 4.22979 18.2306C4.16179 18.3444 4.16398 18.4674 4.17879 18.629C4.4124 18.4372 4.62628 18.2614 4.84015 18.0856C5.65999 17.4455 6.48038 16.8071 7.29803 16.1643C7.43129 16.0594 7.57168 15.9863 7.74058 15.9693C7.80913 15.9819 7.87768 15.9945 7.94623 16.0072C8.13652 16.072 8.25059 16.2132 8.33175 16.3885C8.33778 16.4527 8.34326 16.5176 8.3493 16.5819C8.30268 16.8258 8.16613 17.0011 7.96817 17.1505C7.60842 17.4219 7.26348 17.7131 6.91197 17.996C6.45571 18.3158 6.02193 18.6652 5.59418 19.0218C4.97176 19.4976 4.34002 19.9618 3.75543 20.4838C3.5953 20.6272 3.42366 20.6046 3.24324 20.5958C3.21088 20.5299 3.14069 20.5425 3.08694 20.5211C3.00249 20.3761 2.91804 20.231 2.83359 20.086C2.79849 20.0146 2.76285 19.9426 2.7272 19.8701Z" fill="#AD1E23"/>
<path d="M21.7324 20.4134C21.6025 20.1788 21.6189 19.9486 21.7555 19.7228C21.8213 19.6574 21.8865 19.592 21.9523 19.5267C23.1538 18.5339 24.3559 17.5422 25.5541 16.5461C25.6408 16.4741 25.7274 16.4164 25.836 16.3906C25.9452 16.4033 26.0537 16.4159 26.1629 16.4291C26.3011 16.4873 26.419 16.5725 26.5111 16.6917C26.5423 16.7472 26.5742 16.8027 26.6054 16.8582C26.6646 17.0741 26.7606 17.2735 26.8741 17.4653C26.8862 17.5554 26.9196 17.6356 26.9805 17.7037C27.0238 17.8757 27.1039 18.0317 27.1905 18.185C27.2169 18.2833 27.2487 18.3784 27.3172 18.457C27.3764 18.6652 27.4713 18.8569 27.5772 19.0443C27.5898 19.0893 27.5832 19.1437 27.6358 19.1695C27.6912 19.3613 27.7768 19.5404 27.8738 19.714C27.8892 19.7964 27.9188 19.8722 27.9786 19.9343C28.1798 20.392 28.3805 20.8502 28.5818 21.3078C28.5818 21.4177 28.5818 21.5276 28.5818 21.6375C28.454 21.804 28.3049 21.9402 28.0894 21.9809C27.9978 21.977 27.9056 21.9726 27.8141 21.9688C27.6594 21.8919 27.5426 21.7743 27.4549 21.6265C27.434 21.5721 27.4351 21.5067 27.3759 21.4721C27.3189 21.2556 27.2213 21.0568 27.111 20.8634C27.1099 20.8002 27.0847 20.7469 27.0408 20.7024C26.975 20.4903 26.8873 20.2881 26.7727 20.098C26.7798 20.031 26.7381 19.9838 26.7058 19.9327C26.6076 19.675 26.5089 19.4173 26.3521 19.1607C26.2522 19.6497 26.0888 20.0898 25.9528 20.5376C25.8766 20.676 25.8146 20.8205 25.7806 20.9754C25.4543 21.6402 25.0951 22.2858 24.6734 22.8951C24.0121 23.7593 23.2537 24.5257 22.3779 25.1729C21.7911 25.5883 21.1599 25.9267 20.5199 26.2492C20.3532 26.3124 20.1865 26.3756 20.0198 26.4388C18.8912 26.8442 17.7319 27.0772 16.5287 27.0777C16.2299 27.0777 16.0215 26.9684 15.9052 26.6915C15.8965 26.5805 15.8877 26.4695 15.8789 26.3586C15.9513 26.0833 16.1449 25.9405 16.4087 25.8745C16.4997 25.8949 16.5907 25.8971 16.6817 25.8718C16.9762 25.8745 17.2718 25.8943 17.5592 25.8075C17.6721 25.8174 17.7851 25.8273 17.8882 25.7625C18.2469 25.7383 18.5934 25.6559 18.9301 25.5317C19.0886 25.5229 19.2307 25.4575 19.376 25.4026C19.8926 25.2279 20.3954 25.0229 20.8534 24.7213C21.133 24.5961 21.3886 24.4323 21.6233 24.2356C22.4546 23.6687 23.1522 22.9665 23.7236 22.138C23.9178 21.9018 24.0834 21.6474 24.2106 21.3688C24.5144 20.8864 24.7497 20.3727 24.9076 19.8239C24.974 19.7052 25.02 19.5799 25.0239 19.4415C25.1648 19.1162 25.2125 18.7674 25.2723 18.4223C25.2734 18.3976 25.2854 18.3608 25.2745 18.3509C25.2465 18.3267 25.2339 18.3581 25.2235 18.3806C24.8966 18.6135 24.5928 18.8751 24.2978 19.1465C23.7505 19.5618 23.224 20.0024 22.7075 20.4552C22.4366 20.7073 22.1476 20.715 21.8426 20.5216C21.8037 20.4865 21.7681 20.4502 21.7324 20.4134Z" fill="#AD1E23"/>
<path d="M10.9655 25.762C11.0412 25.8356 11.1174 25.9098 11.1931 25.9834C11.4009 26.1537 11.3615 26.3043 11.1876 26.4867C10.9836 26.7015 10.812 26.9465 10.6261 27.1789C10.6041 27.1778 10.5926 27.1883 10.591 27.2102C10.4204 27.1657 10.3552 26.9855 10.2066 26.9119C10.1665 26.8432 10.1122 26.7888 10.0398 26.7548C9.90933 26.6185 9.75962 26.5119 9.57536 26.4603C9.4942 26.3823 9.39 26.3592 9.28526 26.3389C9.0511 26.2554 8.81035 26.2284 8.56303 26.257C8.47145 26.2576 8.37987 26.2581 8.28774 26.2586C7.49805 26.329 6.97654 26.791 6.5455 27.4503C6.8005 27.4503 7.02315 27.4503 7.24525 27.4503C7.33738 27.4509 7.42896 27.452 7.52109 27.4525C7.79473 27.452 8.06838 27.4509 8.34203 27.4503C8.43416 27.4509 8.52574 27.452 8.61787 27.4525C8.81803 27.5036 9.03574 27.3871 9.22823 27.5151C9.22877 27.6075 9.22987 27.6992 9.23042 27.7915C9.22713 27.9442 9.21123 28.0981 9.22329 28.2497C9.2359 28.4107 9.19477 28.4772 9.01984 28.4618C8.85093 28.4469 8.67929 28.4667 8.50874 28.4711C8.4347 28.47 8.36067 28.4689 8.28664 28.4678C8.01354 28.4689 7.74044 28.47 7.4668 28.4711C7.37467 28.47 7.28199 28.4689 7.18986 28.4678C7.10815 28.4645 7.02644 28.4585 6.94418 28.4579C6.22963 28.4557 6.15779 28.5579 6.36727 29.2738C6.41882 29.4958 6.58773 29.343 6.69795 29.3777C6.99025 29.3771 7.28199 29.376 7.57428 29.3755C7.64777 29.376 7.72125 29.3771 7.79473 29.3777C8.06838 29.3771 8.34258 29.376 8.61622 29.3755C8.7078 29.376 8.79993 29.3771 8.89151 29.3777C8.92771 29.3804 8.9661 29.3925 8.99955 29.3848C9.23316 29.3331 9.305 29.4452 9.28307 29.6578C9.28361 29.7496 9.28471 29.8419 9.28526 29.9337C9.25948 30.3682 9.25948 30.3682 8.83887 30.4171C8.72809 30.3869 8.61732 30.3842 8.506 30.4138C7.94993 30.4083 7.39331 30.4034 6.83724 30.3963C6.72153 30.3946 6.6486 30.4094 6.73799 30.5451C6.96612 30.8913 7.21673 31.2121 7.62364 31.3643C7.66367 31.4258 7.73057 31.4226 7.79144 31.4352C8.07551 31.5566 8.36999 31.5775 8.67161 31.5269C8.78019 31.5429 8.88768 31.5396 8.99352 31.5077C9.47116 31.4061 9.866 31.1566 10.223 30.8325C10.2998 30.7627 10.3486 30.6457 10.4791 30.6479C10.5345 30.721 10.5899 30.7935 10.6458 30.8665C10.7544 31.0138 10.863 31.1605 10.971 31.3077C11.0258 31.383 11.0812 31.4583 11.1361 31.5335C11.2726 31.683 11.2342 31.7989 11.1021 31.9434C10.6858 32.4 10.1824 32.7093 9.60387 32.9071C9.4761 32.9356 9.34887 32.9647 9.2211 32.9933C8.9469 33.0082 8.67271 33.0235 8.39851 33.0384C8.28828 33.0318 8.17806 33.0252 8.06728 33.0186C7.87754 32.9906 7.6878 32.9625 7.49805 32.9345C7.43115 32.9153 7.3648 32.8961 7.29789 32.8768C7.10157 32.7906 6.90524 32.7049 6.70947 32.6186C6.63215 32.5653 6.55537 32.5126 6.47805 32.4593C6.34918 32.35 6.22031 32.2401 6.09143 32.1307C6.03714 32.0764 5.98285 32.022 5.92856 31.9676C5.82108 31.8379 5.71304 31.7082 5.60556 31.5786C5.55237 31.5 5.49862 31.4209 5.44543 31.3423C5.36701 31.1836 5.28914 31.0253 5.21072 30.8665C5.18111 30.7918 5.15204 30.7171 5.12243 30.6418C4.84988 30.5122 4.56417 30.6006 4.28394 30.5924C4.17591 30.5929 4.06623 30.5924 3.95655 30.5924C3.81397 30.4056 3.93955 30.1864 3.88361 29.9891C3.88252 29.8968 3.88142 29.8045 3.88032 29.7128C3.89294 29.632 3.89568 29.5441 4.01194 29.5458C4.12162 29.5463 4.23075 29.5469 4.34042 29.5474C4.85152 29.5793 4.85152 29.5793 4.82575 29.0821C4.8252 29.0733 4.82301 29.0645 4.82136 29.0551C4.82026 28.9628 4.81972 28.8705 4.81862 28.7782C4.8603 28.6294 4.76049 28.6381 4.66562 28.6392C4.44791 28.6409 4.2302 28.642 4.01249 28.6431C3.95216 28.6343 3.89239 28.6261 3.83207 28.6173C3.82878 28.3601 3.82549 28.103 3.82219 27.8464C3.80355 27.6629 3.90226 27.6064 4.06623 27.6201C4.32123 27.6228 4.57678 27.619 4.83178 27.6305C4.96449 27.6366 5.01714 27.5827 5.0632 27.4608C5.49314 26.3224 6.28337 25.5373 7.41031 25.0901C7.53864 25.0554 7.66696 25.0214 7.79528 24.9868C8.08757 24.9664 8.37987 24.9461 8.67216 24.9258C8.76374 24.9291 8.85532 24.9318 8.9469 24.9351C9.18326 24.9763 9.41961 25.017 9.65597 25.0582C9.69929 25.1148 9.76291 25.1021 9.82158 25.1071C9.99762 25.1824 10.1731 25.2576 10.3491 25.3329C10.4303 25.3818 10.5115 25.4312 10.5926 25.4801C10.7166 25.573 10.841 25.6675 10.9655 25.762Z" fill="#AD1E23"/>
<path d="M21.4518 2.1347C21.5422 2.16162 21.6338 2.16272 21.7249 2.13855C22.0671 2.14899 21.8631 2.42973 21.9382 2.57203C21.8773 2.84454 22.1054 2.71762 22.2063 2.76652C22.4295 2.80938 22.6533 2.85278 22.8765 2.89563C22.9401 2.94508 23.013 2.96486 23.0925 2.96541C23.2752 3.03958 23.4583 3.1143 23.6409 3.18847C23.6645 3.24121 23.7188 3.23407 23.761 3.25055C23.9579 3.35988 24.1548 3.46922 24.3522 3.5791C24.3917 3.60932 24.4317 3.63953 24.4712 3.6692C24.271 4.01478 23.9755 4.28619 23.7413 4.60485C23.6431 4.73835 23.5691 4.59441 23.483 4.59551C23.4698 4.54881 23.432 4.54331 23.3925 4.54221C23.2274 4.41145 23.0426 4.32025 22.8397 4.26641C22.7514 4.20762 22.6588 4.15982 22.5491 4.16147C22.3423 4.05763 22.117 4.03401 21.8916 4.01093C21.8 4.00819 21.7079 4.00599 21.6163 4.00324C21.3015 4.00214 20.979 3.93567 20.6824 4.10488C20.3193 4.21861 20.0254 4.40156 19.9738 4.82351C19.8806 5.11525 19.9113 5.38281 20.1269 5.61411C20.1411 5.66576 20.1735 5.69817 20.2256 5.71081C20.3967 5.88772 20.6215 5.95859 20.848 6.02617C20.8951 6.06682 20.9461 6.09649 21.0114 6.0899C21.1891 6.19484 21.3887 6.22945 21.5867 6.26901C21.6421 6.32505 21.7172 6.31076 21.7846 6.32505C22.0391 6.38988 22.2935 6.45471 22.5485 6.51954C22.6149 6.56019 22.684 6.59371 22.7646 6.59096C22.9291 6.66184 23.0931 6.73216 23.2576 6.80303C23.3196 6.86347 23.3942 6.89973 23.4775 6.92006C23.6426 7.02939 23.8076 7.13817 23.9727 7.24751C24.027 7.30245 24.0818 7.35794 24.1361 7.41288C24.2189 7.54254 24.3023 7.67275 24.3851 7.80241C24.4257 7.89911 24.4668 7.9958 24.5074 8.0925C24.5436 8.28699 24.5803 8.48093 24.6165 8.67542C24.622 8.76498 24.6269 8.85453 24.6324 8.94408C24.5792 9.29625 24.5419 9.65227 24.3867 9.98027C24.1323 10.4412 23.7693 10.7939 23.3196 11.061C22.9549 11.2461 22.5573 11.3247 22.1647 11.4197C21.8384 11.412 21.8384 11.412 21.8801 11.7483C21.8142 11.9241 21.9557 12.1708 21.8082 12.2757C21.6865 12.3625 21.4649 12.3081 21.2878 12.3164C21.2165 12.3048 21.1452 12.2927 21.0745 12.2812C21.0723 12.0477 21.0701 11.8142 21.0679 11.5807C21.1161 11.3032 20.8962 11.451 20.7959 11.4082C20.5754 11.3571 20.3555 11.306 20.1351 11.2543C20.0764 11.1961 19.998 11.1912 19.9234 11.1769C19.7578 11.1093 19.5922 11.0417 19.426 10.9742C19.3635 10.9143 19.2878 10.8802 19.2039 10.8615C19.0218 10.7494 18.8392 10.6374 18.6572 10.5253C18.6506 10.4802 18.6144 10.4742 18.5793 10.4659C18.4241 10.3418 18.2695 10.2176 18.1143 10.0929C18.338 9.80391 18.5623 9.51547 18.786 9.22648C18.8337 9.16879 18.8815 9.1111 18.9292 9.05396C19.0202 9.00342 19.0745 9.08913 19.1463 9.11165C19.2555 9.22318 19.3728 9.32372 19.517 9.38856C19.5593 9.45723 19.6278 9.48525 19.6997 9.50888C19.8982 9.65392 20.1126 9.766 20.3544 9.81929C20.4087 9.88467 20.4921 9.87918 20.5628 9.9039C20.78 9.97697 20.996 10.0544 21.2302 10.05C21.296 10.1094 21.3744 10.0978 21.4523 10.0907C21.7484 10.1379 22.0424 10.1478 22.3286 10.0358C22.8057 9.93247 23.1457 9.69403 23.1841 9.16055C23.1956 8.93474 23.1457 8.72871 22.9889 8.5573C22.9406 8.4595 22.8688 8.38753 22.7673 8.34687C22.6045 8.22436 22.4191 8.15458 22.2222 8.11118C22.1603 8.05129 22.0808 8.03261 22.0002 8.01613C21.8077 7.93152 21.6097 7.86339 21.4008 7.83263C21.3262 7.80461 21.2516 7.77714 21.177 7.74912C20.9582 7.69088 20.7394 7.63264 20.5206 7.57495C20.457 7.52716 20.3846 7.50463 20.3056 7.50243C20.1225 7.42881 19.9393 7.35464 19.7561 7.28102C19.7331 7.22883 19.6794 7.23487 19.6371 7.21894C19.4408 7.08818 19.2439 6.95742 19.0476 6.82666C19.0125 6.79095 18.978 6.75578 18.9429 6.72007C18.8337 6.55195 18.7246 6.38329 18.6155 6.21517C18.599 6.17011 18.5826 6.12506 18.5667 6.08001C18.5245 5.8619 18.4822 5.64433 18.44 5.42621C18.4384 5.33501 18.4367 5.24326 18.4351 5.15206C18.5014 4.72791 18.6106 4.3186 18.8398 3.9494C19.0394 3.68788 19.2587 3.44614 19.5297 3.25605C19.9536 2.99563 20.4093 2.81981 20.905 2.77366C21.109 2.75498 21.1732 2.66708 21.1359 2.48083C21.0832 2.22151 21.2 2.11712 21.4518 2.1347Z" fill="#AD1E23"/>
</svg>
