<svg width="12" height="17" viewBox="0 0 12 17" fill="none" xmlns="http://www.w3.org/2000/svg">
<path d="M5.71161 1C5.17608 1 4.66248 1.21274 4.2838 1.59142C3.90512 1.9701 3.69238 2.4837 3.69238 3.01923V8.40385C3.69238 8.93938 3.90512 9.45298 4.2838 9.83166C4.66248 10.2103 5.17608 10.4231 5.71161 10.4231C6.24715 10.4231 6.76075 10.2103 7.13943 9.83166C7.5181 9.45298 7.73084 8.93938 7.73084 8.40385V3.01923C7.73084 2.4837 7.5181 1.9701 7.13943 1.59142C6.76075 1.21274 6.24715 1 5.71161 1V1Z" stroke="#7D8082" stroke-width="1.5" stroke-linecap="round" stroke-linejoin="round"/>
<path d="M10.4231 7.05762V8.40377C10.4231 9.65335 9.92669 10.8517 9.0431 11.7353C8.15952 12.6189 6.96112 13.1153 5.71154 13.1153C4.46196 13.1153 3.26356 12.6189 2.37998 11.7353C1.49639 10.8517 1 9.65335 1 8.40377V7.05762" stroke="#7D8082" stroke-width="1.5" stroke-linecap="round" stroke-linejoin="round"/>
<path d="M5.71167 13.6924V15.4232" stroke="#7D8082" stroke-width="1.5" stroke-linecap="round" stroke-linejoin="round"/>
<path d="M3.01929 16H8.4039" stroke="#7D8082" stroke-width="1.5" stroke-linecap="round" stroke-linejoin="round"/>
</svg>
