<svg width="15" height="26" viewBox="0 0 15 26" fill="none" xmlns="http://www.w3.org/2000/svg">
<path d="M9.76663 2.77344H5.43332C5.19414 2.77344 5 2.96757 5 3.20675C5 3.44593 5.19414 3.64007 5.43332 3.64007H9.76663C10.0058 3.64007 10.1999 3.44593 10.1999 3.20675C10.1999 2.96757 10.0058 2.77344 9.76663 2.77344Z" fill="#AD1E23"/>
<mask id="path-2-inside-1" fill="white">
<path d="M7.99903 21.0898H6.92308C6.26399 21.0898 5.72754 21.6263 5.72754 22.2854V22.4947C5.72754 23.1538 6.26399 23.6898 6.92268 23.6898H7.99863C8.65772 23.6898 9.19417 23.1538 9.19417 22.4947V22.2854C9.19417 21.6263 8.65772 21.0898 7.99903 21.0898ZM8.32754 22.4947C8.32754 22.6758 8.18022 22.8232 7.99909 22.8232H6.92308C6.74154 22.8232 6.59417 22.6758 6.59417 22.4947V22.2854C6.59417 22.1038 6.74149 21.9565 6.92308 21.9565H7.99863C8.18022 21.9565 8.32754 22.1038 8.32754 22.2854V22.4947Z"/>
</mask>
<path d="M7.99903 20.0898H6.92308V22.0898H7.99903V20.0898ZM6.92308 20.0898C5.71171 20.0898 4.72754 21.074 4.72754 22.2854H6.72754C6.72754 22.1786 6.81628 22.0898 6.92308 22.0898V20.0898ZM4.72754 22.2854V22.4947H6.72754V22.2854H4.72754ZM4.72754 22.4947C4.72754 23.7063 5.71193 24.6898 6.92268 24.6898V22.6898C6.81605 22.6898 6.72754 22.6013 6.72754 22.4947H4.72754ZM6.92268 24.6898H7.99863V22.6898H6.92268V24.6898ZM7.99863 24.6898C9.20956 24.6898 10.1942 23.7065 10.1942 22.4947H8.19417C8.19417 22.6011 8.10588 22.6898 7.99863 22.6898V24.6898ZM10.1942 22.4947V22.2854H8.19417V22.4947H10.1942ZM10.1942 22.2854C10.1942 21.0742 9.21022 20.0898 7.99903 20.0898V22.0898C8.10521 22.0898 8.19417 22.1784 8.19417 22.2854H10.1942ZM7.32754 22.4947C7.32754 22.1236 7.62793 21.8232 7.99909 21.8232V23.8232C8.73251 23.8232 9.32754 23.2281 9.32754 22.4947H7.32754ZM7.99909 21.8232H6.92308V23.8232H7.99909V21.8232ZM6.92308 21.8232C7.29282 21.8232 7.59417 22.1226 7.59417 22.4947H5.59417C5.59417 23.2291 6.19026 23.8232 6.92308 23.8232V21.8232ZM7.59417 22.4947V22.2854H5.59417V22.4947H7.59417ZM7.59417 22.2854C7.59417 22.656 7.29387 22.9565 6.92308 22.9565V20.9565C6.1891 20.9565 5.59417 21.5517 5.59417 22.2854H7.59417ZM6.92308 22.9565H7.99863V20.9565H6.92308V22.9565ZM7.99863 22.9565C7.62793 22.9565 7.32754 22.6561 7.32754 22.2854H9.32754C9.32754 21.5515 8.73251 20.9565 7.99863 20.9565V22.9565ZM7.32754 22.2854V22.4947H9.32754V22.2854H7.32754Z" fill="#AD1E23" mask="url(#path-2-inside-1)"/>
<path d="M1.29545 5.72656H14M1 19.9084H14" stroke="#AD1E23"/>
<path d="M12 1H3C1.89543 1 1 1.89543 1 3V17.1128V22.6364C1 23.7409 1.89543 24.6364 3 24.6364H12C13.1046 24.6364 14 23.7409 14 22.6364V3C14 1.89543 13.1046 1 12 1Z" stroke="#AD1E23"/>
</svg>
