<svg width="24" height="24" viewBox="0 0 24 24" fill="none" xmlns="http://www.w3.org/2000/svg">
<mask id="mask0" mask-type="alpha" maskUnits="userSpaceOnUse" x="0" y="0" width="24" height="24">
<rect width="24" height="24" fill="#C4C4C4"/>
</mask>
<g mask="url(#mask0)">
<path d="M20.3636 10.1818C20.3636 16.5455 12.1818 22 12.1818 22C12.1818 22 4 16.5455 4 10.1818C4 8.01187 4.86201 5.93079 6.3964 4.3964C7.93079 2.86201 10.0119 2 12.1818 2C14.3518 2 16.4328 2.86201 17.9672 4.3964C19.5016 5.93079 20.3636 8.01187 20.3636 10.1818Z" stroke="#089BAD" stroke-linecap="round" stroke-linejoin="round"/>
<path d="M12.1814 12.9091C13.6876 12.9091 14.9086 11.6881 14.9086 10.1819C14.9086 8.67563 13.6876 7.45459 12.1814 7.45459C10.6751 7.45459 9.4541 8.67563 9.4541 10.1819C9.4541 11.6881 10.6751 12.9091 12.1814 12.9091Z" stroke="#089BAD" stroke-linecap="round" stroke-linejoin="round"/>
</g>
</svg>
