<svg width="256" height="117" viewBox="0 0 256 117" fill="none" xmlns="http://www.w3.org/2000/svg">
<path d="M4.94206 112L0.942062 100.608H2.28606L5.77406 110.88H5.26206L8.83006 100.608L9.83806 100.624L13.3421 110.88H12.8461L16.3661 100.608H17.6621L13.6781 112H12.5581L9.13406 102.176H9.48606L6.04606 112H4.94206ZM25.1447 111.04C24.7927 111.371 24.3394 111.632 23.7847 111.824C23.2407 112.016 22.6807 112.112 22.1047 112.112C21.2727 112.112 20.5527 111.947 19.9447 111.616C19.3474 111.285 18.8834 110.811 18.5527 110.192C18.2327 109.563 18.0727 108.816 18.0727 107.952C18.0727 107.12 18.2327 106.389 18.5527 105.76C18.8727 105.131 19.3154 104.64 19.8807 104.288C20.4567 103.936 21.118 103.76 21.8647 103.76C22.5794 103.76 23.1927 103.92 23.7047 104.24C24.2167 104.549 24.606 104.997 24.8727 105.584C25.15 106.171 25.2887 106.875 25.2887 107.696V107.936H19.2087V107.088H24.5527L24.1367 107.68C24.158 106.741 23.9714 106.021 23.5767 105.52C23.1927 105.019 22.6274 104.768 21.8807 104.768C21.102 104.768 20.4887 105.045 20.0407 105.6C19.6034 106.144 19.3847 106.901 19.3847 107.872C19.3847 108.917 19.614 109.707 20.0727 110.24C20.542 110.773 21.2247 111.04 22.1207 111.04C22.59 111.04 23.038 110.965 23.4647 110.816C23.902 110.656 24.318 110.416 24.7127 110.096L25.1447 111.04ZM38.5157 112H37.2357V109.84L37.4277 110.016C37.2464 110.688 36.8997 111.205 36.3877 111.568C35.8757 111.931 35.2517 112.112 34.5157 112.112C33.8117 112.112 33.1877 111.941 32.6437 111.6C32.1104 111.248 31.6944 110.757 31.3957 110.128C31.097 109.488 30.9477 108.747 30.9477 107.904C30.9477 107.061 31.0917 106.331 31.3797 105.712C31.6784 105.093 32.0944 104.613 32.6277 104.272C33.1717 103.931 33.801 103.76 34.5157 103.76C35.2517 103.76 35.8757 103.947 36.3877 104.32C36.8997 104.683 37.2464 105.195 37.4277 105.856L37.2197 106.016V100.224H38.5157V112ZM34.7717 111.04C35.5504 111.04 36.153 110.773 36.5797 110.24C37.017 109.696 37.2357 108.928 37.2357 107.936C37.2357 106.955 37.0224 106.197 36.5957 105.664C36.169 105.12 35.561 104.848 34.7717 104.848C33.9824 104.848 33.3637 105.115 32.9157 105.648C32.4784 106.181 32.2597 106.933 32.2597 107.904C32.2597 108.896 32.4784 109.669 32.9157 110.224C33.3637 110.768 33.9824 111.04 34.7717 111.04ZM44.3494 112.112C43.5814 112.112 42.9094 111.941 42.3334 111.6C41.7681 111.259 41.3254 110.779 41.0054 110.16C40.6961 109.531 40.5414 108.789 40.5414 107.936C40.5414 107.093 40.6961 106.357 41.0054 105.728C41.3254 105.099 41.7681 104.613 42.3334 104.272C42.9094 103.931 43.5814 103.76 44.3494 103.76C45.1174 103.76 45.7841 103.931 46.3494 104.272C46.9254 104.613 47.3681 105.099 47.6774 105.728C47.9974 106.357 48.1574 107.093 48.1574 107.936C48.1574 108.789 47.9974 109.531 47.6774 110.16C47.3681 110.779 46.9254 111.259 46.3494 111.6C45.7841 111.941 45.1174 112.112 44.3494 112.112ZM44.3494 111.04C45.1388 111.04 45.7468 110.779 46.1734 110.256C46.6108 109.723 46.8294 108.949 46.8294 107.936C46.8294 106.944 46.6108 106.181 46.1734 105.648C45.7361 105.115 45.1281 104.848 44.3494 104.848C43.5708 104.848 42.9574 105.115 42.5094 105.648C42.0721 106.181 41.8534 106.944 41.8534 107.936C41.8534 108.949 42.0668 109.723 42.4934 110.256C42.9308 110.779 43.5494 111.04 44.3494 111.04ZM50.1777 112V106.208C50.1777 105.835 50.167 105.461 50.1457 105.088C50.135 104.704 50.103 104.325 50.0497 103.952H51.2817L51.4257 105.616L51.2657 105.744C51.4897 105.093 51.863 104.603 52.3857 104.272C52.9084 103.931 53.511 103.76 54.1937 103.76C56.1244 103.76 57.0897 104.821 57.0897 106.944V112H55.7937V107.008C55.7937 106.261 55.6444 105.717 55.3457 105.376C55.047 105.024 54.5777 104.848 53.9377 104.848C53.191 104.848 52.5937 105.077 52.1457 105.536C51.6977 105.995 51.4737 106.613 51.4737 107.392V112H50.1777ZM59.6882 104.112L59.0802 103.632C59.3682 103.323 59.5602 103.04 59.6562 102.784C59.7522 102.528 59.8002 102.267 59.8002 102L60.1842 102.256H59.0162V100.608H60.6642V101.776C60.6642 102.213 60.5895 102.619 60.4402 102.992C60.3015 103.365 60.0509 103.739 59.6882 104.112ZM61.8542 104.976V103.952H67.0222V104.976H61.8542ZM66.9902 110.848V111.952C66.8089 112.005 66.6275 112.043 66.4462 112.064C66.2755 112.096 66.0835 112.112 65.8702 112.112C65.1235 112.112 64.5262 111.899 64.0782 111.472C63.6409 111.045 63.4222 110.405 63.4222 109.552V101.888L64.7182 101.424V109.376C64.7182 109.803 64.7769 110.133 64.8942 110.368C65.0222 110.603 65.1929 110.768 65.4062 110.864C65.6195 110.949 65.8595 110.992 66.1262 110.992C66.2862 110.992 66.4302 110.981 66.5582 110.96C66.6862 110.939 66.8302 110.901 66.9902 110.848ZM72.7558 112V100.224H74.0518V105.584L73.8438 105.744C74.0678 105.093 74.4411 104.603 74.9638 104.272C75.4865 103.931 76.0891 103.76 76.7718 103.76C78.7025 103.76 79.6678 104.821 79.6678 106.944V112H78.3718V107.008C78.3718 106.261 78.2225 105.717 77.9238 105.376C77.6251 105.024 77.1558 104.848 76.5158 104.848C75.7691 104.848 75.1718 105.077 74.7238 105.536C74.2758 105.995 74.0518 106.613 74.0518 107.392V112H72.7558ZM85.2032 112.112C84.4885 112.112 83.8592 111.947 83.3152 111.616C82.7819 111.275 82.3659 110.795 82.0672 110.176C81.7792 109.547 81.6352 108.811 81.6352 107.968C81.6352 107.125 81.7845 106.389 82.0832 105.76C82.3819 105.131 82.7979 104.64 83.3312 104.288C83.8752 103.936 84.4992 103.76 85.2032 103.76C85.9392 103.76 86.5632 103.941 87.0752 104.304C87.5872 104.667 87.9339 105.184 88.1152 105.856L87.9232 105.984V103.952H89.2032V112H87.9232V109.92L88.1152 110.016C87.9339 110.688 87.5872 111.205 87.0752 111.568C86.5632 111.931 85.9392 112.112 85.2032 112.112ZM85.4592 111.04C86.2485 111.04 86.8565 110.773 87.2832 110.24C87.7099 109.696 87.9232 108.928 87.9232 107.936C87.9232 106.944 87.7045 106.181 87.2672 105.648C86.8405 105.115 86.2379 104.848 85.4592 104.848C84.6699 104.848 84.0512 105.125 83.6032 105.68C83.1659 106.224 82.9472 106.987 82.9472 107.968C82.9472 108.949 83.1659 109.707 83.6032 110.24C84.0512 110.773 84.6699 111.04 85.4592 111.04ZM94.0769 112L90.6529 103.968H92.0129L94.9249 111.056H94.5409L97.4849 103.968H98.7809L95.3089 112H94.0769ZM106.707 111.04C106.355 111.371 105.902 111.632 105.347 111.824C104.803 112.016 104.243 112.112 103.667 112.112C102.835 112.112 102.115 111.947 101.507 111.616C100.91 111.285 100.446 110.811 100.115 110.192C99.7952 109.563 99.6352 108.816 99.6352 107.952C99.6352 107.12 99.7952 106.389 100.115 105.76C100.435 105.131 100.878 104.64 101.443 104.288C102.019 103.936 102.681 103.76 103.427 103.76C104.142 103.76 104.755 103.92 105.267 104.24C105.779 104.549 106.169 104.997 106.435 105.584C106.713 106.171 106.851 106.875 106.851 107.696V107.936H100.771V107.088H106.115L105.699 107.68C105.721 106.741 105.534 106.021 105.139 105.52C104.755 105.019 104.19 104.768 103.443 104.768C102.665 104.768 102.051 105.045 101.603 105.6C101.166 106.144 100.947 106.901 100.947 107.872C100.947 108.917 101.177 109.707 101.635 110.24C102.105 110.773 102.787 111.04 103.683 111.04C104.153 111.04 104.601 110.965 105.027 110.816C105.465 110.656 105.881 110.416 106.275 110.096L106.707 111.04ZM116.078 112.112C115.364 112.112 114.734 111.947 114.19 111.616C113.657 111.275 113.241 110.795 112.942 110.176C112.654 109.547 112.51 108.811 112.51 107.968C112.51 107.125 112.66 106.389 112.958 105.76C113.257 105.131 113.673 104.64 114.206 104.288C114.75 103.936 115.374 103.76 116.078 103.76C116.814 103.76 117.438 103.941 117.95 104.304C118.462 104.667 118.809 105.184 118.99 105.856L118.798 105.984V103.952H120.078V112H118.798V109.92L118.99 110.016C118.809 110.688 118.462 111.205 117.95 111.568C117.438 111.931 116.814 112.112 116.078 112.112ZM116.334 111.04C117.124 111.04 117.732 110.773 118.158 110.24C118.585 109.696 118.798 108.928 118.798 107.936C118.798 106.944 118.58 106.181 118.142 105.648C117.716 105.115 117.113 104.848 116.334 104.848C115.545 104.848 114.926 105.125 114.478 105.68C114.041 106.224 113.822 106.987 113.822 107.968C113.822 108.949 114.041 109.707 114.478 110.24C114.926 110.773 115.545 111.04 116.334 111.04ZM122.584 112V106.208C122.584 105.835 122.573 105.461 122.552 105.088C122.541 104.704 122.509 104.325 122.456 103.952H123.688L123.832 105.616L123.672 105.744C123.896 105.093 124.269 104.603 124.792 104.272C125.315 103.931 125.917 103.76 126.6 103.76C128.531 103.76 129.496 104.821 129.496 106.944V112H128.2V107.008C128.2 106.261 128.051 105.717 127.752 105.376C127.453 105.024 126.984 104.848 126.344 104.848C125.597 104.848 125 105.077 124.552 105.536C124.104 105.995 123.88 106.613 123.88 107.392V112H122.584ZM131.559 115.632L131.287 114.624C131.778 114.507 132.189 114.368 132.519 114.208C132.861 114.059 133.143 113.861 133.367 113.616C133.602 113.371 133.805 113.045 133.975 112.64L134.487 111.456L134.775 111.056L137.719 103.952H139.015L135.255 112.736C134.967 113.387 134.642 113.904 134.279 114.288C133.917 114.683 133.506 114.981 133.047 115.184C132.599 115.387 132.103 115.536 131.559 115.632ZM134.503 112.416L130.887 103.952H132.247L135.159 111.056L134.503 112.416ZM144.615 112V106.208C144.615 105.835 144.605 105.461 144.583 105.088C144.573 104.704 144.541 104.325 144.487 103.952H145.719L145.895 105.936L145.719 105.888C145.869 105.184 146.189 104.656 146.679 104.304C147.181 103.941 147.741 103.76 148.359 103.76C148.498 103.76 148.626 103.771 148.743 103.792C148.871 103.803 148.989 103.824 149.095 103.856L149.063 105.04C148.818 104.955 148.535 104.912 148.215 104.912C147.661 104.912 147.213 105.035 146.871 105.28C146.541 105.525 146.295 105.84 146.135 106.224C145.986 106.597 145.911 106.992 145.911 107.408V112H144.615ZM156.848 111.04C156.496 111.371 156.042 111.632 155.488 111.824C154.944 112.016 154.384 112.112 153.808 112.112C152.976 112.112 152.256 111.947 151.648 111.616C151.05 111.285 150.586 110.811 150.256 110.192C149.936 109.563 149.776 108.816 149.776 107.952C149.776 107.12 149.936 106.389 150.256 105.76C150.576 105.131 151.018 104.64 151.584 104.288C152.16 103.936 152.821 103.76 153.568 103.76C154.282 103.76 154.896 103.92 155.408 104.24C155.92 104.549 156.309 104.997 156.576 105.584C156.853 106.171 156.992 106.875 156.992 107.696V107.936H150.912V107.088H156.256L155.84 107.68C155.861 106.741 155.674 106.021 155.28 105.52C154.896 105.019 154.33 104.768 153.584 104.768C152.805 104.768 152.192 105.045 151.744 105.6C151.306 106.144 151.088 106.901 151.088 107.872C151.088 108.917 151.317 109.707 151.776 110.24C152.245 110.773 152.928 111.04 153.824 111.04C154.293 111.04 154.741 110.965 155.168 110.816C155.605 110.656 156.021 110.416 156.416 110.096L156.848 111.04ZM161.679 112.112C160.324 112.112 159.252 111.765 158.463 111.072L158.895 110.112C159.322 110.443 159.759 110.688 160.207 110.848C160.666 110.997 161.172 111.072 161.727 111.072C162.335 111.072 162.794 110.971 163.103 110.768C163.423 110.555 163.583 110.251 163.583 109.856C163.583 109.536 163.476 109.285 163.263 109.104C163.05 108.912 162.698 108.757 162.207 108.64L160.847 108.32C160.175 108.171 159.652 107.904 159.279 107.52C158.916 107.136 158.735 106.677 158.735 106.144C158.735 105.675 158.863 105.264 159.119 104.912C159.375 104.549 159.732 104.267 160.191 104.064C160.65 103.861 161.194 103.76 161.823 103.76C162.388 103.76 162.922 103.851 163.423 104.032C163.924 104.213 164.346 104.475 164.687 104.816L164.255 105.76C163.871 105.44 163.476 105.205 163.071 105.056C162.676 104.896 162.26 104.816 161.823 104.816C161.247 104.816 160.799 104.928 160.479 105.152C160.17 105.376 160.015 105.68 160.015 106.064C160.015 106.395 160.111 106.656 160.303 106.848C160.506 107.04 160.826 107.189 161.263 107.296L162.623 107.632C163.38 107.792 163.935 108.059 164.287 108.432C164.65 108.795 164.831 109.259 164.831 109.824C164.831 110.517 164.548 111.072 163.983 111.488C163.418 111.904 162.65 112.112 161.679 112.112ZM169.744 112.112C168.784 112.112 168.059 111.845 167.568 111.312C167.088 110.779 166.848 109.989 166.848 108.944V103.952H168.144V108.912C168.144 109.637 168.294 110.171 168.592 110.512C168.891 110.853 169.344 111.024 169.952 111.024C170.667 111.024 171.243 110.795 171.68 110.336C172.118 109.877 172.336 109.264 172.336 108.496V103.952H173.632V112H172.368V110.256L172.56 110.16C172.347 110.8 171.984 111.285 171.472 111.616C170.971 111.947 170.395 112.112 169.744 112.112ZM176.131 112V100.224H177.427V112H176.131ZM178.807 104.976V103.952H183.975V104.976H178.807ZM183.943 110.848V111.952C183.762 112.005 183.581 112.043 183.399 112.064C183.229 112.096 183.037 112.112 182.823 112.112C182.077 112.112 181.479 111.899 181.031 111.472C180.594 111.045 180.375 110.405 180.375 109.552V101.888L181.671 101.424V109.376C181.671 109.803 181.73 110.133 181.847 110.368C181.975 110.603 182.146 110.768 182.359 110.864C182.573 110.949 182.813 110.992 183.079 110.992C183.239 110.992 183.383 110.981 183.511 110.96C183.639 110.939 183.783 110.901 183.943 110.848ZM188.257 112.112C186.902 112.112 185.83 111.765 185.041 111.072L185.473 110.112C185.9 110.443 186.337 110.688 186.785 110.848C187.244 110.997 187.75 111.072 188.305 111.072C188.913 111.072 189.372 110.971 189.681 110.768C190.001 110.555 190.161 110.251 190.161 109.856C190.161 109.536 190.054 109.285 189.841 109.104C189.628 108.912 189.276 108.757 188.785 108.64L187.425 108.32C186.753 108.171 186.23 107.904 185.857 107.52C185.494 107.136 185.313 106.677 185.313 106.144C185.313 105.675 185.441 105.264 185.697 104.912C185.953 104.549 186.31 104.267 186.769 104.064C187.228 103.861 187.772 103.76 188.401 103.76C188.966 103.76 189.5 103.851 190.001 104.032C190.502 104.213 190.924 104.475 191.265 104.816L190.833 105.76C190.449 105.44 190.054 105.205 189.649 105.056C189.254 104.896 188.838 104.816 188.401 104.816C187.825 104.816 187.377 104.928 187.057 105.152C186.748 105.376 186.593 105.68 186.593 106.064C186.593 106.395 186.689 106.656 186.881 106.848C187.084 107.04 187.404 107.189 187.841 107.296L189.201 107.632C189.958 107.792 190.513 108.059 190.865 108.432C191.228 108.795 191.409 109.259 191.409 109.824C191.409 110.517 191.126 111.072 190.561 111.488C189.996 111.904 189.228 112.112 188.257 112.112ZM196.51 104.976V103.952H201.678V104.976H196.51ZM201.646 110.848V111.952C201.465 112.005 201.284 112.043 201.102 112.064C200.932 112.096 200.74 112.112 200.526 112.112C199.78 112.112 199.182 111.899 198.734 111.472C198.297 111.045 198.078 110.405 198.078 109.552V101.888L199.374 101.424V109.376C199.374 109.803 199.433 110.133 199.55 110.368C199.678 110.603 199.849 110.768 200.062 110.864C200.276 110.949 200.516 110.992 200.782 110.992C200.942 110.992 201.086 110.981 201.214 110.96C201.342 110.939 201.486 110.901 201.646 110.848ZM206.568 112.112C205.8 112.112 205.128 111.941 204.552 111.6C203.987 111.259 203.544 110.779 203.224 110.16C202.915 109.531 202.76 108.789 202.76 107.936C202.76 107.093 202.915 106.357 203.224 105.728C203.544 105.099 203.987 104.613 204.552 104.272C205.128 103.931 205.8 103.76 206.568 103.76C207.336 103.76 208.003 103.931 208.568 104.272C209.144 104.613 209.587 105.099 209.896 105.728C210.216 106.357 210.376 107.093 210.376 107.936C210.376 108.789 210.216 109.531 209.896 110.16C209.587 110.779 209.144 111.259 208.568 111.6C208.003 111.941 207.336 112.112 206.568 112.112ZM206.568 111.04C207.358 111.04 207.966 110.779 208.392 110.256C208.83 109.723 209.048 108.949 209.048 107.936C209.048 106.944 208.83 106.181 208.392 105.648C207.955 105.115 207.347 104.848 206.568 104.848C205.79 104.848 205.176 105.115 204.728 105.648C204.291 106.181 204.072 106.944 204.072 107.936C204.072 108.949 204.286 109.723 204.712 110.256C205.15 110.779 205.768 111.04 206.568 111.04ZM219.288 112.112C217.934 112.112 216.862 111.765 216.072 111.072L216.504 110.112C216.931 110.443 217.368 110.688 217.816 110.848C218.275 110.997 218.782 111.072 219.336 111.072C219.944 111.072 220.403 110.971 220.712 110.768C221.032 110.555 221.192 110.251 221.192 109.856C221.192 109.536 221.086 109.285 220.872 109.104C220.659 108.912 220.307 108.757 219.816 108.64L218.456 108.32C217.784 108.171 217.262 107.904 216.888 107.52C216.526 107.136 216.344 106.677 216.344 106.144C216.344 105.675 216.472 105.264 216.728 104.912C216.984 104.549 217.342 104.267 217.8 104.064C218.259 103.861 218.803 103.76 219.432 103.76C219.998 103.76 220.531 103.851 221.032 104.032C221.534 104.213 221.955 104.475 222.296 104.816L221.864 105.76C221.48 105.44 221.086 105.205 220.68 105.056C220.286 104.896 219.87 104.816 219.432 104.816C218.856 104.816 218.408 104.928 218.088 105.152C217.779 105.376 217.624 105.68 217.624 106.064C217.624 106.395 217.72 106.656 217.912 106.848C218.115 107.04 218.435 107.189 218.872 107.296L220.232 107.632C220.99 107.792 221.544 108.059 221.896 108.432C222.259 108.795 222.44 109.259 222.44 109.824C222.44 110.517 222.158 111.072 221.592 111.488C221.027 111.904 220.259 112.112 219.288 112.112ZM224.506 112V100.224H225.802V105.584L225.594 105.744C225.818 105.093 226.191 104.603 226.714 104.272C227.236 103.931 227.839 103.76 228.522 103.76C230.452 103.76 231.418 104.821 231.418 106.944V112H230.122V107.008C230.122 106.261 229.972 105.717 229.674 105.376C229.375 105.024 228.906 104.848 228.266 104.848C227.519 104.848 226.922 105.077 226.474 105.536C226.026 105.995 225.802 106.613 225.802 107.392V112H224.506ZM237.193 112.112C236.425 112.112 235.753 111.941 235.177 111.6C234.612 111.259 234.169 110.779 233.849 110.16C233.54 109.531 233.385 108.789 233.385 107.936C233.385 107.093 233.54 106.357 233.849 105.728C234.169 105.099 234.612 104.613 235.177 104.272C235.753 103.931 236.425 103.76 237.193 103.76C237.961 103.76 238.628 103.931 239.193 104.272C239.769 104.613 240.212 105.099 240.521 105.728C240.841 106.357 241.001 107.093 241.001 107.936C241.001 108.789 240.841 109.531 240.521 110.16C240.212 110.779 239.769 111.259 239.193 111.6C238.628 111.941 237.961 112.112 237.193 112.112ZM237.193 111.04C237.983 111.04 238.591 110.779 239.017 110.256C239.455 109.723 239.673 108.949 239.673 107.936C239.673 106.944 239.455 106.181 239.017 105.648C238.58 105.115 237.972 104.848 237.193 104.848C236.415 104.848 235.801 105.115 235.353 105.648C234.916 106.181 234.697 106.944 234.697 107.936C234.697 108.949 234.911 109.723 235.337 110.256C235.775 110.779 236.393 111.04 237.193 111.04ZM245.088 112L242.112 103.952H243.472L245.952 111.04H245.536L248.096 103.952H249.232L251.76 111.04H251.344L253.872 103.952H255.152L252.176 112H250.928L248.272 104.752H248.976L246.336 112H245.088Z" fill="#666666"/>
<path d="M99.8119 84.234C98.3906 84.234 97.0559 84.0433 95.8079 83.662C94.5773 83.2807 93.5286 82.7347 92.6619 82.024L93.8059 79.58C94.7073 80.256 95.6433 80.7587 96.6139 81.088C97.6019 81.4 98.6766 81.556 99.8379 81.556C101.121 81.556 102.109 81.3307 102.802 80.88C103.513 80.4293 103.868 79.7967 103.868 78.982C103.868 78.2887 103.539 77.76 102.88 77.396C102.239 77.0147 101.173 76.6593 99.6819 76.33C97.3593 75.8273 95.6693 75.1773 94.6119 74.38C93.5546 73.5827 93.0259 72.4213 93.0259 70.896C93.0259 69.804 93.3206 68.8333 93.9099 67.984C94.4993 67.1347 95.3313 66.4673 96.4059 65.982C97.4979 65.4967 98.7546 65.254 100.176 65.254C101.476 65.254 102.707 65.4533 103.868 65.852C105.047 66.2333 106.009 66.7707 106.754 67.464L105.636 69.908C103.989 68.5907 102.169 67.932 100.176 67.932C98.9799 67.932 98.0353 68.1833 97.3419 68.686C96.6486 69.1713 96.3019 69.8387 96.3019 70.688C96.3019 71.416 96.6053 71.9707 97.2119 72.352C97.8359 72.7333 98.8933 73.0887 100.384 73.418C101.927 73.782 103.183 74.1807 104.154 74.614C105.125 75.03 105.87 75.576 106.39 76.252C106.91 76.9107 107.17 77.7427 107.17 78.748C107.17 79.8573 106.875 80.828 106.286 81.66C105.697 82.4747 104.847 83.1073 103.738 83.558C102.629 84.0087 101.32 84.234 99.8119 84.234ZM115.998 84.208C114.664 84.208 113.485 83.9307 112.462 83.376C111.457 82.8213 110.677 82.0327 110.122 81.01C109.585 79.97 109.316 78.7567 109.316 77.37C109.316 75.9833 109.585 74.7787 110.122 73.756C110.677 72.716 111.457 71.9187 112.462 71.364C113.485 70.8093 114.664 70.532 115.998 70.532C117.316 70.532 118.477 70.8093 119.482 71.364C120.488 71.9187 121.259 72.716 121.796 73.756C122.351 74.7787 122.628 75.9833 122.628 77.37C122.628 78.7567 122.351 79.97 121.796 81.01C121.259 82.0327 120.488 82.8213 119.482 83.376C118.477 83.9307 117.316 84.208 115.998 84.208ZM115.972 81.66C117.082 81.66 117.922 81.3047 118.494 80.594C119.084 79.866 119.378 78.7913 119.378 77.37C119.378 75.966 119.084 74.9 118.494 74.172C117.905 73.4267 117.073 73.054 115.998 73.054C114.906 73.054 114.066 73.4267 113.476 74.172C112.887 74.9 112.592 75.966 112.592 77.37C112.592 78.7913 112.878 79.866 113.45 80.594C114.04 81.3047 114.88 81.66 115.972 81.66ZM132.503 70.558C133.006 70.558 133.439 70.6273 133.803 70.766L133.777 73.73C133.222 73.5047 132.65 73.392 132.061 73.392C130.952 73.392 130.102 73.7127 129.513 74.354C128.941 74.9953 128.655 75.8447 128.655 76.902V84H125.431V74.588C125.431 73.2013 125.362 71.962 125.223 70.87H128.265L128.525 73.184C128.854 72.3347 129.374 71.6847 130.085 71.234C130.796 70.7833 131.602 70.558 132.503 70.558ZM142.685 70.558C143.187 70.558 143.621 70.6273 143.985 70.766L143.959 73.73C143.404 73.5047 142.832 73.392 142.243 73.392C141.133 73.392 140.284 73.7127 139.695 74.354C139.123 74.9953 138.837 75.8447 138.837 76.902V84H135.613V74.588C135.613 73.2013 135.543 71.962 135.405 70.87H138.447L138.707 73.184C139.036 72.3347 139.556 71.6847 140.267 71.234C140.977 70.7833 141.783 70.558 142.685 70.558ZM159.009 70.87L152.899 84.884C152.206 86.5133 151.322 87.7007 150.247 88.446C149.173 89.1913 147.847 89.6853 146.269 89.928L145.541 87.432C146.772 87.1547 147.691 86.7993 148.297 86.366C148.921 85.95 149.424 85.326 149.805 84.494L150.221 83.532L144.761 70.87H148.167L151.937 80.308L155.785 70.87H159.009ZM160.153 65.462L164.183 65.488L163.169 78.436H161.193L160.153 65.462ZM164.001 80.36V84H160.361V80.36H164.001Z" fill="black"/>
<path d="M152.135 7.72096H165.5C165.5 4.67631 163.184 1.02273 158.224 1.02294M152.135 7.72096C151.648 1.87565 155.991 0.820065 158.224 1.02294M152.135 7.72096V44.8642C152.338 46.8939 151.404 50.9533 146.046 50.9533M158.224 1.02294C147.669 1.02294 125.708 1.02294 122.298 1.02294C118.888 1.02294 118.036 3.45838 118.036 4.6761V16.2064M146.046 50.9533C140.687 50.9533 139.348 46.8939 139.348 44.8642H118.036M146.046 50.9533H117.427C113.043 49.9791 112.353 46.488 112.556 44.8642H118.036M118.036 44.8642V33.8648" stroke="#7C7C7C"/>
<path d="M124.094 12.5529H131.401M125.312 16.8153H145.406M128.965 21.6866H145.406M130.183 25.9489H145.406M128.356 30.8202H145.406M124.094 36.3004H145.406" stroke="#7C7C7C" stroke-linecap="round" stroke-linejoin="round"/>
<path d="M120.087 34.2427C114.972 33.7971 111.187 29.2891 111.632 24.1739C112.078 19.0587 116.586 15.2733 121.701 15.7189C126.816 16.1646 130.602 20.6726 130.156 25.7878C129.71 30.903 125.202 34.6884 120.087 34.2427Z" stroke="black" stroke-width="1.5" stroke-linecap="round" stroke-linejoin="round"/>
<path d="M114.352 31.4288L104 41.0703" stroke="black" stroke-width="1.5" stroke-linecap="round" stroke-linejoin="round"/>
<path d="M124 21.9209L118 27.9209M118 21.9209L124 27.9209" stroke="black" stroke-width="1.5" stroke-linecap="round" stroke-linejoin="round"/>
</svg>
