<svg width="31" height="31" viewBox="0 0 31 31" fill="none" xmlns="http://www.w3.org/2000/svg">
<path d="M28.5528 16.7267C28.7905 17.1402 29.0283 17.5572 29.2695 17.9707C29.4245 18.2429 29.5831 18.5116 29.7381 18.7839C29.8277 18.9424 29.9276 19.0974 30 19.2663C29.9655 19.1836 29.9311 19.1009 29.8966 19.0182C29.9414 19.1353 29.9724 19.2525 29.9897 19.3765C29.9759 19.2835 29.9655 19.1939 29.9518 19.1009C29.9655 19.2215 29.9655 19.3421 29.9483 19.4627C29.9621 19.3697 29.9724 19.2801 29.9862 19.187C29.969 19.3076 29.938 19.4213 29.8932 19.5351C29.9276 19.4524 29.9621 19.3697 29.9966 19.287C29.9862 19.3145 29.876 19.5695 29.8449 19.5661C29.8346 19.5626 30 19.38 29.938 19.4489C29.9173 19.4696 29.8966 19.4972 29.876 19.5178C29.838 19.5557 29.6727 19.6936 29.8243 19.5764C29.9724 19.4627 29.8105 19.5799 29.7622 19.6074C29.745 19.6178 29.7278 19.6281 29.7106 19.635C29.5279 19.7418 29.3453 19.8452 29.1661 19.9486C28.6527 20.2449 28.1358 20.5412 27.6224 20.8376C27.395 20.9685 27.1848 21.0995 26.9815 21.2752C26.4646 21.7197 26.1855 22.4123 26.1751 23.0877C26.1683 23.5219 26.1751 23.9595 26.1751 24.3937C26.1751 24.7314 26.1751 25.0725 26.1751 25.4102C26.1751 25.6031 26.1855 25.7996 26.1614 25.9891C26.1751 25.896 26.1855 25.8064 26.1993 25.7134C26.182 25.834 26.151 25.9512 26.1062 26.0649C26.1407 25.9822 26.1751 25.8995 26.2096 25.8168C26.1751 25.8995 26.1303 25.9753 26.0856 26.0545C26.0063 26.1889 26.2372 25.8891 26.1545 25.9684C26.1235 25.9994 26.0959 26.0339 26.0649 26.0649C26.0373 26.0924 26.0097 26.1131 25.9822 26.1407C25.8581 26.2578 26.1993 26.0029 26.0511 26.0856C25.9718 26.1304 25.8995 26.1751 25.8133 26.2096C25.896 26.1751 25.9787 26.1407 26.0614 26.1062C25.9477 26.151 25.8306 26.182 25.71 26.1993C25.803 26.1855 25.8926 26.1752 25.9856 26.1614C25.548 26.2131 25.0863 26.1751 24.6452 26.1751C24.1352 26.1751 23.6287 26.1717 23.1187 26.1751C22.1677 26.1786 21.3751 26.6886 20.9065 27.5018C20.6274 27.9877 20.3483 28.4735 20.0657 28.9594C19.9279 29.1971 19.7935 29.4349 19.6557 29.6692C19.6246 29.7209 19.5971 29.776 19.5626 29.8277C19.4489 30.0069 19.7246 29.6485 19.5798 29.807C19.5385 29.8518 19.4903 29.8932 19.4455 29.9345C19.38 29.9966 19.5626 29.8312 19.5626 29.8415C19.5626 29.8484 19.4799 29.8966 19.4661 29.9035C19.4076 29.938 19.3455 29.969 19.2835 29.9931C19.3662 29.9587 19.4489 29.9242 19.5316 29.8897C19.4179 29.9345 19.3042 29.9655 19.1836 29.9828C19.2766 29.969 19.3662 29.9587 19.4592 29.9449C19.3386 29.9587 19.218 29.9587 19.0974 29.9483C19.1905 29.9621 19.2801 29.9724 19.3731 29.9862C19.249 29.969 19.1319 29.938 19.0147 29.8932C19.0974 29.9276 19.1801 29.9621 19.2628 29.9966C18.8907 29.8381 18.5392 29.5934 18.1877 29.3935C17.7363 29.1351 17.2849 28.8732 16.8335 28.6148C16.5096 28.4287 16.1754 28.3012 15.8032 28.2495C15.2553 28.1772 14.7178 28.2978 14.2354 28.57C13.8253 28.8043 13.4187 29.0386 13.0121 29.2729C12.5917 29.5141 12.1748 29.8036 11.7303 29.9966C11.813 29.9621 11.8957 29.9276 11.9784 29.8932C11.8612 29.938 11.7441 29.969 11.62 29.9862C11.713 29.9724 11.8026 29.9621 11.8957 29.9483C11.7751 29.9621 11.6545 29.9621 11.5339 29.9449C11.6269 29.9587 11.7165 29.969 11.8095 29.9828C11.6889 29.9655 11.5752 29.9345 11.4615 29.8897C11.5442 29.9242 11.6269 29.9587 11.7096 29.9931C11.682 29.9828 11.427 29.8725 11.4305 29.8415C11.4339 29.8312 11.6166 29.9966 11.5476 29.9345C11.5235 29.9139 11.4994 29.8932 11.4787 29.8725C11.4408 29.8346 11.303 29.6692 11.4202 29.8208C11.5339 29.969 11.4167 29.807 11.3891 29.7588C11.3788 29.7416 11.3685 29.7243 11.3616 29.7071C11.2548 29.5245 11.1514 29.3419 11.048 29.1627C10.7517 28.6492 10.4553 28.1358 10.159 27.6224C10.028 27.395 9.8971 27.1848 9.72136 26.9815C9.27685 26.4646 8.58425 26.1855 7.90886 26.1751C7.47469 26.1683 7.03707 26.1751 6.6029 26.1751C6.26521 26.1751 5.92407 26.1751 5.58638 26.1751C5.39342 26.1751 5.19701 26.1855 5.00749 26.1614C5.10052 26.1752 5.19011 26.1855 5.28315 26.1993C5.16255 26.182 5.04539 26.151 4.93168 26.1062C5.01438 26.1407 5.09708 26.1751 5.17978 26.2096C5.09708 26.1751 5.02127 26.1304 4.94202 26.0856C4.80763 26.0063 5.10741 26.2372 5.02816 26.1545C4.99715 26.1235 4.96269 26.0959 4.93168 26.0649C4.90411 26.0373 4.88344 26.0098 4.85587 25.9822C4.73871 25.8581 4.9937 26.1993 4.911 26.0511C4.86621 25.9718 4.82141 25.8995 4.78695 25.8133C4.82141 25.896 4.85587 25.9787 4.89033 26.0614C4.84553 25.9477 4.81452 25.8306 4.79729 25.71C4.81107 25.803 4.82141 25.8926 4.8352 25.9856C4.78351 25.548 4.82141 25.0863 4.82141 24.6452C4.82141 24.1352 4.82486 23.6287 4.82141 23.1187C4.81797 22.1677 4.30799 21.3751 3.49477 20.9065C3.00891 20.6274 2.52305 20.3483 2.03719 20.0657C1.79943 19.9279 1.56167 19.7935 1.32735 19.6557C1.27567 19.6246 1.22053 19.5971 1.16885 19.5626C0.989663 19.4489 1.34803 19.7246 1.18952 19.5799C1.14472 19.5385 1.10337 19.4903 1.06202 19.4455C1 19.38 1.1654 19.5626 1.15506 19.5626C1.14817 19.5626 1.09993 19.4799 1.09304 19.4661C1.05858 19.4076 1.02757 19.3455 1.00345 19.2835C1.0379 19.3662 1.07236 19.4489 1.10682 19.5316C1.06202 19.4179 1.03101 19.3042 1.01378 19.1836C1.02757 19.2766 1.0379 19.3662 1.05169 19.4593C1.0379 19.3386 1.0379 19.218 1.04824 19.0974C1.03446 19.1905 1.02412 19.2801 1.01034 19.3731C1.02757 19.2491 1.05858 19.1319 1.10337 19.0147C1.06892 19.0974 1.03446 19.1801 1 19.2628C1.15851 18.8907 1.40316 18.5392 1.60302 18.1877C1.86145 17.7363 2.12334 17.2849 2.38177 16.8335C2.56785 16.5096 2.69534 16.1754 2.74703 15.8032C2.81939 15.2554 2.69879 14.7178 2.42657 14.2354C2.19225 13.8253 1.95794 13.4187 1.72362 13.0121C1.48241 12.5917 1.19297 12.1748 1 11.7303C1.03446 11.813 1.06892 11.8957 1.10337 11.9784C1.05858 11.8612 1.02757 11.7441 1.01034 11.62C1.02412 11.713 1.03446 11.8026 1.04824 11.8957C1.03446 11.7751 1.03446 11.6545 1.05169 11.5339C1.0379 11.6269 1.02757 11.7165 1.01378 11.8095C1.03101 11.6889 1.06202 11.5752 1.10682 11.4615C1.07236 11.5442 1.0379 11.6269 1.00345 11.7096C1.01378 11.682 1.12405 11.427 1.15506 11.4305C1.1654 11.4339 1 11.6166 1.06202 11.5476C1.0827 11.5235 1.10337 11.4994 1.12405 11.4787C1.16195 11.4408 1.32735 11.303 1.17574 11.4202C1.02757 11.5339 1.18952 11.4167 1.23776 11.3891C1.25499 11.3788 1.27222 11.3685 1.28945 11.3616C1.47208 11.2548 1.65471 11.1514 1.83389 11.048C2.34731 10.7517 2.86074 10.4553 3.37417 10.159C3.60159 10.028 3.81179 9.8971 4.01509 9.72136C4.53196 9.27685 4.81107 8.58425 4.82141 7.90887C4.8283 7.47469 4.82141 7.03707 4.82141 6.6029C4.82141 6.26521 4.82141 5.92407 4.82141 5.58638C4.82141 5.39342 4.81107 5.19701 4.8352 5.00749C4.82141 5.10052 4.81107 5.19012 4.79729 5.28315C4.81452 5.16255 4.84553 5.04539 4.89033 4.93168C4.85587 5.01438 4.82141 5.09708 4.78695 5.17978C4.82141 5.09708 4.86621 5.02127 4.911 4.94202C4.99026 4.80763 4.75939 5.10742 4.84209 5.02816C4.8731 4.99715 4.90067 4.96269 4.93168 4.93168C4.95924 4.90411 4.98681 4.88344 5.01438 4.85587C5.13843 4.73871 4.79729 4.9937 4.94546 4.911C5.02472 4.86621 5.09708 4.82141 5.18322 4.78695C5.10052 4.82141 5.01782 4.85587 4.93512 4.89033C5.04884 4.84553 5.16599 4.81452 5.2866 4.79729C5.19356 4.81108 5.10397 4.82141 5.01093 4.8352C5.44855 4.78351 5.91029 4.82141 6.35136 4.82141C6.86134 4.82141 7.36787 4.82486 7.87785 4.82141C8.8289 4.81797 9.62144 4.30799 10.0901 3.49477C10.3692 3.00891 10.6483 2.52305 10.9308 2.03719C11.0687 1.79943 11.2031 1.56167 11.3409 1.32735C11.3719 1.27567 11.3995 1.22053 11.4339 1.16885C11.5476 0.989663 11.272 1.34803 11.4167 1.18952C11.4581 1.14472 11.5063 1.10337 11.5511 1.06202C11.6166 1 11.4339 1.1654 11.4339 1.15506C11.4339 1.14817 11.5166 1.09993 11.5304 1.09304C11.589 1.05858 11.651 1.02757 11.713 1.00345C11.6303 1.0379 11.5476 1.07236 11.4649 1.10682C11.5787 1.06202 11.6924 1.03101 11.813 1.01378C11.7199 1.02757 11.6303 1.0379 11.5373 1.05169C11.6579 1.0379 11.7785 1.0379 11.8991 1.04824C11.8061 1.03446 11.7165 1.02412 11.6235 1.01034C11.7475 1.02757 11.8647 1.05858 11.9818 1.10337C11.8991 1.06892 11.8164 1.03446 11.7337 1C12.1059 1.15851 12.4573 1.40316 12.8088 1.60302C13.2602 1.86145 13.7116 2.12334 14.163 2.38177C14.4869 2.56785 14.8212 2.69534 15.1933 2.74703C15.7412 2.81939 16.2788 2.69879 16.7612 2.42657C17.1712 2.19225 17.5778 1.95794 17.9844 1.72362C18.4048 1.48241 18.8218 1.19297 19.2663 1C19.1836 1.03446 19.1009 1.06892 19.0182 1.10337C19.1353 1.05858 19.2525 1.02757 19.3765 1.01034C19.2835 1.02412 19.1939 1.03446 19.1009 1.04824C19.2215 1.03446 19.3421 1.03446 19.4627 1.05169C19.3697 1.0379 19.2801 1.02757 19.187 1.01378C19.3076 1.03101 19.4213 1.06202 19.5351 1.10682C19.4524 1.07236 19.3697 1.0379 19.287 1.00345C19.3145 1.01378 19.5695 1.12405 19.5661 1.15506C19.5626 1.1654 19.38 1 19.4489 1.06202C19.473 1.0827 19.4972 1.10337 19.5178 1.12405C19.5557 1.16195 19.6936 1.32735 19.5764 1.17574C19.4627 1.02757 19.5798 1.18952 19.6074 1.23776C19.6178 1.25499 19.6281 1.27222 19.635 1.28945C19.7418 1.47208 19.8452 1.65471 19.9486 1.83389C20.2449 2.34731 20.5412 2.86074 20.8376 3.37417C20.9685 3.60159 21.0995 3.81179 21.2752 4.01509C21.7197 4.53196 22.4123 4.81108 23.0877 4.82141C23.5219 4.8283 23.9595 4.82141 24.3937 4.82141C24.7313 4.82141 25.0725 4.82141 25.4102 4.82141C25.6031 4.82141 25.7995 4.81108 25.9891 4.8352C25.896 4.82141 25.8064 4.81108 25.7134 4.79729C25.834 4.81452 25.9512 4.84553 26.0649 4.89033C25.9822 4.85587 25.8995 4.82141 25.8168 4.78695C25.8995 4.82141 25.9753 4.86621 26.0545 4.911C26.1889 4.99026 25.8891 4.75939 25.9684 4.84209C25.9994 4.8731 26.0339 4.90067 26.0649 4.93168C26.0924 4.95925 26.1131 4.98681 26.1407 5.01438C26.2578 5.13843 26.0029 4.79729 26.0856 4.94546C26.1303 5.02472 26.1751 5.09708 26.2096 5.18322C26.1751 5.10052 26.1407 5.01782 26.1062 4.93512C26.151 5.04884 26.182 5.16599 26.1993 5.2866C26.1855 5.19356 26.1751 5.10397 26.1614 5.01093C26.213 5.44855 26.1751 5.91029 26.1751 6.35136C26.1751 6.86134 26.1717 7.36787 26.1751 7.87785C26.1786 8.8289 26.6886 9.62144 27.5018 10.0901C27.9876 10.3692 28.4735 10.6483 28.9594 10.9308C29.1971 11.0687 29.4349 11.2031 29.6692 11.3409C29.7209 11.3719 29.776 11.3995 29.8277 11.4339C30.0069 11.5476 29.6485 11.272 29.807 11.4167C29.8518 11.4581 29.8932 11.5063 29.9345 11.5511C29.9966 11.6166 29.8312 11.4339 29.8415 11.4339C29.8484 11.4339 29.8966 11.5166 29.9035 11.5304C29.938 11.589 29.969 11.651 29.9931 11.713C29.9586 11.6303 29.9242 11.5476 29.8897 11.465C29.9345 11.5787 29.9655 11.6924 29.9828 11.813C29.969 11.7199 29.9587 11.6303 29.9449 11.5373C29.9587 11.6579 29.9586 11.7785 29.9483 11.8991C29.9621 11.8061 29.9724 11.7165 29.9862 11.6235C29.969 11.7475 29.938 11.8647 29.8932 11.9818C29.9276 11.8991 29.9621 11.8164 29.9966 11.7337C29.8139 12.1645 29.5314 12.5676 29.3005 12.9708C29.0524 13.4015 28.7974 13.8322 28.5562 14.2664C28.1255 15.0417 28.1255 15.948 28.5528 16.7267Z" stroke="white"/>
<path d="M9.31567 21.6746L21.6655 9.32477" stroke="white" stroke-linecap="round" stroke-linejoin="round"/>
<circle cx="11.0798" cy="11.0891" r="2.14639" stroke="white"/>
<circle cx="19.9013" cy="19.9104" r="2.14639" stroke="white"/>
</svg>
