<svg width="25" height="19" viewBox="0 0 25 19" fill="none" xmlns="http://www.w3.org/2000/svg">
<path d="M3.77049 17.2908C4.0738 17.2908 4.31962 17.045 4.31962 16.7417C4.31962 16.4385 4.0738 16.1926 3.77049 16.1926C2.85772 16.1926 2.08652 15.4383 2.08652 14.5452C2.08652 14.2421 1.84071 13.9961 1.5374 13.9961C1.2341 13.9961 0.988281 14.2421 0.988281 14.5452C0.988281 16.0629 2.25255 17.2908 3.77049 17.2908Z" fill="#F37E20"/>
<path d="M1.5374 12.8611C1.84071 12.8611 2.08652 12.6153 2.08652 12.312V10.1155C2.08652 9.81237 1.84071 9.56641 1.5374 9.56641C1.2341 9.56641 0.988281 9.81237 0.988281 10.1155V12.312C0.988281 12.6153 1.2341 12.8611 1.5374 12.8611Z" fill="#F37E20"/>
<path d="M1.5374 8.46859C1.84071 8.46859 2.08652 8.22263 2.08652 7.91947V5.68637C2.08652 4.79334 2.85772 4.03901 3.77049 4.03901H6.34979L4.56415 5.22935C4.31175 5.39766 4.24354 5.73857 4.41185 5.99082C4.58088 6.2445 4.92222 6.31057 5.17333 6.14312L8.46805 3.94678C8.62078 3.84482 8.71258 3.67336 8.71258 3.48975C8.71258 3.30614 8.62078 3.13468 8.46805 3.03286L5.17333 0.836378C4.92093 0.66821 4.58002 0.736421 4.41185 0.988673C4.24354 1.24107 4.31175 1.58198 4.56415 1.75015L6.34979 2.94063H3.77049C2.25283 2.94063 0.988281 4.16828 0.988281 5.68623V7.91932C0.988281 8.22263 1.2341 8.46859 1.5374 8.46859Z" fill="#F37E20"/>
<path d="M5.96709 16.1924C5.66379 16.1924 5.41797 16.4383 5.41797 16.7415C5.41797 17.0448 5.66379 17.2906 5.96709 17.2906H8.16357C8.46688 17.2906 8.71269 17.0448 8.71269 16.7415C8.71269 16.4383 8.46688 16.1924 8.16357 16.1924H5.96709Z" fill="#F37E20"/>
<rect x="11.1309" y="11.623" width="13.2504" height="6.86039" rx="1.5" fill="#F37E20" stroke="#F37E20"/>
<rect x="11.1309" y="1.76172" width="13.2504" height="6.86039" rx="1.5" stroke="#F37E20"/>
<line x1="13.7275" y1="5.36035" x2="21.7855" y2="5.36035" stroke="#F37E20" stroke-linecap="round" stroke-linejoin="round"/>
</svg>
