<svg width="31" height="35" viewBox="0 0 31 35" fill="none" xmlns="http://www.w3.org/2000/svg">
<path d="M15.5907 18.8064C15.5269 18.7926 15.4615 18.7901 15.3969 18.7997C14.7497 18.7244 14.2615 18.1768 14.2604 17.5255C14.2604 17.2134 14.0073 16.9603 13.6952 16.9603C13.383 16.9603 13.1299 17.2134 13.1299 17.5255C13.1316 18.6132 13.8591 19.5659 14.9079 19.8537V20.419C14.9079 20.7311 15.1609 20.9842 15.4731 20.9842C15.7852 20.9842 16.0383 20.7311 16.0383 20.419V19.888C17.2488 19.6346 18.0715 18.5072 17.9443 17.2771C17.8168 16.047 16.7804 15.1123 15.5437 15.112C14.835 15.112 14.2604 14.5374 14.2604 13.8286C14.2604 13.1199 14.835 12.5453 15.5437 12.5453C16.2525 12.5453 16.8271 13.1199 16.8271 13.8286C16.8271 14.1408 17.0802 14.3939 17.3923 14.3939C17.7044 14.3939 17.9575 14.1408 17.9575 13.8286C17.9559 12.6866 17.1558 11.7016 16.0383 11.4659V10.9515C16.0383 10.6393 15.7852 10.3862 15.4731 10.3862C15.1609 10.3862 14.9079 10.6393 14.9079 10.9515V11.5004C13.7415 11.8189 12.9908 12.9513 13.1515 14.1496C13.3121 15.348 14.3346 16.2424 15.5437 16.2422C16.2431 16.2422 16.8136 16.8021 16.8263 17.5012C16.8392 18.2003 16.2895 18.781 15.5907 18.8064Z" fill="#F37E20"/>
<path d="M7.34863 15.7202C7.34863 20.247 11.0182 23.9165 15.5449 23.9165C20.0717 23.9165 23.7412 20.247 23.7412 15.7202C23.7412 11.1935 20.0717 7.52393 15.5449 7.52393C11.0204 7.52889 7.35388 11.1957 7.34863 15.7202ZM15.5449 8.65437C19.4474 8.65437 22.6108 11.8178 22.6108 15.7202C22.6108 19.6227 19.4474 22.7861 15.5449 22.7861C11.6425 22.7861 8.47908 19.6227 8.47908 15.7202C8.4835 11.8197 11.6444 8.65879 15.5449 8.65437Z" fill="#F37E20"/>
<path d="M26.527 25.3101L22.0993 27.4021C21.488 26.265 20.3153 25.5414 19.0248 25.505L14.9374 25.3926C14.2902 25.3741 13.6552 25.2102 13.0797 24.913L12.6638 24.6974C10.5343 23.5874 7.99601 23.5902 5.86869 24.7046L5.89463 23.7624C5.90319 23.4502 5.65728 23.1902 5.34514 23.1817L0.863084 23.0583C0.550941 23.0498 0.291236 23.2957 0.28268 23.6078L0.0119354 33.4435C0.0033798 33.7556 0.249286 34.0156 0.561429 34.0242L5.04348 34.1475H5.05894C5.36529 34.1475 5.61588 33.9038 5.62416 33.5978L5.63714 33.1272L6.80153 32.5037C7.25857 32.2578 7.79288 32.1993 8.29215 32.3406L15.2454 34.2922C15.2575 34.2957 15.2697 34.2985 15.2821 34.3013C15.7847 34.4064 16.2969 34.4591 16.8103 34.4589C17.8977 34.4594 18.9724 34.2251 19.9607 33.7714C19.985 33.7603 20.0084 33.7474 20.0308 33.7327L30.1124 27.2117C30.3635 27.0491 30.4446 26.7193 30.2975 26.4588C29.5491 25.1307 27.889 24.6248 26.527 25.3101ZM1.15756 32.9097L1.39712 24.2039L4.749 24.2961L4.50945 33.0022L1.15756 32.9097ZM19.4515 32.7618C18.2236 33.316 16.8522 33.4689 15.5324 33.1992L8.59794 31.2527C7.81745 31.0322 6.98203 31.1235 6.26805 31.5074L5.67301 31.8262L5.83226 26.0379C7.71781 24.7838 10.136 24.6549 12.1441 25.7012L12.56 25.9167C13.287 26.2921 14.0887 26.4991 14.9065 26.5228L18.9942 26.6351C20.1423 26.6683 21.1173 27.4857 21.3503 28.6107L15.2617 28.4426C14.9495 28.434 14.6898 28.6802 14.681 28.9921C14.6725 29.3042 14.9186 29.5642 15.2305 29.5728L21.9497 29.7577H21.9655C22.2715 29.7574 22.5218 29.5137 22.5301 29.2079C22.537 28.9623 22.5188 28.7164 22.4755 28.4746L27.0169 26.3288C27.0213 26.3269 27.0257 26.3246 27.0301 26.3224C27.6743 25.9965 28.4531 26.1055 28.983 26.5959L19.4515 32.7618Z" fill="#F37E20"/>
<path d="M16.1099 5.93486V0.565225C16.1099 0.253081 15.8569 0 15.5447 0C15.2326 0 14.9795 0.253081 14.9795 0.565225V5.93486C14.9795 6.247 15.2326 6.50008 15.5447 6.50008C15.8569 6.50008 16.1099 6.247 16.1099 5.93486Z" fill="#F37E20"/>
<path d="M20.3472 5.93491V3.3914C20.3472 3.07925 20.0942 2.82617 19.782 2.82617C19.4699 2.82617 19.2168 3.07925 19.2168 3.3914V5.93491C19.2168 6.24705 19.4699 6.50013 19.782 6.50013C20.0942 6.50013 20.3472 6.24705 20.3472 5.93491Z" fill="#F37E20"/>
<path d="M11.8697 5.93491V3.3914C11.8697 3.07925 11.6166 2.82617 11.3045 2.82617C10.9923 2.82617 10.7393 3.07925 10.7393 3.3914V5.93491C10.7393 6.24705 10.9923 6.50013 11.3045 6.50013C11.6166 6.50013 11.8697 6.24705 11.8697 5.93491Z" fill="#F37E20"/>
</svg>
