<svg width="36" height="26" viewBox="0 0 36 26" fill="none" xmlns="http://www.w3.org/2000/svg">
<path d="M9.22221 10.9795H3.46094V12.1332H9.22221V10.9795Z" fill="#F37E20"/>
<path d="M12.1064 14.4404H3.46094V15.5941H12.1064V14.4404Z" fill="#F37E20"/>
<path d="M24.2128 17.9014H3.46094V19.055H24.2128V17.9014Z" fill="#F37E20"/>
<path d="M6.92192 21.3555H3.46094V22.5091H6.92192V21.3555Z" fill="#F37E20"/>
<path d="M12.6827 21.3555H9.22168V22.5091H12.6827V21.3555Z" fill="#F37E20"/>
<path d="M18.4522 21.3555H14.9912V22.5091H18.4522V21.3555Z" fill="#F37E20"/>
<path d="M23.6371 10.4023C23.215 10.4023 22.8281 10.5219 22.4905 10.7189C22.1388 10.5149 21.7448 10.4023 21.3298 10.4023C20.0565 10.4023 19.0225 11.4364 19.0225 12.7097C19.0225 13.9829 20.0565 15.017 21.3298 15.017C21.7448 15.017 22.1388 14.9044 22.4905 14.7004C22.8281 14.8974 23.215 15.017 23.6371 15.017C24.9104 15.017 25.9444 13.9829 25.9444 12.7097C25.9444 11.4364 24.9104 10.4023 23.6371 10.4023ZM21.6252 13.8211C21.5267 13.8493 21.4283 13.8633 21.3298 13.8633C20.6967 13.8633 20.1761 13.3428 20.1761 12.7097C20.1761 12.0766 20.6967 11.556 21.3298 11.556C21.4283 11.556 21.5338 11.5771 21.6252 11.5982C21.4423 11.9288 21.3298 12.3017 21.3298 12.7097C21.3298 13.1177 21.4423 13.4905 21.6252 13.8211ZM23.6371 13.8633C23.004 13.8633 22.4834 13.3428 22.4834 12.7097C22.4834 12.0766 23.004 11.556 23.6371 11.556C24.2702 11.556 24.7908 12.0766 24.7908 12.7097C24.7908 13.3428 24.2702 13.8633 23.6371 13.8633Z" fill="#F37E20"/>
<path d="M34.5325 7.73656L10.3478 0.0970702C10.179 0.040794 8.82832 -0.402381 8.18115 1.22259L6.19038 7.51849H1.73049C0.773797 7.52553 0 8.29932 0 9.24899V24.2396C0 25.1963 0.773797 25.9701 1.73049 25.9701H27.097C27.7019 25.9701 28.2295 25.6605 28.5391 25.1892C28.5391 25.1892 29.3199 25.4073 29.4957 25.4073C30.2555 25.4073 30.9167 24.9219 31.1418 24.1973L35.658 9.9032C35.7987 9.46706 35.8972 8.10236 34.5325 7.73656ZM8.58212 3.76909L20.4634 7.51849H12.8028L7.8857 5.96386L8.58212 3.76909ZM7.54101 7.06828L8.98308 7.52553H7.40032L7.54101 7.06828ZM27.6738 24.2396H27.6668C27.6668 24.5561 27.4065 24.8164 27.0899 24.8164H1.73049C1.41394 24.8164 1.15366 24.5561 1.15366 24.2396V9.24899C1.15366 8.93243 1.41394 8.67216 1.73049 8.67216H27.097C27.4135 8.67216 27.6738 8.93243 27.6738 9.24899V24.2396ZM30.0444 23.8527C29.953 24.1481 29.6153 24.324 29.3199 24.2255L28.8204 24.0707V13.7933L32.8231 15.0595L30.0444 23.8527ZM33.1678 13.9551L28.8204 12.5833V10.1635L33.8642 11.7533L33.1678 13.9551ZM34.5606 9.5585L34.2159 10.6559L28.7923 8.9465C28.6446 8.13753 27.9411 7.52553 27.097 7.52553H24.2902L8.92681 2.67171L9.2715 1.57432C9.36295 1.27887 9.69357 1.10301 9.99606 1.20149L34.1807 8.83395C34.6661 8.96057 34.6028 9.41078 34.5606 9.5585Z" fill="#F37E20"/>
</svg>
