<svg width="29" height="29" viewBox="0 0 29 29" fill="none" xmlns="http://www.w3.org/2000/svg">
<path d="M5.1778 13.1411C5.56277 13.0329 5.94774 12.9247 6.33271 12.8164C6.43964 12.8021 6.54713 12.7873 6.65406 12.773C6.94855 12.745 7.24249 12.717 7.53697 12.689C7.62855 12.6901 7.71959 12.6912 7.81117 12.6928C8.06617 12.7236 8.32062 12.7609 8.57891 12.7467C8.64637 12.7901 8.71985 12.8049 8.79882 12.7939C9.01763 12.8351 9.23589 12.8763 9.45469 12.9175C9.51282 12.9823 9.59508 12.967 9.66856 12.9818C9.88847 13.0598 10.1078 13.1378 10.3277 13.2164C10.3853 13.24 10.4423 13.2636 10.4999 13.2878C10.6633 13.3642 10.8268 13.4411 10.9907 13.5175C11.0522 13.5768 11.124 13.6169 11.2073 13.6361C11.3516 13.7262 11.4958 13.8158 11.64 13.9059C11.7163 13.9597 11.793 14.0136 11.8693 14.0674C12.0113 14.179 12.1533 14.2905 12.2954 14.402C12.3546 14.4553 12.4138 14.5086 12.473 14.5614C12.6019 14.6888 12.7313 14.8163 12.8602 14.9432C12.9128 15.0009 12.966 15.058 13.0187 15.1157C13.1443 15.2695 13.2693 15.4228 13.3949 15.5767C13.413 15.642 13.4503 15.6937 13.5073 15.7305C13.6159 15.8992 13.725 16.0673 13.8336 16.236C13.8358 16.2728 13.8385 16.3096 13.8824 16.3228C13.9921 16.542 14.1018 16.7612 14.212 16.981C14.2262 17.0189 14.2399 17.0573 14.2542 17.0952C14.3211 17.2754 14.3886 17.4556 14.4555 17.6358C14.4763 17.732 14.4884 17.8314 14.5492 17.9144C14.5915 18.1144 14.6337 18.3149 14.6765 18.5149C14.6946 18.6067 14.7127 18.699 14.7308 18.7907C14.7527 19.0462 14.7741 19.3022 14.796 19.5577C14.802 19.6505 14.8086 19.7434 14.8147 19.8362C14.8009 20.1104 14.7872 20.384 14.7735 20.6582C14.7214 20.7631 14.7143 20.8741 14.728 20.9878C14.6364 21.3537 14.5454 21.7196 14.4538 22.0855C14.411 22.2119 14.3677 22.3382 14.3249 22.4646C14.0036 23.1942 13.6071 23.8782 13.1004 24.4958C12.8344 24.7639 12.5685 25.032 12.3019 25.2996C11.6877 25.81 11.005 26.2077 10.2806 26.5374C10.1259 26.5654 9.98115 26.6209 9.8424 26.694C9.49527 26.7742 9.14814 26.8544 8.80101 26.9346C8.69079 26.9505 8.58056 26.9665 8.47033 26.9824C8.17804 27.0005 7.8863 27.0192 7.594 27.0373C7.50242 27.0357 7.41084 27.0335 7.31926 27.0319C7.08291 27.0093 6.846 26.9863 6.60964 26.9637C6.52519 26.9011 6.42703 26.9187 6.33271 26.9165C6.11335 26.8637 5.894 26.8115 5.67464 26.7588C5.61322 26.7033 5.53754 26.6929 5.45967 26.689C5.25896 26.6121 5.05825 26.5357 4.85699 26.4588C4.79996 26.4324 4.74292 26.4055 4.68644 26.3792C4.52741 26.3006 4.36783 26.222 4.20879 26.1435C4.13037 26.0951 4.05195 26.0468 3.97298 25.9984C3.82602 25.9034 3.6796 25.8078 3.53263 25.7127C3.46024 25.6583 3.3873 25.6039 3.31492 25.5501C3.17124 25.4325 3.02756 25.3144 2.88443 25.1968C2.84988 25.1655 2.81588 25.1342 2.78133 25.1029C2.63272 24.9518 2.48411 24.8002 2.33549 24.6491C2.3141 24.587 2.27462 24.5397 2.21759 24.5073C2.09365 24.3513 1.96972 24.1958 1.84578 24.0398C1.82988 23.9716 1.79204 23.9194 1.735 23.8799C1.62807 23.7057 1.52113 23.5316 1.4142 23.358C1.39994 23.3129 1.3972 23.2618 1.3451 23.2387C0.960677 22.4443 0.667837 21.6207 0.561998 20.7384C0.558707 20.7285 0.532385 20.7213 0.517578 20.7125C0.517578 20.1631 0.517578 19.6137 0.517578 19.0643C0.638772 18.7803 0.635482 18.4688 0.713353 18.1743C1.28423 16.0107 2.57953 14.4399 4.55757 13.4202C4.62173 13.3873 4.68644 13.3548 4.75115 13.3224C4.89318 13.262 5.03522 13.2016 5.1778 13.1411ZM11.6022 15.4349C11.5589 15.3662 11.504 15.3102 11.4283 15.2772C11.2962 15.147 11.147 15.0399 10.988 14.9454C10.9326 14.8806 10.8608 14.8416 10.7807 14.8157C10.6085 14.6877 10.4325 14.5657 10.223 14.5053C10.1884 14.4476 10.1254 14.4438 10.0711 14.424C9.89834 14.3372 9.72505 14.2498 9.53037 14.2207C9.47992 14.1564 9.40369 14.1724 9.33734 14.157C9.09714 14.0526 8.8405 14.0163 8.58495 13.9762C8.49117 13.9674 8.39795 13.9592 8.30417 13.9504C8.05191 13.8702 7.79362 13.8971 7.53642 13.9087C7.43442 13.9098 7.33242 13.9114 7.23042 13.9125C6.90852 13.9444 6.58387 13.9597 6.27513 14.0713C6.13967 14.079 6.00971 14.1081 5.89071 14.1762C3.91979 14.8102 2.62833 16.1294 1.96588 18.0831C1.9242 18.2056 1.87155 18.3254 1.87868 18.4589C1.76846 18.7797 1.71417 19.1094 1.72458 19.4489C1.7032 19.5396 1.69004 19.6308 1.71691 19.7231C1.66591 19.9989 1.7202 20.2725 1.73336 20.5472C1.72349 20.6263 1.74542 20.6988 1.78052 20.768C1.77778 21.0186 1.84304 21.2559 1.92749 21.4889C1.9412 21.5438 1.95491 21.5982 1.96917 21.6531C2.02181 21.8641 2.09036 22.069 2.19401 22.2608C2.22362 22.3575 2.25323 22.4542 2.32398 22.5305C2.37991 22.714 2.48356 22.8712 2.59927 23.0212C2.61572 23.0882 2.64643 23.1464 2.70291 23.1882C2.80217 23.3816 2.93433 23.5508 3.0824 23.7085C3.10488 23.7695 3.14437 23.8162 3.20304 23.8458C3.30834 23.9942 3.42569 24.1304 3.5765 24.2348C3.63463 24.2887 3.69276 24.3425 3.75034 24.3963C3.86605 24.5403 4.01302 24.6441 4.17315 24.7326C4.20879 24.7897 4.2587 24.8282 4.32341 24.8474C4.48408 24.9743 4.65573 25.0831 4.84328 25.1666C4.9047 25.2287 4.97873 25.2661 5.06483 25.2798C5.25128 25.4029 5.45528 25.4836 5.67025 25.5402C5.7377 25.5798 5.80516 25.6188 5.88796 25.6089C6.09855 25.7012 6.31461 25.7699 6.54768 25.7704C6.61239 25.827 6.68861 25.8297 6.76813 25.8188C7.02039 25.8836 7.27649 25.899 7.53533 25.8753C7.62691 25.8759 7.71849 25.877 7.81007 25.8775C8.12649 25.8935 8.43907 25.872 8.74233 25.7715C8.85859 25.7863 8.96663 25.7561 9.07137 25.7089C9.55834 25.6028 10.0179 25.4292 10.4418 25.1639C11.4695 24.6177 12.2652 23.837 12.8163 22.8091C13.1037 22.3685 13.2951 21.8883 13.402 21.3735C13.476 21.2554 13.4722 21.1175 13.4996 20.9878C13.5698 20.6812 13.5983 20.3697 13.606 20.056C13.6066 19.9637 13.6066 19.8714 13.6071 19.7785C13.6312 19.5385 13.5704 19.3039 13.5567 19.0665C13.5391 18.9742 13.5216 18.8825 13.504 18.7902C13.4771 18.5644 13.4267 18.344 13.3422 18.132C13.3181 18.0556 13.2934 17.9798 13.2693 17.9034C13.1975 17.6732 13.1174 17.4463 12.9836 17.2436C12.9748 17.2035 12.9776 17.1573 12.9304 17.1359C12.8459 16.9304 12.7269 16.7453 12.5904 16.5716C12.5783 16.5013 12.5377 16.4519 12.4791 16.4145C12.3886 16.2563 12.2888 16.1052 12.1462 15.9871C12.1084 15.9134 12.0546 15.8552 11.9844 15.8113C11.8863 15.6563 11.7492 15.5404 11.6022 15.4349Z" fill="#F37E20"/>
<path d="M21.5748 1.09387C21.8303 1.11145 22.0858 1.12903 22.3414 1.14607C22.433 1.16365 22.5251 1.18068 22.6167 1.19826C22.8355 1.23947 23.0543 1.28012 23.2731 1.32133C23.3301 1.38891 23.413 1.37407 23.4864 1.38945C23.6893 1.45868 23.8928 1.52736 24.0957 1.59658C24.1308 1.65702 24.1966 1.65207 24.2509 1.6702C24.4363 1.75756 24.6211 1.84491 24.8064 1.93227C24.8245 1.98721 24.8761 1.98227 24.9177 1.9949C25.0927 2.10314 25.2676 2.21137 25.4425 2.31906C25.4837 2.3729 25.5352 2.41191 25.6016 2.42949C25.7584 2.5531 25.9158 2.67727 26.0726 2.80089C26.1056 2.85748 26.1516 2.89758 26.2141 2.91846C26.3655 3.0668 26.5174 3.21569 26.6687 3.36403C26.7006 3.39865 26.7324 3.43326 26.7642 3.46732C26.8821 3.61127 27.0005 3.75576 27.1184 3.89971C27.1623 3.95739 27.2056 4.01508 27.2495 4.07332C27.3553 4.23485 27.4612 4.39692 27.567 4.55845C27.6147 4.63537 27.6624 4.71228 27.7101 4.7892C27.7891 4.95018 27.8686 5.1117 27.9476 5.27268C27.9767 5.32872 28.0057 5.38476 28.0348 5.44135C28.298 6.0968 28.4433 6.78466 28.592 7.47142C28.592 8.0027 28.592 8.53343 28.592 9.06471C28.4768 9.33996 28.4762 9.63994 28.406 9.92563C28.1516 10.9651 27.6734 11.892 27.0279 12.7381C26.6775 13.1408 26.3024 13.5182 25.8966 13.8654C25.3241 14.3061 24.6989 14.6555 24.0403 14.9483C23.8868 14.9796 23.7398 15.0291 23.6016 15.1044C23.2545 15.1829 22.9073 15.2615 22.5602 15.3401C22.45 15.3565 22.3398 15.373 22.2301 15.389C21.9378 15.406 21.6455 15.4236 21.3532 15.4406C21.2622 15.4362 21.1711 15.4318 21.0801 15.4274C20.8443 15.3994 20.6079 15.3714 20.3721 15.3434C20.2827 15.3285 20.1934 15.3137 20.104 15.2989C19.8819 15.2494 19.6598 15.1994 19.4371 15.15C19.3944 15.0939 19.3313 15.106 19.2732 15.1C19.0719 15.0252 18.8706 14.9505 18.6694 14.8758C18.6414 14.8231 18.5866 14.8297 18.5405 14.8181C18.3272 14.711 18.1133 14.6033 17.9 14.4962C17.8589 14.439 17.8002 14.4094 17.7338 14.3929C17.5912 14.3 17.4492 14.2072 17.3066 14.1138C17.2693 14.0555 17.2178 14.0171 17.1498 14.0011C16.9984 13.8753 16.8471 13.749 16.6957 13.6232C16.6387 13.5704 16.5817 13.5171 16.5246 13.4644C16.3979 13.3347 16.2718 13.2051 16.1451 13.0748C16.0919 13.0155 16.0387 12.9556 15.9856 12.8963C15.8753 12.754 15.7651 12.6117 15.6543 12.4694C15.6132 12.3826 15.5688 12.298 15.4909 12.2364C15.4032 12.0925 15.316 11.948 15.2282 11.8041C15.2025 11.7222 15.1701 11.6436 15.1048 11.5837C15.016 11.3942 14.9266 11.2047 14.8378 11.0157C14.8312 10.964 14.8372 10.9074 14.7824 10.875C14.7193 10.675 14.6557 10.4756 14.5926 10.2756C14.5702 10.1992 14.5477 10.1229 14.5257 10.047C14.4786 9.83003 14.4314 9.61302 14.3843 9.396C14.3908 9.3004 14.3985 9.20426 14.3415 9.118C14.3289 8.88175 14.3168 8.64551 14.3042 8.40871C14.3025 8.29718 14.3014 8.1862 14.2998 8.07467C14.3267 7.78238 14.3535 7.49065 14.381 7.19836C14.3985 7.08793 14.4166 6.97805 14.4342 6.86762C14.5455 6.48303 14.6568 6.09899 14.7687 5.71441C14.8285 5.56991 14.8888 5.42487 14.9485 5.28037C15.5452 4.0942 16.3513 3.08603 17.4629 2.34433C17.7793 2.13281 18.1171 1.95315 18.4451 1.75921C18.6085 1.69273 18.7719 1.62625 18.9353 1.55977C19.3209 1.44604 19.7058 1.33232 20.0914 1.21859C20.2016 1.21035 20.3167 1.23232 20.4182 1.16639C20.711 1.14167 21.0039 1.11695 21.2967 1.09277C21.391 1.09277 21.4826 1.09332 21.5748 1.09387ZM23.0549 2.47179C22.8459 2.37674 22.6216 2.34708 22.3973 2.31686C22.3255 2.30972 22.2542 2.30312 22.1824 2.29598C21.9098 2.21796 21.6318 2.24049 21.3548 2.25532C21.2633 2.25587 21.1717 2.25697 21.0801 2.25752C20.7434 2.25972 20.4122 2.30093 20.0935 2.41575C19.9559 2.40696 19.8309 2.45036 19.7113 2.51355C19.6581 2.52508 19.6027 2.53058 19.5523 2.54926C17.6812 3.24921 16.4182 4.54197 15.7788 6.44127C15.7492 6.56269 15.7201 6.68466 15.6905 6.80608C15.5819 7.12914 15.5282 7.46098 15.5326 7.80271C15.4843 7.9093 15.492 8.02083 15.5041 8.13291C15.4695 8.39113 15.503 8.64606 15.5457 8.90043C15.5386 8.99658 15.5255 9.09327 15.5885 9.17843C15.583 9.40644 15.6538 9.61961 15.7152 9.83443C15.7382 9.9108 15.7613 9.98661 15.7843 10.063C15.8446 10.2712 15.9049 10.4794 16.0212 10.6657C16.0371 10.7547 16.0689 10.8355 16.1336 10.9008C16.1885 11.0805 16.2905 11.2338 16.4056 11.3794C16.4391 11.4349 16.472 11.4903 16.5054 11.5458C16.6124 11.7387 16.7473 11.9112 16.8975 12.0716C16.9381 12.1156 16.9781 12.1595 17.0187 12.2035C17.1251 12.3496 17.2386 12.4886 17.3927 12.5881C17.4514 12.6425 17.5101 12.6963 17.5688 12.7507C17.6845 12.8941 17.8336 12.9952 17.9921 13.0842C18.0283 13.1419 18.0782 13.1809 18.1446 13.1985C18.3063 13.3248 18.478 13.4336 18.6661 13.5166C18.7286 13.5748 18.8004 13.6149 18.886 13.627C19.0703 13.7523 19.2781 13.8226 19.4887 13.8874C19.5249 13.8979 19.5616 13.9088 19.5978 13.9193C19.8451 14.022 20.099 14.0995 20.3683 14.1149C20.4412 14.1319 20.5142 14.1495 20.5871 14.1665C20.8421 14.194 21.0938 14.2588 21.3537 14.2215C21.4453 14.222 21.5375 14.2226 21.629 14.2237C21.9455 14.2374 22.2548 14.194 22.5602 14.1138C22.694 14.127 22.8141 14.072 22.9386 14.0391C23.4256 13.9149 23.8966 13.7512 24.3194 13.471C25.3493 12.9243 26.1297 12.1293 26.6742 11.0992C26.9391 10.6745 27.1179 10.2157 27.2182 9.72565C27.2775 9.62346 27.2884 9.51192 27.2862 9.3971C27.3882 9.09272 27.4025 8.77846 27.3937 8.4609C27.4272 8.35047 27.4294 8.24004 27.3932 8.12961C27.3987 7.89007 27.4173 7.64998 27.3383 7.41703C27.3372 7.32143 27.3493 7.22418 27.2972 7.13628C27.2802 6.93025 27.2287 6.73246 27.1585 6.53907C27.1382 6.44237 27.1256 6.34293 27.0581 6.26327C27.0142 6.03251 26.9166 5.82374 26.796 5.6243C26.7872 5.57376 26.7823 5.52156 26.7296 5.49354C26.6709 5.30839 26.5552 5.15621 26.4461 5.00072C26.4159 4.91062 26.3649 4.83535 26.2909 4.77547C26.1966 4.61778 26.0968 4.46395 25.9558 4.34198C25.9207 4.26836 25.867 4.21177 25.7985 4.16892C25.6965 4.01618 25.5637 3.89476 25.4157 3.78928C25.3734 3.7206 25.3181 3.66621 25.244 3.63214C25.1141 3.49974 24.9627 3.3948 24.8053 3.2981C24.751 3.23108 24.6775 3.19426 24.5991 3.16515C24.4247 3.03988 24.2514 2.91407 24.0414 2.85308C24.0019 2.7932 23.935 2.78386 23.8747 2.76133C23.6817 2.66573 23.4864 2.57673 23.2731 2.53497C23.2057 2.49926 23.1382 2.45696 23.0549 2.47179Z" fill="#F37E20"/>
<path d="M2.74185 10.8701C2.65465 10.6899 2.56746 10.5097 2.48027 10.3294C2.46052 10.2674 2.44572 10.2025 2.38759 10.1624C2.31246 9.92893 2.1962 9.71466 2.07172 9.50479C2.05801 9.46358 2.06678 9.41139 2.01414 9.38941C1.92639 9.20426 1.83865 9.01856 1.75091 8.83341C1.72294 8.78286 1.69497 8.73177 1.667 8.68122C1.59078 8.45322 1.47891 8.24279 1.35607 8.03731C1.34345 7.99006 1.34565 7.93567 1.29081 7.90985C1.05939 7.36648 0.797806 6.83795 0.517578 6.31821C0.517578 6.20833 0.517578 6.09845 0.517578 5.98856C0.782451 5.56167 1.01771 5.46498 1.44929 5.60673C1.48658 5.64189 1.52387 5.6765 1.56062 5.71166C1.64891 5.87813 1.73775 6.04515 1.82604 6.21163C1.84084 6.29843 1.87539 6.3759 1.93791 6.43908C1.98781 6.61324 2.0772 6.76818 2.16878 6.92201C2.17865 6.98904 2.20772 7.04618 2.25762 7.09233C2.34536 7.27748 2.4331 7.46263 2.52085 7.64778C2.55704 7.7203 2.59269 7.79283 2.62888 7.86535C2.71607 8.045 2.80327 8.22521 2.89046 8.40487C2.96559 8.56694 3.04072 8.72902 3.14546 8.95483C3.21237 8.63782 3.26611 8.38454 3.3193 8.13181C3.46518 7.71041 3.61105 7.28902 3.75692 6.86707C3.84905 6.71104 3.92308 6.54786 3.97079 6.3726C4.33547 5.66936 4.7358 4.98754 5.20302 4.34693C5.82874 3.55743 6.53506 2.84979 7.3242 2.22401C7.96307 1.75426 8.64637 1.35869 9.34776 0.992234C9.51063 0.924656 9.6735 0.857628 9.83637 0.790051C10.5071 0.542267 11.1865 0.3258 11.889 0.184602C12.229 0.117024 12.5822 0.125265 12.9112 0C13.3499 0 13.7886 0 14.2273 0C14.2964 0.122518 14.4434 0.164273 14.5059 0.304373C14.6874 0.708189 14.4681 1.12135 14.0294 1.17244C13.8945 1.18782 13.759 1.19606 13.6236 1.20815C13.532 1.2098 13.4404 1.21145 13.3494 1.21365C13.0335 1.20431 12.7231 1.24496 12.4176 1.32353C12.3014 1.3032 12.1934 1.33232 12.0881 1.37737C11.7108 1.42297 11.3477 1.52461 10.9924 1.65702C10.8388 1.68889 10.688 1.72844 10.5531 1.81305C9.98718 1.99491 9.45798 2.25313 8.96169 2.58003C8.42153 2.85418 7.94717 3.22448 7.49365 3.62006C6.67655 4.33319 5.96858 5.13808 5.44651 6.0968C5.11693 6.59346 4.85973 7.12529 4.67767 7.69338C4.5976 7.82964 4.5477 7.97633 4.52576 8.13236C4.38483 8.48618 4.28612 8.85099 4.24444 9.23063C4.17644 9.34436 4.17863 9.46743 4.19344 9.62895C4.42705 9.43721 4.64092 9.2614 4.8548 9.08559C5.67464 8.44552 6.49503 7.80711 7.31268 7.1643C7.44594 7.05936 7.58633 6.98629 7.75523 6.96926C7.82378 6.9819 7.89233 6.99453 7.96088 7.00717C8.15117 7.072 8.26523 7.2132 8.3464 7.38846C8.35243 7.45274 8.35791 7.51757 8.36395 7.58185C8.31733 7.82579 8.18078 8.00105 7.98281 8.15049C7.62307 8.4219 7.27813 8.71309 6.92661 8.99603C6.47035 9.31579 6.03658 9.66521 5.60883 10.0218C4.98641 10.4976 4.35466 10.9618 3.77008 11.4838C3.60995 11.6272 3.4383 11.6046 3.25788 11.5958C3.22553 11.5299 3.15533 11.5425 3.10159 11.5211C3.01714 11.3761 2.93269 11.231 2.84824 11.086C2.81314 11.0146 2.77749 10.9426 2.74185 10.8701Z" fill="#F37E20"/>
<path d="M21.7471 21.411C21.6171 21.1764 21.6336 20.9462 21.7701 20.7204C21.8359 20.655 21.9012 20.5896 21.967 20.5242C23.1685 19.5314 24.3706 18.5397 25.5688 17.5437C25.6554 17.4717 25.7421 17.414 25.8507 17.3882C25.9598 17.4008 26.0684 17.4135 26.1775 17.4266C26.3157 17.4849 26.4336 17.57 26.5257 17.6893C26.557 17.7448 26.5888 17.8002 26.6201 17.8557C26.6793 18.0716 26.7753 18.2711 26.8888 18.4628C26.9008 18.5529 26.9343 18.6331 26.9952 18.7013C27.0385 18.8732 27.1185 19.0293 27.2052 19.1826C27.2315 19.2809 27.2633 19.3759 27.3319 19.4545C27.3911 19.6627 27.486 19.8545 27.5918 20.0418C27.6044 20.0869 27.5978 20.1413 27.6505 20.1671C27.7059 20.3588 27.7914 20.538 27.8885 20.7116C27.9038 20.794 27.9335 20.8698 27.9932 20.9319C28.1945 21.3895 28.3952 21.8477 28.5965 22.3054C28.5965 22.4153 28.5965 22.5252 28.5965 22.635C28.4687 22.8015 28.3195 22.9378 28.104 22.9784C28.0124 22.9746 27.9203 22.9702 27.8287 22.9663C27.6741 22.8894 27.5573 22.7718 27.4695 22.6241C27.4487 22.5697 27.4498 22.5043 27.3905 22.4697C27.3335 22.2532 27.2359 22.0543 27.1257 21.8609C27.1246 21.7977 27.0994 21.7445 27.0555 21.7C26.9897 21.4879 26.9019 21.2857 26.7873 21.0956C26.7944 21.0286 26.7528 20.9813 26.7204 20.9302C26.6223 20.6726 26.5235 20.4149 26.3667 20.1583C26.2669 20.6473 26.1035 21.0874 25.9675 21.5351C25.8913 21.6736 25.8293 21.8181 25.7953 21.973C25.469 22.6378 25.1098 23.2833 24.6881 23.8926C24.0267 24.7569 23.2683 25.5233 22.3925 26.1705C21.8057 26.5859 21.1745 26.9243 20.5346 27.2468C20.3679 27.31 20.2012 27.3732 20.0344 27.4363C18.9059 27.8418 17.7466 28.0748 16.5434 28.0753C16.2445 28.0753 16.0361 27.966 15.9199 27.6891C15.9111 27.5781 15.9023 27.4671 15.8936 27.3561C15.9659 27.0809 16.1595 26.938 16.4233 26.8721C16.5143 26.8924 16.6054 26.8946 16.6964 26.8693C16.9909 26.8721 17.2865 26.8919 17.5738 26.8051C17.6868 26.815 17.7998 26.8248 17.9029 26.76C18.2615 26.7358 18.6081 26.6534 18.9448 26.5293C19.1033 26.5205 19.2453 26.4551 19.3906 26.4002C19.9072 26.2254 20.4101 26.0205 20.868 25.7189C21.1477 25.5936 21.4032 25.4299 21.6379 25.2332C22.4693 24.6662 23.1669 23.9641 23.7383 23.1356C23.9324 22.8993 24.098 22.6449 24.2252 22.3664C24.529 21.884 24.7643 21.3703 24.9222 20.8214C24.9886 20.7028 25.0347 20.5775 25.0385 20.4391C25.1794 20.1138 25.2272 19.7649 25.2869 19.4199C25.288 19.3952 25.3001 19.3584 25.2891 19.3485C25.2612 19.3243 25.2485 19.3556 25.2381 19.3781C24.9113 19.6111 24.6075 19.8726 24.3124 20.144C23.7651 20.5594 23.2387 21 22.7221 21.4527C22.4512 21.7049 22.1622 21.7126 21.8573 21.5192C21.8184 21.484 21.7827 21.4478 21.7471 21.411Z" fill="#F37E20"/>
<path d="M10.9805 16.7615C11.0562 16.8351 11.1324 16.9093 11.2081 16.9829C11.416 17.1532 11.3765 17.3038 11.2026 17.4862C10.9986 17.701 10.827 17.946 10.6411 18.1784C10.6192 18.1773 10.6076 18.1878 10.606 18.2097C10.4354 18.1652 10.3702 17.985 10.2216 17.9114C10.1815 17.8427 10.1272 17.7883 10.0549 17.7543C9.92434 17.618 9.77463 17.5114 9.59037 17.4598C9.50921 17.3818 9.40502 17.3587 9.30027 17.3384C9.06611 17.2549 8.82537 17.2279 8.57804 17.2565C8.48646 17.2571 8.39488 17.2576 8.30275 17.2582C7.51307 17.3285 6.99155 17.7905 6.56052 18.4498C6.81552 18.4498 7.03816 18.4498 7.26026 18.4498C7.35239 18.4504 7.44397 18.4515 7.5361 18.452C7.80975 18.4515 8.0834 18.4504 8.35704 18.4498C8.44917 18.4504 8.54075 18.4515 8.63288 18.452C8.83304 18.5031 9.05076 18.3866 9.24324 18.5147C9.24379 18.607 9.24489 18.6987 9.24543 18.791C9.24214 18.9438 9.22624 19.0976 9.2383 19.2492C9.25092 19.4102 9.20979 19.4767 9.03485 19.4613C8.86595 19.4465 8.6943 19.4662 8.52375 19.4706C8.44972 19.4695 8.37569 19.4684 8.30165 19.4673C8.02856 19.4684 7.75546 19.4695 7.48181 19.4706C7.38968 19.4695 7.297 19.4684 7.20487 19.4673C7.12316 19.464 7.04145 19.458 6.9592 19.4574C6.24464 19.4553 6.1728 19.5574 6.38229 20.2733C6.43384 20.4953 6.60274 20.3425 6.71297 20.3772C7.00526 20.3766 7.297 20.3755 7.5893 20.375C7.66278 20.3755 7.73626 20.3766 7.80975 20.3772C8.0834 20.3766 8.35759 20.3755 8.63124 20.375C8.72282 20.3755 8.81495 20.3766 8.90653 20.3772C8.94272 20.3799 8.98111 20.392 9.01456 20.3843C9.24818 20.3327 9.32002 20.4447 9.29808 20.6574C9.29863 20.7491 9.29972 20.8414 9.30027 20.9332C9.2745 21.3677 9.2745 21.3677 8.85388 21.4166C8.74311 21.3864 8.63233 21.3837 8.52101 21.4133C7.96494 21.4079 7.40833 21.4029 6.85226 21.3958C6.73655 21.3941 6.66361 21.409 6.753 21.5447C6.98113 21.8908 7.23174 22.2116 7.63865 22.3638C7.67868 22.4254 7.74559 22.4221 7.80646 22.4347C8.09052 22.5561 8.38501 22.577 8.68662 22.5265C8.79521 22.5424 8.90269 22.5391 9.00853 22.5072C9.48618 22.4056 9.88102 22.1561 10.238 21.832C10.3148 21.7622 10.3636 21.6452 10.4941 21.6474C10.5495 21.7205 10.6049 21.793 10.6608 21.8661C10.7694 22.0133 10.878 22.16 10.986 22.3072C11.0409 22.3825 11.0963 22.4578 11.1511 22.533C11.2876 22.6825 11.2493 22.7984 11.1171 22.9429C10.7009 23.3995 10.1974 23.7088 9.61889 23.9066C9.49111 23.9351 9.36389 23.9643 9.23611 23.9928C8.96192 24.0077 8.68772 24.023 8.41353 24.0379C8.3033 24.0313 8.19307 24.0247 8.0823 24.0181C7.89256 23.9901 7.70281 23.9621 7.51307 23.934C7.44617 23.9148 7.37981 23.8956 7.31291 23.8764C7.11658 23.7901 6.92026 23.7044 6.72448 23.6181C6.64716 23.5648 6.57039 23.5121 6.49306 23.4588C6.36419 23.3495 6.23532 23.2396 6.10645 23.1303C6.05216 23.0759 5.99787 23.0215 5.94358 22.9671C5.83609 22.8374 5.72806 22.7078 5.62057 22.5781C5.56738 22.4995 5.51364 22.4204 5.46044 22.3419C5.38203 22.1831 5.30415 22.0248 5.22573 21.8661C5.19612 21.7913 5.16706 21.7166 5.13744 21.6414C4.86489 21.5117 4.57918 21.6001 4.29895 21.5919C4.19092 21.5925 4.08124 21.5919 3.97157 21.5919C3.82898 21.4051 3.95456 21.1859 3.89863 20.9887C3.89753 20.8964 3.89644 20.8041 3.89534 20.7123C3.90795 20.6315 3.91069 20.5436 4.02695 20.5453C4.13663 20.5458 4.24576 20.5464 4.35544 20.5469C4.86654 20.5788 4.86654 20.5788 4.84076 20.0816C4.84022 20.0728 4.83802 20.064 4.83638 20.0547C4.83528 19.9624 4.83473 19.8701 4.83363 19.7778C4.87531 19.6289 4.77551 19.6377 4.68063 19.6388C4.46292 19.6404 4.24521 19.6415 4.0275 19.6426C3.96718 19.6338 3.9074 19.6256 3.84708 19.6168C3.84379 19.3597 3.8405 19.1025 3.83721 18.846C3.81856 18.6625 3.91727 18.6059 4.08124 18.6196C4.33624 18.6223 4.59179 18.6185 4.8468 18.63C4.97951 18.6361 5.03215 18.5822 5.07822 18.4603C5.50815 17.3219 6.29839 16.5368 7.42533 16.0896C7.55365 16.055 7.68197 16.0209 7.8103 15.9863C8.10259 15.966 8.39488 15.9456 8.68717 15.9253C8.77875 15.9286 8.87034 15.9313 8.96192 15.9346C9.19827 15.9758 9.43463 16.0165 9.67098 16.0577C9.71431 16.1143 9.77792 16.1017 9.8366 16.1066C10.0126 16.1819 10.1881 16.2571 10.3642 16.3324C10.4453 16.3813 10.5265 16.4308 10.6076 16.4796C10.7316 16.5725 10.8561 16.667 10.9805 16.7615Z" fill="#F37E20"/>
<path d="M21.4664 3.13421C21.5569 3.16113 21.6485 3.16223 21.7395 3.13806C22.0817 3.1485 21.8777 3.42925 21.9528 3.57154C21.892 3.84405 22.1201 3.71714 22.221 3.76603C22.4442 3.80889 22.6679 3.85229 22.8911 3.89514C22.9547 3.94459 23.0277 3.96437 23.1072 3.96492C23.2898 4.03909 23.473 4.11381 23.6556 4.18798C23.6792 4.24072 23.7335 4.23358 23.7757 4.25006C23.9726 4.3594 24.1694 4.46873 24.3668 4.57861C24.4063 4.60883 24.4464 4.63905 24.4858 4.66871C24.2857 5.01429 23.9901 5.2857 23.7559 5.60436C23.6578 5.73786 23.5837 5.59392 23.4976 5.59502C23.4845 5.54832 23.4466 5.54282 23.4072 5.54173C23.2421 5.41097 23.0573 5.31976 22.8544 5.26592C22.7661 5.20713 22.6734 5.15934 22.5637 5.16098C22.357 5.05715 22.1316 5.03352 21.9062 5.01045C21.8146 5.0077 21.7225 5.0055 21.6309 5.00275C21.3162 5.00166 20.9937 4.93518 20.697 5.1044C20.334 5.21812 20.04 5.40108 19.9885 5.82302C19.8953 6.11476 19.926 6.38232 20.1415 6.61362C20.1558 6.66527 20.1881 6.69768 20.2402 6.71032C20.4113 6.88723 20.6361 6.9581 20.8626 7.02568C20.9098 7.06634 20.9608 7.096 21.0261 7.08941C21.2037 7.19435 21.4033 7.22896 21.6013 7.26852C21.6567 7.32456 21.7318 7.31027 21.7993 7.32456C22.0537 7.38939 22.3082 7.45422 22.5632 7.51905C22.6295 7.55971 22.6986 7.59322 22.7793 7.59047C22.9438 7.66135 23.1077 7.73167 23.2723 7.80255C23.3342 7.86298 23.4088 7.89924 23.4922 7.91957C23.6572 8.0289 23.8223 8.13769 23.9874 8.24702C24.0416 8.30196 24.0965 8.35745 24.1508 8.41239C24.2336 8.54205 24.3169 8.67226 24.3997 8.80192C24.4403 8.89862 24.4815 8.99531 24.522 9.09201C24.5582 9.2865 24.595 9.48044 24.6312 9.67493C24.6367 9.76449 24.6416 9.85404 24.6471 9.94359C24.5939 10.2958 24.5566 10.6518 24.4014 10.9798C24.1469 11.4407 23.7839 11.7935 23.3342 12.0605C22.9695 12.2456 22.572 12.3242 22.1793 12.4192C21.853 12.4115 21.853 12.4115 21.8947 12.7478C21.8289 12.9236 21.9704 13.1703 21.8229 13.2752C21.7011 13.362 21.4796 13.3076 21.3024 13.3159C21.2311 13.3043 21.1599 13.2922 21.0891 13.2807C21.0869 13.0472 21.0847 12.8137 21.0825 12.5802C21.1308 12.3028 20.9109 12.4505 20.8105 12.4077C20.5901 12.3566 20.3702 12.3055 20.1497 12.2539C20.091 12.1956 20.0126 12.1907 19.938 12.1764C19.7724 12.1088 19.6068 12.0412 19.4407 11.9737C19.3781 11.9138 19.3025 11.8797 19.2186 11.861C19.0365 11.749 18.8539 11.6369 18.6718 11.5248C18.6652 11.4797 18.629 11.4737 18.5939 11.4655C18.4387 11.3413 18.2841 11.2171 18.1289 11.0924C18.3526 10.8034 18.5769 10.515 18.8007 10.226C18.8484 10.1683 18.8961 10.1106 18.9438 10.0535C19.0348 10.0029 19.0891 10.0886 19.161 10.1112C19.2701 10.2227 19.3875 10.3232 19.5317 10.3881C19.5739 10.4567 19.6425 10.4848 19.7143 10.5084C19.9128 10.6534 20.1272 10.7655 20.3691 10.8188C20.4234 10.8842 20.5067 10.8787 20.5775 10.9034C20.7946 10.9765 21.0107 11.054 21.2449 11.0496C21.3107 11.1089 21.3891 11.0974 21.467 11.0902C21.7631 11.1375 22.057 11.1474 22.3433 11.0353C22.8204 10.932 23.1604 10.6935 23.1988 10.1601C23.2103 9.93425 23.1604 9.72823 23.0035 9.55681C22.9553 9.45901 22.8834 9.38704 22.782 9.34639C22.6191 9.22387 22.4338 9.15409 22.2369 9.11069C22.1749 9.0508 22.0954 9.03212 22.0148 9.01564C21.8223 8.93103 21.6243 8.86291 21.4154 8.83214C21.3408 8.80412 21.2662 8.77665 21.1917 8.74863C20.9729 8.69039 20.7541 8.63215 20.5352 8.57447C20.4716 8.52667 20.3992 8.50414 20.3203 8.50194C20.1371 8.42832 19.9539 8.35415 19.7708 8.28053C19.7478 8.22834 19.694 8.23438 19.6518 8.21845C19.4555 8.08769 19.2586 7.95693 19.0623 7.82617C19.0272 7.79046 18.9926 7.7553 18.9575 7.71958C18.8484 7.55147 18.7393 7.3828 18.6301 7.21468C18.6137 7.16963 18.5972 7.12457 18.5813 7.07952C18.5391 6.86141 18.4969 6.64384 18.4547 6.42572C18.453 6.33452 18.4514 6.24277 18.4497 6.15157C18.5161 5.72743 18.6252 5.31812 18.8544 4.94891C19.054 4.68739 19.2734 4.44565 19.5443 4.25556C19.9682 3.99514 20.4239 3.81933 20.9197 3.77318C21.1237 3.7545 21.1878 3.66659 21.1505 3.48034C21.0979 3.22102 21.2147 3.11663 21.4664 3.13421Z" fill="#F37E20"/>
</svg>
