<svg width="19" height="17" viewBox="0 0 19 17" fill="none" xmlns="http://www.w3.org/2000/svg">
<path fill-rule="evenodd" clip-rule="evenodd" d="M7.7882 12.4443L11.5073 16.1634C11.7966 16.4527 12.2647 16.4536 12.5574 16.161C12.848 15.8704 12.8472 15.3984 12.5598 15.111L8.84004 11.3912C9.35893 10.6617 9.66406 9.76954 9.66406 8.80611C9.66406 6.34011 7.66497 4.34102 5.19897 4.34102C2.73298 4.34102 0.733887 6.34011 0.733887 8.80611C0.733887 11.2721 2.73298 13.2712 5.19897 13.2712C6.16421 13.2712 7.05791 12.9649 7.7882 12.4443ZM18.5942 5.0852C18.5942 4.6742 18.26 4.34102 17.8535 4.34102H11.8932C11.4841 4.34102 11.1524 4.67134 11.1524 5.0852C11.1524 5.4962 11.4866 5.82939 11.8932 5.82939H17.8535C18.2626 5.82939 18.5942 5.49907 18.5942 5.0852ZM18.5942 8.80611C18.5942 8.39511 18.2605 8.06193 17.8479 8.06193H14.1313C13.7191 8.06193 13.385 8.39224 13.385 8.80611C13.385 9.21711 13.7188 9.55029 14.1313 9.55029H17.8479C18.2601 9.55029 18.5942 9.21998 18.5942 8.80611ZM18.5942 12.527C18.5942 12.116 18.2605 11.7828 17.8479 11.7828H14.1313C13.7191 11.7828 13.385 12.1132 13.385 12.527C13.385 12.938 13.7188 13.2712 14.1313 13.2712H17.8479C18.2601 13.2712 18.5942 12.9409 18.5942 12.527ZM18.5942 1.3643C18.5942 0.953298 18.2598 0.620117 17.8482 0.620117H2.96826C2.55625 0.620117 2.22225 0.950433 2.22225 1.3643C2.22225 1.7753 2.55671 2.10848 2.96826 2.10848H17.8482C18.2602 2.10848 18.5942 1.77816 18.5942 1.3643Z" fill="#F37E20"/>
<circle cx="5.20442" cy="8.82454" r="2.85774" fill="white"/>
</svg>
