<svg width="23" height="26" viewBox="0 0 23 26" fill="none" xmlns="http://www.w3.org/2000/svg">
<path d="M10.2403 3.11621H5.90695C5.66777 3.11621 5.47363 3.31035 5.47363 3.54953C5.47363 3.78871 5.66777 3.98284 5.90695 3.98284H10.2403C10.4794 3.98284 10.6736 3.78871 10.6736 3.54953C10.6736 3.31035 10.4794 3.11621 10.2403 3.11621Z" fill="#AD1E23"/>
<path d="M8.8631 20.7519C9.13924 20.7519 9.3631 20.528 9.3631 20.2519C9.3631 19.9757 9.13924 19.7519 8.8631 19.7519V20.7519ZM1.76909 6.57007H14.4736V5.57007H1.76909V6.57007ZM1.47363 20.7519H8.8631V19.7519H1.47363V20.7519Z" fill="#AD1E23"/>
<path d="M3.47363 1.84277H12.4736V0.842773H3.47363V1.84277ZM12.4736 24.4791H3.47363V25.4791H12.4736V24.4791ZM1.97363 17.4556V3.34277H0.973633V17.4556H1.97363ZM1.97363 22.9791V17.4556H0.973633V22.9791H1.97363ZM13.9736 3.34277V6.1401H14.9736V3.34277H13.9736ZM3.47363 24.4791C2.64521 24.4791 1.97363 23.8076 1.97363 22.9791H0.973633C0.973633 24.3598 2.09292 25.4791 3.47363 25.4791V24.4791ZM12.4736 25.4791C13.8578 25.4791 14.9736 24.3456 14.9736 22.9684H13.9736C13.9736 23.8003 13.2986 24.4791 12.4736 24.4791V25.4791ZM12.4736 1.84277C13.3021 1.84277 13.9736 2.51435 13.9736 3.34277H14.9736C14.9736 1.96206 13.8543 0.842773 12.4736 0.842773V1.84277ZM3.47363 0.842773C2.09292 0.842773 0.973633 1.96206 0.973633 3.34277H1.97363C1.97363 2.51435 2.64521 1.84277 3.47363 1.84277V0.842773Z" fill="#AD1E23"/>
<path d="M10.2314 6.06934H21.7501V23.0734L18.8704 19.8224L15.9908 23.0734L13.1111 19.8224L10.2314 23.0734V6.06934Z" stroke="#AD1E23" stroke-linejoin="round"/>
<path d="M8.83154 23.1631C9.10769 23.1631 9.33154 22.9392 9.33154 22.6631C9.33154 22.3869 9.10769 22.1631 8.83154 22.1631V23.1631ZM6.12891 22.1631C5.85276 22.1631 5.62891 22.3869 5.62891 22.6631C5.62891 22.9392 5.85276 23.1631 6.12891 23.1631V22.1631ZM8.83154 22.1631H6.12891V23.1631H8.83154V22.1631Z" fill="#AD1E23"/>
<path d="M19.1261 10.1943C19.4022 10.1943 19.6261 9.97048 19.6261 9.69434C19.6261 9.41819 19.4022 9.19434 19.1261 9.19434V10.1943ZM12.7012 9.19434C12.425 9.19434 12.2012 9.41819 12.2012 9.69434C12.2012 9.97048 12.425 10.1943 12.7012 10.1943V9.19434ZM19.1261 9.19434H12.7012V10.1943H19.1261V9.19434Z" fill="#AD1E23"/>
<path d="M19.1261 13.4717C19.4022 13.4717 19.6261 13.2478 19.6261 12.9717C19.6261 12.6955 19.4022 12.4717 19.1261 12.4717V13.4717ZM12.7012 12.4717C12.425 12.4717 12.2012 12.6955 12.2012 12.9717C12.2012 13.2478 12.425 13.4717 12.7012 13.4717V12.4717ZM19.1261 12.4717H12.7012V13.4717H19.1261V12.4717Z" fill="#AD1E23"/>
<path d="M16.867 16.6689C17.1432 16.6689 17.367 16.4451 17.367 16.1689C17.367 15.8928 17.1432 15.6689 16.867 15.6689V16.6689ZM12.7012 15.6689C12.425 15.6689 12.2012 15.8928 12.2012 16.1689C12.2012 16.4451 12.425 16.6689 12.7012 16.6689V15.6689ZM16.867 15.6689H12.7012V16.6689H16.867V15.6689Z" fill="#AD1E23"/>
</svg>
