<svg width="15" height="26" viewBox="0 0 15 26" fill="none" xmlns="http://www.w3.org/2000/svg">
<path d="M9.72269 2.99805H5.38937C5.15019 2.99805 4.95605 3.19218 4.95605 3.43136C4.95605 3.67054 5.15019 3.86468 5.38937 3.86468H9.72269C9.96187 3.86468 10.156 3.67054 10.156 3.43136C10.156 3.19218 9.96187 2.99805 9.72269 2.99805Z" fill="#AD1E23"/>
<mask id="path-2-inside-1" fill="white">
<path d="M7.95509 21.3152H6.87914C6.22005 21.3152 5.68359 21.8516 5.68359 22.5107V22.72C5.68359 23.3791 6.22005 23.9152 6.87873 23.9152H7.95468C8.61377 23.9152 9.15023 23.3791 9.15023 22.72V22.5107C9.15023 21.8516 8.61377 21.3152 7.95509 21.3152ZM8.28359 22.72C8.28359 22.9012 8.13628 23.0485 7.95514 23.0485H6.87914C6.69759 23.0485 6.55023 22.9012 6.55023 22.72V22.5107C6.55023 22.3292 6.69754 22.1818 6.87914 22.1818H7.95468C8.13628 22.1818 8.28359 22.3291 8.28359 22.5107V22.72V22.72Z"/>
</mask>
<path d="M7.95509 20.3152H6.87914V22.3152H7.95509V20.3152ZM6.87914 20.3152C5.66776 20.3152 4.68359 21.2994 4.68359 22.5107H6.68359C6.68359 22.4039 6.77233 22.3152 6.87914 22.3152V20.3152ZM4.68359 22.5107V22.72H6.68359V22.5107H4.68359ZM4.68359 22.72C4.68359 23.9316 5.66798 24.9152 6.87873 24.9152V22.9152C6.77211 22.9152 6.68359 22.8266 6.68359 22.72H4.68359ZM6.87873 24.9152H7.95468V22.9152H6.87873V24.9152ZM7.95468 24.9152C9.16561 24.9152 10.1502 23.9319 10.1502 22.72H8.15023C8.15023 22.8264 8.06193 22.9152 7.95468 22.9152V24.9152ZM10.1502 22.72V22.5107H8.15023V22.72H10.1502ZM10.1502 22.5107C10.1502 21.2996 9.16628 20.3152 7.95509 20.3152V22.3152C8.06127 22.3152 8.15023 22.4037 8.15023 22.5107H10.1502ZM7.28359 22.72C7.28359 22.3489 7.58399 22.0485 7.95514 22.0485V24.0485C8.68857 24.0485 9.28359 23.4535 9.28359 22.72H7.28359ZM7.95514 22.0485H6.87914V24.0485H7.95514V22.0485ZM6.87914 22.0485C7.24887 22.0485 7.55023 22.3479 7.55023 22.72H5.55023C5.55023 23.4545 6.14631 24.0485 6.87914 24.0485V22.0485ZM7.55023 22.72V22.5107H5.55023V22.72H7.55023ZM7.55023 22.5107C7.55023 22.8814 7.24993 23.1818 6.87914 23.1818V21.1818C6.14516 21.1818 5.55023 21.777 5.55023 22.5107H7.55023ZM6.87914 23.1818H7.95468V21.1818H6.87914V23.1818ZM7.95468 23.1818C7.58399 23.1818 7.28359 22.8814 7.28359 22.5107H9.28359C9.28359 21.7769 8.68857 21.1818 7.95468 21.1818V23.1818ZM7.28359 22.5107V22.72H9.28359V22.5107H7.28359Z" fill="#AD1E23" mask="url(#path-2-inside-1)"/>
<path d="M1.25151 5.95264H13.9561M0.956055 20.1345H13.9561" stroke="#AD1E23"/>
<path d="M11.9561 1.22534H2.95605C1.85149 1.22534 0.956055 2.12077 0.956055 3.22534V17.3382V22.8617C0.956055 23.9663 1.85149 24.8617 2.95605 24.8617H11.9561C13.0606 24.8617 13.9561 23.9663 13.9561 22.8617V3.22534C13.9561 2.12077 13.0606 1.22534 11.9561 1.22534Z" stroke="#AD1E23"/>
</svg>
