<svg width="11" height="11" viewBox="0 0 11 11" fill="none" xmlns="http://www.w3.org/2000/svg">
<path d="M0 2.30435V0.804348C0 0.564198 0.234487 0.369565 0.52381 0.369565C0.813132 0.369565 1.04762 0.564198 1.04762 0.804348V1.88502C1.45807 1.41576 1.9737 1.01316 2.56994 0.701087C3.4463 0.242442 4.45944 0 5.5 0C8.53267 0 11 2.04798 11 4.56522C11 4.80537 10.7655 5 10.4762 5C10.1869 5 9.95238 4.80537 9.95238 4.56522C9.95238 2.52743 7.95505 0.869565 5.5 0.869565C3.98648 0.869565 2.60902 1.49278 1.78934 2.52174H3.11667C3.40599 2.52174 3.64048 2.71637 3.64048 2.95652C3.64048 3.19667 3.40599 3.3913 3.11667 3.3913H1.30952C0.587444 3.3913 0 2.9037 0 2.30435Z" fill="#F37E20"/>
<path d="M11 8.23478L11 10.0348C11 10.323 10.7655 10.5565 10.4762 10.5565C10.1869 10.5565 9.95238 10.323 9.95238 10.0348L9.95238 8.73798C9.54193 9.30109 9.0263 9.78421 8.43006 10.1587C7.5537 10.7091 6.54056 11 5.5 11C2.46733 11 -7.38826e-07 8.54242 -4.74749e-07 5.52174C-4.49556e-07 5.23356 0.234486 5 0.523809 5C0.813132 5 1.04762 5.23356 1.04762 5.52174C1.04762 7.96709 3.04495 9.95652 5.5 9.95652C7.01352 9.95652 8.39098 9.20866 9.21066 7.97391L7.88333 7.97391C7.59401 7.97391 7.35952 7.74035 7.35952 7.45217C7.35952 7.16399 7.59401 6.93043 7.88333 6.93043L9.69048 6.93044C10.4126 6.93044 11 7.51556 11 8.23478Z" fill="#F37E20"/>
</svg>
