<svg width="51" height="48" viewBox="0 0 51 48" fill="none" xmlns="http://www.w3.org/2000/svg">
<path d="M24.5489 2.16312C24.8483 1.24181 26.1517 1.24181 26.4511 2.16312L30.9476 16.002C31.3492 17.2381 32.5011 18.075 33.8008 18.075H48.3519C49.3206 18.075 49.7234 19.3146 48.9396 19.884L37.1676 28.4369C36.1161 29.2008 35.6761 30.555 36.0777 31.791L40.5743 45.6299C40.8736 46.5512 39.8192 47.3174 39.0354 46.748L27.2634 38.195C26.2119 37.4311 24.7881 37.4311 23.7366 38.195L11.9646 46.748C11.1808 47.3174 10.1264 46.5512 10.4257 45.6299L14.9223 31.791C15.3239 30.555 14.8839 29.2009 13.8324 28.4369L2.06036 19.884C1.27664 19.3146 1.67942 18.075 2.64814 18.075H17.1992C18.4989 18.075 19.6508 17.2381 20.0524 16.002L24.5489 2.16312Z" stroke="#F37E20" stroke-width="2"/>
</svg>
