<svg width="14" height="24" viewBox="0 0 14 24" fill="none" xmlns="http://www.w3.org/2000/svg">
<path d="M12.544 0.118652H1.75202C0.940007 0.118652 0.285156 0.744474 0.285156 1.52049V21.6562C0.285156 22.4322 0.940007 23.058 1.75202 23.058H12.5178C13.3298 23.058 13.9846 22.4322 13.9846 21.6562V1.52049C14.0108 0.744474 13.3298 0.118652 12.544 0.118652ZM5.65493 1.82089H8.61485C8.8506 1.82089 9.06015 1.99612 9.06015 2.24644C9.06015 2.47174 8.87679 2.672 8.61485 2.672H5.65493C5.41918 2.672 5.20963 2.49677 5.20963 2.24644C5.23582 2.02115 5.41918 1.82089 5.65493 1.82089ZM7.14799 21.5811C6.44075 21.5811 5.86448 21.0304 5.86448 20.3545C5.86448 19.6786 6.44075 19.1279 7.14799 19.1279C7.85522 19.1279 8.43149 19.6786 8.43149 20.3545C8.43149 21.0304 7.85522 21.5811 7.14799 21.5811ZM11.8105 17.6259H2.48545V4.3492H11.8105V17.6259Z" fill="#4B4B4B"/>
</svg>
