<svg width="17" height="20" viewBox="0 0 17 20" fill="none" xmlns="http://www.w3.org/2000/svg">
<path d="M3.30127e-07 11.2717C-0.000460114 12.9242 0.480741 14.5409 1.38473 15.9241C2.28871 17.3074 3.57629 18.3971 5.08991 19.0601C6.60353 19.723 8.27757 19.9304 9.9072 19.6568C11.5368 19.3832 13.0514 18.6406 14.2656 17.5198C15.4798 16.3989 16.3409 14.9485 16.7437 13.3459C17.1464 11.7433 17.0733 10.058 16.5333 8.4963C15.9933 6.9346 15.0098 5.56416 13.7031 4.55266C12.3964 3.54116 10.8232 2.93246 9.17603 2.80103V1.35207H11.2289V0H5.77108V1.35207H7.82397V2.80329C5.69499 2.97524 3.70854 3.94159 2.2591 5.51042C0.809663 7.07926 0.00324898 9.13583 3.30127e-07 11.2717ZM15.6479 11.2717C15.6479 12.6855 15.2287 14.0674 14.4433 15.2429C13.6579 16.4184 12.5415 17.3346 11.2354 17.8756C9.92928 18.4166 8.49207 18.5581 7.10551 18.2823C5.71894 18.0065 4.44531 17.3257 3.44565 16.3261C2.44599 15.3264 1.76522 14.0528 1.48941 12.6662C1.21361 11.2797 1.35516 9.84246 1.89617 8.53634C2.43718 7.23023 3.35335 6.11387 4.52882 5.32845C5.70429 4.54303 7.08627 4.12381 8.5 4.12381C10.395 4.12619 12.2117 4.88004 13.5517 6.22002C14.8917 7.56 15.6455 9.37672 15.6479 11.2717Z" fill="#AD1E23"/>
<path d="M7.34619 6.79834V12.4725L12.0852 12.4635L12.0807 11.1114L8.69826 11.1182V6.79834H7.34619Z" fill="#AD1E23"/>
</svg>
