<svg width="37" height="36" viewBox="0 0 37 36" fill="none" xmlns="http://www.w3.org/2000/svg">
<ellipse cx="18.0625" cy="17.9107" rx="18.0625" ry="17.9107" fill="#FDDBC0"/>
<path d="M24.5 24.11H11.5C11.3674 24.11 11.2402 24.0573 11.1464 23.9635C11.0527 23.8698 11 23.7426 11 23.61C11.0026 22.0447 11.6256 20.5443 12.7325 19.4374C13.8393 18.3306 15.3397 17.7076 16.905 17.705H19.09C20.6562 17.7063 22.1579 18.3287 23.2658 19.4357C24.3737 20.5427 24.9974 22.0438 25 23.61C25 23.7426 24.9473 23.8698 24.8536 23.9635C24.7598 24.0573 24.6326 24.11 24.5 24.11ZM12.025 23.11H23.975C23.8491 21.9028 23.2809 20.7848 22.3799 19.9715C21.4789 19.1582 20.3088 18.7071 19.095 18.705H16.905C15.6912 18.7071 14.5211 19.1582 13.6201 19.9715C12.7191 20.7848 12.1509 21.9028 12.025 23.11Z" fill="#F37E20"/>
<path d="M18 17.5C17.3572 17.5 16.7289 17.3094 16.1944 16.9523C15.6599 16.5952 15.2434 16.0876 14.9974 15.4937C14.7514 14.8999 14.687 14.2464 14.8124 13.616C14.9379 12.9855 15.2474 12.4064 15.7019 11.9519C16.1564 11.4974 16.7355 11.1879 17.366 11.0624C17.9964 10.937 18.6499 11.0014 19.2437 11.2474C19.8376 11.4934 20.3452 11.9099 20.7023 12.4444C21.0594 12.9789 21.25 13.6072 21.25 14.25C21.2487 15.1115 20.9058 15.9374 20.2966 16.5466C19.6874 17.1558 18.8615 17.4987 18 17.5ZM18 12C17.555 12 17.12 12.132 16.75 12.3792C16.38 12.6264 16.0916 12.9778 15.9213 13.389C15.751 13.8001 15.7064 14.2525 15.7932 14.689C15.8801 15.1254 16.0943 15.5263 16.409 15.841C16.7237 16.1557 17.1246 16.37 17.561 16.4568C17.9975 16.5436 18.4499 16.499 18.861 16.3287C19.2722 16.1584 19.6236 15.87 19.8708 15.5C20.118 15.13 20.25 14.695 20.25 14.25C20.25 13.9545 20.1918 13.6619 20.0787 13.389C19.9657 13.116 19.7999 12.8679 19.591 12.659C19.3821 12.4501 19.134 12.2843 18.861 12.1713C18.5881 12.0582 18.2955 12 18 12Z" fill="#F37E20"/>
</svg>
