<svg width="18" height="19" viewBox="0 0 18 19" fill="none" xmlns="http://www.w3.org/2000/svg">
<path d="M1 18C1.01954 16.9751 1.2326 15.9635 1.62766 15.0199C2.0298 14.0561 2.61215 13.1805 3.34255 12.4412C4.0766 11.6946 4.93191 11.1098 5.88511 10.702C5.89362 10.6976 5.90213 10.6955 5.91064 10.6912C4.58511 9.71795 3.7234 8.1362 3.7234 6.35161C3.7234 3.39528 6.08511 1 9 1C11.9149 1 14.2766 3.39528 14.2766 6.35161C14.2766 8.1362 13.4149 9.71795 12.0894 10.689C12.0979 10.6933 12.1064 10.6955 12.1149 10.6998C13.0652 11.1077 13.9286 11.6983 14.6574 12.4391C15.3885 13.1777 15.971 14.0536 16.3723 15.0178C16.7681 15.9651 16.9787 16.9685 17 18" stroke="#F37E20" stroke-width="1.5"/>
</svg>
