<svg width="25" height="25" viewBox="0 0 25 25" fill="none" xmlns="http://www.w3.org/2000/svg">
<path d="M12.2192 1H12.2136C6.02916 1 1 6.03056 1 12.2164C1 14.67 1.79076 16.9441 3.13532 18.7906L1.73748 22.9575L6.04879 21.5793C7.82238 22.7542 9.93807 23.4328 12.2192 23.4328C18.4037 23.4328 23.4328 18.4009 23.4328 12.2164C23.4328 6.03196 18.4037 1 12.2192 1Z" fill="#4CAF50" stroke="white" stroke-width="2"/>
<path d="M18.6589 16.9433C18.3923 17.7189 17.3344 18.3621 16.4905 18.55C15.9131 18.6766 15.159 18.7776 12.6204 17.6933C9.37322 16.3072 7.28211 12.9076 7.11913 12.687C6.96306 12.4664 5.80701 10.8869 5.80701 9.2532C5.80701 7.61954 6.61224 6.82406 6.93681 6.48253C7.20338 6.20219 7.64398 6.07411 8.06662 6.07411C8.20336 6.07411 8.32628 6.08123 8.43678 6.08692C8.76136 6.10115 8.92434 6.12107 9.13842 6.64902C9.40499 7.31074 10.0541 8.9444 10.1315 9.11231C10.2102 9.28023 10.2889 9.50792 10.1785 9.72849C10.0749 9.95618 9.9837 10.0572 9.82072 10.2508C9.65775 10.4443 9.50305 10.5923 9.34007 10.8C9.19091 10.9808 9.0224 11.1743 9.21024 11.5087C9.39808 11.836 10.0472 12.9275 11.003 13.8041C12.2364 14.9354 13.2364 15.2969 13.5941 15.4506C13.8607 15.5644 14.1784 15.5374 14.3731 15.3239C14.6203 15.0493 14.9256 14.5939 15.2363 14.1456C15.4573 13.824 15.7363 13.7842 16.0291 13.898C16.3275 14.0047 17.9062 14.8088 18.2307 14.9753C18.5553 15.1432 18.7694 15.2229 18.8481 15.3638C18.9255 15.5046 18.9255 16.1664 18.6589 16.9433Z" fill="#FAFAFA"/>
</svg>
