<svg width="22" height="22" viewBox="0 0 22 22" fill="none" xmlns="http://www.w3.org/2000/svg">
<path d="M11.0025 1H10.9975C5.48375 1 1 5.485 1 11C1 13.1875 1.705 15.215 2.90375 16.8613L1.6575 20.5763L5.50125 19.3475C7.0825 20.395 8.96875 21 11.0025 21C16.5162 21 21 16.5137 21 11C21 5.48625 16.5162 1 11.0025 1Z" stroke="white"/>
<path d="M16.169 14.7929C15.9551 15.4152 15.1062 15.9313 14.429 16.0821C13.9658 16.1837 13.3607 16.2648 11.3237 15.3947C8.7182 14.2825 7.04031 11.5546 6.90953 11.3777C6.7843 11.2007 5.85669 9.93323 5.85669 8.62239C5.85669 7.31155 6.5028 6.67326 6.76324 6.39921C6.97714 6.17427 7.33067 6.0715 7.6698 6.0715C7.77951 6.0715 7.87815 6.07721 7.96681 6.08178C8.22725 6.0932 8.35802 6.10918 8.5298 6.53281C8.7437 7.06377 9.26458 8.37461 9.32664 8.50934C9.38981 8.64408 9.45298 8.82678 9.36432 9.00376C9.2812 9.18646 9.20805 9.26753 9.07728 9.42282C8.94651 9.57811 8.82238 9.69686 8.69161 9.86357C8.57192 10.0086 8.43671 10.1639 8.58743 10.4322C8.73815 10.6948 9.25903 11.5706 10.0259 12.274C11.0156 13.1818 11.818 13.4718 12.105 13.5951C12.3189 13.6865 12.5738 13.6648 12.7301 13.4935C12.9285 13.2731 13.1734 12.9077 13.4228 12.5481C13.6001 12.29 13.8239 12.258 14.0589 12.3494C14.2983 12.435 15.565 13.0802 15.8254 13.2137C16.0859 13.3485 16.2577 13.4124 16.3208 13.5255C16.3829 13.6385 16.3829 14.1695 16.169 14.7929Z" stroke="white"/>
</svg>
