<svg width="48" height="44" viewBox="0 0 48 44" fill="none" xmlns="http://www.w3.org/2000/svg">
<path d="M46.9149 14.3843C47.041 14.0149 46.8955 13.6191 46.546 13.3992L24.6379 1.16491C24.3078 0.945029 23.8613 0.945029 23.5216 1.16491L1.6134 13.3992C1.26397 13.6191 1.11834 14.0149 1.24454 14.3843C1.38045 14.745 1.74931 15 2.17641 15H45.9927C46.4101 15 46.7887 14.745 46.9149 14.3843Z" stroke="#BAA173" stroke-width="1.7115"/>
<path d="M3 38.8913V42.1087C3 42.6078 3.385 43 3.875 43H44.125C44.6062 43 45 42.6078 45 42.1087V38.8913C45 38.401 44.6062 38 44.125 38H3.875C3.385 38 3 38.401 3 38.8913Z" stroke="#BAA173" stroke-width="1.7115"/>
<path d="M18 18V20.7076C18 21.1482 17.6493 21.5087 17.2028 21.5087H17.0514V33.2844H17.2028C17.6493 33.2844 18 33.6449 18 34.0854V36M9 18V20.7076C9 21.1482 9.35873 21.5087 9.79717 21.5087H9.95661V33.2844H9.79717C9.35873 33.2844 9 33.6449 9 34.0854V36" stroke="#BAA173" stroke-width="1.7115"/>
<path d="M39 18V20.7076C39 21.1482 38.6493 21.5087 38.2028 21.5087H38.0514V33.2844H38.2028C38.6493 33.2844 39 33.6449 39 34.0854V36M30 18V20.7076C30 21.1482 30.3587 21.5087 30.7972 21.5087H30.9566V33.2844H30.7972C30.3587 33.2844 30 33.6449 30 34.0854V36" stroke="#BAA173" stroke-width="1.7115"/>
</svg>
