<svg width="59" height="53" viewBox="0 0 59 53" fill="none" xmlns="http://www.w3.org/2000/svg">
<path d="M32.9488 27.1811C33.3078 27.1811 33.6069 27.0016 33.8462 26.7623C34.0855 26.523 34.1453 26.1641 34.0257 25.8051L33.3078 22.754C33.248 22.5746 33.3078 22.3353 33.4873 22.2156L35.8803 20.1815C36.2392 19.8824 36.3589 19.4038 36.2392 18.985C36.1196 18.5663 35.7008 18.2671 35.282 18.2073L32.1113 17.968C31.9318 17.968 31.7523 17.8484 31.6925 17.6689L30.496 14.7374C30.3165 14.3187 29.8977 14.0195 29.479 14.0195C29.0004 14.0195 28.6414 14.2588 28.4619 14.7374L27.2654 17.6689C27.2056 17.8484 27.0261 17.968 26.8467 17.968L23.6759 18.2073C23.1973 18.2671 22.8383 18.5663 22.7187 18.985C22.599 19.4038 22.7187 19.8824 23.0777 20.1815L25.4707 22.2156C25.5903 22.3353 25.71 22.5147 25.6501 22.754L24.9322 25.8051C24.8724 26.1641 24.9322 26.4632 25.1117 26.7623C25.351 27.0615 25.6501 27.1811 26.0091 27.1811C26.1886 27.1811 26.4279 27.1213 26.6073 27.0016L29.2995 25.3265C29.3593 25.2667 29.479 25.2667 29.5986 25.2667C29.7183 25.2667 29.7781 25.2667 29.8977 25.3265L32.5899 27.0016C32.5899 27.1213 32.7694 27.1811 32.9488 27.1811Z" stroke="#BAA173" stroke-width="1.7115" stroke-linecap="round" stroke-linejoin="round"/>
<path d="M14.8219 9.35173C15.0612 9.53121 15.1808 9.89016 15.0612 10.1893L14.3433 13.2404C14.2236 13.7788 14.6424 14.2574 15.121 14.2574C15.2407 14.2574 15.4201 14.1976 15.5398 14.1378L18.2319 12.4627C18.3516 12.4028 18.5311 12.343 18.6507 12.343C18.7704 12.343 18.9498 12.4028 19.0695 12.4627L21.7616 14.1378C21.8813 14.1976 22.0608 14.2574 22.1804 14.2574C22.659 14.2574 23.1376 13.7788 22.9582 13.2404L22.2402 10.1893C22.1804 9.89016 22.3001 9.59103 22.4795 9.35173L24.8726 7.31767C25.411 6.83907 25.1119 5.94168 24.394 5.88186L21.2232 5.64256C20.9241 5.64256 20.625 5.40326 20.5053 5.16395L19.3088 2.23251C19.1891 1.87356 18.8302 1.75391 18.5311 1.75391C18.2319 1.75391 17.9328 1.93338 17.7533 2.23251L16.5568 5.16395C16.4372 5.46308 16.1979 5.64256 15.8389 5.64256L12.6682 5.88186C11.9503 5.94168 11.6512 6.83907 12.1896 7.31767L14.8219 9.35173Z" stroke="#BAA173" stroke-width="1.7115" stroke-linecap="round" stroke-linejoin="round"/>
<path d="M36.2394 10.31C36.4787 10.4895 36.5983 10.8484 36.4787 11.1476L35.7608 14.1986C35.6411 14.7371 36.0599 15.2157 36.5385 15.2157C36.6581 15.2157 36.8376 15.1559 36.9573 15.096L39.6494 13.4209C39.7691 13.3611 39.9485 13.3013 40.0682 13.3013C40.1878 13.3013 40.3673 13.3611 40.487 13.4209L43.1791 15.096C43.2988 15.1559 43.4782 15.2157 43.5979 15.2157C44.0765 15.2157 44.5551 14.7371 44.3756 14.1986L43.7774 11.0877C43.7175 10.7886 43.8372 10.4895 44.0167 10.2502L46.4097 8.21611C46.9481 7.7375 46.649 6.84012 45.9311 6.7803L42.7603 6.54099C42.4612 6.54099 42.1621 6.30169 42.0424 6.06239L40.8459 3.13095C40.7263 2.77199 40.3673 2.65234 40.0682 2.65234C39.7691 2.65234 39.4699 2.83182 39.2904 3.13095L38.0939 6.06239C37.9743 6.36152 37.735 6.54099 37.376 6.54099L34.2053 6.7803C33.4874 6.84012 33.1883 7.7375 33.7267 8.21611L36.2394 10.31Z" stroke="#BAA173" stroke-width="1.7115" stroke-linecap="round" stroke-linejoin="round"/>
<path d="M55.6228 14.318C54.4861 14.1386 53.1101 14.677 52.5717 16.3521C52.2127 17.4888 51.4948 19.2835 50.418 21.5569C50.8367 22.7534 51.076 24.6678 49.8197 27.0608C49.5804 27.5394 49.2215 28.0779 48.8625 28.6163C47.9053 29.9325 46.5891 31.3683 45.2132 32.8639L44.914 33.2229C44.4354 33.7613 43.6577 33.8809 43.0594 33.522C42.7005 33.2827 42.4612 32.9237 42.4014 32.505C42.3415 32.0862 42.4612 31.6674 42.7603 31.3683L43.1193 31.0093C44.914 29.0351 46.649 27.1805 47.3669 25.8045C48.6232 23.3517 47.7856 21.7364 46.649 21.0783C45.7516 20.5399 44.4354 20.48 43.7773 21.5569C42.6407 23.2918 40.9655 25.1464 39.4101 26.9412C38.2734 28.2573 37.2564 29.4539 36.4786 30.4709C35.7607 31.3683 35.2223 32.146 34.8035 32.8639C33.607 34.8381 32.231 39.3849 31.9917 43.9316C31.8721 46.205 31.8123 48.7775 31.7524 50.5722C31.7524 50.8713 31.8721 51.1705 32.0516 51.35C32.231 51.5893 32.5302 51.6491 32.8293 51.6491H42.2817C42.5808 51.6491 42.8201 51.5294 43.0594 51.35C43.2389 51.1705 43.3586 50.8713 43.3586 50.5722V47.8801C43.3586 47.1023 43.7175 46.3844 44.3756 45.9657C47.5463 43.7521 50.7769 40.9403 52.5717 38.8464C56.2809 34.4792 57.7167 21.5569 57.8961 17.3691C57.8961 15.5145 56.7595 14.4975 55.6228 14.318Z" stroke="#BAA173" stroke-width="1.7115" stroke-linecap="round" stroke-linejoin="round"/>
<path d="M24.035 32.8023C23.6163 32.1442 23.0778 31.3066 22.3599 30.4093C21.5822 29.3922 20.5652 28.1957 19.4285 26.8796C17.873 25.0848 16.2577 23.29 15.0612 21.4953C14.3433 20.4184 13.087 20.4782 12.1896 21.0167C10.9931 21.6748 10.2154 23.29 11.4717 25.7429C12.1896 27.1189 13.8647 28.9735 15.7193 30.9477L16.0783 31.3066C16.3774 31.6058 16.497 32.0245 16.4372 32.4433C16.3774 32.8621 16.1381 33.2211 15.7791 33.4604C15.2407 33.8193 14.4032 33.6997 13.9245 33.1612L13.6254 32.8621C12.2494 31.3665 10.9333 29.9307 9.97607 28.6145C9.5573 28.0162 9.25817 27.5376 9.01887 27.059C7.76253 24.666 8.00183 22.7516 8.42061 21.5551C7.34376 19.2219 6.62585 17.487 6.2669 16.3503C5.72847 14.6752 4.35248 14.0769 3.2158 14.3162C2.07912 14.4957 0.942437 15.5726 1.00226 17.3673C1.18174 21.5551 2.67737 34.5372 6.32672 38.8446C8.12149 40.9385 11.3521 43.6905 14.5228 45.9639C15.1211 46.3826 15.5398 47.1005 15.5398 47.8783V50.5704C15.5398 50.8695 15.6595 51.1089 15.839 51.3482C16.0184 51.5276 16.3176 51.6473 16.6167 51.6473H26.0691C26.3682 51.6473 26.6674 51.5276 26.8468 51.3482C27.0263 51.1089 27.146 50.8695 27.146 50.5704C27.0861 48.7757 27.0263 46.2032 26.9067 43.9298C26.6075 39.3232 25.2315 34.7765 24.035 32.8023Z" stroke="#BAA173" stroke-width="1.7115" stroke-linecap="round" stroke-linejoin="round"/>
</svg>
