<svg width="62" height="30" viewBox="0 0 62 30" fill="none" xmlns="http://www.w3.org/2000/svg">
<path d="M14.4506 1.58579C14.8256 1.21071 15.3344 1 15.8648 1H58.3846C59.4892 1 60.3846 1.89543 60.3846 3V27.0727C60.3846 28.1773 59.4892 29.0727 58.3846 29.0727H15.8648C15.3344 29.0727 14.8256 28.862 14.4506 28.4869L2.41421 16.4506C1.63317 15.6695 1.63317 14.4032 2.41421 13.6221L14.4506 1.58579Z" stroke="#BAA173" stroke-width="1.7115" stroke-linecap="round" stroke-linejoin="round"/>
<circle cx="49.5874" cy="16.1192" r="4.31888" stroke="#BAA173" stroke-width="1.7115" stroke-linecap="round" stroke-linejoin="round"/>
<path d="M23.6056 7.48262C25.9889 7.48262 27.9345 9.42824 27.9345 11.8116C27.9345 14.195 25.9889 16.1405 23.6056 16.1405H22.0977L27.9831 22.999" stroke="#BAA173" stroke-width="1.7115" stroke-linecap="round" stroke-linejoin="round"/>
<path d="M21.5146 7.57132H30.6589" stroke="#BAA173" stroke-width="1.7115" stroke-linecap="round" stroke-linejoin="round"/>
<path d="M21.5146 11.4739H30.6589" stroke="#BAA173" stroke-width="1.7115" stroke-linecap="round" stroke-linejoin="round"/>
</svg>
