<svg width="46" height="50" viewBox="0 0 46 50" fill="none" xmlns="http://www.w3.org/2000/svg">
<path d="M24.1995 26.1129V23.1057C24.1995 22.5534 23.7517 22.1057 23.1995 22.1057H22.778C22.3062 22.1057 21.904 21.7739 21.7661 21.3226C21.5827 20.7224 21.3413 20.1472 21.0491 19.603C20.8257 19.1869 20.8753 18.6674 21.2092 18.3334L21.5116 18.0309C21.902 17.6404 21.9019 17.0073 21.5114 16.6168L20.092 15.1974C19.7015 14.8069 19.0683 14.8069 18.6778 15.1974L18.3759 15.4993C18.0419 15.8333 17.5223 15.883 17.1062 15.6595C16.5622 15.3674 15.9873 15.126 15.3873 14.9426C14.936 14.8047 14.6042 14.4026 14.6042 13.9307V13.5099C14.6042 12.9576 14.1565 12.5099 13.6042 12.5099H11.5958C11.0435 12.5099 10.5958 12.9576 10.5958 13.5099V13.9305C10.5958 14.4021 10.2642 14.8042 9.81315 14.9421C9.21246 15.1258 8.63706 15.3674 8.09253 15.6597C7.6765 15.8831 7.15703 15.8334 6.82313 15.4995L6.52157 15.1979C6.13107 14.8075 5.49796 14.8074 5.10743 15.1979L3.68759 16.6174C3.29704 17.0079 3.29695 17.641 3.68738 18.0316L3.98971 18.334C4.32357 18.668 4.37314 19.1875 4.14976 19.6036C3.85763 20.1477 3.61634 20.7228 3.43288 21.3231C3.29501 21.7742 2.89293 22.1057 2.42128 22.1057H2C1.44772 22.1057 1 22.5534 1 23.1057V25.1135C1 25.6658 1.44772 26.1135 2 26.1135H2.42119C2.89288 26.1135 3.29498 26.4451 3.43288 26.8962C3.61651 27.4969 3.85809 28.0723 4.15047 28.6168C4.37385 29.0328 4.32415 29.5523 3.99025 29.8862L3.68772 30.1887C3.29714 30.5793 3.2972 31.2126 3.68787 31.6031L5.10743 33.022C5.49797 33.4124 6.13103 33.4124 6.52149 33.0219L6.82382 32.7196C7.15768 32.3857 7.67707 32.336 8.09309 32.5593C8.63712 32.8513 9.21207 33.0926 9.81219 33.276C10.2634 33.4138 10.5952 33.816 10.5952 34.2879V34.7099C10.5952 35.2622 11.0429 35.7099 11.5952 35.7099H13.6031C14.1553 35.7099 14.6031 35.2622 14.6031 34.7099V34.288C14.6031 33.8164 14.9346 33.4143 15.3856 33.2765C15.986 33.093 16.5612 32.8518 17.1054 32.5597C17.5216 32.3363 18.0413 32.386 18.3753 32.72L19.3843 33.7294M12.6 28.9143C9.95129 28.9143 7.79618 26.7592 7.79618 24.1099C7.79618 21.4611 9.95129 19.306 12.6 19.306C15.2488 19.306 17.4039 21.4611 17.4039 24.1099C17.4039 26.7598 15.2488 28.9143 12.6 28.9143Z" stroke="#BAA173" stroke-width="1.7115"/>
<path d="M21 14.6037V11.5964C21 11.0441 21.4477 10.5964 22 10.5964H22.4212C22.8929 10.5964 23.295 10.2648 23.4328 9.81372C23.6163 9.21329 23.8575 8.63817 24.1496 8.09402C24.373 7.67782 24.3234 7.15812 23.9893 6.82415L23.6873 6.52231C23.2966 6.13178 23.2966 5.49845 23.6873 5.10789L25.1076 3.68788C25.498 3.29748 26.131 3.29745 26.5216 3.68782L26.8236 3.98971C27.1576 4.32357 27.6771 4.37314 28.0932 4.1498C28.6375 3.85763 29.2128 3.61633 29.8132 3.43285C30.2643 3.29502 30.5958 2.89293 30.5958 2.42127V2C30.5958 1.44772 31.0435 1 31.5958 1H33.6043C34.1565 1 34.6043 1.44772 34.6043 2V2.42087C34.6043 2.89271 34.936 3.29488 35.3873 3.43277C35.9873 3.61613 36.5622 3.85749 37.1062 4.14963C37.5223 4.3731 38.0419 4.32347 38.3759 3.98949L38.6778 3.68757C39.0683 3.29705 39.7015 3.29705 40.092 3.68757L41.5119 5.10743C41.9024 5.49795 41.9024 6.13112 41.5119 6.52164L41.21 6.82356C40.876 7.15754 40.8264 7.67715 41.0498 8.09329C41.3419 8.63754 41.5832 9.21279 41.7667 9.81334C41.9045 10.2644 42.3065 10.5959 42.7781 10.596L43.2003 10.5961C43.7525 10.5963 44.2001 11.0439 44.2001 11.5961V13.6036C44.2001 14.1557 43.7527 14.6033 43.2006 14.6036L42.7778 14.6038C42.3063 14.6041 41.9045 14.9356 41.7668 15.3865C41.5832 15.9874 41.3418 16.5629 41.0494 17.1076C40.8262 17.5236 40.8758 18.043 41.2096 18.3769L41.5115 18.6789C41.9019 19.0695 41.9018 19.7026 41.5113 20.0931L40.0919 21.5122C39.7014 21.9026 39.0684 21.9026 38.6779 21.5122L38.3756 21.2101C38.0418 20.8763 37.5225 20.8267 37.1065 21.0499C36.5623 21.3419 35.987 21.5833 35.3867 21.7667C34.9354 21.9046 34.6037 22.3067 34.6037 22.7786V23.1995C34.6037 23.7517 34.1559 24.1995 33.6037 24.1995H31.5964C31.0441 24.1995 30.5964 23.7517 30.5964 23.1995V22.7786C30.5964 22.3067 30.2646 21.9046 29.8134 21.7667C29.213 21.5833 28.6377 21.3419 28.0934 21.0498C27.6775 20.8266 27.1583 20.8762 26.8244 21.2099L25.8151 22.2184M32.6 17.4033C29.9513 17.4033 27.7962 15.2482 27.7962 12.5994C27.7962 9.9507 29.9513 7.79559 32.6 7.79559C35.2488 7.79559 37.4039 9.9507 37.4039 12.5994C37.4039 15.2482 35.2488 17.4033 32.6 17.4033Z" stroke="#BAA173" stroke-width="1.7115"/>
<path d="M33.3645 27.2534C34.2503 27.4429 35.0899 27.7562 35.8664 28.1731C36.2826 28.3965 36.8022 28.3469 37.1362 28.0129L37.4381 27.7109C37.8286 27.3205 38.4617 27.3204 38.8523 27.7109L40.272 29.1303C40.6626 29.5208 40.6626 30.154 40.2721 30.5446L39.9698 30.8468C39.636 31.1806 39.5862 31.6999 39.8094 32.1158C40.1016 32.6603 40.3431 33.2356 40.5268 33.8361C40.6647 34.2871 41.0668 34.6187 41.5384 34.6187H41.9597C42.512 34.6187 42.9597 35.0664 42.9597 35.6187V37.6261C42.9597 38.1781 42.5125 38.6257 41.9605 38.6261L41.5372 38.6265C41.0658 38.6268 40.6642 38.9583 40.5265 39.409C40.343 40.0097 40.1016 40.5852 39.8093 41.1297C39.586 41.5458 39.6355 42.0654 39.9694 42.3993L40.2712 42.7013C40.6616 43.0918 40.6616 43.7249 40.2711 44.1154L38.8518 45.5346C38.4612 45.9252 37.828 45.9251 37.4375 45.5345L37.136 45.2329C36.8021 44.8989 36.2825 44.8491 35.8664 45.0725C35.322 45.3649 34.7466 45.6064 34.146 45.79C33.6949 45.9279 33.3633 46.33 33.3633 46.8017V47.2223C33.3633 47.7746 32.9156 48.2223 32.3633 48.2223H30.3561C29.8038 48.2223 29.3561 47.7746 29.3561 47.2223V46.8016C29.3561 46.33 29.0245 45.9279 28.5735 45.79C27.9731 45.6064 27.3978 45.3649 26.8535 45.0727C26.4374 44.8492 25.9178 44.8988 25.5838 45.2328L25.2819 45.5347C24.8914 45.9253 24.2582 45.9253 23.8677 45.5347L22.4484 44.1154C22.0576 43.7247 22.0579 43.0911 22.4489 42.7007L22.75 42.4C23.0844 42.0661 23.1343 41.546 22.9107 41.1296C22.6182 40.585 22.3767 40.0093 22.1931 39.4086C22.0552 38.9575 21.6531 38.6259 21.1814 38.6259H20.7603C20.208 38.6259 19.7603 38.1782 19.7603 37.6259V35.6187C19.7603 35.0664 20.208 34.6187 20.7603 34.6187H21.1815C21.6532 34.6187 22.0553 34.2871 22.1931 33.8361C22.3766 33.2358 22.6179 32.6607 22.91 32.1166C23.1334 31.7005 23.0838 31.181 22.75 30.847L22.4476 30.5446C22.0572 30.154 22.0573 29.5209 22.4478 29.1304L23.8677 27.7109C24.2582 27.3204 24.8913 27.3205 25.2818 27.7109L25.5834 28.0125C25.9173 28.3464 26.4368 28.3961 26.8528 28.1728C27.3973 27.8805 27.9727 27.6392 28.5734 27.4557C29.0245 27.3178 29.3561 26.9157 29.3561 26.444V25.0223M31.3603 41.4267C28.7115 41.4267 26.5564 39.2716 26.5564 36.6223C26.5564 33.9736 28.7115 31.819 31.3603 31.819C34.009 31.819 36.1641 33.9736 36.1641 36.6223C36.1641 39.2716 34.009 41.4267 31.3603 41.4267Z" stroke="#BAA173" stroke-width="1.7115"/>
</svg>
