<svg width="66" height="48" viewBox="0 0 66 48" fill="none" xmlns="http://www.w3.org/2000/svg">
<path d="M8.65283 35.6031C8.65283 23.6229 17.305 13.6647 28.7007 11.6339C29.3436 11.5194 29.9145 11.1303 30.1877 10.5372C30.7447 9.328 31.2933 7.8539 31.5694 6.30814C31.671 5.73963 31.2155 5.24352 30.638 5.24352V5.24352C29.584 5.24352 28.7296 4.38819 28.7296 3.33422C28.7296 2.28111 29.584 1.42578 30.638 1.42578H35.3607C36.4147 1.42578 37.2692 2.28111 37.2692 3.33422C37.2692 4.38819 36.4147 5.24352 35.3607 5.24352V5.24352C34.7832 5.24352 34.3278 5.73963 34.4293 6.30814C34.7055 7.85377 35.2541 9.32755 35.8111 10.537C36.0843 11.1302 36.6553 11.5194 37.2982 11.634C48.6947 13.6656 57.3468 23.6237 57.3468 35.6031" stroke="#BAA173" stroke-width="1.7115"/>
<path d="M63.6827 41.162C63.0183 41.162 62.4813 40.6521 62.2248 40.0392C61.1827 37.5485 58.0152 37.0041 57.4209 36.923C57.3551 36.914 57.291 36.911 57.2245 36.911H34.6524H31.3467H8.77465C8.70817 36.911 8.6441 36.914 8.57823 36.923C7.98393 37.0041 4.81564 37.5484 3.774 40.0394C3.51774 40.6522 2.98095 41.162 2.31672 41.162V41.162C1.58951 41.162 1 41.7515 1 42.4787V44.24C1 45.3446 1.89543 46.24 3 46.24H63C64.1046 46.24 65 45.3446 65 44.24V42.4793C65 41.7518 64.4102 41.162 63.6827 41.162V41.162Z" stroke="#BAA173" stroke-width="1.7115"/>
</svg>
