<svg width="47" height="46" viewBox="0 0 47 46" fill="none" xmlns="http://www.w3.org/2000/svg">
<path d="M45.848 18.4019L18.1801 38.5792C17.4626 39.1025 16.4859 39.0899 15.782 38.5483L1.15154 27.2908M46 23.6336L18.3322 43.8099C17.6146 44.3332 16.6379 44.3206 15.9341 43.779L1.30358 32.5205M18.6455 21.4136C20.9601 24.0142 24.7764 24.383 27.1675 22.2372C29.5591 20.0909 29.6205 16.2444 27.3049 13.6438C24.9887 11.0432 21.173 10.6749 18.7814 12.8202C16.3913 14.9655 16.3299 18.814 18.6455 21.4136ZM18.0291 33.35L43.5401 14.7452C44.6181 13.959 44.6387 12.3579 43.5813 11.5442L31.0665 1.91382C30.3626 1.37218 29.3859 1.3596 28.6683 1.88293L3.15691 20.4881C2.07893 21.2743 2.05833 22.8755 3.11573 23.6891L15.631 33.3191C16.3349 33.8607 17.3116 33.8733 18.0291 33.35Z" stroke="#BAA173" stroke-width="1.7115"/>
</svg>
