<svg width="48" height="49" viewBox="0 0 48 49" fill="none" xmlns="http://www.w3.org/2000/svg">
<path d="M16.5 47.5C9 47 1 43.7816 1 39.6104C1 39.6104 1.94179 34.5642 3.07673 33.4082C5.28831 31.1582 10.3544 28.5545 15.647 26.9929M32.353 26.9929C37.6471 28.5551 42.7132 31.1582 44.9238 33.4082C46.0629 34.5642 47.0042 39.6104 47 39.6104C47 43.7821 42 47.5 31.5 47.9263M20.9177 30.418L22 34L20 47.9263C20.948 47.9724 23.0231 48 24.0034 48C24.9816 48 27.054 47.9692 28 47.9263L26 34L27.0901 30.4137M23.9997 28.5938C30.4106 28.5938 35.6074 20.263 35.6074 13.4123C35.6074 6.55789 30.4111 1 23.9997 1C17.5894 1 12.3921 6.55736 12.3921 13.4123C12.3921 20.263 17.5894 28.5938 23.9997 28.5938Z" stroke="#BAA173" stroke-width="1.7115"/>
</svg>
