<svg width="55" height="25" viewBox="0 0 55 25" fill="none" xmlns="http://www.w3.org/2000/svg">
<path d="M12.3343 1.52931C12.7036 1.18895 13.1875 1 13.6897 1H51.223C52.3276 1 53.223 1.89543 53.223 3V22C53.223 23.1046 52.3276 24 51.223 24H13.6897C13.1875 24 12.7036 23.811 12.3343 23.4707L2.02621 13.9707C1.16673 13.1786 1.16673 11.8214 2.02621 11.0293L12.3343 1.52931Z" stroke="#BAA173" stroke-width="1.7115"/>
<ellipse cx="42.9878" cy="12.5" rx="3.7709" ry="3.5" stroke="#BAA173" stroke-width="1.7115"/>
<path d="M20.3007 6.30762C22.4045 6.30762 24.1219 7.90167 24.1219 9.85437C24.1219 11.807 22.4045 13.4011 20.3007 13.4011H18.9696L24.1648 19.0202" stroke="#BAA173" stroke-width="1.5" stroke-miterlimit="10" stroke-linecap="round" stroke-linejoin="round"/>
<path d="M18.4558 6.38574H26.5276" stroke="#BAA173" stroke-width="1.5" stroke-miterlimit="10" stroke-linecap="round" stroke-linejoin="round"/>
<path d="M18.4558 9.57715H26.5276" stroke="#BAA173" stroke-width="1.5" stroke-miterlimit="10" stroke-linecap="round" stroke-linejoin="round"/>
</svg>
