<svg width="46" height="46" viewBox="0 0 46 46" fill="none" xmlns="http://www.w3.org/2000/svg">
<path d="M26.2756 43H36.2C38.3511 43 40.1111 41.2191 40.1111 39.0424V36.5689C40.1111 36.47 40.0622 36.4205 40.0622 36.3216C40.1111 36.2226 40.1111 36.1731 40.1111 36.0742V34.5901H42.0667C43.68 34.5901 45 33.2544 45 31.6219V24.6961C45 23.0636 43.68 21.7279 42.1156 21.7279H40.16V20.2438V18.265C40.16 16.8304 40.0133 15.4452 39.6711 14.1095V14.0601C39.6222 13.9611 39.6222 13.8622 39.5733 13.7633C39.5244 13.6148 39.4756 13.417 39.4267 13.2686C39.4267 13.1696 39.3778 13.1201 39.3778 13.0212C39.3289 12.8233 39.2311 12.6254 39.1822 12.4276C39.1333 12.3781 39.1333 12.3781 39.1333 12.3286C37.1289 6.63958 32.3378 2.53357 26.5689 1.34629C26.52 1.34629 26.52 1.34629 26.4711 1.34629C26.2267 1.29682 26.0311 1.24735 25.7867 1.19788C25.6889 1.14841 25.64 1.14841 25.5422 1.14841C25.3467 1.14841 25.1511 1.09894 24.9556 1.09894C24.9067 1.04947 24.8089 1.04947 24.7111 1.04947C24.5156 1.04947 24.32 1 24.1244 1C24.0267 1 23.9778 1 23.88 1C23.5867 1 23.3422 1 23.0489 1C22.7556 1 22.5111 1 22.2178 1C22.12 1 22.0711 1 21.9733 1C21.7778 1 21.5822 1.04947 21.3867 1.04947C21.3378 1.09894 21.24 1.09894 21.1422 1.09894C20.9467 1.09894 20.7511 1.09894 20.5556 1.14841C20.4578 1.19788 20.4089 1.19788 20.3111 1.19788C20.0667 1.24735 19.8711 1.29682 19.6267 1.34629C19.5778 1.34629 19.5778 1.34629 19.5289 1.34629C13.76 2.53357 8.96889 6.68905 6.91556 12.3286C6.86667 12.3781 6.86667 12.3781 6.86667 12.4276C6.81778 12.6254 6.72 12.8233 6.67111 13.0212C6.67111 13.1201 6.62222 13.1696 6.62222 13.2686C6.57333 13.417 6.52444 13.6148 6.47556 13.7633C6.42667 13.8622 6.42667 13.9611 6.37778 14.0601V14.1095C6.08444 15.4452 5.88889 16.8304 5.88889 18.265V20.2438V21.7279H3.93333C2.32 21.7279 1 23.0636 1 24.6961V31.6219C1 33.2544 2.32 34.5901 3.93333 34.5901H5.88889V36.0742C5.88889 36.6184 6.32889 37.0636 6.86667 37.0636H10.7778C12.3911 37.0636 13.7111 35.7279 13.7111 34.0954V22.2226C13.7111 20.5901 12.3911 19.2544 10.7778 19.2544H5.88889M40.1111 37.0636H35.2222C33.6089 37.0636 32.2889 35.7279 32.2889 34.0954V22.2226C32.2889 20.5901 33.6089 19.2544 35.2222 19.2544H40.16" stroke="#BAA173" stroke-width="1.7115" stroke-linecap="round" stroke-linejoin="round"/>
<circle cx="23.5" cy="42.5" r="2.5" stroke="#BAA173" stroke-width="1.7115" stroke-linecap="round" stroke-linejoin="round"/>
</svg>
