<svg width="24" height="24" viewBox="0 0 24 24" fill="none" xmlns="http://www.w3.org/2000/svg">
<path d="M4.20001 14.7739V9.34436C4.20001 7.18434 5.0218 5.11279 6.48458 3.58543C7.94736 2.05806 9.93132 1.2 12 1.2C14.0687 1.2 16.0527 2.05806 17.5154 3.58543C18.9782 5.11279 19.8 7.18434 19.8 9.34436V12.6144" stroke="#474545" stroke-width="1.2"/>
<path d="M19.8 13.6267C19.8 14.0942 19.6174 14.5426 19.2923 14.8732C18.9673 15.2038 18.5264 15.3895 18.0667 15.3895H17.2C16.7403 15.3895 16.2994 15.2038 15.9744 14.8732C15.6493 14.5426 15.4667 14.0942 15.4667 13.6267V10.9824C15.4667 10.5148 15.6493 10.0665 15.9744 9.73586C16.2994 9.40526 16.7403 9.21953 17.2 9.21953H19.8V13.6267ZM4.20001 13.6267C4.20001 14.0942 4.38263 14.5426 4.70769 14.8732C5.03276 15.2038 5.47364 15.3895 5.93335 15.3895H6.80001C7.25972 15.3895 7.7006 15.2038 8.02566 14.8732C8.35073 14.5426 8.53335 14.0942 8.53335 13.6267V10.9824C8.53335 10.5148 8.35073 10.0665 8.02566 9.73586C7.7006 9.40526 7.25972 9.21953 6.80001 9.21953H4.20001V13.6267Z" stroke="#474545" stroke-width="1.2"/>
<path d="M4.20001 12.3059V16.6249C4.30001 17.9618 5.10001 20.3269 8.10001 20.6354" stroke="#474545" stroke-width="1.2"/>
<rect width="5.25946" height="1.8481" rx="0.924052" transform="matrix(0.969312 0.245835 -0.233223 0.972423 8.23126 19.7117)" stroke="#474545" stroke-width="1.2"/>
</svg>
