<svg width="20" height="51" viewBox="0 0 20 51" fill="none" xmlns="http://www.w3.org/2000/svg">
<path d="M7.40285 11.2672C6.43138 11.3307 5.54823 11.8708 5.41576 12.4744C3.47282 22.6725 1.52989 32.8388 1 43.1004C1 43.6405 1.57405 44.4982 2.28057 45.0066C5.10666 47.008 6.5197 47.9611 8.94837 49.6767C9.56657 50.0897 10.4939 50.1215 11.0679 49.6767C13.4966 47.8976 14.8655 46.8174 17.6474 44.5935C18.3539 44.0535 18.8838 43.1321 18.8838 42.5603C18.3539 32.4893 16.5876 22.4819 14.8213 12.4744C14.733 11.8708 13.8499 11.3307 12.8784 11.2672C10.6264 11.1401 9.65489 11.1401 7.40285 11.2672Z" stroke="#BAA173" stroke-width="1.7115"/>
<path d="M5.28334 10.2147C4.35603 7.3795 3.91445 5.96189 3.42872 3.23858C3.29625 2.64169 3.87029 1.93289 4.66513 1.74636C9.03673 0.739111 11.2005 0.739111 15.5721 1.82097C16.3669 2.0075 16.9409 2.71631 16.8085 3.31319C16.3227 5.99919 15.8812 7.3795 14.9538 10.2147" stroke="#BAA173" stroke-width="1.7115"/>
</svg>
