<svg width="103" height="50" viewBox="0 0 103 50" fill="none" xmlns="http://www.w3.org/2000/svg">
<path d="M51.0511 2.85412C51.3545 1.94145 52.6455 1.94145 52.9489 2.85412L56.7117 14.1716C56.8476 14.5803 57.2299 14.8561 57.6607 14.8561H69.7876C70.7618 14.8561 71.1609 16.1075 70.3665 16.6715L60.5955 23.6092C60.2369 23.8638 60.0867 24.3228 60.2255 24.7401L63.967 35.9935C64.2719 36.9108 63.2273 37.684 62.4391 37.1243L52.5789 30.1233C52.2322 29.8772 51.7678 29.8772 51.4211 30.1233L41.5609 37.1243C40.7727 37.684 39.7281 36.9108 40.033 35.9935L43.7745 24.7401C43.9133 24.3228 43.7631 23.8638 43.4045 23.6092L33.6335 16.6715C32.8391 16.1075 33.2382 14.8561 34.2124 14.8561H46.3393C46.7701 14.8561 47.1524 14.5803 47.2883 14.1716L51.0511 2.85412Z" stroke="#BAA173" stroke-width="1.7115"/>
<path d="M16.0489 18.927C16.3483 18.0057 17.6517 18.0057 17.9511 18.9271L20.5922 27.0557C20.7261 27.4678 21.1101 27.7467 21.5433 27.7467L30.0903 27.7467C31.059 27.7467 31.4618 28.9863 30.6781 29.5557L23.7634 34.5795C23.4129 34.8342 23.2663 35.2855 23.4001 35.6976L26.0413 43.8262C26.3406 44.7475 25.2862 45.5137 24.5025 44.9443L17.5878 39.9205C17.2373 39.6658 16.7627 39.6658 16.4122 39.9205L9.49755 44.9443C8.71383 45.5137 7.65935 44.7475 7.95871 43.8262L10.5999 35.6976C10.7337 35.2855 10.5871 34.8342 10.2366 34.5795L3.32194 29.5557C2.53822 28.9863 2.941 27.7467 3.90972 27.7467L12.4567 27.7467C12.8899 27.7467 13.2739 27.4678 13.4078 27.0557L16.0489 18.927Z" stroke="#BAA173" stroke-width="1.7115"/>
<path d="M85.0489 18.927C85.3483 18.0057 86.6517 18.0057 86.9511 18.9271L89.5922 27.0557C89.7261 27.4678 90.1101 27.7467 90.5433 27.7467L99.0903 27.7467C100.059 27.7467 100.462 28.9863 99.6781 29.5557L92.7634 34.5795C92.4129 34.8342 92.2663 35.2855 92.4001 35.6976L95.0413 43.8262C95.3406 44.7475 94.2862 45.5137 93.5025 44.9443L86.5878 39.9205C86.2373 39.6658 85.7627 39.6658 85.4122 39.9205L78.4975 44.9443C77.7138 45.5137 76.6594 44.7475 76.9587 43.8262L79.5999 35.6976C79.7337 35.2855 79.5871 34.8342 79.2366 34.5795L72.3219 29.5557C71.5382 28.9863 71.941 27.7467 72.9097 27.7467L81.4567 27.7467C81.8899 27.7467 82.2739 27.4678 82.4078 27.0557L85.0489 18.927Z" stroke="#BAA173" stroke-width="1.7115"/>
</svg>
