<svg width="52" height="52" viewBox="0 0 52 52" fill="none" xmlns="http://www.w3.org/2000/svg">
<circle cx="26" cy="26" r="26" fill="#F6F6EE"/>
<path d="M33.2296 30.7113C32.1667 30.1748 30.9386 30.3396 30.0559 31.0183C30.0777 29.905 29.4813 28.8194 28.4179 28.2827C27.3549 27.7461 26.1269 27.9109 25.2442 28.5896C25.266 27.4763 24.6696 26.3907 23.6062 25.854C22.5432 25.3175 21.3152 25.4822 20.4327 26.1611C20.4542 25.0477 19.8579 23.9621 18.7945 23.4253C18.0125 23.0306 17.1417 23.0203 16.3826 23.3079C19.4352 19.3011 24.9331 17.8658 29.495 20.1684C34.0572 22.4711 36.1678 27.7467 34.7566 32.5817C34.5373 31.8005 34.0119 31.1061 33.2296 30.7113Z" stroke="#474545" stroke-linecap="round" stroke-linejoin="round"/>
<path d="M19.2467 32.6735C18.6065 33.9418 19.3122 34.8755 19.9427 35.1938C20.5284 35.4894 21.0185 35.4034 21.3266 35.2792C21.9867 35.013 22.3237 34.3804 22.387 34.2509L25.9453 27.201" stroke="#474545" stroke-linecap="round" stroke-linejoin="round"/>
<path d="M29.972 20.6646L30.6621 19.2972" stroke="#474545" stroke-linecap="round" stroke-linejoin="round"/>
</svg>
