<svg width="43" height="44" viewBox="0 0 43 44" fill="none" xmlns="http://www.w3.org/2000/svg">
<path d="M21.3654 42.5625V35.5099M21.3654 20V35.5099M21.3654 35.5099L25.3846 33.1556M25.3846 33.1556C27.3942 35.1176 32.6191 37.3934 37.4422 30.8013C37.7771 30.0166 39.0498 28.447 41.4613 28.447C44.4757 28.447 28.399 21.3841 25.3846 33.1556Z" stroke="#BAA173" stroke-width="1.7115" stroke-linecap="round" stroke-linejoin="round"/>
<path d="M20.2152 5.75C21.8216 5.75 23.133 6.96719 23.133 8.45824C23.133 9.94926 21.8216 11.1664 20.2152 11.1664H19.1989L23.1658 15.4571" stroke="#BAA173" stroke-miterlimit="10" stroke-linecap="round" stroke-linejoin="round"/>
<path d="M18.8058 5.8125H24.9692" stroke="#BAA173" stroke-miterlimit="10" stroke-linecap="round" stroke-linejoin="round"/>
<path d="M18.8058 8.24512H24.9692" stroke="#BAA173" stroke-miterlimit="10" stroke-linecap="round" stroke-linejoin="round"/>
<path d="M21.3654 29.5L17.3462 27.0594M17.3462 27.0594C15.3366 29.0932 10.1116 31.4524 5.28856 24.6189C4.95363 23.8054 3.68088 22.1783 1.26936 22.1783C-1.74504 22.1783 14.3318 14.8567 17.3462 27.0594Z" stroke="#BAA173" stroke-width="1.7115"/>
<ellipse cx="21.3657" cy="10.5" rx="10.2353" ry="9.5" stroke="#BAA173" stroke-width="1.7115"/>
</svg>
