<svg width="52" height="52" viewBox="0 0 52 52" fill="none" xmlns="http://www.w3.org/2000/svg">
<circle cx="26" cy="26" r="26" fill="#F6F6EE"/>
<path d="M25.8289 37.5001V33.5124M25.8289 24.7429V33.5124M25.8289 33.5124L27.9381 32.1813M27.9381 32.1813C28.9927 33.2906 31.7348 34.5774 34.2659 30.8501C34.4416 30.4064 35.1096 29.519 36.3751 29.519C37.9571 29.519 29.52 25.5255 27.9381 32.1813Z" stroke="#474545" stroke-linecap="round"/>
<path d="M25.2253 16.6875C26.0683 16.6875 26.7565 17.3757 26.7565 18.2188C26.7565 19.0618 26.0683 19.75 25.2253 19.75H24.6919L26.7737 22.176" stroke="#474545" stroke-width="0.8" stroke-miterlimit="10" stroke-linecap="round" stroke-linejoin="round"/>
<path d="M24.4861 16.7197H27.7206" stroke="#474545" stroke-width="0.8" stroke-miterlimit="10" stroke-linecap="round" stroke-linejoin="round"/>
<path d="M24.4861 18.0967H27.7206" stroke="#474545" stroke-width="0.8" stroke-miterlimit="10" stroke-linecap="round" stroke-linejoin="round"/>
<path d="M25.8289 30.1143L23.7196 28.7344M23.7196 28.7344C22.665 29.8844 19.923 31.2183 17.3918 27.3545C17.2161 26.8945 16.5481 25.9746 15.2826 25.9746C13.7007 25.9746 22.1377 21.8348 23.7196 28.7344Z" stroke="#474545" stroke-linecap="round"/>
<circle cx="25.8289" cy="19.3714" r="5.37143" stroke="#474545" stroke-linecap="round"/>
</svg>
