<svg width="17" height="22" viewBox="0 0 17 22" fill="none" xmlns="http://www.w3.org/2000/svg">
<path d="M5.5 9C5.5 9.27614 5.72386 9.5 6 9.5C6.27614 9.5 6.5 9.27614 6.5 9H5.5ZM10.5 9C10.5 9.27614 10.7239 9.5 11 9.5C11.2761 9.5 11.5 9.27614 11.5 9H10.5ZM6.5 9V2.52381H5.5V9H6.5ZM6.5 2.52381C6.5 2.33945 6.55319 2.05929 6.69304 1.84224C6.8155 1.65217 7.00575 1.5 7.36364 1.5V0.5C6.63061 0.5 6.13904 0.855764 5.85242 1.30062C5.58317 1.71849 5.5 2.20023 5.5 2.52381H6.5ZM7.36364 1.5H9.63636V0.5H7.36364V1.5ZM9.63636 1.5C9.77151 1.5 9.99562 1.54984 10.1752 1.69433C10.3333 1.82153 10.5 2.05508 10.5 2.52381H11.5C11.5 1.77349 11.2121 1.24513 10.8021 0.915198C10.4135 0.602546 9.95576 0.5 9.63636 0.5V1.5ZM10.5 2.52381V9H11.5V2.52381H10.5Z" fill="#474545"/>
<path d="M7.96429 6L2.07143 5L1 21H16L14.9286 5L7.96429 6Z" stroke="#474545" stroke-width="1.2"/>
</svg>
