<svg width="52" height="52" viewBox="0 0 52 52" fill="none" xmlns="http://www.w3.org/2000/svg">
<circle cx="26" cy="26" r="26" fill="#F6F6EE"/>
<path d="M16.4142 19.5858C16.7893 19.2107 17.298 19 17.8284 19H36C37.1046 19 38 19.8954 38 21V30C38 31.1046 37.1046 32 36 32H17.8284C17.298 32 16.7893 31.7893 16.4142 31.4142L11.9142 26.9142C11.1332 26.1332 11.1332 24.8668 11.9142 24.0858L16.4142 19.5858Z" stroke="#474545" stroke-width="1.07327" stroke-linecap="round"/>
<circle cx="33" cy="26" r="2" stroke="#474545" stroke-width="1.07327" stroke-linecap="round"/>
<path d="M20.9681 21.9999C22.0717 21.9999 22.9727 22.9009 22.9727 24.0046C22.9727 25.1082 22.0717 26.0092 20.9681 26.0092H20.2698L22.9952 29.1853" stroke="#474545" stroke-width="1.04733" stroke-miterlimit="10" stroke-linecap="round" stroke-linejoin="round"/>
<path d="M20 22.043H24.2345" stroke="#474545" stroke-width="1.04733" stroke-miterlimit="10" stroke-linecap="round" stroke-linejoin="round"/>
<path d="M20 23.8473H24.2345" stroke="#474545" stroke-width="1.04733" stroke-miterlimit="10" stroke-linecap="round" stroke-linejoin="round"/>
</svg>
