<svg width="52" height="52" viewBox="0 0 52 52" fill="none" xmlns="http://www.w3.org/2000/svg">
<circle cx="26" cy="26" r="26" fill="#F6F6EE"/>
<path d="M20.6024 36.2747L20.7312 36.7199C20.8278 37.026 20.6346 37.3043 20.2804 37.3878L19.2814 37.6037C18.25 37.8265 17.2229 37.2097 16.9349 36.1946L15.5803 31.4191C15.2657 30.3102 15.9513 29.1655 17.0774 28.9195L17.8012 28.7613C18.1554 28.6778 18.4774 28.8447 18.5739 29.1508L18.7027 29.5961M20.6024 36.2747L18.7027 29.5961M20.6024 36.2747L20.6346 36.2469L21.1016 35.8432C21.465 35.5291 21.9292 35.3563 22.4095 35.3563H28.2976C29.489 35.3563 30.6481 34.9389 31.4853 34.2154L37.3774 29.1508C37.8282 28.7613 38.0536 28.2325 37.9892 27.7038C37.8925 26.6741 36.8623 25.9228 35.671 26.0063C35.1558 26.0341 34.6729 26.2289 34.3187 26.535L31.0666 29.3456M18.7027 29.5961L18.7349 29.5682C19.7653 28.7056 21.1176 28.2047 22.5665 28.2047H29.1026C29.9719 28.2047 30.7447 28.6499 31.0666 29.3456M31.0666 29.3456L29.6768 30.6256C29.3076 30.9657 28.8239 31.1545 28.3219 31.1545H26.7812" stroke="#474545" stroke-width="1.07327" stroke-linecap="round"/>
<path d="M26.7678 16.6875C27.6108 16.6875 28.299 17.3757 28.299 18.2188C28.299 19.0618 27.6108 19.75 26.7678 19.75H26.2344L28.3162 22.176" stroke="#474545" stroke-width="0.8" stroke-miterlimit="10" stroke-linecap="round" stroke-linejoin="round"/>
<path d="M26.0283 16.7197H29.2629" stroke="#474545" stroke-width="0.8" stroke-miterlimit="10" stroke-linecap="round" stroke-linejoin="round"/>
<path d="M26.0283 18.0967H29.2629" stroke="#474545" stroke-width="0.8" stroke-miterlimit="10" stroke-linecap="round" stroke-linejoin="round"/>
<circle cx="27.3714" cy="19.3714" r="5.37143" stroke="#474545" stroke-linecap="round"/>
</svg>
