<svg width="52" height="52" viewBox="0 0 52 52" fill="none" xmlns="http://www.w3.org/2000/svg">
<circle cx="26" cy="26" r="26" fill="#F6F6EE"/>
<circle cx="28.0882" cy="20.3897" r="4.88968" stroke="#474545"/>
<path d="M28.3467 22.4999V18.4999" stroke="#474545" stroke-linecap="round" stroke-linejoin="round"/>
<path d="M23.0845 20.0111C21.9787 20.2175 21.6187 20.3914 20.7399 20.9399C20.0047 20.0078 18.1536 19.727 16.928 19.8281C16.4378 19.8685 16.2131 20.4344 16.5399 20.778C16.9484 21.2024 18.4521 22.2536 18.5338 22.9812L16.8588 25.1842H15.9805C15.4494 25.1842 15 25.6087 15 26.1544V28.3574C15 28.8021 15.1838 29.2063 15.5107 29.5095C16.1235 30.0552 17.3286 30.9849 19.2487 31.854C19.3917 31.9146 19.5143 32.0561 19.5551 32.1976L20.4948 34.6816C20.556 34.8837 20.7399 35.0252 20.9646 35.0252H22.4353C22.66 35.0252 22.8438 34.8837 22.9051 34.6614L23.3749 33.6326C23.4158 33.4911 23.5588 33.4102 23.7018 33.4507C24.2737 33.5719 24.8865 33.6123 25.4993 33.6123C26.1121 33.6123 26.7249 33.5517 27.2968 33.4507C27.4398 33.4304 27.5828 33.5113 27.6237 33.6326L28.0935 34.6614C28.1548 34.8635 28.3386 35.0252 28.5633 35.0252H30.034C30.2587 35.0252 30.4425 34.8837 30.5038 34.6816L31.7294 31.2476C31.7499 31.1668 31.7907 31.0859 31.852 31.0253C32.7712 30.0552 33.384 28.8829 33.5883 27.5894H35.0597C35.5908 27.5894 36.0197 27.1447 35.9993 26.6192C35.9789 26.114 35.5295 25.7097 35.0188 25.7097H33.5883C33.4243 24.6067 33.1144 23.8602 32.4214 22.9812" stroke="#474545"/>
</svg>
