<svg width="28" height="28" viewBox="0 0 28 28" fill="none" xmlns="http://www.w3.org/2000/svg">
<path d="M22.2682 8.56618L21.4129 8.48518C20.605 8.3776 19.7745 8.56302 19.0636 8.96171C19.0399 8.975 19.0162 8.98829 18.9925 9.00158L15.3254 11.1828L13.4138 9.60723L13.6744 9.46104C14.172 9.18196 14.3489 8.5532 14.0699 8.05558C13.7908 7.55796 13.162 7.38105 12.6644 7.66013L11.6929 8.20501L10.0089 6.8132C9.59056 6.456 9.00455 6.41086 8.50693 6.68994L7.17995 7.43416C7.10886 7.47403 7.07476 7.52431 7.05394 7.59828C7.03313 7.67225 7.05971 7.71964 7.09958 7.79073L11.6611 13.4248L6.95533 16.5312L4.76514 15.2364C4.45308 15.0688 4.0757 15.0624 3.76765 15.2352L2.72502 15.8199C2.65393 15.8598 2.61982 15.9101 2.59901 15.984C2.5782 16.058 2.61807 16.1291 2.64465 16.1765L5.53567 19.1652L6.60209 23.1773C6.61826 23.2616 6.66854 23.2957 6.74251 23.3166C6.81648 23.3374 6.87716 23.3345 6.94825 23.2946L7.99088 22.7099C8.29893 22.5371 8.49026 22.2118 8.50995 21.8581L8.5709 19.3008L13.6991 16.892L16.1279 23.7221C16.1678 23.7932 16.1944 23.8406 16.2683 23.8614C16.3423 23.8822 16.403 23.8793 16.4741 23.8394L17.8011 23.0952C18.275 22.8294 18.542 22.3059 18.4791 21.7493L18.1696 19.5867L19.1411 19.0418C19.6387 18.7627 19.8156 18.134 19.5366 17.6364C19.2575 17.1387 18.6287 16.9618 18.1311 17.2409L17.8704 17.3871L17.5228 14.9344L21.2962 12.9427C22.0441 12.5544 22.6458 11.9054 22.999 11.1467L23.3759 10.3746C23.5643 9.98858 23.5441 9.5638 23.3315 9.18467C23.0478 8.8454 22.6959 8.60668 22.2682 8.56618Z" stroke="#F8F8F8"/>
</svg>
