<svg width="52" height="52" viewBox="0 0 52 52" fill="none" xmlns="http://www.w3.org/2000/svg">
<circle cx="26" cy="26" r="26" fill="#E9E4F9"/>
<mask id="mask0" mask-type="alpha" maskUnits="userSpaceOnUse" x="6" y="6" width="40" height="40">
<rect x="6" y="6" width="40" height="40" fill="#C4C4C4"/>
</mask>
<g mask="url(#mask0)">
<path d="M13.5788 21.263H19.6968C20.0184 21.263 20.2795 21.002 20.2795 20.6803C20.2795 20.3587 20.0184 20.0977 19.6968 20.0977H13.5788C13.2571 20.0977 12.9961 20.3587 12.9961 20.6803C12.9961 21.002 13.2568 21.263 13.5788 21.263Z" fill="#5E43F6"/>
<path d="M19.1154 25.2213C19.1154 24.8997 18.8544 24.6387 18.5327 24.6387H12.4147C12.0931 24.6387 11.832 24.8997 11.832 25.2213C11.832 25.543 12.0931 25.804 12.4147 25.804H18.5327C18.8544 25.804 19.1154 25.5433 19.1154 25.2213Z" fill="#5E43F6"/>
<path d="M20.2795 29.9918C20.2795 29.6702 20.0184 29.4092 19.6968 29.4092H13.5788C13.2571 29.4092 12.9961 29.6702 12.9961 29.9918C12.9961 30.3135 13.2571 30.5745 13.5788 30.5745H19.6968C20.0184 30.5745 20.2795 30.3138 20.2795 29.9918Z" fill="#5E43F6"/>
<path d="M31.3718 16.8333C31.0064 16.8333 30.7102 17.1295 30.7102 17.4949V20.8843C30.7102 21.2496 31.0064 21.5459 31.3718 21.5459C31.7371 21.5459 32.0334 21.2496 32.0334 20.8843V18.1853C35.8438 18.5212 38.8425 21.7306 38.8425 25.6269C38.8425 29.7461 35.4913 33.0973 31.3721 33.0973C27.2529 33.0973 23.9014 29.7461 23.9014 25.6269C23.9014 23.2499 25.0492 20.9929 26.9717 19.589C27.2669 19.3734 27.3313 18.9597 27.116 18.6646C26.9007 18.3695 26.4867 18.3048 26.1916 18.5204C23.929 20.1722 22.5781 22.8289 22.5781 25.6269C22.5781 30.4756 26.5228 34.4206 31.3718 34.4206C36.2205 34.4206 40.1654 30.4759 40.1654 25.6269C40.1654 20.7779 36.2208 16.8333 31.3718 16.8333Z" fill="#5E43F6"/>
<path d="M26.9416 23.1425C26.7578 23.4583 26.8644 23.8633 27.1802 24.0471L30.8737 26.1986C30.9783 26.2598 31.0931 26.2887 31.2061 26.2887C31.434 26.2887 31.6557 26.171 31.7783 25.96C31.9622 25.6442 31.8555 25.2393 31.5397 25.0554L27.8462 22.9039C27.5307 22.7198 27.1254 22.8264 26.9416 23.1425Z" fill="#5E43F6"/>
</g>
</svg>
