<svg width="52" height="52" viewBox="0 0 52 52" fill="none" xmlns="http://www.w3.org/2000/svg">
<circle cx="26" cy="26" r="26" fill="#E6F7F9"/>
<mask id="mask0" mask-type="alpha" maskUnits="userSpaceOnUse" x="7" y="7" width="38" height="38">
<rect x="7.80078" y="7.79956" width="36.4" height="36.4" fill="#C4C4C4"/>
</mask>
<g mask="url(#mask0)">
<path d="M25.6716 26.0419C25.9901 26.0609 26.3189 26.0704 26.6578 26.0704C27.0034 26.0704 27.339 26.0482 27.6643 26.0039C27.9964 25.9532 28.3116 25.874 28.6098 25.7663C28.9081 25.6586 29.1758 25.5096 29.413 25.3196C29.6503 25.1295 29.8434 24.8919 29.9925 24.6067C30.1484 24.3153 30.2467 23.9668 30.2874 23.5612H25.2344C25.2547 23.5169 25.3089 23.425 25.397 23.2856C25.4919 23.1399 25.5902 22.9878 25.6919 22.8294C25.8139 22.6457 25.9495 22.4461 26.0986 22.2306H30.0332C30.0332 22.0659 29.9485 21.9011 29.779 21.7364C29.6096 21.5653 29.4029 21.4132 29.1588 21.2802C28.9216 21.1471 28.6776 21.0394 28.4268 20.957C28.176 20.8683 27.9693 20.824 27.8066 20.824H25.2344C25.2615 20.7479 25.3191 20.6339 25.4072 20.4818C25.5021 20.3297 25.6004 20.1808 25.7021 20.0351C25.8037 19.883 25.8918 19.75 25.9664 19.6359C26.0477 19.5219 26.0918 19.4648 26.0986 19.4648H34.5677C34.5677 19.4648 34.5474 19.4997 34.5067 19.5694C34.4728 19.6391 34.4254 19.7246 34.3644 19.826C34.3034 19.9211 34.2356 20.0288 34.161 20.1492C34.0865 20.2632 34.0153 20.3709 33.9475 20.4723C33.8865 20.5737 33.8323 20.6592 33.7848 20.7289C33.7442 20.7923 33.7238 20.824 33.7238 20.824H31.4973C31.6396 21.0521 31.7616 21.2834 31.8633 21.5178C31.9717 21.7459 32.0395 21.9835 32.0666 22.2306H34.5677L33.7238 23.5612H32.1581C32.0768 24.1505 31.8972 24.6543 31.6193 25.0724C31.3482 25.4906 31.0126 25.8391 30.6127 26.1179C30.2196 26.3904 29.779 26.6027 29.291 26.7547C28.803 26.9005 28.3014 27.0018 27.7863 27.0589C27.7863 27.0652 27.7965 27.0874 27.8168 27.1254C27.8439 27.1571 27.8744 27.1951 27.9083 27.2395C27.9422 27.2901 27.9829 27.344 28.0303 27.401L32.5445 33.2272V33.4648H30.6127L25.6716 27.2965V26.0419Z" fill="#089BAD"/>
<path d="M26.4359 14.3687C25.9613 14.2274 25.4746 14.1144 24.9776 14.0316C24.3243 13.9228 23.6534 13.8662 22.9693 13.8662C16.2682 13.8662 10.8359 19.2985 10.8359 25.9995C10.8359 32.7006 16.2682 38.1329 22.9693 38.1329C23.8617 38.1329 24.7317 38.0365 25.5693 37.8537" stroke="#089BAD" stroke-width="0.814453" stroke-linecap="round" stroke-linejoin="round"/>
<ellipse cx="29.9029" cy="25.9995" rx="12.1333" ry="12.1333" stroke="#089BAD" stroke-width="0.814453" stroke-linecap="round" stroke-linejoin="round"/>
</g>
</svg>
