<svg width="32" height="32" viewBox="0 0 32 32" fill="none" xmlns="http://www.w3.org/2000/svg">
<path d="M32 16C32 24.8365 24.8365 32 16 32C7.1635 32 0 24.8365 0 16C0 16.0037 16 0.0018125 16 0C24.8365 0 32 7.1635 32 16Z" fill="#0052B4"/>
<path d="M15.9572 16.0001H16C16 15.9856 16 15.9717 16 15.9573C15.9857 15.9716 15.9715 15.9858 15.9572 16.0001Z" fill="#F0F0F0"/>
<path d="M16 8.34879C16 5.53348 16 3.68866 16 0.000976562H15.9973C7.162 0.00241406 0 7.16523 0 16.0009H8.34781V11.3002L13.0486 16.0009H15.9572C15.9716 15.9867 15.9858 15.9724 16.0001 15.9581C16.0001 14.8802 16.0001 13.9184 16.0001 13.0496L11.2992 8.34879H16Z" fill="#F0F0F0"/>
<path d="M8.0947 2.08691C5.59226 3.51185 3.51188 5.59223 2.08694 8.09466V16H6.26088V6.26091V6.26085H16C16 4.94441 16 3.69029 16 2.08691H8.0947V2.08691Z" fill="#D80027"/>
<path d="M16 14.0324L10.3154 8.34793H8.34789C8.34789 8.34787 8.34789 8.34793 8.34789 8.34793L15.9999 16H16C16 16 16 14.6434 16 14.0324Z" fill="#D80027"/>
<path d="M9.64967 18.7827L10.5278 20.6188L12.5107 20.1605L11.6227 21.9919L13.2174 23.2565L11.2319 23.704L11.2375 25.7392L9.64967 24.4659L8.06192 25.7392L8.06749 23.704L6.08199 23.2565L7.67667 21.9919L6.78855 20.1605L8.77161 20.6188L9.64967 18.7827Z" fill="#F0F0F0"/>
<path d="M23.9552 22.261L24.3943 23.179L25.3858 22.9499L24.9417 23.8655L25.7391 24.4979L24.7464 24.7216L24.7491 25.7392L23.9552 25.1025L23.1614 25.7392L23.1641 24.7216L22.1714 24.4979L22.9687 23.8655L22.5247 22.9499L23.5162 23.179L23.9552 22.261Z" fill="#F0F0F0"/>
<path d="M19.8708 12.5219L20.3098 13.44L21.3013 13.2107L20.8573 14.1264L21.6546 14.7587L20.6619 14.9825L20.6646 16.0001L19.8708 15.3634L19.0769 16.0001L19.0796 14.9825L18.0869 14.7587L18.8843 14.1264L18.4403 13.2107L19.4318 13.44L19.8708 12.5219Z" fill="#F0F0F0"/>
<path d="M23.9552 6.95654L24.3943 7.87467L25.3858 7.64548L24.9418 8.56117L25.739 9.19342L24.7464 9.41723L24.7491 10.4349L23.9552 9.79817L23.1614 10.4349L23.1641 9.41723L22.1714 9.19342L22.9687 8.56117L22.5247 7.64548L23.5162 7.87467L23.9552 6.95654Z" fill="#F0F0F0"/>
<path d="M27.523 11.1305L27.962 12.0486L28.9535 11.8194L28.5095 12.7351L29.3068 13.3674L28.314 13.5912L28.3168 14.6087L27.523 13.9721L26.7291 14.6087L26.7318 13.5912L25.7391 13.3674L26.5364 12.7351L26.0924 11.8194L27.0839 12.0486L27.523 11.1305Z" fill="#F0F0F0"/>
<path d="M24.9719 16L25.3172 17.0629H26.4348L25.5306 17.7198L25.8761 18.7826L24.9719 18.1257L24.0677 18.7826L24.4131 17.7198L23.5089 17.0629H24.6265L24.9719 16Z" fill="#F0F0F0"/>
</svg>
