<svg width="32" height="32" viewBox="0 0 32 32" fill="none" xmlns="http://www.w3.org/2000/svg">
<path d="M16 32C24.8366 32 32 24.8366 32 16C32 7.16344 24.8366 0 16 0C7.16344 0 0 7.16344 0 16C0 24.8366 7.16344 32 16 32Z" fill="#F0F0F0"/>
<path d="M32 16C32 9.65665 28.3085 4.17565 22.9565 1.58765V30.4123C28.3085 27.8244 32 22.3434 32 16Z" fill="#D80027"/>
<path d="M0 16C0 22.3434 3.69156 27.8244 9.0435 30.4124V1.58765C3.69156 4.17565 0 9.65665 0 16Z" fill="#D80027"/>
<path d="M18.7826 18.087L21.5652 16.6957L20.1739 16.0001V14.6087L17.3913 16.0001L18.7826 13.2174H17.3913L16 11.1305L14.6087 13.2174H13.2173L14.6087 16.0001L11.826 14.6087V16.0001L10.4348 16.6957L13.2173 18.087L12.5217 19.4783H15.3043V21.5652H16.6956V19.4783H19.4782L18.7826 18.087Z" fill="#D80027"/>
</svg>
