<svg width="28" height="28" viewBox="0 0 28 28" fill="none" xmlns="http://www.w3.org/2000/svg">
<mask id="mask0" mask-type="alpha" maskUnits="userSpaceOnUse" x="0" y="0" width="28" height="28">
<rect width="28" height="28" fill="#C4C4C4"/>
</mask>
<g mask="url(#mask0)">
<path d="M9.68361 10.3973H5.82007V11.171H9.68361V10.3973Z" fill="#3F5EF5"/>
<path d="M19.3533 14.1844H5.43701V14.958H19.3533V14.1844Z" fill="#3F5EF5"/>
<path d="M7.75797 17.3549H5.43701V18.1286H7.75797V17.3549Z" fill="#3F5EF5"/>
<path d="M13.5691 17.3549H11.2482V18.1286H13.5691V17.3549Z" fill="#3F5EF5"/>
<path d="M19.3633 17.3549H17.0424V18.1286H19.3633V17.3549Z" fill="#3F5EF5"/>
<path d="M20.1852 9.73907C19.9021 9.73907 19.6427 9.81927 19.4162 9.95136C19.1804 9.81455 18.9162 9.73907 18.6379 9.73907C17.784 9.73907 17.0906 10.4325 17.0906 11.2864C17.0906 12.1402 17.784 12.8337 18.6379 12.8337C18.9162 12.8337 19.1804 12.7582 19.4162 12.6214C19.6427 12.7535 19.9021 12.8337 20.1852 12.8337C21.039 12.8337 21.7325 12.1402 21.7325 11.2864C21.7325 10.4325 21.039 9.73907 20.1852 9.73907ZM18.836 12.0317C18.77 12.0506 18.7039 12.06 18.6379 12.06C18.2133 12.06 17.8642 11.7109 17.8642 11.2864C17.8642 10.8618 18.2133 10.5127 18.6379 10.5127C18.7039 10.5127 18.7747 10.5269 18.836 10.541C18.7134 10.7627 18.6379 11.0128 18.6379 11.2864C18.6379 11.56 18.7134 11.81 18.836 12.0317ZM20.1852 12.06C19.7606 12.06 19.4115 11.7109 19.4115 11.2864C19.4115 10.8618 19.7606 10.5127 20.1852 10.5127C20.6097 10.5127 20.9588 10.8618 20.9588 11.2864C20.9588 11.7109 20.6097 12.06 20.1852 12.06Z" fill="#3F5EF5"/>
<rect x="3.50012" y="7" width="20.9999" height="14" rx="2" stroke="#3F5EF5"/>
</g>
</svg>
