<svg width="20" height="14" viewBox="0 0 20 14" fill="none" xmlns="http://www.w3.org/2000/svg">
<path d="M6.30013 3.91199H2.98853V4.57512H6.30013V3.91199Z" fill="#AD1E23"/>
<path d="M14.5884 7.15802H2.66016V7.82115H14.5884V7.15802Z" fill="#AD1E23"/>
<path d="M4.64955 9.87561H2.66016V10.5387H4.64955V9.87561Z" fill="#AD1E23"/>
<path d="M9.6305 9.87561H7.64111V10.5387H9.6305V9.87561Z" fill="#AD1E23"/>
<path d="M14.5971 9.87561H12.6077V10.5387H14.5971V9.87561Z" fill="#AD1E23"/>
<path d="M15.3014 3.34778C15.0588 3.34778 14.8364 3.41652 14.6424 3.52973C14.4402 3.41247 14.2138 3.34778 13.9752 3.34778C13.2433 3.34778 12.6489 3.94217 12.6489 4.67404C12.6489 5.40591 13.2433 6.0003 13.9752 6.0003C14.2138 6.0003 14.4402 5.9356 14.6424 5.81834C14.8364 5.93156 15.0588 6.0003 15.3014 6.0003C16.0333 6.0003 16.6277 5.40591 16.6277 4.67404C16.6277 3.94217 16.0333 3.34778 15.3014 3.34778ZM14.145 5.31291C14.0884 5.32908 14.0318 5.33717 13.9752 5.33717C13.6113 5.33717 13.3121 5.03795 13.3121 4.67404C13.3121 4.31013 13.6113 4.01091 13.9752 4.01091C14.0318 4.01091 14.0924 4.02304 14.145 4.03517C14.0399 4.22521 13.9752 4.43952 13.9752 4.67404C13.9752 4.90856 14.0399 5.12286 14.145 5.31291ZM15.3014 5.33717C14.9375 5.33717 14.6383 5.03795 14.6383 4.67404C14.6383 4.31013 14.9375 4.01091 15.3014 4.01091C15.6654 4.01091 15.9646 4.31013 15.9646 4.67404C15.9646 5.03795 15.6654 5.33717 15.3014 5.33717Z" fill="#AD1E23"/>
<rect x="1" y="1" width="17.9999" height="12" rx="2" stroke="#AD1E23"/>
</svg>
