<svg width="22" height="19" viewBox="0 0 22 19" fill="none" xmlns="http://www.w3.org/2000/svg">
<path d="M20.7046 15.9367H1.29536C1.13224 15.9367 1 15.8045 1 15.6413V1.29536C1 1.13224 1.13224 1 1.29536 1H20.7046C20.8678 1 21 1.13224 21 1.29536V15.6413C21 15.8045 20.8678 15.9367 20.7046 15.9367ZM1.59072 15.346H20.4093V1.59072H1.59072V15.346Z" fill="#C65A1E" stroke="#C65A1E" stroke-width="0.195312"/>
<path d="M15.2194 13.827H3.4051C3.24198 13.827 3.10974 13.6947 3.10974 13.5316V3.40504C3.10974 3.24192 3.24198 3.10968 3.4051 3.10968H15.2194C15.3826 3.10968 15.5148 3.24192 15.5148 3.40504V13.5316C15.5148 13.6947 15.3826 13.827 15.2194 13.827ZM3.70046 13.2363H14.9241V3.7004H3.70046V13.2363Z" fill="#C65A1E" stroke="#C65A1E" stroke-width="0.195312"/>
<path d="M15.2194 13.827H3.4051C3.24198 13.827 3.10974 13.6948 3.10974 13.5317V8.46839C3.10974 8.30527 3.24198 8.17303 3.4051 8.17303H15.2194C15.3826 8.17303 15.5148 8.30527 15.5148 8.46839V13.5317C15.5148 13.6948 15.3826 13.827 15.2194 13.827ZM3.70046 13.2363H14.9241V8.76375H3.70046V13.2363Z" fill="#C65A1E" stroke="#C65A1E" stroke-width="0.195312"/>
<path d="M17.962 6.65404C17.2175 6.65404 16.6118 6.04834 16.6118 5.30382C16.6118 4.55931 17.2175 3.95361 17.962 3.95361C18.7065 3.95361 19.3122 4.55931 19.3122 5.30382C19.3122 6.04834 18.7065 6.65404 17.962 6.65404ZM17.962 4.54433C17.5433 4.54433 17.2025 4.88505 17.2025 5.30382C17.2025 5.7226 17.5433 6.06332 17.962 6.06332C18.3808 6.06332 18.7215 5.7226 18.7215 5.30382C18.7215 4.88505 18.3808 4.54433 17.962 4.54433Z" fill="#C65A1E" stroke="#C65A1E" stroke-width="0.195312"/>
<path d="M17.962 12.1393C17.2175 12.1393 16.6118 11.5336 16.6118 10.7891C16.6118 10.0445 17.2175 9.43884 17.962 9.43884C18.7065 9.43884 19.3122 10.0445 19.3122 10.7891C19.3122 11.5336 18.7065 12.1393 17.962 12.1393ZM17.962 10.0296C17.5433 10.0296 17.2025 10.3703 17.2025 10.7891C17.2025 11.2078 17.5433 11.5485 17.962 11.5485C18.3808 11.5485 18.7215 11.2078 18.7215 10.7891C18.7215 10.3703 18.3808 10.0296 17.962 10.0296Z" fill="#C65A1E" stroke="#C65A1E" stroke-width="0.195312"/>
<path d="M6.78063 18.4684H3.4051C3.24198 18.4684 3.10974 18.3361 3.10974 18.173V15.6414C3.10974 15.4782 3.24198 15.346 3.4051 15.346H6.78063C6.94375 15.346 7.07599 15.4782 7.07599 15.6414V18.173C7.07599 18.3361 6.94375 18.4684 6.78063 18.4684ZM3.70046 17.8777H6.48527V15.9367H3.70046V17.8777Z" fill="#C65A1E" stroke="#C65A1E" stroke-width="0.195312"/>
<path d="M18.595 18.4684H15.2194C15.0563 18.4684 14.9241 18.3361 14.9241 18.173V15.6414C14.9241 15.4782 15.0563 15.346 15.2194 15.346H18.595C18.7581 15.346 18.8903 15.4782 18.8903 15.6414V18.173C18.8903 18.3361 18.7581 18.4684 18.595 18.4684ZM15.5148 17.8777H18.2996V15.9367H15.5148V17.8777Z" fill="#C65A1E" stroke="#C65A1E" stroke-width="0.195312"/>
<path d="M20.7046 18.4683H1.29536C1.13224 18.4683 1 18.3361 1 18.173C1 18.0099 1.13224 17.8776 1.29536 17.8776H20.7046C20.8678 17.8776 21 18.0099 21 18.173C21 18.3361 20.8678 18.4683 20.7046 18.4683Z" fill="#C65A1E" stroke="#C65A1E" stroke-width="0.195312"/>
</svg>
