<svg width="32" height="32" viewBox="0 0 32 32" fill="none" xmlns="http://www.w3.org/2000/svg">
<path d="M16 32C24.8366 32 32 24.8366 32 16C32 7.16344 24.8366 0 16 0C7.16344 0 0 7.16344 0 16C0 24.8366 7.16344 32 16 32Z" fill="#0052B4"/>
<path d="M15.9999 6.26099L16.518 7.8553H18.1942L16.838 8.84061L17.3561 10.4349L15.9999 9.44955L14.6437 10.4349L15.1617 8.84061L13.8055 7.8553H15.4818L15.9999 6.26099Z" fill="#FFDA44"/>
<path d="M9.11321 9.11346L10.607 9.87446L11.7923 8.68921L11.53 10.3448L13.0237 11.1059L11.368 11.3681L11.1057 13.0239L10.3447 11.5302L8.68903 11.7925L9.87434 10.6072L9.11321 9.11346Z" fill="#FFDA44"/>
<path d="M6.26086 16.0002L7.85518 15.4821V13.8058L8.84043 15.162L10.4348 14.644L9.44936 16.0002L10.4348 17.3564L8.84043 16.8384L7.85518 18.1946V16.5182L6.26086 16.0002Z" fill="#FFDA44"/>
<path d="M9.11321 22.8868L9.87428 21.3931L8.68903 20.2078L10.3447 20.4701L11.1057 18.9764L11.368 20.6321L13.0236 20.8944L11.5301 21.6554L11.7923 23.3111L10.607 22.1258L9.11321 22.8868Z" fill="#FFDA44"/>
<path d="M15.9999 25.7392L15.4818 24.1449H13.8055L15.1618 23.1596L14.6437 21.5654L15.9999 22.5507L17.3561 21.5654L16.838 23.1596L18.1942 24.1449H16.5179L15.9999 25.7392Z" fill="#FFDA44"/>
<path d="M22.8866 22.8868L21.3929 22.1258L20.2075 23.3111L20.4698 21.6554L18.9763 20.8944L20.6319 20.6321L20.8941 18.9764L21.6551 20.4701L23.3108 20.2078L22.1254 21.3932L22.8866 22.8868Z" fill="#FFDA44"/>
<path d="M25.7389 16.0002L24.1446 16.5182V18.1946L23.1593 16.8383L21.5651 17.3564L22.5504 16.0002L21.5651 14.644L23.1594 15.162L24.1446 13.8058V15.4822L25.7389 16.0002Z" fill="#FFDA44"/>
<path d="M22.8866 9.1134L22.1255 10.6071L23.3108 11.7925L21.6551 11.5301L20.8941 13.0238L20.6319 11.3681L18.9763 11.1058L20.4698 10.3448L20.2075 8.68921L21.3929 9.87446L22.8866 9.1134Z" fill="#FFDA44"/>
</svg>
