<svg width="22" height="30" viewBox="0 0 22 30" fill="none" xmlns="http://www.w3.org/2000/svg">
<path d="M0.599976 18.6986V11.4591C0.599976 8.57913 1.69569 5.81706 3.64606 3.78058C5.59644 1.74409 8.24172 0.600006 11 0.600006C13.7582 0.600006 16.4035 1.74409 18.3539 3.78058C20.3043 5.81706 21.4 8.57913 21.4 11.4591V15.8193" stroke="#AD1E23" stroke-width="1.2"/>
<path d="M21.4 17.1708C21.4 17.7942 21.1565 18.392 20.7231 18.8328C20.2896 19.2736 19.7018 19.5212 19.0889 19.5212H17.9333C17.3204 19.5212 16.7325 19.2736 16.2991 18.8328C15.8657 18.392 15.6222 17.7942 15.6222 17.1708V13.6451C15.6222 13.0217 15.8657 12.4238 16.2991 11.9831C16.7325 11.5423 17.3204 11.2946 17.9333 11.2946H21.4V17.1708ZM0.599976 17.1708C0.599976 17.7942 0.843467 18.392 1.27688 18.8328C1.7103 19.2736 2.29814 19.5212 2.91109 19.5212H4.06664C4.67959 19.5212 5.26743 19.2736 5.70084 18.8328C6.13426 18.392 6.37775 17.7942 6.37775 17.1708V13.6451C6.37775 13.0217 6.13426 12.4238 5.70084 11.9831C5.26743 11.5423 4.67959 11.2946 4.06664 11.2946H0.599976V17.1708Z" stroke="#AD1E23" stroke-width="1.2"/>
<path d="M0.599976 15.4079V21.1666C0.733309 22.949 1.79998 26.1025 5.79998 26.5139" stroke="#AD1E23" stroke-width="1.2"/>
<rect width="7.01261" height="2.46414" rx="1.23207" transform="matrix(0.969312 0.245834 -0.233223 0.972423 5.97498 25.2799)" stroke="#AD1E23" stroke-width="1.2"/>
</svg>
