<svg width="32" height="32" viewBox="0 0 32 32" fill="none" xmlns="http://www.w3.org/2000/svg">
<path d="M16 32C24.8366 32 32 24.8366 32 16C32 7.16344 24.8366 0 16 0C7.16344 0 0 7.16344 0 16C0 24.8366 7.16344 32 16 32Z" fill="#D80027"/>
<path d="M17.6519 12.1042C17.2883 13.6166 16.6422 13.3282 16.3251 14.6472C14.4574 14.1981 13.3072 12.32 13.7563 10.4522C14.2051 8.58448 16.0834 7.43423 17.9512 7.88329C17.317 10.5212 17.9772 10.7515 17.6519 12.1042Z" fill="#F0F0F0"/>
<path d="M12.8054 13.225C14.1315 14.0381 13.6575 14.5635 14.8139 15.2727C13.8096 16.9103 11.6681 17.4237 10.0304 16.4195C8.39287 15.4154 7.87931 13.2737 8.88356 11.6361C11.1964 13.0544 11.6192 12.4977 12.8054 13.225Z" fill="#F0F0F0"/>
<path d="M12.3736 18.1806C13.5568 17.1707 13.9099 17.7838 14.9417 16.9032C16.1889 18.3643 16.0154 20.5598 14.5544 21.807C13.0933 23.0542 10.8978 22.8805 9.65076 21.4195C11.7141 19.6581 11.3153 19.0838 12.3736 18.1806Z" fill="#F0F0F0"/>
<path d="M16.9534 20.1226C16.3584 18.6853 17.0506 18.5388 16.5319 17.2855C18.3069 16.551 20.3414 17.3943 21.076 19.1693C21.8106 20.9442 20.9671 22.9786 19.1921 23.7133C18.1548 21.2065 17.4855 21.4083 16.9534 20.1226Z" fill="#F0F0F0"/>
<path d="M20.2156 16.3672C18.6648 16.4888 18.7393 15.7851 17.3871 15.8912C17.2369 13.9763 18.6678 12.3018 20.5828 12.1515C22.4978 12.0016 24.1722 13.4323 24.3223 15.3475C21.6175 15.5595 21.6026 16.2585 20.2156 16.3672Z" fill="#F0F0F0"/>
</svg>
