<svg width="24" height="23" viewBox="0 0 24 23" fill="none" xmlns="http://www.w3.org/2000/svg">
<path d="M18.3039 14.3083C17.3733 13.8385 16.2981 13.9828 15.5252 14.577C15.5443 13.6023 15.0222 12.6518 14.0911 12.1819C13.1604 11.7121 12.0853 11.8564 11.3124 12.4506C11.3315 11.4759 10.8093 10.5254 9.87829 10.0555C8.94761 9.58574 7.87244 9.73002 7.09977 10.3243C7.11863 9.34954 6.59651 8.39905 5.66546 7.92911C4.98077 7.58352 4.2184 7.57447 3.55382 7.82635C6.22641 4.31822 11.04 3.06153 15.0341 5.07754C19.0285 7.09364 20.8764 11.7126 19.6409 15.9459C19.4489 15.2619 18.9888 14.6539 18.3039 14.3083Z" stroke="#089BAD" stroke-linecap="round" stroke-linejoin="round"/>
<path d="M6.06106 16.0277C5.50055 17.1382 6.11837 17.9556 6.67046 18.2343C7.1832 18.4931 7.61231 18.4178 7.88211 18.3091C8.46005 18.076 8.7551 17.5222 8.81052 17.4087L11.926 11.2364" stroke="#089BAD" stroke-linecap="round" stroke-linejoin="round"/>
<path d="M15.4515 5.51357L16.0558 4.31641" stroke="#089BAD" stroke-linecap="round" stroke-linejoin="round"/>
</svg>
