<svg width="22" height="16" viewBox="0 0 22 16" fill="none" xmlns="http://www.w3.org/2000/svg">
<path d="M9.24141 6.63183C9.41732 6.64233 9.59885 6.64758 9.78599 6.64758C9.97687 6.64758 10.1621 6.63533 10.3418 6.61084C10.5252 6.58285 10.6992 6.53911 10.8639 6.47963C11.0286 6.42015 11.1764 6.33793 11.3074 6.23296C11.4384 6.128 11.5451 5.99679 11.6275 5.83934C11.7135 5.67839 11.7678 5.48595 11.7903 5.26202H9C9.01123 5.23753 9.04117 5.1868 9.08983 5.10982C9.14223 5.02935 9.1965 4.94538 9.25264 4.8579C9.32001 4.75644 9.39487 4.64622 9.47721 4.52726H11.6499C11.6499 4.43629 11.6031 4.34532 11.5096 4.25435C11.416 4.15988 11.3018 4.0759 11.1671 4.00243C11.0361 3.92895 10.9013 3.86947 10.7629 3.82399C10.6244 3.775 10.5102 3.75051 10.4204 3.75051H9C9.01497 3.70852 9.04679 3.64554 9.09544 3.56157C9.14784 3.4776 9.20211 3.39537 9.25825 3.3149C9.3144 3.23093 9.36305 3.15745 9.40422 3.09447C9.44914 3.03149 9.47347 3 9.47721 3H14.1538C14.1538 3 14.1426 3.01924 14.1202 3.05773C14.1014 3.09622 14.0752 3.14345 14.0416 3.19944C14.0079 3.25192 13.9704 3.3114 13.9293 3.37788C13.8881 3.44086 13.8488 3.50034 13.8114 3.55632C13.7777 3.6123 13.7478 3.65954 13.7216 3.69803C13.6991 3.73301 13.6879 3.75051 13.6879 3.75051H12.4584C12.537 3.87647 12.6043 4.00418 12.6605 4.13364C12.7204 4.2596 12.7578 4.3908 12.7728 4.52726H14.1538L13.6879 5.26202H12.8233C12.7784 5.58742 12.6792 5.86558 12.5257 6.09651C12.376 6.32743 12.1907 6.51987 11.9699 6.67382C11.7528 6.82427 11.5096 6.94148 11.2401 7.02546C10.9706 7.10593 10.6936 7.16191 10.4092 7.1934C10.4092 7.1969 10.4148 7.20915 10.426 7.23014C10.441 7.24764 10.4578 7.26863 10.4765 7.29312C10.4953 7.32111 10.5177 7.35085 10.5439 7.38234L13.0366 10.5996V10.7308H11.9699L9.24141 7.32461V6.63183Z" fill="#971A82"/>
<path d="M19.2593 13.0595C19.4773 12.8415 19.5998 12.5458 19.5998 12.2375V2.1625C19.5998 1.85418 19.4773 1.5585 19.2593 1.34049C19.0413 1.12248 18.7456 1 18.4373 1H3.7123C3.40399 1 3.1083 1.12248 2.89029 1.34049C2.67228 1.5585 2.5498 1.85418 2.5498 2.1625V12.2375C2.5498 12.5458 2.67228 12.8415 2.89029 13.0595" stroke="#991981" stroke-linecap="round" stroke-linejoin="round"/>
<path d="M13.9463 13.1749H20.7625C20.8652 13.1749 20.9638 13.2157 21.0365 13.2883C21.1091 13.361 21.15 13.4596 21.15 13.5624C21.15 14.0762 20.9458 14.569 20.5825 14.9324C20.2191 15.2957 19.7263 15.4998 19.2125 15.4998H2.9375C2.42364 15.4998 1.93083 15.2957 1.56748 14.9324C1.20413 14.569 1 14.0762 1 13.5624C1.00072 13.5108 1.01171 13.4599 1.03234 13.4127C1.05296 13.3654 1.08281 13.3228 1.12012 13.2872C1.15448 13.251 1.19598 13.2223 1.24201 13.203C1.28803 13.1836 1.33758 13.174 1.3875 13.1749H13.9463Z" stroke="#991981" stroke-linecap="round" stroke-linejoin="round"/>
</svg>
