<svg width="23" height="18" viewBox="0 0 23 18" fill="none" xmlns="http://www.w3.org/2000/svg">
<path d="M10.7826 9.02902C10.9927 9.04156 11.2094 9.04782 11.4329 9.04782C11.6608 9.04782 11.882 9.0332 12.0965 9.00396C12.3155 8.97053 12.5233 8.91831 12.72 8.84729C12.9166 8.77627 13.0931 8.67809 13.2495 8.55276C13.406 8.42743 13.5333 8.27076 13.6316 8.08276C13.7344 7.89058 13.7992 7.66081 13.826 7.39343H10.4944C10.5078 7.36418 10.5435 7.30361 10.6016 7.2117C10.6642 7.11561 10.729 7.01534 10.796 6.9109C10.8765 6.78974 10.9659 6.65814 11.0642 6.5161H13.6585C13.6585 6.40748 13.6026 6.29886 13.4909 6.19023C13.3791 6.07743 13.2428 5.97717 13.0819 5.88943C12.9255 5.8017 12.7646 5.73068 12.5993 5.67637C12.4339 5.61788 12.2976 5.58864 12.1904 5.58864H10.4944C10.5123 5.5385 10.5502 5.4633 10.6083 5.36304C10.6709 5.26277 10.7357 5.16459 10.8027 5.0685C10.8698 4.96824 10.9279 4.8805 10.977 4.8053C11.0307 4.7301 11.0597 4.6925 11.0642 4.6925H16.6482C16.6482 4.6925 16.6348 4.71548 16.608 4.76144C16.5857 4.80739 16.5544 4.86379 16.5142 4.93064C16.4739 4.9933 16.4292 5.06433 16.3801 5.1437C16.3309 5.2189 16.284 5.28993 16.2393 5.35677C16.1991 5.42361 16.1633 5.48001 16.1321 5.52597C16.1052 5.56775 16.0918 5.58864 16.0918 5.58864H14.6238C14.7176 5.73903 14.7981 5.89152 14.8651 6.0461C14.9366 6.1965 14.9813 6.35317 14.9992 6.5161H16.6482L16.0918 7.39343H15.0595C15.0059 7.78196 14.8874 8.11409 14.7042 8.38983C14.5254 8.66556 14.3042 8.89534 14.0406 9.07916C13.7814 9.2588 13.4909 9.39876 13.1691 9.49902C12.8473 9.59511 12.5166 9.66195 12.177 9.69955C12.177 9.70373 12.1837 9.71835 12.1971 9.74342C12.215 9.76431 12.2351 9.78938 12.2574 9.81862C12.2798 9.85204 12.3066 9.88755 12.3379 9.92515L15.3142 13.7666V13.9233H14.0406L10.7826 9.85622V9.02902Z" fill="#3FB352"/>
<path d="M11.2857 1.33129C10.9728 1.23816 10.6518 1.16366 10.3241 1.10908C9.89343 1.03733 9.45108 1 9 1C4.58172 1 1 4.58172 1 9C1 13.4183 4.58172 17 9 17C9.58843 17 10.162 16.9365 10.7143 16.8159" stroke="#3FB252" stroke-linecap="round" stroke-linejoin="round"/>
<circle cx="13.5715" cy="9" r="8" stroke="#3FB252" stroke-linecap="round" stroke-linejoin="round"/>
</svg>
