<svg width="32" height="32" viewBox="0 0 32 32" fill="none" xmlns="http://www.w3.org/2000/svg">
<mask id="mask0" mask-type="alpha" maskUnits="userSpaceOnUse" x="0" y="0" width="32" height="32">
<rect width="32" height="32" fill="#C4C4C4"/>
</mask>
<g mask="url(#mask0)">
<path d="M2.2401 6.39999C1.89107 6.39999 1.6001 6.69095 1.6001 7.03999V24.32C1.6001 24.669 1.89107 24.96 2.2401 24.96H29.7601C30.1091 24.96 30.4001 24.669 30.4001 24.32V7.03999C30.4001 6.69095 30.1091 6.39999 29.7601 6.39999H2.2401H2.2401ZM2.4001 7.03999H29.6001L16.0001 19.09L2.4001 7.03999H2.4001ZM2.2401 7.74999L15.7901 19.76C15.8484 19.8106 15.9229 19.8385 16.0001 19.8385C16.0773 19.8385 16.1518 19.8106 16.2101 19.76L29.7601 7.74999V24.32H2.2401V7.74999H2.2401Z" fill="#AD1E23" stroke="#AD1E23" stroke-width="0.7"/>
</g>
</svg>
