<svg width="32" height="32" viewBox="0 0 32 32" fill="none" xmlns="http://www.w3.org/2000/svg">
<mask id="mask0" mask-type="alpha" maskUnits="userSpaceOnUse" x="0" y="0" width="32" height="32">
<rect width="32" height="32" fill="#C4C4C4"/>
</mask>
<g mask="url(#mask0)">
<path d="M15.9885 26.7634C15.5256 26.7634 15.0627 26.7634 14.5998 26.7634C13.4957 26.7634 12.3917 26.7634 11.2876 26.7634C9.95379 26.7634 8.61656 26.7634 7.28276 26.7634C6.12725 26.7634 4.97175 26.7634 3.81967 26.7634C3.26078 26.7634 2.68817 26.7325 2.12927 26.7634C2.12242 26.7634 2.11213 26.7634 2.10527 26.7634C2.27671 26.9348 2.44815 27.1062 2.61959 27.2777C2.61959 26.9451 2.61959 26.6125 2.61959 26.2799C2.61959 25.4056 2.61959 24.5312 2.61959 23.6569C2.61959 22.4294 2.61959 21.2019 2.61959 19.9743C2.61959 18.5685 2.61959 17.1593 2.61959 15.7535C2.61959 14.3545 2.61959 12.9556 2.61959 11.5566C2.61959 10.3531 2.61959 9.14963 2.61959 7.94612C2.61959 7.11292 2.61959 6.27972 2.61959 5.44309C2.61959 5.22365 2.61959 5.00421 2.61959 4.78476C2.61959 4.73676 2.61959 4.68533 2.61959 4.63733C2.61959 4.62704 2.61959 4.62018 2.61959 4.6099V4.56189C2.61616 4.60304 2.58873 4.63047 2.62302 4.56189C2.63331 4.54475 2.66417 4.47274 2.61959 4.55846C2.62988 4.53789 2.64017 4.51732 2.65388 4.50017C2.70188 4.43846 2.60245 4.55846 2.65388 4.50017C2.68474 4.46589 2.72589 4.44189 2.6676 4.4796C2.6916 4.46246 2.71903 4.44874 2.74303 4.43503C2.72589 4.44189 2.65388 4.4796 2.74646 4.43846C2.82875 4.40074 2.69503 4.4316 2.79103 4.4316C2.79446 4.4316 2.79789 4.4316 2.80132 4.4316C2.82189 4.4316 2.84246 4.4316 2.86647 4.4316C2.96247 4.4316 3.06191 4.4316 3.15791 4.4316C3.53851 4.4316 3.91568 4.4316 4.29628 4.4316C5.54093 4.4316 6.78215 4.4316 8.02681 4.4316C9.40861 4.4316 10.7904 4.4316 12.1722 4.4316C13.1049 4.4316 14.0375 4.4316 14.9701 4.4316C15.0627 4.4316 15.1553 4.4316 15.2444 4.4316C15.2616 4.4316 15.2787 4.4316 15.2993 4.4316C15.3164 4.4316 15.3336 4.4316 15.3507 4.4316C15.2341 4.42474 15.4536 4.48646 15.3507 4.4316C15.3713 4.44188 15.3919 4.45217 15.409 4.46589C15.4536 4.5036 15.3576 4.41445 15.4262 4.4796C15.4913 4.54475 15.4433 4.49675 15.4296 4.47617C15.4467 4.50017 15.4604 4.5276 15.4742 4.55161C15.4227 4.44874 15.4844 4.6339 15.4776 4.57561C15.4707 4.52075 15.4776 4.57904 15.4776 4.60304C15.4776 4.61332 15.4776 4.62361 15.4776 4.6339C15.4776 4.68876 15.4776 4.74019 15.4776 4.79505C15.4776 5.37795 15.4776 5.96427 15.4776 6.54717C15.4776 7.59638 15.4776 8.64559 15.4776 9.6948C15.4776 11.0252 15.4776 12.3521 15.4776 13.6825C15.4776 15.102 15.4776 16.5215 15.4776 17.9445C15.4776 19.2852 15.4776 20.6224 15.4776 21.963C15.4776 23.0328 15.4776 24.1026 15.4776 25.1724C15.4776 25.7896 15.4776 26.4033 15.4776 27.0205C15.4776 27.1028 15.4776 27.1817 15.4776 27.264C15.4776 27.5314 15.7142 27.792 15.9919 27.7783C16.2696 27.7646 16.5062 27.552 16.5062 27.264C16.5062 26.9279 16.5062 26.5885 16.5062 26.2525C16.5062 25.3678 16.5062 24.4798 16.5062 23.5951C16.5062 22.3436 16.5062 21.0887 16.5062 19.8372C16.5062 18.4211 16.5062 17.0084 16.5062 15.5923C16.5062 14.1831 16.5062 12.7704 16.5062 11.3612C16.5062 10.1611 16.5062 8.95761 16.5062 7.75753C16.5062 6.94834 16.5062 6.13914 16.5062 5.32651C16.5062 5.12764 16.5062 4.92877 16.5062 4.7299C16.5062 4.2533 16.3279 3.80413 15.8925 3.55725C15.5976 3.39267 15.2924 3.40296 14.9701 3.40296C14.593 3.40296 14.2158 3.40296 13.8386 3.40296C12.5905 3.40296 11.339 3.40296 10.0909 3.40296C8.692 3.40296 7.29647 3.40296 5.89752 3.40296C4.96832 3.40296 4.03569 3.40296 3.10648 3.40296C2.75674 3.40296 2.42072 3.39953 2.11556 3.61554C1.73153 3.89671 1.58752 4.30473 1.58752 4.75048C1.58752 5.30594 1.58752 5.85798 1.58752 6.41344C1.58752 7.44894 1.58752 8.48444 1.58752 9.52336C1.58752 10.8537 1.58752 12.1841 1.58752 13.5145C1.58752 14.9512 1.58752 16.3878 1.58752 17.8245C1.58752 19.1857 1.58752 20.5435 1.58752 21.9048C1.58752 22.9848 1.58752 24.0649 1.58752 25.145C1.58752 25.7724 1.58752 26.4033 1.58752 27.0308C1.58752 27.1131 1.58752 27.1954 1.58752 27.2777C1.58752 27.5554 1.82411 27.792 2.10184 27.792C2.56473 27.792 3.02762 27.792 3.49051 27.792C4.59458 27.792 5.69865 27.792 6.80273 27.792C8.13653 27.792 9.47376 27.792 10.8076 27.792C11.9631 27.792 13.1186 27.792 14.2706 27.792C14.833 27.792 15.3987 27.8091 15.961 27.792C15.9679 27.792 15.9782 27.792 15.985 27.792C16.2525 27.792 16.5131 27.5554 16.4994 27.2777C16.4891 26.9999 16.2765 26.7634 15.9885 26.7634Z" fill="#AD1E23"/>
<path d="M29.8751 26.7634C29.4122 26.7634 28.9493 26.7634 28.4864 26.7634C27.3823 26.7634 26.2783 26.7634 25.1742 26.7634C23.8404 26.7634 22.5031 26.7634 21.1693 26.7634C20.0138 26.7634 18.8583 26.7634 17.7063 26.7634C17.1474 26.7634 16.5748 26.7325 16.0159 26.7634C16.009 26.7634 15.9987 26.7634 15.9919 26.7634C16.1633 26.9348 16.3347 27.1062 16.5062 27.2777C16.5062 26.7188 16.5062 26.1599 16.5062 25.601C16.5062 24.2603 16.5062 22.9163 16.5062 21.5756C16.5062 19.9572 16.5062 18.3422 16.5062 16.7238C16.5062 15.3215 16.5062 13.9191 16.5062 12.5133C16.5062 11.8344 16.5405 11.1486 16.5062 10.4731C16.5062 10.4629 16.5062 10.4526 16.5062 10.4423C16.3347 10.6137 16.1633 10.7852 15.9919 10.9566C16.5405 10.9566 17.0891 10.9566 17.6343 10.9566C18.8926 10.9566 20.1544 10.9566 21.4128 10.9566C22.8289 10.9566 24.2484 10.9566 25.6645 10.9566C26.6657 10.9566 27.6669 10.9566 28.6681 10.9566C28.8396 10.9566 29.011 10.96 29.1824 10.9566C29.2407 10.9566 29.2373 10.9635 29.1893 10.9532C29.2202 10.96 29.2476 10.9669 29.275 10.9772C29.2442 10.9669 29.2064 10.9292 29.2716 10.9806C29.2887 10.9943 29.3436 11.0389 29.275 10.9772C29.2853 10.9875 29.3642 11.0732 29.323 11.0217C29.2887 10.9772 29.3745 11.1486 29.3367 11.0389C29.347 11.0698 29.3539 11.0972 29.3607 11.1246C29.3367 11.0389 29.3573 11.0938 29.3573 11.1246C29.3573 11.128 29.3573 11.128 29.3573 11.1315C29.3573 11.1795 29.3573 11.2275 29.3573 11.2755C29.3573 11.9852 29.3573 12.695 29.3573 13.4048C29.3573 14.67 29.3573 15.9352 29.3573 17.2004C29.3573 18.6337 29.3573 20.0703 29.3573 21.5036C29.3573 22.7414 29.3573 23.9792 29.3573 25.217C29.3573 25.8719 29.3573 26.5302 29.3573 27.1851C29.3573 27.216 29.3573 27.2468 29.3573 27.2743C29.3573 27.5417 29.5939 27.8023 29.8716 27.7886C30.1494 27.7749 30.386 27.5623 30.386 27.2743C30.386 26.8045 30.386 26.3382 30.386 25.8684C30.386 24.7198 30.386 23.5712 30.386 22.4259C30.386 20.9927 30.386 19.5595 30.386 18.1262C30.386 16.7821 30.386 15.438 30.386 14.094C30.386 13.2333 30.386 12.3727 30.386 11.5121C30.386 11.3852 30.3894 11.2549 30.386 11.128C30.3688 10.4629 29.8511 9.94511 29.1859 9.92796C29.1447 9.92796 29.1036 9.92796 29.0624 9.92796C28.267 9.92796 27.468 9.92796 26.6726 9.92796C25.301 9.92796 23.9261 9.92796 22.5546 9.92796C21.1865 9.92796 19.8184 9.92796 18.4503 9.92796C17.6651 9.92796 16.8833 9.92796 16.0982 9.92796C16.0604 9.92796 16.0261 9.92796 15.9884 9.92796C15.7107 9.92796 15.4741 10.1646 15.4741 10.4423C15.4741 11.0012 15.4741 11.5601 15.4741 12.119C15.4741 13.4596 15.4741 14.8037 15.4741 16.1444C15.4741 17.7628 15.4741 19.3777 15.4741 20.9961C15.4741 22.3985 15.4741 23.8009 15.4741 25.2067C15.4741 25.8856 15.4535 26.5679 15.4741 27.2468C15.4741 27.2571 15.4741 27.2674 15.4741 27.2777C15.4741 27.5554 15.7107 27.792 15.9884 27.792C16.4513 27.792 16.9142 27.792 17.3771 27.792C18.4812 27.792 19.5852 27.792 20.6893 27.792C22.0231 27.792 23.3603 27.792 24.6941 27.792C25.8497 27.792 27.0052 27.792 28.1572 27.792C28.7196 27.792 29.2853 27.8091 29.8476 27.792C29.8545 27.792 29.8648 27.792 29.8716 27.792C30.1391 27.792 30.3997 27.5554 30.386 27.2777C30.3757 26.9999 30.1631 26.7634 29.8751 26.7634Z" fill="#AD1E23"/>
<path d="M11.8671 19.4086C10.2178 19.4086 8.56858 19.4086 6.91933 19.4086C6.6896 19.4086 6.45987 19.4086 6.23014 19.4086C5.95241 19.4086 5.71582 19.6452 5.71582 19.9229C5.71582 20.7492 5.71582 21.5756 5.71582 22.4019C5.71582 23.722 5.71582 25.0421 5.71582 26.3622C5.71582 26.6673 5.71582 26.9725 5.71582 27.2777C5.71582 27.5554 5.95241 27.792 6.23014 27.792C7.87939 27.792 9.52864 27.792 11.1779 27.792C11.4076 27.792 11.6374 27.792 11.8671 27.792C12.1448 27.792 12.3814 27.5554 12.3814 27.2777C12.3814 26.4513 12.3814 25.625 12.3814 24.7986C12.3814 23.4786 12.3814 22.1585 12.3814 20.8384C12.3814 20.5332 12.3814 20.2281 12.3814 19.9229C12.3814 19.652 12.1448 19.3949 11.8671 19.4086C11.5894 19.4223 11.3528 19.6349 11.3528 19.9229C11.3528 20.7492 11.3528 21.5756 11.3528 22.4019C11.3528 23.722 11.3528 25.0421 11.3528 26.3622C11.3528 26.6673 11.3528 26.9725 11.3528 27.2777C11.5242 27.1062 11.6956 26.9348 11.8671 26.7633C10.2178 26.7633 8.56858 26.7633 6.91933 26.7633C6.6896 26.7633 6.45987 26.7633 6.23014 26.7633C6.40158 26.9348 6.57302 27.1062 6.74446 27.2777C6.74446 26.4513 6.74446 25.625 6.74446 24.7986C6.74446 23.4786 6.74446 22.1585 6.74446 20.8384C6.74446 20.5332 6.74446 20.2281 6.74446 19.9229C6.57302 20.0943 6.40158 20.2658 6.23014 20.4372C7.87939 20.4372 9.52864 20.4372 11.1779 20.4372C11.4076 20.4372 11.6374 20.4372 11.8671 20.4372C12.1345 20.4372 12.3951 20.2006 12.3814 19.9229C12.3677 19.6452 12.1551 19.4086 11.8671 19.4086Z" fill="#AD1E23"/>
<path d="M25.7503 19.4086C24.101 19.4086 22.4518 19.4086 20.8025 19.4086C20.5728 19.4086 20.343 19.4086 20.1133 19.4086C19.8356 19.4086 19.599 19.6452 19.599 19.9229C19.599 20.7492 19.599 21.5756 19.599 22.4019C19.599 23.722 19.599 25.0421 19.599 26.3622C19.599 26.6673 19.599 26.9725 19.599 27.2777C19.599 27.5554 19.8356 27.792 20.1133 27.792C21.7626 27.792 23.4118 27.792 25.0611 27.792C25.2908 27.792 25.5205 27.792 25.7503 27.792C26.028 27.792 26.2646 27.5554 26.2646 27.2777C26.2646 26.4513 26.2646 25.625 26.2646 24.7986C26.2646 23.4786 26.2646 22.1585 26.2646 20.8384C26.2646 20.5332 26.2646 20.2281 26.2646 19.9229C26.2646 19.652 26.028 19.3949 25.7503 19.4086C25.4725 19.4223 25.2359 19.6349 25.2359 19.9229C25.2359 20.7492 25.2359 21.5756 25.2359 22.4019C25.2359 23.722 25.2359 25.0421 25.2359 26.3622C25.2359 26.6673 25.2359 26.9725 25.2359 27.2777C25.4074 27.1062 25.5788 26.9348 25.7503 26.7633C24.101 26.7633 22.4518 26.7633 20.8025 26.7633C20.5728 26.7633 20.343 26.7633 20.1133 26.7633C20.2848 26.9348 20.4562 27.1062 20.6276 27.2777C20.6276 26.4513 20.6276 25.625 20.6276 24.7986C20.6276 23.4786 20.6276 22.1585 20.6276 20.8384C20.6276 20.5332 20.6276 20.2281 20.6276 19.9229C20.4562 20.0943 20.2848 20.2658 20.1133 20.4372C21.7626 20.4372 23.4118 20.4372 25.0611 20.4372C25.2908 20.4372 25.5205 20.4372 25.7503 20.4372C26.0177 20.4372 26.2783 20.2006 26.2646 19.9229C26.2543 19.6452 26.0383 19.4086 25.7503 19.4086Z" fill="#AD1E23"/>
<path d="M12.0385 16.237C12.0385 15.5238 12.0385 14.8071 12.0385 14.094C12.0385 13.8265 11.8019 13.5659 11.5242 13.5796C11.2465 13.5934 11.0099 13.8059 11.0099 14.094C11.0099 14.8071 11.0099 15.5238 11.0099 16.237C11.0099 16.5044 11.2465 16.765 11.5242 16.7513C11.8019 16.7376 12.0385 16.525 12.0385 16.237Z" fill="#AD1E23"/>
<path d="M6.0553 14.094C6.0553 14.8071 6.0553 15.5238 6.0553 16.237C6.0553 16.5044 6.29188 16.765 6.56962 16.7513C6.84735 16.7376 7.08394 16.525 7.08394 16.237C7.08394 15.5238 7.08394 14.8071 7.08394 14.094C7.08394 13.8265 6.84735 13.5659 6.56962 13.5796C6.28846 13.5899 6.0553 13.8059 6.0553 14.094Z" fill="#AD1E23"/>
<path d="M12.0385 10.0994C12.0385 9.38621 12.0385 8.66959 12.0385 7.9564C12.0385 7.68895 11.8019 7.42836 11.5242 7.44208C11.2465 7.45579 11.0099 7.66838 11.0099 7.9564C11.0099 8.66959 11.0099 9.38621 11.0099 10.0994C11.0099 10.3668 11.2465 10.6274 11.5242 10.6137C11.8019 10.6 12.0385 10.3874 12.0385 10.0994Z" fill="#AD1E23"/>
<path d="M6.0553 7.9564C6.0553 8.66959 6.0553 9.38621 6.0553 10.0994C6.0553 10.3668 6.29188 10.6274 6.56962 10.6137C6.84735 10.6 7.08394 10.3874 7.08394 10.0994C7.08394 9.38621 7.08394 8.66959 7.08394 7.9564C7.08394 7.68895 6.84735 7.42836 6.56962 7.44208C6.28846 7.45236 6.0553 7.66838 6.0553 7.9564Z" fill="#AD1E23"/>
<path d="M25.9217 16.237C25.9217 15.5238 25.9217 14.8071 25.9217 14.094C25.9217 13.8265 25.6851 13.5659 25.4074 13.5796C25.1297 13.5934 24.8931 13.8059 24.8931 14.094C24.8931 14.8071 24.8931 15.5238 24.8931 16.237C24.8931 16.5044 25.1297 16.765 25.4074 16.7513C25.6885 16.7376 25.9217 16.525 25.9217 16.237Z" fill="#AD1E23"/>
<path d="M19.9385 14.094C19.9385 14.8071 19.9385 15.5238 19.9385 16.237C19.9385 16.5044 20.1751 16.765 20.4528 16.7513C20.7305 16.7376 20.9671 16.525 20.9671 16.237C20.9671 15.5238 20.9671 14.8071 20.9671 14.094C20.9671 13.8265 20.7305 13.5659 20.4528 13.5796C20.1751 13.5899 19.9385 13.8059 19.9385 14.094Z" fill="#AD1E23"/>
</g>
</svg>
