<svg width="24" height="24" viewBox="0 0 24 24" fill="none" xmlns="http://www.w3.org/2000/svg">
<mask id="mask0" mask-type="alpha" maskUnits="userSpaceOnUse" x="0" y="0" width="24" height="24">
<rect width="24" height="24" fill="#C4C4C4"/>
</mask>
<g mask="url(#mask0)">
<path d="M4.82874 20.1832H7.55837C8.01526 20.1832 8.38712 19.8115 8.38712 19.3546V19.2664H10.3479C10.5056 19.2664 10.6537 19.3277 10.765 19.4392L11.5268 20.2012C11.847 20.5212 12.2726 20.6976 12.7253 20.6976H15.015V21.0871C15.015 21.9049 15.6803 22.5702 16.4981 22.5702H16.9152C17.733 22.5702 18.3983 21.9049 18.3983 21.0871V20.6976H18.4435C19.3018 20.6976 20 19.9994 20 19.1412V12.9935C20 12.1353 19.3018 11.437 18.4435 11.437H18.3983V7.93535C19.353 7.34865 19.9378 6.31169 19.9378 5.18286C19.9378 3.84673 19.1331 2.66692 17.8875 2.1769L17.4377 2V4.51845H15.9758V2L15.5258 2.1769C14.2802 2.6667 13.4752 3.84673 13.4752 5.18286C13.4752 6.31169 14.0603 7.34865 15.015 7.93535V8.7666C14.9304 8.73301 14.8388 8.71312 14.7423 8.71312H13.2398C12.787 8.71312 12.3615 8.88934 12.0413 9.20954L10.6391 10.6117C10.5278 10.723 10.3794 10.7845 10.222 10.7845H8.37637C8.32312 10.3784 7.97869 10.0627 7.55837 10.0627H4.82874C4.37186 10.0627 4 10.4346 4 10.8915V19.3544C4 19.8113 4.37186 20.1832 4.82874 20.1832ZM17.7396 21.0869C17.7396 21.5415 17.3698 21.9113 16.9152 21.9113H16.4981C16.0435 21.9113 15.6739 21.5415 15.6739 21.0869V20.6974H17.7398V21.0869H17.7396ZM14.1341 5.18286C14.1341 4.29035 14.5855 3.48538 15.3171 3.01913V5.17737H18.0966V3.0189C18.828 3.48515 19.2794 4.29012 19.2794 5.18263C19.2794 6.13479 18.7562 7.00513 17.9142 7.45378L17.7398 7.5468V11.437H15.6739V7.5468L15.4995 7.45378C14.6573 7.00513 14.1341 6.13502 14.1341 5.18286ZM8.38712 11.4432H10.222C10.5531 11.4432 10.8708 11.3116 11.1049 11.0775L12.507 9.67534C12.7013 9.48107 12.9648 9.37182 13.2396 9.37182H14.7421C14.788 9.37182 14.8255 9.4093 14.8255 9.45524V11.7145C14.8255 11.9252 14.9962 12.096 15.207 12.096H18.4435C18.9393 12.096 19.3411 12.4978 19.3411 12.9935V13.3976C19.3411 13.6485 19.1377 13.8517 18.8869 13.8517H18.5192C18.3373 13.8517 18.1898 13.9991 18.1898 14.1811C18.1898 14.363 18.3373 14.5104 18.5192 14.5104H18.8954C19.1415 14.5104 19.3413 14.71 19.3413 14.9563V15.4736C19.3413 15.7197 19.1418 15.9195 18.8954 15.9195H18.5192C18.3373 15.9195 18.1898 16.0669 18.1898 16.2488C18.1898 16.4307 18.3373 16.5782 18.5192 16.5782H18.8954C19.1415 16.5782 19.3413 16.7777 19.3413 17.0241V17.5413C19.3413 17.7874 19.1418 17.9872 18.8954 17.9872H18.5192C18.3373 17.9872 18.1898 18.1346 18.1898 18.3166C18.1898 18.4985 18.3373 18.6459 18.5192 18.6459H19.1175C19.241 18.6459 19.3411 18.746 19.3411 18.8694V19.1409C19.3411 19.6367 18.9393 20.0385 18.4435 20.0385H12.7251C12.4504 20.0385 12.1868 19.9292 11.9926 19.735L11.2308 18.9732C10.9965 18.7389 10.6791 18.6073 10.3477 18.6073H8.38689V11.4432H8.38712ZM4.65892 10.8915C4.65892 10.7978 4.73526 10.7214 4.82874 10.7214H7.55837C7.65208 10.7214 7.72842 10.7978 7.72842 10.8915V19.3544C7.72842 19.4481 7.65208 19.5242 7.55837 19.5242H4.82874C4.73503 19.5242 4.65892 19.4479 4.65892 19.3544V10.8915Z" fill="white" stroke="white" stroke-width="0.2"/>
</g>
</svg>
