<svg width="40" height="40" viewBox="0 0 40 40" fill="none" xmlns="http://www.w3.org/2000/svg">
<mask id="mask0" mask-type="alpha" maskUnits="userSpaceOnUse" x="0" y="0" width="40" height="40">
<rect width="40" height="40" fill="#C4C4C4"/>
</mask>
<g mask="url(#mask0)">
<path d="M8.04798 33.6386H12.5974C13.3588 33.6386 13.9786 33.0192 13.9786 32.2577V32.1107H17.2466C17.5094 32.1107 17.7562 32.2128 17.9418 32.3987L19.2114 33.6687C19.7451 34.202 20.4543 34.4961 21.2089 34.4961H25.0251V35.1452C25.0251 36.5081 26.1339 37.617 27.4969 37.617H28.1921C29.555 37.617 30.6639 36.5081 30.6639 35.1452V34.4961H30.7393C32.1697 34.4961 33.3334 33.3323 33.3334 31.902V21.6558C33.3334 20.2255 32.1697 19.0617 30.7393 19.0617H30.6639V13.2256C32.255 12.2477 33.2298 10.5195 33.2298 8.63809C33.2298 6.4112 31.8886 4.44487 29.8125 3.62816L29.0629 3.33333V7.53074H26.6265V3.33333L25.8764 3.62816C23.8004 4.44449 22.4588 6.4112 22.4588 8.63809C22.4588 10.5195 23.4339 12.2477 25.0251 13.2256V14.611C24.8841 14.555 24.7314 14.5219 24.5706 14.5219H22.0664C21.3118 14.5219 20.6025 14.8156 20.0688 15.3492L17.7319 17.6862C17.5464 17.8717 17.2991 17.9742 17.0367 17.9742H13.9607C13.8719 17.2973 13.2979 16.7712 12.5974 16.7712H8.04798C7.28651 16.7712 6.66675 17.391 6.66675 18.1525V32.2574C6.66675 33.0188 7.28651 33.6386 8.04798 33.6386ZM29.5661 35.1448C29.5661 35.9024 28.9497 36.5188 28.1921 36.5188H27.4969C26.7392 36.5188 26.1233 35.9024 26.1233 35.1448V34.4957H29.5664V35.1448H29.5661ZM23.557 8.63809C23.557 7.15058 24.3093 5.80896 25.5286 5.03187V8.62895H30.1611V5.03149C31.38 5.80858 32.1324 7.1502 32.1324 8.63771C32.1324 10.2246 31.2604 11.6752 29.8571 12.423L29.5664 12.578V19.0617H26.1233V12.578L25.8326 12.423C24.4289 11.6752 23.557 10.225 23.557 8.63809ZM13.9786 19.072H17.0367C17.5886 19.072 18.1181 18.8526 18.5082 18.4625L20.8452 16.1256C21.169 15.8018 21.6082 15.6197 22.066 15.6197H24.5702C24.6468 15.6197 24.7093 15.6822 24.7093 15.7587V19.5242C24.7093 19.8754 24.9938 20.1599 25.345 20.1599H30.7393C31.5655 20.1599 32.2352 20.8296 32.2352 21.6558V22.3293C32.2352 22.7476 31.8962 23.0862 31.4783 23.0862H30.8654C30.5622 23.0862 30.3165 23.3319 30.3165 23.6351C30.3165 23.9383 30.5622 24.184 30.8654 24.184H31.4924C31.9027 24.184 32.2356 24.5166 32.2356 24.9272V25.7893C32.2356 26.1995 31.903 26.5324 31.4924 26.5324H30.8654C30.5622 26.5324 30.3165 26.7781 30.3165 27.0814C30.3165 27.3846 30.5622 27.6303 30.8654 27.6303H31.4924C31.9027 27.6303 32.2356 27.9628 32.2356 28.3734V29.2355C32.2356 29.6457 31.903 29.9787 31.4924 29.9787H30.8654C30.5622 29.9787 30.3165 30.2244 30.3165 30.5276C30.3165 30.8308 30.5622 31.0765 30.8654 31.0765H31.8627C32.0684 31.0765 32.2352 31.2433 32.2352 31.449V31.9016C32.2352 32.7278 31.5655 33.3975 30.7393 33.3975H21.2086C20.7507 33.3975 20.3115 33.2154 19.9877 32.8916L18.7181 31.622C18.3276 31.2315 17.7985 31.0121 17.2462 31.0121H13.9782V19.072H13.9786ZM7.76496 18.1525C7.76496 17.9963 7.89218 17.8691 8.04798 17.8691H12.5974C12.7536 17.8691 12.8808 17.9963 12.8808 18.1525V32.2574C12.8808 32.4135 12.7536 32.5404 12.5974 32.5404H8.04798C7.8918 32.5404 7.76496 32.4132 7.76496 32.2574V18.1525Z" fill="#AD1E23" stroke="#AD1E23" stroke-width="0.2"/>
</g>
</svg>
