<svg width="32" height="32" viewBox="0 0 32 32" fill="none" xmlns="http://www.w3.org/2000/svg">
<path d="M16 32C24.8366 32 32 24.8366 32 16C32 7.16344 24.8366 0 16 0C7.16344 0 0 7.16344 0 16C0 24.8366 7.16344 32 16 32Z" fill="#F0F0F0"/>
<path d="M0 16.0001C0 7.1635 7.1635 0 16 0C24.8365 0 32 7.1635 32 16.0001" fill="#D80027"/>
<path d="M9.73916 8.34777C9.73916 6.01665 11.3775 4.06927 13.5652 3.59146C13.229 3.51808 12.8802 3.47827 12.5217 3.47827C9.83228 3.47827 7.65216 5.6584 7.65216 8.34783C7.65216 11.0373 9.83228 13.2174 12.5217 13.2174C12.88 13.2174 13.2289 13.1776 13.5652 13.1041C11.3775 12.6263 9.73916 10.679 9.73916 8.34777Z" fill="#F0F0F0"/>
<path d="M16 3.82617L16.3454 4.88899H17.4629L16.5587 5.54592L16.9041 6.60874L16 5.95192L15.0959 6.60874L15.4412 5.54592L14.5371 4.88899H15.6546L16 3.82617Z" fill="#F0F0F0"/>
<path d="M13.2891 5.91296L13.6345 6.97584H14.752L13.8479 7.63271L14.1933 8.69553L13.2891 8.03871L12.3849 8.69553L12.7303 7.63271L11.8261 6.97584H12.9437L13.2891 5.91296Z" fill="#F0F0F0"/>
<path d="M18.711 5.91296L19.0565 6.97584H20.174L19.2698 7.63271L19.6152 8.69553L18.711 8.03871L17.8069 8.69553L18.1523 7.63271L17.2482 6.97584H18.3657L18.711 5.91296Z" fill="#F0F0F0"/>
<path d="M17.6676 9.04346L18.013 10.1063H19.1305L18.2264 10.7632L18.5718 11.826L17.6676 11.1692L16.7635 11.826L17.1089 10.7632L16.2048 10.1063H17.3222L17.6676 9.04346Z" fill="#F0F0F0"/>
<path d="M14.3325 9.04346L14.6778 10.1063H15.7955L14.8913 10.7632L15.2367 11.826L14.3325 11.1692L13.4283 11.826L13.7737 10.7632L12.8696 10.1063H13.9872L14.3325 9.04346Z" fill="#F0F0F0"/>
</svg>
