<svg width="32" height="32" viewBox="0 0 32 32" fill="none" xmlns="http://www.w3.org/2000/svg">
<circle cx="16" cy="16" r="16" fill="#8D2029"/>
<path d="M18.7128 20.0734L18.8088 20.015L18.8505 20.0734C18.9048 20.1485 19.0591 20.1443 19.1593 20.0734L19.2386 20.0108L19.3053 20.0692C19.3888 20.1485 19.5474 20.1485 19.6517 20.0692C19.7226 20.0192 19.7351 20.015 19.7769 20.0567C19.8061 20.0817 19.8895 20.1068 19.9605 20.1193C20.094 20.136 20.094 20.136 20.1691 20.0191C20.2359 19.9232 20.2442 19.8856 20.2317 19.7896C20.22 19.7163 20.2117 19.6425 20.2067 19.5685C20.1983 19.46 20.2025 19.46 20.3569 19.4016C20.4335 19.3781 20.5087 19.3502 20.5822 19.3181C20.6448 19.2806 20.8201 19.0761 20.8201 19.0344C20.8201 19.026 20.7533 19.0093 20.6698 19.001C20.336 18.9593 20.2818 18.784 20.4988 18.4585C20.8451 17.9161 21.0579 17.3945 21.0579 17.0648C21.0579 16.9146 21.0704 16.8645 21.0871 16.8979C21.1664 17.0273 21.0245 17.5822 20.8159 17.9828L20.7324 18.1414L20.8117 18.1247C20.8534 18.1122 21.1205 17.9995 21.3959 17.8743C22.1553 17.5322 22.4141 17.4654 22.9064 17.4863C23.3196 17.503 23.4906 17.5822 23.7827 17.8869C23.9371 18.0538 24.0873 18.1664 24.3586 18.3375C24.9344 18.6964 24.9595 18.7298 24.9887 19.1554C25.0179 19.5852 25.0012 19.6102 24.6757 19.6812C24.3961 19.7437 24.2209 19.8731 24.175 20.0567C24.1499 20.1485 24.2042 20.1527 24.3419 20.0609L24.4462 19.9941L24.4921 20.0609C24.5547 20.1485 24.6799 20.1485 24.7842 20.0609L24.8677 19.9983L24.9511 20.0609C25.0763 20.1652 25.2432 20.1402 25.2933 20.0108C25.3016 19.9899 25.3267 19.9941 25.3767 20.04C25.4727 20.1235 25.7106 20.1569 25.7356 20.0901C25.7439 20.0651 25.7272 20.0066 25.6939 19.9566C25.5562 19.7479 25.5103 19.6519 25.5103 19.5393C25.5103 19.3807 25.552 19.3014 25.7356 19.1762C25.9526 19.0177 26.0193 18.8174 25.8524 18.8174C25.7523 18.8174 25.648 18.7256 25.5812 18.5795C25.4477 18.2791 25.4769 17.9453 25.6772 17.3861C25.8307 17.0571 25.9078 16.6976 25.9025 16.3346C25.9025 16.0258 25.8942 15.9757 25.8274 15.8046C25.7752 15.6857 25.7109 15.5724 25.6354 15.4666L25.5186 15.3123L25.6647 15.1871C26.1153 14.8157 26.0235 14.2065 25.4811 13.9728C25.3141 13.8977 25.2724 13.8935 24.9803 13.8935C24.8134 13.8935 24.5422 13.9185 24.3961 13.9478C24.2001 13.9788 24.0021 13.9955 23.8036 13.9978C23.5198 13.9978 23.4698 13.9895 23.3613 13.9311C23.2486 13.8726 23.2278 13.8434 23.2069 13.7016C23.2049 13.6882 23.1997 13.6755 23.1917 13.6646C23.1837 13.6537 23.1731 13.6449 23.161 13.639C23.1193 13.6265 22.944 13.7808 22.919 13.8476C22.9023 13.8852 22.8939 13.881 22.8564 13.8351C22.821 13.7896 22.7928 13.7389 22.7729 13.6849C22.7312 13.5472 22.7854 13.447 22.9482 13.3677L23.0734 13.3093L22.9983 13.2634C22.848 13.1674 22.5893 13.2342 22.4975 13.3886C22.4683 13.4303 22.4391 13.4721 22.4308 13.4721C22.4224 13.4721 22.3723 13.4303 22.3223 13.3761C22.1261 13.1841 22.1929 12.9004 22.4558 12.8169C22.5935 12.771 22.7187 12.8044 22.7437 12.9004C22.7854 13.0381 22.9023 12.8545 22.8814 12.6834C22.8689 12.5707 22.8689 12.5666 22.9482 12.5666C23.0567 12.5666 23.282 12.7084 23.3571 12.8169C23.4406 12.9463 23.4322 13.1508 23.3404 13.301L23.2695 13.4178L23.3655 13.4011C23.499 13.3719 23.6325 13.2885 23.6993 13.1841C23.7345 13.1177 23.7542 13.0442 23.7571 12.9691C23.76 12.8939 23.7459 12.8191 23.716 12.7502C23.6534 12.6375 23.6617 12.6208 23.7535 12.6584C23.9037 12.721 23.9872 12.7919 24.0456 12.9129C24.104 13.0214 24.1082 13.0464 24.079 13.1633C24.059 13.2344 24.028 13.302 23.9872 13.3636C23.9371 13.4303 23.933 13.4428 23.9747 13.4428C24.0498 13.4428 24.2 13.3719 24.2543 13.3177C24.2835 13.2843 24.3252 13.2133 24.3461 13.1508L24.3878 13.0464L24.4295 13.1299C24.4921 13.2426 24.6173 13.3469 24.7675 13.4136C24.9302 13.4804 24.997 13.4846 24.9136 13.422C24.8551 13.3803 24.7466 13.0673 24.7842 13.0381C24.9643 13.1389 25.1288 13.2654 25.2724 13.4136C25.5103 13.6265 25.6605 13.6974 25.8775 13.6974C26.157 13.6974 26.3198 13.4554 26.1946 13.2259C26.1237 13.0923 25.9609 13.0715 25.8608 13.1841C25.819 13.2384 25.8065 13.2801 25.819 13.3385C25.8357 13.4053 25.8316 13.4136 25.769 13.4136C25.6855 13.4136 25.527 13.3093 25.2432 13.0715C24.8482 12.7316 24.3942 12.4671 23.9037 12.2912C23.5715 12.2144 23.2283 12.196 22.8898 12.2369C22.6227 12.287 22.3056 12.4414 22.1303 12.6041C21.8257 12.8962 21.8215 13.2843 22.1178 13.639L22.2013 13.7391L22.147 13.8309C22.1062 13.8967 22.086 13.9731 22.089 14.0505C22.0919 14.1278 22.118 14.2025 22.1637 14.2649C22.2054 14.3233 22.2472 14.3692 22.2597 14.3692C22.268 14.3692 22.2764 14.3317 22.2805 14.2857C22.2889 14.1731 22.339 14.098 22.4224 14.0688C22.4975 14.0396 22.5476 14.0562 22.8898 14.1939C23.2528 14.3358 23.8495 14.3442 24.4838 14.219C24.7587 14.1555 25.0447 14.1584 25.3183 14.2273C25.6188 14.3525 25.6855 14.6738 25.4685 14.9158C25.3726 15.0243 25.2849 15.0661 24.9803 15.1495C24.7151 15.2195 24.4394 15.2407 24.1666 15.2121C23.716 15.2079 23.5532 15.2163 23.3738 15.2538C23.1693 15.2956 23.0483 15.2997 22.4641 15.2872L21.784 15.2705L21.8591 15.3289C21.8993 15.3647 21.9426 15.3968 21.9884 15.4249C22.0427 15.4541 22.0385 15.4583 21.9634 15.4875C21.9217 15.5042 21.8215 15.5167 21.7422 15.5167H21.6045L21.5879 15.6336C21.5766 15.6886 21.5766 15.7454 21.5879 15.8005C21.6045 15.8422 21.5962 15.8505 21.5545 15.8339C21.5253 15.8213 21.446 15.8005 21.375 15.788C21.3035 15.7726 21.2336 15.7502 21.1664 15.7212C21.0871 15.6795 21.0788 15.6795 21.0496 15.7337C21.0245 15.7754 20.7909 15.9507 20.7575 15.9507C20.7424 15.8424 20.7115 15.737 20.6657 15.6377C20.6239 15.5501 20.5864 15.45 20.5739 15.4207C20.5613 15.3748 20.553 15.3707 20.5321 15.4082C20.5196 15.4291 20.5029 15.4917 20.4904 15.5418C20.4758 15.6093 20.4504 15.6741 20.4153 15.7337L20.3527 15.8255L20.311 15.7462C20.2693 15.6628 20.2025 15.571 20.1775 15.571C20.1691 15.571 20.1566 15.596 20.1482 15.6336C20.1274 15.7003 19.9646 15.8964 19.9229 15.8964C19.9104 15.8964 19.8979 15.8422 19.8979 15.7713C19.8979 15.7087 19.8854 15.6502 19.8687 15.6502C19.852 15.6502 19.8395 15.6711 19.8395 15.692C19.8395 15.742 19.7018 15.9006 19.6517 15.9006C19.635 15.9006 19.6016 15.9173 19.5807 15.9423C19.5307 15.9966 19.4889 15.9882 19.5098 15.9257C19.5157 15.8722 19.51 15.8181 19.4931 15.7671L19.4514 15.6336C19.443 15.6127 19.393 15.621 19.2845 15.6544C19.1176 15.7087 19.0591 15.6961 19.1468 15.6294C19.1802 15.6043 19.2302 15.5167 19.2553 15.4374C19.2845 15.354 19.3262 15.283 19.3471 15.2747C19.3763 15.2664 19.3763 15.2747 19.3387 15.3248C19.3146 15.3565 19.2988 15.3938 19.2928 15.4333C19.2928 15.4541 19.272 15.5084 19.2511 15.5543C19.2261 15.596 19.2094 15.6377 19.2135 15.6419C19.2177 15.6461 19.2845 15.621 19.3596 15.5877L19.4931 15.5209V15.5793C19.4931 15.6127 19.5098 15.6961 19.5307 15.7671L19.5682 15.8923L19.66 15.8505C19.7518 15.8088 19.8395 15.6586 19.8395 15.5376C19.8395 15.4792 19.8728 15.4875 19.8895 15.5501C19.8895 15.5668 19.9146 15.6377 19.9313 15.7045L19.973 15.8213L20.0356 15.7462C20.0731 15.7045 20.1149 15.621 20.1316 15.5668C20.1649 15.4666 20.215 15.4207 20.215 15.4959C20.215 15.5459 20.3569 15.7379 20.3819 15.7212C20.3986 15.7128 20.4236 15.6419 20.4445 15.5626C20.4862 15.3957 20.5488 15.2872 20.5906 15.3123C20.6072 15.3206 20.6114 15.3373 20.6031 15.354C20.5947 15.3623 20.6281 15.4708 20.6782 15.5877C20.7145 15.6752 20.7506 15.7629 20.7867 15.8505C20.8034 15.8923 20.8201 15.8923 20.9244 15.7963C20.987 15.7379 21.0496 15.6753 21.0537 15.6544C21.0663 15.621 21.0788 15.6252 21.1372 15.6628C21.2602 15.7278 21.395 15.7675 21.5336 15.7796C21.542 15.7713 21.5503 15.6961 21.5503 15.6127L21.5545 15.4583L21.6379 15.475C21.6797 15.4875 21.7756 15.4875 21.8466 15.475L21.9717 15.4583L21.8591 15.3748C21.7965 15.3331 21.7339 15.2789 21.7172 15.2538C21.7047 15.2288 21.6463 15.2038 21.5837 15.1996C21.4126 15.1829 21.108 15.016 21.108 14.9325C21.108 14.9158 21.1497 14.945 21.1998 14.9909C21.3166 15.0953 21.4752 15.1579 21.6171 15.1579H21.7172L21.6546 15.0744C21.61 15.0097 21.5814 14.9353 21.5712 14.8574C21.5628 14.7322 21.5503 14.7155 21.4209 14.6279C21.3459 14.5748 21.2761 14.5147 21.2123 14.4485L21.1414 14.3692L21.1038 14.4652C21.0829 14.5194 21.0621 14.5612 21.0496 14.5612C21.0412 14.5612 20.9995 14.5278 20.9661 14.4902C20.9426 14.463 20.9143 14.4404 20.8827 14.4235C20.8701 14.4235 20.8409 14.4735 20.8075 14.5361L20.7491 14.6488L20.7074 14.5862C20.6703 14.535 20.6284 14.4875 20.5822 14.4443C20.5321 14.4026 20.5113 14.3692 20.528 14.3692C20.5447 14.3692 20.5989 14.4109 20.6531 14.4652L20.745 14.5612L20.7867 14.4902C20.8108 14.4411 20.8181 14.3854 20.8075 14.3317C20.7909 14.2565 20.795 14.2524 20.8201 14.3024C20.856 14.3495 20.8981 14.3916 20.9452 14.4276L21.037 14.5027L21.0996 14.3901C21.1622 14.2732 21.1622 14.2732 21.1873 14.3442C21.229 14.4318 21.5002 14.6571 21.7297 14.7865C21.7715 14.8073 21.7548 14.7406 21.688 14.5778C21.6679 14.5244 21.6567 14.468 21.6546 14.4109C21.6546 14.3358 21.6338 14.3024 21.5378 14.2273C21.4781 14.1892 21.4282 14.1376 21.392 14.0768C21.3557 14.0159 21.3342 13.9475 21.3291 13.8768C21.3166 13.8059 21.2916 13.7308 21.2707 13.7057C21.2457 13.664 21.2373 13.689 21.2457 13.8142C21.254 13.9019 21.2415 14.0103 21.2206 14.0562L21.1873 14.1397L21.1622 14.0688C21.1455 14.0312 21.0788 13.9644 21.0162 13.9227C20.9536 13.881 20.9077 13.8393 20.916 13.8309C20.9244 13.8226 20.9911 13.8601 21.0621 13.9144C21.1747 14.002 21.1956 14.0103 21.2123 13.9728C21.229 13.9311 21.2123 13.7391 21.1789 13.6056C21.1622 13.5388 21.1622 13.5388 21.2457 13.6223C21.3041 13.6807 21.3375 13.7558 21.3667 13.881C21.4001 14.0396 21.4168 14.0688 21.5628 14.1981C21.6504 14.2774 21.7297 14.3358 21.7339 14.3317C21.7422 14.3233 21.7506 14.123 21.7589 13.881C21.7756 13.4178 21.7589 13.3051 21.6463 13.1633L21.5879 13.0882L21.6797 12.9922C21.7825 12.8938 21.8512 12.7652 21.8758 12.625L21.8925 12.5123L21.7923 12.6083C21.7089 12.6876 21.6671 12.7043 21.5712 12.7043C21.4752 12.7043 21.4376 12.6876 21.375 12.6208C21.2775 12.527 21.1587 12.4582 21.0287 12.4205C20.9786 12.4038 20.9619 12.4122 20.9619 12.4456C20.9619 12.4706 20.9369 12.5374 20.9035 12.5999L20.8451 12.7084L20.7199 12.5833C20.6406 12.5123 20.553 12.4497 20.4821 12.433C20.311 12.3913 20.3026 12.3913 20.3026 12.5207C20.3026 12.7168 20.2192 12.7543 20.069 12.625C19.9521 12.5248 19.8603 12.4998 19.6392 12.529L19.4723 12.5457L19.5015 12.6208C19.5265 12.6834 19.5223 12.7126 19.4681 12.7835C19.3805 12.9004 19.2678 12.9505 19.0925 12.9505C19.0091 12.9505 18.9089 12.9672 18.8672 12.988C18.8255 13.0089 18.717 13.0297 18.6294 13.0381C18.5459 13.0464 18.4499 13.0631 18.4207 13.0715C18.379 13.0882 18.379 13.0715 18.3915 12.9797C18.4124 12.8378 18.308 12.7293 18.1537 12.7293C17.9492 12.7293 17.8574 12.9129 17.9367 13.1549C17.9529 13.2071 17.9668 13.26 17.9784 13.3135C18.0332 13.4178 18.1068 13.5112 18.1954 13.5889C18.3039 13.6974 18.404 13.8101 18.4207 13.8393C18.4543 13.8828 18.497 13.9184 18.5459 13.9436L18.6377 13.9937L18.6252 13.8935C18.6127 13.785 18.6335 13.7683 18.6919 13.8476C18.7128 13.8726 18.7671 13.9185 18.8088 13.9436C18.8797 13.9853 18.8922 13.9853 18.8922 13.9519C18.8922 13.9269 18.9048 13.8726 18.9214 13.8309L18.9507 13.7558L19.0049 13.8601C19.0341 13.9185 19.1301 14.0479 19.2177 14.1522C19.3888 14.3483 19.4973 14.5695 19.443 14.6196C19.418 14.6404 19.3596 14.6404 19.2344 14.6154C19.1426 14.5987 19.0258 14.5862 18.9757 14.5945C18.8797 14.6071 18.8714 14.5945 18.934 14.5194C18.9966 14.436 18.984 14.4235 18.8589 14.4235C18.7128 14.4235 18.3498 14.3525 18.2079 14.2983C18.0744 14.244 18.041 14.2565 17.9993 14.3859L17.9283 14.6196L17.8866 14.7448L18.0368 14.7322C18.1143 14.7241 18.191 14.7102 18.2663 14.6905C18.2959 14.6807 18.327 14.6764 18.3581 14.678C18.3665 14.6822 18.3456 14.7322 18.3164 14.7907L18.258 14.8908L18.3498 14.8741C18.3998 14.8616 18.475 14.8366 18.5167 14.8157C18.5918 14.7823 18.6001 14.7823 18.6586 14.8783C18.7295 14.9909 18.7837 14.9868 18.7963 14.8658C18.8088 14.7406 18.8505 14.7573 18.9298 14.9242C19.0049 15.0828 19.08 15.1412 19.0967 15.0494C19.1009 15.016 19.1384 14.9659 19.1843 14.9325C19.2761 14.8699 19.3429 14.8908 19.3805 14.9868C19.4222 15.0911 19.3304 15.1954 19.0717 15.354C18.8321 15.4863 18.6259 15.6716 18.469 15.8958C18.312 16.12 18.2085 16.3772 18.1662 16.6475C18.0869 17.1399 18.3331 17.649 18.8171 18.0204C19.0508 18.1956 19.4222 18.3792 19.3971 18.3125C19.297 18.0079 19.3012 17.4362 19.4013 17.3402C19.418 17.3235 19.4138 17.382 19.3888 17.4696C19.3053 17.7992 19.3471 18.0579 19.5557 18.6672C19.7393 19.218 19.7143 19.4558 19.4472 19.6102C19.3638 19.6603 19.3095 19.6686 19.08 19.6645C18.8296 19.6645 18.8004 19.6645 18.7212 19.7312C18.6253 19.8291 18.5625 19.9546 18.5417 20.0901C18.5417 20.1443 18.6001 20.136 18.7086 20.0734H18.7128Z" fill="#FFB700"/>
<path d="M22.7604 20.06L22.8647 19.9932L22.9356 20.06C23.0274 20.1476 23.1401 20.1435 23.2277 20.0558C23.2694 20.0141 23.3028 19.9891 23.307 19.9932L23.3446 20.06C23.3654 20.0976 23.4113 20.1143 23.4948 20.1226C23.5908 20.1268 23.62 20.1226 23.6617 20.0642L23.7034 19.9932L23.8077 20.06C24.0915 20.2436 24.2417 20.0517 24.1123 19.6719C24.0498 19.48 24.0873 19.3715 24.2918 19.1295C24.3794 19.0252 24.4503 18.9125 24.4503 18.8791C24.4503 18.8332 24.4337 18.8249 24.3168 18.829C24.2083 18.829 24.1749 18.8165 24.1165 18.7539C24.0205 18.6496 24.0289 18.5286 24.1332 18.3951L24.2167 18.2908L24.0664 18.1906C23.9465 18.102 23.8348 18.0029 23.7326 17.8943C23.6415 17.7868 23.5302 17.6983 23.4049 17.6339C23.2796 17.5695 23.1428 17.5304 23.0024 17.5188L22.8063 17.4979V17.6482C22.8063 17.8359 22.8981 18.0195 23.1401 18.3283C23.4155 18.6788 23.4322 18.7331 23.4447 19.1921L23.4572 19.5801L23.3738 19.6553C23.3028 19.722 23.2736 19.7345 23.0399 19.7471C22.8188 19.7596 22.7687 19.7721 22.7061 19.8305C22.6329 19.8839 22.5823 19.9628 22.5642 20.0517C22.5517 20.1143 22.5559 20.1268 22.6018 20.1268C22.631 20.1268 22.7019 20.0976 22.7604 20.06V20.06ZM16.8267 19.0585C16.8519 19.0215 16.8664 18.9782 16.8684 18.9334C16.8684 18.8916 16.8934 18.8749 17.0019 18.8583L17.1313 18.8416L17.0478 18.7706C16.9435 18.6872 16.931 18.6246 17.0228 18.6246C17.1146 18.6246 17.2648 18.5328 17.2899 18.4618C17.3024 18.4285 17.2899 18.3867 17.2732 18.3659C17.2231 18.3074 17.1271 18.3158 17.1104 18.3826C17.0896 18.4493 17.0604 18.4493 16.9852 18.3826C16.8809 18.2782 16.8768 18.0654 16.9852 17.9402C17.0311 17.8818 17.0311 17.8818 16.9686 17.8192C16.9018 17.7525 16.8517 17.6273 16.8851 17.5939C16.8934 17.5856 16.9477 17.5939 17.0019 17.6148C17.0854 17.6398 17.1146 17.6398 17.148 17.6148C17.244 17.5355 17.1396 17.4353 16.9811 17.4604C16.9143 17.4687 16.8893 17.4604 16.8809 17.427C16.8726 17.402 16.8183 17.3686 16.7557 17.3519C16.6431 17.3227 16.6431 17.3227 16.6431 17.402C16.6431 17.4854 16.593 17.5021 16.5012 17.4479C16.4261 17.4061 16.3552 17.4395 16.3552 17.5188C16.3552 17.5939 16.4261 17.6273 16.5638 17.6189C16.6639 17.6148 16.6681 17.6899 16.5721 17.7984L16.5012 17.8818L16.5554 17.9611C16.6389 18.0779 16.6306 18.2741 16.5429 18.3742L16.472 18.4493L16.4261 18.3867C16.3593 18.3033 16.2717 18.3074 16.2467 18.3992C16.2341 18.4577 16.2467 18.4827 16.3218 18.5495C16.3718 18.5912 16.447 18.6246 16.4845 18.6246C16.5805 18.6246 16.5763 18.7039 16.4762 18.779L16.3927 18.8416L16.5179 18.8583C16.5847 18.8708 16.6431 18.8875 16.6431 18.9C16.6431 18.9542 16.7265 19.117 16.7516 19.117C16.7683 19.117 16.8016 19.0878 16.8267 19.0544V19.0585Z" fill="#FFB700"/>
<path d="M18.4204 18.366C18.5331 18.3243 18.7751 18.1157 18.7751 18.0698C18.7751 18.0531 18.7083 17.978 18.6249 17.9029C18.458 17.7526 18.2702 17.4898 18.2201 17.3395C18.1951 17.2561 18.0741 17.1226 17.7319 16.7887L17.2771 16.3506L17.1477 16.384C17.0726 16.4007 16.985 16.4174 16.9516 16.4174C16.889 16.4174 16.889 16.4173 16.9725 16.4841L17.0559 16.5509L17.1811 16.4841C17.2938 16.4173 17.2979 16.4174 17.3104 16.4716C17.3188 16.5008 17.3021 16.5551 17.2687 16.5926C17.2395 16.6302 17.2228 16.6761 17.227 16.6886C17.2395 16.7011 17.2103 16.7303 17.1644 16.7553C17.0809 16.7971 17.0184 16.9348 17.0851 16.9348C17.1477 16.9348 17.2812 16.7679 17.2645 16.7136C17.2562 16.6844 17.2645 16.6552 17.2729 16.6469C17.3271 16.6176 17.323 16.747 17.2729 16.8138C17.2395 16.8471 17.2228 16.8889 17.2312 16.9056C17.2395 16.9181 17.2103 16.9473 17.1644 16.9723C17.0809 17.0141 17.0184 17.1518 17.0851 17.1518C17.1519 17.1518 17.2812 16.9932 17.2687 16.9348C17.2604 16.9056 17.2604 16.8722 17.2729 16.8638C17.3104 16.8471 17.3271 16.9473 17.2979 16.9974C17.2903 17.0115 17.2862 17.0272 17.2862 17.0433C17.2862 17.0593 17.2903 17.0751 17.2979 17.0892C17.3271 17.1434 17.2979 17.2436 17.2437 17.2769C17.2228 17.2895 17.2353 17.3187 17.2938 17.3604C17.3772 17.4188 17.3772 17.4272 17.3772 17.6942C17.3772 17.9196 17.3856 17.978 17.4273 18.0155C17.469 18.0573 17.4774 18.0573 17.4774 18.0155C17.4774 17.9738 17.5608 17.9154 17.6234 17.9154C17.6443 17.9154 17.7653 18.0197 17.8946 18.1449C18.024 18.2701 18.1617 18.3827 18.1993 18.3869L18.2911 18.4036C18.3036 18.4036 18.362 18.3911 18.4204 18.3619V18.366ZM17.0309 17.2769C17.0309 17.206 16.8807 17.1267 16.7012 17.11C16.5552 17.0892 16.5552 17.0933 16.5552 17.1643C16.5552 17.2227 16.576 17.2477 16.6804 17.2895C16.8389 17.3604 17.0309 17.3521 17.0309 17.2769Z" fill="#FFB700"/>
<path d="M17.1938 17.2686C17.2689 17.2018 17.3023 17.1267 17.2564 17.1267C17.2063 17.1267 17.0728 17.2436 17.0728 17.2936C17.0728 17.3604 17.0979 17.3562 17.198 17.2686H17.1938ZM17.0394 17.0558C17.0436 17.014 17.0186 16.989 16.9435 16.9515C16.7766 16.8805 16.5846 16.843 16.5387 16.8805C16.4511 16.9515 16.5095 17.0433 16.6472 17.0599C16.7056 17.0641 16.7807 17.0808 16.8183 17.0975C16.9268 17.1392 17.0269 17.1184 17.0394 17.0558V17.0558ZM17.0394 16.8346C17.0478 16.7804 17.0102 16.7595 16.7056 16.651C16.4761 16.5676 16.376 16.6093 16.4511 16.747C16.4761 16.7929 16.5178 16.8138 16.6138 16.8304C16.6848 16.8388 16.7807 16.8597 16.8266 16.8763C16.9518 16.9181 17.0269 16.9014 17.0353 16.8346H17.0394ZM17.1897 16.6302C17.2356 16.5843 17.2731 16.53 17.2731 16.505C17.2731 16.4424 17.0937 16.5592 17.0686 16.6427C17.0436 16.7386 17.0895 16.7345 17.1938 16.6302H17.1897ZM17.0394 16.6176C17.0478 16.5509 16.9393 16.4925 16.7223 16.4466C16.5596 16.409 16.4886 16.4299 16.5011 16.505C16.5095 16.5467 16.5637 16.5759 16.7098 16.6218C16.956 16.6969 17.0269 16.6969 17.0394 16.6176V16.6176ZM17.2481 16.3089C17.5318 16.1837 17.5527 15.8707 17.2898 15.7873C17.1813 15.7539 17.1145 15.7747 17.0728 15.8457C17.0394 15.9041 17.0603 16.0042 17.102 16.0042C17.1187 16.0042 17.1312 16.0251 17.1312 16.046C17.1312 16.1586 16.7056 16.2045 16.5304 16.1169C16.4678 16.0877 16.4469 16.0042 16.4928 16.0042C16.5345 16.0042 16.5596 15.9208 16.5387 15.8665C16.5137 15.7831 16.4302 15.7581 16.3175 15.7914C16.0547 15.8582 16.063 16.167 16.3301 16.2922C16.6255 16.4006 16.9489 16.4065 17.2481 16.3089V16.3089Z" fill="#FFB700"/>
<path d="M17.0775 16.0668C17.0942 16.0501 17.0859 16.0251 17.0608 16.0084C17.0024 15.9625 17.0066 15.8916 17.0692 15.8123C17.1192 15.7539 17.1234 15.6621 17.1401 14.7649C17.1693 13.2168 17.2862 12.0526 17.4364 11.7689C17.499 11.6604 17.4906 11.6604 17.3321 11.7689C17.124 11.9138 16.9561 12.109 16.8438 12.3364C16.5851 12.8162 16.4975 13.463 16.4975 14.8484C16.4975 15.6329 16.5017 15.7372 16.5476 15.8081C16.5893 15.8832 16.5893 15.9083 16.5643 15.9834C16.5434 16.0293 16.5351 16.0793 16.5434 16.0877C16.6018 16.1419 17.0191 16.1294 17.0775 16.0668ZM19.4184 14.5897C19.431 14.5771 19.4101 14.5062 19.3767 14.4394C19.3266 14.331 19.3058 14.3143 19.2348 14.3143C18.9012 14.2853 18.5758 14.1947 18.2751 14.0472C18.0623 13.9512 17.983 13.9304 17.9621 13.9554C17.8954 14.018 18.0039 14.164 18.1708 14.2433C18.4164 14.3318 18.6737 14.3839 18.9344 14.3977C19.0471 14.3977 19.0512 14.3977 18.9845 14.4937L18.9427 14.5605H19.0679L19.2766 14.5855C19.4018 14.6147 19.4018 14.6147 19.4184 14.5897V14.5897Z" fill="#FFB700"/>
<path d="M20.7363 15.2861C20.7363 15.2443 20.6153 15.14 20.4985 15.0691C20.4025 15.0148 20.3858 15.0107 20.3858 15.0566C20.3858 15.1233 20.3274 15.2944 20.3024 15.2944C20.2899 15.2944 20.269 15.261 20.2606 15.2235C20.2481 15.1817 20.2022 15.0983 20.1563 15.044L20.0729 14.9397L20.0145 15.0357C19.956 15.1275 19.8517 15.2151 19.8058 15.2151C19.7975 15.2151 19.7933 15.165 19.8058 15.1108C19.81 15.044 19.8058 14.994 19.785 14.9856C19.7683 14.9731 19.7516 14.9773 19.7516 14.994C19.7516 15.0273 19.6097 15.1859 19.5847 15.1859C19.568 15.1859 19.5513 15.1442 19.5429 15.0858L19.5095 14.8855C19.5012 14.8354 19.5221 14.8688 19.5513 14.9689L19.618 15.14L19.6848 15.0357C19.715 14.9926 19.7376 14.9446 19.7516 14.8938C19.7516 14.873 19.7641 14.8646 19.7808 14.873C19.7975 14.8813 19.8183 14.9522 19.8267 15.0273L19.8475 15.1692L19.9227 15.0858C19.962 15.0439 19.9982 14.9993 20.0311 14.9522C20.0604 14.9022 20.0645 14.9022 20.1271 14.9522C20.1605 14.9856 20.2147 15.0566 20.2481 15.115C20.2815 15.1734 20.3107 15.2151 20.3149 15.2109L20.3399 15.0774L20.3566 14.9522C20.3608 14.9314 20.5819 15.0774 20.6654 15.1484C20.7155 15.1943 20.7656 15.2276 20.7739 15.2193C20.7822 15.2109 20.7906 15.1442 20.7906 15.0649C20.7906 14.9481 20.7781 14.9147 20.7071 14.8521C20.6237 14.777 20.6237 14.777 20.5903 14.8312C20.5486 14.9022 20.5027 14.9022 20.5027 14.8312C20.5027 14.7812 20.3441 14.585 20.3065 14.585C20.294 14.585 20.2606 14.6268 20.2314 14.681C20.2022 14.7353 20.1688 14.777 20.1605 14.777C20.1188 14.777 19.8976 14.5266 19.8976 14.4849C19.8976 14.4515 19.9143 14.4598 19.9519 14.5183C19.9892 14.5731 20.0326 14.6235 20.0812 14.6685C20.1647 14.7436 20.1981 14.7269 20.2314 14.5809C20.244 14.5391 20.2606 14.5057 20.2732 14.5057C20.3065 14.5057 20.4985 14.7102 20.5235 14.777L20.5527 14.8437L20.5736 14.7686C20.5986 14.6768 20.6278 14.6768 20.6696 14.7603C20.6863 14.7937 20.7697 14.8688 20.8532 14.9189L21.0076 15.019L21.0368 14.9189C21.0535 14.8646 21.0785 14.8354 21.0869 14.8521C21.1035 14.873 21.0618 15.0399 21.0326 15.0732C21.0326 15.0774 20.9784 15.0482 20.9241 15.0107L20.8198 14.9355V15.0691C20.8198 15.14 20.8115 15.2276 20.8031 15.261C20.7822 15.3278 20.7322 15.3445 20.7322 15.2861H20.7363ZM19.9644 14.2262C19.7808 14.076 19.7557 14.0426 19.7557 13.9675L19.7599 13.8924L19.7724 13.9633C19.7808 14.005 19.8309 14.0718 19.8893 14.1219L19.9978 14.2053L20.0604 14.1302C20.0979 14.0885 20.1271 14.0384 20.1271 14.0217C20.1271 13.9716 20.1355 13.9758 20.2606 14.0843C20.3691 14.1803 20.3733 14.1803 20.3858 14.1177C20.3983 14.0843 20.3942 14.0175 20.3858 13.9716C20.3441 13.8465 20.3524 13.8298 20.4067 13.9049L20.5068 14.0217C20.5486 14.0676 20.5527 14.0676 20.5694 14.0092C20.5819 13.9716 20.5903 13.909 20.5903 13.8673V13.788L20.6863 13.9007C20.7822 14.0092 20.7906 14.0134 20.8156 13.9591C20.8365 13.9299 20.849 13.859 20.849 13.8047C20.849 13.7296 20.8574 13.7129 20.874 13.738C20.9074 13.788 20.8866 13.9132 20.8281 14.0217L20.7864 14.1052L20.7322 14.0175C20.6612 13.909 20.6362 13.909 20.5945 14.0259C20.5527 14.1385 20.5235 14.1469 20.4818 14.0593C20.4568 14.005 20.4484 14.0134 20.4317 14.1302L20.4109 14.2554L20.2857 14.1594L20.1605 14.0634L20.0979 14.126C20.0687 14.1636 20.0437 14.2095 20.0437 14.2262C20.0437 14.2679 20.0103 14.2679 19.9644 14.2262V14.2262ZM21.5918 13.6587C21.5292 13.6003 21.4833 13.5418 21.4916 13.5335C21.5041 13.521 21.5125 13.5168 21.5167 13.5251C21.557 13.5682 21.5988 13.6099 21.6418 13.6503C21.7837 13.8005 21.7545 13.8047 21.5959 13.6587H21.5918ZM19.4219 13.4333C19.3635 13.3499 19.3677 13.2998 19.4428 13.208C19.4929 13.1454 19.5179 13.1371 19.6097 13.1496C19.6723 13.1538 19.8016 13.208 19.8976 13.2664C20.0363 13.3493 20.1951 13.3926 20.3566 13.3916L20.2857 13.2748C20.1939 13.1371 20.1939 13.1204 20.3024 13.2038C20.4109 13.2915 20.5402 13.3165 20.8323 13.3082L20.9742 13.304L20.8907 13.2205C20.7781 13.1079 20.8115 13.0954 20.9408 13.208C21.0576 13.3123 21.0535 13.3207 20.7989 13.3457C20.6928 13.3564 20.5856 13.3494 20.4818 13.3249C20.3399 13.2831 20.3316 13.2873 20.3608 13.3332C20.3775 13.3624 20.4025 13.3833 20.415 13.3833C20.4317 13.3833 20.4442 13.4 20.4442 13.4167C20.4442 13.4709 20.1355 13.4208 19.9852 13.3499C19.6514 13.1788 19.6097 13.1621 19.5262 13.1872C19.504 13.1957 19.4837 13.2086 19.4665 13.2251C19.4493 13.2415 19.4356 13.2613 19.4261 13.2831C19.3718 13.4208 19.568 13.5293 19.6472 13.4083C19.6723 13.3708 19.6681 13.3499 19.6264 13.304C19.568 13.2456 19.5763 13.2372 19.6514 13.2623C19.7057 13.2831 19.7098 13.4125 19.6598 13.4626C19.6055 13.5168 19.472 13.5043 19.4219 13.4333Z" fill="black"/>
<path d="M20.7531 13.0951C20.7114 13.0534 20.7448 13.0451 20.9325 13.0409C21.1662 13.0367 21.3081 12.9992 21.475 12.8907C21.6085 12.8072 21.6461 12.8239 21.5167 12.9115C21.4041 12.995 21.2246 13.0534 21.0452 13.0701L20.8324 13.0993C20.799 13.1077 20.7614 13.1035 20.7489 13.0951H20.7531Z" fill="black"/>
<path d="M1.625 16.2188L7.375 3.65625L12.2239 1.125V31.3125L6.92446 27.9375L1.625 16.2188Z" fill="#FF5B00"/>
<path d="M1.65625 9.40625L8.04102 3V28.8125L1.65625 22.5625V9.40625Z" fill="#005641"/>
<path d="M32 16C32 24.8366 24.8366 32 16 32C7.16344 32 0 24.8366 0 16C0 7.16344 7.16344 0 16 0C24.8366 0 32 7.16344 32 16ZM1.77556 16C1.77556 23.8559 8.14406 30.2244 16 30.2244C23.8559 30.2244 30.2244 23.8559 30.2244 16C30.2244 8.14406 23.8559 1.77556 16 1.77556C8.14406 1.77556 1.77556 8.14406 1.77556 16Z" fill="#FFB700"/>
<path d="M11.25 2.05078L13.125 1.34766V29.0625L11.25 28.2129V2.05078Z" fill="#FFB700"/>
</svg>
