<svg width="40" height="40" viewBox="0 0 40 40" fill="none" xmlns="http://www.w3.org/2000/svg">
<mask id="mask0" mask-type="alpha" maskUnits="userSpaceOnUse" x="0" y="0" width="40" height="40">
<rect width="40" height="40" fill="#C4C4C4"/>
</mask>
<g mask="url(#mask0)">
<path d="M19.9732 4C15.7378 4 11.6758 5.6825 8.68096 8.67738C5.68608 11.6723 4.00358 15.7342 4.00358 19.9696C3.98949 24.132 5.61575 28.1323 8.53012 31.1042C8.25119 31.7306 7.87995 32.3116 7.42878 32.8278C6.61102 33.7686 5.55545 34.4723 4.37253 34.8653C4.25368 34.906 4.1523 34.986 4.08519 35.0922C4.01808 35.1983 3.98929 35.3243 4.00358 35.449C4.01698 35.5754 4.07365 35.6932 4.16397 35.7825C4.2543 35.8718 4.37272 35.9272 4.49918 35.9391C4.96726 35.9777 5.42982 35.9997 5.8979 35.9997C7.36098 36.0086 8.81743 35.8026 10.2207 35.3885C11.1379 35.105 12.0265 34.7363 12.875 34.2871C15.031 35.3523 17.3999 35.9168 19.8046 35.9385C22.2094 35.9601 24.588 35.4384 26.7629 34.4122C28.9379 33.386 30.8529 31.8819 32.3652 30.012C33.8775 28.1422 34.948 25.9549 35.4967 23.6135C36.0455 21.2721 36.0583 18.837 35.5343 16.4899C35.0103 14.1428 33.963 11.9444 32.4705 10.0587C30.978 8.17297 29.0789 6.6487 26.915 5.59961C24.751 4.55053 22.378 4.00372 19.9732 4ZM19.9732 34.8378C17.5894 34.8514 15.2382 34.2844 13.1228 33.1858C13.0431 33.1433 12.9542 33.1212 12.8639 33.1212C12.7737 33.1212 12.6848 33.1433 12.6051 33.1858C11.7453 33.6474 10.8389 34.0165 9.90131 34.2871C8.89282 34.5907 7.85234 34.7755 6.80101 34.8378C7.34541 34.4575 7.84106 34.0118 8.27681 33.5107C8.882 32.8092 9.36085 32.008 9.69205 31.1428C9.73166 31.0422 9.74077 30.9321 9.71825 30.8263C9.69573 30.7206 9.64257 30.6238 9.56539 30.548C7.11398 28.1268 5.57956 24.9294 5.2244 21.5022C4.86924 18.075 5.71539 14.6309 7.61822 11.7585C9.52106 8.88604 12.3624 6.76364 15.6567 5.75403C18.951 4.74442 22.4937 4.91028 25.6793 6.22327C28.8648 7.53625 31.4955 9.91485 33.1216 12.9525C34.7477 15.9902 35.2684 19.4983 34.5946 22.8773C33.9207 26.2563 32.0943 29.2964 29.4274 31.478C26.7605 33.6595 23.4187 34.8471 19.9732 34.8378Z" fill="#AD1E23" stroke="#AD1E23" stroke-width="0.4"/>
<path d="M19.9731 21.6216C20.8855 21.6216 21.6251 20.882 21.6251 19.9696C21.6251 19.0572 20.8855 18.3176 19.9731 18.3176C19.0607 18.3176 18.321 19.0572 18.321 19.9696C18.321 20.882 19.0607 21.6216 19.9731 21.6216Z" fill="#AD1E23" stroke="#AD1E23" stroke-width="0.4"/>
<path d="M27.6825 21.6216C28.5949 21.6216 29.3346 20.882 29.3346 19.9696C29.3346 19.0572 28.5949 18.3176 27.6825 18.3176C26.7702 18.3176 26.0305 19.0572 26.0305 19.9696C26.0305 20.882 26.7702 21.6216 27.6825 21.6216Z" fill="#AD1E23" stroke="#AD1E23" stroke-width="0.4"/>
<path d="M12.8144 21.6216C13.7268 21.6216 14.4664 20.882 14.4664 19.9696C14.4664 19.0572 13.7268 18.3176 12.8144 18.3176C11.902 18.3176 11.1624 19.0572 11.1624 19.9696C11.1624 20.882 11.902 21.6216 12.8144 21.6216Z" fill="#AD1E23" stroke="#AD1E23" stroke-width="0.4"/>
</g>
</svg>
