<svg width="45" height="45" viewBox="0 0 45 45" fill="none" xmlns="http://www.w3.org/2000/svg">
<circle cx="22.5" cy="22.5" r="22.5" fill="#3A559F"/>
<path d="M25.9749 14.5999L23.8375 14.5964C21.4363 14.5964 19.8845 16.1885 19.8845 18.6527V20.5229H17.7355C17.5498 20.5229 17.3994 20.6734 17.3994 20.8591V23.5688C17.3994 23.7545 17.55 23.9049 17.7355 23.9049H19.8845V30.7424C19.8845 30.9281 20.0349 31.0785 20.2206 31.0785H23.0244C23.2101 31.0785 23.3605 30.9279 23.3605 30.7424V23.9049H25.8732C26.0589 23.9049 26.2093 23.7545 26.2093 23.5688L26.2103 20.8591C26.2103 20.77 26.1748 20.6846 26.1119 20.6215C26.049 20.5584 25.9632 20.5229 25.8741 20.5229H23.3605V18.9375C23.3605 18.1755 23.5421 17.7887 24.5347 17.7887L25.9745 17.7881C26.1601 17.7881 26.3104 17.6376 26.3104 17.4521V14.9359C26.3104 14.7506 26.1602 14.6002 25.9749 14.5999Z" fill="white"/>
</svg>
