<svg width="58" height="42" viewBox="0 0 58 42" fill="none" xmlns="http://www.w3.org/2000/svg">
<path d="M6.5758 7.83133C6.71212 7.59118 6.62794 7.28599 6.38779 7.14968C6.14764 7.01336 5.84246 7.09753 5.70614 7.33768L6.5758 7.83133ZM2.97291 12.1528C2.8366 12.393 2.92077 12.6982 3.16092 12.8345C3.40107 12.9708 3.70626 12.8866 3.84258 12.6465L2.97291 12.1528ZM2.61361 8.19064C2.37346 8.05432 2.06827 8.13849 1.93195 8.37864C1.79564 8.61879 1.87981 8.92398 2.11996 9.0603L2.61361 8.19064ZM6.93511 11.7935C7.17526 11.9298 7.48044 11.8457 7.61676 11.6055C7.75308 11.3654 7.6689 11.0602 7.42875 10.9239L6.93511 11.7935ZM5.70614 7.33768L2.97291 12.1528L3.84258 12.6465L6.5758 7.83133L5.70614 7.33768ZM2.11996 9.0603L6.93511 11.7935L7.42875 10.9239L2.61361 8.19064L2.11996 9.0603Z" fill="#AD1E23"/>
<path d="M55.0275 31.6844C55.1638 31.4443 55.0796 31.1391 54.8395 31.0028C54.5993 30.8664 54.2941 30.9506 54.1578 31.1908L55.0275 31.6844ZM51.4246 36.0059C51.2883 36.2461 51.3724 36.5513 51.6126 36.6876C51.8527 36.8239 52.1579 36.7397 52.2942 36.4996L51.4246 36.0059ZM51.0653 32.0437C50.8251 31.9074 50.5199 31.9916 50.3836 32.2317C50.2473 32.4719 50.3315 32.7771 50.5716 32.9134L51.0653 32.0437ZM55.3868 35.6466C55.6269 35.7829 55.9321 35.6988 56.0684 35.4586C56.2047 35.2185 56.1206 34.9133 55.8804 34.7769L55.3868 35.6466ZM54.1578 31.1908L51.4246 36.0059L52.2942 36.4996L55.0275 31.6844L54.1578 31.1908ZM50.5716 32.9134L55.3868 35.6466L55.8804 34.7769L51.0653 32.0437L50.5716 32.9134Z" fill="#AD1E23"/>
<path d="M7.71686 26.7227C7.85318 26.4826 7.769 26.1774 7.52885 26.0411C7.2887 25.9047 6.98351 25.9889 6.8472 26.2291L7.71686 26.7227ZM5.09242 29.3205C4.95611 29.5606 5.04028 29.8658 5.28043 30.0021C5.52058 30.1384 5.82577 30.0543 5.96209 29.8141L5.09242 29.3205ZM5.10576 26.7094C4.86561 26.5731 4.56043 26.6572 4.42411 26.8974C4.28779 27.1375 4.37197 27.4427 4.61212 27.579L5.10576 26.7094ZM7.70352 29.3338C7.94367 29.4701 8.24886 29.386 8.38517 29.1458C8.52149 28.9057 8.43732 28.6005 8.19717 28.4642L7.70352 29.3338ZM6.8472 26.2291L5.09242 29.3205L5.96209 29.8141L7.71686 26.7227L6.8472 26.2291ZM4.61212 27.579L7.70352 29.3338L8.19717 28.4642L5.10576 26.7094L4.61212 27.579Z" fill="#AD1E23"/>
<path d="M51.6959 14.0508C51.8322 13.8106 51.748 13.5054 51.5079 13.3691C51.2677 13.2328 50.9625 13.317 50.8262 13.5571L51.6959 14.0508ZM49.0714 16.6485C48.9351 16.8887 49.0193 17.1939 49.2594 17.3302C49.4996 17.4665 49.8048 17.3823 49.9411 17.1422L49.0714 16.6485ZM49.0848 14.0374C48.8446 13.9011 48.5394 13.9853 48.4031 14.2255C48.2668 14.4656 48.351 14.7708 48.5911 14.9071L49.0848 14.0374ZM51.6825 16.6619C51.9227 16.7982 52.2279 16.714 52.3642 16.4739C52.5005 16.2337 52.4163 15.9285 52.1762 15.7922L51.6825 16.6619ZM50.8262 13.5571L49.0714 16.6485L49.9411 17.1422L51.6959 14.0508L50.8262 13.5571ZM48.5911 14.9071L51.6825 16.6619L52.1762 15.7922L49.0848 14.0374L48.5911 14.9071Z" fill="#AD1E23"/>
<path d="M24.2613 1.96483C24.3976 1.72468 24.3134 1.41949 24.0733 1.28318C23.8331 1.14686 23.5279 1.23103 23.3916 1.47118L24.2613 1.96483ZM21.9556 4.00102C21.8193 4.24117 21.9035 4.54636 22.1436 4.68267C22.3838 4.81899 22.6889 4.73482 22.8253 4.49467L21.9556 4.00102ZM22.0903 1.83009C21.8502 1.69377 21.545 1.77794 21.4087 2.01809C21.2724 2.25825 21.3565 2.56343 21.5967 2.69975L22.0903 1.83009ZM24.1265 4.13576C24.3667 4.27208 24.6719 4.18791 24.8082 3.94775C24.9445 3.7076 24.8603 3.40242 24.6202 3.2661L24.1265 4.13576ZM23.3916 1.47118L21.9556 4.00102L22.8253 4.49467L24.2613 1.96483L23.3916 1.47118ZM21.5967 2.69975L24.1265 4.13576L24.6202 3.2661L22.0903 1.83009L21.5967 2.69975Z" fill="#AD1E23"/>
<path d="M42.0671 25.2344V41.2521H16.5845V25.2344" stroke="#AD1E23" stroke-width="1.2"/>
<path d="M44.9791 17.9538H13.6719V25.2345H44.9791V17.9538Z" stroke="#AD1E23" stroke-width="1.2"/>
<path d="M28.9609 41.2522V17.9538" stroke="#AD1E23" stroke-width="1.2"/>
<path d="M28.9607 17.9536H21.9399C20.9055 17.9536 19.9134 17.5317 19.182 16.7808C18.4505 16.0298 18.0396 15.0113 18.0396 13.9492C18.0396 12.8872 18.4505 11.8687 19.182 11.1177C19.9134 10.3667 20.9055 9.94482 21.9399 9.94482C27.4005 9.94482 28.9607 17.9536 28.9607 17.9536Z" stroke="#AD1E23" stroke-width="1.2"/>
<path d="M28.9609 17.9536H36.4497C37.5531 17.9536 38.6113 17.5317 39.3916 16.7808C40.1718 16.0298 40.6101 15.0113 40.6101 13.9492C40.6101 12.8872 40.1718 11.8687 39.3916 11.1177C38.6113 10.3667 37.5531 9.94482 36.4497 9.94482C30.6251 9.94482 28.9609 17.9536 28.9609 17.9536Z" stroke="#AD1E23" stroke-width="1.2"/>
</svg>
