<svg width="45" height="45" viewBox="0 0 45 45" fill="none" xmlns="http://www.w3.org/2000/svg">
<circle cx="22.5" cy="22.5" r="22.5" fill="url(#paint0_linear)"/>
<path d="M22 18.2C21.0506 18.2 20.1226 18.4815 19.3333 19.0089C18.5439 19.5364 17.9287 20.286 17.5654 21.1631C17.2021 22.0402 17.107 23.0053 17.2922 23.9364C17.4774 24.8675 17.9346 25.7228 18.6059 26.3941C19.2772 27.0654 20.1325 27.5226 21.0636 27.7078C21.9947 27.893 22.9598 27.7979 23.8369 27.4346C24.714 27.0713 25.4636 26.4561 25.9911 25.6667C26.5185 24.8774 26.8 23.9494 26.8 23C26.7986 21.7274 26.2924 20.5073 25.3925 19.6075C24.4927 18.7076 23.2726 18.2014 22 18.2ZM22 26.2C21.3671 26.2 20.7484 26.0123 20.2222 25.6607C19.6959 25.3091 19.2858 24.8093 19.0436 24.2246C18.8014 23.6399 18.738 22.9965 18.8615 22.3757C18.985 21.755 19.2897 21.1848 19.7373 20.7373C20.1848 20.2897 20.755 19.985 21.3757 19.8615C21.9965 19.738 22.6399 19.8014 23.2246 20.0436C23.8093 20.2858 24.3091 20.6959 24.6607 21.2222C25.0123 21.7484 25.2 22.3671 25.2 23C25.199 23.8484 24.8616 24.6618 24.2617 25.2617C23.6618 25.8616 22.8484 26.199 22 26.2ZM26.4 13H17.6C16.1153 13.0017 14.6919 13.5922 13.6421 14.6421C12.5922 15.6919 12.0017 17.1153 12 18.6V27.4C12.0017 28.8847 12.5922 30.3081 13.6421 31.3579C14.6919 32.4078 16.1153 32.9983 17.6 33H26.4C27.8847 32.9983 29.3081 32.4078 30.3579 31.3579C31.4078 30.3081 31.9983 28.8847 32 27.4V18.6C31.9983 17.1153 31.4078 15.6919 30.3579 14.6421C29.3081 13.5922 27.8847 13.0017 26.4 13ZM30.4 27.4C30.3988 28.4605 29.977 29.4772 29.2271 30.2271C28.4772 30.977 27.4605 31.3988 26.4 31.4H17.6C16.5395 31.3988 15.5228 30.977 14.7729 30.2271C14.023 29.4772 13.6012 28.4605 13.6 27.4V18.6C13.6012 17.5395 14.023 16.5228 14.7729 15.7729C15.5228 15.023 16.5395 14.6012 17.6 14.6H26.4C27.4605 14.6012 28.4772 15.023 29.2271 15.7729C29.977 16.5228 30.3988 17.5395 30.4 18.6V27.4ZM28.4 17.8C28.4 18.0373 28.3296 18.2693 28.1978 18.4667C28.0659 18.664 27.8785 18.8178 27.6592 18.9087C27.4399 18.9995 27.1987 19.0232 26.9659 18.9769C26.7331 18.9306 26.5193 18.8164 26.3515 18.6485C26.1837 18.4807 26.0694 18.2669 26.0231 18.0341C25.9768 17.8013 26.0005 17.5601 26.0913 17.3408C26.1822 17.1215 26.336 16.9341 26.5333 16.8022C26.7307 16.6704 26.9627 16.6 27.2 16.6C27.5183 16.6 27.8235 16.7264 28.0485 16.9515C28.2736 17.1765 28.4 17.4817 28.4 17.8Z" fill="white"/>
<defs>
<linearGradient id="paint0_linear" x1="3.02138" y1="42.0683" x2="44.7169" y2="5.97414" gradientUnits="userSpaceOnUse">
<stop stop-color="#FFDD55"/>
<stop offset="0.5" stop-color="#FF543E"/>
<stop offset="1" stop-color="#C837AB"/>
</linearGradient>
</defs>
</svg>
