<svg width="89" height="65" viewBox="0 0 89 65" fill="none" xmlns="http://www.w3.org/2000/svg">
<path d="M8.87058 11.2235C9.0069 10.9834 8.92272 10.6782 8.68257 10.5419C8.44242 10.4056 8.13724 10.4897 8.00092 10.7299L8.87058 11.2235ZM4.0475 17.6946C3.91119 17.9348 3.99536 18.24 4.23551 18.3763C4.47566 18.5126 4.78085 18.4284 4.91717 18.1883L4.0475 17.6946ZM3.22349 12.0476C2.98333 11.9112 2.67815 11.9954 2.54183 12.2356C2.40551 12.4757 2.48969 12.7809 2.72984 12.9172L3.22349 12.0476ZM9.6946 16.8706C9.93475 17.0069 10.2399 16.9228 10.3763 16.6826C10.5126 16.4425 10.4284 16.1373 10.1882 16.001L9.6946 16.8706ZM8.00092 10.7299L4.0475 17.6946L4.91717 18.1883L8.87058 11.2235L8.00092 10.7299ZM2.72984 12.9172L9.6946 16.8706L10.1882 16.001L3.22349 12.0476L2.72984 12.9172Z" fill="#AD1E23"/>
<path d="M80.8708 55.2235C81.0071 54.9834 80.923 54.6782 80.6828 54.5419C80.4427 54.4056 80.1375 54.4897 80.0012 54.7299L80.8708 55.2235ZM76.0477 61.6946C75.9114 61.9348 75.9956 62.24 76.2358 62.3763C76.4759 62.5126 76.7811 62.4284 76.9174 62.1883L76.0477 61.6946ZM75.2237 56.0476C74.9836 55.9112 74.6784 55.9954 74.5421 56.2356C74.4058 56.4757 74.4899 56.7809 74.7301 56.9172L75.2237 56.0476ZM81.6948 60.8706C81.935 61.0069 82.2402 60.9228 82.3765 60.6826C82.5128 60.4425 82.4286 60.1373 82.1885 60.001L81.6948 60.8706ZM80.0012 54.7299L76.0477 61.6946L76.9174 62.1883L80.8708 55.2235L80.0012 54.7299ZM74.7301 56.9172L81.6948 60.8706L82.1885 60.001L75.2237 56.0476L74.7301 56.9172Z" fill="#AD1E23"/>
<path d="M6.20891 50.5159C6.34522 50.2758 6.26105 49.9706 6.0209 49.8342C5.78075 49.6979 5.47556 49.7821 5.33924 50.0223L6.20891 50.5159ZM2.80109 54.4937C2.66477 54.7339 2.74894 55.0391 2.9891 55.1754C3.22925 55.3117 3.53443 55.2275 3.67075 54.9874L2.80109 54.4937ZM2.51608 50.8009C2.27592 50.6646 1.97074 50.7488 1.83442 50.9889C1.6981 51.2291 1.78228 51.5343 2.02243 51.6706L2.51608 50.8009ZM6.49392 54.2087C6.73407 54.345 7.03926 54.2609 7.17557 54.0207C7.31189 53.7806 7.22772 53.4754 6.98757 53.3391L6.49392 54.2087ZM5.33924 50.0223L2.80109 54.4937L3.67075 54.9874L6.20891 50.5159L5.33924 50.0223ZM2.02243 51.6706L6.49392 54.2087L6.98757 53.3391L2.51608 50.8009L2.02243 51.6706Z" fill="#AD1E23"/>
<path d="M86.2087 7.5159C86.345 7.27575 86.2608 6.97056 86.0207 6.83425C85.7805 6.69793 85.4753 6.7821 85.339 7.02225L86.2087 7.5159ZM82.8008 11.4937C82.6645 11.7339 82.7487 12.0391 82.9889 12.1754C83.229 12.3117 83.5342 12.2275 83.6705 11.9874L82.8008 11.4937ZM82.5158 7.80091C82.2757 7.6646 81.9705 7.74877 81.8342 7.98892C81.6979 8.22907 81.782 8.53426 82.0222 8.67058L82.5158 7.80091ZM86.4937 11.2087C86.7338 11.345 87.039 11.2609 87.1753 11.0207C87.3116 10.7806 87.2275 10.4754 86.9873 10.3391L86.4937 11.2087ZM85.339 7.02225L82.8008 11.4937L83.6705 11.9874L86.2087 7.5159L85.339 7.02225ZM82.0222 8.67058L86.4937 11.2087L86.9873 10.3391L82.5158 7.80091L82.0222 8.67058Z" fill="#AD1E23"/>
<path d="M67 30V48.5067C67 49.9435 66.4264 51.3216 65.4054 52.3376C64.3843 53.3536 62.9995 53.9244 61.5556 53.9244H28.8889L18 62V21.4178C18 19.9809 18.5736 18.6029 19.5946 17.5868C20.6157 16.5708 22.0005 16 23.4444 16H43.5" stroke="#AD1E23" stroke-width="1.2"/>
<path d="M26 32H42" stroke="#AD1E23" stroke-linecap="round" stroke-linejoin="round"/>
<path d="M26 40H58" stroke="#AD1E23" stroke-linecap="round" stroke-linejoin="round"/>
<path d="M26 48H44" stroke="#AD1E23" stroke-linecap="round" stroke-linejoin="round"/>
<path d="M74.0159 16.6658C74.6352 17.2745 75 18.1166 75 19.0068C75 20.1742 74.3969 21.2205 73.44 21.8034M74.0159 16.6658C74.4592 16.1023 74.7048 15.4065 74.7103 14.6701C74.7165 13.8239 74.3797 13.0133 73.7624 12.3897C73.1214 11.7418 72.2407 11.3706 71.3444 11.3706H64.3126L64.7648 8.42671C64.8227 8.05476 64.8503 7.67416 64.8503 7.29736C64.8503 4.38496 62.8907 1 60.3652 1C59.6343 1 58.9224 1.25892 58.3616 1.72836L58.1016 1.94683L58.4684 6.78574C58.4839 6.99246 58.4677 7.19711 58.4202 7.39415C58.3719 7.59257 58.2927 7.7827 58.1863 7.95797L54.3233 15.1413L54.1752 15.2685M74.0159 16.6658H66.7503M54.1752 15.2685C54.0802 14.6128 53.5215 14.1053 52.8422 14.1053H45.3523C44.6062 14.1053 44 14.7144 44 15.4628V29.6421C44 30.3902 44.6062 31 45.3523 31H52.8426C53.5883 31 54.1956 30.3902 54.1949 29.6421V28.9283C54.1983 28.9314 54.2014 28.9331 54.2049 28.9359C55.585 30.1137 57.3686 30.1275 57.444 30.1275L68.6963 30.1233L68.7321 30.122C70.4613 30.0262 71.8142 28.5906 71.8142 26.8545C71.8142 26.5922 71.7839 26.3343 71.7233 26.0843M54.1752 15.2685V28.9283M71.7233 26.0843C72.901 25.579 73.6966 24.414 73.6966 23.0762C73.6966 22.6327 73.6091 22.2037 73.44 21.8034M71.7233 26.0843H67.5M73.44 21.8034H66.7503" stroke="#AD1E23" stroke-width="1.2" stroke-linecap="round" stroke-linejoin="round"/>
</svg>
