<svg width="45" height="45" viewBox="0 0 45 45" fill="none" xmlns="http://www.w3.org/2000/svg">
<circle cx="22.5" cy="22.5" r="22.5" fill="#0077B7"/>
<path d="M19.0272 19.7522H15.9991C15.8648 19.7522 15.7559 19.8611 15.7559 19.9955V29.7233C15.7559 29.8577 15.8648 29.9666 15.9991 29.9666H19.0272C19.1616 29.9666 19.2705 29.8577 19.2705 29.7233V19.9955C19.2705 19.8611 19.1616 19.7522 19.0272 19.7522Z" fill="white"/>
<path d="M17.514 14.9142C16.4123 14.9142 15.5161 15.8094 15.5161 16.9099C15.5161 18.0108 16.4123 18.9064 17.514 18.9064C18.6147 18.9064 19.5102 18.0107 19.5102 16.9099C19.5103 15.8094 18.6147 14.9142 17.514 14.9142Z" fill="white"/>
<path d="M26.7291 19.5096C25.5129 19.5096 24.6139 20.0325 24.0686 20.6265V19.9947C24.0686 19.8604 23.9597 19.7514 23.8253 19.7514H20.9254C20.791 19.7514 20.6821 19.8604 20.6821 19.9947V29.7225C20.6821 29.8569 20.791 29.9658 20.9254 29.9658H23.9468C24.0812 29.9658 24.1901 29.8569 24.1901 29.7225V24.9095C24.1901 23.2876 24.6307 22.6558 25.7612 22.6558C26.9926 22.6558 27.0904 23.6687 27.0904 24.993V29.7226C27.0904 29.857 27.1993 29.9659 27.3337 29.9659H30.3562C30.4906 29.9659 30.5995 29.857 30.5995 29.7226V24.3867C30.5995 21.975 30.1397 19.5096 26.7291 19.5096Z" fill="white"/>
</svg>
