<svg width="23" height="23" viewBox="0 0 23 23" fill="none" xmlns="http://www.w3.org/2000/svg">
<circle cx="11.1052" cy="11.1052" r="11.1052" fill="#999999"/>
<path d="M10.4046 4.83259C10.592 4.25577 11.408 4.25577 11.5954 4.83259L12.6555 8.09525C12.7394 8.35321 12.9798 8.52786 13.251 8.52786H16.6816C17.2881 8.52786 17.5402 9.30397 17.0496 9.66047L14.2742 11.6769C14.0547 11.8363 13.9629 12.1189 14.0467 12.3769L15.1068 15.6395C15.2943 16.2164 14.6341 16.696 14.1434 16.3395L11.368 14.3231C11.1486 14.1637 10.8514 14.1637 10.632 14.3231L7.85661 16.3395C7.36594 16.696 6.70574 16.2164 6.89316 15.6395L7.95326 12.3769C8.03708 12.1189 7.94526 11.8363 7.72583 11.6769L4.95044 9.66046C4.45977 9.30397 4.71194 8.52786 5.31845 8.52786H8.74901C9.02025 8.52786 9.26064 8.35321 9.34445 8.09525L10.4046 4.83259Z" stroke="#FDF6F4"/>
</svg>
