<svg width="23" height="23" viewBox="0 0 23 23" fill="none" xmlns="http://www.w3.org/2000/svg">
<circle cx="11.1052" cy="11.1052" r="11.1052" fill="white"/>
<circle cx="11.1052" cy="11.1052" r="11.1052" fill="#999999"/>
<path d="M9.61057 10.7562L9.66312 10.7138L11.0338 8.31932C11.0716 8.2609 11.0997 8.19753 11.1168 8.13138C11.1337 8.0657 11.1394 7.99749 11.1339 7.92858L11.0038 6.31561L11.0961 6.24279C11.295 6.08631 11.5477 6 11.807 6C12.7032 6 13.3985 7.12832 13.3985 8.09912C13.3985 8.22472 13.3887 8.35159 13.3682 8.47557L13.2077 9.45686H15.7029C16.0209 9.45686 16.3334 9.58061 16.5609 9.79655C16.7799 10.0044 16.8994 10.2746 16.8972 10.5567C16.8953 10.8022 16.8081 11.0341 16.6508 11.2219C16.8706 11.4248 17 11.7055 17 12.0023C17 12.3914 16.786 12.7402 16.4465 12.9345C16.5065 13.0679 16.5375 13.2109 16.5375 13.3587C16.5375 13.8047 16.2552 14.193 15.8373 14.3614C15.8588 14.4448 15.8696 14.5307 15.8696 14.6182C15.8696 15.1969 15.3895 15.6754 14.7759 15.7073L14.7632 15.7078L10.7705 15.7092C10.7437 15.7092 10.1108 15.7046 9.62108 15.312L9.61753 15.3094V15.5474C9.61778 15.7967 9.4023 16 9.13769 16H6.47984C6.21511 16 6 15.7967 6 15.5474V10.8209C6 10.5715 6.21511 10.3684 6.47984 10.3684H9.13757C9.37859 10.3684 9.57683 10.5376 9.61057 10.7562ZM9.61057 10.7562V15.3094" stroke="white" stroke-linecap="round" stroke-linejoin="round"/>
</svg>
