<svg width="23" height="23" viewBox="0 0 23 23" fill="none" xmlns="http://www.w3.org/2000/svg">
<circle cx="11.1052" cy="11.1052" r="11.1052" fill="white"/>
<circle cx="11.1052" cy="11.1052" r="11.1052" fill="#f37e20"/>
<path d="M13.9658 8.66699C14.9323 8.66699 15.7158 7.88349 15.7158 6.91699C15.7158 5.95049 14.9323 5.16699 13.9658 5.16699C12.9993 5.16699 12.2158 5.95049 12.2158 6.91699C12.2158 7.88349 12.9993 8.66699 13.9658 8.66699Z" stroke="white" stroke-linecap="round" stroke-linejoin="round"/>
<path d="M6.96582 13.333C7.93232 13.333 8.71582 12.5495 8.71582 11.583C8.71582 10.6165 7.93232 9.83301 6.96582 9.83301C5.99932 9.83301 5.21582 10.6165 5.21582 11.583C5.21582 12.5495 5.99932 13.333 6.96582 13.333Z" stroke="white" stroke-linecap="round" stroke-linejoin="round"/>
<path d="M13.7505 17.5C14.717 17.5 15.5005 16.7165 15.5005 15.75C15.5005 14.7835 14.717 14 13.7505 14C12.784 14 12.0005 14.7835 12.0005 15.75C12.0005 16.7165 12.784 17.5 13.7505 17.5Z" stroke="white" stroke-linecap="round" stroke-linejoin="round"/>
<path d="M8.71582 12.75L12 14.5" stroke="white" stroke-width="1.5" stroke-linecap="round" stroke-linejoin="round"/>
<path d="M12.216 8.08301L8.81396 10.1187" stroke="white" stroke-width="1.5" stroke-linecap="round" stroke-linejoin="round"/>
</svg>
