<svg width="23" height="23" viewBox="0 0 23 23" fill="none" xmlns="http://www.w3.org/2000/svg">
<path d="M10.7392 1.34164C10.9786 0.604593 12.0214 0.604592 12.2608 1.34164L14.3513 7.77548C14.4584 8.1051 14.7656 8.32827 15.1122 8.32827H21.8771C22.6521 8.32827 22.9743 9.31996 22.3473 9.77548L16.8744 13.7518C16.594 13.9555 16.4767 14.3166 16.5838 14.6462L18.6743 21.0801C18.9137 21.8171 18.0702 22.43 17.4432 21.9745L11.9702 17.9982C11.6898 17.7945 11.3102 17.7945 11.0298 17.9982L5.55682 21.9745C4.92985 22.43 4.08626 21.8171 4.32574 21.0801L6.41623 14.6462C6.52333 14.3166 6.406 13.9555 6.12561 13.7518L0.652657 9.77549C0.0256858 9.31996 0.347905 8.32827 1.12288 8.32827H7.88783C8.23441 8.32827 8.54157 8.1051 8.64867 7.77548L10.7392 1.34164Z" fill="#FEA014"/>
</svg>
