<svg width="96" height="60" viewBox="0 0 96 60" fill="none" xmlns="http://www.w3.org/2000/svg">
<path d="M8.87083 3.22353C9.00714 2.98338 8.92297 2.67819 8.68282 2.54188C8.44267 2.40556 8.13748 2.48973 8.00116 2.72988L8.87083 3.22353ZM4.04775 9.69465C3.91143 9.9348 3.99561 10.24 4.23576 10.3763C4.47591 10.5126 4.78109 10.4284 4.91741 10.1883L4.04775 9.69465ZM3.22373 4.04755C2.98358 3.91123 2.67839 3.99541 2.54207 4.23556C2.40576 4.47571 2.48993 4.7809 2.73008 4.91721L3.22373 4.04755ZM9.69485 8.87063C9.935 9.00694 10.2402 8.92277 10.3765 8.68262C10.5128 8.44247 10.4286 8.13728 10.1885 8.00096L9.69485 8.87063ZM8.00116 2.72988L4.04775 9.69465L4.91741 10.1883L8.87083 3.22353L8.00116 2.72988ZM2.73008 4.91721L9.69485 8.87063L10.1885 8.00096L3.22373 4.04755L2.73008 4.91721Z" fill="#AD1E23"/>
<path d="M91.8708 50.2235C92.0071 49.9834 91.923 49.6782 91.6828 49.5419C91.4427 49.4056 91.1375 49.4897 91.0012 49.7299L91.8708 50.2235ZM87.0477 56.6946C86.9114 56.9348 86.9956 57.24 87.2358 57.3763C87.4759 57.5126 87.7811 57.4284 87.9174 57.1883L87.0477 56.6946ZM86.2237 51.0476C85.9836 50.9112 85.6784 50.9954 85.5421 51.2356C85.4058 51.4757 85.4899 51.7809 85.7301 51.9172L86.2237 51.0476ZM92.6948 55.8706C92.935 56.0069 93.2402 55.9228 93.3765 55.6826C93.5128 55.4425 93.4286 55.1373 93.1885 55.001L92.6948 55.8706ZM91.0012 49.7299L87.0477 56.6946L87.9174 57.1883L91.8708 50.2235L91.0012 49.7299ZM85.7301 51.9172L92.6948 55.8706L93.1885 55.001L86.2237 51.0476L85.7301 51.9172Z" fill="#AD1E23"/>
<path d="M6.20915 42.5159C6.34547 42.2758 6.26129 41.9706 6.02114 41.8342C5.78099 41.6979 5.47581 41.7821 5.33949 42.0223L6.20915 42.5159ZM2.80133 46.4937C2.66502 46.7339 2.74919 47.0391 2.98934 47.1754C3.22949 47.3117 3.53468 47.2275 3.67099 46.9874L2.80133 46.4937ZM2.51632 42.8009C2.27617 42.6646 1.97098 42.7488 1.83466 42.9889C1.69835 43.2291 1.78252 43.5343 2.02267 43.6706L2.51632 42.8009ZM6.49416 46.2087C6.73431 46.345 7.0395 46.2609 7.17582 46.0207C7.31213 45.7806 7.22796 45.4754 6.98781 45.3391L6.49416 46.2087ZM5.33949 42.0223L2.80133 46.4937L3.67099 46.9874L6.20915 42.5159L5.33949 42.0223ZM2.02267 43.6706L6.49416 46.2087L6.98781 45.3391L2.51632 42.8009L2.02267 43.6706Z" fill="#AD1E23"/>
<path d="M87.2092 4.5159C87.3455 4.27575 87.2613 3.97056 87.0211 3.83425C86.781 3.69793 86.4758 3.7821 86.3395 4.02225L87.2092 4.5159ZM83.8013 8.49375C83.665 8.7339 83.7492 9.03908 83.9893 9.1754C84.2295 9.31172 84.5347 9.22754 84.671 8.98739L83.8013 8.49375ZM83.5163 4.80091C83.2762 4.6646 82.971 4.74877 82.8347 4.98892C82.6983 5.22907 82.7825 5.53426 83.0227 5.67058L83.5163 4.80091ZM87.4942 8.20873C87.7343 8.34505 88.0395 8.26088 88.1758 8.02073C88.3121 7.78057 88.228 7.47539 87.9878 7.33907L87.4942 8.20873ZM86.3395 4.02225L83.8013 8.49375L84.671 8.98739L87.2092 4.5159L86.3395 4.02225ZM83.0227 5.67058L87.4942 8.20873L87.9878 7.33907L83.5163 4.80091L83.0227 5.67058Z" fill="#AD1E23"/>
<circle cx="47.0005" cy="30" r="29" stroke="#AD1E23" stroke-width="1.2"/>
<path d="M63.0164 29.6658C63.6357 30.2745 64.0005 31.1166 64.0005 32.0068C64.0005 33.1742 63.3974 34.2205 62.4405 34.8034M63.0164 29.6658C63.4597 29.1023 63.7053 28.4065 63.7108 27.6701C63.717 26.8239 63.3801 26.0133 62.7629 25.3897C62.1219 24.7418 61.2411 24.3706 60.3449 24.3706H53.3131L53.7653 21.4267C53.8232 21.0548 53.8507 20.6742 53.8507 20.2974C53.8507 17.385 51.8912 14 49.3657 14C48.6348 14 47.9229 14.2589 47.3621 14.7284L47.102 14.9468L47.4689 19.7857C47.4844 19.9925 47.4682 20.1971 47.4207 20.3942C47.3724 20.5926 47.2932 20.7827 47.1868 20.958L43.3238 28.1413L43.1757 28.2685M63.0164 29.6658H55.7508M43.1757 28.2685C43.0807 27.6128 42.522 27.1053 41.8427 27.1053H34.3528C33.6067 27.1053 33.0005 27.7144 33.0005 28.4628V42.6421C33.0005 43.3902 33.6067 44 34.3528 44H41.8431C42.5888 44 43.196 43.3902 43.1954 42.6421V41.9283C43.1988 41.9314 43.2019 41.9331 43.2053 41.9359C44.5855 43.1137 46.3691 43.1275 46.4445 43.1275L57.6968 43.1233L57.7326 43.122C59.4617 43.0262 60.8147 41.5906 60.8147 39.8545C60.8147 39.5922 60.7844 39.3343 60.7238 39.0843M43.1757 28.2685V41.9283M60.7238 39.0843C61.9014 38.579 62.6971 37.414 62.6971 36.0762C62.6971 35.6327 62.6096 35.2037 62.4405 34.8034M60.7238 39.0843H56.5005M62.4405 34.8034H55.7508" stroke="#AD1E23" stroke-width="1.2" stroke-linecap="round" stroke-linejoin="round"/>
</svg>
