<svg width="45" height="45" viewBox="0 0 45 45" fill="none" xmlns="http://www.w3.org/2000/svg">
<circle cx="22.5" cy="22.5" r="22.5" fill="#50ABF1"/>
<path d="M31.799 17.8337C31.1743 18.1108 30.5086 18.2944 29.8145 18.3836C30.5285 17.9526 31.0735 17.2754 31.3297 16.459C30.664 16.8603 29.929 17.1437 29.1457 17.3019C28.5136 16.6214 27.6127 16.2 26.6299 16.2C24.7231 16.2 23.188 17.7647 23.188 19.6829C23.188 19.9589 23.2111 20.2243 23.2678 20.477C20.4044 20.3358 17.8708 18.9483 16.1687 16.8348C15.8716 17.356 15.6973 17.9526 15.6973 18.5948C15.6973 19.8008 16.3115 20.8697 17.2271 21.4886C16.6738 21.478 16.1309 21.3156 15.671 21.0597C15.671 21.0704 15.671 21.0842 15.671 21.098C15.671 22.79 16.8649 24.1955 18.4304 24.5193C18.1501 24.5968 17.8445 24.6339 17.5274 24.6339C17.3069 24.6339 17.0843 24.6212 16.8754 24.5745C17.3216 25.9534 18.5879 26.9672 20.0936 27.0001C18.9218 27.9268 17.434 28.4852 15.8233 28.4852C15.5408 28.4852 15.2699 28.4725 14.999 28.4374C16.5247 29.4321 18.3328 30 20.2826 30C26.6204 30 30.0854 24.6923 30.0854 20.0916C30.0854 19.9377 30.0802 19.7891 30.0728 19.6415C30.7564 19.1511 31.3307 18.5386 31.799 17.8337Z" fill="white"/>
</svg>
