<svg width="45" height="45" viewBox="0 0 45 45" fill="none" xmlns="http://www.w3.org/2000/svg">
<circle cx="22.5" cy="22.5" r="22.5" fill="#1BD741"/>
<path d="M13.2109 32.6045L14.5753 27.6221C13.7337 26.1639 13.291 24.5097 13.2917 22.815C13.2938 17.5135 17.6081 13.2003 22.9095 13.2003C25.4821 13.2014 27.8968 14.2027 29.7127 16.0202C31.5284 17.8376 32.5281 20.2534 32.5271 22.8228C32.5248 28.1242 28.2099 32.438 22.9095 32.438C22.9092 32.438 22.9096 32.438 22.9095 32.438H22.9053C21.2957 32.4374 19.7142 32.0336 18.3095 31.2675L13.2109 32.6045ZM18.5456 29.5269L18.8376 29.6999C20.0647 30.4282 21.4716 30.8134 22.9064 30.8141H22.9095C27.3153 30.8141 30.9013 27.2287 30.9031 22.8222C30.9039 20.6867 30.0733 18.6786 28.564 17.1681C27.0546 15.6576 25.0477 14.8252 22.9124 14.8243C18.503 14.8243 14.9172 18.4092 14.9155 22.8157C14.9149 24.3257 15.3373 25.7962 16.1376 27.0687L16.3278 27.3712L15.5201 30.3201L18.5456 29.5269Z" fill="white"/>
<path fill-rule="evenodd" clip-rule="evenodd" d="M20.5049 18.795C20.3249 18.3948 20.1353 18.3868 19.964 18.3798C19.8239 18.3738 19.6636 18.3741 19.5035 18.3741C19.3434 18.3741 19.083 18.4344 18.8628 18.6748C18.6424 18.9153 18.0215 19.4966 18.0215 20.679C18.0215 21.8616 18.8827 23.0041 19.0029 23.1646C19.123 23.3249 20.6654 25.8289 23.1079 26.7922C25.138 27.5928 25.551 27.4336 25.9917 27.3935C26.4323 27.3535 27.4134 26.8121 27.6136 26.251C27.814 25.6899 27.814 25.209 27.7539 25.1084C27.6937 25.0083 27.5335 24.9482 27.2933 24.828C27.053 24.7079 25.8715 24.1263 25.6512 24.0463C25.4308 23.966 25.2706 23.9261 25.1105 24.1667C24.9501 24.407 24.49 24.9482 24.3497 25.1084C24.2095 25.269 24.0692 25.2891 23.8289 25.1688C23.5887 25.0484 22.8146 24.7948 21.8965 23.9761C21.1821 23.3392 20.6997 22.5524 20.5595 22.3119C20.4194 22.0716 20.5571 21.9528 20.6651 21.8215C20.8594 21.5851 21.1855 21.1601 21.2656 20.9999C21.3457 20.8394 21.3057 20.6991 21.2457 20.5788C21.1855 20.4587 20.7184 19.2703 20.5049 18.795Z" fill="white"/>
</svg>
