<svg width="18" height="17" viewBox="0 0 18 17" fill="none" xmlns="http://www.w3.org/2000/svg">
<path d="M8.99998 0.74022L6.88032 4.99652C6.74582 5.26709 6.51994 5.49926 6.28425 5.66908C6.04835 5.83905 5.75659 5.97975 5.45724 6.02281M8.99998 0.74022L5.38605 5.5279M8.99998 0.74022L11.1198 4.99857L11.1199 4.9987C11.2545 5.26904 11.4804 5.50111 11.716 5.6709C11.9518 5.8408 12.2435 5.98153 12.5427 6.02461L17.2739 6.70787L13.8531 10.0138C13.8531 10.0139 13.8531 10.0139 13.8531 10.0139C13.6356 10.2241 13.4824 10.5089 13.3921 10.7847C13.3018 11.0604 13.2566 11.3807 13.3081 11.6785L14.1164 16.3516L8.99998 0.74022ZM5.45724 6.02281L5.38605 5.5279M5.45724 6.02281L5.45752 6.02277L5.38605 5.5279M5.45724 6.02281L0.726131 6.70606M5.38605 5.5279L0.368543 6.25252M0.726131 6.70606L0.516132 6.50311L0.51611 6.50309C0.491654 6.47945 0.484072 6.46656 0.484008 6.4666C0.483979 6.46662 0.485541 6.46937 0.487783 6.47507C0.49148 6.48448 0.496182 6.5004 0.498543 6.52127C0.498544 6.52128 0.498545 6.52129 0.498547 6.5213C0.501768 6.54982 0.500613 6.58757 0.486541 6.63052C0.473496 6.67033 0.454219 6.69976 0.436264 6.72032L0.419321 6.60328L0.419317 6.60325L0.368543 6.25252M0.726131 6.70606L0.440178 6.74736C0.440122 6.74737 0.440066 6.74737 0.440011 6.74738C0.404926 6.75247 0.390689 6.75883 0.390655 6.75876C0.39064 6.75872 0.39313 6.75756 0.397631 6.75469C0.406283 6.74918 0.420709 6.7381 0.436125 6.72048M0.726131 6.70606L4.14664 10.0118L3.7995 10.3715L4.14689 10.0121C4.3645 10.2222 4.51761 10.5071 4.60792 10.7828C4.69823 11.0585 4.74341 11.3788 4.69187 11.6767L4.19918 11.5915L4.69186 11.6767L0.436125 6.72048M0.368543 6.25252L0.419212 6.60336L0.419216 6.60339L0.436125 6.72048M0.368543 6.25252L0.436125 6.72048M3.63447 16.4798L3.88363 16.3499L3.83498 16.6312M3.63447 16.4798C3.60311 16.4961 3.58786 16.4993 3.58788 16.4994C3.58788 16.4994 3.5905 16.4989 3.59565 16.4986C3.60586 16.498 3.62413 16.4986 3.64706 16.504M3.63447 16.4798L3.6471 16.504M3.63447 16.4798L3.63444 16.4798L3.64706 16.504M3.64706 16.504L3.70132 16.6081M3.64706 16.504C3.64707 16.504 3.64708 16.504 3.6471 16.504M3.70132 16.6081L3.34229 16.546L3.70133 16.6081M3.70132 16.6081L3.70134 16.6081M3.70132 16.6081L3.70133 16.6081M3.70133 16.6081L3.86556 16.9232L3.70135 16.6081M3.70133 16.6081L3.70135 16.6081M3.70135 16.6081L3.81098 16.6271M3.70135 16.6081L3.70134 16.6081M3.81098 16.6271C3.82077 16.6445 3.82615 16.6594 3.82869 16.669C3.83031 16.6751 3.83067 16.6783 3.83071 16.6783C3.83077 16.6783 3.82934 16.6638 3.83498 16.6312M3.81098 16.6271C3.81097 16.6271 3.81097 16.6271 3.81096 16.6271M3.81098 16.6271L3.83497 16.6312L3.83498 16.6312M3.83498 16.6312L3.81096 16.6271M3.81096 16.6271C3.79695 16.6022 3.77392 16.5723 3.73731 16.5459C3.70456 16.5224 3.67288 16.5101 3.6471 16.504M3.81096 16.6271L3.70134 16.6081M3.6471 16.504L3.70134 16.6081M14.3654 16.4815L14.3528 16.5056M14.3654 16.4815L14.2626 16.5474C14.2954 16.5238 14.3271 16.5116 14.3528 16.5056M14.3654 16.4815L14.3657 16.4817L14.3533 16.5055M14.3654 16.4815C14.3965 16.4978 14.4117 16.5009 14.4117 16.5009C14.4117 16.501 14.4091 16.5005 14.4039 16.5002C14.3938 16.4996 14.3758 16.5002 14.3533 16.5055M14.3528 16.5056C14.353 16.5055 14.3531 16.5055 14.3533 16.5055M14.3528 16.5056L14.2985 16.61L14.2985 16.61L14.1344 16.925L14.2988 16.61L14.2988 16.6099L14.3533 16.5055M17.6315 6.25433L12.6139 5.52971L17.6315 6.25433ZM17.6315 6.25433C18.0294 6.31157 18.1193 6.5862 17.8313 6.86445L17.6315 6.25433Z" stroke="#F37E20"/>
</svg>
