<svg width="18" height="17" viewBox="0 0 18 17" fill="none" xmlns="http://www.w3.org/2000/svg">
<path d="M8.67661 0.267926C8.85456 -0.0893087 9.14544 -0.0893087 9.32339 0.267926L11.5674 4.77575C11.7454 5.13299 12.2164 5.47247 12.6139 5.52971L17.6315 6.25433C18.0294 6.31157 18.1193 6.5862 17.8313 6.86445L14.2006 10.3734C13.9126 10.6516 13.7329 11.2005 13.8008 11.5933L14.6577 16.5478C14.7257 16.9406 14.49 17.1101 14.1344 16.925L9.64678 14.5841C9.29087 14.3986 8.70877 14.3986 8.35285 14.5841L3.86556 16.9232C3.50965 17.1087 3.27432 16.9391 3.34229 16.546L4.19918 11.5915C4.26715 11.1987 4.08737 10.6495 3.79942 10.3716L0.168662 6.86264C-0.119285 6.58439 -0.029393 6.31012 0.368543 6.25252L5.38605 5.5279C5.78399 5.47066 6.25501 5.13118 6.4326 4.77394L8.67661 0.267926Z" fill="#F37E20"/>
</svg>
