<svg width="15" height="15" viewBox="0 0 15 15" fill="none" xmlns="http://www.w3.org/2000/svg">
<path d="M0 3.72656V1.30078C0 0.912415 0.314758 0.597656 0.703125 0.597656C1.09149 0.597656 1.40625 0.912415 1.40625 1.30078V3.04843C1.95721 2.28955 2.64935 1.63847 3.44971 1.13379C4.62607 0.392075 5.98604 0 7.38281 0C11.4537 0 14.7656 3.31197 14.7656 7.38281C14.7656 7.77118 14.4509 8.08594 14.0625 8.08594C13.6741 8.08594 13.3594 7.77118 13.3594 7.38281C13.3594 4.08733 10.6783 1.40625 7.38281 1.40625C5.35117 1.40625 3.50217 2.41411 2.40189 4.07812H4.18359C4.57196 4.07812 4.88672 4.39288 4.88672 4.78125C4.88672 5.16962 4.57196 5.48438 4.18359 5.48438H1.75781C0.788544 5.48438 0 4.69583 0 3.72656Z" fill="#F37E20"/>
<path d="M14.7656 11.0039L14.7656 13.4297C14.7656 13.8181 14.4509 14.1328 14.0625 14.1328C13.6741 14.1328 13.3594 13.8181 13.3594 13.4297L13.3594 11.682C12.8084 12.4409 12.1163 13.092 11.3159 13.5967C10.1396 14.3384 8.77958 14.7305 7.38281 14.7305C3.31196 14.7305 -6.38618e-06 11.4185 -6.03029e-06 7.34765C-5.99634e-06 6.95929 0.314753 6.64453 0.70312 6.64453C1.09149 6.64453 1.40624 6.95929 1.40624 7.34765C1.40624 10.6431 4.08732 13.3242 7.38281 13.3242C9.41446 13.3242 11.2635 12.3164 12.3637 10.6523L10.582 10.6523C10.1937 10.6523 9.8789 10.3376 9.8789 9.94922C9.8789 9.56085 10.1937 9.24609 10.582 9.24609L13.0078 9.24609C13.9771 9.24609 14.7656 10.0346 14.7656 11.0039Z" fill="#F37E20"/>
</svg>
