<svg width="16" height="16" viewBox="0 0 16 16" fill="none" xmlns="http://www.w3.org/2000/svg">
<path d="M13.2093 2.99716C12.8855 2.65649 12.5011 2.38626 12.078 2.20188C11.6549 2.01751 11.2014 1.92261 10.7434 1.92261C10.2854 1.92261 9.8319 2.01751 9.40879 2.20188C8.98569 2.38626 8.60127 2.65649 8.2775 2.99716L7.60557 3.70382L6.93363 2.99716C6.27964 2.30936 5.39263 1.92296 4.46775 1.92296C3.54287 1.92296 2.65586 2.30936 2.00187 2.99716C1.34788 3.68495 0.980469 4.6178 0.980469 5.59049C0.980469 6.56318 1.34788 7.49603 2.00187 8.18382L2.67381 8.89049L7.60557 14.0772L12.5373 8.89049L13.2093 8.18382C13.5332 7.84332 13.7901 7.43903 13.9655 6.99406C14.1408 6.54909 14.231 6.07215 14.231 5.59049C14.231 5.10883 14.1408 4.63189 13.9655 4.18692C13.7901 3.74195 13.5332 3.33766 13.2093 2.99716V2.99716Z" stroke="#f37e20" stroke-width="1.5" stroke-linecap="round" stroke-linejoin="round"/>
</svg>
