<svg width="22" height="15" viewBox="0 0 22 15" fill="none" xmlns="http://www.w3.org/2000/svg">
<path d="M6.79451 4.18439H3.17334V4.90951H6.79451V4.18439Z" fill="#3F5EF5"/>
<path d="M15.8587 7.73386H2.81543V8.45898H15.8587V7.73386Z" fill="#3F5EF5"/>
<path d="M4.99078 10.7054H2.81543V11.4305H4.99078V10.7054Z" fill="#3F5EF5"/>
<path d="M10.4376 10.7054H8.26221V11.4305H10.4376V10.7054Z" fill="#3F5EF5"/>
<path d="M15.8677 10.7054H13.6924V11.4305H15.8677V10.7054Z" fill="#3F5EF5"/>
<path d="M16.6383 3.56738C16.373 3.56738 16.1298 3.64255 15.9176 3.76635C15.6965 3.63813 15.4489 3.56738 15.188 3.56738C14.3877 3.56738 13.7378 4.21734 13.7378 5.01762C13.7378 5.8179 14.3877 6.46785 15.188 6.46785C15.4489 6.46785 15.6965 6.39711 15.9176 6.26889C16.1298 6.39269 16.373 6.46785 16.6383 6.46785C17.4385 6.46785 18.0885 5.8179 18.0885 5.01762C18.0885 4.21734 17.4385 3.56738 16.6383 3.56738ZM15.3737 5.71621C15.3118 5.73389 15.2499 5.74274 15.188 5.74274C14.7901 5.74274 14.4629 5.41555 14.4629 5.01762C14.4629 4.61969 14.7901 4.2925 15.188 4.2925C15.2499 4.2925 15.3163 4.30576 15.3737 4.31903C15.2588 4.52684 15.188 4.76117 15.188 5.01762C15.188 5.27406 15.2588 5.5084 15.3737 5.71621ZM16.6383 5.74274C16.2403 5.74274 15.9131 5.41555 15.9131 5.01762C15.9131 4.61969 16.2403 4.2925 16.6383 4.2925C17.0362 4.2925 17.3634 4.61969 17.3634 5.01762C17.3634 5.41555 17.0362 5.74274 16.6383 5.74274Z" fill="#3F5EF5"/>
<rect x="1" y="1" width="19.6825" height="13.1217" rx="2" stroke="#3F5EF5"/>
</svg>
