<svg width="20" height="18" viewBox="0 0 20 18" fill="none" xmlns="http://www.w3.org/2000/svg">
<path d="M17.2 5H2.8C1.80589 5 1 5.76751 1 6.71429V15.2857C1 16.2325 1.80589 17 2.8 17H17.2C18.1941 17 19 16.2325 19 15.2857V6.71429C19 5.76751 18.1941 5 17.2 5Z" stroke="#1C6FBA" stroke-linecap="round" stroke-linejoin="round"/>
<path d="M14 5V3C14 2.46957 13.7893 1.96086 13.4142 1.58579C13.0391 1.21071 12.5304 1 12 1H8C7.46957 1 6.96086 1.21071 6.58579 1.58579C6.21071 1.96086 6 2.46957 6 3V5" stroke="#1C6FBA" stroke-linecap="round" stroke-linejoin="round"/>
</svg>
