<svg width="28" height="37" viewBox="0 0 28 37" fill="none" xmlns="http://www.w3.org/2000/svg">
<path d="M1 23V14.2C1 10.6991 2.36964 7.34167 4.80761 4.86619C7.24558 2.39071 10.5522 1 14 1C17.4478 1 20.7544 2.39071 23.1924 4.86619C25.6304 7.34167 27 10.6991 27 14.2V19.5" stroke="#AD1E23" stroke-width="1.2"/>
<path d="M27 21.1429C27 21.9006 26.6956 22.6273 26.1539 23.1632C25.6121 23.699 24.8773 24 24.1111 24H22.6667C21.9005 24 21.1657 23.699 20.6239 23.1632C20.0821 22.6273 19.7778 21.9006 19.7778 21.1429V16.8571C19.7778 16.0994 20.0821 15.3727 20.6239 14.8368C21.1657 14.301 21.9005 14 22.6667 14H27V21.1429ZM1 21.1429C1 21.9006 1.30436 22.6273 1.84614 23.1632C2.38791 23.699 3.12271 24 3.88889 24H5.33333C6.09951 24 6.83431 23.699 7.37609 23.1632C7.91786 22.6273 8.22222 21.9006 8.22222 21.1429V16.8571C8.22222 16.0994 7.91786 15.3727 7.37609 14.8368C6.83431 14.301 6.09951 14 5.33333 14H1V21.1429Z" stroke="#AD1E23" stroke-width="1.2"/>
<path d="M1 19V26C1.16667 28.1667 2.5 32 7.5 32.5" stroke="#AD1E23" stroke-width="1.2"/>
<rect x="7.71875" y="31" width="8.75136" height="3" rx="1.5" transform="rotate(13.8544 7.71875 31)" stroke="#AD1E23" stroke-width="1.2"/>
</svg>
