<svg width="15" height="14" viewBox="0 0 15 14" fill="none" xmlns="http://www.w3.org/2000/svg">
<path d="M13.7379 0.381415C13.4894 0.13688 13.1524 -0.000497341 12.801 -0.000497341H11.264V7.17114H12.801C13.1524 7.17114 13.4894 7.03376 13.7379 6.78923C13.9864 6.54469 14.126 6.21303 14.126 5.86721V1.30344C14.126 0.957612 13.9864 0.625951 13.7379 0.381415Z" fill="#F37E20"/>
<path d="M5.08967 8.47529V11.0832C5.08967 11.6019 5.29906 12.0994 5.67178 12.4662C6.0445 12.833 6.55001 13.0391 7.07712 13.0391L9.72705 7.17136V-0.000283241H2.25424C1.9347 -0.00383854 1.62463 0.106375 1.38115 0.310049C1.13766 0.513722 0.977182 0.797134 0.92927 1.10806L0.0150423 6.97577C-0.0137815 7.16265 -0.000972748 7.35346 0.0525789 7.53499C0.106131 7.71652 0.199145 7.88442 0.325179 8.02705C0.451212 8.16969 0.60725 8.28366 0.782482 8.36106C0.957715 8.43845 1.14795 8.47743 1.34001 8.47529H5.08967Z" fill="#F37E20"/>
</svg>
