<svg width="31" height="31" viewBox="0 0 31 31" fill="none" xmlns="http://www.w3.org/2000/svg">
<circle cx="15.5" cy="15.5" r="14.5" stroke="#AD1E23" stroke-width="1.2"/>
<path d="M14.4883 19.252C14.5007 18.5221 14.5996 17.9346 14.7852 17.4893C14.9707 17.0439 15.3696 16.5213 15.9819 15.9214C16.5942 15.3153 16.987 14.8885 17.1602 14.6411C17.3395 14.3875 17.4756 14.1123 17.5684 13.8154C17.6673 13.5124 17.7168 13.1691 17.7168 12.7856C17.7168 12.0125 17.5096 11.4064 17.0952 10.9673C16.687 10.522 16.1149 10.2993 15.3789 10.2993C14.6367 10.2993 14.0368 10.5127 13.5791 10.9395C13.1276 11.36 12.8957 11.9321 12.8833 12.6558H11.7793C11.7917 11.6414 12.1349 10.8312 12.8091 10.2251C13.4832 9.61279 14.3398 9.30664 15.3789 9.30664C16.4427 9.30664 17.2808 9.61898 17.8931 10.2437C18.5116 10.8621 18.8208 11.7033 18.8208 12.7671C18.8208 13.4351 18.6693 14.0628 18.3662 14.6504C18.0632 15.2318 17.488 15.9121 16.6406 16.6914C15.9417 17.279 15.5923 18.1325 15.5923 19.252H14.4883ZM14.3398 22.3506C14.3398 22.1403 14.4048 21.964 14.5347 21.8218C14.6707 21.6733 14.8594 21.5991 15.1006 21.5991C15.3356 21.5991 15.5212 21.6733 15.6572 21.8218C15.7995 21.964 15.8706 22.1403 15.8706 22.3506C15.8706 22.5547 15.7995 22.7279 15.6572 22.8701C15.5212 23.0062 15.3356 23.0742 15.1006 23.0742C14.8594 23.0742 14.6707 23.0062 14.5347 22.8701C14.4048 22.7279 14.3398 22.5547 14.3398 22.3506Z" fill="#AD1E23"/>
</svg>
