<svg width="24" height="23" viewBox="0 0 24 23" fill="none" xmlns="http://www.w3.org/2000/svg">
<path d="M18.3057 14.3067C17.375 13.837 16.2998 13.9813 15.5269 14.5755C15.546 13.6008 15.0239 12.6503 14.0928 12.1803C13.1621 11.7106 12.087 11.8549 11.3141 12.4491C11.3332 11.4744 10.8111 10.5239 9.88 10.054C8.94932 9.58421 7.87415 9.72849 7.10148 10.3228C7.12034 9.34801 6.59822 8.39752 5.66717 7.92758C4.98248 7.58199 4.22011 7.57294 3.55553 7.82482C6.22812 4.31669 11.0417 3.06001 15.0359 5.07601C19.0302 7.09211 20.8781 11.7111 19.6426 15.9443C19.4506 15.2604 18.9905 14.6524 18.3057 14.3067Z" stroke="#FFFFFF" stroke-linecap="round" stroke-linejoin="round"/>
<path d="M6.06252 16.0297C5.50202 17.1402 6.11984 17.9577 6.67193 18.2363C7.18467 18.4951 7.61378 18.4199 7.88358 18.3111C8.46151 18.078 8.75656 17.5242 8.81198 17.4107L11.9274 11.2384" stroke="#FFFFFF" stroke-linecap="round" stroke-linejoin="round"/>
<path d="M15.4534 5.51396L16.0576 4.3168" stroke="#FFFFFF" stroke-linecap="round" stroke-linejoin="round"/>
</svg>
