<svg width="22" height="16" viewBox="0 0 22 16" fill="none" xmlns="http://www.w3.org/2000/svg">
<path d="M9.2419 6.63183C9.41781 6.64233 9.59934 6.64758 9.78648 6.64758C9.97736 6.64758 10.1626 6.63533 10.3423 6.61084C10.5257 6.58285 10.6997 6.53911 10.8644 6.47963C11.0291 6.42015 11.1769 6.33793 11.3079 6.23296C11.4389 6.128 11.5456 5.99679 11.6279 5.83934C11.714 5.67839 11.7683 5.48595 11.7908 5.26202H9.00049C9.01172 5.23753 9.04166 5.1868 9.09032 5.10982C9.14271 5.02935 9.19699 4.94538 9.25313 4.8579C9.3205 4.75644 9.39535 4.64622 9.4777 4.52726H11.6504C11.6504 4.43629 11.6036 4.34532 11.51 4.25435C11.4165 4.15988 11.3023 4.0759 11.1676 4.00243C11.0366 3.92895 10.9018 3.86947 10.7634 3.82399C10.6249 3.775 10.5107 3.75051 10.4209 3.75051H9.00049C9.01546 3.70852 9.04727 3.64554 9.09593 3.56157C9.14833 3.4776 9.2026 3.39537 9.25874 3.3149C9.31488 3.23093 9.36354 3.15745 9.40471 3.09447C9.44963 3.03149 9.47395 3 9.4777 3H14.1543C14.1543 3 14.1431 3.01924 14.1206 3.05773C14.1019 3.09622 14.0757 3.14345 14.0421 3.19944C14.0084 3.25192 13.9709 3.3114 13.9298 3.37788C13.8886 3.44086 13.8493 3.50034 13.8119 3.55632C13.7782 3.6123 13.7482 3.65954 13.722 3.69803C13.6996 3.73301 13.6884 3.75051 13.6884 3.75051H12.4588C12.5374 3.87647 12.6048 4.00418 12.661 4.13364C12.7208 4.2596 12.7583 4.3908 12.7732 4.52726H14.1543L13.6884 5.26202H12.8238C12.7789 5.58742 12.6797 5.86558 12.5262 6.09651C12.3765 6.32743 12.1912 6.51987 11.9704 6.67382C11.7533 6.82427 11.51 6.94148 11.2406 7.02546C10.9711 7.10593 10.6941 7.16191 10.4097 7.1934C10.4097 7.1969 10.4153 7.20915 10.4265 7.23014C10.4415 7.24764 10.4583 7.26863 10.477 7.29312C10.4957 7.32111 10.5182 7.35085 10.5444 7.38234L13.0371 10.5996V10.7308H11.9704L9.2419 7.32461V6.63183Z" fill="#971A82"/>
<path d="M19.5998 12.2375V2.1625C19.5998 1.85418 19.4773 1.5585 19.2593 1.34049C19.0413 1.12248 18.7456 1 18.4373 1H3.7123C3.40399 1 3.1083 1.12248 2.89029 1.34049C2.67228 1.5585 2.5498 1.85418 2.5498 2.1625V12.2375" stroke="#971A82" stroke-linecap="round" stroke-linejoin="round"/>
<path d="M13.85 12.0001H20.6154C20.7174 12.0001 20.8152 12.0527 20.8873 12.1465C20.9595 12.2403 21 12.3674 21 12.5001C21 13.1631 20.7974 13.799 20.4367 14.2678C20.0761 14.7366 19.587 15 19.0769 15H2.92308C2.41305 15 1.9239 14.7366 1.56326 14.2678C1.20261 13.799 1 13.1631 1 12.5001C1.00071 12.4335 1.01162 12.3679 1.0321 12.3069C1.05257 12.246 1.08219 12.1909 1.11923 12.1451C1.15333 12.0983 1.19452 12.0613 1.24021 12.0363C1.28589 12.0114 1.33507 11.999 1.38462 12.0001H13.85Z" stroke="#971A82" stroke-linecap="round" stroke-linejoin="round"/>
</svg>
