<svg width="16" height="15" viewBox="0 0 16 15" fill="none" xmlns="http://www.w3.org/2000/svg">
<path d="M13.9205 2.14929C13.5784 1.78493 13.1722 1.4959 12.7252 1.2987C12.2782 1.1015 11.799 1 11.3151 1C10.8312 1 10.3521 1.1015 9.90504 1.2987C9.45801 1.4959 9.05185 1.78493 8.70976 2.14929L7.99982 2.90512L7.28988 2.14929C6.5989 1.41366 5.66172 1.00038 4.68453 1.00038C3.70733 1.00038 2.77016 1.41366 2.07917 2.14929C1.38819 2.88493 1 3.88267 1 4.92302C1 5.96336 1.38819 6.9611 2.07917 7.69674L2.78911 8.45256L7.99982 14L13.2105 8.45256L13.9205 7.69674C14.2627 7.33255 14.5342 6.90014 14.7194 6.42422C14.9047 5.94829 15 5.43818 15 4.92302C15 4.40785 14.9047 3.89774 14.7194 3.42182C14.5342 2.94589 14.2627 2.51348 13.9205 2.14929V2.14929Z" stroke="#FFFFFF" stroke-linecap="round"/>
</svg>
