<svg width="23" height="18" viewBox="0 0 23 18" fill="none" xmlns="http://www.w3.org/2000/svg">
<path d="M10.7824 9.02793C10.9924 9.04046 11.2092 9.04672 11.4326 9.04672C11.6606 9.04672 11.8818 9.0321 12.0963 9.00286C12.3153 8.96944 12.5231 8.91721 12.7197 8.84619C12.9164 8.77517 13.0929 8.67699 13.2493 8.55166C13.4057 8.42633 13.5331 8.26966 13.6314 8.08166C13.7342 7.88948 13.799 7.65971 13.8258 7.39233H10.4941C10.5075 7.36309 10.5433 7.30251 10.6014 7.2106C10.664 7.11451 10.7288 7.01424 10.7958 6.9098C10.8762 6.78864 10.9656 6.65704 11.0639 6.515H13.6582C13.6582 6.40638 13.6023 6.29776 13.4906 6.18913C13.3789 6.07633 13.2426 5.97607 13.0817 5.88834C12.9253 5.8006 12.7644 5.72958 12.5991 5.67527C12.4337 5.61678 12.2974 5.58754 12.1901 5.58754H10.4941C10.512 5.5374 10.55 5.4622 10.6081 5.36194C10.6707 5.26167 10.7355 5.16349 10.8025 5.0674C10.8695 4.96714 10.9276 4.87941 10.9768 4.80421C11.0304 4.72901 11.0595 4.69141 11.0639 4.69141H16.648C16.648 4.69141 16.6346 4.71438 16.6078 4.76034C16.5854 4.80629 16.5541 4.86269 16.5139 4.92954C16.4737 4.99221 16.429 5.06323 16.3798 5.1426C16.3307 5.2178 16.2838 5.28883 16.2391 5.35567C16.1988 5.42251 16.1631 5.47891 16.1318 5.52487C16.105 5.56665 16.0916 5.58754 16.0916 5.58754H14.6235C14.7174 5.73794 14.7978 5.89042 14.8648 6.045C14.9364 6.1954 14.981 6.35207 14.9989 6.515H16.648L16.0916 7.39233H15.0592C15.0056 7.78086 14.8872 8.11299 14.704 8.38873C14.5252 8.66446 14.304 8.89424 14.0403 9.07806C13.7811 9.2577 13.4906 9.39766 13.1689 9.49792C12.8471 9.59401 12.5164 9.66086 12.1767 9.69846C12.1767 9.70263 12.1834 9.71726 12.1968 9.74232C12.2147 9.76321 12.2348 9.78828 12.2572 9.81752C12.2795 9.85094 12.3063 9.88646 12.3376 9.92406L15.314 13.7655V13.9222H14.0403L10.7824 9.85512V9.02793Z" fill="#FFFFFF"/>
<path d="M11.2857 1.33129C10.9728 1.23816 10.6518 1.16366 10.3241 1.10908C9.89343 1.03733 9.45108 1 9 1C4.58172 1 1 4.58172 1 9C1 13.4183 4.58172 17 9 17C9.58843 17 10.162 16.9365 10.7143 16.8159" stroke="#FFFFFF" stroke-linecap="round" stroke-linejoin="round"/>
<circle cx="13.5713" cy="9" r="8" stroke="#FFFFFF" stroke-linecap="round" stroke-linejoin="round"/>
</svg>
