<svg width="19" height="18" viewBox="0 0 19 18" fill="none" xmlns="http://www.w3.org/2000/svg">
<path d="M5.41926 8.03442H4.45547C4.33444 8.03442 4.21835 8.08261 4.13288 8.16833C4.0474 8.25405 3.99961 8.37028 4 8.49135L4.00671 11.9512C4.00671 12.2028 4.21064 12.4067 4.46218 12.4067C4.71372 12.4067 4.91764 12.2028 4.91764 11.9512V10.9007C5.10387 10.8998 5.30282 10.8989 5.41926 10.8989C6.21955 10.8989 6.87065 10.2564 6.87065 9.46668C6.87065 8.67693 6.21955 8.03442 5.41926 8.03442ZM5.41926 9.98801C5.30178 9.98801 5.10211 9.98883 4.91515 9.9898C4.91418 9.79589 4.91333 9.58708 4.91333 9.46668C4.91333 9.36365 4.91282 9.14804 4.91227 8.94536H5.41923C5.71219 8.94536 5.95969 9.18408 5.95969 9.46668C5.95969 9.74928 5.71222 9.98801 5.41926 9.98801Z" fill="#3D3D3D"/>
<path d="M9.2935 8.03442H8.34219C8.22124 8.03442 8.10525 8.08252 8.01981 8.16812C7.93436 8.25372 7.88648 8.3698 7.88672 8.49074C7.88672 8.49077 7.89349 11.8383 7.89352 11.8504C7.89398 11.9713 7.94238 12.0869 8.02813 12.1721C8.11348 12.2568 8.2288 12.3043 8.34899 12.3043H8.35072C8.37947 12.3041 9.05803 12.3016 9.3293 12.2968C10.3585 12.2788 11.1054 11.3841 11.1054 10.1693C11.1054 8.8924 10.3773 8.03442 9.2935 8.03442ZM9.31339 11.386C9.19542 11.3881 8.99247 11.3898 8.80293 11.391C8.80166 10.9954 8.79917 9.35649 8.79847 8.94536H9.2935C10.1295 8.94536 10.1945 9.88222 10.1945 10.1694C10.1945 10.7673 9.92204 11.3754 9.31339 11.386Z" fill="#3D3D3D"/>
<path d="M14.1073 8.91093C14.3589 8.91093 14.5628 8.707 14.5628 8.45547C14.5628 8.20393 14.3589 8 14.1073 8H12.7147C12.4632 8 12.2593 8.20393 12.2593 8.45547V11.8914C12.2593 12.143 12.4632 12.3469 12.7147 12.3469C12.9663 12.3469 13.1702 12.143 13.1702 11.8914V10.5964H13.9967C14.2483 10.5964 14.4522 10.3925 14.4522 10.1409C14.4522 9.88939 14.2483 9.68547 13.9967 9.68547H13.1702V8.91093H14.1073Z" fill="#3D3D3D"/>
<path d="M16 5.6L11.3125 1H4.625C4.19402 1 3.7807 1.16857 3.47595 1.46863C3.1712 1.76869 3 2.17565 3 2.6V6M3 14.5V15.4C3 15.8243 3.1712 16.2313 3.47595 16.5314C3.7807 16.8314 4.19402 17 4.625 17H14.375C14.806 17 15.2193 16.8314 15.524 16.5314C15.8288 16.2313 16 15.8243 16 15.4V14.5" stroke="#3D3D3D" stroke-width="1.5" stroke-linecap="round" stroke-linejoin="round"/>
<rect x="1" y="6" width="17" height="8" stroke="#3D3D3D" stroke-width="1.5" stroke-linecap="round" stroke-linejoin="round"/>
</svg>
