<svg width="31" height="29" viewBox="0 0 31 29" fill="none" xmlns="http://www.w3.org/2000/svg">
<path d="M8.39454 12.8705H6.76812C6.56388 12.8705 6.36799 12.9519 6.22374 13.0965C6.0795 13.2412 5.99885 13.4373 5.99952 13.6416L6.01084 19.4802C6.01084 19.9047 6.35497 20.2488 6.77945 20.2488C7.20392 20.2488 7.54805 19.9047 7.54805 19.4802V17.7074C7.86231 17.7058 8.19804 17.7045 8.39454 17.7045C9.74504 17.7045 10.8438 16.6202 10.8438 15.2875C10.8438 13.9548 9.74504 12.8705 8.39454 12.8705ZM8.39454 16.1673C8.1963 16.1673 7.85934 16.1686 7.54385 16.1703C7.54221 15.8431 7.54078 15.4907 7.54078 15.2875C7.54078 15.1136 7.53991 14.7498 7.53898 14.4078H8.39449C8.88886 14.4078 9.30652 14.8106 9.30652 15.2875C9.30652 15.7644 8.88891 16.1673 8.39454 16.1673Z" fill="#AD1E23"/>
<path d="M14.9326 12.8705H13.3272C13.1231 12.8705 12.9274 12.9517 12.7832 13.0962C12.639 13.2406 12.5582 13.4365 12.5586 13.6406C12.5586 13.6406 12.57 19.2896 12.5701 19.3101C12.5708 19.514 12.6525 19.7092 12.7972 19.8529C12.9413 19.9958 13.1359 20.076 13.3387 20.076H13.3416C13.3901 20.0758 14.5352 20.0714 14.993 20.0634C16.7297 20.0331 17.9902 18.5232 17.9902 16.4733C17.9902 14.3184 16.7614 12.8705 14.9326 12.8705ZM14.9661 18.5265C14.7671 18.5299 14.4246 18.5328 14.1047 18.5348C14.1026 17.8672 14.0984 15.1016 14.0972 14.4078H14.9326C16.3434 14.4078 16.453 15.9887 16.453 16.4733C16.453 17.4823 15.9932 18.5085 14.9661 18.5265Z" fill="#AD1E23"/>
<path d="M23.0566 14.3501C23.4811 14.3501 23.8252 14.0059 23.8252 13.5815C23.8252 13.157 23.4811 12.8129 23.0566 12.8129H20.7066C20.2821 12.8129 19.938 13.157 19.938 13.5815V19.3797C19.938 19.8042 20.2821 20.1483 20.7066 20.1483C21.1311 20.1483 21.4752 19.8042 21.4752 19.3797V17.1943H22.87C23.2944 17.1943 23.6386 16.8502 23.6386 16.4257C23.6386 16.0013 23.2944 15.6571 22.87 15.6571H21.4752V14.3501H23.0566Z" fill="#AD1E23"/>
<path d="M26.2497 9.43759L18.3395 1H7.05423C6.32695 1 5.62945 1.28447 5.11519 1.79082C4.60092 2.29717 4.31201 2.98394 4.31201 3.70003V9.43759M4.31201 23.7815V25.3003C4.31201 26.0164 4.60092 26.7031 5.11519 27.2095C5.62945 27.7158 6.32695 28.0003 7.05423 28.0003H23.5075C24.2348 28.0003 24.9323 27.7158 25.4466 27.2095C25.9608 26.7031 26.2497 26.0164 26.2497 25.3003V23.7815" stroke="#AD1E23" stroke-width="1.2"/>
<rect x="0.9375" y="9.43756" width="28.6878" height="13.5001" stroke="#AD1E23" stroke-width="1.2"/>
</svg>
