<svg width="34" height="35" viewBox="0 0 34 35" fill="none" xmlns="http://www.w3.org/2000/svg">
<path d="M32.3738 11.4608L30.319 7.76219C30.0575 7.27651 29.4971 7.05235 28.974 7.23915L26.0599 8.24787C24.4908 6.71611 22.5854 5.5953 20.4933 4.99754L19.9702 1.934C19.8955 1.3736 19.4098 1 18.8494 1H14.6277C14.0673 1 13.5816 1.3736 13.5069 1.934L13.0212 4.99754C10.929 5.63266 9.02368 6.75347 7.45455 8.28523L4.54046 7.23915C4.01742 7.05235 3.45701 7.27651 3.19549 7.76219L1.14068 11.4608C0.879162 11.9465 0.991243 12.5443 1.43956 12.8805L3.86798 14.8233C3.45701 16.7286 3.45701 18.6714 3.86798 20.5767L1.4022 22.5195C0.991243 22.8557 0.879162 23.4535 1.14068 23.9391L3.19549 27.6378C3.45701 28.1235 4.01742 28.3476 4.54046 28.1608L7.45455 27.1521C9.02368 28.6839 10.929 29.8047 13.0212 30.4025L13.5443 33.466C13.619 34.0264 14.1047 34.4 14.6651 34.4H18.8868C19.4472 34.4 19.9329 34.0264 20.0076 33.466L20.4933 30.4025C22.5854 29.7673 24.4908 28.6465 26.0599 27.1148L28.974 28.1608C29.4971 28.3476 30.0575 28.1235 30.319 27.6378L32.3738 23.9391C32.6353 23.4535 32.5232 22.8557 32.1123 22.5195L29.6839 20.5767C30.0948 18.6714 30.0948 16.7286 29.6839 14.8233L32.1123 12.8805C32.5232 12.5443 32.6353 11.9465 32.3738 11.4608ZM16.7572 25.2468C12.5729 25.2468 9.21048 21.8843 9.21048 17.7C9.21048 13.5157 12.5729 10.1532 16.7572 10.1532C20.9416 10.1532 24.304 13.5157 24.304 17.7C24.2666 21.847 20.9042 25.2094 16.7572 25.2468Z" stroke="#AD1E23" stroke-width="1.2"/>
</svg>
