<svg width="16" height="16" viewBox="0 0 16 16" fill="none" xmlns="http://www.w3.org/2000/svg">
<path d="M11.9562 5.33203C13.0064 5.33203 13.8579 4.4366 13.8579 3.33203C13.8579 2.22746 13.0064 1.33203 11.9562 1.33203C10.9059 1.33203 10.0544 2.22746 10.0544 3.33203C10.0544 4.4366 10.9059 5.33203 11.9562 5.33203Z" stroke="#FFFFFF" stroke-width="1.5" stroke-linecap="round" stroke-linejoin="round"/>
<path d="M4.34922 10C5.3995 10 6.25092 9.1046 6.25092 8.00003C6.25092 6.89546 5.3995 6.00003 4.34922 6.00003C3.29893 6.00003 2.44751 6.89546 2.44751 8.00003C2.44751 9.1046 3.29893 10 4.34922 10Z" stroke="#FFFFFF" stroke-width="1.5" stroke-linecap="round" stroke-linejoin="round"/>
<path d="M11.9562 14.668C13.0064 14.668 13.8579 13.7725 13.8579 12.668C13.8579 11.5634 13.0064 10.668 11.9562 10.668C10.9059 10.668 10.0544 11.5634 10.0544 12.668C10.0544 13.7725 10.9059 14.668 11.9562 14.668Z" stroke="#FFFFFF" stroke-width="1.5" stroke-linecap="round" stroke-linejoin="round"/>
<path d="M5.99121 9.00781L10.3208 11.6611" stroke="#FFFFFF" stroke-width="1.5" stroke-linecap="round" stroke-linejoin="round"/>
<path d="M10.3144 4.33997L5.99121 6.9933" stroke="#FFFFFF" stroke-width="1.5" stroke-linecap="round" stroke-linejoin="round"/>
</svg>
