<svg width="16" height="12" viewBox="0 0 16 12" fill="none" xmlns="http://www.w3.org/2000/svg">
<path fill-rule="evenodd" clip-rule="evenodd" d="M0 0H16V12H0V0Z" fill="white"/>
<path fill-rule="evenodd" clip-rule="evenodd" d="M0 0H16V6H0V0Z" fill="#DF0000"/>
<path fill-rule="evenodd" clip-rule="evenodd" d="M3.68853 1.00471C3.2676 1.10648 2.89061 1.36807 2.62084 1.74556C2.35108 2.12306 2.20498 2.59348 2.20706 3.07783C2.20915 3.56218 2.3593 4.03098 2.63229 4.40552C2.90529 4.78006 3.28452 5.03753 3.70631 5.13471C3.46468 5.21337 3.21162 5.23759 2.96166 5.20598C2.71169 5.17438 2.46972 5.08757 2.24964 4.95054C2.02956 4.8135 1.83569 4.62894 1.67915 4.40743C1.52261 4.18592 1.40648 3.93182 1.33742 3.65971C1.20026 3.11273 1.26118 2.52691 1.50687 2.03032C1.75256 1.53374 2.16303 1.16679 2.64853 1.00971C3.00409 0.894711 3.33298 0.892211 3.69075 1.00471H3.68853Z" fill="white"/>
<path fill-rule="evenodd" clip-rule="evenodd" d="M3.4003 2.74734L3.50919 3.12234L3.2203 2.89234L2.93586 3.12734L3.0403 2.74734L2.75586 2.51484L3.10919 2.50984L3.2203 2.13484L3.33141 2.50984H3.68253L3.4003 2.74734ZM3.78919 4.04734L3.9003 4.42484L3.61141 4.19484L3.32475 4.42734L3.43141 4.04984L3.14697 3.81484L3.5003 3.81234L3.60919 3.43484L3.7203 3.80984H4.07586L3.78919 4.04734ZM5.08919 4.03734L5.19808 4.41734L4.90919 4.18484L4.62475 4.41734L4.72919 4.03984L4.44475 3.80734L4.79808 3.80234L4.90919 3.42734L5.0203 3.80234H5.37141L5.08919 4.03734ZM5.47586 2.74734L5.58475 3.12484L5.29586 2.89484L5.01142 3.12734L5.11808 2.74984L4.83141 2.51484L5.18697 2.51234L5.29364 2.13484L5.40475 2.50984H5.7603L5.47586 2.74734ZM4.44697 1.88984L4.55808 2.26984L4.26919 2.03734L3.98253 2.27234L4.08919 1.89234L3.80475 1.65734L4.15586 1.65484L4.26697 1.27734L4.37808 1.65234H4.73364L4.44697 1.88984Z" fill="white"/>
</svg>
