<svg width="16" height="12" viewBox="0 0 16 12" fill="none" xmlns="http://www.w3.org/2000/svg">
<path d="M0 0H16V12H0V0Z" fill="#FFB700"/>
<path d="M0.667969 6.00047L2.86797 0.667969H5.06797V11.333H2.86797L0.667969 6.00047Z" fill="#FF5B00"/>
<path d="M0.667969 0.667969H2.86797V11.333H0.667969V0.667969Z" fill="#005641"/>
<path d="M5.73242 0.667969H15.3999V11.333H5.73242V0.667969Z" fill="#8D2029"/>
<path d="M9.0868 8.49287L9.1443 8.45787L9.1693 8.49287C9.2018 8.53787 9.2943 8.53537 9.3543 8.49287L9.4018 8.45537L9.4418 8.49037C9.4918 8.53787 9.5868 8.53787 9.6493 8.49037C9.6918 8.46037 9.6993 8.45787 9.7243 8.48287C9.7418 8.49787 9.7918 8.51287 9.8343 8.52037C9.9143 8.53037 9.9143 8.53037 9.9593 8.46037C9.9993 8.40287 10.0043 8.38037 9.9968 8.32287C9.98981 8.27895 9.98481 8.23474 9.9818 8.19037C9.9768 8.12537 9.9793 8.12537 10.0718 8.09037C10.1177 8.07628 10.1628 8.05959 10.2068 8.04037C10.2443 8.01787 10.3493 7.89537 10.3493 7.87037C10.3493 7.86537 10.3093 7.85537 10.2593 7.85037C10.0593 7.82537 10.0268 7.72037 10.1568 7.52537C10.3643 7.20037 10.4918 6.88787 10.4918 6.69037C10.4918 6.60037 10.4993 6.57037 10.5093 6.59037C10.5568 6.66787 10.4718 7.00037 10.3468 7.24037L10.2968 7.33537L10.3443 7.32537C10.3693 7.31787 10.5293 7.25037 10.6943 7.17537C11.1493 6.97037 11.3043 6.93037 11.5993 6.94287C11.8468 6.95287 11.9493 7.00037 12.1243 7.18287C12.2168 7.28287 12.3068 7.35037 12.4693 7.45287C12.8143 7.66787 12.8293 7.68787 12.8468 7.94287C12.8643 8.20037 12.8543 8.21537 12.6593 8.25787C12.4918 8.29537 12.3868 8.37287 12.3593 8.48287C12.3443 8.53787 12.3768 8.54037 12.4593 8.48537L12.5218 8.44537L12.5493 8.48537C12.5868 8.53787 12.6618 8.53787 12.7243 8.48537L12.7743 8.44787L12.8243 8.48537C12.8993 8.54787 12.9993 8.53287 13.0293 8.45537C13.0343 8.44287 13.0493 8.44537 13.0793 8.47287C13.1368 8.52287 13.2793 8.54287 13.2943 8.50287C13.2993 8.48787 13.2893 8.45287 13.2693 8.42287C13.1868 8.29787 13.1593 8.24037 13.1593 8.17287C13.1593 8.07787 13.1843 8.03037 13.2943 7.95537C13.4243 7.86037 13.4643 7.74037 13.3643 7.74037C13.3043 7.74037 13.2418 7.68537 13.2018 7.59787C13.1218 7.41787 13.1393 7.21787 13.2593 6.88287C13.3513 6.68576 13.3975 6.47037 13.3943 6.25287C13.3943 6.06787 13.3893 6.03787 13.3493 5.93537C13.318 5.8641 13.2795 5.79625 13.2343 5.73287L13.1643 5.64037L13.2518 5.56537C13.5218 5.34287 13.4668 4.97787 13.1418 4.83787C13.0418 4.79287 13.0168 4.79037 12.8418 4.79037C12.7418 4.79037 12.5793 4.80537 12.4918 4.82287C12.3743 4.84145 12.2557 4.85148 12.1368 4.85287C11.9668 4.85287 11.9368 4.84787 11.8718 4.81287C11.8043 4.77787 11.7918 4.76037 11.7793 4.67537C11.7781 4.66736 11.775 4.65976 11.7702 4.65323C11.7654 4.64669 11.7591 4.64142 11.7518 4.63787C11.7268 4.63037 11.6218 4.72287 11.6068 4.76287C11.5968 4.78537 11.5918 4.78287 11.5693 4.75537C11.5481 4.72812 11.5312 4.69777 11.5193 4.66537C11.4943 4.58287 11.5268 4.52287 11.6243 4.47537L11.6993 4.44037L11.6543 4.41287C11.5643 4.35537 11.4093 4.39537 11.3543 4.48787C11.3368 4.51287 11.3193 4.53787 11.3143 4.53787C11.3093 4.53787 11.2793 4.51287 11.2493 4.48037C11.1318 4.36537 11.1718 4.19537 11.3293 4.14537C11.4118 4.11787 11.4868 4.13787 11.5018 4.19537C11.5268 4.27787 11.5968 4.16787 11.5843 4.06537C11.5768 3.99787 11.5768 3.99537 11.6243 3.99537C11.6893 3.99537 11.8243 4.08037 11.8693 4.14537C11.9193 4.22287 11.9143 4.34537 11.8593 4.43537L11.8168 4.50537L11.8743 4.49537C11.9543 4.47787 12.0343 4.42787 12.0743 4.36537C12.0954 4.32556 12.1072 4.28152 12.109 4.23651C12.1107 4.1915 12.1023 4.14668 12.0843 4.10537C12.0468 4.03787 12.0518 4.02787 12.1068 4.05037C12.1968 4.08787 12.2468 4.13037 12.2818 4.20287C12.3168 4.26787 12.3193 4.28287 12.3018 4.35287C12.2898 4.39549 12.2713 4.43598 12.2468 4.47287C12.2168 4.51287 12.2143 4.52037 12.2393 4.52037C12.2843 4.52037 12.3743 4.47787 12.4068 4.44537C12.4243 4.42537 12.4493 4.38287 12.4618 4.34537L12.4868 4.28287L12.5118 4.33287C12.5493 4.40037 12.6243 4.46287 12.7143 4.50287C12.8118 4.54287 12.8518 4.54537 12.8018 4.50787C12.7668 4.48287 12.7018 4.29537 12.7243 4.27787C12.8322 4.33829 12.9307 4.41408 13.0168 4.50287C13.1593 4.63037 13.2493 4.67287 13.3793 4.67287C13.5468 4.67287 13.6443 4.52787 13.5693 4.39037C13.5268 4.31037 13.4293 4.29787 13.3693 4.36537C13.3443 4.39787 13.3368 4.42287 13.3443 4.45787C13.3543 4.49787 13.3518 4.50287 13.3143 4.50287C13.2643 4.50287 13.1693 4.44037 12.9993 4.29787C12.7627 4.09422 12.4907 3.93576 12.1968 3.83037C11.9977 3.78435 11.7921 3.77335 11.5893 3.79787C11.4293 3.82787 11.2393 3.92037 11.1343 4.01787C10.9518 4.19287 10.9493 4.42537 11.1268 4.63787L11.1768 4.69787L11.1443 4.75287C11.1198 4.79226 11.1077 4.83807 11.1095 4.8844C11.1113 4.93073 11.1269 4.97547 11.1543 5.01287C11.1793 5.04787 11.2043 5.07537 11.2118 5.07537C11.2168 5.07537 11.2218 5.05287 11.2243 5.02537C11.2293 4.95787 11.2593 4.91287 11.3093 4.89537C11.3543 4.87787 11.3843 4.88787 11.5893 4.97037C11.8068 5.05537 12.1643 5.06037 12.5443 4.98537C12.709 4.94733 12.8804 4.94905 13.0443 4.99037C13.2243 5.06537 13.2643 5.25787 13.1343 5.40287C13.0768 5.46787 13.0243 5.49287 12.8418 5.54287C12.6829 5.58477 12.5177 5.59748 12.3543 5.58037C12.0843 5.57787 11.9868 5.58287 11.8793 5.60537C11.7568 5.63037 11.6843 5.63287 11.3343 5.62537L10.9268 5.61537L10.9718 5.65037C10.9959 5.67177 11.0218 5.69101 11.0493 5.70787C11.0818 5.72537 11.0793 5.72787 11.0343 5.74537C11.0093 5.75537 10.9493 5.76287 10.9018 5.76287H10.8193L10.8093 5.83287C10.8026 5.86586 10.8026 5.89988 10.8093 5.93287C10.8193 5.95787 10.8143 5.96287 10.7893 5.95287C10.7718 5.94537 10.7243 5.93287 10.6818 5.92537C10.6389 5.91617 10.597 5.90278 10.5568 5.88537C10.5093 5.86037 10.5043 5.86037 10.4868 5.89287C10.4718 5.91787 10.3318 6.02287 10.3118 6.02287C10.3028 5.95801 10.2842 5.89483 10.2568 5.83537C10.2318 5.78287 10.2093 5.72287 10.2018 5.70537C10.1943 5.67787 10.1893 5.67537 10.1768 5.69787C10.1693 5.71037 10.1593 5.74787 10.1518 5.77787C10.143 5.81836 10.1278 5.85719 10.1068 5.89287L10.0693 5.94787L10.0443 5.90037C10.0193 5.85037 9.9793 5.79537 9.9643 5.79537C9.9593 5.79537 9.9518 5.81037 9.9468 5.83287C9.9343 5.87287 9.8368 5.99037 9.8118 5.99037C9.8043 5.99037 9.7968 5.95787 9.7968 5.91537C9.7968 5.87787 9.7893 5.84287 9.7793 5.84287C9.7693 5.84287 9.7618 5.85537 9.7618 5.86787C9.7618 5.89787 9.6793 5.99287 9.6493 5.99287C9.6393 5.99287 9.6193 6.00287 9.6068 6.01787C9.5768 6.05037 9.5518 6.04537 9.5643 6.00787C9.5678 5.97585 9.56439 5.94345 9.5543 5.91287L9.5293 5.83287C9.5243 5.82037 9.4943 5.82537 9.4293 5.84537C9.3293 5.87787 9.2943 5.87037 9.3468 5.83037C9.3668 5.81537 9.3968 5.76287 9.4118 5.71537C9.4293 5.66537 9.4543 5.62287 9.4668 5.61787C9.4843 5.61287 9.4843 5.61787 9.4618 5.64787C9.44732 5.66689 9.43787 5.68924 9.4343 5.71287C9.4343 5.72537 9.4218 5.75787 9.4093 5.78537C9.3943 5.81037 9.3843 5.83537 9.3868 5.83787C9.3893 5.84037 9.4293 5.82537 9.4743 5.80537L9.5543 5.76537V5.80037C9.5543 5.82037 9.5643 5.87037 9.5768 5.91287L9.5993 5.98787L9.6543 5.96287C9.7093 5.93787 9.7618 5.84787 9.7618 5.77537C9.7618 5.74037 9.7818 5.74537 9.7918 5.78287C9.7918 5.79287 9.8068 5.83537 9.8168 5.87537L9.8418 5.94537L9.8793 5.90037C9.9018 5.87537 9.9268 5.82537 9.9368 5.79287C9.9568 5.73287 9.9868 5.70537 9.9868 5.75037C9.9868 5.78037 10.0718 5.89537 10.0868 5.88537C10.0968 5.88037 10.1118 5.83787 10.1243 5.79037C10.1493 5.69037 10.1868 5.62537 10.2118 5.64037C10.2218 5.64537 10.2243 5.65537 10.2193 5.66537C10.2143 5.67037 10.2343 5.73537 10.2643 5.80537C10.286 5.85784 10.3077 5.91034 10.3293 5.96287C10.3393 5.98787 10.3493 5.98787 10.4118 5.93037C10.4493 5.89537 10.4868 5.85787 10.4893 5.84537C10.4968 5.82537 10.5043 5.82787 10.5393 5.85037C10.613 5.88931 10.6938 5.91311 10.7768 5.92037C10.7818 5.91537 10.7868 5.87037 10.7868 5.82037L10.7893 5.72787L10.8393 5.73787C10.8643 5.74537 10.9218 5.74537 10.9643 5.73787L11.0393 5.72787L10.9718 5.67787C10.9343 5.65287 10.8968 5.62037 10.8868 5.60537C10.8793 5.59037 10.8443 5.57537 10.8068 5.57287C10.7043 5.56287 10.5218 5.46287 10.5218 5.41287C10.5218 5.40287 10.5468 5.42037 10.5768 5.44787C10.6468 5.51037 10.7418 5.54787 10.8268 5.54787H10.8868L10.8493 5.49787C10.8226 5.4591 10.8054 5.41455 10.7993 5.36787C10.7943 5.29287 10.7868 5.28287 10.7093 5.23037C10.6644 5.19853 10.6225 5.16253 10.5843 5.12287L10.5418 5.07537L10.5193 5.13287C10.5068 5.16537 10.4943 5.19037 10.4868 5.19037C10.4818 5.19037 10.4568 5.17037 10.4368 5.14787C10.4227 5.13157 10.4058 5.11801 10.3868 5.10787C10.3793 5.10787 10.3618 5.13787 10.3418 5.17537L10.3068 5.24287L10.2818 5.20537C10.2596 5.17471 10.2344 5.14625 10.2068 5.12037C10.1768 5.09537 10.1643 5.07537 10.1743 5.07537C10.1843 5.07537 10.2168 5.10037 10.2493 5.13287L10.3043 5.19037L10.3293 5.14787C10.3437 5.11842 10.3481 5.08505 10.3418 5.05287C10.3318 5.00787 10.3343 5.00537 10.3493 5.03537C10.3709 5.06359 10.3961 5.08881 10.4243 5.11037L10.4793 5.15537L10.5168 5.08787C10.5543 5.01787 10.5543 5.01787 10.5693 5.06037C10.5943 5.11287 10.7568 5.24787 10.8943 5.32537C10.9193 5.33787 10.9093 5.29787 10.8693 5.20037C10.8573 5.16833 10.8505 5.13456 10.8493 5.10037C10.8493 5.05537 10.8368 5.03537 10.7793 4.99037C10.7436 4.96751 10.7136 4.93662 10.6919 4.90017C10.6702 4.86371 10.6573 4.82269 10.6543 4.78037C10.6468 4.73787 10.6318 4.69287 10.6193 4.67787C10.6043 4.65287 10.5993 4.66787 10.6043 4.74287C10.6093 4.79537 10.6018 4.86037 10.5893 4.88787L10.5693 4.93787L10.5543 4.89537C10.5443 4.87287 10.5043 4.83287 10.4668 4.80787C10.4293 4.78287 10.4018 4.75787 10.4068 4.75287C10.4118 4.74787 10.4518 4.77037 10.4943 4.80287C10.5618 4.85537 10.5743 4.86037 10.5843 4.83787C10.5943 4.81287 10.5843 4.69787 10.5643 4.61787C10.5543 4.57787 10.5543 4.57787 10.6043 4.62787C10.6393 4.66287 10.6593 4.70787 10.6768 4.78287C10.6968 4.87787 10.7068 4.89537 10.7943 4.97287C10.8468 5.02037 10.8943 5.05537 10.8968 5.05287C10.9018 5.04787 10.9068 4.92787 10.9118 4.78287C10.9218 4.50537 10.9118 4.43787 10.8443 4.35287L10.8093 4.30787L10.8643 4.25037C10.9259 4.19143 10.9671 4.11435 10.9818 4.03037L10.9918 3.96287L10.9318 4.02037C10.8818 4.06787 10.8568 4.07787 10.7993 4.07787C10.7418 4.07787 10.7193 4.06787 10.6818 4.02787C10.6234 3.97163 10.5522 3.93045 10.4743 3.90787C10.4443 3.89787 10.4343 3.90287 10.4343 3.92287C10.4343 3.93787 10.4193 3.97787 10.3993 4.01537L10.3643 4.08037L10.2893 4.00537C10.2418 3.96287 10.1893 3.92537 10.1468 3.91537C10.0443 3.89037 10.0393 3.89037 10.0393 3.96787C10.0393 4.08537 9.9893 4.10787 9.8993 4.03037C9.8293 3.97037 9.7743 3.95537 9.6418 3.97287L9.5418 3.98287L9.5593 4.02787C9.5743 4.06537 9.5718 4.08287 9.5393 4.12537C9.4868 4.19537 9.4193 4.22537 9.3143 4.22537C9.2643 4.22537 9.2043 4.23537 9.1793 4.24787C9.1543 4.26037 9.0893 4.27287 9.0368 4.27787C8.9868 4.28287 8.9293 4.29287 8.9118 4.29787C8.8868 4.30787 8.8868 4.29787 8.8943 4.24287C8.9068 4.15787 8.8443 4.09287 8.7518 4.09287C8.6293 4.09287 8.5743 4.20287 8.6218 4.34787C8.63152 4.37915 8.63986 4.41085 8.6468 4.44287C8.67963 4.50538 8.7237 4.56132 8.7768 4.60787C8.8418 4.67287 8.9018 4.74037 8.9118 4.75787C8.93192 4.78394 8.95752 4.80527 8.9868 4.82037L9.0418 4.85037L9.0343 4.79037C9.0268 4.72537 9.0393 4.71537 9.0743 4.76287C9.0868 4.77787 9.1193 4.80537 9.1443 4.82037C9.1868 4.84537 9.1943 4.84537 9.1943 4.82537C9.1943 4.81037 9.2018 4.77787 9.2118 4.75287L9.2293 4.70787L9.2618 4.77037C9.2793 4.80537 9.3368 4.88287 9.3893 4.94537C9.4918 5.06287 9.5568 5.19537 9.5243 5.22537C9.5093 5.23787 9.4743 5.23787 9.3993 5.22287C9.3443 5.21287 9.2743 5.20537 9.2443 5.21037C9.1868 5.21787 9.1818 5.21037 9.2193 5.16537C9.2568 5.11537 9.2493 5.10787 9.1743 5.10787C9.0868 5.10787 8.8693 5.06537 8.7843 5.03287C8.7043 5.00037 8.6843 5.00787 8.6593 5.08537L8.6168 5.22537L8.5918 5.30037L8.6818 5.29287C8.72819 5.28801 8.77416 5.27966 8.8193 5.26787C8.837 5.26197 8.85566 5.25942 8.8743 5.26037C8.8793 5.26287 8.8668 5.29287 8.8493 5.32787L8.8143 5.38787L8.8693 5.37787C8.8993 5.37037 8.9443 5.35537 8.9693 5.34287C9.0143 5.32287 9.0193 5.32287 9.0543 5.38037C9.0968 5.44787 9.1293 5.44537 9.1368 5.37287C9.1443 5.29787 9.1693 5.30787 9.2168 5.40787C9.2618 5.50287 9.3068 5.53787 9.3168 5.48287C9.3193 5.46287 9.3418 5.43287 9.3693 5.41287C9.4243 5.37537 9.4643 5.38787 9.4868 5.44537C9.5118 5.50787 9.4568 5.57037 9.3018 5.66537C9.15825 5.74462 9.03474 5.85566 8.94071 5.98999C8.84669 6.12431 8.78463 6.27837 8.7593 6.44037C8.7118 6.73537 8.8593 7.04037 9.1493 7.26287C9.2893 7.36787 9.5118 7.47787 9.4968 7.43787C9.4368 7.25537 9.4393 6.91287 9.4993 6.85537C9.5093 6.84537 9.5068 6.88037 9.4918 6.93287C9.4418 7.13037 9.4668 7.28537 9.5918 7.65037C9.7018 7.98037 9.6868 8.12287 9.5268 8.21537C9.4768 8.24537 9.4443 8.25037 9.3068 8.24787C9.1568 8.24787 9.1393 8.24787 9.0918 8.28787C9.03436 8.34653 8.99676 8.42172 8.9843 8.50287C8.9843 8.53537 9.0193 8.53037 9.0843 8.49287H9.0868Z" fill="#FFB700"/>
<path d="M11.5125 8.48478L11.575 8.44478L11.6175 8.48478C11.6725 8.53728 11.74 8.53478 11.7925 8.48228C11.8175 8.45728 11.8375 8.44228 11.84 8.44478L11.8625 8.48478C11.875 8.50728 11.9025 8.51728 11.9525 8.52228C12.01 8.52478 12.0275 8.52228 12.0525 8.48728L12.0775 8.44478L12.14 8.48478C12.31 8.59478 12.4 8.47978 12.3225 8.25228C12.285 8.13728 12.3075 8.07229 12.43 7.92729C12.4825 7.86479 12.525 7.79729 12.525 7.77729C12.525 7.74979 12.515 7.74479 12.445 7.74729C12.38 7.74729 12.36 7.73979 12.325 7.70229C12.2675 7.63979 12.2725 7.56729 12.335 7.48729L12.385 7.42479L12.295 7.36479C12.2231 7.31172 12.1562 7.25232 12.095 7.18729C12.0404 7.12288 11.9737 7.06986 11.8986 7.03125C11.8235 6.99265 11.7416 6.96921 11.6575 6.96229L11.54 6.94979V7.03979C11.54 7.15229 11.595 7.26229 11.74 7.44729C11.905 7.65729 11.915 7.68979 11.9225 7.96479L11.93 8.19728L11.88 8.24228C11.8375 8.28228 11.82 8.28978 11.68 8.29728C11.5475 8.30478 11.5175 8.31228 11.48 8.34728C11.4361 8.37929 11.4058 8.42655 11.395 8.47978C11.3875 8.51728 11.39 8.52478 11.4175 8.52478C11.435 8.52478 11.4775 8.50728 11.5125 8.48478ZM7.95746 7.88478C7.97257 7.86258 7.98123 7.83662 7.98246 7.80978C7.98246 7.78478 7.99746 7.77479 8.06246 7.76479L8.13996 7.75478L8.08996 7.71229C8.02746 7.66229 8.01996 7.62479 8.07496 7.62479C8.12996 7.62479 8.21996 7.56979 8.23496 7.52729C8.24246 7.50729 8.23496 7.48229 8.22496 7.46979C8.19496 7.43479 8.13746 7.43979 8.12746 7.47978C8.11496 7.51978 8.09746 7.51978 8.05246 7.47978C7.98996 7.41729 7.98746 7.28979 8.05246 7.21479C8.07996 7.17979 8.07996 7.17979 8.04246 7.14229C8.00246 7.10229 7.97246 7.02729 7.99246 7.00729C7.99746 7.00229 8.02996 7.00729 8.06246 7.01979C8.11246 7.03479 8.12996 7.03479 8.14996 7.01979C8.20746 6.97229 8.14496 6.91229 8.04996 6.92729C8.00996 6.93229 7.99496 6.92729 7.98996 6.90729C7.98496 6.89229 7.95246 6.87229 7.91496 6.86229C7.84746 6.84479 7.84746 6.84479 7.84746 6.89229C7.84746 6.94229 7.81746 6.95229 7.76246 6.91979C7.71746 6.89479 7.67496 6.91479 7.67496 6.96229C7.67496 7.00729 7.71746 7.02729 7.79996 7.02229C7.85996 7.01979 7.86246 7.06479 7.80496 7.12979L7.76246 7.17979L7.79496 7.22729C7.84496 7.29729 7.83996 7.41479 7.78746 7.47479L7.74496 7.51979L7.71746 7.48229C7.67746 7.43229 7.62496 7.43479 7.60996 7.48979C7.60246 7.52479 7.60996 7.53978 7.65496 7.57978C7.68496 7.60478 7.72996 7.62479 7.75246 7.62479C7.80996 7.62479 7.80746 7.67228 7.74746 7.71728L7.69746 7.75478L7.77246 7.76479C7.81246 7.77229 7.84746 7.78229 7.84746 7.78979C7.84746 7.82229 7.89746 7.91978 7.91246 7.91978C7.92246 7.91978 7.94246 7.90228 7.95746 7.88228V7.88478Z" fill="#FFB700"/>
<path d="M8.91242 7.46922C8.97992 7.44422 9.12492 7.31922 9.12492 7.29172C9.12492 7.28172 9.08492 7.23672 9.03492 7.19172C8.93492 7.10172 8.82242 6.94422 8.79242 6.85422C8.77742 6.80422 8.70492 6.72422 8.49992 6.52422L8.22742 6.26172L8.14992 6.28172C8.10492 6.29172 8.05242 6.30172 8.03242 6.30172C7.99492 6.30172 7.99492 6.30172 8.04492 6.34172L8.09492 6.38172L8.16992 6.34172C8.23742 6.30172 8.23992 6.30172 8.24742 6.33422C8.25242 6.35172 8.24242 6.38422 8.22242 6.40672C8.20492 6.42922 8.19492 6.45672 8.19742 6.46422C8.20492 6.47172 8.18742 6.48922 8.15992 6.50422C8.10992 6.52922 8.07242 6.61172 8.11242 6.61172C8.14992 6.61172 8.22992 6.51172 8.21992 6.47922C8.21492 6.46172 8.21992 6.44422 8.22492 6.43922C8.25742 6.42172 8.25492 6.49922 8.22492 6.53922C8.20492 6.55922 8.19492 6.58422 8.19992 6.59422C8.20492 6.60172 8.18742 6.61922 8.15992 6.63422C8.10992 6.65922 8.07242 6.74172 8.11242 6.74172C8.15242 6.74172 8.22992 6.64672 8.22242 6.61172C8.21742 6.59422 8.21742 6.57422 8.22492 6.56922C8.24742 6.55922 8.25742 6.61922 8.23992 6.64922C8.23533 6.65766 8.23292 6.66711 8.23292 6.67672C8.23292 6.68633 8.23533 6.69578 8.23992 6.70422C8.25742 6.73672 8.23992 6.79672 8.20742 6.81672C8.19492 6.82422 8.20242 6.84172 8.23742 6.86672C8.28742 6.90172 8.28742 6.90672 8.28742 7.06672C8.28742 7.20172 8.29242 7.23672 8.31742 7.25922C8.34242 7.28422 8.34742 7.28422 8.34742 7.25922C8.34742 7.23422 8.39742 7.19922 8.43492 7.19922C8.44742 7.19922 8.51992 7.26172 8.59742 7.33672C8.67492 7.41172 8.75742 7.47922 8.77992 7.48172L8.83492 7.49172C8.84242 7.49172 8.87742 7.48422 8.91242 7.46672V7.46922ZM8.07992 6.81672C8.07992 6.77422 7.98992 6.72672 7.88242 6.71672C7.79492 6.70422 7.79492 6.70672 7.79492 6.74922C7.79492 6.78422 7.80742 6.79922 7.86992 6.82422C7.96492 6.86672 8.07992 6.86172 8.07992 6.81672Z" fill="#FFB700"/>
<path d="M8.17747 6.81086C8.22247 6.77086 8.24247 6.72586 8.21497 6.72586C8.18497 6.72586 8.10497 6.79586 8.10497 6.82586C8.10497 6.86586 8.11997 6.86336 8.17997 6.81086H8.17747ZM8.08497 6.68336C8.08747 6.65836 8.07247 6.64336 8.02747 6.62086C7.92747 6.57836 7.81247 6.55586 7.78497 6.57836C7.73247 6.62086 7.76747 6.67586 7.84997 6.68586C7.88497 6.68836 7.92997 6.69836 7.95247 6.70836C8.01747 6.73336 8.07747 6.72086 8.08497 6.68336ZM8.08497 6.55086C8.08997 6.51836 8.06747 6.50586 7.88497 6.44086C7.74747 6.39086 7.68747 6.41586 7.73247 6.49836C7.74747 6.52586 7.77247 6.53836 7.82997 6.54836C7.87247 6.55336 7.92997 6.56586 7.95747 6.57586C8.03247 6.60086 8.07747 6.59086 8.08247 6.55086H8.08497ZM8.17497 6.42836C8.20247 6.40086 8.22497 6.36836 8.22497 6.35336C8.22497 6.31586 8.11747 6.38587 8.10247 6.43586C8.08747 6.49336 8.11497 6.49086 8.17747 6.42836H8.17497ZM8.08497 6.42086C8.08997 6.38086 8.02497 6.34587 7.89497 6.31837C7.79747 6.29587 7.75497 6.30837 7.76247 6.35336C7.76747 6.37836 7.79997 6.39587 7.88747 6.42336C8.03497 6.46836 8.07747 6.46836 8.08497 6.42086ZM8.20997 6.23587C8.37997 6.16087 8.39247 5.97337 8.23497 5.92337C8.16997 5.90337 8.12997 5.91587 8.10497 5.95837C8.08497 5.99337 8.09747 6.05337 8.12247 6.05337C8.13247 6.05337 8.13997 6.06587 8.13997 6.07837C8.13997 6.14587 7.88497 6.17337 7.77997 6.12087C7.74247 6.10337 7.72997 6.05337 7.75747 6.05337C7.78247 6.05337 7.79747 6.00337 7.78497 5.97087C7.76997 5.92087 7.71997 5.90587 7.65247 5.92587C7.49497 5.96587 7.49997 6.15087 7.65997 6.22587C7.83698 6.29084 8.03071 6.29436 8.20997 6.23587Z" fill="#FFB700"/>
<path d="M8.10727 6.0925C8.11727 6.0825 8.11227 6.0675 8.09727 6.0575C8.06227 6.03 8.06477 5.9875 8.10227 5.94C8.13227 5.905 8.13477 5.85 8.14477 5.3125C8.16227 4.385 8.23227 3.6875 8.32227 3.5175C8.35977 3.4525 8.35477 3.4525 8.25977 3.5175C8.13514 3.60433 8.03451 3.7213 7.96727 3.8575C7.81227 4.145 7.75977 4.5325 7.75977 5.3625C7.75977 5.8325 7.76227 5.895 7.78977 5.9375C7.81477 5.9825 7.81477 5.9975 7.79977 6.0425C7.78727 6.07 7.78227 6.1 7.78727 6.105C7.82227 6.1375 8.07227 6.13 8.10727 6.0925ZM9.50977 5.2075C9.51727 5.2 9.50477 5.1575 9.48477 5.1175C9.45477 5.0525 9.44227 5.0425 9.39977 5.0425C9.19987 5.02512 9.00491 4.97087 8.82477 4.8825C8.69727 4.825 8.64977 4.8125 8.63727 4.8275C8.59727 4.865 8.66227 4.9525 8.76227 5C8.90943 5.05303 9.06357 5.08419 9.21977 5.0925C9.28727 5.0925 9.28977 5.0925 9.24977 5.15L9.22477 5.19H9.29977L9.42477 5.205C9.49977 5.2225 9.49977 5.2225 9.50977 5.2075Z" fill="#FFB700"/>
<path d="M10.2998 5.62406C10.2998 5.59906 10.2273 5.53656 10.1573 5.49406C10.0998 5.46156 10.0898 5.45906 10.0898 5.48656C10.0898 5.52656 10.0548 5.62906 10.0398 5.62906C10.0323 5.62906 10.0198 5.60906 10.0148 5.58656C10.0073 5.56156 9.97979 5.51156 9.95229 5.47906L9.90229 5.41656L9.8673 5.47406C9.8323 5.52906 9.7698 5.58156 9.7423 5.58156C9.7373 5.58156 9.7348 5.55156 9.7423 5.51906C9.7448 5.47906 9.7423 5.44906 9.7298 5.44406C9.7198 5.43656 9.70979 5.43906 9.70979 5.44906C9.70979 5.46906 9.6248 5.56406 9.6098 5.56406C9.5998 5.56406 9.5898 5.53906 9.5848 5.50406L9.5648 5.38406C9.5598 5.35406 9.5723 5.37406 9.5898 5.43406L9.6298 5.53656L9.66979 5.47406C9.6879 5.44823 9.70144 5.41948 9.70979 5.38906C9.70979 5.37656 9.7173 5.37156 9.7273 5.37656C9.7373 5.38156 9.7498 5.42406 9.7548 5.46906L9.7673 5.55406L9.81229 5.50406C9.83584 5.47898 9.85757 5.45225 9.87729 5.42406C9.89479 5.39406 9.89729 5.39406 9.93479 5.42406C9.95479 5.44406 9.98729 5.48656 10.0073 5.52156C10.0273 5.55656 10.0448 5.58156 10.0473 5.57906L10.0623 5.49906L10.0723 5.42406C10.0748 5.41156 10.2073 5.49906 10.2573 5.54156C10.2873 5.56906 10.3173 5.58906 10.3223 5.58406C10.3273 5.57906 10.3323 5.53906 10.3323 5.49156C10.3323 5.42156 10.3248 5.40156 10.2823 5.36406C10.2323 5.31906 10.2323 5.31906 10.2123 5.35156C10.1873 5.39406 10.1598 5.39406 10.1598 5.35156C10.1598 5.32156 10.0648 5.20406 10.0423 5.20406C10.0348 5.20406 10.0148 5.22906 9.99729 5.26156C9.97979 5.29406 9.95979 5.31906 9.95479 5.31906C9.92979 5.31906 9.79729 5.16906 9.79729 5.14406C9.79729 5.12406 9.8073 5.12906 9.8298 5.16406C9.85214 5.1969 9.87814 5.22709 9.90729 5.25406C9.95729 5.29906 9.97729 5.28906 9.99729 5.20156C10.0048 5.17656 10.0148 5.15656 10.0223 5.15656C10.0423 5.15656 10.1573 5.27906 10.1723 5.31906L10.1898 5.35906L10.2023 5.31406C10.2173 5.25906 10.2348 5.25906 10.2598 5.30906C10.2698 5.32906 10.3198 5.37406 10.3698 5.40406L10.4623 5.46406L10.4798 5.40406C10.4898 5.37156 10.5048 5.35406 10.5098 5.36406C10.5198 5.37656 10.4948 5.47656 10.4773 5.49656C10.4773 5.49906 10.4448 5.48156 10.4123 5.45906L10.3498 5.41406V5.49406C10.3498 5.53656 10.3448 5.58906 10.3398 5.60906C10.3273 5.64906 10.2973 5.65906 10.2973 5.62406H10.2998ZM9.83729 4.98906C9.72729 4.89906 9.7123 4.87906 9.7123 4.83406L9.7148 4.78906L9.72229 4.83156C9.72729 4.85656 9.7573 4.89656 9.7923 4.92656L9.85729 4.97656L9.89479 4.93156C9.91729 4.90656 9.93479 4.87656 9.93479 4.86656C9.93479 4.83656 9.93979 4.83906 10.0148 4.90406C10.0798 4.96156 10.0823 4.96156 10.0898 4.92406C10.0973 4.90406 10.0948 4.86406 10.0898 4.83656C10.0648 4.76156 10.0698 4.75156 10.1023 4.79656L10.1623 4.86656C10.1873 4.89406 10.1898 4.89406 10.1998 4.85906C10.2073 4.83656 10.2123 4.79906 10.2123 4.77406V4.72656L10.2698 4.79406C10.3273 4.85906 10.3323 4.86156 10.3473 4.82906C10.3598 4.81156 10.3673 4.76906 10.3673 4.73656C10.3673 4.69156 10.3723 4.68156 10.3823 4.69656C10.4023 4.72656 10.3898 4.80156 10.3548 4.86656L10.3298 4.91656L10.2973 4.86406C10.2548 4.79906 10.2398 4.79906 10.2148 4.86906C10.1898 4.93656 10.1723 4.94156 10.1473 4.88906C10.1323 4.85656 10.1273 4.86156 10.1173 4.93156L10.1048 5.00656L10.0298 4.94906L9.95479 4.89156L9.91729 4.92906C9.89979 4.95156 9.88479 4.97906 9.88479 4.98906C9.88479 5.01406 9.86479 5.01406 9.83729 4.98906ZM10.8123 4.64906C10.7748 4.61406 10.7473 4.57906 10.7523 4.57406C10.7598 4.56656 10.7648 4.56406 10.7673 4.56906C10.7915 4.59485 10.8165 4.61986 10.8423 4.64406C10.9273 4.73406 10.9098 4.73656 10.8148 4.64906H10.8123ZM9.5123 4.51406C9.4773 4.46406 9.4798 4.43406 9.5248 4.37906C9.5548 4.34156 9.5698 4.33656 9.6248 4.34406C9.6623 4.34656 9.73979 4.37906 9.79729 4.41406C9.88039 4.46371 9.9755 4.48964 10.0723 4.48906L10.0298 4.41906C9.97479 4.33656 9.97479 4.32656 10.0398 4.37656C10.1048 4.42906 10.1823 4.44406 10.3573 4.43906L10.4423 4.43656L10.3923 4.38656C10.3248 4.31906 10.3448 4.31156 10.4223 4.37906C10.4923 4.44156 10.4898 4.44656 10.3373 4.46156C10.2737 4.46798 10.2095 4.46376 10.1473 4.44906C10.0623 4.42406 10.0573 4.42656 10.0748 4.45406C10.0848 4.47156 10.0998 4.48406 10.1073 4.48406C10.1173 4.48406 10.1248 4.49406 10.1248 4.50406C10.1248 4.53656 9.93979 4.50656 9.84979 4.46406C9.6498 4.36156 9.6248 4.35156 9.5748 4.36656C9.56148 4.37169 9.54932 4.37941 9.53901 4.38928C9.52871 4.39915 9.52048 4.41098 9.5148 4.42406C9.4823 4.50656 9.5998 4.57156 9.64729 4.49906C9.66229 4.47656 9.65979 4.46406 9.63479 4.43656C9.5998 4.40156 9.6048 4.39656 9.6498 4.41156C9.6823 4.42406 9.6848 4.50156 9.6548 4.53156C9.6223 4.56406 9.5423 4.55656 9.5123 4.51406Z" fill="black"/>
<path d="M10.3104 4.3114C10.2854 4.2864 10.3054 4.2814 10.4179 4.2789C10.5579 4.2764 10.6429 4.2539 10.7429 4.1889C10.8229 4.1389 10.8454 4.1489 10.7679 4.2014C10.7004 4.2514 10.5929 4.2864 10.4854 4.2964L10.3579 4.3139C10.3379 4.3189 10.3154 4.3164 10.3079 4.3114H10.3104Z" fill="black"/>
</svg>
