<svg width="58" height="55" viewBox="0 0 58 55" fill="none" xmlns="http://www.w3.org/2000/svg">
<path d="M44.316 34.1205C42.1154 33.0135 39.5653 33.369 37.7266 34.7913C37.783 32.4724 36.5563 30.2172 34.3548 29.1098C32.1543 28.0029 29.6042 28.3583 27.7655 29.7807C27.8218 27.4617 26.5951 25.2066 24.3937 24.0992C22.1931 22.9923 19.643 23.3477 17.8048 24.7703C17.8607 22.4511 16.634 20.1959 14.4325 19.0886C12.8136 18.2742 11.0067 18.2613 9.42858 18.868C15.8035 10.4923 27.2274 7.44824 36.6714 12.1988C46.1159 16.9495 50.443 27.9167 47.4661 38.001C47.0189 36.3761 45.9353 34.935 44.316 34.1205Z" stroke="#F37E20" stroke-width="2" stroke-linecap="round" stroke-linejoin="round"/>
<path d="M15.3713 38.2297C14.0365 40.866 15.4848 42.7953 16.7842 43.4491C17.9909 44.0564 19.0041 43.8733 19.6418 43.6127C21.0078 43.0542 21.7101 41.7393 21.8421 41.47L29.2613 26.8165" stroke="#F37E20" stroke-width="2" stroke-linecap="round" stroke-linejoin="round"/>
<path d="M37.615 13.2889L39.0469 10.4521" stroke="#F37E20" stroke-width="2" stroke-linecap="round" stroke-linejoin="round"/>
</svg>
