<svg width="36" height="39" viewBox="0 0 36 39" fill="none" xmlns="http://www.w3.org/2000/svg">
<path d="M33.7494 4.90157C33.4711 4.24564 33.058 3.65071 32.5348 3.15257C32.0161 2.65022 31.3992 2.25191 30.7197 1.98065C30.0401 1.7094 29.3115 1.5706 28.5759 1.57228C27.8412 1.57073 27.1135 1.7096 26.435 1.98087C25.7564 2.25213 25.1405 2.65039 24.6229 3.15257L23.6653 4.06925L22.7135 3.15257C22.1959 2.65039 21.58 2.25213 20.9014 1.98087C20.2228 1.7096 19.4951 1.57073 18.7604 1.57228C17.6526 1.57142 16.5694 1.88707 15.6479 2.47927C14.7264 3.07148 14.008 3.91364 13.5835 4.89919C13.1591 5.88474 13.0477 6.96941 13.2635 8.01594C14.1933 12.5258 19.8366 16.4387 23.2507 18.9217C23.305 18.9744 23.3695 19.0163 23.4407 19.0448C23.5119 19.0734 23.5882 19.0881 23.6653 19.0881C23.7423 19.0881 23.8187 19.0734 23.8898 19.0448C23.961 19.0163 24.0256 18.9744 24.0798 18.9217C27.4422 16.3898 33.1366 12.5217 34.0675 8.01742C34.2837 6.97135 34.173 5.88704 33.7494 4.90157Z" stroke="#F37E20" stroke-width="2"/>
<path d="M9.28182 35.2074L9.47221 35.9282C9.615 36.4238 9.3294 36.8744 8.80585 37.0096L4.61734 38.0008L1 24.034L5.14091 23.0429C5.66446 22.9077 6.14043 23.178 6.28322 23.6736L6.47361 24.3946M9.28182 35.2074L6.47361 24.3946M9.28182 35.2074L9.3294 35.1624L10.8525 33.7206H20.6574C22.4185 33.7206 24.132 33.0448 25.3695 31.8734L34.0797 23.6736C34.7461 23.0429 35.0793 22.1868 34.984 21.3307C34.8411 19.6637 33.3182 18.4473 31.5571 18.5825C30.7956 18.6275 30.0817 18.9429 29.5581 19.4385L24.7507 23.989M6.47361 24.3946L6.52121 24.3494C8.04431 22.9528 10.0434 22.1417 12.1852 22.1417H21.8473C23.1324 22.1417 24.2748 22.8626 24.7507 23.989M24.7507 23.989L21.8473 26.9176H18.4157" stroke="#F37E20" stroke-width="2" stroke-miterlimit="10" stroke-linecap="round" stroke-linejoin="round"/>
</svg>
