<svg width="38" height="39" viewBox="0 0 38 39" fill="none" xmlns="http://www.w3.org/2000/svg">
<path d="M9.76898 35.1244L9.97058 35.8664C10.1218 36.3766 9.81937 36.8405 9.26502 36.9796L4.83012 38L1 23.6223L5.38449 22.6022C5.93884 22.463 6.44281 22.7412 6.594 23.2513L6.79559 23.9935M9.76898 35.1244L6.79559 23.9935M9.76898 35.1244L9.81937 35.0781L11.4321 33.5939H21.8137C23.6784 33.5939 25.4927 32.8982 26.803 31.6924L36.0255 23.2513C36.7311 22.6022 37.0839 21.7208 36.983 20.8396C36.8318 19.1236 35.2192 17.8714 33.3546 18.0106C32.5483 18.0569 31.7923 18.3816 31.238 18.8917L26.1478 23.576M6.79559 23.9935L6.84599 23.947C8.45868 22.5093 10.5753 21.6745 12.8432 21.6745H23.0737C24.4343 21.6745 25.6439 22.4165 26.1478 23.576M26.1478 23.576L23.0737 26.5908H19.4401" stroke="#F37E20" stroke-width="2" stroke-miterlimit="10" stroke-linecap="round" stroke-linejoin="round"/>
<path d="M25.2728 9.65978C25.8274 9.08475 26.4674 8.59818 27.1927 8.33277C27.3634 8.24431 27.406 8.02314 27.2354 7.89044C26.4247 7.27117 25.8701 6.2538 25.8701 5.14796C25.8701 3.02475 27.7473 1.38811 29.8806 1.83044C31.1605 2.09584 32.1844 3.20168 32.3978 4.52869C32.6537 5.94416 32.0564 7.22694 31.0325 7.93467C30.8618 8.06737 30.9045 8.28854 31.0752 8.37701C32.9951 9.21745 34.3177 11.1637 34.275 13.4639C34.275 13.862 33.9763 14.1716 33.5924 14.1716H26.7661M16.0146 14.1716H8.88966C8.50568 14.1716 8.20703 13.862 8.20703 13.4639C8.20703 11.1195 9.61496 9.12898 11.6202 8.33277C11.7908 8.24431 11.8335 8.02314 11.6628 7.89044C10.8522 7.27117 10.2976 6.2538 10.2976 5.14796C10.2976 3.02475 12.1748 1.38811 14.308 1.83044C15.588 2.09584 16.6119 3.20168 16.8252 4.52869C17.0812 5.94416 16.4839 7.22694 15.46 7.93467C15.2893 8.06737 15.332 8.28854 15.5026 8.37701C16.2706 8.68665 16.9106 9.17321 17.3799 9.79248" stroke="#F37E20" stroke-width="2"/>
<path d="M22.8695 9.21502C22.7725 9.31316 22.7725 9.50945 22.9181 9.55852C24.4715 10.1965 25.5881 11.7667 25.5881 13.5824C25.5881 13.9259 25.2968 14.1713 25.0055 14.1713H17.481C17.1412 14.1713 16.8984 13.8768 16.8984 13.5824C16.8984 11.7177 18.0635 10.1474 19.7141 9.50945C19.8597 9.46038 19.9083 9.26409 19.7626 9.16594C19.083 8.62615 18.6461 7.84101 18.6461 6.95771C18.6461 5.28927 20.151 3.91526 21.8986 4.30784C22.9666 4.5532 23.7919 5.38742 23.9861 6.467C24.1803 7.59565 23.6948 8.62615 22.8695 9.21502Z" stroke="#F37E20" stroke-width="2"/>
</svg>
