<svg width="50" height="58" viewBox="0 0 50 58" fill="none" xmlns="http://www.w3.org/2000/svg">
<g opacity="0.6">
<path d="M38.5246 35V31.0333C38.5246 28.9293 37.7365 26.9114 36.3338 25.4236C34.931 23.9358 33.0284 23.1 31.0446 23.1H17.9546C15.9708 23.1 14.0682 23.9358 12.6655 25.4236C11.2627 26.9114 10.4746 28.9293 10.4746 31.0333V35" stroke="black" stroke-width="1.3" stroke-linecap="round" stroke-linejoin="round"/>
<path d="M24.4996 16.3C28.4899 16.3 31.7246 12.875 31.7246 8.65C31.7246 4.42502 28.4899 1 24.4996 1C20.5093 1 17.2746 4.42502 17.2746 8.65C17.2746 12.875 20.5093 16.3 24.4996 16.3Z" stroke="black" stroke-width="1.3" stroke-linecap="round" stroke-linejoin="round"/>
</g>
<g opacity="0.6">
<path d="M7.60938 50.035L1.37722 56.6352" stroke="black" stroke-width="1.3" stroke-linecap="round" stroke-linejoin="round"/>
<path d="M7.93657 56.5751L1.2129 50.1631" stroke="black" stroke-width="1.3" stroke-linecap="round" stroke-linejoin="round"/>
</g>
<g opacity="0.6">
<path d="M35.0195 50.035L28.7874 56.6352" stroke="black" stroke-width="1.3" stroke-linecap="round" stroke-linejoin="round"/>
<path d="M35.3467 56.5751L28.6231 50.1631" stroke="black" stroke-width="1.3" stroke-linecap="round" stroke-linejoin="round"/>
</g>
<g opacity="0.6">
<path d="M21.3662 50.035L15.1341 56.6352" stroke="black" stroke-width="1.3" stroke-linecap="round" stroke-linejoin="round"/>
<path d="M21.6934 56.5751L14.9697 50.1631" stroke="black" stroke-width="1.3" stroke-linecap="round" stroke-linejoin="round"/>
</g>
<g opacity="0.6">
<path d="M48.6729 50.035L42.4407 56.6352" stroke="black" stroke-width="1.3" stroke-linecap="round" stroke-linejoin="round"/>
<path d="M49 56.5751L42.2764 50.1631" stroke="black" stroke-width="1.3" stroke-linecap="round" stroke-linejoin="round"/>
</g>
</svg>
