<svg width="25" height="25" viewBox="0 0 25 25" fill="none" xmlns="http://www.w3.org/2000/svg">
<path d="M12.5 1V24M12.5 1H21.4444C22.1222 1 22.7722 1.26925 23.2515 1.7485C23.7308 2.22776 24 2.87778 24 3.55556V21.4444C24 22.1222 23.7308 22.7722 23.2515 23.2515C22.7722 23.7308 22.1222 24 21.4444 24H12.5V1ZM12.5 1H3.55556C2.87778 1 2.22776 1.26925 1.7485 1.7485C1.26925 2.22776 1 2.87778 1 3.55556V21.4444C1 22.1222 1.26925 22.7722 1.7485 23.2515C2.22776 23.7308 2.87778 24 3.55556 24H12.5V1Z" stroke="white" stroke-width="1.5" stroke-linecap="round" stroke-linejoin="round"/>
</svg>
