<svg width="53" height="62" viewBox="0 0 53 62" fill="none" xmlns="http://www.w3.org/2000/svg">
<g opacity="0.6">
<path d="M43.3902 52.7553C43.6881 52.7553 43.9666 52.5686 44.0686 52.2707C44.1978 51.8959 43.9982 51.4875 43.6235 51.3582C43.5538 51.3346 36.6837 48.9418 34.8394 45.8808C34.2493 44.2181 33.0748 39.7357 34.3764 37.9531C34.3886 37.9359 34.3907 37.9158 34.4015 37.8979C35.0785 37.0953 35.6391 36.2826 36.0196 35.5224C37.6973 32.1662 38.6851 21.5738 38.4087 19.2507C37.9184 15.1365 35.7102 8.23474 26.4179 8.23474C17.2181 8.23474 15.0221 15.1365 14.5325 19.2507C14.2561 21.5738 15.244 32.1655 16.9224 35.5224C17.3309 36.3393 17.9439 37.2166 18.6898 38.0759C19.8155 39.951 18.6991 44.2189 18.127 45.8355C16.2849 48.8923 9.41255 51.2893 9.34292 51.313C8.96818 51.4422 8.76933 51.8507 8.89783 52.2255C9.00049 52.5234 9.27831 52.71 9.57623 52.71C9.65376 52.71 9.73273 52.6971 9.80955 52.6705C10.1161 52.5657 17.3395 50.0474 19.4005 46.5032L19.4551 46.3862C19.6274 45.9095 20.7229 42.7407 20.6001 39.9726C20.7853 40.1319 20.9713 40.2906 21.1629 40.4428C23.1529 42.0279 25.0381 42.9008 26.471 42.9008C27.9039 42.9008 29.7891 42.0279 31.7791 40.4428C31.9801 40.2827 32.1761 40.1168 32.3699 39.9489C32.2256 42.7328 33.3376 45.9504 33.5113 46.4314L33.5659 46.5484C35.6269 50.0926 42.8503 52.6102 43.1561 52.7158C43.2344 52.7431 43.3134 52.7553 43.3902 52.7553ZM30.8853 39.32C29.1983 40.6632 27.5493 41.465 26.4717 41.465C25.3949 41.465 23.7452 40.6632 22.0589 39.32C21.2426 38.6696 20.4888 37.9481 19.8435 37.2159C19.8112 37.1656 19.786 37.1103 19.7516 37.0622C19.7042 36.9969 19.6424 36.9495 19.58 36.905C19.0057 36.2166 18.5304 35.5252 18.2081 34.8813C16.6998 31.864 15.7106 21.5193 15.9604 19.4216C16.4902 14.9736 18.7343 9.67123 26.42 9.67123C34.1933 9.67123 36.4554 14.9736 36.9845 19.4216C37.235 21.52 36.245 31.8647 34.7368 34.8813C34.0232 36.3077 32.5831 37.9668 30.8853 39.32Z" fill="#4B4B4B"/>
<path d="M0.807121 14.4594C1.20339 14.4594 1.52501 14.1378 1.52501 13.7415V1.59703H13.6695C14.0658 1.59703 14.3874 1.27542 14.3874 0.879142C14.3874 0.482868 14.0658 0.161255 13.6695 0.161255H0.807121C0.410847 0.161255 0.0892334 0.482868 0.0892334 0.879142V13.7415C0.0892334 14.1378 0.410847 14.4594 0.807121 14.4594Z" fill="#4B4B4B"/>
<path d="M51.8954 0.160522H39.0337C38.6367 0.160522 38.3158 0.482136 38.3158 0.87841C38.3158 1.27468 38.6367 1.5963 39.0337 1.5963H51.1775V13.7408C51.1775 14.1371 51.4984 14.4587 51.8954 14.4587C52.2923 14.4587 52.6132 14.1371 52.6132 13.7408V0.87841C52.6132 0.482136 52.2923 0.160522 51.8954 0.160522Z" fill="#4B4B4B"/>
<path d="M51.8954 47.2933C51.4984 47.2933 51.1775 47.6142 51.1775 48.0112V60.1557H39.0337C38.6367 60.1557 38.3158 60.4766 38.3158 60.8736C38.3158 61.2706 38.6367 61.5915 39.0337 61.5915H51.8954C52.2923 61.5915 52.6132 61.2706 52.6132 60.8736V48.0112C52.6132 47.6142 52.2923 47.2933 51.8954 47.2933Z" fill="#4B4B4B"/>
<path d="M13.6688 60.1557H1.52501V48.0112C1.52501 47.6142 1.20339 47.2933 0.807121 47.2933C0.410847 47.2933 0.0892334 47.6142 0.0892334 48.0112V60.8736C0.0892334 61.2706 0.410847 61.5915 0.807121 61.5915H13.6695C14.0658 61.5915 14.3874 61.2706 14.3874 60.8736C14.3874 60.4766 14.0658 60.1557 13.6688 60.1557Z" fill="#4B4B4B"/>
</g>
</svg>
