<svg width="56" height="56" viewBox="0 0 56 56" fill="none" xmlns="http://www.w3.org/2000/svg">
<path opacity="0.6" fill-rule="evenodd" clip-rule="evenodd" d="M42.6475 6.85611C42.479 6.85565 42.3144 6.80522 42.1745 6.71122C37.9882 3.92113 33.0717 2.42805 28.0408 2.41896C23.0099 2.40986 18.0881 3.88515 13.8917 6.66009C13.7036 6.7741 13.4786 6.81095 13.264 6.76294C13.0493 6.71493 12.8615 6.58577 12.7399 6.40249C12.6182 6.2192 12.5722 5.99598 12.6113 5.77952C12.6505 5.56306 12.7718 5.37011 12.9499 5.24104C17.4264 2.28075 22.6768 0.706989 28.0436 0.716843C33.4104 0.726697 38.655 2.31973 43.1206 5.29644C43.272 5.39821 43.3868 5.54588 43.448 5.71775C43.5093 5.88961 43.5137 6.07659 43.4608 6.25119C43.4078 6.42579 43.3003 6.57878 43.1539 6.68768C43.0075 6.79657 42.83 6.85561 42.6475 6.85611ZM55.267 28.0667C55.2691 28.0421 55.2702 28.0173 55.2702 27.9925C55.292 21.9258 53.2716 16.0283 49.5344 11.2495C49.3954 11.0709 49.1911 10.9549 48.9665 10.9269C48.742 10.8989 48.5155 10.9613 48.3369 11.1003C48.1584 11.2393 48.0423 11.4436 48.0144 11.6681C47.9864 11.8927 48.0488 12.1192 48.1878 12.2978C51.6759 16.7574 53.5689 22.2564 53.5658 27.9167C53.5636 27.9419 53.5624 27.9673 53.5624 27.9928C53.5682 31.1645 52.9814 34.3094 51.8323 37.2656C51.7817 37.3948 51.7633 37.5343 51.7788 37.6721C51.7944 37.81 51.8433 37.942 51.9214 38.0566C51.9995 38.1712 52.1044 38.2651 52.227 38.33C52.3496 38.3949 52.4862 38.4288 52.6249 38.429C52.7983 38.4287 52.9675 38.3755 53.1099 38.2765C53.2523 38.1775 53.3611 38.0374 53.4218 37.875C54.6374 34.7474 55.2629 31.4218 55.267 28.0667ZM0.972421 28.5953C1.13225 28.7551 1.34903 28.8449 1.57507 28.8449C1.80111 28.8449 2.01789 28.7551 2.17772 28.5953C2.33756 28.4354 2.42735 28.2186 2.42735 27.9926C2.41947 24.573 3.10281 21.1871 4.43631 18.0383C5.76982 14.8894 7.72599 12.0425 10.1873 9.66863C10.269 9.59057 10.3346 9.49717 10.3802 9.39378C10.4258 9.29039 10.4506 9.17903 10.4532 9.06606C10.4557 8.95308 10.436 8.84071 10.3952 8.73535C10.3543 8.62999 10.2931 8.53371 10.215 8.45201C10.137 8.37031 10.0436 8.30478 9.94019 8.25917C9.8368 8.21356 9.72544 8.18876 9.61246 8.18619C9.49949 8.18361 9.38711 8.20332 9.28175 8.24418C9.17639 8.28503 9.08011 8.34624 8.99841 8.42431C6.37052 10.9593 4.28265 13.9997 2.86044 17.3626C1.43824 20.7255 0.711104 24.3414 0.722795 27.9926C0.722795 28.2186 0.812588 28.4354 0.972421 28.5953ZM43.2873 50.399C43.1252 50.3993 42.9664 50.3533 42.8295 50.2665C42.6926 50.1797 42.5833 50.0557 42.5144 49.909C42.4455 49.7623 42.4199 49.5989 42.4405 49.4382C42.4612 49.2774 42.5273 49.1259 42.631 49.0013C44.6807 46.5425 46.1765 42.9544 47.0756 38.3478C47.0972 38.2379 47.1402 38.1332 47.2022 38.0399C47.2641 37.9465 47.3439 37.8663 47.4369 37.8038C47.5299 37.7413 47.6343 37.6977 47.7441 37.6755C47.854 37.6533 47.9671 37.653 48.0771 37.6745C48.187 37.6961 48.2917 37.7391 48.385 37.8011C48.4784 37.863 48.5586 37.9428 48.6211 38.0358C48.6836 38.1288 48.7272 38.2332 48.7494 38.343C48.7716 38.4529 48.7719 38.566 48.7504 38.676C47.7958 43.5808 46.1935 47.4246 43.9435 50.105C43.8622 50.1989 43.7613 50.2738 43.6479 50.3246C43.5346 50.3754 43.4115 50.4008 43.2873 50.399ZM48.7237 32.2084H48.7706C48.9887 32.2088 49.1987 32.1254 49.3573 31.9756C49.5158 31.8258 49.6109 31.6208 49.6229 31.403C49.7081 29.805 49.7081 28.6033 49.7081 27.9939C49.6984 23.842 48.5029 19.7793 46.2622 16.2839C44.0215 12.7885 40.829 10.006 37.0603 8.26369C36.958 8.21074 36.8459 8.17909 36.731 8.17067C36.6161 8.16224 36.5006 8.17721 36.3916 8.21467C36.2826 8.25214 36.1824 8.31131 36.0969 8.38862C36.0115 8.46593 35.9426 8.55976 35.8944 8.66446C35.8463 8.76915 35.8198 8.88252 35.8167 8.99772C35.8136 9.11292 35.8339 9.22755 35.8764 9.33468C35.9188 9.44182 35.9826 9.53923 36.0637 9.62102C36.1449 9.70282 36.2418 9.7673 36.3487 9.81057C39.8271 11.4217 42.7722 13.994 44.8365 17.2241C46.9008 20.4542 47.9982 24.2074 47.9993 28.0408C47.9993 28.6033 47.9993 29.7709 47.9183 31.3135C47.9067 31.539 47.985 31.7598 48.136 31.9275C48.287 32.0953 48.4983 32.1963 48.7237 32.2084ZM4.08258 37.8877C3.89929 37.8877 3.72089 37.8286 3.57387 37.7191C3.42684 37.6097 3.31902 37.4557 3.26639 37.2802C3.21377 37.1046 3.21915 36.9167 3.28173 36.7444C3.34432 36.5722 3.46078 36.4247 3.61382 36.3238C5.98742 34.7599 6.28998 31.0525 6.28998 27.9971C6.29562 22.2412 8.58432 16.7226 12.6539 12.6522C16.7235 8.58184 22.2416 6.29205 27.9975 6.28528C28.2235 6.28528 28.4403 6.37507 28.6001 6.5349C28.76 6.69474 28.8498 6.91152 28.8498 7.13756C28.8498 7.36359 28.76 7.58037 28.6001 7.74021C28.4403 7.90004 28.2235 7.98983 27.9975 7.98983C22.6937 7.99547 17.6087 10.1046 13.858 13.8545C10.1072 17.6045 7.99704 22.689 7.99027 27.9928C7.99027 31.4743 7.59822 35.7315 4.54707 37.7428C4.40961 37.8353 4.2482 37.8856 4.08258 37.8877ZM34.5713 53.8793C34.7103 53.972 34.8735 54.0217 35.0405 54.0224C35.1546 54.0214 35.2674 53.9975 35.372 53.9521C35.4767 53.9067 35.5712 53.8408 35.6499 53.7582C43.0392 46.1601 44.1429 34.3518 44.1429 27.9938C44.141 25.1534 43.39 22.3638 41.9658 19.9063C40.5416 17.4488 38.4944 15.4103 36.0308 13.9966C33.5673 12.5828 30.7745 11.8438 27.9341 11.854C25.0937 11.8643 22.3063 12.6234 19.853 14.0548C19.6763 14.1766 19.5521 14.3604 19.5051 14.5697C19.4581 14.779 19.4917 14.9984 19.5993 15.184C19.7069 15.3696 19.8805 15.5078 20.0855 15.571C20.2905 15.6342 20.5118 15.6178 20.7052 15.525C22.8999 14.2429 25.3939 13.5625 27.9356 13.5526C30.4772 13.5426 32.9766 14.2034 35.1812 15.4682C37.3858 16.7331 39.2177 18.5572 40.4919 20.7564C41.7661 22.9557 42.4375 25.4521 42.4383 27.9938C42.4383 34.1046 41.3985 45.4101 34.4312 52.5778C34.3151 52.6979 34.2368 52.8494 34.2062 53.0136C34.1755 53.1779 34.1938 53.3474 34.2587 53.5014C34.3236 53.6553 34.4323 53.7867 34.5713 53.8793ZM12.6999 28.8459C12.4739 28.8459 12.2571 28.7562 12.0973 28.5963C11.9374 28.4365 11.8477 28.2197 11.8477 27.9937C11.8525 24.2465 13.1567 20.6169 15.538 17.7237C15.6841 17.5564 15.8898 17.4527 16.1113 17.4348C16.3327 17.4169 16.5524 17.4862 16.7235 17.6279C16.8946 17.7695 17.0036 17.9724 17.0274 18.1933C17.0511 18.4142 16.9876 18.6356 16.8505 18.8104C14.7224 21.398 13.5568 24.6433 13.5522 27.9937C13.5522 28.2197 13.4624 28.4365 13.3026 28.5963C13.1428 28.7562 12.926 28.8459 12.6999 28.8459ZM5.50419 43.3978C5.66164 43.5329 5.86297 43.606 6.07045 43.6033C6.14387 43.6028 6.21692 43.5927 6.28778 43.5735C10.8006 42.3291 12.4796 36.4697 13.0804 33.0862C13.1 32.9759 13.0977 32.8629 13.0736 32.7536C13.0495 32.6442 13.0041 32.5407 12.94 32.4489C12.8759 32.3571 12.7943 32.2788 12.7 32.2185C12.6056 32.1582 12.5003 32.1171 12.3901 32.0975C12.2798 32.078 12.1668 32.0803 12.0575 32.1044C11.9481 32.1285 11.8446 32.1739 11.7528 32.238C11.661 32.3021 11.5827 32.3836 11.5224 32.478C11.4621 32.5723 11.421 32.6777 11.4014 32.7879C10.873 35.7751 9.44547 40.9357 5.83607 41.9286C5.63582 41.9829 5.46228 42.1085 5.34799 42.2816C5.23369 42.4548 5.1865 42.6637 5.21526 42.8692C5.24402 43.0747 5.34675 43.2626 5.50419 43.3978ZM27.0959 55.2666C26.9163 55.2669 26.7412 55.2105 26.5956 55.1053C26.45 55.0002 26.3413 54.8517 26.285 54.6811C26.2288 54.5106 26.2279 54.3266 26.2825 54.1554C26.337 53.9843 26.4442 53.8348 26.5888 53.7282C33.961 48.2651 36.1684 39.1799 36.7139 32.5236C36.7325 32.2975 36.8402 32.0882 37.0132 31.9415C37.1863 31.7949 37.4104 31.7229 37.6365 31.7416C37.8625 31.7602 38.0719 31.8679 38.2185 32.0409C38.3652 32.214 38.4371 32.4382 38.4184 32.6642C37.8389 39.6699 35.4994 49.258 27.603 55.1004C27.4562 55.2087 27.2784 55.2669 27.0959 55.2666ZM8.97142 47.6253C9.14564 47.7708 9.3705 47.8411 9.59653 47.8207C9.64548 47.8164 9.69395 47.8078 9.74142 47.7951C18.4432 46.2014 19.1165 32.2539 19.1165 27.9925C19.1154 25.9748 19.8014 24.0168 21.0615 22.441C22.3217 20.8652 24.0809 19.7656 26.0494 19.323C28.018 18.8805 30.0786 19.1215 31.8919 20.0064C33.7052 20.8913 35.1632 22.3672 36.0257 24.1913C36.1262 24.3897 36.3003 24.541 36.5109 24.6128C36.7214 24.6845 36.9517 24.6712 37.1525 24.5755C37.3533 24.4798 37.5088 24.3094 37.5857 24.1007C37.6626 23.892 37.6548 23.6614 37.564 23.4583C36.5365 21.2833 34.7989 19.5231 32.6372 18.4677C30.4756 17.4122 28.0189 17.1246 25.6719 17.652C23.325 18.1795 21.2276 19.4906 19.7254 21.3694C18.2232 23.2482 17.4057 25.5827 17.4077 27.9882C17.4077 30.7752 17.0241 44.7227 9.44312 46.1162C9.21709 46.1365 9.00839 46.2458 8.86294 46.42C8.71749 46.5942 8.64721 46.8191 8.66755 47.0451C8.6879 47.2712 8.7972 47.4799 8.97142 47.6253ZM19.5854 53.9102C19.3888 53.9108 19.1979 53.8434 19.0453 53.7193C18.8927 53.5953 18.7876 53.4223 18.748 53.2297C18.7084 53.037 18.7366 52.8366 18.8278 52.6624C18.9191 52.4882 19.0678 52.3509 19.2488 52.2738C22.3034 50.9915 24.8155 48.6844 26.3525 45.7496C26.461 45.5513 26.6439 45.4042 26.8608 45.3406C27.0778 45.2771 27.3111 45.3024 27.5095 45.4109C27.7078 45.5194 27.8549 45.7022 27.9185 45.9192C27.982 46.1361 27.9568 46.3695 27.8483 46.5678C26.1273 49.8443 23.3164 52.417 19.9008 53.842C19.801 53.8846 19.6939 53.9077 19.5854 53.9102ZM28.7916 42.3109C28.918 42.3792 29.0596 42.4145 29.2032 42.4134C29.3669 42.4119 29.5267 42.3632 29.6635 42.2733C29.8002 42.1834 29.9082 42.056 29.9745 41.9063C31.9201 37.5223 32.9552 32.7888 33.0171 27.9929C33.0171 26.6604 32.4878 25.3825 31.5456 24.4402C30.6034 23.498 29.3255 22.9687 27.993 22.9687C26.6605 22.9687 25.3826 23.498 24.4403 24.4402C23.4981 25.3825 22.9688 26.6604 22.9688 27.9929C22.9688 28.2189 23.0586 28.4357 23.2184 28.5955C23.3783 28.7554 23.595 28.8451 23.8211 28.8451C24.0471 28.8451 24.2639 28.7554 24.4237 28.5955C24.5836 28.4357 24.6733 28.2189 24.6733 27.9929C24.6733 27.1124 25.0231 26.2681 25.6456 25.6455C26.2682 25.023 27.1126 24.6732 27.993 24.6732C28.8734 24.6732 29.7177 25.023 30.3403 25.6455C30.9628 26.2681 31.3126 27.1124 31.3126 27.9929C31.2541 32.5465 30.2712 37.0408 28.4234 41.2032C28.363 41.3335 28.3366 41.477 28.3466 41.6203C28.3566 41.7636 28.4026 41.902 28.4804 42.0228C28.5582 42.1435 28.6653 42.2427 28.7916 42.3109ZM13.4207 50.8981C13.3088 50.9009 13.1974 50.8816 13.093 50.8414C12.9885 50.8011 12.893 50.7407 12.8118 50.6636C12.648 50.5077 12.5528 50.2932 12.5471 50.0671C12.5415 49.8411 12.6259 49.6221 12.7817 49.4583C12.9375 49.2944 13.1521 49.1992 13.3781 49.1936C19.0799 48.9166 21.4066 41.6296 22.3526 35.5316C22.3699 35.4196 22.4092 35.3122 22.468 35.2155C22.5269 35.1187 22.6042 35.0345 22.6956 34.9676C22.787 34.9007 22.8907 34.8525 23.0008 34.8257C23.1108 34.7989 23.2251 34.794 23.337 34.8114C23.4489 34.8287 23.5563 34.8679 23.6531 34.9268C23.7498 34.9857 23.8341 35.063 23.9009 35.1544C23.9678 35.2458 24.016 35.3495 24.0428 35.4595C24.0696 35.5696 24.0745 35.6838 24.0572 35.7958C22.5614 45.4137 18.9051 50.6382 13.4846 50.9024L13.4207 50.8981Z" fill="#4B4B4B"/>
</svg>
