<svg width="28" height="28" viewBox="0 0 28 28" fill="none" xmlns="http://www.w3.org/2000/svg">
<path d="M11 15.3655C11.5753 16.1198 12.3093 16.744 13.1522 17.1957C13.9951 17.6473 14.9271 17.9159 15.8852 17.9832C16.8432 18.0505 17.8048 17.9149 18.7047 17.5857C19.6046 17.2565 20.4218 16.7412 21.1008 16.075L25.1197 12.1333C26.3399 10.8943 27.015 9.23486 26.9997 7.51237C26.9845 5.78988 26.28 4.14218 25.0382 2.92415C23.7963 1.70612 22.1163 1.01522 20.36 1.00025C18.6038 0.98528 16.9118 1.64744 15.6485 2.84412L13.3444 5.09088" stroke="white" stroke-width="1.5" stroke-linecap="round" stroke-linejoin="round"/>
<path d="M17 12.6345C16.4247 11.8802 15.6907 11.256 14.8478 10.8043C14.0049 10.3527 13.0729 10.0841 12.1148 10.0168C11.1568 9.94949 10.1952 10.0851 9.2953 10.4143C8.39539 10.7435 7.5782 11.2588 6.89916 11.925L2.88026 15.8667C1.66013 17.1057 0.984992 18.7651 1.00025 20.4876C1.01551 22.2101 1.71995 23.8578 2.96185 25.0759C4.20374 26.2939 5.88373 26.9848 7.63997 26.9998C9.39621 27.0147 11.0882 26.3526 12.3515 25.1559L14.6422 22.9091" stroke="white" stroke-width="1.5" stroke-linecap="round" stroke-linejoin="round"/>
</svg>
