<svg width="36" height="29" viewBox="0 0 36 29" fill="none" xmlns="http://www.w3.org/2000/svg">
<path d="M17.1686 14.2701C17.5157 14.2908 17.8739 14.3012 18.2433 14.3012C18.62 14.3012 18.9856 14.277 19.3401 14.2287C19.7021 14.1734 20.0455 14.0871 20.3705 13.9697C20.6955 13.8523 20.9873 13.6901 21.2458 13.4829C21.5043 13.2758 21.7148 13.0168 21.8773 12.7061C22.0472 12.3885 22.1543 12.0087 22.1986 11.5668H16.6921C16.7143 11.5185 16.7734 11.4184 16.8694 11.2664C16.9728 11.1076 17.0799 10.9419 17.1907 10.7693C17.3237 10.569 17.4714 10.3515 17.6339 10.1168H21.9216C21.9216 9.93725 21.8293 9.75772 21.6447 9.57819C21.46 9.39176 21.2347 9.22604 20.9688 9.08104C20.7103 8.93604 20.4444 8.81865 20.1711 8.72889C19.8978 8.63222 19.6725 8.58389 19.4952 8.58389H16.6921C16.7217 8.50103 16.7845 8.37674 16.8805 8.21102C16.9839 8.0453 17.091 7.88304 17.2018 7.72423C17.3126 7.55851 17.4086 7.4135 17.4899 7.28922C17.5785 7.16493 17.6265 7.10278 17.6339 7.10278H26.8631C26.8631 7.10278 26.8409 7.14076 26.7966 7.21671C26.7597 7.29267 26.708 7.38588 26.6415 7.49636C26.575 7.59994 26.5011 7.71732 26.4199 7.84851C26.3386 7.9728 26.2611 8.09019 26.1872 8.20066C26.1208 8.31114 26.0617 8.40436 26.01 8.48031C25.9656 8.54936 25.9435 8.58389 25.9435 8.58389H23.5171C23.6722 8.83246 23.8051 9.08449 23.9159 9.33997C24.0341 9.58855 24.108 9.84749 24.1375 10.1168H26.8631L25.9435 11.5668H24.2372C24.1486 12.209 23.9529 12.7579 23.65 13.2136C23.3546 13.6694 22.989 14.0491 22.5532 14.3529C22.1248 14.6499 21.6447 14.8812 21.1128 15.0469C20.581 15.2057 20.0344 15.3162 19.4731 15.3783C19.4731 15.3852 19.4842 15.4094 19.5063 15.4508C19.5359 15.4853 19.5691 15.5268 19.606 15.5751C19.643 15.6303 19.6873 15.689 19.739 15.7512L24.6583 22.1003V22.3592H22.5532L17.1686 15.6373V14.2701Z" fill="white"/>
<path d="M18 1.54755C17.4828 1.39362 16.9523 1.27049 16.4107 1.18028C15.6989 1.0617 14.9677 1 14.2222 1C6.91979 1 1 6.91979 1 14.2222C1 21.5246 6.91979 27.4444 14.2222 27.4444C15.1948 27.4444 16.1428 27.3394 17.0555 27.1401" stroke="white" stroke-width="1.26389" stroke-linecap="round" stroke-linejoin="round"/>
<circle cx="21.7778" cy="14.2222" r="13.2222" stroke="white" stroke-width="1.26389" stroke-linecap="round" stroke-linejoin="round"/>
</svg>
