<svg width="52" height="49" viewBox="0 0 52 49" fill="none" xmlns="http://www.w3.org/2000/svg">
<path d="M26.8844 1.81932L33.5205 14.3969C33.9545 15.2196 34.7457 15.7945 35.6623 15.953L49.6749 18.3776C50.4672 18.5147 50.782 19.4833 50.2216 20.0599L40.3102 30.2578C39.6619 30.9249 39.3597 31.855 39.4921 32.7757L41.5164 46.8517C41.6308 47.6476 40.8069 48.2463 40.0853 47.8915L27.3237 41.6165C26.489 41.2061 25.511 41.2061 24.6763 41.6165L11.9147 47.8915C11.1932 48.2463 10.3692 47.6476 10.4836 46.8517L12.5079 32.7757C12.6403 31.855 12.3381 30.9249 11.6898 30.2578L1.77844 20.0599C1.21804 19.4833 1.53277 18.5147 2.32506 18.3776L16.3377 15.953C17.2543 15.7945 18.0455 15.2196 18.4795 14.3969L25.1156 1.81932C25.4908 1.10817 26.5092 1.10817 26.8844 1.81932Z" stroke="#F37E20" stroke-width="2" stroke-linecap="round" stroke-linejoin="round"/>
</svg>
