<svg width="28" height="28" viewBox="0 0 28 28" fill="none" xmlns="http://www.w3.org/2000/svg">
<path d="M25.973 19.0567C25.146 21.0125 23.8525 22.7359 22.2055 24.0763C20.5586 25.4167 18.6084 26.3332 16.5254 26.7458C14.4424 27.1583 12.29 27.0544 10.2565 26.4429C8.223 25.8315 6.37022 24.7312 4.86017 23.2383C3.35011 21.7454 2.22876 19.9053 1.59414 17.8789C0.959518 15.8525 0.830958 13.7015 1.2197 11.6139C1.60844 9.52636 2.50264 7.5658 3.82412 5.90366C5.14561 4.24152 6.85415 2.9284 8.80036 2.0791" stroke="white" stroke-width="1.5" stroke-linecap="round" stroke-linejoin="round"/>
<path d="M27 13.9997C27 12.2926 26.6638 10.6021 26.0105 9.02494C25.3572 7.44774 24.3996 6.01467 23.1925 4.80753C21.9854 3.60039 20.5523 2.64284 18.9751 1.98955C17.3979 1.33625 15.7075 1 14.0003 1V13.9997H27Z" stroke="white" stroke-width="1.5" stroke-linecap="round" stroke-linejoin="round"/>
</svg>
