<svg width="19" height="22" viewBox="0 0 19 22" fill="none" xmlns="http://www.w3.org/2000/svg">
<path d="M3.42215 0.767884C3.29396 0.439812 2.92408 0.277778 2.59601 0.405972C2.26794 0.534166 2.1059 0.904043 2.2341 1.23212L3.42215 0.767884ZM1.54104 18.6689C1.2322 18.4995 0.844541 18.6126 0.675175 18.9214C0.50581 19.2303 0.618874 19.6179 0.927711 19.7873L1.54104 18.6689ZM18.5373 19.2455C18.8473 19.0782 18.9629 18.6913 18.7956 18.3813C18.6283 18.0714 18.2414 17.9557 17.9314 18.1231L18.5373 19.2455ZM15.3302 12.4302V13.068H15.3809L15.4309 13.06L15.3302 12.4302ZM17.5969 15.3863V16.024H18.2346V15.3863H17.5969ZM6.05104 14.7485C5.69881 14.7485 5.41327 15.034 5.41327 15.3863C5.41327 15.7385 5.69881 16.024 6.05104 16.024V14.7485ZM15.6844 19.8353L15.9042 20.434L15.6844 19.8353ZM14.3475 17.0528L14.9789 16.9634L14.3475 17.0528ZM5.12824 17.0528L4.49394 16.9864L5.12824 17.0528ZM12.851 8.35154L13.1438 8.91812L13.1567 8.91146L13.1693 8.90423L12.851 8.35154ZM15.0285 8.86916C15.3143 9.07493 15.7129 9.00999 15.9187 8.72411C16.1244 8.43823 16.0595 8.03968 15.7736 7.83391L15.0285 8.86916ZM15.4309 13.06C15.5306 13.0441 15.9098 13.0712 16.2635 13.3712C16.5875 13.6459 16.9591 14.2127 16.9591 15.3863H18.2346C18.2346 13.9213 17.7563 12.9647 17.0886 12.3984C16.4507 11.8574 15.6965 11.7258 15.2295 11.8005L15.4309 13.06ZM17.5969 14.7485H6.05104V16.024H17.5969V14.7485ZM0.927711 19.7873C3.3916 21.1385 9.3862 22.827 15.9042 20.434L15.4646 19.2366C9.35303 21.4804 3.74301 19.8764 1.54104 18.6689L0.927711 19.7873ZM15.9042 20.434C16.7756 20.1141 17.6557 19.7214 18.5373 19.2455L17.9314 18.1231C17.1041 18.5696 16.2796 18.9374 15.4646 19.2366L15.9042 20.434ZM13.7113 15.1171C13.674 15.6353 13.5884 16.2404 13.716 17.1421L14.9789 16.9634C14.8749 16.2284 14.9421 15.784 14.9836 15.2088L13.7113 15.1171ZM13.716 17.1421C13.8017 17.748 13.949 18.3853 14.1947 18.9489C14.4383 19.5077 14.8028 20.0488 15.3552 20.3816L16.0135 19.2891C15.773 19.1441 15.55 18.8662 15.3639 18.4392C15.1799 18.0171 15.0552 17.502 14.9789 16.9634L13.716 17.1421ZM4.62282 12.4558C4.68305 13.9572 4.65134 15.483 4.49394 16.9864L5.76254 17.1192C5.92729 15.5456 5.95963 13.9575 5.89733 12.4047L4.62282 12.4558ZM4.49394 16.9864C4.39068 17.9727 4.23344 18.9482 4.01305 19.9L5.2557 20.1877C5.48915 19.1795 5.65442 18.1519 5.76254 17.1192L4.49394 16.9864ZM2.2341 1.23212C2.97243 3.12164 3.77052 4.84883 4.29063 8.70862L5.55474 8.53828C5.01236 4.51327 4.16202 2.66133 3.42215 0.767884L2.2341 1.23212ZM4.29063 8.70862C4.45367 9.91852 4.57154 11.1774 4.62282 12.4558L5.89733 12.4047C5.84427 11.082 5.72249 9.78315 5.55474 8.53828L4.29063 8.70862ZM4.74927 9.23719C6.30736 9.67743 9.20183 10.9552 13.1438 8.91812L12.5583 7.78495C9.13359 9.55468 6.7458 8.47585 5.0961 8.00971L4.74927 9.23719ZM13.1693 8.90423C13.336 8.80821 13.6613 8.67682 14.028 8.6393C14.3884 8.60243 14.7376 8.65983 15.0285 8.86916L15.7736 7.83391C15.1578 7.39065 14.4681 7.31209 13.8982 7.37039C13.3347 7.42804 12.8383 7.62295 12.5328 7.79885L13.1693 8.90423ZM5.26008 13.068H13.4177V11.7925H5.26008V13.068ZM13.4177 13.068H15.3302V11.7925H13.4177V13.068ZM11.8182 8.82683C11.4695 9.53643 11.4506 10.399 11.6673 11.1479C11.8842 11.8975 12.368 12.6339 13.1418 13.0052L13.6936 11.8553C13.3341 11.6827 13.0388 11.2986 12.8926 10.7934C12.7462 10.2875 12.7805 9.76087 12.963 9.38938L11.8182 8.82683Z" fill="#AD1E23"/>
<path d="M5.23438 12V15H17.7344C18.1344 12.6 16.2344 12 15.2344 12H5.23438Z" fill="#AD1E23"/>
</svg>
