<svg width="29" height="23" viewBox="0 0 29 23" fill="none" xmlns="http://www.w3.org/2000/svg">
<rect x="0.801758" y="1.10547" width="27.198" height="21.0297" rx="1.5" stroke="white"/>
<path fill-rule="evenodd" clip-rule="evenodd" d="M19.1376 7.6911C19.1376 5.43696 17.3102 3.60962 15.0561 3.60962C12.802 3.60962 10.9746 5.43696 10.9746 7.6911C10.9746 9.94524 12.802 11.7726 15.0561 11.7726C17.3102 11.7726 19.1376 9.94524 19.1376 7.6911ZM11.7909 7.6911C11.7909 5.88779 13.2528 4.42592 15.0561 4.42592C16.8594 4.42592 18.3213 5.88779 18.3213 7.6911C18.3213 9.49441 16.8594 10.9563 15.0561 10.9563C13.2528 10.9563 11.7909 9.49441 11.7909 7.6911Z" fill="white"/>
<path fill-rule="evenodd" clip-rule="evenodd" d="M8.93242 17.4876C8.70968 17.4876 8.5243 17.3045 8.5243 17.0854V15.651C8.5243 13.6355 11.1062 11.7736 15.0547 11.7736C17.3394 11.7736 19.1588 12.365 20.3355 13.3606C20.5076 13.5062 20.7651 13.4847 20.9107 13.3126C21.0563 13.1405 21.0348 12.883 20.8627 12.7374C19.5298 11.6096 17.523 10.9573 15.0547 10.9573C10.7021 10.9573 7.70801 13.1164 7.70801 15.651V17.0854C7.70801 17.7575 8.26103 18.3039 8.93242 18.3039H18.3485C18.5739 18.3039 18.7567 18.1212 18.7567 17.8958C18.7567 17.6704 18.5739 17.4876 18.3485 17.4876H8.93242Z" fill="white"/>
<path fill-rule="evenodd" clip-rule="evenodd" d="M24.8515 16.2627C24.8515 14.234 23.2069 12.5894 21.1782 12.5894C19.1495 12.5894 17.5049 14.234 17.5049 16.2627C17.5049 18.2914 19.1495 19.936 21.1782 19.936C23.2069 19.936 24.8515 18.2914 24.8515 16.2627ZM18.3212 16.2627C18.3212 14.6848 19.6003 13.4057 21.1782 13.4057C22.7561 13.4057 24.0353 14.6848 24.0353 16.2627C24.0353 17.8406 22.7561 19.1197 21.1782 19.1197C19.6003 19.1197 18.3212 17.8406 18.3212 16.2627Z" fill="white"/>
<path fill-rule="evenodd" clip-rule="evenodd" d="M20.7705 17.8962C20.7705 18.1216 20.9532 18.3044 21.1787 18.3044C21.4041 18.3044 21.5868 18.1216 21.5868 17.8962V14.631C21.5868 14.4056 21.4041 14.2229 21.1787 14.2229C20.9532 14.2229 20.7705 14.4056 20.7705 14.631V17.8962Z" fill="white"/>
<path fill-rule="evenodd" clip-rule="evenodd" d="M20.8871 14.3408C21.0465 14.1814 21.3049 14.1814 21.4643 14.3408L22.852 15.7285C23.0114 15.8879 23.0114 16.1464 22.852 16.3057C22.6926 16.4651 22.4342 16.4651 22.2748 16.3057L21.1757 15.2079L20.0766 16.3057C19.9172 16.4651 19.6588 16.4651 19.4994 16.3057C19.34 16.1464 19.34 15.8879 19.4994 15.7285L20.8871 14.3408Z" fill="white"/>
</svg>
