<svg width="11" height="13" viewBox="0 0 11 13" fill="none" xmlns="http://www.w3.org/2000/svg">
<path d="M6.19231 1.54492C6.19231 0.992637 5.74459 0.544922 5.19231 0.544922C4.64002 0.544922 4.19231 0.992637 4.19231 1.54492H6.19231ZM5.19231 11.454L4.59415 12.2554L5.19231 12.7019L5.79047 12.2554L5.19231 11.454ZM1.59816 7.52345C1.15557 7.19309 0.528975 7.28408 0.198622 7.72667C-0.131732 8.16926 -0.0407468 8.79585 0.401842 9.1262L1.59816 7.52345ZM9.98277 9.1262C10.4254 8.79585 10.5163 8.16926 10.186 7.72667C9.85564 7.28408 9.22905 7.19309 8.78646 7.52345L9.98277 9.1262ZM4.19231 1.54492V11.454H6.19231V1.54492H4.19231ZM5.79047 10.6526L1.59816 7.52345L0.401842 9.1262L4.59415 12.2554L5.79047 10.6526ZM5.79047 12.2554L9.98277 9.1262L8.78646 7.52345L4.59415 10.6526L5.79047 12.2554Z" fill="#F37E20"/>
</svg>
