<svg width="18" height="13" viewBox="0 0 18 13" fill="none" xmlns="http://www.w3.org/2000/svg">
<path d="M15.9757 0.226562H1.53942C0.690583 0.226562 0 0.917145 0 1.76598V10.6871C0 11.536 0.690583 12.2266 1.53942 12.2266H15.9757C16.8246 12.2266 17.5152 11.536 17.5152 10.6871V1.76598C17.5152 0.917145 16.8246 0.226562 15.9757 0.226562ZM15.7748 1.25284L15.5694 1.42392L9.36835 6.5875C9.01442 6.88218 8.50066 6.88218 8.1468 6.5875L1.94579 1.42392L1.74033 1.25284H15.7748ZM1.02628 1.99375L6.07872 6.20091L1.02628 9.56344V1.99375ZM15.9757 11.2003H1.53942C1.29147 11.2003 1.08409 11.0235 1.03658 10.7894L6.90159 6.88608L7.49012 7.37617C7.85732 7.68193 8.30748 7.83481 8.75761 7.83481C9.20774 7.83481 9.65786 7.68193 10.0251 7.37617L10.6136 6.88608L16.4786 10.7894C16.4311 11.0235 16.2237 11.2003 15.9757 11.2003ZM16.4889 9.56344L11.4364 6.20094L16.4889 1.99375V9.56344Z" fill="#3D3D3D"/>
</svg>
