<svg width="45" height="39" viewBox="0 0 45 39" fill="none" xmlns="http://www.w3.org/2000/svg">
<path d="M20.3372 36.7971H11.2174C11.532 33.0035 11.2174 28.6263 6.59268 24.4436C4.42189 22.7248 0.26908 17.2834 1.02414 9.26869C1.08706 8.49052 1.87741 6.56823 3.67067 6.64273C6.0302 6.74076 6.59268 8.49072 6.59268 9.85252C6.59268 10.8155 6.87587 15.5241 9.61173 18.5776" stroke="#AD1E23" stroke-width="1.46838" stroke-linecap="round"/>
<path d="M17.8978 17.9519C19.011 17.9519 20.0721 17.7292 21.0391 17.326M22.2957 2.90112C21.0262 2.08838 19.517 1.61719 17.8978 1.61719C13.3871 1.61719 9.73047 5.27385 9.73047 9.78456C9.73812 10.786 10.1062 13.1418 11.5174 14.5529" stroke="#AD1E23" stroke-width="1.46838" stroke-linecap="round"/>
<path d="M15.2569 9.84963C13.5786 9.7799 12.8389 11.579 12.7801 12.3073C12.0734 19.8083 15.96 24.9008 17.9917 26.5095C22.3199 30.424 22.6144 34.5207 22.3199 38.0711H28.459H28.683H34.8221C34.5276 34.5207 34.8221 30.424 39.1504 26.5095C41.182 24.9008 45.0686 19.8083 44.362 12.3073C44.3031 11.579 43.5634 9.7799 41.8851 9.84963C39.6768 9.94137 39.1504 11.5792 39.1504 12.8537C39.1504 14.1282 38.6204 22.4125 31.8188 23.4139H25.3232C18.5217 22.4125 17.9917 14.1282 17.9917 12.8537C17.9917 11.5792 17.4652 9.94137 15.2569 9.84963Z" fill="#AD1E23"/>
<circle cx="29.1576" cy="11.0248" r="8.23184" fill="#AD1E23"/>
</svg>
