<svg width="23" height="20" viewBox="0 0 23 20" fill="none" xmlns="http://www.w3.org/2000/svg">
<path d="M10.3714 18.8022H5.85477C6.01058 16.9234 5.85477 14.7556 3.56438 12.6841C2.4893 11.8329 0.432619 9.13804 0.80656 5.16874C0.837722 4.78335 1.22915 3.83133 2.11726 3.86823C3.28581 3.91678 3.56438 4.78344 3.56438 5.45788C3.56438 5.93481 3.70463 8.26671 5.05957 9.77895" stroke="#FFFDF9" stroke-width="1.4" stroke-linecap="round"/>
<path d="M9.16208 9.46869C9.71337 9.46869 10.2389 9.3584 10.7178 9.15869M11.3401 2.01477C10.7114 1.61226 9.96399 1.37891 9.16208 1.37891C6.92815 1.37891 5.11719 3.18987 5.11719 5.4238C5.12098 5.91978 5.30328 7.08645 6.00217 7.78534" stroke="#FFFDF9" stroke-width="1.4" stroke-linecap="round"/>
<path d="M7.85849 5.45801C7.02731 5.42348 6.66098 6.31447 6.63181 6.67515C6.28184 10.39 8.20669 12.9121 9.21286 13.7088C11.3564 15.6475 11.5023 17.6763 11.3564 19.4347H14.3968H14.5077H17.5481C17.4023 17.6763 17.5481 15.6475 19.6917 13.7088C20.6979 12.9121 22.6227 10.39 22.2727 6.67515C22.2436 6.31447 21.8773 5.42348 21.0461 5.45801C19.9524 5.50344 19.6917 6.31456 19.6917 6.94576C19.6917 7.57696 19.4292 11.6798 16.0607 12.1757H12.8438C9.47534 11.6798 9.21286 7.57696 9.21286 6.94576C9.21286 6.31456 8.95214 5.50344 7.85849 5.45801Z" fill="#FFFDF9"/>
<circle cx="14.737" cy="6.04166" r="4.07682" fill="#FFFDF9"/>
</svg>
