<svg width="44" height="37" viewBox="0 0 44 37" fill="none" xmlns="http://www.w3.org/2000/svg">
<path d="M23.5 8L12.5 19.5L7 13.5M32.6205 6.88552V1.59366H1.375V35.8164H17.2507" stroke="#FFFFFF" stroke-width="1.46838" stroke-linecap="round"/>
<path d="M28.2966 19.6996V14.416C28.2966 13.365 28.7269 12.3571 29.493 11.6139C30.259 10.8707 31.7464 9.82422 32.8297 9.82422L37.8276 22.3415V36.8715H22.469C21.8123 36.8787 21.175 36.6554 20.6746 36.2428C20.1741 35.8301 19.8443 35.2559 19.7458 34.626L17.8668 22.7377C17.8076 22.3591 17.8339 21.9725 17.944 21.6047C18.0541 21.2369 18.2452 20.8968 18.5043 20.6078C18.7633 20.3188 19.084 20.0879 19.4441 19.9311C19.8043 19.7743 20.1953 19.6953 20.59 19.6996H28.2966Z" fill="#FFFFFF"/>
<path d="M42.9237 36.122C42.4196 36.6031 41.7359 36.8735 41.023 36.8735H39.007V22.7617H41.023C41.7359 22.7617 42.4196 23.032 42.9237 23.5132C43.4277 23.9944 43.7109 24.647 43.7109 25.3275V34.3077C43.7109 34.9882 43.4277 35.6408 42.9237 36.122Z" fill="#FFFFFF"/>
</svg>
