<svg width="64" height="64" viewBox="0 0 64 64" fill="none" xmlns="http://www.w3.org/2000/svg">
<circle cx="32" cy="32" r="32" fill="white"/>
<path d="M25.703 21.6081V20.5315C25.703 18.5851 27.2857 17.0023 29.2322 17.0023L29.2322 17H36.2307C38.1771 17 39.7748 18.5828 39.7748 20.5292V21.6058H44.9486C46.8928 21.6058 48.4778 23.1908 48.4778 25.135V41.6896C48.4778 45.0413 45.0268 45.4389 43.3013 45.2188H20.5292C18.585 45.2188 17 43.6338 17 41.6896V25.1373C17 23.1931 18.585 21.6081 20.5292 21.6081H25.703ZM25.703 21.6081H39.7748M31.0569 27.7243C30.9295 27.7341 30.8106 27.7923 30.7245 27.8867C30.6383 27.9812 30.5915 28.1049 30.5934 28.2327V31.2683H27.5577C27.4275 31.2707 27.3033 31.3234 27.2113 31.4155C27.1192 31.5075 27.0665 31.6317 27.0642 31.7618V35.0368C27.0626 35.1696 27.1136 35.2975 27.2061 35.3928C27.2985 35.488 27.4249 35.5429 27.5577 35.5452H30.5934V38.5809C30.5926 38.6479 30.6052 38.7144 30.6304 38.7765C30.6557 38.8385 30.6931 38.8949 30.7405 38.9422C30.7879 38.9896 30.8442 39.027 30.9063 39.0523C30.9683 39.0776 31.0348 39.0902 31.1018 39.0894H34.3767C34.5095 39.087 34.6359 39.0322 34.7283 38.9369C34.8208 38.8417 34.8718 38.7137 34.8702 38.5809V35.5452H37.9059C37.9729 35.546 38.0394 35.5334 38.1014 35.5082C38.1635 35.4829 38.2198 35.4455 38.2672 35.3981C38.3146 35.3507 38.352 35.2944 38.3773 35.2323C38.4025 35.1703 38.4151 35.1038 38.4143 35.0368V31.7618C38.412 31.6291 38.3572 31.5027 38.2619 31.4102C38.1666 31.3178 38.0387 31.2667 37.9059 31.2683H34.8702V28.2327C34.8718 28.1 34.8208 27.972 34.7283 27.8767C34.6359 27.7815 34.5095 27.7266 34.3767 27.7243H31.1018C31.0869 27.7236 31.0719 27.7236 31.0569 27.7243Z" stroke="#EB711A" stroke-width="1.5" stroke-linecap="round"/>
</svg>
