<svg width="14" height="14" viewBox="0 0 14 14" fill="none" xmlns="http://www.w3.org/2000/svg">
<path d="M7 0C3.13438 0 0 3.11441 0 6.95541C0 10.7964 3.13438 13.9108 7 13.9108C10.8656 13.9108 14 10.7964 14 6.95541C14 3.11441 10.8656 0 7 0ZM7 12.7309C3.79063 12.7309 1.1875 10.1443 1.1875 6.95541C1.1875 3.76648 3.79063 1.17994 7 1.17994C10.2094 1.17994 12.8125 3.76648 12.8125 6.95541C12.8125 10.1443 10.2094 12.7309 7 12.7309Z" fill="#999999"/>
<path d="M6.25 4.22179C6.25 4.41943 6.32902 4.60898 6.46967 4.74874C6.61032 4.88849 6.80109 4.96701 7 4.96701C7.19891 4.96701 7.38968 4.88849 7.53033 4.74874C7.67098 4.60898 7.75 4.41943 7.75 4.22179C7.75 4.02414 7.67098 3.83459 7.53033 3.69483C7.38968 3.55508 7.19891 3.47656 7 3.47656C6.80109 3.47656 6.61032 3.55508 6.46967 3.69483C6.32902 3.83459 6.25 4.02414 6.25 4.22179ZM7.375 5.96064H6.625C6.55625 5.96064 6.5 6.01653 6.5 6.08484V10.3078C6.5 10.3761 6.55625 10.432 6.625 10.432H7.375C7.44375 10.432 7.5 10.3761 7.5 10.3078V6.08484C7.5 6.01653 7.44375 5.96064 7.375 5.96064Z" fill="#999999"/>
</svg>
