<svg width="47" height="47" viewBox="0 0 47 47" fill="none" xmlns="http://www.w3.org/2000/svg">
<circle cx="23.5" cy="23.5" r="23" fill="white" stroke="#FFDABA"/>
<path d="M26.3659 12.3628C23.9452 11.7399 21.3875 11.9227 19.08 12.8833C16.7724 13.844 14.8407 15.5304 13.5773 17.6871C12.3139 19.8438 11.7875 22.3534 12.0779 24.836C12.3682 27.3186 13.4596 29.639 15.1866 31.4459C16.9136 33.2528 19.1824 34.4479 21.6493 34.8501C24.1163 35.2524 26.6471 34.8399 28.8587 33.6752C31.0702 32.5105 32.8421 30.657 33.9061 28.3952C34.9701 26.1334 35.2682 23.5866 34.7553 21.1402L23.5 23.5L26.3659 12.3628Z" stroke="#E67817" stroke-width="1.09302" stroke-linecap="round" stroke-linejoin="round"/>
<path d="M33.7908 18.4119C33.4639 17.5858 33.0404 16.7955 32.5255 16.0584C31.5895 14.7184 30.3847 13.6017 28.9982 12.7728" stroke="#E67817" stroke-width="1.09302" stroke-linecap="round" stroke-linejoin="round"/>
</svg>
