<svg width="39" height="37" viewBox="0 0 39 37" fill="none" xmlns="http://www.w3.org/2000/svg">
<path d="M0.485332 25.4469H9.62509V19.3963C9.62509 19.2675 9.67619 19.144 9.76718 19.0528C9.85817 18.9616 9.98162 18.9103 10.1104 18.9101H14.6962C16.0353 15.6093 17.935 13.4475 19.8241 12.0305C18.4885 10.3974 14.3473 4.98347 16.0504 2.54531C16.2578 2.23563 16.5276 1.9727 16.8425 1.77337C17.1574 1.57404 17.5106 1.4427 17.8792 1.38779C19.4362 1.13716 21.2039 2.11135 22.024 2.63476C22.5554 1.74913 23.859 0 25.7959 0C27.7328 0 29.0338 1.75001 29.5678 2.63476C30.3888 2.11135 32.1574 1.13716 33.7126 1.3869C34.0813 1.44191 34.4345 1.57328 34.7496 1.77259C35.0647 1.97191 35.3347 2.2348 35.5423 2.54443C37.248 4.9879 33.0856 10.4204 31.7589 12.0402C34.1669 13.8566 36.7485 16.99 37.9548 22.3517C38.7519 25.8862 39.0946 28.869 38.9777 31.2186C38.9065 32.5737 38.3166 33.8493 37.3302 34.7811C36.3438 35.7129 35.0367 36.2293 33.6798 36.2234H0.485332C0.356689 36.2231 0.233379 36.1719 0.14241 36.0809C0.051445 35.99 0.000236511 35.8667 3.8147e-06 35.738V25.9349C-0.000228882 25.871 0.012146 25.8077 0.0364227 25.7485C0.0606956 25.6894 0.0963936 25.6356 0.141476 25.5903C0.186554 25.545 0.240124 25.509 0.299126 25.4844C0.358131 25.4598 0.42141 25.4471 0.485332 25.4469ZM19.2502 26.4211H10.5966V28.7158H19.2502V26.4211ZM10.5966 25.4469H19.2502V23.1505H10.5966V25.4469ZM19.2502 29.6865H10.5966V31.9838H19.2502V29.6865ZM9.62509 29.6865H0.968887V31.9838H9.62509V29.6865ZM0.971546 28.7123H9.62509V26.4185H0.968887L0.971546 28.7123ZM10.5966 22.179H19.2502V19.8816H10.5966V22.179ZM34.7461 3.09972C34.6128 2.89767 34.4382 2.72614 34.2338 2.59639C34.0294 2.46665 33.7999 2.38163 33.5603 2.34693C31.905 2.08124 29.7139 3.70904 29.6909 3.72498C29.6336 3.76826 29.5673 3.79826 29.497 3.81283C29.4266 3.8274 29.3539 3.82617 29.2841 3.80922C29.2143 3.79227 29.1491 3.76004 29.0932 3.71484C29.0374 3.66964 28.9923 3.61261 28.9612 3.54785C28.9488 3.52217 27.7142 0.974199 25.795 0.974199C23.8758 0.974199 22.6421 3.52217 22.6298 3.54785C22.5984 3.61251 22.5531 3.66944 22.4972 3.71454C22.4413 3.75965 22.376 3.79182 22.3062 3.80875C22.2364 3.82568 22.1637 3.82695 22.0933 3.81247C22.0229 3.79798 21.9566 3.76811 21.8991 3.72498C21.877 3.70815 19.685 2.0777 18.0298 2.34605C17.7905 2.38087 17.5612 2.46596 17.3571 2.5957C17.1531 2.72545 16.9787 2.89691 16.8457 3.09884C15.7829 4.62301 18.4947 8.89797 20.622 11.4725C21.415 10.9588 22.2576 10.5262 23.1372 10.1813C24.8448 9.50935 26.7435 9.50935 28.451 10.1813C29.3292 10.5278 30.1696 10.9631 30.9591 11.4805C33.0909 8.90772 35.8115 4.62567 34.7461 3.09972ZM38.0079 31.1744C38.1204 28.9116 37.7839 26.0164 37.0072 22.5686C35.2917 14.9522 30.6899 12.1057 28.0994 11.0899C26.6196 10.5075 24.974 10.5075 23.4941 11.0899C22.5647 11.4545 21.6801 11.9243 20.8576 12.4901L20.8523 12.4954C20.8268 12.5167 20.7992 12.5354 20.7699 12.5512C18.9553 13.8194 17.0901 15.8059 15.7563 18.9136H19.7417C19.8706 18.9136 19.9943 18.9648 20.0855 19.056C20.1767 19.1472 20.2279 19.2709 20.2279 19.3998V35.2527H33.6896C34.7956 35.2561 35.8605 34.8343 36.6643 34.0746C37.468 33.3148 37.9491 32.2752 38.0079 31.1708V31.1744ZM19.2502 32.9589H10.5966V35.2518H19.2502V32.9589ZM0.968887 35.2518H9.62509V32.9554H0.968887V35.2518Z" fill="#AD1E23"/>
<path d="M23.3279 23.6979C23.5668 23.7115 23.8134 23.7183 24.0675 23.7183C24.3268 23.7183 24.5784 23.7024 24.8224 23.6707C25.0715 23.6345 25.3079 23.578 25.5316 23.501C25.7553 23.4241 25.9561 23.3177 26.134 23.1819C26.3119 23.0462 26.4568 22.8764 26.5686 22.6728C26.6855 22.4646 26.7593 22.2157 26.7898 21.926H23C23.0153 21.8943 23.0559 21.8287 23.122 21.7291C23.1932 21.625 23.2669 21.5164 23.3431 21.4033C23.4346 21.272 23.5363 21.1294 23.6481 20.9756H26.5991C26.5991 20.8579 26.5356 20.7402 26.4085 20.6225C26.2814 20.5003 26.1264 20.3917 25.9434 20.2967C25.7654 20.2016 25.5824 20.1247 25.3943 20.0659C25.2062 20.0025 25.0512 19.9708 24.9292 19.9708H23C23.0203 19.9165 23.0635 19.835 23.1296 19.7264C23.2008 19.6178 23.2745 19.5114 23.3508 19.4073C23.427 19.2987 23.4931 19.2037 23.549 19.1222C23.61 19.0407 23.6431 19 23.6481 19H30C30 19 29.9847 19.0249 29.9542 19.0747C29.9288 19.1245 29.8932 19.1856 29.8475 19.258C29.8017 19.3259 29.7509 19.4028 29.695 19.4888C29.6391 19.5703 29.5857 19.6472 29.5349 19.7196C29.4891 19.792 29.4484 19.8531 29.4129 19.9029C29.3824 19.9482 29.3671 19.9708 29.3671 19.9708H27.6972C27.8039 20.1337 27.8954 20.2989 27.9717 20.4664C28.053 20.6293 28.1038 20.799 28.1242 20.9756H30L29.3671 21.926H28.1928C28.1318 22.3469 27.9971 22.7067 27.7887 23.0054C27.5853 23.3041 27.3337 23.5531 27.0338 23.7522C26.7389 23.9468 26.4085 24.0984 26.0425 24.2071C25.6765 24.3112 25.3003 24.3836 24.9139 24.4243C24.9139 24.4288 24.9216 24.4447 24.9368 24.4718C24.9572 24.4945 24.98 24.5216 25.0054 24.5533C25.0309 24.5895 25.0614 24.628 25.0969 24.6687L28.4826 28.8303V29H27.0338L23.3279 24.594V23.6979Z" fill="#AD1E23"/>
</svg>
