<svg width="74" height="74" viewBox="0 0 74 74" fill="none" xmlns="http://www.w3.org/2000/svg">
<circle cx="37" cy="37" r="37" fill="#FFF3ED"/>
<path d="M45.3654 25.1147C46.4146 29.5594 43.6621 34.013 39.2175 35.0622C34.7729 36.1115 30.3193 33.359 29.27 28.9143C28.2208 24.4697 30.9733 20.0161 35.4179 18.9668C39.8625 17.9176 44.3161 20.6701 45.3654 25.1147Z" stroke="#AD1E23" stroke-width="0.755102"/>
<path d="M44.9241 53.3204L45.2919 53.2353C44.8532 51.3381 45.1024 49.8166 45.2832 49.2601L44.9241 49.1435L45.2832 49.2601C45.3986 48.9047 45.6232 48.5086 45.9342 48.2931C46.0828 48.1902 46.2497 48.1288 46.4427 48.1267C46.6379 48.1246 46.8864 48.183 47.1953 48.3634L47.7633 48.6953V48.0375V44.9832C47.7633 44.592 47.4046 44.3042 47.0285 44.3736C47.0285 44.3736 47.0285 44.3736 47.0285 44.3736L47.097 44.7449M44.9241 53.3204L38.3138 48.4151M44.9241 53.3204L45.2919 53.2353C45.4141 53.7637 45.7889 53.9346 46.3608 54.1954C46.3792 54.2038 46.3979 54.2123 46.4168 54.2209C46.6959 54.3484 47.0292 54.5082 47.2905 54.775C47.5678 55.058 47.7421 55.4358 47.763 55.9533L47.7633 55.9609V55.9685V56.556C47.7633 56.7777 47.9431 56.9575 48.1649 56.9575H53.1614C53.9387 56.9575 54.577 56.3427 54.5999 55.5713C54.6127 55.1386 54.62 54.6932 54.62 54.2315C54.62 42.5398 50.1052 38.4175 47.968 37.1122L48.1646 36.7903L47.968 37.1122C47.3955 36.7626 46.7294 36.5845 46.0455 36.57C45.0721 36.5493 44.1194 36.9558 43.3788 37.631C42.5788 38.3604 41.8248 39.0109 40.8861 39.4718C39.9393 39.9367 38.828 40.1984 37.3162 40.1984C35.8024 40.1984 34.6785 39.9291 33.7292 39.4626C32.7867 38.9993 32.0392 38.3519 31.2743 37.6406M44.9241 53.3204L27.2465 47.6116V44.8837C27.2465 44.7849 27.3397 44.71 27.4368 44.7284C33.8665 45.9435 36.077 48.7208 36.077 48.7208M47.097 44.7449C40.4647 45.9684 38.5553 48.7208 38.5553 48.7208M47.097 44.7449C47.2454 44.7175 47.3858 44.8323 47.3858 44.9832V47.6088M47.097 44.7449L47.3858 47.6088M38.5553 48.7208C38.3883 48.3822 38.3884 48.3822 38.3885 48.3821L38.3865 48.3831L38.372 48.3898C38.3591 48.3957 38.3395 48.4044 38.3138 48.4151M38.5553 48.7208C38.2451 48.5056 38.2453 48.5054 38.2454 48.5051L38.2458 48.5046L38.2466 48.5034L38.2489 48.5002L38.2557 48.4908C38.2611 48.4832 38.2686 48.4731 38.2782 48.4606C38.2879 48.4479 38.2997 48.4327 38.3138 48.4151M38.5553 48.7208C38.5553 48.7208 37.9661 49.0114 37.2993 49.0114C36.6324 49.0114 36.077 48.7208 36.077 48.7208M38.3138 48.4151C38.3119 48.4159 38.31 48.4167 38.3081 48.4175C38.251 48.4412 38.167 48.4735 38.0639 48.506C37.855 48.5718 37.5811 48.6338 37.2993 48.6338C37.0181 48.6338 36.7537 48.5721 36.5554 48.5072C36.4573 48.4752 36.3783 48.4433 36.325 48.4201C36.3203 48.4181 36.3158 48.4161 36.3115 48.4142M36.077 48.7208C36.3724 48.4857 36.3722 48.4855 36.3721 48.4853L36.3717 48.4849L36.3709 48.4838L36.3685 48.4809L36.3613 48.4721C36.3554 48.465 36.3472 48.4552 36.3368 48.4431C36.3295 48.4346 36.3211 48.4249 36.3115 48.4142M36.077 48.7208C36.252 48.3863 36.2519 48.3862 36.2518 48.3862L36.253 48.3868L36.266 48.3932C36.2763 48.3981 36.2916 48.4053 36.3115 48.4142M36.3115 48.4142C36.2936 48.3939 36.2717 48.3696 36.2456 48.3417C36.1657 48.2559 36.0468 48.1353 35.8849 47.9883C35.5612 47.6944 35.066 47.2955 34.3679 46.8599C32.9709 45.9883 30.7667 44.9734 27.5069 44.3574L27.5069 44.3574C27.1853 44.2966 26.8689 44.5403 26.8689 44.8837V48.0408V48.7007L27.4378 48.3663C27.748 48.184 27.9975 48.1247 28.1933 48.1262C28.387 48.1278 28.5543 48.1889 28.7032 48.2918C29.0149 48.5071 29.24 48.904 29.3557 49.2601C29.5364 49.8166 29.7856 51.3381 29.3469 53.2353C29.2252 53.7616 28.8537 53.9302 28.2868 54.1876C28.2553 54.2019 28.2231 54.2165 28.1904 54.2315C27.904 54.3622 27.5641 54.5286 27.3036 54.8132C27.0281 55.1142 26.8689 55.5139 26.8689 56.0553V56.556C26.8689 56.7777 26.6892 56.9575 26.4674 56.9575H21.4709C20.6936 56.9575 20.0553 56.3427 20.0324 55.5714C20.0195 55.1387 20.0123 54.6932 20.0123 54.2315C20.0123 42.5398 24.527 38.4175 26.6643 37.1122L26.6644 37.1122C27.342 36.6982 28.1513 36.5247 28.9645 36.5784C29.8159 36.6347 30.6247 37.0367 31.2743 37.6406M31.2743 37.6406L31.5314 37.3642M31.2743 37.6406L31.5314 37.3642M31.5314 37.3642C33.0548 38.7808 34.3847 39.8208 37.3162 39.8208C40.2463 39.8208 41.5259 38.8094 43.1244 37.352L28.9894 36.2017C29.9435 36.2647 30.8311 36.713 31.5314 37.3642ZM47.3858 47.6088C47.4488 47.6399 47.5123 47.6741 47.5763 47.7115L47.3858 48.0375V47.6088ZM36.251 48.3857C36.2509 48.3857 36.2509 48.3857 36.2511 48.3858L36.251 48.3857Z" stroke="#AD1E23" stroke-width="0.755102"/>
<path d="M26.7277 56.1812L26.7266 57.0777H47.7687V56.1812C47.6988 54.4549 45.6906 55.0455 45.3408 53.533C44.8866 51.5689 45.1389 49.9777 45.3408 49.3561C45.5979 48.5646 46.3498 47.4244 47.7687 48.2534L47.2709 44.3865C47.2709 44.2356 47.1305 44.1208 46.9822 44.1482C40.3499 45.3717 38.4404 48.1241 38.4404 48.1241C38.4404 48.1241 37.8512 48.4147 37.1844 48.4147C36.5175 48.4147 35.9621 48.1241 35.9621 48.1241C35.9621 48.1241 33.7517 45.3468 27.322 44.1317C27.2249 44.1133 27.1316 44.1882 27.1316 44.287V48.2534C28.5548 47.4168 29.3424 48.5633 29.5999 49.3561C29.8017 49.9777 29.6502 51.4822 29.196 53.4463C28.8401 54.9851 26.7277 54.3413 26.7277 56.1812Z" fill="#AD1E23"/>
</svg>
