<svg width="30" height="34" viewBox="0 0 30 34" fill="none" xmlns="http://www.w3.org/2000/svg">
<path d="M15.1246 33.0694L28.6414 25.5373L28.8879 25.4098V8.63857L28.6655 8.53246L15.111 1H14.777L1.26221 8.53246L1 8.66V25.3992L1.25711 25.5373L14.7845 33.0589L15.1246 33.0694Z" stroke="#AD1E23"/>
<path d="M28.0731 9.00195H1.7168L14.8949 32.5344L28.0731 9.00195Z" stroke="#AD1E23" stroke-dasharray="2 2"/>
<path d="M11.7205 16.6979C11.9594 16.7115 12.2059 16.7183 12.4601 16.7183C12.7194 16.7183 12.971 16.7024 13.215 16.6707C13.4641 16.6345 13.7005 16.578 13.9242 16.501C14.1478 16.4241 14.3486 16.3177 14.5266 16.1819C14.7045 16.0462 14.8494 15.8764 14.9612 15.6728C15.0781 15.4646 15.1518 15.2157 15.1823 14.926H11.3926C11.4078 14.8943 11.4485 14.8287 11.5146 14.7291C11.5858 14.625 11.6595 14.5164 11.7357 14.4033C11.8272 14.272 11.9289 14.1294 12.0407 13.9756H14.9917C14.9917 13.8579 14.9282 13.7402 14.8011 13.6225C14.674 13.5003 14.5189 13.3917 14.3359 13.2967C14.158 13.2016 13.975 13.1247 13.7869 13.0659C13.5988 13.0025 13.4438 12.9708 13.3218 12.9708H11.3926C11.4129 12.9165 11.4561 12.835 11.5222 12.7264C11.5934 12.6178 11.6671 12.5114 11.7433 12.4073C11.8196 12.2987 11.8857 12.2037 11.9416 12.1222C12.0026 12.0407 12.0356 12 12.0407 12H18.3926C18.3926 12 18.3773 12.0249 18.3468 12.0747C18.3214 12.1245 18.2858 12.1856 18.2401 12.258C18.1943 12.3259 18.1435 12.4028 18.0876 12.4888C18.0316 12.5703 17.9783 12.6472 17.9274 12.7196C17.8817 12.792 17.841 12.8531 17.8054 12.9029C17.7749 12.9482 17.7597 12.9708 17.7597 12.9708H16.0897C16.1965 13.1337 16.288 13.2989 16.3643 13.4664C16.4456 13.6293 16.4964 13.799 16.5168 13.9756H18.3926L17.7597 14.926H16.5854C16.5244 15.3469 16.3897 15.7067 16.1812 16.0054C15.9779 16.3041 15.7263 16.5531 15.4263 16.7522C15.1315 16.9468 14.8011 17.0984 14.4351 17.2071C14.069 17.3112 13.6929 17.3836 13.3065 17.4243C13.3065 17.4288 13.3141 17.4447 13.3294 17.4718C13.3497 17.4945 13.3726 17.5216 13.398 17.5533C13.4234 17.5895 13.4539 17.628 13.4895 17.6687L16.8751 21.8303V22H15.4263L11.7205 17.594V16.6979Z" fill="#AD1E23"/>
</svg>
