<svg width="85" height="75" viewBox="0 0 85 75" fill="none" xmlns="http://www.w3.org/2000/svg">
<path d="M48.689 14.251V7.66602L56.0316 14.2511L48.689 14.251ZM48.689 14.251V23.2649M49.5334 25.1065C49.7926 25.2547 50.0149 25.4769 50.2 25.7362L83.7176 70.8827C84.4954 72.1419 83.5695 73.7714 82.1251 73.7344V73.7714H2.86824C1.38681 73.7714 0.423876 72.0679 1.38681 70.7346L26.1638 35.0691C26.8675 34.0321 28.3859 33.9951 29.1637 34.958L36.3857 43.8466L46.9039 25.8843C47.0346 25.6406 47.3062 25.3168 47.7063 25.1065C48.1576 24.8694 48.7724 24.7768 49.5334 25.1065Z" stroke="#BB2328" stroke-width="1.36" stroke-linecap="round" stroke-linejoin="round"/>
<path d="M5.12691 68.8747L25.9683 38.2507C26.7278 37.1347 28.3519 37.0761 29.1898 38.1345L53.4339 68.7586C54.4719 70.0697 53.5381 72 51.8658 72H6.78033C5.17427 72 4.2233 70.2025 5.12691 68.8747Z" fill="#BB2328"/>
<path d="M12.6465 49.0307C2.49866 27.1796 18.35 1.55078 42.9418 1.55078C68.3675 1.55078 83.9819 28.6826 72.5 50.455" stroke="#BB2328" stroke-width="1.36" stroke-linecap="round"/>
</svg>
