<svg width="111" height="65" viewBox="0 0 111 65" fill="none" xmlns="http://www.w3.org/2000/svg">
<path d="M22.1587 43.3309C21.372 42.6753 20.7165 42.0853 20.3887 41.7575C19.0775 40.5774 18.3563 39.2662 18.0941 37.9551L15.0129 41.8886C14.9473 42.0197 14.7506 42.0853 14.6195 42.0853H3.73683C1.63896 42.0853 0 43.7898 0 45.8221C0 47.92 1.70452 49.5589 3.73683 49.5589H14.554C17.0452 49.5589 19.3397 48.4444 20.9131 46.4777L22.9454 43.9209C22.9454 43.9209 22.8799 43.8553 22.8143 43.8553L22.1587 43.3309Z" fill="#AD1E23"/>
<path d="M53.7564 23.5331L46.4794 23.3365C45.8238 23.3365 45.1683 23.0742 44.6438 22.6809C38.7435 17.6329 37.8913 17.5018 37.039 17.3051L31.991 16.3217C31.2699 16.1906 30.4832 15.9939 21.0428 17.8296C18.9449 18.2229 17.0437 19.3374 15.667 21.0419L11.5368 26.0244C10.4223 27.3355 10.619 29.3023 11.9957 30.4168C12.5857 30.8757 13.3069 31.1379 13.9625 31.1379C14.8803 31.1379 15.7325 30.7446 16.3881 30.0234L20.5183 25.041C20.9772 24.5165 21.5672 24.1887 22.2228 24.0576C23.4029 23.8609 24.4518 23.6642 25.3696 23.4676L23.1406 29.4989L22.7473 30.6134C21.1083 35.0058 20.1905 37.5626 22.4851 39.5949C22.944 39.9883 23.8618 40.775 24.9107 41.6928C28.0575 44.3807 32.7777 48.3798 32.7777 48.3798C33.8267 49.232 34.6134 50.3465 35.2034 51.5921L39.6614 61.6226C40.2514 62.9993 41.6281 63.8515 43.0704 63.8515C43.5949 63.8515 44.1193 63.786 44.5782 63.5237C46.4794 62.6715 47.3317 60.4425 46.4794 58.5413L42.0215 48.5109C41.0381 46.2819 39.5302 44.2496 37.629 42.6106L32.7777 38.4804L38.5469 25.8277C39.1369 26.2866 39.7925 26.8766 40.5792 27.5322C42.1526 28.9089 44.1849 29.6956 46.2828 29.6956L53.5597 29.8923C55.2643 29.9579 56.7065 28.5811 56.7721 26.8111C56.8377 25.041 55.4609 23.5987 53.7564 23.5331Z" fill="#AD1E23"/>
<path d="M43.3318 10.005C44.2287 6.27341 41.9307 2.52123 38.1991 1.62431C34.4675 0.727381 30.7153 3.02536 29.8184 6.75698C28.9214 10.4886 31.2194 14.2408 34.951 15.1377C38.6827 16.0346 42.4348 13.7366 43.3318 10.005Z" fill="#AD1E23"/>
<path d="M96.9996 62.3043L108.715 19.4973C109.849 18.4159 110.089 19.3471 110.067 19.9479L98.3514 62.7549C97.27 63.4759 96.9996 62.7549 96.9996 62.3043Z" fill="#AD1E23" stroke="#AD1E23" stroke-width="0.9012"/>
<mask id="path-5-inside-1" fill="white">
<path d="M58.7153 8.25C57.7459 8.61355 56.837 9.46183 56.7764 10.6737C56.837 9.52242 57.7459 8.67414 58.7153 8.25Z"/>
</mask>
<path d="M58.7153 8.25L58.3989 7.40618L59.0765 9.07564L58.7153 8.25ZM56.7764 10.6737L57.6764 10.721L55.8763 10.6287L56.7764 10.6737ZM59.0318 9.09382C58.2767 9.37697 57.7134 9.97989 57.6765 10.7187L55.8763 10.6287C55.9606 8.94377 57.215 7.85013 58.3989 7.40618L59.0318 9.09382ZM55.8764 10.6263C55.9624 8.99281 57.2281 7.917 58.3541 7.42436L59.0765 9.07564C58.2636 9.43128 57.7116 10.052 57.6764 10.721L55.8764 10.6263Z" fill="black" mask="url(#path-5-inside-1)"/>
<mask id="path-7-inside-2" fill="white">
<path d="M59.4431 8.12933C60.4731 8.00814 61.5032 8.49288 61.8062 9.7653C61.5032 8.49288 60.4731 8.00814 59.4431 8.12933Z"/>
</mask>
<path d="M59.3378 7.2343C60.0208 7.15394 60.7489 7.26924 61.3749 7.6605C62.0147 8.06037 62.4807 8.70751 62.6828 9.55656L60.9295 9.97404C60.8287 9.55067 60.6281 9.31923 60.4196 9.18893C60.1974 9.05001 59.8954 8.98353 59.5484 9.02435L59.3378 7.2343ZM60.9295 9.97404C60.8287 9.55067 60.6281 9.31923 60.4196 9.18893C60.1974 9.05001 59.8954 8.98353 59.5484 9.02435L59.3378 7.2343C60.0208 7.15394 60.7489 7.26924 61.3749 7.6605C62.0147 8.06037 62.4807 8.70751 62.6828 9.55656L60.9295 9.97404Z" fill="black" mask="url(#path-7-inside-2)"/>
<path d="M101.385 63.084H34.2461" stroke="#AD1E23" stroke-width="2.253" stroke-linecap="round"/>
</svg>
