<svg width="88" height="60" viewBox="0 0 88 60" fill="none" xmlns="http://www.w3.org/2000/svg">
<path d="M33.3458 53.9028H46.5894C48.671 53.8992 50.6663 53.0707 52.1383 51.5988C53.6102 50.1268 54.4387 48.1315 54.4423 46.0499V15.4274C54.4423 15.0664 54.2989 14.7203 54.0437 14.465C53.7885 14.2098 53.4423 14.0664 53.0813 14.0664H16.0622C15.7012 14.0664 15.355 14.2098 15.0998 14.465C14.8446 14.7203 14.7012 15.0664 14.7012 15.4274V33.6512" stroke="#BB2328" stroke-width="1.361"/>
<path d="M45.7306 18.8706V8.81213C45.727 6.74133 44.9028 4.75637 43.4385 3.2921C41.9742 1.82782 39.9893 1.0036 37.9185 1H32.3112C30.2404 1.0036 28.2554 1.82782 26.7911 3.2921C25.3268 4.75637 24.5026 6.74133 24.499 8.81213V18.8706" stroke="#BB2328" stroke-width="1.361"/>
<path d="M32.664 40.5112V37.9039C32.664 35.9616 31.1167 34.3867 29.2084 34.3867H3.636C1.70195 34.3867 0 36.0316 0 37.9039V40.5112H32.664Z" fill="#BB2328"/>
<path d="M0 42.5527V55.3174C0 57.1827 1.72776 58.8847 3.636 58.8847H29.2084C29.4061 58.8847 29.5694 58.8245 29.6811 58.773C31.469 58.4893 32.664 56.5896 32.664 54.965V42.5527H0Z" fill="#BB2328"/>
<path d="M75.3455 26.3513L85.9587 42.8676C86.7755 44.6205 87.1362 46.5514 87.0072 48.4809C86.8782 50.4105 86.2637 52.2762 85.2208 53.9047C84.168 55.5698 82.7096 56.9403 80.9823 57.8877C79.2551 58.835 77.3155 59.3283 75.3455 59.3211H62.032C60.0576 59.3233 58.1151 58.8229 56.3875 57.8671C54.6598 56.9112 53.2039 55.5314 52.1567 53.8576C51.122 52.2346 50.5122 50.3774 50.3832 48.4569C50.2543 46.5365 50.6104 44.6144 51.4188 42.8676L62.032 26.3513H75.3455Z" fill="#BB2328"/>
<path d="M69.8958 17.2675C71.4107 16.861 72.7104 15.8858 73.5243 14.545C74.5605 13.6501 76.4916 13.9798 77.8732 14.4351L74.9373 23.2114H62.189L59.2217 14.3095C59.7333 14.0398 60.3132 13.9272 60.8886 13.9858C61.464 14.0445 62.0092 14.2718 62.4559 14.6392C63.3044 15.5021 64.2982 16.2089 65.3918 16.7273C66.7676 17.4805 68.3809 17.674 69.8958 17.2675Z" fill="#BB2328"/>
<path d="M71.1334 52.5859L68.1168 48.0311C67.8504 47.6315 67.5641 47.3385 67.2578 47.1521C66.9648 46.9656 66.5719 46.8724 66.0791 46.8724H63.2024V44.8547H67.4575C68.3499 44.8547 69.0291 44.6483 69.4952 44.2354C69.9614 43.8225 70.1944 43.2032 70.1944 42.3775C70.1944 41.5784 69.9614 40.9791 69.4952 40.5795C69.0291 40.1667 68.3499 39.9602 67.4575 39.9602H65.7395V38.7017H67.8771C68.9026 38.7017 69.7683 38.8348 70.4741 39.1012C71.1933 39.3676 71.7394 39.7871 72.1123 40.3598C72.4852 40.9191 72.6716 41.6517 72.6716 42.5573C72.6716 43.423 72.4719 44.1688 72.0723 44.7948C71.6861 45.4207 71.1334 45.9068 70.4142 46.2531C69.7083 46.5861 68.8759 46.7525 67.917 46.7525L68.2566 46.5328C68.9359 46.5328 69.5019 46.6593 69.9547 46.9124C70.4075 47.1521 70.8271 47.565 71.2133 48.151L74.2099 52.5859H71.1334ZM63.2024 43.0368V41.4386H74.4696V43.0368H63.2024ZM63.2024 39.9602V38.362H74.4696V39.9602H63.2024Z" fill="white"/>
</svg>
