<svg width="98" height="70" viewBox="0 0 98 70" fill="none" xmlns="http://www.w3.org/2000/svg">
<rect y="67" width="20" height="3" rx="1.5" fill="#BB2328"/>
<rect x="26" y="67" width="20" height="3" rx="1.5" fill="#BB2328"/>
<rect x="52" y="67" width="20" height="3" rx="1.5" fill="#BB2328"/>
<rect x="78" y="67" width="20" height="3" rx="1.5" fill="#BB2328"/>
<rect y="63" width="20" height="3" rx="1.5" fill="#BB2328"/>
<rect x="26" y="63" width="20" height="3" rx="1.5" fill="#BB2328"/>
<rect x="52" y="63" width="20" height="3" rx="1.5" fill="#BB2328"/>
<rect x="78" y="63" width="20" height="3" rx="1.5" fill="#BB2328"/>
<rect x="26" y="55" width="20" height="3" rx="1.5" fill="#BB2328"/>
<rect x="52" y="55" width="20" height="3" rx="1.5" fill="#BB2328"/>
<rect x="78" y="55" width="20" height="3" rx="1.5" fill="#BB2328"/>
<rect x="52" y="43" width="20" height="3" rx="1.5" fill="#BB2328"/>
<rect x="78" y="43" width="20" height="3" rx="1.5" fill="#BB2328"/>
<rect x="78" y="27" width="20" height="3" rx="1.5" fill="#BB2328"/>
<rect y="59" width="20" height="3" rx="1.5" fill="#BB2328"/>
<rect x="26" y="59" width="20" height="3" rx="1.5" fill="#BB2328"/>
<rect x="52" y="59" width="20" height="3" rx="1.5" fill="#BB2328"/>
<rect x="78" y="59" width="20" height="3" rx="1.5" fill="#BB2328"/>
<rect x="52" y="47" width="20" height="3" rx="1.5" fill="#BB2328"/>
<rect x="78" y="47" width="20" height="3" rx="1.5" fill="#BB2328"/>
<rect x="78" y="31" width="20" height="3" rx="1.5" fill="#BB2328"/>
<rect x="26" y="51" width="20" height="3" rx="1.5" fill="#BB2328"/>
<rect x="52" y="51" width="20" height="3" rx="1.5" fill="#BB2328"/>
<rect x="78" y="51" width="20" height="3" rx="1.5" fill="#BB2328"/>
<rect x="78" y="35" width="20" height="3" rx="1.5" fill="#BB2328"/>
<rect x="52" y="39" width="20" height="3" rx="1.5" fill="#BB2328"/>
<rect x="78" y="39" width="20" height="3" rx="1.5" fill="#BB2328"/>
<rect x="78" y="23" width="20" height="3" rx="1.5" fill="#BB2328"/>
<path d="M6.5 46L23 28.5L34 37.5L50.5 19L62.5 28.5L86 2.5M86 2.5L70.5 5.5M86 2.5V16.5" stroke="#BB2328" stroke-width="3" stroke-linecap="round"/>
</svg>
