<svg width="63" height="82" viewBox="0 0 63 82" fill="none" xmlns="http://www.w3.org/2000/svg">
<path d="M18.5709 1.26802H33.1483V12.0423H21.7513C22.1728 12.422 22.5512 12.8476 22.8818 13.3103H34.4166V0H17.3032V10.0827C17.7371 10.1242 18.1605 10.2016 18.5709 10.3119V1.26802Z" fill="#BB2328"/>
<path d="M40.3131 21.614C40.3131 21.646 40.3112 21.6755 40.3112 21.7075H52.1713V32.482H37.5942V31.4815C37.2113 31.9651 36.7863 32.4054 36.3262 32.798V33.7498H53.4396V20.4395H40.2909C40.3052 20.8407 40.3128 21.233 40.3131 21.614Z" fill="#BB2328"/>
<path d="M33.0674 24.3984V26.8236C33.338 26.2759 33.6027 25.4941 33.7757 24.3984H33.0674Z" fill="#BB2328"/>
<path d="M36.062 57.7107H53.1754V44.4004H36.062V57.7107ZM37.3294 45.6681H51.9077V56.4433H37.3294V45.6681Z" fill="#BB2328"/>
<path d="M42.0513 41.1261V43.5557H47.439V41.1261H45.3787V37.2697H47.439V34.8398H42.0513V37.2697H44.111V41.1261H42.0513Z" fill="#BB2328"/>
<path d="M32.3446 27.6551V26.3874L26.5005 26.3864L26.5011 16.6682H28.5542V14.2383H23.4517C23.8408 14.9859 24.1131 15.8036 24.2411 16.6682H25.2331V27.5983C25.2765 27.6174 25.3193 27.6364 25.363 27.6551H32.3446Z" fill="#BB2328"/>
<path d="M45.8867 13.3103H63.0001V0H45.8867V13.3103ZM47.1547 1.26771H61.7328V12.0423H47.1547V1.26771Z" fill="#BB2328"/>
<path d="M45.0575 3.96094H42.6279V9.3487H45.0575V3.96094Z" fill="#BB2328"/>
<path d="M42.0107 6.09375H35.5327V7.36178H42.0107V6.09375Z" fill="#BB2328"/>
<path d="M7.26207 77.2486C7.26207 79.4126 9.01689 81.1668 11.1802 81.1668C13.3442 81.1668 15.099 79.4126 15.099 77.2486V53.6387H16.568V77.2486C16.568 79.4126 18.3228 81.1668 20.4862 81.1668C22.6501 81.1668 24.405 79.4126 24.405 77.2486V33.3966C25.8381 33.8948 27.7162 34.4003 29.8117 34.4063C30.9511 34.4053 32.1637 34.2497 33.3677 33.8048C35.1754 33.1538 36.9134 31.7555 38.01 29.686C39.1212 27.6174 39.6761 24.9831 39.6796 21.6142C39.6786 20.8608 39.6504 20.0707 39.5937 19.2398C39.516 18.1172 38.7183 17.2171 37.6833 16.9569V12.2832H36.4453V16.9576C35.2768 17.2504 34.449 18.3441 34.5355 19.5887C34.585 20.3135 34.6084 20.9892 34.6084 21.6142C34.6075 25.3834 33.7511 27.2634 32.9515 28.1378C32.5421 28.5885 32.1187 28.8556 31.6052 29.0499C31.0943 29.2404 30.4849 29.3361 29.8117 29.3351C28.5276 29.3418 27.0507 28.9681 25.9446 28.5644C25.3903 28.3657 24.9263 28.1641 24.6116 28.018C24.4538 27.9448 24.334 27.8858 24.2579 27.8481C24.2202 27.8285 24.1936 27.8145 24.1784 27.8072C24.1752 27.805 24.1727 27.8034 24.1708 27.8022L24.1689 27.8012L24.1676 27.8006L24.1666 27.7996L24.1657 27.8C23.9175 27.6659 23.6567 27.5797 23.393 27.534C22.9889 27.2403 22.4933 27.0653 21.9554 27.0653H9.71128C9.30878 27.0653 8.93037 27.1642 8.59538 27.336C8.27718 27.4333 7.93395 27.5619 7.57012 27.742C7.3806 27.8342 7.18822 27.9413 6.99426 28.0592C5.3979 29.029 3.68364 30.8903 2.42227 34.0456C0.991665 37.5952 0.00412005 42.8007 0 50.7471C0 52.1063 0.0297911 53.5458 0.0919088 55.0728C0.147371 56.4365 1.27119 57.5049 2.62352 57.5049C2.65807 57.5049 2.69293 57.5042 2.72811 57.5027C4.12734 57.4459 5.21535 56.2654 5.15862 54.8665C5.09841 53.4042 5.07083 52.0331 5.07083 50.7471C5.06291 44.3898 5.76078 40.1303 6.6279 37.3439C6.83231 36.6875 7.04561 36.1107 7.26175 35.61L7.26207 77.2486Z" fill="#BB2328"/>
<path d="M16.5605 24.9434C20.4988 24.9434 23.6914 21.7508 23.6914 17.8125C23.6914 13.8742 20.4988 10.6816 16.5605 10.6816C12.6223 10.6816 9.42969 13.8742 9.42969 17.8125C9.42969 21.7508 12.6223 24.9434 16.5605 24.9434Z" fill="#BB2328"/>
</svg>
