<svg width="82" height="76" viewBox="0 0 82 76" fill="none" xmlns="http://www.w3.org/2000/svg">
<path d="M37.8616 41.2373C20.459 41.2373 20.2578 23.8095 20.2578 23.6335V22.3761H29.0597C45.2175 22.3761 45.4061 37.3142 45.4061 37.465V48.7818M49.1784 57.5837V16.089C49.1784 15.9381 49.367 1 65.5248 1H79.3563V2.25742C79.3563 2.43345 79.1552 19.8612 61.7525 19.8612H54.208" stroke="#BB2328" stroke-width="1.5625"/>
<rect y="72" width="20" height="3" rx="1.5" fill="#BB2328"/>
<rect x="26" y="72" width="20" height="3" rx="1.5" fill="#BB2328"/>
<rect y="68" width="20" height="3" rx="1.5" fill="#BB2328"/>
<rect x="26" y="68" width="20" height="3" rx="1.5" fill="#BB2328"/>
<rect x="26" y="60" width="20" height="3" rx="1.5" fill="#BB2328"/>
<rect y="64" width="20" height="3" rx="1.5" fill="#BB2328"/>
<rect x="26" y="64" width="20" height="3" rx="1.5" fill="#BB2328"/>
<rect x="26" y="52" width="20" height="3" rx="1.5" fill="#BB2328"/>
<rect x="26" y="56" width="20" height="3" rx="1.5" fill="#BB2328"/>
<path d="M72.0131 48.9157L80.5132 62.1437C81.1675 63.5476 81.4563 65.0941 81.353 66.6395C81.2497 68.1848 80.7575 69.6791 79.9223 70.9834C79.0791 72.317 77.911 73.4146 76.5277 74.1734C75.1443 74.9321 73.5909 75.3272 72.0131 75.3214H61.3502C59.7689 75.3232 58.2132 74.9224 56.8295 74.1569C55.4458 73.3913 54.2798 72.2862 53.4411 70.9457C52.6124 69.6458 52.1239 68.1583 52.0207 66.6202C51.9174 65.0821 52.2026 63.5427 52.8501 62.1437L61.3502 48.9157H72.0131Z" fill="#BB2328"/>
<path d="M67.6484 41.6404C68.8617 41.3149 69.9027 40.5338 70.5545 39.46C71.3844 38.7432 72.931 39.0073 74.0376 39.3719L71.6862 46.4009H61.476L59.0995 39.2714C59.5092 39.0553 59.9737 38.9651 60.4345 39.0121C60.8953 39.0591 61.332 39.2411 61.6897 39.5354C62.3694 40.2265 63.1653 40.7926 64.0411 41.2078C65.143 41.811 66.4351 41.966 67.6484 41.6404Z" fill="#BB2328"/>
<path d="M68.64 71L66.224 67.352C66.0107 67.032 65.7813 66.7973 65.536 66.648C65.3013 66.4987 64.9867 66.424 64.592 66.424H62.288V64.808H65.696C66.4107 64.808 66.9547 64.6427 67.328 64.312C67.7013 63.9813 67.888 63.4853 67.888 62.824C67.888 62.184 67.7013 61.704 67.328 61.384C66.9547 61.0533 66.4107 60.888 65.696 60.888H64.32V59.88H66.032C66.8533 59.88 67.5467 59.9867 68.112 60.2C68.688 60.4133 69.1253 60.7493 69.424 61.208C69.7227 61.656 69.872 62.2427 69.872 62.968C69.872 63.6613 69.712 64.2587 69.392 64.76C69.0827 65.2613 68.64 65.6507 68.064 65.928C67.4987 66.1947 66.832 66.328 66.064 66.328L66.336 66.152C66.88 66.152 67.3333 66.2533 67.696 66.456C68.0587 66.648 68.3947 66.9787 68.704 67.448L71.104 71H68.64ZM62.288 63.352V62.072H71.312V63.352H62.288ZM62.288 60.888V59.608H71.312V60.888H62.288Z" fill="white"/>
</svg>
