<svg width="30" height="30" viewBox="0 0 30 30" fill="none" xmlns="http://www.w3.org/2000/svg">
<circle cx="15" cy="15" r="15" fill="white"/>
<path d="M14.25 7.5C14.25 7.08579 14.5858 6.75 15 6.75C15.4142 6.75 15.75 7.08579 15.75 7.5L14.25 7.5ZM15.5303 23.5262C15.2374 23.8191 14.7626 23.8191 14.4697 23.5262L9.6967 18.7532C9.40381 18.4604 9.40381 17.9855 9.6967 17.6926C9.9896 17.3997 10.4645 17.3997 10.7574 17.6926L15 21.9352L19.2426 17.6926C19.5355 17.3997 20.0104 17.3997 20.3033 17.6926C20.5962 17.9855 20.5962 18.4604 20.3033 18.7533L15.5303 23.5262ZM15.75 7.5L15.75 22.9959L14.25 22.9959L14.25 7.5L15.75 7.5Z" fill="#F37E20"/>
</svg>
