<svg width="30" height="30" viewBox="0 0 30 30" fill="none" xmlns="http://www.w3.org/2000/svg">
<circle cx="15" cy="15" r="15" transform="rotate(-90 15 15)" fill="white"/>
<path d="M7.5 15.75C7.08579 15.75 6.75 15.4142 6.75 15C6.75 14.5858 7.08579 14.25 7.5 14.25L7.5 15.75ZM23.5262 14.4697C23.8191 14.7626 23.8191 15.2374 23.5262 15.5303L18.7532 20.3033C18.4604 20.5962 17.9855 20.5962 17.6926 20.3033C17.3997 20.0104 17.3997 19.5355 17.6926 19.2426L21.9352 15L17.6926 10.7574C17.3997 10.4645 17.3997 9.98959 17.6926 9.6967C17.9855 9.4038 18.4604 9.4038 18.7533 9.6967L23.5262 14.4697ZM7.5 14.25L22.9959 14.25L22.9959 15.75L7.5 15.75L7.5 14.25Z" fill="#F37E20"/>
</svg>
