<svg width="22" height="16" viewBox="0 0 22 16" fill="none" xmlns="http://www.w3.org/2000/svg">
<path d="M6.66472 4.74219H2.92676V5.49069H6.66472V4.74219Z" fill="#F37E20"/>
<path d="M16.0206 8.40625H2.55664V9.15476H16.0206V8.40625Z" fill="#F37E20"/>
<path d="M4.80215 11.4736H2.55664V12.2221H4.80215V11.4736Z" fill="#F37E20"/>
<path d="M10.4242 11.4736H8.17871V12.2221H10.4242V11.4736Z" fill="#F37E20"/>
<path d="M16.0297 11.4736H13.7842V12.2221H16.0297V11.4736Z" fill="#F37E20"/>
<path d="M16.8251 4.10547C16.5512 4.10547 16.3002 4.18306 16.0811 4.31085C15.8529 4.17849 15.5973 4.10547 15.3281 4.10547C14.502 4.10547 13.8311 4.77638 13.8311 5.60248C13.8311 6.42857 14.502 7.09949 15.3281 7.09949C15.5973 7.09949 15.8529 7.02646 16.0811 6.8941C16.3002 7.0219 16.5512 7.09949 16.8251 7.09949C17.6512 7.09949 18.3221 6.42857 18.3221 5.60248C18.3221 4.77638 17.6512 4.10547 16.8251 4.10547ZM15.5198 6.3236C15.4559 6.34185 15.392 6.35098 15.3281 6.35098C14.9173 6.35098 14.5796 6.01324 14.5796 5.60248C14.5796 5.19171 14.9173 4.85397 15.3281 4.85397C15.392 4.85397 15.4604 4.86767 15.5198 4.88136C15.4011 5.09587 15.3281 5.33776 15.3281 5.60248C15.3281 5.86719 15.4011 6.10909 15.5198 6.3236ZM16.8251 6.35098C16.4143 6.35098 16.0766 6.01324 16.0766 5.60248C16.0766 5.19171 16.4143 4.85397 16.8251 4.85397C17.2358 4.85397 17.5736 5.19171 17.5736 5.60248C17.5736 6.01324 17.2358 6.35098 16.8251 6.35098Z" fill="#F37E20"/>
<rect x="0.682617" y="1.45508" width="20.3173" height="13.5449" rx="2" stroke="#F37E20"/>
</svg>
