<svg width="24" height="24" viewBox="0 0 24 24" fill="none" xmlns="http://www.w3.org/2000/svg">
<mask id="mask0" mask-type="alpha" maskUnits="userSpaceOnUse" x="0" y="0" width="24" height="24">
<rect width="24" height="24" fill="#C4C4C4"/>
</mask>
<g mask="url(#mask0)">
<path d="M11.7824 12.0279C11.9924 12.0405 12.2092 12.0467 12.4326 12.0467C12.6606 12.0467 12.8818 12.0321 13.0963 12.0029C13.3153 11.9694 13.5231 11.9172 13.7197 11.8462C13.9164 11.7752 14.0929 11.677 14.2493 11.5517C14.4057 11.4263 14.5331 11.2697 14.6314 11.0817C14.7342 10.8895 14.799 10.6597 14.8258 10.3923H11.4941C11.5075 10.3631 11.5433 10.3025 11.6014 10.2106C11.664 10.1145 11.7288 10.0142 11.7958 9.9098C11.8762 9.78864 11.9656 9.65704 12.0639 9.515H14.6582C14.6582 9.40638 14.6023 9.29776 14.4906 9.18913C14.3789 9.07633 14.2426 8.97607 14.0817 8.88834C13.9253 8.8006 13.7644 8.72958 13.5991 8.67527C13.4337 8.61678 13.2974 8.58754 13.1901 8.58754H11.4941C11.512 8.5374 11.55 8.4622 11.6081 8.36194C11.6707 8.26167 11.7355 8.16349 11.8025 8.0674C11.8695 7.96714 11.9276 7.87941 11.9768 7.80421C12.0304 7.72901 12.0595 7.69141 12.0639 7.69141H17.648C17.648 7.69141 17.6346 7.71438 17.6078 7.76034C17.5854 7.80629 17.5541 7.86269 17.5139 7.92954C17.4737 7.99221 17.429 8.06323 17.3798 8.1426C17.3307 8.2178 17.2838 8.28883 17.2391 8.35567C17.1988 8.42251 17.1631 8.47891 17.1318 8.52487C17.105 8.56665 17.0916 8.58754 17.0916 8.58754H15.6235C15.7174 8.73794 15.7978 8.89042 15.8648 9.045C15.9364 9.1954 15.981 9.35207 15.9989 9.515H17.648L17.0916 10.3923H16.0592C16.0056 10.7809 15.8872 11.113 15.704 11.3887C15.5252 11.6645 15.304 11.8942 15.0403 12.0781C14.7811 12.2577 14.4906 12.3977 14.1689 12.4979C13.8471 12.594 13.5164 12.6609 13.1767 12.6985C13.1767 12.7026 13.1834 12.7173 13.1968 12.7423C13.2147 12.7632 13.2348 12.7883 13.2572 12.8175C13.2795 12.8509 13.3063 12.8865 13.3376 12.9241L16.314 16.7655V16.9222H15.0403L11.7824 12.8551V12.0279Z" fill="#AD1E23"/>
<path d="M12.2857 4.33129C11.9728 4.23816 11.6518 4.16366 11.3241 4.10908C10.8934 4.03733 10.4511 4 10 4C5.58172 4 2 7.58172 2 12C2 16.4183 5.58172 20 10 20C10.5884 20 11.162 19.9365 11.7143 19.8159" stroke="#AD1E23" stroke-linecap="round" stroke-linejoin="round"/>
<circle cx="14.5713" cy="12" r="8" stroke="#AD1E23" stroke-linecap="round" stroke-linejoin="round"/>
</g>
</svg>
