<svg width="22" height="21" viewBox="0 0 22 21" fill="none" xmlns="http://www.w3.org/2000/svg">
<path d="M7.01692 3.02539C3.15131 3.02539 0 6.21872 0 10.0843C0 13.9499 3.15131 17.1433 7.05894 17.1433C10.9246 17.1433 14.1179 13.992 14.1179 10.0843C14.0759 6.21872 10.8825 3.02539 7.01692 3.02539ZM7.01692 16.3029C3.61351 16.3029 0.84035 13.4878 0.84035 10.0843C0.84035 6.68091 3.61351 3.86574 7.01692 3.86574C10.4203 3.86574 13.2355 6.68091 13.2355 10.0843C13.2355 13.4878 10.4203 16.3029 7.01692 16.3029Z" fill="#F37E20"/>
<path d="M7.01646 5.4624C4.45339 5.4624 2.39453 7.52126 2.39453 10.0843C2.39453 12.6474 4.45339 14.7063 7.01646 14.7063C9.57953 14.7063 11.6384 12.6474 11.6384 10.0843C11.6384 7.52126 9.57953 5.4624 7.01646 5.4624ZM7.01646 13.8659C4.9576 13.8659 3.23488 12.1852 3.23488 10.0843C3.23488 8.02547 4.91558 6.30275 7.01646 6.30275C9.11733 6.30275 10.798 7.98345 10.798 10.0843C10.798 12.1432 9.11733 13.8659 7.01646 13.8659Z" fill="#F37E20"/>
<path d="M22.0002 4.36982C22.0002 1.97482 20.4875 0 18.6388 0C16.748 0 15.2354 1.97482 15.2354 4.36982C15.2354 6.59675 16.5379 8.44552 18.2186 8.69763V10.5464C17.3782 10.7565 16.748 11.4708 16.748 12.3952V18.2776C16.748 19.3281 17.5883 20.1684 18.6388 20.1684C19.6892 20.1684 20.5296 19.3281 20.5296 18.2776V12.3952C20.5296 11.5128 19.8993 10.7565 19.0589 10.5464V8.69763C20.6976 8.44552 22.0002 6.59675 22.0002 4.36982ZM16.0757 4.36982C16.0757 2.43702 17.2102 0.84035 18.6388 0.84035C20.0674 0.84035 21.2018 2.43702 21.2018 4.36982C21.2018 6.30263 20.0674 7.89929 18.6388 7.89929C17.2102 7.89929 16.0757 6.30263 16.0757 4.36982ZM19.6892 12.3952V18.2776C19.6892 18.8659 19.227 19.3281 18.6388 19.3281C18.0505 19.3281 17.5883 18.8659 17.5883 18.2776V12.3952C17.5883 11.8069 18.0505 11.3447 18.6388 11.3447C19.227 11.3447 19.6892 11.8069 19.6892 12.3952Z" fill="#F37E20"/>
</svg>
