<svg width="24" height="16" viewBox="0 0 24 16" fill="none" xmlns="http://www.w3.org/2000/svg">
<path d="M7.38365 4.50781H3.39453V5.30661H7.38365V4.50781Z" fill="#FFFFFF"/>
<path d="M17.3686 8.41797H3V9.21677H17.3686V8.41797Z" fill="#FFFFFF"/>
<path d="M5.3964 11.6914H3V12.4902H5.3964V11.6914Z" fill="#FFFFFF"/>
<path d="M11.3964 11.6914H9V12.4902H11.3964V11.6914Z" fill="#FFFFFF"/>
<path d="M17.3788 11.6914H14.9824V12.4902H17.3788V11.6914Z" fill="#FFFFFF"/>
<path d="M18.2274 3.82812C17.9352 3.82812 17.6673 3.91093 17.4335 4.04731C17.19 3.90606 16.9172 3.82812 16.6298 3.82812C15.7482 3.82812 15.0322 4.54412 15.0322 5.42572C15.0322 6.30732 15.7482 7.02332 16.6298 7.02332C16.9172 7.02332 17.19 6.94539 17.4335 6.80414C17.6673 6.94052 17.9352 7.02332 18.2274 7.02332C19.109 7.02332 19.825 6.30732 19.825 5.42572C19.825 4.54412 19.109 3.82812 18.2274 3.82812ZM16.8344 6.1953C16.7662 6.21478 16.698 6.22452 16.6298 6.22452C16.1915 6.22452 15.831 5.86409 15.831 5.42572C15.831 4.98736 16.1915 4.62692 16.6298 4.62692C16.698 4.62692 16.7711 4.64154 16.8344 4.65615C16.7078 4.88507 16.6298 5.14322 16.6298 5.42572C16.6298 5.70822 16.7078 5.96637 16.8344 6.1953ZM18.2274 6.22452C17.7891 6.22452 17.4286 5.86409 17.4286 5.42572C17.4286 4.98736 17.7891 4.62692 18.2274 4.62692C18.6658 4.62692 19.0262 4.98736 19.0262 5.42572C19.0262 5.86409 18.6658 6.22452 18.2274 6.22452Z" fill="#FFFFFF"/>
<rect x="1" y="1" width="21.6825" height="14.455" rx="2" stroke="#FFFFFF"/>
</svg>
