<svg width="20" height="17" viewBox="0 0 20 17" fill="none" xmlns="http://www.w3.org/2000/svg">
<rect width="13.2277" height="8.50354" rx="1.51056" transform="matrix(-1 0 0 1 18.7285 5.5752)" stroke="#F37E20" stroke-miterlimit="10" stroke-linecap="round" stroke-linejoin="round"/>
<line x1="0.5" y1="-0.5" x2="2.33451" y2="-0.5" transform="matrix(4.37114e-08 1 1 -4.37114e-08 14.9487 14.0781)" stroke="#F37E20" stroke-linecap="round"/>
<line x1="0.5" y1="-0.5" x2="2.33451" y2="-0.5" transform="matrix(4.37114e-08 1 1 -4.37114e-08 10.2246 14.0781)" stroke="#F37E20" stroke-linecap="round"/>
<line x1="0.5" y1="-0.5" x2="2.33451" y2="-0.5" transform="matrix(4.37114e-08 1 1 -4.37114e-08 14.9487 14.0781)" stroke="#F37E20" stroke-linecap="round"/>
<line x1="0.5" y1="-0.5" x2="2.33451" y2="-0.5" transform="matrix(4.37114e-08 1 1 -4.37114e-08 10.2246 14.0781)" stroke="#F37E20" stroke-linecap="round"/>
<path d="M16.8389 16.4404H6.91807" stroke="#F37E20" stroke-miterlimit="10" stroke-linecap="round" stroke-linejoin="round"/>
<path d="M6.14746 3.2876C5.38496 3.47822 3.74558 4.31697 3.28808 6.14697" stroke="#F37E20" stroke-miterlimit="10" stroke-linecap="round" stroke-linejoin="round"/>
<path d="M5.5752 1C4.43144 1.19063 1.91519 2.3725 1.00019 5.575" stroke="#F37E20" stroke-miterlimit="10" stroke-linecap="round" stroke-linejoin="round"/>
</svg>
