<svg width="22" height="22" viewBox="0 0 22 22" fill="none" xmlns="http://www.w3.org/2000/svg">
<path d="M20.0024 11.846C20.1663 12.131 20.3302 12.4184 20.4964 12.7034C20.6033 12.8911 20.7126 13.0764 20.8195 13.264C20.8812 13.3733 20.9501 13.4801 21 13.5965C20.9762 13.5395 20.9525 13.4825 20.9287 13.4255C20.9596 13.5063 20.981 13.587 20.9929 13.6725C20.9834 13.6084 20.9762 13.5467 20.9667 13.4825C20.9762 13.5657 20.9762 13.6488 20.9644 13.7319C20.9739 13.6678 20.981 13.606 20.9905 13.5419C20.9786 13.625 20.9572 13.7034 20.9264 13.7818C20.9501 13.7248 20.9739 13.6678 20.9976 13.6108C20.9905 13.6298 20.9145 13.8056 20.8931 13.8032C20.886 13.8008 21 13.6749 20.9572 13.7224C20.943 13.7367 20.9287 13.7557 20.9145 13.7699C20.8884 13.7961 20.7744 13.8911 20.8789 13.8103C20.981 13.7319 20.8694 13.8127 20.8361 13.8317C20.8242 13.8388 20.8124 13.8459 20.8005 13.8507C20.6746 13.9243 20.5487 13.9956 20.4252 14.0668C20.0713 14.2711 19.715 14.4754 19.3611 14.6797C19.2043 14.7699 19.0594 14.8602 18.9193 14.9813C18.563 15.2877 18.3706 15.7652 18.3635 16.2307C18.3587 16.53 18.3635 16.8316 18.3635 17.1309C18.3635 17.3637 18.3635 17.5989 18.3635 17.8316C18.3635 17.9646 18.3706 18.1 18.354 18.2307C18.3635 18.1665 18.3706 18.1048 18.3801 18.0407C18.3682 18.1238 18.3468 18.2046 18.316 18.2829C18.3397 18.2259 18.3635 18.1689 18.3872 18.1119C18.3635 18.1689 18.3326 18.2212 18.3017 18.2758C18.2471 18.3684 18.4062 18.1618 18.3492 18.2164C18.3278 18.2378 18.3088 18.2616 18.2875 18.2829C18.2684 18.3019 18.2494 18.3162 18.2304 18.3352C18.1449 18.4159 18.3801 18.2402 18.2779 18.2972C18.2233 18.3281 18.1734 18.3589 18.1141 18.3827C18.1711 18.3589 18.2281 18.3352 18.2851 18.3114C18.2067 18.3423 18.1259 18.3637 18.0428 18.3756C18.1069 18.3661 18.1687 18.3589 18.2328 18.3494C17.9312 18.3851 17.6129 18.3589 17.3088 18.3589C16.9573 18.3589 16.6081 18.3566 16.2566 18.3589C15.601 18.3613 15.0547 18.7129 14.7317 19.2734C14.5393 19.6083 14.3469 19.9432 14.1521 20.2782C14.0571 20.442 13.9645 20.6059 13.8695 20.7675C13.8481 20.8031 13.8291 20.8411 13.8053 20.8767C13.7269 21.0002 13.917 20.7532 13.8172 20.8625C13.7887 20.8934 13.7554 20.9219 13.7246 20.9504C13.6794 20.9931 13.8053 20.8791 13.8053 20.8862C13.8053 20.891 13.7483 20.9242 13.7388 20.929C13.6984 20.9527 13.6557 20.9741 13.6129 20.9907C13.6699 20.967 13.7269 20.9432 13.7839 20.9195C13.7056 20.9504 13.6272 20.9717 13.544 20.9836C13.6082 20.9741 13.6699 20.967 13.7341 20.9575C13.6509 20.967 13.5678 20.967 13.4847 20.9599C13.5488 20.9694 13.6106 20.9765 13.6747 20.986C13.5892 20.9741 13.5084 20.9527 13.4277 20.9219C13.4847 20.9456 13.5417 20.9694 13.5987 20.9931C13.3421 20.8839 13.0999 20.7152 12.8576 20.5774C12.5464 20.3993 12.2353 20.2188 11.9241 20.0406C11.7008 19.9124 11.4704 19.8245 11.2139 19.7889C10.8362 19.739 10.4657 19.8221 10.1332 20.0098C9.85051 20.1713 9.57022 20.3328 9.28994 20.4943C9.00016 20.6606 8.71275 20.8601 8.40634 20.9931C8.46335 20.9694 8.52036 20.9456 8.57736 20.9219C8.4966 20.9527 8.41585 20.9741 8.33034 20.986C8.39447 20.9765 8.45622 20.9694 8.52036 20.9599C8.43722 20.9694 8.35409 20.9694 8.27095 20.9575C8.33509 20.967 8.39684 20.9741 8.46098 20.9836C8.37784 20.9717 8.29946 20.9504 8.22107 20.9195C8.27808 20.9432 8.33509 20.967 8.39209 20.9907C8.37309 20.9836 8.19732 20.9076 8.1997 20.8862C8.20207 20.8791 8.32796 20.9931 8.28046 20.9504C8.26383 20.9361 8.2472 20.9219 8.23295 20.9076C8.20682 20.8815 8.11181 20.7675 8.19257 20.872C8.27095 20.9741 8.19019 20.8625 8.17119 20.8292C8.16407 20.8173 8.15694 20.8055 8.15219 20.7936C8.07856 20.6677 8.0073 20.5418 7.93604 20.4183C7.73177 20.0644 7.5275 19.7105 7.32322 19.3566C7.23296 19.1998 7.1427 19.0549 7.02156 18.9148C6.71515 18.5585 6.23773 18.3661 5.77217 18.3589C5.47289 18.3542 5.17123 18.3589 4.87195 18.3589C4.63917 18.3589 4.40402 18.3589 4.17124 18.3589C4.03823 18.3589 3.90284 18.3661 3.7722 18.3494C3.83633 18.3589 3.89809 18.3661 3.96222 18.3756C3.87909 18.3637 3.79833 18.3423 3.71994 18.3114C3.77695 18.3352 3.83396 18.3589 3.89096 18.3827C3.83396 18.3589 3.7817 18.3281 3.72707 18.2972C3.63443 18.2426 3.84108 18.4017 3.78645 18.3447C3.76507 18.3233 3.74132 18.3043 3.71994 18.2829C3.70094 18.2639 3.68669 18.2449 3.66769 18.2259C3.58693 18.1404 3.7627 18.3756 3.70569 18.2734C3.67481 18.2188 3.64394 18.1689 3.62018 18.1095C3.64394 18.1665 3.66769 18.2236 3.69144 18.2806C3.66056 18.2022 3.63919 18.1214 3.62731 18.0383C3.63681 18.1024 3.64394 18.1642 3.65344 18.2283C3.61781 17.9266 3.64394 17.6084 3.64394 17.3043C3.64394 16.9528 3.64631 16.6036 3.64394 16.2521C3.64156 15.5965 3.29002 15.0502 2.72946 14.7272C2.39455 14.5348 2.05963 14.3424 1.72472 14.1476C1.56083 14.0526 1.39693 13.96 1.23542 13.8649C1.19979 13.8436 1.16178 13.8246 1.12615 13.8008C1.00264 13.7224 1.24967 13.9124 1.14041 13.8127C1.10953 13.7842 1.08102 13.7509 1.05252 13.72C1.00977 13.6749 1.12378 13.8008 1.11665 13.8008C1.1119 13.8008 1.07865 13.7438 1.0739 13.7343C1.05015 13.6939 1.02877 13.6512 1.01214 13.6084C1.03589 13.6654 1.05965 13.7224 1.0834 13.7794C1.05252 13.701 1.03114 13.6227 1.01927 13.5395C1.02877 13.6037 1.03589 13.6654 1.04539 13.7296C1.03589 13.6464 1.03589 13.5633 1.04302 13.4801C1.03352 13.5443 1.02639 13.606 1.01689 13.6702C1.02877 13.5847 1.05015 13.5039 1.08102 13.4231C1.05727 13.4801 1.03352 13.5372 1.00977 13.5942C1.11903 13.3376 1.28767 13.0954 1.42544 12.8531C1.60358 12.5419 1.7841 12.2308 1.96225 11.9196C2.09051 11.6963 2.1784 11.4659 2.21403 11.2094C2.26391 10.8317 2.18077 10.4612 1.99313 10.1286C1.83161 9.84599 1.67009 9.56571 1.50857 9.28543C1.3423 8.99564 1.14278 8.70824 1.00977 8.40183C1.03352 8.45883 1.05727 8.51584 1.08102 8.57285C1.05015 8.49209 1.02877 8.41133 1.01689 8.32582C1.02639 8.38995 1.03352 8.45171 1.04302 8.51584C1.03352 8.43271 1.03352 8.34957 1.04539 8.26644C1.03589 8.33057 1.02877 8.39233 1.01927 8.45646C1.03114 8.37332 1.05252 8.29494 1.0834 8.21656C1.05965 8.27356 1.03589 8.33057 1.01214 8.38758C1.01927 8.36857 1.09528 8.1928 1.11665 8.19518C1.12378 8.19755 1.00977 8.32344 1.05252 8.27594C1.06677 8.25931 1.08102 8.24268 1.09528 8.22843C1.1214 8.2023 1.23542 8.10729 1.1309 8.18805C1.02877 8.26644 1.14041 8.18568 1.17366 8.16668C1.18554 8.15955 1.19741 8.15242 1.20929 8.14767C1.33518 8.07404 1.46107 8.00278 1.58458 7.93152C1.93849 7.72725 2.29241 7.52298 2.64632 7.31871C2.80309 7.22845 2.94798 7.13818 3.08812 7.01705C3.44441 6.71064 3.63681 6.23321 3.64394 5.76766C3.64869 5.46837 3.64394 5.16672 3.64394 4.86743C3.64394 4.63466 3.64394 4.3995 3.64394 4.16673C3.64394 4.03371 3.63681 3.89832 3.65344 3.76768C3.64394 3.83182 3.63681 3.89357 3.62731 3.9577C3.63919 3.87457 3.66056 3.79381 3.69144 3.71543C3.66769 3.77243 3.64394 3.82944 3.62018 3.88645C3.64394 3.82944 3.67481 3.77718 3.70569 3.72255C3.76032 3.62992 3.60118 3.83657 3.65819 3.78194C3.67956 3.76056 3.69857 3.7368 3.71994 3.71543C3.73895 3.69643 3.75795 3.68217 3.77695 3.66317C3.86246 3.58241 3.62731 3.75818 3.72945 3.70118C3.78408 3.6703 3.83396 3.63942 3.89334 3.61567C3.83633 3.63942 3.77933 3.66317 3.72232 3.68692C3.8007 3.65605 3.88146 3.63467 3.9646 3.62279C3.90046 3.63229 3.83871 3.63942 3.77458 3.64892C4.07623 3.61329 4.39452 3.63942 4.69855 3.63942C5.05009 3.63942 5.39926 3.64179 5.7508 3.63942C6.40637 3.63704 6.95268 3.2855 7.27572 2.72494C7.46811 2.39003 7.66051 2.05512 7.85528 1.7202C7.95029 1.55631 8.04293 1.39242 8.13794 1.2309C8.15932 1.19527 8.17832 1.15727 8.20207 1.12164C8.28046 0.998123 8.09043 1.24515 8.19019 1.13589C8.2187 1.10501 8.25195 1.07651 8.28283 1.048C8.32796 1.00525 8.20207 1.11926 8.20207 1.11214C8.20207 1.10739 8.25908 1.07413 8.26858 1.06938C8.30896 1.04563 8.35171 1.02425 8.39447 1.00762C8.33746 1.03138 8.28046 1.05513 8.22345 1.07888C8.30183 1.048 8.38022 1.02663 8.46335 1.01475C8.39922 1.02425 8.33746 1.03138 8.27333 1.04088C8.35646 1.03138 8.4396 1.03138 8.52273 1.0385C8.4586 1.029 8.39684 1.02188 8.33271 1.01237C8.41822 1.02425 8.49898 1.04563 8.57974 1.07651C8.52273 1.05275 8.46573 1.029 8.40872 1.00525C8.66525 1.11451 8.90753 1.28316 9.1498 1.42092C9.46096 1.59907 9.77212 1.77959 10.0833 1.95773C10.3066 2.086 10.537 2.17388 10.7935 2.20951C11.1712 2.25939 11.5417 2.17626 11.8742 1.98861C12.1569 1.82709 12.4372 1.66557 12.7175 1.50405C13.0072 1.33779 13.2946 1.13826 13.6011 1.00525C13.544 1.029 13.487 1.05275 13.43 1.07651C13.5108 1.04563 13.5915 1.02425 13.6771 1.01237C13.6129 1.02188 13.5512 1.029 13.487 1.0385C13.5702 1.029 13.6533 1.029 13.7364 1.04088C13.6723 1.03138 13.6106 1.02425 13.5464 1.01475C13.6296 1.02663 13.7079 1.048 13.7863 1.07888C13.7293 1.05513 13.6723 1.03138 13.6153 1.00762C13.6343 1.01475 13.8101 1.09076 13.8077 1.11214C13.8053 1.11926 13.6794 1.00525 13.7269 1.048C13.7436 1.06226 13.7602 1.07651 13.7744 1.09076C13.8006 1.11689 13.8956 1.2309 13.8148 1.12639C13.7364 1.02425 13.8172 1.13589 13.8362 1.16914C13.8433 1.18102 13.8505 1.1929 13.8552 1.20477C13.9288 1.33066 14.0001 1.45655 14.0714 1.58006C14.2756 1.93398 14.4799 2.28789 14.6842 2.64181C14.7744 2.79858 14.8647 2.94347 14.9858 3.08361C15.2922 3.4399 15.7697 3.63229 16.2352 3.63942C16.5345 3.64417 16.8362 3.63942 17.1354 3.63942C17.3682 3.63942 17.6034 3.63942 17.8362 3.63942C17.9692 3.63942 18.1046 3.63229 18.2352 3.64892C18.1711 3.63942 18.1093 3.63229 18.0452 3.62279C18.1283 3.63467 18.2091 3.65605 18.2875 3.68692C18.2304 3.66317 18.1734 3.63942 18.1164 3.61567C18.1734 3.63942 18.2257 3.6703 18.2803 3.70118C18.373 3.75581 18.1663 3.59666 18.2209 3.65367C18.2423 3.67505 18.2661 3.69405 18.2875 3.71543C18.3065 3.73443 18.3207 3.75343 18.3397 3.77243C18.4205 3.85794 18.2447 3.62279 18.3017 3.72493C18.3326 3.77956 18.3635 3.82944 18.3872 3.88882C18.3635 3.83182 18.3397 3.77481 18.316 3.7178C18.3468 3.79619 18.3682 3.87695 18.3801 3.96008C18.3706 3.89595 18.3635 3.83419 18.354 3.77006C18.3896 4.07172 18.3635 4.39 18.3635 4.69404C18.3635 5.04558 18.3611 5.39474 18.3635 5.74628C18.3658 6.40185 18.7174 6.94816 19.2779 7.2712C19.6128 7.4636 19.9478 7.65599 20.2827 7.85077C20.4466 7.94578 20.6105 8.03841 20.772 8.13342C20.8076 8.1548 20.8456 8.1738 20.8812 8.19755C21.0048 8.27594 20.7577 8.08592 20.867 8.18568C20.8979 8.21418 20.9264 8.24744 20.9549 8.27831C20.9976 8.32344 20.8836 8.19755 20.8907 8.19755C20.8955 8.19755 20.9287 8.25456 20.9335 8.26406C20.9572 8.30444 20.9786 8.3472 20.9953 8.38995C20.9715 8.33294 20.9477 8.27594 20.924 8.21893C20.9549 8.29732 20.9762 8.3757 20.9881 8.45883C20.9786 8.3947 20.9715 8.33294 20.962 8.26881C20.9715 8.35195 20.9715 8.43508 20.9644 8.51822C20.9739 8.45408 20.981 8.39233 20.9905 8.32819C20.9786 8.4137 20.9572 8.49446 20.9264 8.57522C20.9501 8.51822 20.9739 8.46121 20.9976 8.4042C20.8717 8.70111 20.677 8.97902 20.5178 9.25692C20.3468 9.55383 20.171 9.85074 20.0048 10.15C19.7079 10.6845 19.7079 11.3092 20.0024 11.846Z" stroke="#FFFFFF"/>
<path d="M6.74219 15.2567L15.2551 6.74371" stroke="#FFFFFF" stroke-linecap="round" stroke-linejoin="round"/>
<circle cx="7.95897" cy="7.95982" r="1.3242" stroke="#FFFFFF"/>
<circle cx="14.039" cy="14.0405" r="1.3242" stroke="#FFFFFF"/>
</svg>
