<svg width="20" height="20" viewBox="0 0 20 20" fill="none" xmlns="http://www.w3.org/2000/svg">
<path d="M10.3662 5.01951e-08C9.8598 -0.000137387 9.41787 0.281974 9.14862 0.670295C8.87928 1.05873 8.74778 1.55074 8.74778 2.07922V2.32915H7.10671C6.85569 2.32918 6.65219 2.53267 6.65216 2.7837V8.37373C6.65219 8.62478 6.85569 8.82828 7.10671 8.82831H13.6257C13.8767 8.82828 14.0802 8.62478 14.0803 8.37373V2.7837C14.0802 2.53267 13.8767 2.32918 13.6257 2.32915H11.9842V2.07922C11.9842 1.55074 11.8527 1.05866 11.5834 0.670295C11.3141 0.282043 10.8725 0.000180437 10.3662 5.01951e-08ZM10.3662 0.909079C10.5582 0.909079 10.6987 0.989225 10.8367 1.18834C10.9748 1.38738 11.0756 1.70747 11.0756 2.07922V2.32915H9.65732V2.07922C9.65732 1.70747 9.75807 1.38741 9.89614 1.18834C10.0342 0.9892 10.1744 0.908967 10.3662 0.909079ZM7.56171 3.23825H8.74823V3.70437C8.7396 4.31905 9.66603 4.31905 9.65732 3.70437V3.23825H11.0756V3.70437C11.0669 4.31905 11.9933 4.31905 11.9846 3.70437V3.23825H13.1716V7.91918H7.56171V3.23825ZM17.4294 9.32368C16.7974 9.32368 16.1654 9.51857 15.6579 9.9083L13.5836 11.501C13.1177 11.1587 12.5131 10.9621 11.8537 10.9621H6.81464C6.79578 10.9595 6.77682 10.9578 6.75782 10.9578C6.65534 10.9578 6.55587 10.9924 6.4755 11.056L2.90261 13.7997C2.83219 13.7635 2.75355 13.7464 2.67445 13.75C2.58155 13.7542 2.49216 13.7867 2.41832 13.8432L0.710227 15.1549C0.261864 15.4994 0 15.9928 0 16.4997C0 17.0065 0.261864 17.4995 0.710227 17.8438L2.84534 19.4836C3.74209 20.1722 5.06473 20.1722 5.96148 19.4836L7.67 18.1719C7.79232 18.0777 7.85852 17.9279 7.8458 17.7741H12.7317C12.9184 17.7441 13.043 17.67 13.1632 17.5615L19.201 12.925C19.7085 12.5352 20 11.9827 20 11.4166C20 10.8504 19.7085 10.2979 19.201 9.9082C18.6935 9.51847 18.0615 9.3236 17.4294 9.3236L17.4294 9.32368ZM17.4294 10.2599C17.8782 10.2599 18.3269 10.383 18.6475 10.6292C18.9681 10.8753 19.0909 11.153 19.0909 11.4167C19.0909 11.6804 18.9681 11.9579 18.6475 12.2041L12.6092 16.8402C12.5992 16.848 12.5894 16.8564 12.5799 16.8651H7.09207C7.03998 16.8651 6.98816 16.8729 6.93891 16.89L3.655 14.3682L6.90696 11.8712H11.8537C12.3456 11.8712 12.7795 12.0265 13.0726 12.2517C13.3658 12.4768 13.513 12.7492 13.513 13.04C13.513 13.6359 12.8756 14.2257 11.8963 14.2257H8.40421C7.78953 14.217 7.78953 15.1435 8.40421 15.1348H11.8963C13.2592 15.1348 14.4221 14.2426 14.4221 13.04C14.4221 12.7303 14.3372 12.4393 14.1926 12.1797L16.2114 10.6292C16.532 10.383 16.9807 10.2599 17.4294 10.2599V10.2599ZM2.69221 14.7797C2.69788 14.7822 2.7038 14.7857 2.70948 14.7883L6.6468 17.8117L5.40789 18.7629C4.88505 19.1644 3.92214 19.1644 3.39928 18.7629L1.26371 17.1232C1.00228 16.9224 0.909051 16.7044 0.909051 16.4999C0.909051 16.2955 1.00228 16.0775 1.26371 15.8767L2.69221 14.7797Z" fill="#F37E20"/>
</svg>
