<svg width="18" height="17" viewBox="0 0 18 17" fill="none" xmlns="http://www.w3.org/2000/svg">
<path d="M17.8861 2.15969L17.8272 2.10079C17.7487 2.02225 17.6113 1.90445 17.3953 1.90445H3.84817L3.78927 1.57068C3.65184 0.66754 2.8665 0 1.94372 0H0.569372C0.235602 0 0 0.255236 0 0.569372C0 0.883509 0.255236 1.13874 0.569372 1.13874H1.96335C2.31676 1.13874 2.61126 1.39398 2.67016 1.72775L3.84817 8.81546C3.84817 8.87436 3.86781 8.93326 3.88744 8.97252L4.08377 10.1898C4.26048 11.2696 5.22252 12.0746 6.30236 12.0746H15.4123C15.7461 12.0746 15.9817 11.8194 15.9817 11.5052C15.9817 11.1911 15.7265 10.9359 15.4123 10.9359H6.28273C5.73299 10.9359 5.28142 10.5432 5.20289 10.0327L5.08508 9.38483H15.6872C15.805 9.40446 15.9032 9.40446 16.0013 9.34556C16.1388 9.26703 16.2566 9.12959 16.2958 8.97252L17.945 2.67016C18.0236 2.49346 17.9843 2.31676 17.8861 2.15969ZM16.6885 3.08246L15.3142 8.26572H4.90838L4.06414 3.08246H16.6885Z" fill="#F37E20"/>
<path d="M6.45924 12.6245C5.39903 12.6245 4.53516 13.4884 4.53516 14.5486C4.53516 15.6088 5.39903 16.4727 6.45924 16.4727C7.51945 16.4727 8.38333 15.6088 8.38333 14.5486C8.38333 13.4884 7.51945 12.6245 6.45924 12.6245ZM6.45924 13.7829C6.89118 13.7829 7.20532 14.1167 7.20532 14.5486C7.20532 14.9609 6.85191 15.3143 6.43961 15.3143C6.0273 15.3143 5.69353 14.9609 5.69353 14.5486C5.69353 14.1363 6.0273 13.7829 6.45924 13.7829Z" fill="#F37E20"/>
<path d="M12.8206 12.6245C11.7604 12.6245 10.8965 13.4884 10.8965 14.5486C10.8965 15.6088 11.7407 16.4923 12.8206 16.4923C13.9004 16.4923 14.7447 15.6284 14.7447 14.5682C14.7447 13.508 13.8808 12.6245 12.8206 12.6245ZM12.8009 13.7829C13.2329 13.7829 13.5666 14.1167 13.5666 14.5486C13.5666 14.9609 13.2132 15.3143 12.8009 15.3143C12.3886 15.3143 12.0352 14.9609 12.0352 14.5486C12.0156 14.1363 12.369 13.7829 12.8009 13.7829Z" fill="#F37E20"/>
</svg>
