<svg width="20" height="20" viewBox="0 0 20 20" fill="none" xmlns="http://www.w3.org/2000/svg">
<path d="M18.1012 10.7667C18.2489 11.0235 18.3965 11.2824 18.5463 11.5392C18.6426 11.7083 18.7411 11.8752 18.8374 12.0442C18.893 12.1427 18.9551 12.239 19 12.3438C18.9786 12.2925 18.9572 12.2411 18.9358 12.1898C18.9636 12.2625 18.9829 12.3353 18.9936 12.4123C18.985 12.3545 18.9786 12.2989 18.97 12.2411C18.9786 12.316 18.9786 12.3909 18.9679 12.4658C18.9765 12.408 18.9829 12.3524 18.9914 12.2946C18.9807 12.3695 18.9615 12.4401 18.9337 12.5108C18.9551 12.4594 18.9765 12.408 18.9979 12.3567C18.9914 12.3738 18.923 12.5322 18.9037 12.53C18.8973 12.5279 19 12.4145 18.9615 12.4573C18.9486 12.4701 18.9358 12.4872 18.923 12.5001C18.8994 12.5236 18.7967 12.6092 18.8909 12.5364C18.9829 12.4658 18.8823 12.5386 18.8523 12.5557C18.8416 12.5621 18.8309 12.5685 18.8202 12.5728C18.7068 12.6392 18.5934 12.7034 18.4821 12.7676C18.1633 12.9516 17.8423 13.1356 17.5234 13.3197C17.3822 13.401 17.2517 13.4823 17.1254 13.5914C16.8044 13.8675 16.6311 14.2976 16.6247 14.717C16.6204 14.9867 16.6247 15.2584 16.6247 15.5281C16.6247 15.7378 16.6247 15.9496 16.6247 16.1594C16.6247 16.2792 16.6311 16.4012 16.6161 16.5189C16.6247 16.4611 16.6311 16.4055 16.6396 16.3477C16.6289 16.4226 16.6097 16.4953 16.5819 16.566C16.6033 16.5146 16.6247 16.4632 16.6461 16.4119C16.6247 16.4632 16.5968 16.5103 16.569 16.5595C16.5198 16.643 16.6632 16.4568 16.6118 16.506C16.5926 16.5253 16.5754 16.5467 16.5562 16.566C16.5391 16.5831 16.5219 16.5959 16.5048 16.613C16.4278 16.6858 16.6396 16.5274 16.5476 16.5788C16.4984 16.6066 16.4535 16.6344 16.4 16.6558C16.4513 16.6344 16.5027 16.613 16.554 16.5916C16.4834 16.6194 16.4107 16.6387 16.3358 16.6494C16.3935 16.6408 16.4492 16.6344 16.507 16.6259C16.2352 16.658 15.9484 16.6344 15.6745 16.6344C15.3578 16.6344 15.0432 16.6323 14.7265 16.6344C14.1359 16.6366 13.6437 16.9533 13.3527 17.4583C13.1794 17.76 13.006 18.0618 12.8305 18.3635C12.7449 18.5112 12.6615 18.6588 12.5759 18.8043C12.5566 18.8364 12.5395 18.8707 12.5181 18.9028C12.4475 19.014 12.6187 18.7915 12.5288 18.8899C12.5031 18.9177 12.4732 18.9434 12.4454 18.9691C12.4047 19.0076 12.5181 18.9049 12.5181 18.9113C12.5181 18.9156 12.4668 18.9456 12.4582 18.9498C12.4218 18.9712 12.3833 18.9905 12.3448 19.0055C12.3961 18.9841 12.4475 18.9627 12.4989 18.9413C12.4282 18.9691 12.3576 18.9884 12.2827 18.9991C12.3405 18.9905 12.3961 18.9841 12.4539 18.9755C12.379 18.9841 12.3041 18.9841 12.2292 18.9777C12.287 18.9862 12.3426 18.9926 12.4004 19.0012C12.3234 18.9905 12.2506 18.9712 12.1779 18.9434C12.2292 18.9648 12.2806 18.9862 12.3319 19.0076C12.1008 18.9092 11.8825 18.7573 11.6643 18.6331C11.3839 18.4726 11.1036 18.31 10.8233 18.1495C10.6221 18.0339 10.4145 17.9548 10.1834 17.9227C9.84318 17.8777 9.50935 17.9526 9.20976 18.1217C8.9551 18.2672 8.70259 18.4127 8.45008 18.5582C8.189 18.708 7.93007 18.8878 7.65402 19.0076C7.70538 18.9862 7.75674 18.9648 7.80809 18.9434C7.73534 18.9712 7.66258 18.9905 7.58554 19.0012C7.64332 18.9926 7.69896 18.9862 7.75674 18.9777C7.68184 18.9862 7.60694 18.9862 7.53204 18.9755C7.58982 18.9841 7.64546 18.9905 7.70324 18.9991C7.62834 18.9884 7.55772 18.9691 7.4871 18.9413C7.53846 18.9627 7.58982 18.9841 7.64118 19.0055C7.62406 18.9991 7.4657 18.9306 7.46784 18.9113C7.46998 18.9049 7.5834 19.0076 7.5406 18.9691C7.52562 18.9563 7.51064 18.9434 7.4978 18.9306C7.47426 18.907 7.38867 18.8043 7.46142 18.8985C7.53204 18.9905 7.45928 18.8899 7.44216 18.86C7.43574 18.8493 7.42932 18.8386 7.42504 18.8279C7.35871 18.7145 7.29451 18.601 7.23031 18.4898C7.04627 18.1709 6.86224 17.8521 6.6782 17.5332C6.59689 17.392 6.51557 17.2614 6.40643 17.1352C6.13038 16.8142 5.70025 16.6408 5.28082 16.6344C5.01119 16.6301 4.73942 16.6344 4.46978 16.6344C4.26007 16.6344 4.04821 16.6344 3.8385 16.6344C3.71866 16.6344 3.59669 16.6408 3.47899 16.6259C3.53677 16.6344 3.59241 16.6408 3.65018 16.6494C3.57529 16.6387 3.50253 16.6194 3.43191 16.5916C3.48327 16.613 3.53463 16.6344 3.58599 16.6558C3.53463 16.6344 3.48755 16.6066 3.43833 16.5788C3.35487 16.5296 3.54105 16.6729 3.49183 16.6216C3.47257 16.6023 3.45117 16.5852 3.43191 16.566C3.41479 16.5488 3.40195 16.5317 3.38483 16.5146C3.31207 16.4376 3.47043 16.6494 3.41907 16.5574C3.39125 16.5082 3.36343 16.4632 3.34203 16.4097C3.36343 16.4611 3.38483 16.5125 3.40623 16.5638C3.37841 16.4932 3.35915 16.4204 3.34845 16.3455C3.35701 16.4033 3.36343 16.459 3.37199 16.5167C3.33989 16.245 3.36343 15.9582 3.36343 15.6843C3.36343 15.3676 3.36557 15.053 3.36343 14.7363C3.36129 14.1457 3.04458 13.6535 2.53955 13.3625C2.23782 13.1891 1.93609 13.0158 1.63436 12.8403C1.4867 12.7547 1.33905 12.6713 1.19353 12.5857C1.16143 12.5664 1.12719 12.5493 1.09509 12.5279C0.983815 12.4573 1.20637 12.6285 1.10793 12.5386C1.08011 12.5129 1.05443 12.4829 1.02875 12.4551C0.990234 12.4145 1.09295 12.5279 1.08653 12.5279C1.08225 12.5279 1.05229 12.4765 1.04801 12.468C1.02661 12.4316 1.00735 12.3931 0.992374 12.3545C1.01377 12.4059 1.03517 12.4573 1.05657 12.5086C1.02875 12.438 1.00949 12.3674 0.998794 12.2925C1.00735 12.3503 1.01377 12.4059 1.02233 12.4637C1.01377 12.3888 1.01377 12.3139 1.02019 12.239C1.01163 12.2968 1.00521 12.3524 0.996654 12.4102C1.00735 12.3331 1.02661 12.2604 1.05443 12.1876C1.03303 12.239 1.01163 12.2903 0.990234 12.3417C1.08867 12.1106 1.24061 11.8923 1.36472 11.674C1.52522 11.3937 1.68786 11.1134 1.84835 10.833C1.96391 10.6319 2.04309 10.4243 2.07519 10.1932C2.12012 9.85295 2.04523 9.51912 1.87617 9.21952C1.73065 8.96487 1.58514 8.71236 1.43962 8.45984C1.28983 8.19877 1.11007 7.93984 0.990234 7.66378C1.01163 7.71514 1.03303 7.7665 1.05443 7.81786C1.02661 7.7451 1.00735 7.67234 0.996654 7.59531C1.00521 7.65308 1.01163 7.70872 1.02019 7.7665C1.01163 7.6916 1.01163 7.61671 1.02233 7.54181C1.01377 7.59959 1.00735 7.65522 0.998794 7.713C1.00949 7.63811 1.02875 7.56749 1.05657 7.49687C1.03517 7.54823 1.01377 7.59959 0.992374 7.65094C0.998794 7.63383 1.06727 7.47547 1.08653 7.47761C1.09295 7.47975 0.990234 7.59317 1.02875 7.55037C1.04159 7.53539 1.05443 7.52041 1.06727 7.50757C1.09081 7.48403 1.19353 7.39843 1.09937 7.47119C1.00735 7.54181 1.10793 7.46905 1.13789 7.45193C1.14859 7.44551 1.15929 7.43909 1.16999 7.43481C1.28341 7.36847 1.39682 7.30427 1.5081 7.24007C1.82695 7.05604 2.1458 6.87201 2.46466 6.68797C2.60589 6.60665 2.73643 6.52533 2.86269 6.4162C3.18368 6.14014 3.35701 5.71002 3.36343 5.29059C3.36771 5.02095 3.36343 4.74918 3.36343 4.47955C3.36343 4.26983 3.36343 4.05798 3.36343 3.84827C3.36343 3.72843 3.35701 3.60645 3.37199 3.48875C3.36343 3.54653 3.35701 3.60217 3.34845 3.65995C3.35915 3.58505 3.37841 3.51229 3.40623 3.44168C3.38483 3.49303 3.36343 3.54439 3.34203 3.59575C3.36343 3.54439 3.39125 3.49731 3.41907 3.4481C3.46829 3.36464 3.32491 3.55081 3.37627 3.50159C3.39553 3.48233 3.41265 3.46094 3.43191 3.44168C3.44903 3.42456 3.46615 3.41172 3.48327 3.3946C3.56031 3.32184 3.34845 3.48019 3.44047 3.42884C3.48969 3.40102 3.53463 3.3732 3.58813 3.3518C3.53677 3.3732 3.48541 3.3946 3.43405 3.416C3.50467 3.38818 3.57743 3.36892 3.65232 3.35822C3.59455 3.36678 3.53891 3.3732 3.48113 3.38176C3.7529 3.34966 4.03965 3.3732 4.31357 3.3732C4.63028 3.3732 4.94485 3.37534 5.26156 3.3732C5.85219 3.37106 6.34437 3.05435 6.63541 2.54932C6.80874 2.24759 6.98208 1.94586 7.15755 1.64412C7.24315 1.49647 7.32661 1.34881 7.41221 1.20329C7.43146 1.1712 7.44858 1.13696 7.46998 1.10486C7.5406 0.99358 7.36941 1.21613 7.45928 1.1177C7.48496 1.08988 7.51492 1.0642 7.54274 1.03852C7.5834 1 7.46998 1.10272 7.46998 1.0963C7.46998 1.09202 7.52134 1.06206 7.5299 1.05778C7.56628 1.03638 7.6048 1.01712 7.64332 1.00214C7.59196 1.02354 7.5406 1.04494 7.48924 1.06634C7.55986 1.03852 7.63048 1.01926 7.70538 1.00856C7.6476 1.01712 7.59196 1.02354 7.53418 1.0321C7.60908 1.02354 7.68398 1.02354 7.75888 1.02996C7.7011 1.0214 7.64546 1.01498 7.58768 1.00642C7.66472 1.01712 7.73748 1.03638 7.81023 1.0642C7.75888 1.0428 7.70752 1.0214 7.65616 1C7.88727 1.09844 8.10555 1.25037 8.32382 1.37449C8.60415 1.53499 8.88449 1.69762 9.16482 1.85812C9.36597 1.97367 9.57355 2.05285 9.80466 2.08495C10.1449 2.12989 10.4787 2.05499 10.7783 1.88594C11.033 1.74042 11.2855 1.5949 11.538 1.44939C11.7991 1.29959 12.058 1.11984 12.3341 1C12.2827 1.0214 12.2314 1.0428 12.18 1.0642C12.2528 1.03638 12.3255 1.01712 12.4026 1.00642C12.3448 1.01498 12.2891 1.0214 12.2314 1.02996C12.3063 1.0214 12.3812 1.0214 12.4561 1.0321C12.3983 1.02354 12.3426 1.01712 12.2849 1.00856C12.3598 1.01926 12.4304 1.03852 12.501 1.06634C12.4496 1.04494 12.3983 1.02354 12.3469 1.00214C12.364 1.00856 12.5224 1.07704 12.5203 1.0963C12.5181 1.10272 12.4047 1 12.4475 1.03852C12.4625 1.05136 12.4775 1.0642 12.4903 1.07704C12.5138 1.10058 12.5994 1.20329 12.5267 1.10914C12.4561 1.01712 12.5288 1.1177 12.5459 1.14766C12.5523 1.15836 12.5588 1.16906 12.563 1.17976C12.6294 1.29317 12.6936 1.40659 12.7578 1.51787C12.9418 1.83672 13.1259 2.15557 13.3099 2.47442C13.3912 2.61566 13.4725 2.74619 13.5817 2.87245C13.8577 3.19344 14.2878 3.36678 14.7073 3.3732C14.9769 3.37748 15.2487 3.3732 15.5183 3.3732C15.728 3.3732 15.9399 3.3732 16.1496 3.3732C16.2694 3.3732 16.3914 3.36678 16.5091 3.38176C16.4513 3.3732 16.3957 3.36678 16.3379 3.35822C16.4128 3.36892 16.4856 3.38818 16.5562 3.416C16.5048 3.3946 16.4535 3.3732 16.4021 3.3518C16.4535 3.3732 16.5005 3.40102 16.5498 3.42884C16.6332 3.47805 16.447 3.33468 16.4963 3.38604C16.5155 3.4053 16.5369 3.42242 16.5562 3.44168C16.5733 3.4588 16.5861 3.47591 16.6033 3.49303C16.676 3.57007 16.5177 3.35822 16.569 3.45024C16.5968 3.49945 16.6247 3.54439 16.6461 3.59789C16.6247 3.54653 16.6033 3.49517 16.5819 3.44382C16.6097 3.51443 16.6289 3.58719 16.6396 3.66209C16.6311 3.60431 16.6247 3.54867 16.6161 3.49089C16.6482 3.76267 16.6247 4.04942 16.6247 4.32333C16.6247 4.64004 16.6225 4.95461 16.6247 5.27133C16.6268 5.86195 16.9435 6.35414 17.4485 6.64517C17.7503 6.81851 18.052 6.99184 18.3537 7.16732C18.5014 7.25292 18.649 7.33637 18.7946 7.42197C18.8267 7.44123 18.8609 7.45835 18.893 7.47975C19.0043 7.55037 18.7817 7.37917 18.8802 7.46905C18.908 7.49473 18.9337 7.52469 18.9593 7.55251C18.9979 7.59317 18.8951 7.47975 18.9016 7.47975C18.9058 7.47975 18.9358 7.53111 18.9401 7.53967C18.9615 7.57605 18.9807 7.61457 18.9957 7.65308C18.9743 7.60173 18.9529 7.55037 18.9315 7.49901C18.9593 7.56963 18.9786 7.64025 18.9893 7.71514C18.9807 7.65736 18.9743 7.60173 18.9658 7.54395C18.9743 7.61885 18.9743 7.69374 18.9679 7.76864C18.9765 7.71086 18.9829 7.65522 18.9914 7.59745C18.9807 7.67448 18.9615 7.74724 18.9337 7.82C18.9551 7.76864 18.9765 7.71728 18.9979 7.66592C18.8844 7.93342 18.709 8.18379 18.5656 8.43416C18.4115 8.70166 18.2532 8.96915 18.1034 9.23878C17.8359 9.72027 17.8359 10.2831 18.1012 10.7667Z" stroke="#F37E20"/>
<path d="M6.15527 13.839L13.8248 6.16943" stroke="#F37E20" stroke-linecap="round" stroke-linejoin="round"/>
<circle cx="7.25041" cy="7.26555" r="1.14348" stroke="#F37E20"/>
<circle cx="12.7284" cy="12.7436" r="1.14348" stroke="#F37E20"/>
</svg>
