<svg width="25" height="14" viewBox="0 0 25 14" fill="none" xmlns="http://www.w3.org/2000/svg">
<path d="M20.8492 10.8189H22.764C23.3818 10.564 24.5029 9.51863 24.0446 7.37695C23.9772 6.84578 23.2897 5.66234 21.079 5.17791L16.7378 4.4449C16.0638 3.68001 14.4394 1.35944 13.3341 1.00249H5.75153C4.67313 0.938749 2.34108 2.09925 1.64011 4.4449C1.15708 6.27212 0.480825 10.1051 1.64011 10.8189H3.45551M8.01572 10.8189H16.1649" stroke="#F37E20"/>
<path d="M15.3822 4.85569H9.06805M2.75391 4.85569H9.06805M9.06805 4.85569V2.75098" stroke="#F37E20" stroke-linecap="round"/>
<circle r="2.31794" transform="matrix(-1 0 0 1 18.6449 10.6822)" stroke="#F37E20"/>
<circle r="2.31794" transform="matrix(-1 0 0 1 5.84759 10.6822)" stroke="#F37E20"/>
</svg>
