<svg width="25" height="14" viewBox="0 0 25 14" fill="none" xmlns="http://www.w3.org/2000/svg">
<path d="M20.6974 10.8189H22.6121C23.23 10.564 24.3511 9.51863 23.8928 7.37695C23.8253 6.84578 23.1379 5.66234 20.9271 5.17791L16.5859 4.4449C15.9119 3.68001 14.2876 1.35944 13.1822 1.00249H5.59968C4.52127 0.938749 2.18922 2.09925 1.48826 4.4449C1.00522 6.27212 0.328969 10.1051 1.48826 10.8189H3.30365M7.86386 10.8189H16.013" stroke="#FFFFFF"/>
<path d="M15.2308 4.85557H8.91668M2.60254 4.85557H8.91668M8.91668 4.85557V2.75085" stroke="#FFFFFF" stroke-linecap="round"/>
<circle r="2.31794" transform="matrix(-1 0 0 1 18.4936 10.6821)" stroke="#FFFFFF"/>
<circle r="2.31794" transform="matrix(-1 0 0 1 5.69573 10.6821)" stroke="#FFFFFF"/>
</svg>
