<svg width="58" height="58" viewBox="0 0 58 58" fill="none" xmlns="http://www.w3.org/2000/svg">
<path d="M56.6473 6.55043V6.55001C56.6473 3.83021 54.4465 1.61072 51.7365 1.61072H6.22213C3.50723 1.61072 1.28284 3.83511 1.28284 6.55001V40.6858C1.28284 43.4007 3.50723 45.6251 6.22213 45.6251H45.2188C45.9481 45.6251 46.6476 45.9148 47.1633 46.4305L54.5392 53.8064C55.3269 54.5941 56.6737 54.0358 56.6731 52.9219L56.6473 6.55043Z" stroke="#3D3D3D" stroke-width="1.5"/>
<path d="M26.7274 28.8842H30.5106V32.5531H26.7274V28.8842ZM22.0936 19.7435C22.1951 17.3314 23.0373 15.6218 24.6199 14.6146C25.6186 13.9714 26.8459 13.6498 28.3016 13.6498C30.2144 13.6498 31.8013 14.1068 33.0623 15.0209C34.3319 15.9349 34.9666 17.2891 34.9666 19.0834C34.9666 20.1836 34.6916 21.1104 34.1414 21.8636C33.8198 22.3207 33.202 22.9047 32.2879 23.6156L31.3866 24.3138C30.8957 24.6947 30.5698 25.139 30.409 25.6469C30.3074 25.9685 30.2524 26.4678 30.244 27.1449H26.8162C26.867 25.7146 27.0024 24.7286 27.2225 24.1869C27.4425 23.6368 28.0096 23.0062 28.9237 22.2953L29.8504 21.5717C30.1551 21.3431 30.4005 21.0935 30.5867 20.8226C30.9253 20.3571 31.0946 19.8451 31.0946 19.2865C31.0946 18.6433 30.9041 18.0593 30.5233 17.5345C30.1509 17.0013 29.4653 16.7347 28.4666 16.7347C27.4849 16.7347 26.7866 17.0606 26.3719 17.7123C25.9657 18.364 25.7625 19.0411 25.7625 19.7435H22.0936Z" fill="#3D3D3D"/>
</svg>
