<svg width="39" height="39" viewBox="0 0 39 39" fill="none" xmlns="http://www.w3.org/2000/svg">
<circle cx="19.541" cy="19.5576" r="19" fill="#FFEBDC"/>
<path d="M14.041 11.5576C14.041 11.2815 14.2649 11.0576 14.541 11.0576H23.1268C23.2594 11.0576 23.3866 11.1103 23.4804 11.2041L26.8946 14.6183C26.9883 14.712 27.041 14.8392 27.041 14.9718V26.5576C27.041 26.8338 26.8172 27.0576 26.541 27.0576H14.541C14.2649 27.0576 14.041 26.8338 14.041 26.5576V11.5576Z" stroke="#AD1E23"/>
<path d="M23.041 11.0576V14.0576C23.041 14.6099 23.4887 15.0576 24.041 15.0576H27.041" stroke="#AD1E23"/>
<path d="M16.541 14.5576H20.541" stroke="#AD1E23" stroke-linecap="round" stroke-linejoin="round"/>
<path d="M16.541 17.5576H24.541" stroke="#AD1E23" stroke-linecap="round" stroke-linejoin="round"/>
<path d="M16.541 20.5576H24.541" stroke="#AD1E23" stroke-linecap="round" stroke-linejoin="round"/>
<path d="M16.541 23.5576H24.541" stroke="#AD1E23" stroke-linecap="round" stroke-linejoin="round"/>
</svg>
