<svg width="39" height="39" viewBox="0 0 39 39" fill="none" xmlns="http://www.w3.org/2000/svg">
<circle cx="19.541" cy="19.5576" r="19" fill="#FFEBDC"/>
<mask id="mask0" mask-type="alpha" maskUnits="userSpaceOnUse" x="7" y="7" width="25" height="25">
<rect x="7.54102" y="7.55762" width="24" height="24" fill="#C4C4C4"/>
</mask>
<g mask="url(#mask0)">
<path d="M27.6448 20.3201C27.7923 20.5767 27.9399 20.8356 28.0897 21.0923C28.1859 21.2612 28.2843 21.4281 28.3806 21.5971C28.4362 21.6955 28.4982 21.7917 28.5432 21.8965C28.5218 21.8452 28.5004 21.7939 28.479 21.7425C28.5068 21.8153 28.526 21.888 28.5367 21.965C28.5282 21.9072 28.5218 21.8516 28.5132 21.7939C28.5218 21.8687 28.5218 21.9436 28.5111 22.0185C28.5196 21.9607 28.526 21.9051 28.5346 21.8473C28.5239 21.9222 28.5047 21.9928 28.4768 22.0634C28.4982 22.012 28.5196 21.9607 28.541 21.9094C28.5346 21.9265 28.4661 22.0848 28.4469 22.0826C28.4405 22.0805 28.5432 21.9671 28.5047 22.0099C28.4918 22.0227 28.479 22.0398 28.4661 22.0527C28.4426 22.0762 28.3399 22.1618 28.4341 22.089C28.526 22.0185 28.4255 22.0912 28.3956 22.1083C28.3849 22.1147 28.3742 22.1211 28.3635 22.1254C28.2501 22.1917 28.1367 22.2559 28.0255 22.3201C27.7068 22.504 27.3859 22.688 27.0672 22.8719C26.926 22.9532 26.7956 23.0345 26.6694 23.1436C26.3485 23.4195 26.1752 23.8495 26.1688 24.2687C26.1645 24.5382 26.1688 24.8099 26.1688 25.0794C26.1688 25.289 26.1688 25.5008 26.1688 25.7104C26.1688 25.8302 26.1752 25.9522 26.1603 26.0698C26.1688 26.012 26.1752 25.9564 26.1838 25.8987C26.1731 25.9735 26.1538 26.0463 26.126 26.1169C26.1474 26.0655 26.1688 26.0142 26.1902 25.9628C26.1688 26.0142 26.141 26.0612 26.1132 26.1104C26.064 26.1939 26.2073 26.0078 26.156 26.057C26.1367 26.0762 26.1196 26.0976 26.1004 26.1169C26.0833 26.134 26.0661 26.1468 26.049 26.1639C25.972 26.2366 26.1838 26.0784 26.0918 26.1297C26.0426 26.1575 25.9977 26.1853 25.9442 26.2067C25.9956 26.1853 26.0469 26.1639 26.0982 26.1425C26.0276 26.1703 25.9549 26.1896 25.8801 26.2003C25.9378 26.1917 25.9934 26.1853 26.0512 26.1767C25.7795 26.2088 25.4929 26.1853 25.2191 26.1853C24.9025 26.1853 24.5881 26.1832 24.2715 26.1853C23.6811 26.1874 23.1891 26.504 22.8982 27.0088C22.725 27.3104 22.5517 27.612 22.3763 27.9136C22.2907 28.0612 22.2073 28.2088 22.1218 28.3543C22.1025 28.3864 22.0854 28.4206 22.064 28.4527C21.9934 28.5639 22.1645 28.3415 22.0747 28.4399C22.049 28.4677 22.0191 28.4933 21.9913 28.519C21.9506 28.5575 22.064 28.4548 22.064 28.4612C22.064 28.4655 22.0127 28.4955 22.0041 28.4997C21.9678 28.5211 21.9292 28.5404 21.8907 28.5554C21.9421 28.534 21.9934 28.5126 22.0448 28.4912C21.9742 28.519 21.9036 28.5382 21.8287 28.5489C21.8865 28.5404 21.9421 28.534 21.9998 28.5254C21.925 28.534 21.8501 28.534 21.7752 28.5276C21.833 28.5361 21.8886 28.5425 21.9464 28.5511C21.8694 28.5404 21.7966 28.5211 21.7239 28.4933C21.7752 28.5147 21.8266 28.5361 21.8779 28.5575C21.6469 28.4591 21.4287 28.3072 21.2105 28.1832C20.9303 28.0227 20.6501 27.8602 20.3699 27.6997C20.1688 27.5842 19.9613 27.5051 19.7303 27.473C19.3902 27.4281 19.0565 27.503 18.7571 27.6719C18.5025 27.8174 18.2501 27.9628 17.9977 28.1083C17.7367 28.258 17.4779 28.4377 17.202 28.5575C17.2533 28.5361 17.3047 28.5147 17.356 28.4933C17.2833 28.5211 17.2105 28.5404 17.1335 28.5511C17.1913 28.5425 17.2469 28.5361 17.3047 28.5276C17.2298 28.5361 17.1549 28.5361 17.0801 28.5254C17.1378 28.534 17.1934 28.5404 17.2512 28.5489C17.1763 28.5382 17.1057 28.519 17.0351 28.4912C17.0865 28.5126 17.1378 28.534 17.1891 28.5554C17.172 28.5489 17.0137 28.4805 17.0159 28.4612C17.018 28.4548 17.1314 28.5575 17.0886 28.519C17.0736 28.5062 17.0587 28.4933 17.0458 28.4805C17.0223 28.457 16.9367 28.3543 17.0095 28.4484C17.0801 28.5404 17.0073 28.4399 16.9902 28.4099C16.9838 28.3992 16.9774 28.3885 16.9731 28.3778C16.9068 28.2644 16.8426 28.1511 16.7784 28.0399C16.5945 27.7211 16.4105 27.4024 16.2266 27.0837C16.1453 26.9425 16.064 26.812 15.9549 26.6858C15.679 26.365 15.249 26.1917 14.8298 26.1853C14.5603 26.181 14.2886 26.1853 14.0191 26.1853C13.8095 26.1853 13.5977 26.1853 13.3881 26.1853C13.2683 26.1853 13.1464 26.1917 13.0287 26.1767C13.0865 26.1853 13.1421 26.1917 13.1998 26.2003C13.125 26.1896 13.0522 26.1703 12.9817 26.1425C13.033 26.1639 13.0843 26.1853 13.1357 26.2067C13.0843 26.1853 13.0373 26.1575 12.9881 26.1297C12.9047 26.0805 13.0907 26.2238 13.0416 26.1725C13.0223 26.1532 13.0009 26.1361 12.9817 26.1169C12.9645 26.0997 12.9517 26.0826 12.9346 26.0655C12.8619 25.9885 13.0202 26.2003 12.9688 26.1083C12.941 26.0591 12.9132 26.0142 12.8918 25.9607C12.9132 26.012 12.9346 26.0634 12.956 26.1147C12.9282 26.0441 12.9089 25.9714 12.8982 25.8965C12.9068 25.9543 12.9132 26.0099 12.9218 26.0677C12.8897 25.796 12.9132 25.5094 12.9132 25.2356C12.9132 24.919 12.9153 24.6046 12.9132 24.288C12.9111 23.6976 12.5945 23.2056 12.0897 22.9147C11.7881 22.7415 11.4865 22.5682 11.1849 22.3928C11.0373 22.3072 10.8897 22.2238 10.7442 22.1382C10.7121 22.119 10.6779 22.1019 10.6458 22.0805C10.5346 22.0099 10.7571 22.181 10.6587 22.0912C10.6309 22.0655 10.6052 22.0356 10.5795 22.0078C10.541 21.9671 10.6437 22.0805 10.6373 22.0805C10.633 22.0805 10.603 22.0292 10.5988 22.0206C10.5774 21.9842 10.5581 21.9457 10.5432 21.9072C10.5645 21.9586 10.5859 22.0099 10.6073 22.0612C10.5795 21.9907 10.5603 21.9201 10.5496 21.8452C10.5581 21.903 10.5645 21.9586 10.5731 22.0163C10.5645 21.9415 10.5645 21.8666 10.571 21.7917C10.5624 21.8495 10.556 21.9051 10.5474 21.9628C10.5581 21.8858 10.5774 21.8131 10.6052 21.7404C10.5838 21.7917 10.5624 21.8431 10.541 21.8944C10.6394 21.6634 10.7913 21.4452 10.9153 21.227C11.0758 20.9468 11.2383 20.6666 11.3988 20.3864C11.5143 20.1853 11.5934 19.9778 11.6255 19.7468C11.6704 19.4067 11.5956 19.073 11.4266 18.7735C11.2811 18.519 11.1357 18.2666 10.9902 18.0142C10.8405 17.7532 10.6608 17.4944 10.541 17.2185C10.5624 17.2698 10.5838 17.3211 10.6052 17.3725C10.5774 17.2997 10.5581 17.227 10.5474 17.15C10.556 17.2078 10.5624 17.2634 10.571 17.3211C10.5624 17.2463 10.5624 17.1714 10.5731 17.0965C10.5645 17.1543 10.5581 17.2099 10.5496 17.2677C10.5603 17.1928 10.5795 17.1222 10.6073 17.0516C10.5859 17.1029 10.5645 17.1543 10.5432 17.2056C10.5496 17.1885 10.618 17.0302 10.6373 17.0324C10.6437 17.0345 10.541 17.1479 10.5795 17.1051C10.5924 17.0901 10.6052 17.0751 10.618 17.0623C10.6416 17.0388 10.7442 16.9532 10.6501 17.0259C10.5581 17.0965 10.6587 17.0238 10.6886 17.0067C10.6993 17.0003 10.71 16.9939 10.7207 16.9896C10.8341 16.9233 10.9474 16.8591 11.0587 16.7949C11.3774 16.611 11.6961 16.427 12.0148 16.2431C12.156 16.1618 12.2865 16.0805 12.4127 15.9714C12.7335 15.6955 12.9068 15.2655 12.9132 14.8463C12.9175 14.5767 12.9132 14.3051 12.9132 14.0356C12.9132 13.8259 12.9132 13.6142 12.9132 13.4046C12.9132 13.2848 12.9068 13.1628 12.9218 13.0452C12.9132 13.1029 12.9068 13.1586 12.8982 13.2163C12.9089 13.1415 12.9282 13.0687 12.956 12.9981C12.9346 13.0495 12.9132 13.1008 12.8918 13.1521C12.9132 13.1008 12.941 13.0538 12.9688 13.0046C13.018 12.9211 12.8747 13.1072 12.926 13.058C12.9453 13.0388 12.9624 13.0174 12.9817 12.9981C12.9988 12.981 13.0159 12.9682 13.033 12.9511C13.11 12.8784 12.8982 13.0366 12.9902 12.9853C13.0394 12.9575 13.0843 12.9297 13.1378 12.9083C13.0865 12.9297 13.0351 12.9511 12.9838 12.9725C13.0544 12.9447 13.1271 12.9254 13.202 12.9147C13.1442 12.9233 13.0886 12.9297 13.0309 12.9382C13.3025 12.9062 13.5891 12.9297 13.8629 12.9297C14.1795 12.9297 14.494 12.9318 14.8105 12.9297C15.4009 12.9275 15.8929 12.611 16.1838 12.1062C16.3571 11.8046 16.5303 11.5029 16.7057 11.2013C16.7913 11.0538 16.8747 10.9062 16.9603 10.7607C16.9795 10.7286 16.9966 10.6944 17.018 10.6623C17.0886 10.5511 16.9175 10.7735 17.0073 10.6751C17.033 10.6473 17.0629 10.6217 17.0907 10.596C17.1314 10.5575 17.018 10.6602 17.018 10.6538C17.018 10.6495 17.0694 10.6195 17.0779 10.6152C17.1143 10.5939 17.1528 10.5746 17.1913 10.5596C17.1399 10.581 17.0886 10.6024 17.0373 10.6238C17.1079 10.596 17.1784 10.5767 17.2533 10.5661C17.1956 10.5746 17.1399 10.581 17.0822 10.5896C17.1571 10.581 17.2319 10.581 17.3068 10.5874C17.249 10.5789 17.1934 10.5725 17.1357 10.5639C17.2127 10.5746 17.2854 10.5939 17.3581 10.6217C17.3068 10.6003 17.2555 10.5789 17.2041 10.5575C17.4351 10.6559 17.6533 10.8078 17.8715 10.9318C18.1517 11.0923 18.4319 11.2548 18.7121 11.4152C18.9132 11.5308 19.1207 11.6099 19.3517 11.642C19.6918 11.6869 20.0255 11.612 20.325 11.4431C20.5795 11.2976 20.8319 11.1521 21.0843 11.0067C21.3453 10.857 21.6041 10.6773 21.8801 10.5575C21.8287 10.5789 21.7774 10.6003 21.726 10.6217C21.7988 10.5939 21.8715 10.5746 21.9485 10.5639C21.8907 10.5725 21.8351 10.5789 21.7774 10.5874C21.8522 10.5789 21.9271 10.5789 22.002 10.5896C21.9442 10.581 21.8886 10.5746 21.8309 10.5661C21.9057 10.5767 21.9763 10.596 22.0469 10.6238C21.9956 10.6024 21.9442 10.581 21.8929 10.5596C21.91 10.5661 22.0683 10.6345 22.0661 10.6538C22.064 10.6602 21.9506 10.5575 21.9934 10.596C22.0084 10.6088 22.0234 10.6217 22.0362 10.6345C22.0597 10.658 22.1453 10.7607 22.0726 10.6666C22.002 10.5746 22.0747 10.6751 22.0918 10.7051C22.0982 10.7158 22.1047 10.7265 22.1089 10.7372C22.1752 10.8505 22.2394 10.9639 22.3036 11.0751C22.4875 11.3939 22.6715 11.7126 22.8555 12.0313C22.9367 12.1725 23.018 12.303 23.1271 12.4292C23.403 12.75 23.833 12.9233 24.2522 12.9297C24.5218 12.934 24.7934 12.9297 25.0629 12.9297C25.2726 12.9297 25.4843 12.9297 25.694 12.9297C25.8137 12.9297 25.9357 12.9233 26.0533 12.9382C25.9956 12.9297 25.9399 12.9233 25.8822 12.9147C25.9571 12.9254 26.0298 12.9447 26.1004 12.9725C26.049 12.9511 25.9977 12.9297 25.9464 12.9083C25.9977 12.9297 26.0448 12.9575 26.094 12.9853C26.1774 13.0345 25.9913 12.8912 26.0405 12.9425C26.0597 12.9618 26.0811 12.9789 26.1004 12.9981C26.1175 13.0152 26.1303 13.0324 26.1474 13.0495C26.2202 13.1265 26.0619 12.9147 26.1132 13.0067C26.141 13.0559 26.1688 13.1008 26.1902 13.1543C26.1688 13.1029 26.1474 13.0516 26.126 13.0003C26.1538 13.0709 26.1731 13.1436 26.1838 13.2185C26.1752 13.1607 26.1688 13.1051 26.1603 13.0473C26.1924 13.319 26.1688 13.6056 26.1688 13.8794C26.1688 14.196 26.1667 14.5104 26.1688 14.827C26.171 15.4174 26.4875 15.9094 26.9924 16.2003C27.294 16.3735 27.5956 16.5468 27.8972 16.7222C28.0448 16.8078 28.1924 16.8912 28.3378 16.9767C28.3699 16.996 28.4041 17.0131 28.4362 17.0345C28.5474 17.1051 28.325 16.934 28.4234 17.0238C28.4512 17.0495 28.4768 17.0794 28.5025 17.1072C28.541 17.1479 28.4383 17.0345 28.4448 17.0345C28.449 17.0345 28.479 17.0858 28.4833 17.0944C28.5047 17.1308 28.5239 17.1693 28.5389 17.2078C28.5175 17.1564 28.4961 17.1051 28.4747 17.0538C28.5025 17.1243 28.5218 17.1949 28.5325 17.2698C28.5239 17.212 28.5175 17.1564 28.5089 17.0987C28.5175 17.1735 28.5175 17.2484 28.5111 17.3233C28.5196 17.2655 28.526 17.2099 28.5346 17.1521C28.5239 17.2292 28.5047 17.3019 28.4768 17.3746C28.4982 17.3233 28.5196 17.2719 28.541 17.2206C28.4276 17.488 28.2522 17.7382 28.1089 17.9885C27.9549 18.2559 27.7966 18.5233 27.6469 18.7928C27.3795 19.2741 27.3795 19.8366 27.6448 20.3201Z" stroke="#AD1E23" stroke-width="0.814453"/>
<path d="M15.7031 23.3916L23.3694 15.7253" stroke="#AD1E23" stroke-width="0.814453" stroke-linecap="round" stroke-linejoin="round"/>
<path d="M18.0346 16.8202C18.0346 17.5026 17.4814 18.0558 16.799 18.0558C16.1167 18.0558 15.5635 17.5026 15.5635 16.8202C15.5635 16.1378 16.1167 15.5847 16.799 15.5847C17.4814 15.5847 18.0346 16.1378 18.0346 16.8202Z" stroke="#AD1E23" stroke-width="0.814453"/>
<path d="M23.5111 22.2963C23.5111 22.9787 22.958 23.5319 22.2756 23.5319C21.5932 23.5319 21.04 22.9787 21.04 22.2963C21.04 21.614 21.5932 21.0608 22.2756 21.0608C22.958 21.0608 23.5111 21.614 23.5111 22.2963Z" stroke="#AD1E23" stroke-width="0.814453"/>
</g>
</svg>
