<svg width="39" height="39" viewBox="0 0 39 39" fill="none" xmlns="http://www.w3.org/2000/svg">
<circle cx="19.541" cy="19.5576" r="19" fill="#FFEBDC"/>
<path d="M20.0756 8.55762C19.4682 8.55762 18.9714 9.06162 18.9714 9.68322V10.0576C18.9714 10.0984 18.9785 10.1392 18.9903 10.1752L19.1974 10.8064H18.2652C18.1263 10.8064 17.9991 10.8856 17.9356 11.0128L17.2999 12.3064H16.7938H16.3959V11.932C16.3959 11.7256 16.2311 11.5576 16.0287 11.5576H10.9083C10.7058 11.5576 10.541 11.7256 10.541 11.932C10.541 12.1384 10.7058 12.3064 10.9083 12.3064H12.7163V18.3064H10.9083C10.7058 18.3064 10.541 18.4768 10.541 18.6832C10.541 18.8896 10.7058 19.0576 10.9083 19.0576H16.0287C16.2311 19.0576 16.3959 18.8896 16.3959 18.6832V18.3088H17.3753L18.0039 18.9496C18.0674 19.0144 18.1498 19.048 18.2369 19.0552L14.4843 24.1576C13.7263 25.1872 13.6062 26.5408 14.1712 27.6928C14.7362 28.8448 15.8709 29.5576 17.1328 29.5576H25.2266C26.4884 29.5576 27.6231 28.8424 28.1882 27.6928C28.7532 26.5432 28.6331 25.1872 27.875 24.1576L23.9765 18.8608C24.266 18.6592 24.4591 18.3184 24.4591 17.932C24.4591 17.6416 24.3508 17.3824 24.1742 17.1832C24.3508 16.984 24.4591 16.7224 24.4591 16.4344C24.4591 16.1464 24.3508 15.8848 24.1742 15.6856C24.3508 15.4864 24.4591 15.2248 24.4591 14.9368C24.4591 14.6488 24.3508 14.3872 24.1742 14.188C24.3508 13.9888 24.4591 13.7272 24.4591 13.4392C24.4591 12.8632 24.033 12.3952 23.4868 12.328L23.7387 11.296L24.1012 10.1848C24.113 10.1464 24.1224 10.1056 24.1224 10.0672V9.68322C24.1201 9.06162 23.6257 8.55762 23.0183 8.55762C22.7335 8.55762 22.4792 8.67042 22.2838 8.85042C22.086 8.67042 21.8294 8.55762 21.5469 8.55762C21.2644 8.55762 21.0078 8.67042 20.8124 8.85042C20.6147 8.67042 20.3581 8.55762 20.0756 8.55762ZM20.0756 9.30642C20.278 9.30642 20.4428 9.47442 20.4428 9.68082V10.0552C20.4428 10.2616 20.6076 10.4296 20.8101 10.4296C21.0125 10.4296 21.1773 10.2616 21.1773 10.0552V9.68322C21.1773 9.47682 21.3421 9.30882 21.5446 9.30882C21.747 9.30882 21.9118 9.47682 21.9118 9.68322V10.0576C21.9118 10.264 22.0766 10.432 22.2791 10.432C22.4816 10.432 22.6463 10.264 22.6463 10.0576V9.68322C22.6463 9.47682 22.8111 9.30882 23.0136 9.30882C23.2161 9.30882 23.3809 9.47682 23.3809 9.68322V9.99762L23.0324 11.0632C23.0301 11.068 23.0324 11.0728 23.0301 11.0776C23.0277 11.0824 23.0254 11.0872 23.0254 11.092L22.7264 12.3064H20.3604L20.0638 11.0896C20.0614 11.0848 20.0591 11.08 20.0567 11.0752C20.0544 11.0704 20.0567 11.0656 20.0544 11.0632L19.7059 9.99762V9.68322H19.7083C19.7059 9.47682 19.8707 9.30642 20.0756 9.30642ZM18.4935 11.5576H19.4211L19.7201 12.7744C19.7224 12.784 19.7295 12.7936 19.7318 12.8032C19.7389 12.8224 19.7436 12.8368 19.753 12.8536C19.7648 12.8776 19.7813 12.8992 19.7978 12.9184C19.8095 12.9328 19.8189 12.9448 19.8331 12.9568C19.8401 12.9616 19.8448 12.9712 19.8496 12.9784C19.8496 12.9784 19.8519 12.9784 19.8519 12.9808C19.8684 12.9928 19.8849 13 19.9013 13.0096C19.9155 13.0168 19.9272 13.0264 19.9414 13.0312C19.9814 13.0504 20.0261 13.06 20.0732 13.06H23.016H23.3526C23.5551 13.06 23.7199 13.228 23.7199 13.4344C23.7199 13.6408 23.5574 13.8088 23.3526 13.8088H21.6246C21.4222 13.8088 21.2574 13.9768 21.2574 14.1832C21.2574 14.3896 21.4245 14.5576 21.627 14.5576H23.355C23.5574 14.5576 23.7222 14.7256 23.7222 14.932C23.7222 15.1384 23.5574 15.3064 23.355 15.3064H21.627C21.4245 15.3064 21.2597 15.4744 21.2597 15.6808C21.2597 15.8872 21.4245 16.0552 21.627 16.0552H23.355C23.5574 16.0552 23.7222 16.2232 23.7222 16.4296C23.7222 16.636 23.5574 16.804 23.355 16.804H21.627C21.4245 16.804 21.2597 16.972 21.2597 17.1784C21.2597 17.3848 21.4245 17.5528 21.627 17.5528H23.355C23.5574 17.5528 23.7222 17.7208 23.7222 17.9272C23.7222 18.1336 23.5574 18.3016 23.355 18.3016H22.6793H22.1049H21.6293H20.2498H18.9714H18.4182L17.7896 17.6608C17.7567 17.6272 17.7143 17.5984 17.6696 17.5792C17.6248 17.56 17.5777 17.5504 17.5307 17.5504H16.3959V13.0576H16.7938H17.5283C17.5919 13.0576 17.6507 13.036 17.7025 13.0072C17.7166 13 17.7284 12.9904 17.7402 12.9808C17.7802 12.9496 17.8155 12.9136 17.8414 12.868C17.8461 12.8608 17.8555 12.8584 17.8579 12.8512L18.4935 11.5576ZM13.4532 12.3064H15.6591V12.6808V17.932V18.3064H13.4532V12.3064ZM14.5573 16.8088C14.3548 16.8088 14.19 16.9768 14.19 17.1832C14.19 17.3896 14.3548 17.5576 14.5573 17.5576C14.7598 17.5576 14.9245 17.3896 14.9245 17.1832C14.9245 16.9768 14.7598 16.8088 14.5573 16.8088ZM19.1551 19.0576H19.746L19.4329 20.0704C19.3716 20.2696 19.4799 20.4784 19.673 20.5408C19.7107 20.5528 19.7483 20.5576 19.7836 20.5576C19.939 20.5576 20.085 20.4544 20.1344 20.296L20.5181 19.0576H20.8101V20.1832C20.8101 20.3896 20.9749 20.5576 21.1773 20.5576C21.3798 20.5576 21.5446 20.3896 21.5446 20.1832V19.0576H21.627H21.8365L22.2202 20.296C22.2814 20.4928 22.4886 20.6032 22.6817 20.5408C22.8747 20.4784 22.983 20.2696 22.9218 20.0704L22.6063 19.0576H22.677H23.1996L27.2841 24.6064C27.8821 25.42 27.9739 26.4472 27.5266 27.3568C27.0817 28.264 26.2224 28.8088 25.2242 28.8088H17.1328C16.137 28.8088 15.2753 28.2664 14.8304 27.3568C14.3854 26.4496 14.4749 25.42 15.0729 24.6064L19.1551 19.0576ZM19.7059 22.036C19.5035 22.036 19.3387 22.204 19.3387 22.4104C19.3387 22.6168 19.5035 22.7848 19.7059 22.7848H20.4405C20.9231 22.7848 21.3303 23.104 21.4787 23.5456H19.7036C19.5011 23.5456 19.3363 23.7136 19.3363 23.92C19.3363 24.1264 19.5011 24.2944 19.7036 24.2944H21.4716C21.3162 24.724 20.9137 25.0336 20.4405 25.0336H19.7059C19.5035 25.0336 19.3387 25.2016 19.3387 25.408C19.3387 25.4104 19.3387 25.4128 19.341 25.4128C19.3387 25.5112 19.374 25.6096 19.447 25.684L21.6552 27.9352C21.7282 28.0096 21.82 28.0456 21.9142 28.0456C22.0084 28.0456 22.1025 28.0096 22.1732 27.9352C22.3168 27.7888 22.3168 27.5512 22.1732 27.4048L20.5699 25.7704C21.3963 25.7104 22.0743 25.1032 22.2414 24.2944H22.6487C22.8512 24.2944 23.016 24.1264 23.016 23.92C23.016 23.7136 22.8512 23.5456 22.6487 23.5456H22.2438C22.1896 23.2624 22.0672 23.0056 21.9024 22.7848H22.6463C22.8488 22.7848 23.0136 22.6168 23.0136 22.4104C23.0136 22.204 22.8488 22.036 22.6463 22.036H20.4381H19.7059Z" fill="#AD1E23"/>
</svg>
