<svg width="39" height="39" viewBox="0 0 39 39" fill="none" xmlns="http://www.w3.org/2000/svg">
<circle cx="19.541" cy="19.5576" r="19" fill="#FFEBDC"/>
<path d="M12.3398 13.7865C12.3398 12.8869 13.0691 12.1576 13.9688 12.1576H25.1109C26.0106 12.1576 26.7398 12.8869 26.7398 13.7865V24.9287C26.7398 25.8283 26.0106 26.5576 25.1109 26.5576H13.9688C13.0691 26.5576 12.3398 25.8283 12.3398 24.9287V13.7865Z" stroke="#AD1E23"/>
<rect width="0.8" height="2.4" rx="0.4" transform="matrix(-1 0 0 1 16.3398 10.5576)" stroke="#AD1E23"/>
<rect x="22.7402" y="10.5576" width="0.8" height="2.4" rx="0.4" stroke="#AD1E23"/>
<path d="M15.2402 19.3576C15.2402 16.9872 17.1698 15.0576 19.5402 15.0576C21.9107 15.0576 23.8402 16.9872 23.8402 19.3576C23.8402 21.7281 21.9107 23.6576 19.5402 23.6576C17.1698 23.6576 15.2402 21.7281 15.2402 19.3576Z" stroke="#AD1E23"/>
</svg>
