<svg width="14" height="15" viewBox="0 0 14 15" fill="none" xmlns="http://www.w3.org/2000/svg">
<path d="M9.98431 5.18115C10.9033 5.18115 11.6483 4.39765 11.6483 3.43115C11.6483 2.46465 10.9033 1.68115 9.98431 1.68115C9.06531 1.68115 8.32031 2.46465 8.32031 3.43115C8.32031 4.39765 9.06531 5.18115 9.98431 5.18115Z" fill="#F37E20" stroke="#F37E20" stroke-width="1.5" stroke-linecap="round" stroke-linejoin="round"/>
<path d="M3.32806 9.26562C4.24705 9.26562 4.99205 8.48212 4.99205 7.51562C4.99205 6.54913 4.24705 5.76562 3.32806 5.76562C2.40906 5.76562 1.66406 6.54913 1.66406 7.51562C1.66406 8.48212 2.40906 9.26562 3.32806 9.26562Z" fill="#F37E20" stroke="#F37E20" stroke-width="1.5" stroke-linecap="round" stroke-linejoin="round"/>
<path d="M9.98431 13.3501C10.9033 13.3501 11.6483 12.5666 11.6483 11.6001C11.6483 10.6336 10.9033 9.8501 9.98431 9.8501C9.06531 9.8501 8.32031 10.6336 8.32031 11.6001C8.32031 12.5666 9.06531 13.3501 9.98431 13.3501Z" fill="#F37E20" stroke="#F37E20" stroke-width="1.5" stroke-linecap="round" stroke-linejoin="round"/>
<path d="M4.76562 8.39746L8.55398 10.7191" stroke="#F37E20" stroke-width="1.5" stroke-linecap="round" stroke-linejoin="round"/>
<path d="M8.54844 4.31299L4.76562 6.63465" stroke="#F37E20" stroke-width="1.5" stroke-linecap="round" stroke-linejoin="round"/>
</svg>
