<svg width="15" height="14" viewBox="0 0 15 14" fill="none" xmlns="http://www.w3.org/2000/svg">
<path d="M0.388074 13.1733C0.636553 13.4178 0.973564 13.5552 1.32497 13.5552H2.862V6.38354H1.32497C0.973564 6.38354 0.636553 6.52092 0.388074 6.76546C0.139594 7.00999 0 7.34165 0 7.68748V12.2513C0 12.5971 0.139594 12.9287 0.388074 13.1733Z" fill="#F37E20"/>
<path d="M9.03582 5.0794V2.47153C9.03582 1.95279 8.82643 1.4553 8.45371 1.0885C8.08099 0.721693 7.57548 0.515625 7.04837 0.515625L4.39844 6.38333V13.555H11.8713C12.1908 13.5585 12.5009 13.4483 12.7443 13.2446C12.9878 13.041 13.1483 12.7576 13.1962 12.4466L14.1104 6.57892C14.1393 6.39204 14.1265 6.20122 14.0729 6.0197C14.0194 5.83817 13.9263 5.67027 13.8003 5.52763C13.6743 5.38499 13.5182 5.27103 13.343 5.19363C13.1678 5.11623 12.9775 5.07726 12.7855 5.0794H9.03582Z" fill="#F37E20"/>
</svg>
