<svg width="29" height="39" viewBox="0 0 29 39" fill="none" xmlns="http://www.w3.org/2000/svg">
<path d="M1 24.421V15.0526C1 11.3256 2.42232 7.75129 4.95406 5.11591C7.4858 2.48054 10.9196 1 14.5 1C18.0804 1 21.5142 2.48054 24.0459 5.11591C26.5777 7.75129 28 11.3256 28 15.0526V20.6949" stroke="#E77817" stroke-width="1.5"/>
<path d="M28 22.4422C28 23.2489 27.6839 24.0226 27.1213 24.5931C26.5587 25.1635 25.7956 25.484 25 25.484H23.5C22.7044 25.484 21.9413 25.1635 21.3787 24.5931C20.8161 24.0226 20.5 23.2489 20.5 22.4422V17.8796C20.5 17.0729 20.8161 16.2992 21.3787 15.7288C21.9413 15.1584 22.7044 14.8379 23.5 14.8379H28V22.4422ZM1 22.4422C1 23.2489 1.31607 24.0226 1.87868 24.5931C2.44129 25.1635 3.20435 25.484 4 25.484H5.5C6.29565 25.484 7.05871 25.1635 7.62132 24.5931C8.18393 24.0226 8.5 23.2489 8.5 22.4422V17.8796C8.5 17.0729 8.18393 16.2992 7.62132 15.7288C7.05871 15.1584 6.29565 14.8379 5.5 14.8379H1V22.4422Z" stroke="#E77817" stroke-width="1.5"/>
<path d="M1 20.1616V27.6137C1.17308 29.9203 2.5577 34.0012 7.75002 34.5335" stroke="#E77817" stroke-width="1.5"/>
<rect width="9.10146" height="3.19066" rx="1.59533" transform="matrix(0.969491 0.245128 -0.233899 0.972261 7.97656 32.9399)" stroke="#E77817" stroke-width="1.5"/>
</svg>
