<svg width="52" height="52" viewBox="0 0 52 52" fill="none" xmlns="http://www.w3.org/2000/svg">
<circle cx="26" cy="26" r="26" fill="#EFCFEC"/>
<path d="M24.8576 15.0072C24.8708 15.0064 24.8829 15 24.8963 15H33.7554C33.9328 15 34.1029 15.0705 34.2283 15.1959C34.3537 15.3213 34.4242 15.4914 34.4242 15.6688C34.4242 15.6688 34.4242 22.8625 34.4242 25.0449L34.4239 36.0449V36.5793C34.4239 36.7567 34.3535 36.9268 34.2281 37.0522C34.1026 37.1776 33.9325 37.2481 33.7552 37.2481H17.6688C17.4914 37.2481 17.3213 37.1776 17.1959 37.0522C17.0705 36.9268 17 36.7567 17 36.5793V22.1424C17.0003 22.0917 17.0064 22.0412 17.0182 21.9919C17.0205 21.983 17.0246 21.9743 17.0272 21.9652C17.0407 21.9165 17.0598 21.8696 17.084 21.8253C17.0916 21.8113 17.0992 21.7976 17.1078 21.7842C17.1395 21.7326 17.1782 21.6856 17.2227 21.6445L24.4499 15.1707C24.5062 15.1218 24.5703 15.0828 24.6395 15.0552C24.6599 15.0477 24.6808 15.0413 24.7019 15.036C24.7524 15.0202 24.8047 15.0105 24.8576 15.0072ZM24.8576 15.0072V22.5679L17 22.4945" stroke="#A731D0" stroke-width="1.2" stroke-linecap="round"/>
<path d="M32 26.6449C32.3314 26.6449 32.6 26.3763 32.6 26.0449C32.6 25.7136 32.3314 25.4449 32 25.4449V26.6449ZM20 25.4449C19.6686 25.4449 19.4 25.7136 19.4 26.0449C19.4 26.3763 19.6686 26.6449 20 26.6449V25.4449ZM32 25.4449H20V26.6449H32V25.4449Z" fill="#A731D0"/>
<path d="M31.5 29.6449C31.8314 29.6449 32.1 29.3763 32.1 29.0449C32.1 28.7136 31.8314 28.4449 31.5 28.4449V29.6449ZM20 28.4449C19.6686 28.4449 19.4 28.7136 19.4 29.0449C19.4 29.3763 19.6686 29.6449 20 29.6449V28.4449ZM31.5 28.4449H20V29.6449H31.5V28.4449Z" fill="#A731D0"/>
<path d="M31.5 32.6449C31.8314 32.6449 32.1 32.3763 32.1 32.0449C32.1 31.7136 31.8314 31.4449 31.5 31.4449V32.6449ZM20 31.4449C19.6686 31.4449 19.4 31.7136 19.4 32.0449C19.4 32.3763 19.6686 32.6449 20 32.6449V31.4449ZM31.5 31.4449H20V32.6449H31.5V31.4449Z" fill="#A731D0"/>
</svg>
