<svg width="73" height="57" viewBox="0 0 73 57" fill="none" xmlns="http://www.w3.org/2000/svg">
<path d="M6 55.9998V50.6085C6 49.4079 6.97329 48.4346 8.17391 48.4346H17.6957C18.8963 48.4346 19.8696 49.4079 19.8696 50.6085V55.9998" stroke="#F37E20" stroke-width="1.5"/>
<path d="M19.8711 55.9999V44.3043C19.8711 43.1037 20.8444 42.1304 22.045 42.1304H31.5667C32.7674 42.1304 33.7407 43.1037 33.7407 44.3043V55.9999" stroke="#F37E20" stroke-width="1.5"/>
<path d="M33.7422 55.9997V36.7389C33.7422 35.5382 34.7155 34.5649 35.9161 34.5649H46.6987C47.8993 34.5649 48.8726 35.5382 48.8726 36.7389V55.9997" stroke="#F37E20" stroke-width="1.5"/>
<path d="M56.4336 4.93457V23.8476" stroke="#F37E20" stroke-width="1.5"/>
<path d="M48.8711 56.0003V26.6524C48.8711 25.4518 49.8444 24.4785 51.045 24.4785H60.5667C61.7674 24.4785 62.7407 25.4518 62.7407 26.6524V56.0003" stroke="#F37E20" stroke-width="1.5"/>
<path d="M0.957031 56H69.044" stroke="#F37E20" stroke-width="1.5" stroke-linecap="round" stroke-linejoin="round"/>
<path d="M67.6884 5.53615L67.2883 6.04458L67.7325 6.51497L71.26 10.25H56.75V0.75H71.4553L67.6884 5.53615Z" stroke="#F37E20" stroke-width="1.5"/>
</svg>
