<svg width="52" height="52" viewBox="0 0 52 52" fill="none" xmlns="http://www.w3.org/2000/svg">
<circle cx="26" cy="26" r="26" fill="#CFEFDA"/>
<path d="M13.4011 18.9649C13.0914 19.2746 13.0938 19.6955 13.0938 20.1395V35.6683C13.0938 36.0951 13.4394 36.4408 13.8659 36.4408H38.4401C38.8665 36.4408 39.2122 36.0951 39.2122 35.6683V20.1395C39.2122 19.735 39.2881 19.279 38.9125 19.0009M13.4011 18.9649L16.2296 21.4801M13.4011 18.9649H16.2296M38.9125 19.0009L35.9869 21.5886M38.9125 19.0009H35.9869M16.2296 21.4801L25.6744 29.8785C25.9578 29.6683 26.3382 29.6819 26.604 29.8881L35.9869 21.5886M16.2296 21.4801V18.9649M35.9869 21.5886V19.0009M16.2296 18.9649V15H35.9869V19.0009" stroke="#3FB252" stroke-width="1.2" stroke-linejoin="round"/>
</svg>
