<svg width="26" height="27" viewBox="0 0 26 27" fill="none" xmlns="http://www.w3.org/2000/svg">
<path d="M22.5333 0H3.46667C1.5548 0 0 1.5548 0 3.46667V19.0667C0 20.9785 1.5548 22.5333 3.46667 22.5333V25.9983C3.46667 26.3345 3.6608 26.6396 3.96587 26.7835C4.082 26.8372 4.20853 26.8649 4.33333 26.8649C4.53267 26.8649 4.73027 26.7973 4.888 26.6639L9.84707 22.5333H22.5333C24.4452 22.5333 26 20.9785 26 19.0667V3.46667C26 1.5548 24.4452 0 22.5333 0ZM6.06667 10.4C7.50013 10.4 8.66667 11.5665 8.66667 13C8.66667 14.4335 7.50013 15.6 6.06667 15.6H4.33333C3.85493 15.6 3.46667 15.2117 3.46667 14.7333C3.46667 14.2549 3.85493 13.8667 4.33333 13.8667H6.06667C6.54507 13.8667 6.93333 13.4784 6.93333 13C6.93333 12.5216 6.54507 12.1333 6.06667 12.1333C4.6332 12.1333 3.46667 10.9668 3.46667 9.53333C3.46667 8.09987 4.6332 6.93333 6.06667 6.93333H7.8C8.2784 6.93333 8.66667 7.3216 8.66667 7.8C8.66667 8.2784 8.2784 8.66667 7.8 8.66667H6.06667C5.58827 8.66667 5.2 9.05493 5.2 9.53333C5.2 10.0117 5.58827 10.4 6.06667 10.4ZM15.6 14.7333C15.6 15.2117 15.2117 15.6 14.7333 15.6C14.2549 15.6 13.8667 15.2117 13.8667 14.7333V11.4712L13.7748 11.6549C13.4801 12.2425 12.5181 12.2425 12.2235 11.6549L12.1333 11.4712V14.7333C12.1333 15.2117 11.7451 15.6 11.2667 15.6C10.7883 15.6 10.4 15.2117 10.4 14.7333V7.8C10.4 7.39787 10.6773 7.04773 11.0673 6.95587C11.4539 6.86227 11.8612 7.05293 12.0415 7.41173L13 9.3288L13.9585 7.41347C14.1371 7.0512 14.534 6.864 14.9327 6.95587C15.3244 7.04773 15.6 7.39787 15.6 7.8V14.7333ZM19.9333 10.4C21.3668 10.4 22.5333 11.5665 22.5333 13C22.5333 14.4335 21.3668 15.6 19.9333 15.6H18.2C17.7216 15.6 17.3333 15.2117 17.3333 14.7333C17.3333 14.2549 17.7216 13.8667 18.2 13.8667H19.9333C20.41 13.8667 20.8 13.4784 20.8 13C20.8 12.5216 20.41 12.1333 19.9333 12.1333C18.4999 12.1333 17.3333 10.9668 17.3333 9.53333C17.3333 8.09987 18.4999 6.93333 19.9333 6.93333H21.6667C22.1451 6.93333 22.5333 7.3216 22.5333 7.8C22.5333 8.2784 22.1451 8.66667 21.6667 8.66667H19.9333C19.4567 8.66667 19.0667 9.05493 19.0667 9.53333C19.0667 10.0117 19.4567 10.4 19.9333 10.4Z" fill="white"/>
</svg>
