<svg width="52" height="52" viewBox="0 0 52 52" fill="none" xmlns="http://www.w3.org/2000/svg">
<circle cx="26" cy="26" r="26" fill="#D5DBF8"/>
<path d="M27.7853 18.3814C27.9666 18.2595 28.0438 18.0388 27.9752 17.8375C27.6576 16.9042 27.1381 16.0453 26.4503 15.3162C26.3018 15.1588 26.0631 15.1122 25.8618 15.2013L24.507 15.8003C24.0684 15.4664 23.5796 15.1972 23.0573 15.0014L22.9236 13.582C22.9036 13.371 22.742 13.1969 22.5247 13.153C21.5195 12.949 20.4805 12.949 19.4753 13.153C19.258 13.1969 19.0964 13.371 19.0764 13.582L18.9427 15.0014C18.4204 15.1972 17.9318 15.4664 17.493 15.8003L16.1382 15.2013C15.9369 15.1122 15.6982 15.1588 15.5497 15.3162C14.8619 16.0453 14.3424 16.9042 14.0248 17.8375C13.9562 18.0388 14.0334 18.2595 14.2147 18.3814L15.4357 19.2019C15.3522 19.7313 15.3522 20.2699 15.4357 20.7995L14.2147 21.6201C14.0334 21.742 13.9562 21.9626 14.0248 22.164C14.3424 23.0972 14.8619 23.9562 15.5497 24.6852C15.6982 24.8426 15.9369 24.8892 16.1382 24.8001L17.493 24.2012C17.9316 24.5351 18.4204 24.8042 18.9427 25M22.75 21.7509C23.529 21.2437 23.4638 20.3896 23.529 20.0007C23.529 18.6684 22.3958 17.5867 21 17.5867C19.6042 17.5867 18.471 18.6684 18.471 20.0007C18.4169 20.7215 18.7302 22.1972 20.4167 22.3343" stroke="#5E43F6" stroke-width="1.2" stroke-linecap="round"/>
<path fill-rule="evenodd" clip-rule="evenodd" d="M26.414 22.0018L26.6147 19.8729C26.6446 19.5564 26.887 19.2954 27.2129 19.2295C28.7208 18.9235 30.2792 18.9235 31.7871 19.2295C32.113 19.2954 32.3554 19.5564 32.3853 19.8729L32.586 22.0018C33.3694 22.2955 34.1027 22.6992 34.7605 23.1999L36.7926 22.3016C37.0946 22.168 37.4527 22.2379 37.6754 22.474C38.7072 23.5674 39.4864 24.8557 39.9629 26.2555C40.0657 26.5574 39.95 26.8884 39.678 27.0712L37.8465 28.3019C37.9717 29.0963 37.9717 29.9041 37.8465 30.6981L39.678 31.9288C39.95 32.1116 40.0657 32.4426 39.9629 32.7445C39.4864 34.1443 38.7072 35.4325 37.6754 36.526C37.4527 36.7621 37.0946 36.832 36.7926 36.6984L34.7605 35.8001C34.1023 36.3008 33.3694 36.7045 32.586 36.9981L32.3853 39.1271C32.3554 39.4436 32.113 39.7046 31.7871 39.7705C30.2792 40.0765 28.7208 40.0765 27.2129 39.7705C26.887 39.7046 26.6446 39.4436 26.6147 39.1271L26.414 36.9981C25.6306 36.7045 24.8973 36.3008 24.2395 35.8001L22.2074 36.6984C21.9054 36.832 21.5473 36.7621 21.3246 36.526C20.2928 35.4325 19.5136 34.1443 19.0371 32.7445C18.9343 32.4426 19.05 32.1116 19.322 31.9288L21.1535 30.6981C21.0283 29.9037 21.0283 29.0959 21.1535 28.3019L19.322 27.0712C19.05 26.8884 18.9343 26.5574 19.0371 26.2555C19.5136 24.8557 20.2928 23.5674 21.3246 22.474C21.5473 22.2379 21.9054 22.168 22.2074 22.3016L24.2395 23.1999C24.8977 22.6992 25.6306 22.2955 26.414 22.0018ZM29.5 25.8793C27.4064 25.8793 25.7065 27.5017 25.7065 29.5C25.7065 31.4983 27.4064 33.1207 29.5 33.1207C31.5936 33.1207 33.2935 31.4983 33.2935 29.5C33.2935 27.5017 31.5936 25.8793 29.5 25.8793Z" stroke="#5E43F6" stroke-width="1.2" stroke-linecap="round"/>
</svg>
