<svg width="54" height="58" viewBox="0 0 54 58" fill="none" xmlns="http://www.w3.org/2000/svg">
<mask id="path-1-inside-1" fill="white">
<path d="M53.3052 32.9806V32.9742V32.9678C53.2027 31.7952 52.9656 30.6418 52.594 29.5269C51.6328 26.6499 49.8579 24.0869 47.6409 22.0236C45.2829 19.8258 42.47 18.1919 39.4648 17.0577C39.4968 17.2884 39.5161 17.5191 39.5289 17.7562C39.5353 17.8331 39.5353 17.9164 39.5417 17.9932V18.0445V18.115C39.5417 18.1919 39.5481 18.2624 39.5481 18.3393V18.3649C39.5481 18.5507 39.5417 18.7429 39.5289 18.9288C39.5225 18.9992 39.5225 19.0697 39.5161 19.1402C39.4264 20.3128 39.1316 21.4726 38.6575 22.549C38.5549 22.7797 38.4396 23.0104 38.3243 23.2346L38.4332 23.2731C38.9458 23.4461 39.2277 23.9203 39.106 24.4585C38.9971 24.9455 38.4011 25.2915 37.9206 25.1313C37.3119 24.9198 36.6903 24.734 36.0688 24.561C36.0175 24.5482 35.9727 24.5354 35.9214 24.5226C32.8009 23.7088 29.5715 23.4717 26.3869 23.8113L26.1947 23.8306L25.7334 23.8882C25.6885 23.8946 25.6372 23.901 25.5924 23.9074C25.5283 23.9139 25.4642 23.9267 25.3937 23.9331C23.7406 24.1766 22.1067 24.5738 20.5176 25.1185C20.0242 25.2915 19.4667 24.9263 19.3322 24.4457C19.1912 23.9203 19.5116 23.4333 20.005 23.2603L20.1139 23.2218C20.0883 23.1706 20.0562 23.1193 20.0306 23.0616C19.9665 22.9399 19.9089 22.8182 19.8512 22.6964L19.8512 22.6964C19.3001 21.511 18.9798 20.2295 18.9029 18.9288C18.89 18.7237 18.8836 18.5123 18.8836 18.3072V18.1342C18.8836 18.0765 18.8836 18.0189 18.89 17.9548V17.9099C18.9029 17.5575 18.9349 17.2051 18.9862 16.8591C17.2946 17.455 15.6606 18.2047 14.1228 19.1274L14.1228 19.1274C13.6358 18.7942 13.1488 18.461 12.6619 18.1342C12.239 17.8459 11.8097 17.5575 11.3868 17.2628C11.1048 17.0706 10.8421 16.8719 10.5217 16.7502C9.51575 16.3657 8.38802 16.9616 8.05482 17.9612C7.93949 18.3008 7.97152 18.634 7.99075 18.98C8.06123 19.9668 8.12531 20.96 8.19579 21.9467C8.24705 22.658 8.2919 23.3756 8.34316 24.0869C7.34999 25.3299 6.52982 26.6627 5.88906 28.1172H4.86385C4.31279 28.1172 3.74893 28.0724 3.19787 28.1365C1.84587 28.2902 0.852697 29.3987 0.827067 30.7572C0.820659 31.116 0.827067 31.4748 0.827067 31.8272V36.3125V37.7222C0.833474 38.7154 1.30123 39.6509 2.19188 40.1379C2.94157 40.5479 3.80659 40.4646 4.62677 40.4646H5.92751C7.38203 43.7069 9.79128 46.3789 12.6875 48.4293C13.418 48.9419 14.1805 49.416 14.9622 49.8454C14.5265 51.7228 14.0972 53.6002 13.6615 55.4776C13.591 55.7852 13.5205 56.0863 13.45 56.3939C13.309 56.9962 13.7319 57.6114 14.3791 57.6114H21.3762C21.8311 57.6114 22.1515 57.3038 22.3053 56.9065L23.2536 54.446C23.4587 53.9206 23.6829 53.3888 23.888 52.8569C27.2904 53.4208 30.7633 53.4144 34.1721 52.8569L34.1745 52.8632C34.6928 54.2131 35.211 55.563 35.7292 56.9065C35.883 57.3102 36.2033 57.6114 36.6583 57.6114H43.6554C44.3025 57.6114 44.719 56.9962 44.5845 56.3939C44.0911 54.2538 43.5977 52.1072 43.1043 49.9671L43.0659 49.8133C47.6345 47.2887 51.5559 43.2263 52.8823 38.0682C53.0937 37.2416 53.2347 36.3958 53.3052 35.5436V32.9806Z"/>
</mask>
<path d="M53.3052 32.9678H54.8052V32.9023L54.7995 32.8371L53.3052 32.9678ZM52.594 29.5269L54.017 29.0526L54.0167 29.0516L52.594 29.5269ZM47.6409 22.0236L46.6181 23.1209L46.619 23.1217L47.6409 22.0236ZM39.4648 17.0577L39.9944 15.6544L37.6317 14.7626L37.9791 17.2641L39.4648 17.0577ZM39.5289 17.7562L38.0311 17.8371L38.0322 17.859L38.0341 17.8808L39.5289 17.7562ZM39.5417 17.9932H41.0417V17.9308L41.0365 17.8687L39.5417 17.9932ZM39.5289 18.9288L41.0227 19.0645L41.0242 19.0483L41.0253 19.032L39.5289 18.9288ZM39.5161 19.1402L38.0222 19.0044L38.0213 19.0151L38.0204 19.0258L39.5161 19.1402ZM38.6575 22.549L40.0282 23.1583L40.0302 23.1537L38.6575 22.549ZM38.3243 23.2346L36.9903 22.5486L36.2042 24.0771L37.825 24.6491L38.3243 23.2346ZM38.4332 23.2731L37.934 24.6876L37.9437 24.691L37.9535 24.6943L38.4332 23.2731ZM39.106 24.4585L37.6429 24.1276L37.6422 24.1311L39.106 24.4585ZM37.9206 25.1313L37.4284 26.5482L37.4373 26.5513L37.4462 26.5543L37.9206 25.1313ZM36.0688 24.561L36.471 23.116L36.4519 23.1106L36.4326 23.1058L36.0688 24.561ZM35.9214 24.5226L35.5429 25.974L35.5502 25.9759L35.5576 25.9778L35.9214 24.5226ZM26.3869 23.8113L26.5362 25.3039L26.546 25.3029L26.3869 23.8113ZM26.1947 23.8306L26.0454 22.338L26.027 22.3398L26.0086 22.3421L26.1947 23.8306ZM25.7334 23.8882L25.5473 22.3998L25.5342 22.4014L25.5212 22.4033L25.7334 23.8882ZM25.5924 23.9074L25.7416 25.4L25.7732 25.3968L25.8045 25.3924L25.5924 23.9074ZM25.3937 23.9331L25.2579 22.4392L25.2164 22.443L25.1752 22.4491L25.3937 23.9331ZM20.5176 25.1185L20.0312 23.6995L20.0212 23.703L20.5176 25.1185ZM19.3322 24.4457L17.8834 24.8344L17.8855 24.8423L17.8877 24.8501L19.3322 24.4457ZM20.005 23.2603L20.5013 24.6758L20.5042 24.6748L20.005 23.2603ZM20.1139 23.2218L20.6131 24.6363L22.2155 24.0708L21.4555 22.551L20.1139 23.2218ZM20.0306 23.0616L21.4013 22.4524L21.3811 22.407L21.358 22.363L20.0306 23.0616ZM19.8512 22.6964L18.4805 23.3056L18.4878 23.3222L18.4956 23.3386L19.8512 22.6964ZM19.8512 22.6964L21.2219 22.0872L21.2167 22.0756L21.2114 22.0641L19.8512 22.6964ZM18.9029 18.9288L20.4003 18.8402L20.3999 18.8352L18.9029 18.9288ZM18.89 17.9548L20.3826 18.104L20.39 18.0296V17.9548H18.89ZM18.89 17.9099L17.391 17.8554L17.39 17.8827V17.9099H18.89ZM18.9862 16.8591L20.47 17.0789L20.8346 14.6176L18.4878 15.4443L18.9862 16.8591ZM14.1228 19.1274L13.2446 20.3434L14.0464 20.9225L14.8946 20.4136L14.1228 19.1274ZM14.1228 19.1274L15.001 17.9113L14.9856 17.9002L14.9698 17.8894L14.1228 19.1274ZM12.6619 18.1342L11.8168 19.3736L11.826 19.3798L12.6619 18.1342ZM11.3868 17.2628L12.2445 16.0322L12.2381 16.0278L12.2318 16.0234L11.3868 17.2628ZM10.5217 16.7502L9.98627 18.1513L9.98892 18.1523L10.5217 16.7502ZM8.05482 17.9612L9.47517 18.4436L9.47785 18.4355L8.05482 17.9612ZM7.99075 18.98L6.49306 19.0632L6.49371 19.0751L6.49456 19.0869L7.99075 18.98ZM8.19579 21.9467L6.6996 22.0536L6.69967 22.0546L8.19579 21.9467ZM8.34316 24.0869L9.51506 25.0232L9.88148 24.5645L9.83928 23.979L8.34316 24.0869ZM5.88906 28.1172V29.6172H6.86737L7.26176 28.7219L5.88906 28.1172ZM3.19787 28.1365L3.3674 29.6268L3.37112 29.6264L3.19787 28.1365ZM0.827067 30.7572L-0.672667 30.7289L-0.672694 30.7304L0.827067 30.7572ZM0.827067 37.7222H-0.672965L-0.672902 37.7319L0.827067 37.7222ZM2.19188 40.1379L2.91174 38.8219L2.91149 38.8217L2.19188 40.1379ZM5.92751 40.4646L7.29609 39.8507L6.89861 38.9646H5.92751V40.4646ZM12.6875 48.4293L11.8208 49.6535L11.8259 49.6571L12.6875 48.4293ZM14.9622 49.8454L16.4234 50.1845L16.6803 49.0776L15.6842 48.5306L14.9622 49.8454ZM13.6615 55.4776L12.2003 55.1385L12.1994 55.1426L13.6615 55.4776ZM13.45 56.3939L14.9106 56.7357L14.9121 56.729L13.45 56.3939ZM22.3053 56.9065L23.7041 57.448L23.7049 57.446L22.3053 56.9065ZM23.2536 54.446L21.8562 53.9007L21.854 53.9066L23.2536 54.446ZM23.888 52.8569L24.1332 51.3771L22.9279 51.1774L22.4884 52.3173L23.888 52.8569ZM34.1721 52.8569L35.5728 52.3202L35.1357 51.1794L33.9301 51.3766L34.1721 52.8569ZM34.1745 52.8632L32.7739 53.3999L32.7742 53.4008L34.1745 52.8632ZM35.7292 56.9065L37.1309 56.3725L37.1287 56.3667L35.7292 56.9065ZM44.5845 56.3939L46.0484 56.0669L46.0461 56.0569L44.5845 56.3939ZM43.1043 49.9671L44.566 49.6301L44.5629 49.6167L44.5595 49.6033L43.1043 49.9671ZM43.0659 49.8133L42.3404 48.5004L41.3309 49.0582L41.6107 50.1771L43.0659 49.8133ZM52.8823 38.0682L54.335 38.4418L54.3355 38.44L52.8823 38.0682ZM53.3052 35.5436L54.8001 35.6673L54.8052 35.6056V35.5436H53.3052ZM51.8052 32.9742V32.9806H54.8052V32.9742H51.8052ZM54.7995 32.8371C54.6869 31.5494 54.4263 30.2806 54.017 29.0526L51.1709 30.0012C51.5049 31.003 51.7184 32.0409 51.8109 33.0984L54.7995 32.8371ZM54.0167 29.0516C52.9651 25.904 51.0363 23.1345 48.6628 20.9256L46.619 23.1217C48.6795 25.0393 50.3005 27.3957 51.1712 30.0022L54.0167 29.0516ZM48.6636 20.9263C46.1416 18.5757 43.1532 16.8465 39.9944 15.6544L38.9352 18.4611C41.7867 19.5373 44.4242 21.0759 46.6181 23.1209L48.6636 20.9263ZM37.9791 17.2641C38.0037 17.4411 38.0198 17.6278 38.0311 17.8371L41.0267 17.6752C41.0124 17.4104 40.99 17.1357 40.9505 16.8514L37.9791 17.2641ZM38.0341 17.8808C38.0339 17.8783 38.0341 17.8806 38.0346 17.8905C38.0351 17.9011 38.0356 17.9133 38.0365 17.9347C38.0378 17.9684 38.0405 18.0414 38.0469 18.1178L41.0365 17.8687C41.0367 17.8711 41.0365 17.8688 41.036 17.8589C41.0354 17.8483 41.0349 17.8361 41.0341 17.8147C41.0327 17.781 41.0301 17.708 41.0237 17.6316L38.0341 17.8808ZM38.0417 17.9932V18.0445H41.0417V17.9932H38.0417ZM38.0417 18.0445V18.115H41.0417V18.0445H38.0417ZM38.0417 18.115C38.0417 18.1911 38.0449 18.2599 38.0463 18.2923C38.0472 18.312 38.0476 18.3221 38.0479 18.331C38.0481 18.3387 38.0481 18.3407 38.0481 18.3393H41.0481C41.0481 18.2631 41.0449 18.1944 41.0435 18.162C41.0426 18.1422 41.0422 18.1321 41.0419 18.1233C41.0417 18.1155 41.0417 18.1136 41.0417 18.115H38.0417ZM38.0481 18.3393V18.3649H41.0481V18.3393H38.0481ZM38.0481 18.3649C38.0481 18.5174 38.0428 18.6751 38.0324 18.8255L41.0253 19.032C41.0406 18.8107 41.0481 18.584 41.0481 18.3649H38.0481ZM38.035 18.793C38.0283 18.8676 38.0254 18.9367 38.024 18.9664C38.0222 19.0072 38.0219 19.0085 38.0222 19.0044L41.0099 19.276C41.0167 19.2014 41.0196 19.1323 41.0209 19.1026C41.0228 19.0617 41.0231 19.0604 41.0227 19.0645L38.035 18.793ZM38.0204 19.0258C37.9439 20.0258 37.6918 21.0201 37.2847 21.9444L40.0302 23.1537C40.5714 21.925 40.9088 20.5997 41.0117 19.2546L38.0204 19.0258ZM37.2867 21.9398C37.2017 22.1312 37.1017 22.332 36.9903 22.5486L39.6582 23.9207C39.7775 23.6888 39.9082 23.4282 40.0282 23.1583L37.2867 21.9398ZM37.825 24.6491L37.934 24.6876L38.9324 21.8586L38.8235 21.8202L37.825 24.6491ZM37.9535 24.6943C37.8902 24.673 37.7839 24.61 37.7073 24.4768C37.6285 24.3399 37.6254 24.2051 37.6429 24.1276L40.569 24.7894C40.8666 23.4737 40.1265 22.2615 38.9129 21.8519L37.9535 24.6943ZM37.6422 24.1311C37.6975 23.8839 37.8415 23.7735 37.9079 23.7355C37.976 23.6966 38.1504 23.6268 38.3949 23.7083L37.4462 26.5543C38.1714 26.796 38.884 26.6333 39.3974 26.3397C39.9092 26.0469 40.4056 25.5201 40.5698 24.7859L37.6422 24.1311ZM38.4128 23.7143C37.7638 23.4889 37.1096 23.2937 36.471 23.116L35.6666 26.0061C36.271 26.1743 36.8599 26.3508 37.4284 26.5482L38.4128 23.7143ZM36.4326 23.1058C36.42 23.1027 36.407 23.0992 36.3816 23.0924C36.359 23.0864 36.3239 23.077 36.2852 23.0674L35.5576 25.9778C35.5701 25.9809 35.5832 25.9844 35.6086 25.9911C35.6313 25.9972 35.6663 26.0066 35.705 26.0162L36.4326 23.1058ZM36.2999 23.0711C33.0036 22.2115 29.592 21.961 26.2279 22.3198L26.546 25.3029C29.551 24.9824 32.5982 25.2061 35.5429 25.974L36.2999 23.0711ZM26.2377 22.3188L26.0454 22.338L26.344 25.3231L26.5362 25.3039L26.2377 22.3188ZM26.0086 22.3421L25.5473 22.3998L25.9194 25.3766L26.3807 25.319L26.0086 22.3421ZM25.5212 22.4033C25.507 22.4053 25.4902 22.4076 25.4646 22.411C25.4421 22.414 25.4109 22.4181 25.3802 22.4225L25.8045 25.3924C25.8187 25.3903 25.8356 25.3881 25.8611 25.3847C25.8836 25.3817 25.9148 25.3775 25.9455 25.3731L25.5212 22.4033ZM25.4431 22.4149C25.4031 22.4189 25.3679 22.4234 25.3411 22.4271C25.3161 22.4305 25.2907 22.4343 25.2783 22.4361C25.245 22.4409 25.2479 22.4401 25.2579 22.4392L25.5296 25.4269C25.6101 25.4196 25.6802 25.4092 25.7127 25.4045C25.757 25.398 25.7511 25.3991 25.7416 25.4L25.4431 22.4149ZM25.1752 22.4491C23.4304 22.7061 21.7069 23.1252 20.0312 23.6995L21.0039 26.5374C22.5064 26.0225 24.0508 25.6471 25.6123 25.4171L25.1752 22.4491ZM20.0212 23.703C20.2734 23.6146 20.4729 23.6878 20.5579 23.7384C20.6348 23.7843 20.7294 23.8724 20.7766 24.0412L17.8877 24.8501C18.0695 25.4995 18.5101 26.0106 19.0228 26.3159C19.5435 26.626 20.2684 26.7954 21.0139 26.534L20.0212 23.703ZM20.7809 24.057C20.8201 24.2029 20.793 24.3645 20.7204 24.4867C20.6553 24.5964 20.5695 24.6519 20.5013 24.6758L19.5086 21.8448C18.4073 22.2309 17.5046 23.4224 17.8834 24.8344L20.7809 24.057ZM20.5042 24.6748L20.6131 24.6363L19.6147 21.8073L19.5058 21.8458L20.5042 24.6748ZM21.4555 22.551C21.4384 22.5168 21.4227 22.4875 21.4121 22.4679C21.4067 22.4579 21.4016 22.4486 21.3979 22.442C21.3938 22.4345 21.3915 22.4302 21.3891 22.4259C21.3789 22.4072 21.3885 22.4235 21.4013 22.4524L18.6599 23.6709C18.6984 23.7575 18.7368 23.8282 18.7554 23.8624C18.7602 23.8713 18.7651 23.8801 18.7681 23.8856C18.7716 23.8921 18.7737 23.8957 18.7753 23.8987C18.7786 23.9049 18.7765 23.9012 18.7723 23.8927L21.4555 22.551ZM21.358 22.363C21.311 22.2737 21.2665 22.1804 21.2068 22.0543L18.4956 23.3386C18.5512 23.456 18.6221 23.6061 18.7032 23.7603L21.358 22.363ZM21.2219 22.0872L21.2219 22.0872L18.4805 23.3056L18.4805 23.3056L21.2219 22.0872ZM21.2114 22.0641C20.7406 21.0514 20.4661 19.9546 20.4003 18.8402L17.4055 19.0173C17.4934 20.5044 17.8596 21.9706 18.491 23.3287L21.2114 22.0641ZM20.3999 18.8352C20.3891 18.6622 20.3836 18.4819 20.3836 18.3072H17.3836C17.3836 18.5426 17.391 18.7852 17.4058 19.0223L20.3999 18.8352ZM20.3836 18.3072V18.1342H17.3836V18.3072H20.3836ZM20.3836 18.1342C20.3836 18.119 20.3836 18.1097 20.3837 18.1012C20.3838 18.0934 20.3838 18.0893 20.3839 18.0875C20.384 18.0844 20.3839 18.0914 20.3826 18.104L17.3975 17.8056C17.3826 17.9543 17.3836 18.0828 17.3836 18.1342H20.3836ZM20.39 17.9548V17.9099H17.39V17.9548H20.39ZM20.3891 17.9645C20.3999 17.6661 20.427 17.3689 20.47 17.0789L17.5024 16.6393C17.4428 17.0413 17.4058 17.449 17.391 17.8554L20.3891 17.9645ZM18.4878 15.4443C16.7101 16.0705 14.9834 16.8618 13.3511 17.8411L14.8946 20.4136C16.3379 19.5476 17.879 18.8395 19.4846 18.2739L18.4878 15.4443ZM15.001 17.9114L15.001 17.9113L13.2445 20.3434L13.2446 20.3434L15.001 17.9114ZM14.9698 17.8894C14.4838 17.5569 13.9912 17.2198 13.4977 16.8887L11.826 19.3798C12.3065 19.7021 12.7878 20.0315 13.2758 20.3653L14.9698 17.8894ZM13.5069 16.8949C13.0723 16.5985 12.6591 16.3212 12.2445 16.0322L10.5291 18.4934C10.9603 18.7939 11.4057 19.0932 11.8169 19.3736L13.5069 16.8949ZM12.2318 16.0234C12.0358 15.8898 11.5857 15.5498 11.0546 15.348L9.98892 18.1523C10.0986 18.194 10.1738 18.2513 10.5418 18.5021L12.2318 16.0234ZM11.0572 15.349C9.1901 14.6355 7.21303 15.7432 6.6318 17.4869L9.47785 18.4355C9.51196 18.3332 9.5944 18.2348 9.70967 18.1769C9.81938 18.1217 9.91404 18.1237 9.98627 18.1513L11.0572 15.349ZM6.6345 17.4788C6.40529 18.1537 6.47951 18.8194 6.49306 19.0632L9.48844 18.8968C9.48247 18.7893 9.47838 18.7307 9.47486 18.6539C9.47178 18.5867 9.47104 18.54 9.4719 18.5037C9.47353 18.4352 9.48063 18.4274 9.47515 18.4436L6.6345 17.4788ZM6.49456 19.0869C6.52959 19.5773 6.56305 20.0697 6.59672 20.5651C6.63033 21.0596 6.66414 21.5572 6.6996 22.0536L9.69198 21.8399C9.65695 21.3495 9.62349 20.8571 9.58982 20.3617C9.55621 19.8671 9.52239 19.3695 9.48694 18.8731L6.49456 19.0869ZM6.69967 22.0546C6.725 22.406 6.74879 22.7596 6.77286 23.1175C6.79685 23.4741 6.82111 23.8349 6.84704 24.1947L9.83928 23.979C9.81395 23.6276 9.79016 23.274 9.7661 22.9161C9.74211 22.5595 9.71784 22.1987 9.69191 21.8389L6.69967 22.0546ZM7.17127 23.1506C6.10167 24.4893 5.2123 25.9327 4.51635 27.5125L7.26176 28.7219C7.84734 27.3927 8.59831 26.1706 9.51506 25.0232L7.17127 23.1506ZM5.88906 26.6172H4.86385V29.6172H5.88906V26.6172ZM4.86385 26.6172C4.47693 26.6172 3.68851 26.5693 3.02462 26.6465L3.37112 29.6264C3.80934 29.5755 4.14865 29.6172 4.86385 29.6172V26.6172ZM3.02835 26.6461C0.917922 26.8861 -0.633063 28.6299 -0.672667 30.7289L2.3268 30.7855C2.33846 30.1676 2.77382 29.6944 3.3674 29.6268L3.02835 26.6461ZM-0.672694 30.7304C-0.679381 31.1048 -0.672933 31.5129 -0.672933 31.8272H2.32707C2.32707 31.4368 2.3207 31.1272 2.32683 30.7839L-0.672694 30.7304ZM-0.672933 31.8272V36.3125H2.32707V31.8272H-0.672933ZM-0.672933 36.3125V37.7222H2.32707V36.3125H-0.672933ZM-0.672902 37.7319C-0.663567 39.1789 0.0285981 40.6646 1.47228 41.454L2.91149 38.8217C2.57386 38.6371 2.33052 38.2519 2.32704 37.7125L-0.672902 37.7319ZM1.47203 41.4538C2.10293 41.799 2.74035 41.9117 3.27252 41.951C3.75726 41.9867 4.31853 41.9646 4.62677 41.9646V38.9646C4.11482 38.9646 3.8335 38.9842 3.49327 38.9591C3.20046 38.9375 3.03052 38.8869 2.91174 38.8219L1.47203 41.4538ZM4.62677 41.9646H5.92751V38.9646H4.62677V41.9646ZM4.55892 41.0786C6.14205 44.6075 8.74669 47.4772 11.8208 49.6535L13.5542 47.205C10.8359 45.2805 8.62201 42.8062 7.29609 39.8507L4.55892 41.0786ZM11.8259 49.6571C12.6018 50.2016 13.411 50.7048 14.2402 51.1601L15.6842 48.5306C14.95 48.1273 14.2341 47.6821 13.5491 47.2014L11.8259 49.6571ZM13.501 49.5062C13.2829 50.4463 13.0663 51.3862 12.8501 52.3247C12.6338 53.2637 12.4178 54.2012 12.2003 55.1385L15.1226 55.8167C15.3408 54.8766 15.5573 53.9367 15.7735 52.9982C15.9898 52.0593 16.2058 51.1218 16.4234 50.1845L13.501 49.5062ZM12.1994 55.1426C12.1646 55.2944 12.1297 55.4449 12.0944 55.5974C12.0592 55.7493 12.0236 55.9031 11.9879 56.0588L14.9121 56.729C14.9469 56.5771 14.9818 56.4266 15.0171 56.2742C15.0522 56.1223 15.0879 55.9684 15.1236 55.8127L12.1994 55.1426ZM11.9895 56.0521C11.6541 57.4849 12.6549 59.1114 14.3791 59.1114V56.1114C14.562 56.1114 14.7307 56.2088 14.8261 56.338C14.9123 56.4549 14.9424 56.5994 14.9105 56.7357L11.9895 56.0521ZM14.3791 59.1114H21.3762V56.1114H14.3791V59.1114ZM21.3762 59.1114C22.6335 59.1114 23.401 58.2312 23.7041 57.448L20.9064 56.365C20.9074 56.3625 20.9126 56.3496 20.9268 56.3291C20.9412 56.3085 20.9671 56.2767 21.0094 56.2425C21.1068 56.1635 21.2428 56.1114 21.3762 56.1114V59.1114ZM23.7049 57.446L24.6533 54.9854L21.854 53.9066L20.9056 56.3671L23.7049 57.446ZM24.651 54.9913C24.808 54.589 25.109 53.8597 25.2875 53.3965L22.4884 52.3173C22.2569 52.9178 22.1093 53.2522 21.8562 53.9007L24.651 54.9913ZM23.6427 54.3367C27.2095 54.9278 30.8471 54.9206 34.4142 54.3373L33.9301 51.3766C30.6795 51.9082 27.3713 51.9137 24.1332 51.3771L23.6427 54.3367ZM32.7715 53.3937L32.7739 53.3999L35.5752 52.3264L35.5728 52.3202L32.7715 53.3937ZM32.7742 53.4008C33.2923 54.7505 33.811 56.1015 34.3297 57.4463L37.1287 56.3667C36.611 55.0245 36.0932 53.6757 35.5749 52.3256L32.7742 53.4008ZM34.3275 57.4405C34.635 58.2479 35.41 59.1114 36.6583 59.1114V56.1114C36.7837 56.1114 36.9196 56.1599 37.0215 56.2419C37.0657 56.2776 37.0934 56.3113 37.1091 56.3339C37.1245 56.3563 37.1301 56.3704 37.1309 56.3725L34.3275 57.4405ZM36.6583 59.1114H43.6554V56.1114H36.6583V59.1114ZM43.6554 59.1114C45.3953 59.1114 46.3624 57.4726 46.0484 56.0669L43.1206 56.721C43.0922 56.594 43.1191 56.4564 43.204 56.3407C43.2994 56.2108 43.4702 56.1114 43.6554 56.1114V59.1114ZM46.0461 56.0569C45.5759 54.0174 45.0365 51.671 44.566 49.6301L41.6427 50.3041C42.1589 52.5435 42.6062 54.4902 43.1228 56.7309L46.0461 56.0569ZM44.5595 49.6033L44.5211 49.4495L41.6107 50.1771L41.6491 50.3309L44.5595 49.6033ZM43.7914 51.1262C48.6063 48.4655 52.8772 44.1113 54.335 38.4418L51.4296 37.6947C50.2347 42.3414 46.6626 46.112 42.3404 48.5004L43.7914 51.1262ZM54.3355 38.44C54.5681 37.5306 54.7228 36.6018 54.8001 35.6673L51.8103 35.42C51.7466 36.1899 51.6194 36.9527 51.4291 37.6965L54.3355 38.44ZM51.8052 32.9678V32.9742H54.8052V32.9678H51.8052ZM51.8052 32.9806V35.5436H54.8052V32.9806H51.8052Z" fill="#F37E20" mask="url(#path-1-inside-1)"/>
<path d="M18.8203 16.369C18.8945 16.0463 18.9851 15.7153 19.0923 15.4009C19.1417 15.2602 19.1829 15.1196 19.2406 14.9789C19.2736 14.8962 19.3066 14.8051 19.3395 14.7224C19.356 14.6893 19.3725 14.6479 19.3807 14.6231C19.3807 14.6148 19.3807 14.6148 19.389 14.6066V14.5983V14.59C19.661 13.9777 19.9742 13.3902 20.345 12.8358C20.4274 12.7117 20.5099 12.5959 20.5923 12.4717C20.6417 12.3973 20.6994 12.3228 20.7489 12.2483C20.7571 12.24 20.7571 12.2318 20.7654 12.2235C20.7654 12.2235 20.7654 12.2235 20.7654 12.2152C20.9714 11.9504 21.1939 11.6939 21.4247 11.454C21.6472 11.214 21.878 10.9823 22.117 10.7672C22.2406 10.6596 22.3642 10.5521 22.4879 10.4445C22.5538 10.3866 22.628 10.3286 22.6939 10.2707C22.7104 10.2624 22.7186 10.2542 22.7269 10.2459C22.7269 10.2459 22.7351 10.2376 22.7434 10.2376C23.2873 9.84045 23.8477 9.47637 24.4494 9.16194C24.5977 9.08747 24.7461 9.013 24.8944 8.9468C24.9686 8.9137 25.051 8.87233 25.1252 8.83923C25.1252 8.83923 25.1252 8.83923 25.1335 8.83923H25.1417C25.1499 8.83923 25.1499 8.83923 25.1582 8.83096C25.4878 8.69857 25.8175 8.58273 26.1472 8.47516C26.4521 8.38414 26.7571 8.30139 27.0702 8.2352C27.2516 8.19382 27.4411 8.16073 27.6224 8.12763C27.6966 8.11108 27.7708 8.1028 27.845 8.09453C27.8697 8.09453 27.8862 8.08625 27.8944 8.08625C27.9109 8.08625 27.9356 8.08626 27.9604 8.07798C28.6527 8.00351 29.345 7.97869 30.0455 8.02006C30.2351 8.02833 30.4246 8.04488 30.6224 8.06971C30.6636 8.06971 30.6966 8.07798 30.7378 8.08625C30.746 8.08625 30.7543 8.08625 30.7625 8.08625C30.7955 8.08625 30.8367 8.09453 30.8532 8.09453C31.2241 8.15245 31.5949 8.22692 31.9576 8.31794C32.2625 8.39241 32.5675 8.48343 32.8642 8.58272C33.0208 8.63237 33.1773 8.69029 33.3339 8.75649C33.3999 8.78131 33.474 8.80614 33.54 8.83923C33.5565 8.84751 33.5729 8.85578 33.5812 8.85578C33.5894 8.85578 33.5894 8.85578 33.5977 8.86406C33.6142 8.87233 33.6306 8.88061 33.6471 8.88888C34.257 9.17849 34.8504 9.49292 35.4108 9.87354C35.551 9.96456 35.6828 10.0556 35.8147 10.1549C35.8477 10.1797 35.8806 10.1962 35.9053 10.2211L35.9136 10.2293C35.9136 10.2293 35.9218 10.2293 35.9218 10.2376C35.9548 10.2624 36.0042 10.3038 36.029 10.3204C36.2927 10.5438 36.5564 10.7672 36.8037 11.0071C37.0674 11.2554 37.3147 11.5202 37.5537 11.7932C37.6856 11.9422 37.8092 12.0994 37.9328 12.2483C37.941 12.2649 37.9575 12.2731 37.9658 12.298C38.0152 12.3724 38.0729 12.4469 38.1224 12.5214C38.5509 13.1337 38.9218 13.7874 39.235 14.4659C39.235 14.4659 39.2762 14.5569 39.3009 14.6231C39.3009 14.6314 39.3009 14.6314 39.3092 14.6397C39.3339 14.7058 39.3833 14.8134 39.3833 14.8382C39.4493 15.012 39.5152 15.1858 39.5729 15.3595C39.6965 15.7319 39.8037 16.1125 39.8861 16.4931M19.389 9.16194L17 6.77295M29.5 6V1.5M38.1224 8.58272L40.7051 6" stroke="#F37E20" stroke-width="1.5" stroke-linecap="round" stroke-linejoin="round"/>
<path d="M20.315 42V33.8848H17V33H24.7395V33.8848H21.4245V42H20.315Z" fill="#F37E20"/>
<path d="M25.1479 42H24.0117L28.1956 33H29.158L33.3419 42H32.219L28.4896 33.7584H28.8907L25.1479 42ZM25.7895 39.6868L26.1772 38.8272H31.1764L31.564 39.6868H25.7895Z" fill="#F37E20"/>
<path d="M34.8086 42H33.4986L37.1211 37.3862L37.7627 36.6152L40.543 33H41.8396L38.3776 37.3989L37.7493 38.1826L34.8086 42ZM40.7034 42L37.7493 38.1826L37.1211 37.3862L33.6724 33H34.9823L37.7627 36.6152L38.3776 37.3989L42 42H40.7034Z" fill="#F37E20"/>
</svg>
